<?xml version="1.0" encoding="UTF-8" standalone="no"?><svg xmlns="http://www.w3.org/2000/svg" xmlns:xlink="http://www.w3.org/1999/xlink" contentStyleType="text/css" height="261px" preserveAspectRatio="none" style="width:592px;height:261px;" version="1.1" viewBox="0 0 592 261" width="592px" zoomAndPan="magnify"><defs/><g><rect fill="none" height="259.367" style="stroke:#FFFFFF;stroke-width:1.0;" width="590.6133" x="0" y="0"/><!--cluster project--><g id="cluster_project"><path d="M25.7021,23.5584 C33.9006,10.2134 41.7093,10.7133 50.3811,23.1046 C57.8958,13.0578 66.2936,12.7169 72.6825,24.2672 C78.5793,12.3599 90.1715,11.1552 97.6261,22.6035 C104.4853,14.0742 112.1037,15.0785 117.8316,23.9193 C123.4469,13.1111 130.9732,12.8657 139.4942,20.5075 C147.936,7.009 155.9188,6 165.3917,19.5193 C170.5125,7.6491 181.2891,8.8826 187.6713,18.1925 C196.4248,9.5673 202.9836,11.6832 208.5981,21.7137 C214.0717,10.4283 224.0146,11.4361 229.8594,21.3412 C238.1032,8.3622 246.8171,7.54 255.8422,20.5603 C263.792,10.0094 270.172,10.9132 276.1634,22.3687 C283.0837,12.5717 294.2024,12.0589 300.1295,23.4901 C306.8974,10.9211 317.0885,11.7447 323.6728,23.6665 C333.9906,11.5966 346.0383,14.7582 349.6133,30.0574 C351.0518,30.4036 351.2838,31.3782 350.3849,32.4714 C364.2153,38.438 362.5179,48.3875 353.0359,56.8854 C363.6631,61.7949 365.0099,73.5398 356.0631,80.9152 C368.1364,85.8266 371.45,97.3101 359.5517,105.6082 C371.3598,110.4132 369.8229,118.9132 362.3741,126.3398 C371.682,135.5325 370.4775,144.6382 359.0452,151.0352 C371.4653,162.334 369.5676,170.3289 354.4263,176.6594 C366.7676,182.8814 365.7272,195.063 354.3577,201.2189 C361.5222,215.6672 359.9575,224.9487 342.6133,229.0574 C343.3291,229.0638 343.621,229.33 343.4217,230.0682 C339.641,242.9249 328.8014,244.2432 320.649,234.4668 C314.1271,244.7807 306.9442,245.15 299.5103,235.4291 C294.0159,247.1451 282.7268,249.2661 275.7918,236.8447 C268.6712,246.6994 260.3868,245.9341 253.9776,236.0582 C249.3961,249.1262 240.2523,251.7514 230.3343,241.4594 C224.7402,250.7457 216.6097,250.5667 210.7848,241.7081 C205.5666,252.8112 194.8117,252.8394 187.8983,243.6167 C180.1229,254.2085 168.447,254.367 162.2022,241.9104 C156.4466,249.8274 146.8449,249.9343 142.6468,240.1862 C134.4438,251.2151 125.0938,251.276 118.9247,238.1858 C111.9776,250.2534 100.8458,250.4473 94.6457,237.462 C87.4622,248.6003 77.0525,246.8545 71.8786,235.4339 C64.1012,244.1363 55.9249,242.2527 51.1984,232.0895 C38.5816,242.4921 23.185,237.786 18.6133,222.0574 C21.4052,221.6632 23.2112,222.7596 22.2672,225.9093 C7.8333,219.9342 8.2525,207.3986 19.9166,199.1325 C7.8965,193.7658 6,183.2407 17.1281,175.1792 C7.6963,166.3392 9.7662,158.9752 20.1272,152.786 C7.0287,144.9697 8.1444,137.2479 18.6084,127.9883 C6.4961,122.4713 6.9689,111.6531 18.2041,105.7123 C8.8765,96.9294 9.6352,87.1993 20.7535,80.4824 C9.8829,74.0609 9.3035,63.7175 19.5535,56.2501 C7.6501,43.1467 6.995,30.5887 25.6133,23.0574 C25.8763,23.1475 25.8958,23.3874 25.7021,23.5584 " fill="#FFFCFF" style="stroke:#A0439C;stroke-width:1.0;"/><text fill="#A0439C" font-family="sans-serif" font-size="13" font-weight="bold" lengthAdjust="spacing" textLength="52" x="158.1133" y="42.1243">project</text></g><!--entity site--><g id="elem_site"><rect fill="#1168BD" height="49.1328" rx="2.5" ry="2.5" style="stroke:#FFFFFF;stroke-width:0.5;" width="140" x="201.6133" y="53.0574"/><rect fill="#1168BD" height="10" style="stroke:#FFFFFF;stroke-width:0.5;" width="15" x="321.6133" y="58.0574"/><rect fill="#1168BD" height="2" style="stroke:#FFFFFF;stroke-width:0.5;" width="4" x="319.6133" y="60.0574"/><rect fill="#1168BD" height="2" style="stroke:#FFFFFF;stroke-width:0.5;" width="4" x="319.6133" y="64.0574"/><text fill="#FFFFFF" font-family="sans-serif" font-size="13" lengthAdjust="spacing" textLength="23" x="255.1133" y="87.1243">site</text></g><!--entity pma--><g id="elem_pma"><rect fill="#1168BD" height="49.1328" rx="2.5" ry="2.5" style="stroke:#FFFFFF;stroke-width:0.5;" width="140" x="26.6133" y="53.0574"/><rect fill="#1168BD" height="10" style="stroke:#FFFFFF;stroke-width:0.5;" width="15" x="146.6133" y="58.0574"/><rect fill="#1168BD" height="2" style="stroke:#FFFFFF;stroke-width:0.5;" width="4" x="144.6133" y="60.0574"/><rect fill="#1168BD" height="2" style="stroke:#FFFFFF;stroke-width:0.5;" width="4" x="144.6133" y="64.0574"/><text fill="#FFFFFF" font-family="sans-serif" font-size="13" lengthAdjust="spacing" textLength="29" x="77.1133" y="87.1243">pma</text></g><!--entity db--><g id="elem_db"><path d="M55.6133,180.0574 C55.6133,170.0574 115.6133,170.0574 115.6133,170.0574 C115.6133,170.0574 175.6133,170.0574 175.6133,180.0574 L175.6133,208.1902 C175.6133,218.1902 115.6133,218.1902 115.6133,218.1902 C115.6133,218.1902 55.6133,218.1902 55.6133,208.1902 L55.6133,180.0574 " fill="#08427B" style="stroke:#FFFFFF;stroke-width:0.5;"/><path d="M55.6133,180.0574 C55.6133,190.0574 115.6133,190.0574 115.6133,190.0574 C115.6133,190.0574 175.6133,190.0574 175.6133,180.0574 " fill="none" style="stroke:#FFFFFF;stroke-width:0.5;"/><text fill="#FFFFFF" font-family="sans-serif" font-size="13" lengthAdjust="spacing" textLength="16" x="107.6133" y="208.1243">db</text></g><!--entity wpdb--><g id="elem_wpdb"><rect fill="#1168BD" height="54.2656" rx="35" ry="35" style="stroke:#FFFFFF;stroke-width:0.5;" width="120" x="210.6133" y="167.0574"/><text fill="#FFFFFF" font-family="sans-serif" font-size="13" lengthAdjust="spacing" textLength="43" x="249.1133" y="191.1243">docker</text><text fill="#FFFFFF" font-family="sans-serif" font-size="13" lengthAdjust="spacing" textLength="47" x="247.1133" y="206.2571">volume</text></g><!--entity local--><g id="elem_local"><path d="M458.1133,49.0574 L499.1133,49.0574 A3.75,3.75 0 0 1 501.6133,51.5574 L508.6133,70.0574 L583.1133,70.0574 A2.5,2.5 0 0 1 585.6133,72.5574 L585.6133,103.6902 A2.5,2.5 0 0 1 583.1133,106.1902 L458.1133,106.1902 A2.5,2.5 0 0 1 455.6133,103.6902 L455.6133,51.5574 A2.5,2.5 0 0 1 458.1133,49.0574 " fill="#FFFCFF" style="stroke:#A0439C;stroke-width:0.5;"/><line style="stroke:#A0439C;stroke-width:0.5;" x1="455.6133" x2="508.6133" y1="70.0574" y2="70.0574"/><text fill="#A0439C" font-family="sans-serif" font-size="13" lengthAdjust="spacing" textLength="89" x="471.1133" y="91.1243">local directory</text></g><!--link site to db--><g id="link_site_db"><path d="M239.2933,102.2774 C212.4233,121.9974 174.4033,149.9074 147.6233,169.5574 " fill="none" id="site-db" style="stroke:#E91E63;stroke-width:1.0;"/></g><!--link pma to db--><g id="link_pma_db"><path d="M100.5533,102.2774 C103.8333,122.0674 108.4833,150.0874 111.7433,169.7574 " fill="none" id="pma-db" style="stroke:#E91E63;stroke-width:1.0;"/></g><!--link db to wpdb--><g id="link_db_wpdb"><path d="M175.8533,194.0574 C187.3333,194.0574 198.8033,194.0574 210.2833,194.0574 " fill="none" id="db-wpdb" style="stroke:#E91E63;stroke-width:1.0;"/></g><!--reverse link site to local--><g id="link_site_local"><path d="M348.2833,77.5574 C382.4833,77.5574 422.3533,77.5574 455.1333,77.5574 " fill="none" id="site-backto-local" style="stroke:#E91E63;stroke-width:1.0;"/><polygon fill="#E91E63" points="343.4833,77.5574,352.4833,81.5574,348.4833,77.5574,352.4833,73.5574,343.4833,77.5574" style="stroke:#E91E63;stroke-width:1.0;"/><text fill="#E91E63" font-family="sans-serif" font-size="13" lengthAdjust="spacing" textLength="73" x="362.1133" y="68.6243">bind mount</text></g><!--SRC=[lHbfRnitzhj-1Qq6a0N8YIKhlXgdS6Gv2U0ugUNi8i02BZNp9B6Q6Qeanugsw7_VzpY7E9UFDjWOySXyZ-y-HnqsCPj0H7EcmHXyQZQJYdq9U6I-VhfYlk1pnKFTwh0905iOipfzzMf5u3WCNcePAm_mnXnUHc3iNLzwSGYHuKR82E_TIZP746U1q8R96Lj9hSKq0AQN8bfn99ypxp4LHwSiey_syCCyvdD0EaZQKy0D8AbSlfb0EcjX5kpt6Ad_bfC40qh_ri9xeyzNdsyc-E7iYV_eqXmYK3nWdWoaGfie6JAvZfX6Qu5U09ZMpelKE7TJxYtdIiQHVsVnsHbh6yKZZPAW8TekgbG-g2tQJxFPp8Ll0SVxz4CmhfHSEn0uwSFX0K7GSKi7S30yERvuroRvGxv4E_cXZ0Iv8TE3ttCHSB8zUGe284TffEJncF0SOdn_U73YjHrO0PpABSALL0QTuO3yWy5iK8BMtOsa0UTqq3y2ECe1TJUCM3c7mpwV3G-pyphyDLSHXfLhk_vnlpzqOTLxQBv8-d3NxoNF0UEHpqWePj2iKH8Dew4D1YHX9IRykv0Bbzh-yN1mD6rdy44PtkyV7azz1yxZxuCQVwOMATq-EJcniiQwpjFaNsaMKF1o8EV2Az8fsWXnA91N9Pn2TDXelHSKnaMit3kjrivAIG_yM05BcTh4sNrnpzLPlzjYx4LgF7lKOnNHwe_AJkkorWv4Viwjo3bHnU4yhEDSLhZ-g9m4FVJ0vUNbwFAotNr8XinKZ-bVDMdJeHli3-kVHkLZh2l1sqip0P_qU0AJmTEO39gPR56sIV0OO_CqxGgfywXksEXklrsDsOVnrPVnt-WRXY5VOPjVqfYI_5Zn07iSd2BE2v86cvmI8LSRQc5fd-anira9ZmV1Xcrx2jr0cs0reiVW59FTxmJEDLsuPnjCZ_406s24Ojn3YPQCY9ICa9A1xwQ61ibdOJscuzKggHyeAjxETTEaIR_B5CpZW2kswyECnu7ful6WooBim0YxnoOCFjl5dWC1ax7H6C-4Sj3De4NfXbqS4-OBKpnztKtrmiTtf2Rbocf8b0wxxENBbyNGS4FWZBGbZNgv6HCBa37FsZzvdjTEx85_71uUjYc8TiIC9RVFsWDxmjYxNAAHzQWbca2iREafyR2dbp8oPSm9EWKaMXggq1q8D3Xy3vhuvXmAV7CU_v3li9dhu5dQblLv_GFj-04uOZeGT6aDoyCcbWdw3-2O0PgSL9Bew5d6VS2bPKsFVxIc3OGitt_gnaocsgXynAwP694lPgs4waJy5rZ_e5h8tu-lnpVdLsmolhtzUFt-URLyvyLK-fkx6JAuc_5GO5t4gKlZLB-dGGcS4piCkBV8vYlcySYMVs6qNHL8j6iiWxrSoFGJDQoVQPwaIWuqMQvRhUqkL56vQSrmxbmaA0NBrwqSpfKFQ7P52qIAljqbq7HRD9mhfRV0WHU7NnM3Gq0lk2_Nj3hEE0M5GnhdvRKIsEwY2kmBwant1YwJ6rBAamftBlRQjk1a7yHDBnIH2ECGMwbFlHHjR5SR3N_447cGBQZONvKHdbZXig4PDeWbIgwekU2cY17XI80KHm7N-j-MOdz_tpN-HTB5s9-jGiJYJfj4Gc8WbZkNLQ8a2qhoChfMXJp0erlifkVOsQ8aLF0NgDPVBkTpsl8itonpjcjVKHWNK21nJIiAKIZEHbt2wh2lap4RdK_6pye2HpxF8FEKkZDN3gZmTDWdkt0IJch-GE01pX6ZOOknn1fy3He3gIZqLmqUr-1G7hXokv7ZBVayHNH7-rI_yz7jntzzlFtsz_N3QTjiQWMnAc24fHweJCm87-VvMWTznxEqB6yrfIX8fS24nipp4s7S3QfY50nxEslMcsMBELcB47CXjLznBMb0lHKcgCK_J4q-6V_wTNmzUbv8TMmadM8A0pcVZSZxMHhpgRo7Ye99NjS47ms0UKaPxXVLU4TLXIRiwhs3aiOZp2ubWoTWZYDJ398YOeVvtF0fgMIFapTYi0hancP-zZwjPzN7XaKlnCn2QFic2wyJFcThgPRSbdfxKAvssgrO6R-gIFsAba40dftUQsrPGFurXXWUHvkaebs96M0BgSlZeuOh5n3mJLru3Pek95XFYU3qndlAXseIlMv0lu4PJYHaw4es7LEPI_hhxK9uomYqPlrwCkzmIQaG61PY5SSL6orFJfldP1WYNuo_N7t-zcbyVVlC1RQKd9wJdDH3qgD6XBH8ryFPxany_uNiaALcWZSfXJUzj4qIiX6Uf64Zs0Pl0vIia-PCFSPMJ2TX7aPrA_WS2gMggPlXxfjLxOVownpBtmpxwkCKHp9SoUX9p2z5y8I6E-BAVnnhWl6Ij-K7oGKozclpeYWRlRn_j9jT8wF6IS1RWBTCtYFGAuFjcmHNQZnjahd3iEc0jJeMNylW5rT26UHLw04HFy1tFizS_40B_qYp83A3AcQv-NoU_WuDeO2rvTmO9QQnWOPPiUCEAIM0EzqqpfSto9n7ym0QTBBrmK-6FXo_VTmLJ-kkltapJVF_xTiggSDAW743_sUTExO3xoKj-9GquZLTl8UT6xODtxxpmawEFZTobJHs70CsuLG6ID4IANVo7gwBT6SA0Kx_mloS8DBNHxwTwtYGVStGxh4rrTE8DaTVQ5gGOg4NUDUi0LSjv4Qr3wsH8ZASfPJ2Bfa8adxHPxyPYBObZFPl5ci24Le4QnSrv0PfxcBn2pN9walGTdSb0oNJJQO_ohsrKRgHiWsORkkDzTXRTA7EMta2_jFk-huxmvHU5jHDqupzrQB_RrwbX5kUBIwu_US9ukNbK0i3XODLo5iEKtzAWgLbRBtofunhriQLRmdgFz6z3E8GseI2TDZUNeAFDFBFU6FFNiJGcIN58P0UUexe99zyeO0wwwRTicJUx2KefsmgSCWBCSxC_m00]--></g></svg>