<?xml version="1.0" encoding="UTF-8" standalone="no"?><svg xmlns="http://www.w3.org/2000/svg" xmlns:xlink="http://www.w3.org/1999/xlink" contentStyleType="text/css" height="280px" preserveAspectRatio="none" style="width:812px;height:280px;background:#FFFFFF;" version="1.1" viewBox="0 0 812 280" width="812px" zoomAndPan="magnify"><defs/><g><rect fill="none" height="278.5528" style="stroke:#FFFFFF;stroke-width:1.0;" width="810.9126" x="0" y="0"/><!--cluster project--><g id="cluster_project"><path d="M43.5136,36.2325 C58.3029,17.2996 73.4572,13.8357 86.8004,37.6954 C101.7698,16.6945 114.3693,20.9045 127.3026,39.7642 C136.3221,14.7588 151.7201,12.444 168.8297,32.2705 C183.1016,11.3648 200.5529,10.9319 213.9005,33.2346 C231.2572,15.2742 247.6159,11.8206 260.6331,37.8452 C270.6754,19.1765 289.9403,12.5561 303.5538,34.0265 C316.2208,15.1989 333.1676,14.5647 346.6136,33.1295 C356.6294,15.0459 374.422,12.795 387.0226,30.1851 C403.5029,9.4849 421.8523,6 435.8214,32.7668 C446.4813,16.8259 464.0442,18.5208 471.5579,36.1192 C487.6455,16.2633 508.0929,13.6609 521.2487,39.32 C530.6965,22.6962 548.3581,21.1355 559.2975,37.6051 C569.3908,17.5916 589.2333,16.2689 601.8253,34.852 C621.9544,15.6939 637.6027,16.1602 651.9126,41.4148 C653.3471,39.5927 654.6577,39.9099 655.5392,41.936 C677.4537,55.8989 681.8191,79.3114 656.7781,94.3835 C677.401,104.9662 680.2574,127.5206 661.1045,141.7374 C684.1851,156.4104 679.9568,172.7781 659.7911,186.1729 C680.5403,206.9587 673.8723,233.2641 644.9126,240.4148 C647.2727,241.5996 647.6182,243.1959 645.7216,245.1137 C633.8353,264.9083 614.2991,266.6246 603.0747,244.4413 C592.3607,268.3123 576.3548,266.648 561.2981,248.7889 C547.1542,263.2982 530.0641,261.1844 521.0021,242.6008 C508.236,269.2581 487.0786,267.9937 472.9558,243.8848 C465.6876,264.8403 445.786,266.1243 432.1169,251.1627 C422.1706,273.5528 401.587,272.4093 390.8615,251.9122 C374.6726,270.7446 359.531,272.0416 343.854,251.3041 C328.2896,266.8808 313.8625,268.8308 303.0982,246.1856 C291.3342,272.1922 271.4637,272.0291 256.086,249.7004 C241.6421,265.724 222.9277,267.1421 214.1018,243.7207 C202.5876,263.4326 190.169,266.0212 175.4234,246.9429 C160.5205,268.7896 137.9778,268.4287 128.2606,241.8884 C116.7893,262.0821 96.3068,263.547 83.6087,243.241 C62.8889,261.6029 43.1883,260.337 30.9126,233.4148 C36.2629,232.4342 39.4414,235.6294 37.756,240.9981 C9.4705,230.3259 12.793,206.7981 31.9739,190.6723 C7.4826,179.4734 6,157.6448 25.8454,140.9781 C8.1579,125.2108 9.3386,103.6047 33.3931,94.6358 C7.2826,72.3932 12.2079,52.7687 37.9126,34.4148 C40.4021,32.4475 42.7283,32.9483 43.5136,36.2325 " fill="#FFFCFF" style="stroke:#A0439C;stroke-width:1.0;"/><text fill="#A0439C" font-family="Roboto" font-size="13" font-weight="bold" lengthAdjust="spacing" textLength="52" x="315.4126" y="53.4817">project</text></g><!--entity app--><g id="elem_app"><rect fill="#1168BD" height="49.1328" rx="2.5" ry="2.5" style="stroke:#FFFFFF;stroke-width:0.5;" width="140" x="389.9126" y="64.4148"/><rect fill="#1168BD" height="10" style="stroke:#FFFFFF;stroke-width:0.5;" width="15" x="509.9126" y="69.4148"/><rect fill="#1168BD" height="2" style="stroke:#FFFFFF;stroke-width:0.5;" width="4" x="507.9126" y="71.4148"/><rect fill="#1168BD" height="2" style="stroke:#FFFFFF;stroke-width:0.5;" width="4" x="507.9126" y="75.4148"/><text fill="#FFFFFF" font-family="Roboto" font-size="13" lengthAdjust="spacing" textLength="24" x="442.9126" y="98.4817">app</text></g><!--entity pgadmin--><g id="elem_pgadmin"><rect fill="#1168BD" height="49.1328" rx="2.5" ry="2.5" style="stroke:#FFFFFF;stroke-width:0.5;" width="140" x="183.9126" y="64.4148"/><rect fill="#1168BD" height="10" style="stroke:#FFFFFF;stroke-width:0.5;" width="15" x="303.9126" y="69.4148"/><rect fill="#1168BD" height="2" style="stroke:#FFFFFF;stroke-width:0.5;" width="4" x="301.9126" y="71.4148"/><rect fill="#1168BD" height="2" style="stroke:#FFFFFF;stroke-width:0.5;" width="4" x="301.9126" y="75.4148"/><text fill="#FFFFFF" font-family="Roboto" font-size="13" lengthAdjust="spacing" textLength="56" x="220.9126" y="98.4817">pgadmin</text></g><!--entity chrome--><g id="elem_chrome"><rect fill="#1168BD" height="49.1328" rx="2.5" ry="2.5" style="stroke:#FFFFFF;stroke-width:0.5;" width="140" x="503.9126" y="180.9148"/><rect fill="#1168BD" height="10" style="stroke:#FFFFFF;stroke-width:0.5;" width="15" x="623.9126" y="185.9148"/><rect fill="#1168BD" height="2" style="stroke:#FFFFFF;stroke-width:0.5;" width="4" x="621.9126" y="187.9148"/><rect fill="#1168BD" height="2" style="stroke:#FFFFFF;stroke-width:0.5;" width="4" x="621.9126" y="191.9148"/><text fill="#FFFFFF" font-family="Roboto" font-size="13" lengthAdjust="spacing" textLength="49" x="544.4126" y="214.9817">chrome</text></g><!--entity redis--><g id="elem_redis"><path d="M348.9126,191.4148 C348.9126,181.4148 408.9126,181.4148 408.9126,181.4148 C408.9126,181.4148 468.9126,181.4148 468.9126,191.4148 L468.9126,219.5476 C468.9126,229.5476 408.9126,229.5476 408.9126,229.5476 C408.9126,229.5476 348.9126,229.5476 348.9126,219.5476 L348.9126,191.4148 " fill="#08427B" style="stroke:#FFFFFF;stroke-width:0.5;"/><path d="M348.9126,191.4148 C348.9126,201.4148 408.9126,201.4148 408.9126,201.4148 C408.9126,201.4148 468.9126,201.4148 468.9126,191.4148 " fill="none" style="stroke:#FFFFFF;stroke-width:0.5;"/><text fill="#FFFFFF" font-family="Roboto" font-size="13" lengthAdjust="spacing" textLength="31" x="393.4126" y="219.4817">redis</text></g><!--entity db--><g id="elem_db"><path d="M193.9126,191.4148 C193.9126,181.4148 253.9126,181.4148 253.9126,181.4148 C253.9126,181.4148 313.9126,181.4148 313.9126,191.4148 L313.9126,219.5476 C313.9126,229.5476 253.9126,229.5476 253.9126,229.5476 C253.9126,229.5476 193.9126,229.5476 193.9126,219.5476 L193.9126,191.4148 " fill="#08427B" style="stroke:#FFFFFF;stroke-width:0.5;"/><path d="M193.9126,191.4148 C193.9126,201.4148 253.9126,201.4148 253.9126,201.4148 C253.9126,201.4148 313.9126,201.4148 313.9126,191.4148 " fill="none" style="stroke:#FFFFFF;stroke-width:0.5;"/><text fill="#FFFFFF" font-family="Roboto" font-size="13" lengthAdjust="spacing" textLength="16" x="245.9126" y="219.4817">db</text></g><!--entity pgdata--><g id="elem_pgdata"><rect fill="#1168BD" height="54.2656" rx="35" ry="35" style="stroke:#FFFFFF;stroke-width:0.5;" width="120" x="38.9126" y="178.4148"/><text fill="#FFFFFF" font-family="Roboto" font-size="13" lengthAdjust="spacing" textLength="43" x="77.4126" y="202.4817">docker</text><text fill="#FFFFFF" font-family="Roboto" font-size="13" lengthAdjust="spacing" textLength="47" x="75.4126" y="217.6145">volume</text></g><!--entity local--><g id="elem_local"><path d="M678.4126,60.4148 L719.4126,60.4148 A3.75,3.75 0 0 1 721.9126,62.9148 L728.9126,81.4148 L803.4126,81.4148 A2.5,2.5 0 0 1 805.9126,83.9148 L805.9126,115.0476 A2.5,2.5 0 0 1 803.4126,117.5476 L678.4126,117.5476 A2.5,2.5 0 0 1 675.9126,115.0476 L675.9126,62.9148 A2.5,2.5 0 0 1 678.4126,60.4148 " fill="#FFFCFF" style="stroke:#A0439C;stroke-width:0.5;"/><line style="stroke:#A0439C;stroke-width:0.5;" x1="675.9126" x2="728.9126" y1="81.4148" y2="81.4148"/><text fill="#A0439C" font-family="Roboto" font-size="13" lengthAdjust="spacing" textLength="89" x="691.4126" y="102.4817">local directory</text></g><!--link app to db--><g id="link_app_db"><path d="M416.9826,113.7748 C381.4826,133.5048 331.3626,161.3648 296.0826,180.9748 " fill="none" id="app-db" style="stroke:#E91E63;stroke-width:1.0;"/></g><!--link app to redis--><g id="link_app_redis"><path d="M449.3426,113.6348 C440.5326,133.4248 428.0526,161.4448 419.2926,181.1148 " fill="none" id="app-redis" style="stroke:#E91E63;stroke-width:1.0;"/></g><!--link app to chrome--><g id="link_app_chrome"><path d="M483.5326,113.6348 C503.1026,133.2948 530.7626,161.0748 550.3226,180.7248 " fill="none" id="app-chrome" style="stroke:#E91E63;stroke-width:1.0;"/></g><!--link pgadmin to db--><g id="link_pgadmin_db"><path d="M253.9126,113.6348 C253.9126,133.4248 253.9126,161.4448 253.9126,181.1148 " fill="none" id="pgadmin-db" style="stroke:#E91E63;stroke-width:1.0;"/></g><!--link pgdata to db--><g id="link_pgdata_db"><path d="M159.1526,205.4148 C170.6326,205.4148 182.1026,205.4148 193.5826,205.4148 " fill="none" id="pgdata-db" style="stroke:#E91E63;stroke-width:1.0;"/></g><!--reverse link app to local--><g id="link_app_local"><path d="M536.4426,88.9148 C579.9726,88.9148 633.9226,88.9148 675.4726,88.9148 " fill="none" id="app-backto-local" style="stroke:#E91E63;stroke-width:1.0;"/><polygon fill="#E91E63" points="531.6126,88.9148,540.6126,92.9148,536.6126,88.9148,540.6126,84.9148,531.6126,88.9148" style="stroke:#E91E63;stroke-width:1.0;"/><text fill="#E91E63" font-family="Roboto" font-size="13" lengthAdjust="spacing" textLength="73" x="566.4126" y="79.9817">bind mount</text></g><!--SRC=[nLXxRnit4lzVdu9M3JW25DTQA_AZSGjRbfC0ZfDQoXq2532etLc95NUvn-LQzXtwtM_8VOZxikIsG1CWaZZ3UV4thnoGgNhcB5oG69J2pvZuGfAld8Rgs-TRuZ6wa3I8EmTa2a2MIaNdF_uOQN8IyCDO9D85lB60mn2KkUi9DmaWL5Gn4UAzcI0B9572MQo8y4aaufZDEP1unSA8elX2UP_893mdkNpo5hyi4hg03WeQVxdzSZ_5BnSx_j6N5X22f9ouWWk9paaH4B4EIOnkGxm4K9sz_SpBXpbrLmifaj1xCFpaWdH_y7s_Q_C8wO5ifsy8fqVwhwPHASNQei3P04R7ceAXNrc4u-7PwVLLLniUq1KGwWKYP3gGkGFqaJ9ETVHqh8633dMCaboQQ3vB63qQ7f-vNOjM8cTsio0IKc6yBP9txFXEXTfqDnGAh5DdS09mKX2QRYWMMOV30VM7e_oyYNzDPOZ0i6CtE1qCXZQjVW_35meF7WRzzDCXDFI8Deee36kOmc0yD2X04SPYpVyGK6PBEpeTEYVpRavtglJ1O7GwzomwJPwSXlVC8bAvVNPsPcnDugQNrkyhr19Ahyp5WhbbEUKO8Oz6S5JXAQ73eFMHQHYNkOhNwNJs8YbSy18995DgCkRD_YEL5uDUXv3zB7Zcg4zgfZKVLH-jHpfx47g5jhBcr1LByx19SzNXvgDg4lJn1MvkRiOtDzsNZSXZjIq0zPYs7TfeVrbt1ijjgclexMUfW9_wOmSbpcvAd7Ob6vPD5cnJh7RphfGxMtt3NZNxVZiX7oUtNoT_ecCeWdgPwLzapTGopKWIKOvj2iwHPrzRWtrAie3AP-8pddMOFb7F4NCfvyzaqqtq3Om9bYFzuPnZjdi7tBeMb-wP3jCdb2kG8Phn21LP8jIYH8YI53of1XdQFaFhapY9ehI0eAbuk_0jrfuCUaJ28k5KaZSU-3JXgeV7Je-4D02aFOACmIDliEa09o9HCU9PinptSchPkc4FE_rYgSgdxtgPN_ZnXDA4Y8o7MjAeHmuF3ylGi25meRtL7lMBCAOHqC6ywFxWkcutZGV-68r6NGsYFUQJzFP5rp4dX5mL5etDYngXASNObfrg7URqHeIgoZd5Hm61aOOwTGzu39RUupQzXOQItaB7NzGxRDVglChRgZ_l_iOuVWIAd1O5dxH1vQXDPSh-DsZC2MsFLB7ev5N1VU59ZTo_6ixSXKPqRF4l3tZeCR-JIfso_m8P7DSBweV9tUJ-yfPC9xFPfxiFhwkfU_jpuJq_-AZWmQS1m_g4uy-zc0ibkYW9gBlCXnpYqj2KOAPYCwXhi-wm5FKB0xDlkcdyf8SwNKr1ZtVhJcUpKjJSRHlohJlNAKifwarpltNb8uPSwYa-OzyCz1Ys3HiETy9TujI94wXCm18GBwadrde3ywa6X2KQXzQrPDXomXhjA_gixpYsadljb2iaRZpadMc3wLg5krV0GXOa0ROpJ_SpZB7PBsBuJmAX2_cUXprEAkQo22V-c62HNg7bKXTuNCGG3PO5A77CQHp_sqWS71tPmRzEEmdvNwU4LbmDKnIa0IB5uv8QGd90wbV6fvK1vNWqmuvsYTqbJA62_u3i_65hljIhbj6RPyrczoeROnDA8kxqdg0bbEUJdkOw8D-c4pA-d4vUbG6MVQv2vPbqQxPpT5av89_DrgTvil1pXWVOoyV33Y5fDEWQOWHIsUXlCRWq1akoOzjj8yTTuKATCjhpTURVvNZswL-VPj__l7yuyQhdHaEC2uYmx0LgKolI9qM-Db6lQ9wMrTMYWeBC2anep3mlDSPUOsf1GTYRUQyvB1lEwPe5c0jP_CghGGlhZ2dUo3_AGZwT_FfjSZT-7QGE39BECOL1FpuPwzVFqvZEnIFK74ppkW5yUWWhIihmgEp6bQugUigjtpkkU3p6x9A2xy0v2LKP96sCrrJHUHdOLifKj7CEhfbi6tqiCV-QG0BRsQPPWRnbFc1fRyglavOhry3fSzEpEsqNKgvTa9NT-A1nMWVtknRsU_1nIj3bleRoaIu_QT-RBPcx2Y6EoQ1Pp1KEy3K1mnA6S8GmoDuPpgz1FZ9VJxxUVld-UN8tU-LoLqaQrqeQNTkperQ6h7WsqyaRdptzekEGfqpADwqqMVrVcMcYjDBJz6Wb6_2sK7LqifnfvjYOQINCownsPLr0gOIqTHdS2_Dg-b9-NM9Pyh7VRPSu5a4amfsKtp2-GoCSK-bjvveYNefs-Q8uBXAlCI_AjaazxcphCdUegBL3kqjmL-cEhTVfpPPjMusdRJOV46m6OAAEdTGe-CMsKF2Y2hrWuaTueelyYLzehP_qZ8RAeCvPhVLVvhz32nImjbmg9TayKT0omntOmqE5O4yThNFVFIgduO93Yq-cFdZfC8PZiOVxstdJzVVlvrd-__npNTIe1Z2gu1_pEIyL6_dwlzOw7TUW6LV0uaNS8lze59L-Hmlg1MPXtPobkmuUUNd_bk2ns3xmvlWhpj8hMkXpGcFInILX1VAty57m980kCg52ylPjUY7xdalBVXRgCbiAzaok-VL7nq-XpOLBkT6LVlEO1DqNdhiTBU_zsvJZdCmPpeu1FgRwFm00]--></g></svg>