<?xml version="1.0" encoding="us-ascii" standalone="no"?><svg xmlns="http://www.w3.org/2000/svg" xmlns:xlink="http://www.w3.org/1999/xlink" contentStyleType="text/css" height="403px" preserveAspectRatio="none" style="width:555px;height:403px;" version="1.1" viewBox="0 0 555 403" width="555px" zoomAndPan="magnify"><defs/><g><rect fill="none" height="401.19" style="stroke:none;stroke-width:1.0;" width="553.5" x="0" y="0"/><!--cluster docker-compose--><g id="cluster_docker-compose"><rect fill="#FFFFFF" height="390.19" rx="2.5" ry="2.5" style="stroke:#E18114;stroke-width:1.0;" width="396" x="7" y="7"/><path d="M154,7 L154,20.2969 L144,30.2969 L7,30.2969 " fill="none" style="stroke:#E18114;stroke-width:1.0;"/><text fill="#A0439C" font-family="sans-serif" font-size="14" font-weight="bold" lengthAdjust="spacing" textLength="133" x="12" y="22.9951">docker-compose</text></g><!--cluster app--><g id="cluster_app"><rect fill="#FFFFFF" height="223.6" rx="2.5" ry="2.5" style="stroke:#E18114;stroke-width:1.0;" width="84" x="219" y="54"/><path d="M262,54 L262,67.2969 L252,77.2969 L219,77.2969 " fill="none" style="stroke:#E18114;stroke-width:1.0;"/><text fill="#A0439C" font-family="sans-serif" font-size="14" font-weight="bold" lengthAdjust="spacing" textLength="29" x="224" y="69.9951">app</text></g><!--entity mailcatcher--><g id="elem_mailcatcher"><rect fill="#1168BD" height="50.2969" rx="2.5" ry="2.5" style="stroke:#1168BD;stroke-width:0.5;" width="123" x="264.5" y="327.74"/><rect fill="#1168BD" height="10" style="stroke:#1168BD;stroke-width:0.5;" width="15" x="367.5" y="332.74"/><rect fill="#1168BD" height="2" style="stroke:#1168BD;stroke-width:0.5;" width="4" x="365.5" y="334.74"/><rect fill="#1168BD" height="2" style="stroke:#1168BD;stroke-width:0.5;" width="4" x="365.5" y="338.74"/><text fill="#FFFFFF" font-family="sans-serif" font-size="14" lengthAdjust="spacing" textLength="79" x="281.5" y="362.7351">mailcatcher</text></g><!--entity pgadmin--><g id="elem_pgadmin"><rect fill="#1168BD" height="50.2969" rx="2.5" ry="2.5" style="stroke:#1168BD;stroke-width:0.5;" width="104" x="54" y="94"/><rect fill="#1168BD" height="10" style="stroke:#1168BD;stroke-width:0.5;" width="15" x="138" y="99"/><rect fill="#1168BD" height="2" style="stroke:#1168BD;stroke-width:0.5;" width="4" x="136" y="101"/><rect fill="#1168BD" height="2" style="stroke:#1168BD;stroke-width:0.5;" width="4" x="136" y="105"/><text fill="#FFFFFF" font-family="sans-serif" font-size="14" lengthAdjust="spacing" textLength="60" x="71" y="128.9951">pgadmin</text></g><!--entity chrome--><g id="elem_chrome"><rect fill="#1168BD" height="50.2969" rx="2.5" ry="2.5" style="stroke:#1168BD;stroke-width:0.5;" width="97" x="132.5" y="327.74"/><rect fill="#1168BD" height="10" style="stroke:#1168BD;stroke-width:0.5;" width="15" x="209.5" y="332.74"/><rect fill="#1168BD" height="2" style="stroke:#1168BD;stroke-width:0.5;" width="4" x="207.5" y="334.74"/><rect fill="#1168BD" height="2" style="stroke:#1168BD;stroke-width:0.5;" width="4" x="207.5" y="338.74"/><text fill="#FFFFFF" font-family="sans-serif" font-size="14" lengthAdjust="spacing" textLength="53" x="149.5" y="362.7351">chrome</text></g><!--entity redis--><g id="elem_redis"><path d="M323,220.8 C323,210.8 352,210.8 352,210.8 C352,210.8 381,210.8 381,220.8 L381,250.0969 C381,260.0969 352,260.0969 352,260.0969 C352,260.0969 323,260.0969 323,250.0969 L323,220.8 " fill="#08427B" style="stroke:#FFFFFF;stroke-width:0.5;"/><path d="M323,220.8 C323,230.8 352,230.8 352,230.8 C352,230.8 381,230.8 381,220.8 " fill="none" style="stroke:#FFFFFF;stroke-width:0.5;"/><text fill="#FFFFFF" font-family="sans-serif" font-size="14" lengthAdjust="spacing" textLength="34" x="335" y="249.7951">redis</text></g><!--entity db--><g id="elem_db"><path d="M85,220.8 C85,210.8 106,210.8 106,210.8 C106,210.8 127,210.8 127,220.8 L127,250.0969 C127,260.0969 106,260.0969 106,260.0969 C106,260.0969 85,260.0969 85,250.0969 L85,220.8 " fill="#08427B" style="stroke:#FFFFFF;stroke-width:0.5;"/><path d="M85,220.8 C85,230.8 106,230.8 106,230.8 C106,230.8 127,230.8 127,220.8 " fill="none" style="stroke:#FFFFFF;stroke-width:0.5;"/><text fill="#FFFFFF" font-family="sans-serif" font-size="14" lengthAdjust="spacing" textLength="18" x="97" y="249.7951">db</text></g><!--entity pgdata--><g id="elem_pgdata"><rect fill="#1168BD" height="56.5938" rx="35" ry="35" style="stroke:#1168BD;stroke-width:0.5;" width="74" x="23" y="324.6"/><text fill="#FFFFFF" font-family="sans-serif" font-size="14" lengthAdjust="spacing" textLength="48" x="36" y="349.5951">docker</text><text fill="#FFFFFF" font-family="sans-serif" font-size="14" lengthAdjust="spacing" textLength="50" x="35" y="365.892">volume</text></g><!--entity puma--><g id="elem_puma"><ellipse cx="261" cy="109" fill="#FFFFFF" rx="12" ry="12" style="stroke:#08427B;stroke-width:0.5;"/><polygon fill="#08427B" points="257,97,263,92,261,97,263,102,257,97" style="stroke:#08427B;stroke-width:1.0;"/><text fill="#08427B" font-family="sans-serif" font-size="14" lengthAdjust="spacing" textLength="39" x="241.5" y="139.9951">puma</text></g><!--entity sidekiq--><g id="elem_sidekiq"><ellipse cx="261" cy="225.3" fill="#FFFFFF" rx="12" ry="12" style="stroke:#08427B;stroke-width:0.5;"/><polygon fill="#08427B" points="257,213.3,263,208.3,261,213.3,263,218.3,257,213.3" style="stroke:#08427B;stroke-width:1.0;"/><text fill="#08427B" font-family="sans-serif" font-size="14" lengthAdjust="spacing" textLength="49" x="236.5" y="256.2951">sidekiq</text></g><!--entity local--><g id="elem_local"><path d="M422,90 L463,90 A3.75,3.75 0 0 1 465.5,92.5 L472.5,111 L546,111 A2.5,2.5 0 0 1 548.5,113.5 L548.5,145.7969 A2.5,2.5 0 0 1 546,148.2969 L422,148.2969 A2.5,2.5 0 0 1 419.5,145.7969 L419.5,92.5 A2.5,2.5 0 0 1 422,90 " fill="#FFFFFF" style="stroke:#A0439C;stroke-width:0.5;"/><line style="stroke:#A0439C;stroke-width:0.5;" x1="419.5" x2="472.5" y1="111" y2="111"/><text fill="#A0439C" font-family="sans-serif" font-size="14" lengthAdjust="spacing" textLength="95" x="431.5" y="132.9951">local directory</text></g><!--link puma to sidekiq--><g id="link_puma_sidekiq"><path d="M261,145.52 C261,164.46 261,190.23 261,209.15 " fill="none" id="puma-sidekiq" style="stroke:#E91E63;stroke-width:1.0;stroke-dasharray:7.0,7.0;"/></g><!--link puma to db--><g id="link_puma_db"><path d="M239.06,145.76 C238.06,146.65 237.03,147.5 236,148.3 C213.09,166.12 202.44,162.64 178,178.3 C160.12,189.76 145.8518,200.7839 131.9118,212.3239 " fill="none" id="puma-to-db" style="stroke:#E91E63;stroke-width:1.0;"/><polygon fill="#E91E63" points="127.29,216.15,136.7734,213.4921,131.1415,212.9616,131.672,207.3297,127.29,216.15" style="stroke:#E91E63;stroke-width:1.0;"/></g><!--link sidekiq to mailcatcher--><g id="link_sidekiq_mailcatcher"><path d="M275.43,262.07 C286.42,281.6 298.5275,303.0911 309.3375,322.3011 " fill="none" id="sidekiq-to-mailcatcher" style="stroke:#E91E63;stroke-width:1.0;"/><polygon fill="#E91E63" points="312.28,327.53,311.3523,317.7249,309.8279,323.1725,304.3803,321.6482,312.28,327.53" style="stroke:#E91E63;stroke-width:1.0;"/></g><!--link puma to redis--><g id="link_puma_redis"><path d="M281.2,145.52 C296.59,164.85 313.9118,186.6169 329.0618,205.6369 " fill="none" id="puma-to-redis" style="stroke:#E91E63;stroke-width:1.0;"/><polygon fill="#E91E63" points="332.8,210.33,330.3214,200.7981,329.6848,206.419,324.0639,205.7824,332.8,210.33" style="stroke:#E91E63;stroke-width:1.0;"/></g><!--reverse link redis to sidekiq--><g id="link_redis_sidekiq"><path d="M316.59,235.45 C304.95,235.45 299.3,235.45 287.66,235.45 " fill="none" id="redis-backto-sidekiq" style="stroke:#E91E63;stroke-width:1.0;"/><polygon fill="#E91E63" points="322.59,235.45,313.59,231.45,317.59,235.45,313.59,239.45,322.59,235.45" style="stroke:#E91E63;stroke-width:1.0;"/></g><!--reverse link puma to chrome--><g id="link_puma_chrome"><path d="M243.7672,150.9338 C234.3572,168.4238 225.17,187.11 217,209.3 C202.13,249.67 191.24,298.67 185.53,327.45 " fill="none" id="puma-backto-chrome" style="stroke:#E91E63;stroke-width:1.0;"/><polygon fill="#E91E63" points="246.61,145.65,238.8233,151.6805,244.241,150.0532,245.8683,155.4709,246.61,145.65" style="stroke:#E91E63;stroke-width:1.0;"/></g><!--link pgadmin to db--><g id="link_pgadmin_db"><path d="M106,144.67 C106,164.09 106,185.06 106,204.36 " fill="none" id="pgadmin-to-db" style="stroke:#E91E63;stroke-width:1.0;"/><polygon fill="#E91E63" points="106,210.36,110,201.36,106,205.36,102,201.36,106,210.36" style="stroke:#E91E63;stroke-width:1.0;"/></g><!--link db to pgdata--><g id="link_db_pgdata"><path d="M96.47,260.37 C89.05,278.99 80.9629,299.297 73.1929,318.777 " fill="none" id="db-to-pgdata" style="stroke:#E91E63;stroke-width:1.0;"/><polygon fill="#E91E63" points="70.97,324.35,78.0197,317.4724,72.8224,319.7058,70.589,314.5085,70.97,324.35" style="stroke:#E91E63;stroke-width:1.0;"/></g><!--reverse link puma to local--><g id="link_puma_local"><path d="M288.79,119.15 C320.13,119.15 373.24,119.15 419.32,119.15 " fill="none" id="puma-backto-local" style="stroke:#E91E63;stroke-width:1.0;"/><polygon fill="#E91E63" points="282.79,119.15,291.79,123.15,287.79,119.15,291.79,115.15,282.79,119.15" style="stroke:#E91E63;stroke-width:1.0;"/><text fill="#E91E63" font-family="sans-serif" font-size="13" lengthAdjust="spacing" textLength="73" x="314.5" y="110.2169">bind mount</text></g><!--SRC=[rLfjKnit4FxkNw7GpF050pOq0KepmslI6KeefDCldQ7otTvPGISvaWxZTlhVkzATZNJdEqDAm84PV6XNku_sJIkTLycLcN0cKgB16FpK996AN70gpE-_df6OqLJHJ7TMoHK06HepsjlO65bodl5rBNCL0Sv8OLs0SNDZ6UKP24CDamBdVP8aHH8bd6b3P496Kcisu43q3HCZYk9dojU8oiKUcSedNNn8Sve2oa7HaG9g04NDy2KCvOoP6PBFEKh_QoOI32ZzLwVpYec8vp6GVPEFQAosDX8fJ9UEGSiCDdADREywAFxeuzd7oojy-Fc1FtPI2W8KvIIIN2eqdP8PaMD1D1eLz130T5wzHeDSMwNNZelyJ5P-sDcqloj8f4h9iKU1tHwysR8KzCgDHzZQtjqvFbonMZDwWqQ8CocOjV5KExsbZ5DhMEi6u62zeAsEEBkEQ6vvFO5qStjhDrgfq0EM94ccT9QDf38qM4MyrK_wSpYQP0XfmAFqUsy1tWR4ffc6ZJp2TeycsszyMjEyCLK2uygtRs-drzkkqklpqSn2nd3TMoi- -uIAc5YGnA3vHU7hestdQXI10Wj-Jz3cpdR_xM3bdZGFPY7T6-_rtkmCOe_KCelcT_qvCMBfWQbtTtTdetFNYdam9w9i74apX22Qk4nPD1DHD_ECnLCqrzZ8c2gPZqAk851dB5LPrN2rQSPkMGmgv9i5ZiTGbUK7aBN5-vFpayk3Ct9rykdJB-Vl7rSJNhqUo7XIv7j2CyOdriwQ2jt5KiFGsgi4Q3ISMfH4LBZwo8nsfUCKPvvZ_LfpJrVix-cJBIa_sGX4HyLWOt7SwToNq4CQtLXRYVZ8BSuer8aarE5n7HVr_50gj4GRuuV929GjGGMJLutGHFTi634o6c8gO5ge73m1UaXZEROxIqAvzYaVC9F6YXbZiwX2ky2rsJbzNycbNLKa5TPQygF7_2iJBCkpFrYCzR-tkUcRunWIcdD3_kaGPxvo6M4jBcdMtAJcjvBex8x6LXdbEFG9xim1Pwaed8T_G7N-zJLpbW1Q2wxGi0RI2T6IizW6LYn1EmTgW8mOISPItP1RHic-sp3UaGcOFLyMRhfVSX0HlBTPu1P3QfxsCx9WyBnR8tu0YaJF966o8a-mcYc0IqX0sOSc466Urd5ugUw87e8ggO2uMCE_SqrrNAHv4ywWJDHXrib-z5GgI0t3xneYggSskiBO06amapmPbQ9U5N4G6LbWBmAlR5HiY9L1WgJrOZzfMgA_4JcECmp79beLMY_qOVCQUlu2ffZwhPZwBPZwBPZw3yNKhs1oiVtGjF4GLKbjwTA09nHHm74HRCjRQmxDHRGmVHOZ2aKKYEB79ei7wR6fqW2hAgO05idCLTZ6S9hsD_LW2YX1X7ZTJriWUG8AC6MNq0GcR3GgMciTXY_KzPCjKfiNKskP0xbbgzKcEkpPvaYljMk-WhB_QbCGDd9p5DHwE5_1x3JHfg9oA9cdf7ugcQfn9wzIkXS_te6i9YyWEI5OhZ5ypMGvobx9HfLfglOdpPl48LNDfGlxHcprufSifG5VGuimhvSXtfxwz9lbL-oK1sbhONk1VV906PRGQBb07Le0L4qME2uG_irzToZl7j40FsR__ghsbv0ZgkAbSjiHbtdyZMrKA9ASGsHt4Ftj6-5I8sucOjcIzmZ9IlAbIfDZQkZW_Y2qs34BJY5rm5NV70EdqrAngBbSTOTmU_YsFHAUkTq6ztoDi0Dn8ioYlk6vlNPgBzENARHF9M_noSiKt5FxSc6v80MNGpAUF6bxzjZUp27w07SqRJuUB7Ux-8kzqyDs2DhXDtdvQIpwbTZFoil7HnmgcnFPIJp7iUKAz_EMG_DJt0iu9Hy7ds796k8BH45JU8xUwWAFa2nY8xgWrtcwtiffRBjIU9bOkm2bcp4z_zdnGYhp7PQbttB8eNxNCkSEudyrYaxN9UOj5Ic7xsptSQohzXL2J9YmhvOpN23NUuwmFWYFmm_pV-lYMcFW8I-A7XC6rZcbWwuCSYzLPKL4vccspAV495LBjNyPEurPngcOayaFEW85ii9NPI-slchrqBEtYEv5UGcl_gQvI5RCKpgRClsor1enG_ndUWJcT02SC4tmGuu9Cslk-2blyMJ3p4zEKkMytBvPE9pkJyP4dD5HYBNjYm2MBkuRkeVOlTto2ssFjgDtdkr-tBnV0o43UST1wyPbz-VLZ_50Xol-lbUqlr6-r-qaxcWPo-W6L3UobqrbH1G4EfeUygBoocUKPpGOq9XdD-oB6xD4ihxkZLbzqUmEAwECHzH4Gr31-2Z5YiT4C5PynGE7Pb6j86RQ7uW7DdlAeZLAxJYXcgmKo_bJt4gUPx1YhUIGTRlloZa5FZSGOfhnJPMvJxBVzTRaUFQxtUuznd81znhYWNikGDatwKbnhy1bHBa3MJp5J85zLJ1PwPHY2vOzCi14m-qu5-O_]--></g></svg>