<?xml version="1.0" encoding="us-ascii" standalone="no"?><svg xmlns="http://www.w3.org/2000/svg" xmlns:xlink="http://www.w3.org/1999/xlink" contentStyleType="text/css" height="396px" preserveAspectRatio="none" style="width:662px;height:396px;" version="1.1" viewBox="0 0 662 396" width="662px" zoomAndPan="magnify"><defs/><g><rect fill="none" height="394.53" style="stroke:#FFFFFF;stroke-width:1.0;" width="660" x="0" y="0"/><!--cluster docker-compose--><g id="cluster_docker-compose"><rect fill="#FFFCFF" height="383.53" rx="2.5" ry="2.5" style="stroke:#A0439C;stroke-width:1.0;" width="502" x="7" y="7"/><path d="M144,7 L144,19.1328 L134,29.1328 L7,29.1328 " fill="none" style="stroke:#A0439C;stroke-width:1.0;"/><text fill="#A0439C" font-family="sans-serif" font-size="13" font-weight="bold" lengthAdjust="spacing" textLength="123" x="12" y="22.0669">docker-compose</text></g><!--cluster app--><g id="cluster_app"><rect fill="#FFFCFF" height="220.26" rx="2.5" ry="2.5" style="stroke:#A0439C;stroke-width:1.0;" width="132" x="222" y="53"/><path d="M265,53 L265,65.1328 L255,75.1328 L222,75.1328 " fill="none" style="stroke:#A0439C;stroke-width:1.0;"/><text fill="#A0439C" font-family="sans-serif" font-size="13" font-weight="bold" lengthAdjust="spacing" textLength="29" x="227" y="68.0669">app</text></g><!--entity mailcatcher--><g id="elem_mailcatcher"><rect fill="#1168BD" height="49.1328" rx="2.5" ry="2.5" style="stroke:#FFFFFF;stroke-width:0.5;" width="140" x="353" y="322.83"/><rect fill="#1168BD" height="10" style="stroke:#FFFFFF;stroke-width:0.5;" width="15" x="473" y="327.83"/><rect fill="#1168BD" height="2" style="stroke:#FFFFFF;stroke-width:0.5;" width="4" x="471" y="329.83"/><rect fill="#1168BD" height="2" style="stroke:#FFFFFF;stroke-width:0.5;" width="4" x="471" y="333.83"/><text fill="#FFFFFF" font-family="sans-serif" font-size="13" lengthAdjust="spacing" textLength="75" x="380.5" y="356.8969">mailcatcher</text></g><!--entity pgadmin--><g id="elem_pgadmin"><rect fill="#1168BD" height="49.1328" rx="2.5" ry="2.5" style="stroke:#FFFFFF;stroke-width:0.5;" width="140" x="30" y="92"/><rect fill="#1168BD" height="10" style="stroke:#FFFFFF;stroke-width:0.5;" width="15" x="150" y="97"/><rect fill="#1168BD" height="2" style="stroke:#FFFFFF;stroke-width:0.5;" width="4" x="148" y="99"/><rect fill="#1168BD" height="2" style="stroke:#FFFFFF;stroke-width:0.5;" width="4" x="148" y="103"/><text fill="#FFFFFF" font-family="sans-serif" font-size="13" lengthAdjust="spacing" textLength="56" x="67" y="126.0669">pgadmin</text></g><!--entity chrome--><g id="elem_chrome"><rect fill="#1168BD" height="49.1328" rx="2.5" ry="2.5" style="stroke:#FFFFFF;stroke-width:0.5;" width="140" x="178" y="322.83"/><rect fill="#1168BD" height="10" style="stroke:#FFFFFF;stroke-width:0.5;" width="15" x="298" y="327.83"/><rect fill="#1168BD" height="2" style="stroke:#FFFFFF;stroke-width:0.5;" width="4" x="296" y="329.83"/><rect fill="#1168BD" height="2" style="stroke:#FFFFFF;stroke-width:0.5;" width="4" x="296" y="333.83"/><text fill="#FFFFFF" font-family="sans-serif" font-size="13" lengthAdjust="spacing" textLength="49" x="218.5" y="356.8969">chrome</text></g><!--entity redis--><g id="elem_redis"><path d="M373,217.63 C373,207.63 433,207.63 433,207.63 C433,207.63 493,207.63 493,217.63 L493,245.7628 C493,255.7628 433,255.7628 433,255.7628 C433,255.7628 373,255.7628 373,245.7628 L373,217.63 " fill="#08427B" style="stroke:#FFFFFF;stroke-width:0.5;"/><path d="M373,217.63 C373,227.63 433,227.63 433,227.63 C433,227.63 493,227.63 493,217.63 " fill="none" style="stroke:#FFFFFF;stroke-width:0.5;"/><text fill="#FFFFFF" font-family="sans-serif" font-size="13" lengthAdjust="spacing" textLength="31" x="417.5" y="245.6969">redis</text></g><!--entity db--><g id="elem_db"><path d="M40,217.63 C40,207.63 100,207.63 100,207.63 C100,207.63 160,207.63 160,217.63 L160,245.7628 C160,255.7628 100,255.7628 100,255.7628 C100,255.7628 40,255.7628 40,245.7628 L40,217.63 " fill="#08427B" style="stroke:#FFFFFF;stroke-width:0.5;"/><path d="M40,217.63 C40,227.63 100,227.63 100,227.63 C100,227.63 160,227.63 160,217.63 " fill="none" style="stroke:#FFFFFF;stroke-width:0.5;"/><text fill="#FFFFFF" font-family="sans-serif" font-size="13" lengthAdjust="spacing" textLength="16" x="92" y="245.6969">db</text></g><!--entity pgdata--><g id="elem_pgdata"><rect fill="#1168BD" height="54.2656" rx="35" ry="35" style="stroke:#FFFFFF;stroke-width:0.5;" width="120" x="23" y="320.26"/><text fill="#FFFFFF" font-family="sans-serif" font-size="13" lengthAdjust="spacing" textLength="43" x="61.5" y="344.3269">docker</text><text fill="#FFFFFF" font-family="sans-serif" font-size="13" lengthAdjust="spacing" textLength="47" x="59.5" y="359.4597">volume</text></g><!--entity puma--><g id="elem_puma"><ellipse cx="288" cy="107" fill="#FFFFFF" rx="12" ry="12" style="stroke:#08427B;stroke-width:0.5;"/><polygon fill="#08427B" points="284,95,290,90,288,95,290,100,284,95" style="stroke:#08427B;stroke-width:1.0;"/><text fill="#08427B" font-family="sans-serif" font-size="13" lengthAdjust="spacing" textLength="37" x="269.5" y="137.0669">puma</text></g><!--entity sidekiq--><g id="elem_sidekiq"><ellipse cx="288" cy="222.13" fill="#FFFFFF" rx="12" ry="12" style="stroke:#08427B;stroke-width:0.5;"/><polygon fill="#08427B" points="284,210.13,290,205.13,288,210.13,290,215.13,284,210.13" style="stroke:#08427B;stroke-width:1.0;"/><text fill="#08427B" font-family="sans-serif" font-size="13" lengthAdjust="spacing" textLength="44" x="266" y="252.1969">sidekiq</text></g><!--entity local--><g id="elem_local"><path d="M527.5,88 L568.5,88 A3.75,3.75 0 0 1 571,90.5 L578,109 L652.5,109 A2.5,2.5 0 0 1 655,111.5 L655,142.6328 A2.5,2.5 0 0 1 652.5,145.1328 L527.5,145.1328 A2.5,2.5 0 0 1 525,142.6328 L525,90.5 A2.5,2.5 0 0 1 527.5,88 " fill="#FFFCFF" style="stroke:#A0439C;stroke-width:0.5;"/><line style="stroke:#A0439C;stroke-width:0.5;" x1="525" x2="578" y1="109" y2="109"/><text fill="#A0439C" font-family="sans-serif" font-size="13" lengthAdjust="spacing" textLength="89" x="540.5" y="130.0669">local directory</text></g><!--link puma to sidekiq--><g id="link_puma_sidekiq"><path d="M288,142.39 C288,161.26 288,187.08 288,205.93 " fill="none" id="puma-sidekiq" style="stroke:#E91E63;stroke-width:1.0;stroke-dasharray:7.0,7.0;"/></g><!--link puma to db--><g id="link_puma_db"><path d="M246.74,142.39 C216.27,160.73 174.87,185.65 143.81,204.34 " fill="none" id="puma-to-db" style="stroke:#E91E63;stroke-width:1.0;"/><polygon fill="#E91E63" points="139.91,207.28,149.6854,206.0795,144.1975,204.7075,145.5695,199.2196,139.91,207.28" style="stroke:#E91E63;stroke-width:1.0;"/></g><!--link sidekiq to mailcatcher--><g id="link_sidekiq_mailcatcher"><path d="M315.21,257.7 C323.7,265.36 333.16,273.75 342,281.26 C356.82,293.87 373.53,307.42 387.91,318.87 " fill="none" id="sidekiq-to-mailcatcher" style="stroke:#E91E63;stroke-width:1.0;"/><polygon fill="#E91E63" points="391.29,322.36,386.718,313.6366,387.3704,319.2558,381.7512,319.9081,391.29,322.36" style="stroke:#E91E63;stroke-width:1.0;"/></g><!--link puma to redis--><g id="link_puma_redis"><path d="M319.82,142.39 C343.11,160.56 374.68,185.2 398.56,203.83 " fill="none" id="puma-to-redis" style="stroke:#E91E63;stroke-width:1.0;"/><polygon fill="#E91E63" points="402.23,207.47,397.6077,198.7732,398.2925,204.3885,392.6772,205.0732,402.23,207.47" style="stroke:#E91E63;stroke-width:1.0;"/></g><!--reverse link redis to sidekiq--><g id="link_redis_sidekiq"><path d="M366.87,231.7 C357.38,231.7 347.9,231.7 338.41,231.7 " fill="none" id="redis-backto-sidekiq" style="stroke:#E91E63;stroke-width:1.0;"/><polygon fill="#E91E63" points="371.77,231.7,362.77,227.7,366.77,231.7,362.77,235.7,371.77,231.7" style="stroke:#E91E63;stroke-width:1.0;"/></g><!--reverse link puma to chrome--><g id="link_puma_chrome"><path d="M257.71,146.72 C243.29,162.72 227.58,183.82 220,206.13 C209.26,237.75 213.27,248.56 220,281.26 C222.93,295.49 229.11,310.44 234.92,322.42 " fill="none" id="puma-backto-chrome" style="stroke:#E91E63;stroke-width:1.0;"/><polygon fill="#E91E63" points="260.73,143.35,251.6957,147.272,257.3475,147.0322,257.5873,152.684,260.73,143.35" style="stroke:#E91E63;stroke-width:1.0;"/></g><!--link pgadmin to db--><g id="link_pgadmin_db"><path d="M100,141.56 C100,159.19 100,183.23 100,201.9 " fill="none" id="pgadmin-to-db" style="stroke:#E91E63;stroke-width:1.0;"/><polygon fill="#E91E63" points="100,206.51,104,197.51,100,201.51,96,197.51,100,206.51" style="stroke:#E91E63;stroke-width:1.0;"/></g><!--link db to pgdata--><g id="link_db_pgdata"><path d="M96.48,256.26 C93.96,273.12 90.53,296.01 87.77,314.5 " fill="none" id="db-to-pgdata" style="stroke:#E91E63;stroke-width:1.0;"/><polygon fill="#E91E63" points="86.93,319.09,92.2232,310.7844,87.6731,314.1455,84.312,309.5955,86.93,319.09" style="stroke:#E91E63;stroke-width:1.0;"/></g><!--reverse link puma to local--><g id="link_puma_local"><path d="M344.01,116.57 C395.14,116.57 470.74,116.57 524.62,116.57 " fill="none" id="puma-backto-local" style="stroke:#E91E63;stroke-width:1.0;"/><polygon fill="#E91E63" points="339.21,116.57,348.21,120.57,344.21,116.57,348.21,112.57,339.21,116.57" style="stroke:#E91E63;stroke-width:1.0;"/><text fill="#E91E63" font-family="sans-serif" font-size="13" lengthAdjust="spacing" textLength="73" x="395" y="107.6369">bind mount</text></g><!--SRC=[lHbhRnityhj-1QqQK0J8ZYKhZktQAHn5JW8uJcevTmXmW4ljZYHMkyijbsj5L_I_tmovAt5VVhJ1DMYaS8RpVb8TDj7hG4Hpbe3M-9cmcLJiIy0Z_VNJ5VC5doiU9gqEcm2mXTRnwSkNCO7JCDXFPAeym1jps8z0cxk-zD8G8isra17UkvLiZY3E0f5e9cSibaaYfW6mP2cYc2Fv3VCUKsbqodBwR0-_p5C-1wI3f3q5N0EIsiWt4qXd9VI2_PuYzTys9463IdvhuRtHvwlFDnFySlx4_-ZI729GF62U3AH2coWPChcAM8BMWcG1e5ixkvbnxgRSMywLJ2F_pk2pSzRMYaS9IeA6QBkeKlcWjcW_pMOp5xu571_G7u9nfUJAWS197uuE2OAEMpg0m-79yRktRP8_v4kqan_AI90RSZtuFHS19zkJfo00SbI2b3oU4fv3Z1yC3q-yjWChW3EvHHXBfT4P3iW_7Cm69MZTtKXgS4u7_TS0hpU0kXjQnCxXiCzdmwFyl0v_nLM4OUNQhd_SxmzTMFKUcY-IFjprU_Ppm7ZaCnAAQJHhPADXD3J1W2ICn8H_5tBXKZiu7WvUJzivV526z_j7nrFVWVFq-w36dvb5IhTFJawCh6bIvsdohzGBA7Wva7FX5UaKROGu5CXn2QSG7IPQxmM5SH5huvrMQoTMqWC_LS0ofYPnNkpUStNUxxOOsysCPuvwh29Q_L7PQLtMse78tt0hShQgE9o7TPpB2jSVbPEWXnwulBmSNLwskm_9a9lgCVsh9cqwT8FzOVspg7oCTILuUracu2TzF879u6bC1irCjYZR97YCiNwQTeNKULGtR7Ittwx6xCFuwiluR_GDpP2lCCtFDYQR7p4FiCV1AUBiaZJOv9G8kLfJ2ylwJ8_fTImy7WHhjkqfT0DjWjM8FWQdcEn-9t2k9OLxfi7q60-m0KOenZsKQCc8ICa8AMduhcjea7m6rcD96iUsVg2eU7kZMqAQzBjCmJmDk68lV9ZnDD1TF1vqMOGT667ts8J1Po-mvq30PAeJZ6T2EUpcqA9qmowE2VE5Bfw-wcPwuSTtf2PbR3GaIaTTjh-_NmmDDmJEILlIgBSnexK06VEy_PFdUMrh3_p7qT5Hcu9eHyoOlNtU7fWJnjvk91ePZngY5c9aoqw9Xpczb94kOqxGAI3Hqb25xa2GWCFti8dlXaE1xuR7F-GxREOwU9QsPNrU_K0xVW2Ec0u4NLh3ygY9fKN_0HnpG9EJIXAzVfPn7t1fMTFZ7wrf0o73zv-wCPUfDYeViMikHkIBMSjIdOZ_0kiVLWlv-_7r-ERYYat6jxSVhzy_hvRlx4wblxwR8OEx6Gy5raMSkXASwlSIK0Bdn0u3xYto-OfvF3BbN-Z4h0easZMMmTv6oEmRDQoVQPwaIWuqMQvQhUqkL56vQSrmxhopA0NBrwqSpfKFQ7P52qI6ljqbq7HRD9mhfRV0WHU7NvM2Go1PS5-kQ7MSSGeAXpJEooibiDr55TWNr9dk35mcDwIK9nNkNEoLQS5s7yHDBnIH2DCGMwbFlHHjR5QR1Fv88V8WNr2nloejF17Zif4mR11Bb5nHSy5D4IF2aG0fZWAU9Fys5Fi71wxntzaknlvi5I8MTreR2TP0REDSLecIF2Z9o-XQ5V80ZswncrvWPujigE1Ve5f_kPmlQCipVFFCsQvzHM5SG874DQqeHA4u6tK9gyE-JiPiT34PFoiB7FayZSmpwivSEQ32qs6VpC99E9dv0u47E4UCXYt6h3Nu2X8CfABGNnFmU08EvO4hjnivtfBFCqHtjC_qknZTVlpNnzjlVry_dBRrkbOGem96MEQ1oiICyF4cN-kWRtcUbkMjfXG5cHIOq9XvlXN6tQ0gHi6mDxDclLcsc9EL234NCliLrv86r5kXWrhyeypaa_6lNyVNe-U5LCT4qYccC93psOYydwSndyfxg2Xeyxec-6W0t9IKuK5HZRTKLMZ2hjuxB6aymknICdW2vZZInI0f8dQOppMVaahcsBw8GHp8jSdy_3sjPzJ7XaKFOdeX4lEIXTS9dxELL4jkIhqvA5UxnArOER-gIFsAba40dfdUQsrPGFurXHGUHvjaebs96M0BgSlZrmrNta70rtNXDMYwOB6U4i7PZVUK3zKaUjM0VWCpd4Z8q9LiEgOoP_lhxK9uomYIXFNhoRp59QL2O5Y8LHnNJBGyEMsUas68_6xyvUhpjq_ZwzjdBh2bvFISvAGUaXqr8cH5kXxENip4zr_83dbgMhn9ARpfqTOcP2FSfc4Zs0Hl0vIia-LCFSPMJ2TX7aPrA_WS2gMggPlXxfjNxOVowmBBtmpxwkCKHpACPVGavfSYU4B37N7bFuurmNZPjEK7oGKozMlpeYWRFTu_siskaL7Z9E0jm5lQTmHwCjY-9BXIuscJp1s6JGUCrR7u6WQ_k1BAO5E57X3n0tpdyzp53xJmZpGB8ZEeOfQRp-Vfxz0G2bXRBhHMOffgQ9WLE-wGKWAuqqtZV7c3p7aq3w119rCVV3lquVZjuwvuMdVzx6oQvV-RDrLIHvK0unh-ppftJ0VUiotub3JYDLsyXvqRjWtVl7bX9qUVQndRnevZm3gSoW0f6YBbJjx3TP7kJ270wL_edoqY_NpacxcE1_dF3EqUMr4zZMXpz4L22r8gaWNUrIl0LGkvKUr3QsI836SffR1BMa6o7_hCBmFHjeJH_itIX4245i7AHGsvHfeliFY52SdgIqZCxae6ijDDhZ_AlRLHjf6oDUXkwynux0swCDcqSWl-q-pwlZl3b1uBwgPfnlvgqVzdBpF2hPcf6hYcBK7jULG9CseMmECue-rbarwSXhnmG2-JI_67EICWszztpeYVjocmA4pWSOrrHXNEupdtG_CAiZspotFBKL81UiyzyATacQoEndCwPpnXRQlEVw9x6QGXj6aBCPBjxRt9xbZvp45HfWrUpinyihCzHoU3SxQtjxULCLDWoy6VckzMACgCcIr-WVGmCab8-yqN2cXoMBTR6LcBSigc0eVO4FD8_my0]--></g></svg>