<?xml version="1.0" encoding="us-ascii" standalone="no"?><svg xmlns="http://www.w3.org/2000/svg" xmlns:xlink="http://www.w3.org/1999/xlink" contentStyleType="text/css" height="890px" preserveAspectRatio="none" style="width:654px;height:890px;" version="1.1" viewBox="0 0 654 890" width="654px" zoomAndPan="magnify"><defs/><g><rect fill="none" height="888.6045" style="stroke:none;stroke-width:1.0;" width="652.5" x="0" y="0"/><rect fill="none" height="24.9531" style="stroke:none;stroke-width:1.0;" width="621.5" x="15" y="11"/><ellipse cx="305" cy="50.9531" fill="#222222" rx="10" ry="10" style="stroke:#222222;stroke-width:1.0;"/><polygon fill="#E18114" points="277.5,80.9531,332.5,80.9531,344.5,92.9531,332.5,104.9531,277.5,104.9531,265.5,92.9531,277.5,80.9531" style="stroke:#E18114;stroke-width:0.5;"/><text fill="#FFFFFF" font-family="sans-serif" font-size="11" lengthAdjust="spacing" textLength="51" x="279.5" y="96.7612">condition</text><text fill="#E91E63" font-family="sans-serif" font-size="11" lengthAdjust="spacing" textLength="21" x="242.5" y="88.3589">one</text><text fill="#E91E63" font-family="sans-serif" font-size="11" lengthAdjust="spacing" textLength="20" x="346.5" y="88.3589">two</text><rect fill="#FFFFFF" height="259.0703" style="stroke:#A0439C;stroke-width:1.5;" width="285" x="21" y="116.8047"/><path d="M91,116.8047 L91,130.1016 L81,140.1016 L21,140.1016 " fill="none" style="stroke:#A0439C;stroke-width:1.5;"/><text fill="#A0439C" font-family="sans-serif" font-size="14" lengthAdjust="spacing" textLength="56" x="26" y="132.7998">Partition</text><polygon fill="#E18114" points="52,182.1016,85,182.1016,97,194.1016,85,206.1016,52,206.1016,40,194.1016,52,182.1016" style="stroke:#E18114;stroke-width:0.5;"/><text fill="#E91E63" font-family="sans-serif" font-size="11" lengthAdjust="spacing" textLength="20" x="74.5" y="218.312">yes</text><text fill="#FFFFFF" font-family="sans-serif" font-size="11" lengthAdjust="spacing" textLength="29" x="54" y="197.9097">first?</text><rect fill="#1168BD" height="37.9688" rx="12.5" ry="12.5" style="stroke:#1168BD;stroke-width:0.5;" width="75" x="31" y="242.9063"/><text fill="#FFFFFF" font-family="sans-serif" font-size="12" lengthAdjust="spacing" textLength="51" x="43" y="266.0449">Action A</text><polygon fill="#E18114" points="138,182.1016,189,182.1016,201,194.1016,189,206.1016,138,206.1016,126,194.1016,138,182.1016" style="stroke:#E18114;stroke-width:0.5;"/><text fill="#E91E63" font-family="sans-serif" font-size="11" lengthAdjust="spacing" textLength="20" x="169.5" y="218.312">yes</text><text fill="#FFFFFF" font-family="sans-serif" font-size="11" lengthAdjust="spacing" textLength="47" x="140" y="197.9097">second?</text><text fill="#E91E63" font-family="sans-serif" font-size="11" lengthAdjust="spacing" textLength="14" x="203" y="189.5073">no</text><rect fill="#1168BD" height="37.9688" rx="12.5" ry="12.5" style="stroke:#1168BD;stroke-width:0.5;" width="75" x="126" y="242.9063"/><text fill="#FFFFFF" font-family="sans-serif" font-size="12" lengthAdjust="spacing" textLength="51" x="138" y="266.0449">Action B</text><rect fill="#1168BD" height="37.9688" rx="12.5" ry="12.5" style="stroke:#1168BD;stroke-width:0.5;" width="75" x="221" y="237.5039"/><text fill="#FFFFFF" font-family="sans-serif" font-size="12" lengthAdjust="spacing" textLength="51" x="233" y="260.6426">Action C</text><path d="M218,459.293 L218,469.8594 L198,473.8594 L218,477.8594 L218,488.4258 A0,0 0 0 0 218,488.4258 L274,488.4258 A0,0 0 0 0 274,488.4258 L274,469.293 L264,459.293 L218,459.293 A0,0 0 0 0 218,459.293 " fill="#999999" style="stroke:#999999;stroke-width:0.5;"/><path d="M264,459.293 L264,469.293 L274,469.293 L264,459.293 " fill="#999999" style="stroke:#999999;stroke-width:0.5;"/><text fill="#FFFFFF" font-family="sans-serif" font-size="13" lengthAdjust="spacing" textLength="31" x="226" y="478.3599">Note</text><rect fill="#1168BD" height="37.9688" rx="12.5" ry="12.5" style="stroke:#1168BD;stroke-width:0.5;" width="69" x="129" y="454.875"/><text fill="#FFFFFF" font-family="sans-serif" font-size="12" lengthAdjust="spacing" textLength="45" x="141" y="478.0137">Repeat</text><polygon fill="#E18114" points="163.5,410.875,175.5,422.875,163.5,434.875,151.5,422.875,163.5,410.875" style="stroke:#E18114;stroke-width:0.5;"/><polygon fill="#E18114" points="143,512.8438,184,512.8438,196,524.8438,184,536.8438,143,536.8438,131,524.8438,143,512.8438" style="stroke:#E18114;stroke-width:0.5;"/><text fill="#E91E63" font-family="sans-serif" font-size="11" lengthAdjust="spacing" textLength="14" x="169.5" y="549.0542">no</text><text fill="#FFFFFF" font-family="sans-serif" font-size="11" lengthAdjust="spacing" textLength="37" x="145" y="528.6519">Again?</text><text fill="#E91E63" font-family="sans-serif" font-size="11" lengthAdjust="spacing" textLength="20" x="198" y="520.2495">yes</text><rect fill="#555555" height="6" rx="2.5" ry="2.5" style="stroke:#555555;stroke-width:1.0;" width="218" x="54.5" y="570.5542"/><rect fill="#1168BD" height="37.9688" rx="12.5" ry="12.5" style="stroke:#1168BD;stroke-width:0.5;" width="81" x="68.5" y="596.5542"/><text fill="#FFFFFF" font-family="sans-serif" font-size="12" lengthAdjust="spacing" textLength="57" x="80.5" y="619.6929">Parallel X</text><rect fill="#1168BD" height="37.9688" rx="12.5" ry="12.5" style="stroke:#1168BD;stroke-width:0.5;" width="81" x="177.5" y="596.5542"/><text fill="#FFFFFF" font-family="sans-serif" font-size="12" lengthAdjust="spacing" textLength="57" x="189.5" y="619.6929">Parallel Y</text><polygon fill="#1168BD" points="163.5,644.5229,175.5,656.5229,163.5,668.5229,151.5,656.5229,163.5,644.5229" style="stroke:#1168BD;stroke-width:0.5;"/><polygon fill="#E18114" points="143,688.5229,184,688.5229,196,700.5229,184,712.5229,143,712.5229,131,700.5229,143,688.5229" style="stroke:#E18114;stroke-width:0.5;"/><text fill="#FFFFFF" font-family="sans-serif" font-size="11" lengthAdjust="spacing" textLength="37" x="145" y="704.3311">Switch</text><rect fill="#1168BD" height="37.9688" rx="12.5" ry="12.5" style="stroke:#1168BD;stroke-width:0.5;" width="70" x="24.25" y="754.6357"/><text fill="#FFFFFF" font-family="sans-serif" font-size="12" lengthAdjust="spacing" textLength="46" x="36.25" y="777.7744">Action i</text><rect fill="#1168BD" height="37.9688" rx="12.5" ry="12.5" style="stroke:#1168BD;stroke-width:0.5;" width="73" x="119.25" y="754.6357"/><text fill="#FFFFFF" font-family="sans-serif" font-size="12" lengthAdjust="spacing" textLength="49" x="131.25" y="777.7744">Action ii</text><rect fill="#1168BD" height="37.9688" rx="12.5" ry="12.5" style="stroke:#1168BD;stroke-width:0.5;" width="76" x="218.75" y="754.6357"/><text fill="#FFFFFF" font-family="sans-serif" font-size="12" lengthAdjust="spacing" textLength="52" x="230.75" y="777.7744">Action iii</text><polygon fill="#E18114" points="163.5,812.6045,163.5,812.6045,175.5,824.6045,163.5,836.6045,163.5,836.6045,151.5,824.6045,163.5,812.6045" style="stroke:#E18114;stroke-width:0.5;"/><ellipse cx="305" cy="867.6045" fill="none" rx="11" ry="11" style="stroke:#222222;stroke-width:1.0;"/><ellipse cx="305" cy="867.6045" fill="#222222" rx="6" ry="6" style="stroke:#222222;stroke-width:1.0;"/><line style="stroke:#41AF46;stroke-width:1.5;" x1="15" x2="15" y1="11" y2="878.6045"/><path d="M519.5,116.8047 L519.5,171.0703 L627.5,171.0703 L627.5,126.8047 L617.5,116.8047 L519.5,116.8047 " fill="#999999" style="stroke:#999999;stroke-width:0.5;"/><path d="M617.5,116.8047 L617.5,126.8047 L627.5,126.8047 L617.5,116.8047 " fill="#999999" style="stroke:#999999;stroke-width:0.5;"/><text fill="#FFFFFF" font-family="sans-serif" font-size="13" lengthAdjust="spacing" textLength="83" x="527.5" y="135.8716">Floating note</text><line style="stroke:#999999;stroke-width:1.0;" x1="519.5" x2="627.5" y1="143.9375" y2="143.9375"/><text fill="#FFFFFF" font-family="sans-serif" font-size="13" lengthAdjust="spacing" textLength="74" x="532" y="161.0044">Second line</text><rect fill="#1168BD" height="37.9688" style="stroke:#1168BD;stroke-width:0.5;" width="57" x="442.5" y="124.9531"/><line style="stroke:#1168BD;stroke-width:0.5;" x1="447.5" x2="447.5" y1="124.9531" y2="162.9219"/><line style="stroke:#1168BD;stroke-width:0.5;" x1="494.5" x2="494.5" y1="124.9531" y2="162.9219"/><text fill="#FFFFFF" font-family="sans-serif" font-size="12" lengthAdjust="spacing" textLength="33" x="454.5" y="148.0918">Block</text><rect fill="#1168BD" height="37.9688" style="stroke:#1168BD;stroke-width:0.5;" width="87" x="427.5" y="206.0703"/><text fill="#FFFFFF" font-family="sans-serif" font-size="12" lengthAdjust="spacing" textLength="63" x="439.5" y="229.209">Rectangle</text><line style="stroke:#E91E63;stroke-width:1.5;" x1="397.5" x2="543" y1="279.0391" y2="279.0391"/><rect fill="#1168BD" height="37.9688" rx="12.5" ry="12.5" style="stroke:#1168BD;stroke-width:0.5;" width="40" x="377.5" y="328.0391"/><text fill="#FFFFFF" font-family="sans-serif" font-size="12" lengthAdjust="spacing" textLength="16" x="389.5" y="351.1777">Kill</text><rect fill="#1168BD" height="37.9688" rx="12.5" ry="12.5" style="stroke:#1168BD;stroke-width:0.5;" width="48" x="432.5" y="300.5391"/><text fill="#FFFFFF" font-family="sans-serif" font-size="12" lengthAdjust="spacing" textLength="24" x="444.5" y="323.6777">End</text><ellipse cx="456.5" cy="383.5078" fill="none" rx="10" ry="10" style="stroke:#222222;stroke-width:1.5;"/><line style="stroke:#222222;stroke-width:2.5;" x1="450.3128" x2="462.6872" y1="377.3206" y2="389.695"/><line style="stroke:#222222;stroke-width:2.5;" x1="462.6872" x2="450.3128" y1="377.3206" y2="389.695"/><rect fill="#1168BD" height="37.9688" rx="12.5" ry="12.5" style="stroke:#1168BD;stroke-width:0.5;" width="69" x="508.5" y="300.5391"/><text fill="#FFFFFF" font-family="sans-serif" font-size="12" lengthAdjust="spacing" textLength="45" x="520.5" y="323.6777">Detach</text><ellipse cx="543" cy="383.5078" fill="#F1F1F1" rx="10" ry="10" style="stroke:#181818;stroke-width:0.5;"/><path d="M539.1719,379.2578 L546.0469,379.2578 L546.0469,380.1641 L540.5156,387.0078 L546.1875,387.0078 L546.1875,388.0078 L539.0469,388.0078 L539.0469,387.1016 L544.5781,380.2578 L539.1719,380.2578 L539.1719,379.2578 Z " fill="#808080"/><line style="stroke:#41AF46;stroke-width:1.5;" x1="371.5" x2="371.5" y1="11" y2="878.6045"/><line style="stroke:#41AF46;stroke-width:1.5;" x1="632.5" x2="632.5" y1="11" y2="878.6045"/><line style="stroke:#E91E63;stroke-width:1.0;" x1="68.5" x2="68.5" y1="206.1016" y2="242.9063"/><polygon fill="#E91E63" points="64.5,232.9063,68.5,242.9063,72.5,232.9063,68.5,236.9063" style="stroke:#E91E63;stroke-width:1.0;"/><line style="stroke:#E91E63;stroke-width:1.0;" x1="68.5" x2="68.5" y1="280.875" y2="355.875"/><polygon fill="#E91E63" points="64.5,345.875,68.5,355.875,72.5,345.875,68.5,349.875" style="stroke:#E91E63;stroke-width:1.0;"/><line style="stroke:#E91E63;stroke-width:1.0;" x1="163.5" x2="163.5" y1="206.1016" y2="242.9063"/><polygon fill="#E91E63" points="159.5,232.9063,163.5,242.9063,167.5,232.9063,163.5,236.9063" style="stroke:#E91E63;stroke-width:1.0;"/><line style="stroke:#E91E63;stroke-width:1.0;" x1="163.5" x2="163.5" y1="280.875" y2="410.875"/><polygon fill="#E91E63" points="159.5,400.875,163.5,410.875,167.5,400.875,163.5,404.875" style="stroke:#E91E63;stroke-width:1.0;"/><line style="stroke:#E91E63;stroke-width:1.0;" x1="97" x2="126" y1="194.1016" y2="194.1016"/><polygon fill="#E91E63" points="116,190.1016,126,194.1016,116,198.1016,120,194.1016" style="stroke:#E91E63;stroke-width:1.0;"/><line style="stroke:#E91E63;stroke-width:1.0;" x1="265.5" x2="68.5" y1="92.9531" y2="92.9531"/><line style="stroke:#E91E63;stroke-width:1.0;" x1="68.5" x2="68.5" y1="92.9531" y2="182.1016"/><polygon fill="#E91E63" points="64.5,172.1016,68.5,182.1016,72.5,172.1016,68.5,176.1016" style="stroke:#E91E63;stroke-width:1.0;"/><line style="stroke:#E91E63;stroke-width:1.0;" x1="201" x2="258.5" y1="194.1016" y2="194.1016"/><line style="stroke:#E91E63;stroke-width:1.0;" x1="258.5" x2="258.5" y1="194.1016" y2="237.5039"/><polygon fill="#E91E63" points="254.5,227.5039,258.5,237.5039,262.5,227.5039,258.5,231.5039" style="stroke:#E91E63;stroke-width:1.0;"/><line style="stroke:#E91E63;stroke-width:1.0;" x1="258.5" x2="258.5" y1="275.4727" y2="355.875"/><polygon fill="#E91E63" points="254.5,345.875,258.5,355.875,262.5,345.875,258.5,349.875" style="stroke:#E91E63;stroke-width:1.0;"/><line style="stroke:#E91E63;stroke-width:1.0;" x1="68.5" x2="258.5" y1="355.875" y2="355.875"/><line style="stroke:#E91E63;stroke-width:1.0;" x1="163.5" x2="163.5" y1="434.875" y2="454.875"/><polygon fill="#E91E63" points="159.5,444.875,163.5,454.875,167.5,444.875,163.5,448.875" style="stroke:#E91E63;stroke-width:1.0;"/><line style="stroke:#E91E63;stroke-width:1.0;" x1="196" x2="286" y1="524.8438" y2="524.8438"/><polygon fill="#E91E63" points="282,483.8594,286,473.8594,290,483.8594,286,479.8594" style="stroke:#E91E63;stroke-width:1.0;"/><line style="stroke:#E91E63;stroke-width:1.0;" x1="286" x2="286" y1="422.875" y2="524.8438"/><line style="stroke:#E91E63;stroke-width:1.0;" x1="286" x2="175.5" y1="422.875" y2="422.875"/><polygon fill="#E91E63" points="185.5,418.875,175.5,422.875,185.5,426.875,181.5,422.875" style="stroke:#E91E63;stroke-width:1.0;"/><line style="stroke:#E91E63;stroke-width:1.0;" x1="163.5" x2="163.5" y1="492.8438" y2="512.8438"/><polygon fill="#E91E63" points="159.5,502.8438,163.5,512.8438,167.5,502.8438,163.5,506.8438" style="stroke:#E91E63;stroke-width:1.0;"/><line style="stroke:#E91E63;stroke-width:1.0;" x1="109" x2="109" y1="576.5542" y2="596.5542"/><polygon fill="#E91E63" points="105,586.5542,109,596.5542,113,586.5542,109,590.5542" style="stroke:#E91E63;stroke-width:1.0;"/><line style="stroke:#E91E63;stroke-width:1.0;" x1="218" x2="218" y1="576.5542" y2="596.5542"/><polygon fill="#E91E63" points="214,586.5542,218,596.5542,222,586.5542,218,590.5542" style="stroke:#E91E63;stroke-width:1.0;"/><line style="stroke:#1168BD;stroke-width:1.0;" x1="109" x2="109" y1="634.5229" y2="656.5229"/><line style="stroke:#1168BD;stroke-width:1.0;" x1="109" x2="151.5" y1="656.5229" y2="656.5229"/><polygon fill="#1168BD" points="141.5,652.5229,151.5,656.5229,141.5,660.5229,145.5,656.5229" style="stroke:#1168BD;stroke-width:1.0;"/><line style="stroke:#1168BD;stroke-width:1.0;" x1="218" x2="218" y1="634.5229" y2="656.5229"/><line style="stroke:#1168BD;stroke-width:1.0;" x1="218" x2="175.5" y1="656.5229" y2="656.5229"/><polygon fill="#1168BD" points="185.5,652.5229,175.5,656.5229,185.5,660.5229,181.5,656.5229" style="stroke:#1168BD;stroke-width:1.0;"/><line style="stroke:#E91E63;stroke-width:1.0;" x1="163.5" x2="163.5" y1="536.8438" y2="570.5542"/><polygon fill="#E91E63" points="159.5,560.5542,163.5,570.5542,167.5,560.5542,163.5,564.5542" style="stroke:#E91E63;stroke-width:1.0;"/><line style="stroke:#E91E63;stroke-width:1.0;" x1="131" x2="59.25" y1="700.5229" y2="700.5229"/><line style="stroke:#E91E63;stroke-width:1.0;" x1="59.25" x2="59.25" y1="700.5229" y2="754.6357"/><polygon fill="#E91E63" points="55.25,744.6357,59.25,754.6357,63.25,744.6357,59.25,748.6357" style="stroke:#E91E63;stroke-width:1.0;"/><text fill="#E91E63" font-family="sans-serif" font-size="11" lengthAdjust="spacing" textLength="36" x="61.25" y="732.1357">Case i</text><line style="stroke:#E91E63;stroke-width:1.0;" x1="196" x2="256.75" y1="700.5229" y2="700.5229"/><line style="stroke:#E91E63;stroke-width:1.0;" x1="256.75" x2="256.75" y1="700.5229" y2="754.6357"/><polygon fill="#E91E63" points="252.75,744.6357,256.75,754.6357,260.75,744.6357,256.75,748.6357" style="stroke:#E91E63;stroke-width:1.0;"/><text fill="#E91E63" font-family="sans-serif" font-size="11" lengthAdjust="spacing" textLength="42" x="258.75" y="732.1357">Case iii</text><line style="stroke:#E91E63;stroke-width:1.0;" x1="163.5" x2="163.5" y1="712.5229" y2="727.0594"/><line style="stroke:#E91E63;stroke-width:1.0;" x1="163.5" x2="155.75" y1="727.0594" y2="727.0594"/><line style="stroke:#E91E63;stroke-width:1.0;" x1="155.75" x2="155.75" y1="727.0594" y2="754.6357"/><polygon fill="#E91E63" points="151.75,744.6357,155.75,754.6357,159.75,744.6357,155.75,748.6357" style="stroke:#E91E63;stroke-width:1.0;"/><text fill="#E91E63" font-family="sans-serif" font-size="11" lengthAdjust="spacing" textLength="39" x="157.75" y="733.1357">Case ii</text><line style="stroke:#E91E63;stroke-width:1.0;" x1="59.25" x2="59.25" y1="792.6045" y2="824.6045"/><line style="stroke:#E91E63;stroke-width:1.0;" x1="59.25" x2="151.5" y1="824.6045" y2="824.6045"/><polygon fill="#E91E63" points="141.5,820.6045,151.5,824.6045,141.5,828.6045,145.5,824.6045" style="stroke:#E91E63;stroke-width:1.0;"/><line style="stroke:#E91E63;stroke-width:1.0;" x1="256.75" x2="256.75" y1="792.6045" y2="824.6045"/><line style="stroke:#E91E63;stroke-width:1.0;" x1="256.75" x2="175.5" y1="824.6045" y2="824.6045"/><polygon fill="#E91E63" points="185.5,820.6045,175.5,824.6045,185.5,828.6045,181.5,824.6045" style="stroke:#E91E63;stroke-width:1.0;"/><line style="stroke:#E91E63;stroke-width:1.0;" x1="155.75" x2="155.75" y1="792.6045" y2="797.6045"/><line style="stroke:#E91E63;stroke-width:1.0;" x1="155.75" x2="163.5" y1="797.6045" y2="797.6045"/><line style="stroke:#E91E63;stroke-width:1.0;" x1="163.5" x2="163.5" y1="797.6045" y2="812.6045"/><polygon fill="#E91E63" points="159.5,802.6045,163.5,812.6045,167.5,802.6045,163.5,806.6045" style="stroke:#E91E63;stroke-width:1.0;"/><line style="stroke:#E91E63;stroke-width:1.0;" x1="163.5" x2="163.5" y1="668.5229" y2="688.5229"/><polygon fill="#E91E63" points="159.5,678.5229,163.5,688.5229,167.5,678.5229,163.5,682.5229" style="stroke:#E91E63;stroke-width:1.0;"/><line style="stroke:#E91E63;stroke-width:1.0;" x1="163.5" x2="163.5" y1="836.6045" y2="841.6045"/><line style="stroke:#E91E63;stroke-width:1.0;" x1="163.5" x2="305" y1="841.6045" y2="841.6045"/><line style="stroke:#E91E63;stroke-width:1.0;" x1="305" x2="305" y1="841.6045" y2="856.6045"/><polygon fill="#E91E63" points="301,846.6045,305,856.6045,309,846.6045,305,850.6045" style="stroke:#E91E63;stroke-width:1.0;"/><line style="stroke:#E91E63;stroke-width:1.0;" x1="305" x2="305" y1="60.9531" y2="80.9531"/><polygon fill="#E91E63" points="301,70.9531,305,80.9531,309,70.9531,305,74.9531" style="stroke:#E91E63;stroke-width:1.0;"/><line style="stroke:#E91E63;stroke-width:1.0;" x1="471" x2="471" y1="162.9219" y2="206.0703"/><polygon fill="#E91E63" points="467,196.0703,471,206.0703,475,196.0703,471,200.0703" style="stroke:#E91E63;stroke-width:1.0;"/><line style="stroke:#E91E63;stroke-width:1.0;" x1="456.5" x2="456.5" y1="338.5078" y2="373.5078"/><polygon fill="#E91E63" points="452.5,363.5078,456.5,373.5078,460.5,363.5078,456.5,367.5078" style="stroke:#E91E63;stroke-width:1.0;"/><line style="stroke:#E91E63;stroke-width:1.0;" x1="543" x2="543" y1="338.5078" y2="373.5078"/><polygon fill="#E91E63" points="539,363.5078,543,373.5078,547,363.5078,543,367.5078" style="stroke:#E91E63;stroke-width:1.0;"/><line style="stroke:#E91E63;stroke-width:1.0;" x1="397.5" x2="397.5" y1="280.5391" y2="328.0391"/><polygon fill="#E91E63" points="393.5,318.0391,397.5,328.0391,401.5,318.0391,397.5,322.0391" style="stroke:#E91E63;stroke-width:1.0;"/><line style="stroke:#E91E63;stroke-width:1.0;" x1="456.5" x2="456.5" y1="280.5391" y2="300.5391"/><polygon fill="#E91E63" points="452.5,290.5391,456.5,300.5391,460.5,290.5391,456.5,294.5391" style="stroke:#E91E63;stroke-width:1.0;"/><line style="stroke:#E91E63;stroke-width:1.0;" x1="543" x2="543" y1="280.5391" y2="300.5391"/><polygon fill="#E91E63" points="539,290.5391,543,300.5391,547,290.5391,543,294.5391" style="stroke:#E91E63;stroke-width:1.0;"/><line style="stroke:#E91E63;stroke-width:1.0;" x1="471" x2="471" y1="244.0391" y2="279.0391"/><polygon fill="#E91E63" points="467,269.0391,471,279.0391,475,269.0391,471,273.0391" style="stroke:#E91E63;stroke-width:1.0;"/><line style="stroke:#E91E63;stroke-width:1.5;stroke-dasharray:1.0,3.0;" x1="344.5" x2="471" y1="92.9531" y2="92.9531"/><line style="stroke:#E91E63;stroke-width:1.5;stroke-dasharray:1.0,3.0;" x1="471" x2="471" y1="92.9531" y2="124.9531"/><polygon fill="#E91E63" points="467,114.9531,471,124.9531,475,114.9531,471,118.9531" style="stroke:#E91E63;stroke-width:1.0;"/><text fill="#41AF46" font-family="sans-serif" font-size="18" lengthAdjust="spacing" textLength="103" x="141.75" y="29.708">Swimlane 1</text><text fill="#41AF46" font-family="sans-serif" font-size="18" lengthAdjust="spacing" textLength="103" x="450.5" y="29.708">Swimlane 2</text><!--SRC=[rLfxKziu4Fy_dqBbRWOw0uK4slBezOPNsvkZb2Fjt6iwhMAl7Hsob9FaXjort_rMiXraEtQWHqiACyHuLxk_VMfbPvdqpOGp4HCDnk2d9f5Kv8nJOTwyF24Xex6YYUuiapu06HepsbrV7rbocl07MgOg05mHmmC1ngqDPP0c80mrJ0fSzrgI64cKSAODaH4PIQtPW0FH5qoCA8gVAbybAXMxf91Frl0YJcaCA0T51mge0HGrnHSnb3DcPaZ-Ib7w-wb8CA3q-qxd7XC1JqCWJqmweg7QN8-aC6jq35eci9vgP7lQGV67hqvUdVVnueTh_jX5CGXGb9D0SgdGTKecH8u5qUXKq4C0qxdtFJhadLNwpd6H7yZITziRzdS9YLGfEVOeiDE5HvkMWb6vy0YRMplRHmTBLcj2Bz09OI85ipukjDCFb75g7Ml301ni5BJL4IRl0ffQNayWtTZQt0cMAlGIInH51Pqb8waCBLaHRlQYtWoE9Xb26l0elUvZWCSbOjDAmqOUOQjBewr7FgrftPWgWNdb-xUxtUrkLUdrzUXc8KDurrtDFdk4Yf1OaCIW-qKMwyCj5seKWG8pVa_GnlPMx_5WwOeq2sOctRlVxJxQ7eGUgMKLJIzxCtB4qakktjdPcTwTQIlMmOoCidaapH1AsSHbp8AfYBgRfooUefdEHiPOoNHKvYebwfIbAgkQhhRCs0SMWYhpJHF7OwZAyXF8-kBvyUdn-Vu9wH-_VltJwVERzOHxtmzaECdgFQ89unFhPqs5NiDMmz3RomHeC2myIW8gN7zaHhlMyGnNdcB_MdLNVVPFSMLRofxDG0nK23ONnvtELGizeC65zPK83vrnHg5E9A4EZ-iew-S7Kg4dsXXVJ4QWR0lAcBnkX2wwOiECaS4GIm7BGgNW2T136igntLaYohLFUO6LD5RC65j55TePscRNz7mbvzQgG2hijUIXn_oI2PQaoQyinFxVtTZmtN444Ksv8VzsY7DVRaQv5-SqwsvIYrjET7v7Pwk4Shpr6YxDFcUno8A7Vq1rFlcQEOi0lGLzTAo1U4Aqv2oqYHLAq2w06Y0XHfAnL1Va0wFaYTimdf89c5rV5cwwVwSW0dXkgy0PGsgHzYioO_2YMoE-08f4poNbOaMUaZK5W7E8GDcB9X3bEgtZy4hT4Jq4LL86SRw6JpDTTPILUHFEKfkemwoJ_UofT90QXZSQ0geB7_KnDq0Qh2HFHgMfLqNi1qPcsBF4omSLcs9vaY3fGRQVD9deRqIEumJJiObMXTOjnx3PXgvlG86frugfruAfruAfTrrClGecbzlNBHiFKPNKLYuDUCeYCZWkWsrxQwsXcOZcbizyH6KH6QBmfiNYGRffgJJ0geh9W0KoSHssCPsA-QQUJ2LAAKEywQSjaJm16PXyIcW2KnuqAbfh4uOlrCsJBLARZQcDp2Mv-QZL9heyiysGNXlNV0Nv_DMce3p8pL1Gc-5y1TFJH9kAog5abfBwgQHGuqvUkNGlVxm3MKrUYUI4OBl6z3MJnMXxEHjLfgdR7pTl4WTKDRSkd1jnr0llifMM-1f6X5cp3F7srDlVB3zZfzoFMnlR7UoJ-ygmY0QB1Uh00g1gCYTm9U5VF7O7yl860_1Dzk_F6dy9EQGgNAYm7NAPXb_OHvaYoJa4TWVHNtuGpZNYPY8MhNWFaQmaNwWoEQA63guEGlC3C-SKKWTSZSqHS5gqYdd3vR8xXDl3jvsHyCpjDhYlDmWx4CV2p9iRldRKdjc7wOkKsiyaRud9tJJSP_Rbmc91AZqSak7aLiUpcyvc3j4BkAHny_5WiSV5d-mpFHo7e1r-KvHlnwEVYVqaV_XuWqDbSo4xYQTuRx7I_RJbq7mRpmMSabU3ls311k8pH45Z-1gprHaU8Ld0HdJEh7DxivNJsFP8uMvoxGoKRiRqzS-EPrAPRx0j_P922lLdBJEUGVolGT7fEiUwfIBcy8tjFevrsRv220aJzjLoWWPolUi83mRbu_3rujzgN6iENET5qKtIm0Od3r3V8FT2TLP4P6vdoxnDJ5ArTFkxyTEO9PoA6PLyhIDGILRvLTcTsLVj7dhw5j6zAC_XrTyqPyMATKgdIuelIwqICyH_YYCmfmFWX6c27t9Cc5brnq_v0KyspEmvIPNpSljcuN2wFmaJOK97PQnjNmImT74rq5t7x-sUd-jxz1szz7ptSEFA1a86yfA3rerczsRrZ_50bot-jYrwifw_r-rydDPNzsD7syVuLYQBo4eWHUYce_isjmHPaGBk8sqqdPgMfWFKKgxRhekOqkR7Oj44zFqSrkw-Ut96zhFymsq6B3_M96fgMt1mjO2i25ab7-PaX1iLyL8m0fhbtkwvkzxBmuPDLx5uQ7RTJ3zb9UEXVHAniXzJ9X0Crew3ukh6AKNMIAgBJ2PQJZd76ljjBxzFg5rPeVvkgGYC9A1YSBK-PYOOafM- -xIck8wqScZ_iioqmZ2sLo5NwNM66WVB4MHwEvtCYMRilBZsPoYDWV3jsbEBxIeNUX_ntzq3BeEBZyvmBgdzigJdlwm9-lVTdJNyoHgW2okn1yFS1uwdumAIJqjldKT6dEMH-fbndiNf0gyAck_POn5EexqtY-48SASVPZmhVsJU2Dsz74McBakMSlPZ-ilHVm00]--></g></svg>