<?xml version="1.0" encoding="us-ascii" standalone="no"?><svg xmlns="http://www.w3.org/2000/svg" xmlns:xlink="http://www.w3.org/1999/xlink" contentStyleType="text/css" height="561px" preserveAspectRatio="none" style="width:886px;height:561px;" version="1.1" viewBox="0 0 886 561" width="886px" zoomAndPan="magnify"><defs/><g><rect fill="none" height="559.8528" style="stroke:none;stroke-width:1.0;" width="884.3003" x="0" y="0"/><!--entity user--><g id="elem_user"><ellipse cx="519.87" cy="22" fill="#08427B" rx="16" ry="16" style="stroke:#08427B;stroke-width:0.5;"/><path d="M519.87,42 C523.87,42 526.87,42 530.87,38 C538.87,38 546.87,46 546.87,54 L546.87,58 C546.87,62 542.87,66 538.87,66 L500.87,66 C496.87,66 492.87,62 492.87,58 L492.87,54 C492.87,46 500.87,38 508.87,38 C512.87,42 515.87,42 519.87,42 " fill="#08427B" style="stroke:#08427B;stroke-width:0.5;"/><text fill="#08427B" font-family="sans-serif" font-size="14" lengthAdjust="spacing" textLength="32" x="503.87" y="81.4951">User</text></g><!--entity developer--><g id="elem_developer"><ellipse cx="403.87" cy="164.3" fill="#08427B" rx="16" ry="16" style="stroke:#08427B;stroke-width:0.5;"/><path d="M403.87,184.3 C407.87,184.3 410.87,184.3 414.87,180.3 C422.87,180.3 430.87,188.3 430.87,196.3 L430.87,200.3 C430.87,204.3 426.87,208.3 422.87,208.3 L384.87,208.3 C380.87,208.3 376.87,204.3 376.87,200.3 L376.87,196.3 C376.87,188.3 384.87,180.3 392.87,180.3 C396.87,184.3 399.87,184.3 403.87,184.3 " fill="#08427B" style="stroke:#08427B;stroke-width:0.5;"/><text fill="#08427B" font-family="sans-serif" font-size="14" lengthAdjust="spacing" textLength="71" x="368.37" y="223.7951">Developer</text></g><!--entity appman--><g id="elem_appman"><ellipse cx="259.87" cy="164.3" fill="#08427B" rx="16" ry="16" style="stroke:#08427B;stroke-width:0.5;"/><path d="M259.87,184.3 C263.87,184.3 266.87,184.3 270.87,180.3 C278.87,180.3 286.87,188.3 286.87,196.3 L286.87,200.3 C286.87,204.3 282.87,208.3 278.87,208.3 L240.87,208.3 C236.87,208.3 232.87,204.3 232.87,200.3 L232.87,196.3 C232.87,188.3 240.87,180.3 248.87,180.3 C252.87,184.3 255.87,184.3 259.87,184.3 " fill="#08427B" style="stroke:#08427B;stroke-width:0.5;"/><text fill="#08427B" font-family="sans-serif" font-size="14" lengthAdjust="spacing" textLength="139" x="190.37" y="223.7951">Application Manager</text></g><!--entity dwb--><g id="elem_dwb"><ellipse cx="533.87" cy="164.3" fill="#08427B" rx="16" ry="16" style="stroke:#08427B;stroke-width:0.5;"/><path d="M533.87,184.3 C537.87,184.3 540.87,184.3 544.87,180.3 C552.87,180.3 560.87,188.3 560.87,196.3 L560.87,200.3 C560.87,204.3 556.87,208.3 552.87,208.3 L514.87,208.3 C510.87,208.3 506.87,204.3 506.87,200.3 L506.87,196.3 C506.87,188.3 514.87,180.3 522.87,180.3 C526.87,184.3 529.87,184.3 533.87,184.3 " fill="#08427B" style="stroke:#08427B;stroke-width:0.5;"/><text fill="#08427B" font-family="sans-serif" font-size="14" lengthAdjust="spacing" textLength="111" x="478.37" y="223.7951">DataWorkbench</text></g><g id="elem_hfeedback"><ellipse cx="132.87" cy="527.074" fill="#1168BD" rx="126.87" ry="27.774" style="stroke:#1168BD;stroke-width:0.5;"/><text fill="#FFFFFF" font-family="sans-serif" font-size="14" lengthAdjust="spacing" textLength="210" x="27.87" y="529.9207">Get human-readable feedback</text></g><g id="elem_mfeedback"><ellipse cx="426.867" cy="527.0714" fill="#1168BD" rx="131.907" ry="28.7814" style="stroke:#1168BD;stroke-width:0.5;"/><text fill="#FFFFFF" font-family="sans-serif" font-size="14" lengthAdjust="spacing" textLength="221" x="316.367" y="529.9181">Get machine-readable feedback</text></g><g id="elem_api"><ellipse cx="279.8696" cy="419.1739" fill="#1168BD" rx="78.5696" ry="18.1139" style="stroke:#1168BD;stroke-width:0.5;"/><text fill="#FFFFFF" font-family="sans-serif" font-size="14" lengthAdjust="spacing" textLength="96" x="231.8696" y="422.0206">Access an API</text></g><g id="elem_run"><ellipse cx="457.8737" cy="315.0827" fill="#1168BD" rx="112.9137" ry="24.9827" style="stroke:#1168BD;stroke-width:0.5;"/><text fill="#FFFFFF" font-family="sans-serif" font-size="14" lengthAdjust="spacing" textLength="179" x="368.3737" y="317.9294">Run the validator software</text></g><g id="elem_ws"><ellipse cx="780.8701" cy="188.446" fill="#1168BD" rx="99.4301" ry="22.286" style="stroke:#1168BD;stroke-width:0.5;"/><text fill="#FFFFFF" font-family="sans-serif" font-size="14" lengthAdjust="spacing" textLength="148" x="706.8701" y="191.2927">Access a web service</text></g><!--reverse link user to appman--><g id="link_user_appman"><path d="M476.2096,70.7087 C438.2796,91.1787 384.85,120 331.81,148.62 " fill="none" id="user-backto-appman" style="stroke:#E91E63;stroke-width:1.0;"/><polygon fill="none" points="492.05,62.16,473.36,65.4286,479.0592,75.9889,492.05,62.16" style="stroke:#E91E63;stroke-width:1.0;"/></g><!--reverse link appman to developer--><g id="link_appman_developer"><path d="M349.59,188.45 C361.07,188.45 354.55,188.45 366.04,188.45 " fill="none" id="appman-backto-developer" style="stroke:#E91E63;stroke-width:1.0;"/><polygon fill="none" points="331.59,188.45,349.59,194.45,349.59,182.45,331.59,188.45" style="stroke:#E91E63;stroke-width:1.0;"/></g><!--reverse link developer to dwb--><g id="link_developer_dwb"><path d="M459.7,188.45 C471.1,188.45 464.5,188.45 475.9,188.45 " fill="none" id="developer-backto-dwb" style="stroke:#E91E63;stroke-width:1.0;"/><polygon fill="none" points="441.7,188.45,459.7,194.45,459.7,182.45,441.7,188.45" style="stroke:#E91E63;stroke-width:1.0;"/></g><!--reverse link api to mfeedback--><g id="link_api_mfeedback"><path d="M317.7662,447.4695 C340.9262,464.1495 362.2,479.48 389.37,499.06 " fill="none" id="api-backto-mfeedback" style="stroke:#E91E63;stroke-width:1.0;"/><polygon fill="none" points="303.16,436.95,314.2597,452.3382,321.2727,442.6008,303.16,436.95" style="stroke:#E91E63;stroke-width:1.0;"/></g><!--reverse link api to hfeedback--><g id="link_api_hfeedback"><path d="M241.9744,447.4703 C218.4144,464.4403 196.28,480.39 168.95,500.08 " fill="none" id="api-backto-hfeedback" style="stroke:#E91E63;stroke-width:1.0;"/><polygon fill="none" points="256.58,436.95,238.4676,442.6017,245.4811,452.3388,256.58,436.95" style="stroke:#E91E63;stroke-width:1.0;"/></g><!--reverse link run to api--><g id="link_run_api"><path d="M402.7557,347.6952 C369.3657,366.8452 337.96,384.86 308.2,401.92 " fill="none" id="run-backto-api" style="stroke:#E91E63;stroke-width:1.0;"/><polygon fill="none" points="418.37,338.74,399.7707,342.4904,405.7408,352.8999,418.37,338.74" style="stroke:#E91E63;stroke-width:1.0;"/></g><!--reverse link ws to run--><g id="link_ws_run"><path d="M715.3666,214.7194 C656.5066,237.4294 574.51,269.07 512.93,292.83 " fill="none" id="ws-backto-run" style="stroke:#E91E63;stroke-width:1.0;"/><polygon fill="none" points="732.16,208.24,713.2068,209.1216,717.5264,220.3172,732.16,208.24" style="stroke:#E91E63;stroke-width:1.0;"/></g><!--link user to ws--><g id="link_user_ws"><path d="M547.8,62.16 C595.01,87.54 685.3153,136.0789 738.2353,164.5289 " fill="none" id="user-to-ws" style="stroke:#E91E63;stroke-width:1.0;"/><polygon fill="#E91E63" points="743.52,167.37,737.487,159.5852,739.1161,165.0024,733.6989,166.6315,743.52,167.37" style="stroke:#E91E63;stroke-width:1.0;"/></g><!--link appman to api--><g id="link_appman_api"><path d="M263.38,229.55 C267.79,280.03 274.6574,358.5428 277.8274,394.8028 " fill="none" id="appman-to-api" style="stroke:#E91E63;stroke-width:1.0;"/><polygon fill="#E91E63" points="278.35,400.78,281.551,391.4658,277.9145,395.799,273.5814,392.1626,278.35,400.78" style="stroke:#E91E63;stroke-width:1.0;"/><text fill="#E91E63" font-family="sans-serif" font-size="13" lengthAdjust="spacing" textLength="44" x="276.87" y="319.6469">access</text></g><!--link developer to run--><g id="link_developer_run"><path d="M421.25,229.57 C429.89,249.49 437.644,267.3948 445.064,284.5148 " fill="none" id="developer-to-run" style="stroke:#E91E63;stroke-width:1.0;"/><polygon fill="#E91E63" points="447.45,290.02,447.5411,280.1716,445.4617,285.4324,440.2009,283.3529,447.45,290.02" style="stroke:#E91E63;stroke-width:1.0;"/></g><!--link dwb to ws--><g id="link_dwb_ws"><path d="M591.78,188.45 C618.44,188.45 644.86,188.45 675.26,188.45 " fill="none" id="dwb-to-ws" style="stroke:#E91E63;stroke-width:1.0;"/><polygon fill="#E91E63" points="681.26,188.45,672.26,184.45,676.26,188.45,672.26,192.45,681.26,188.45" style="stroke:#E91E63;stroke-width:1.0;"/><text fill="#E91E63" font-family="sans-serif" font-size="13" lengthAdjust="spacing" textLength="50" x="611.4" y="179.5169">operate</text></g><!--SRC=[rLfjRzis4FwkNy5w0z82SHCxQPjaNO6yzGL8qon9iOyTBPriBXAfaLGKR-j_tv6IR4govAHB4xS5Obbtl7juRxoJl4Okz3HYV4mKQ8sVYeH2ahE8Sltvuma961rB6YjlZLm0a8dMoTx6HcB8QHmzLoALFk2ACJpdeEtQGFXf35nJpGJ7TPU2Z954ISIK9Y8aYL2AZI8WwehnXABucV9r8bE-Hqhvf8yNuvIE0UMWQ5y2rO2YPlX2Xd8ofYVapnIb_p4J2Hga-iFpdZ3kHsa0vBLE4nh8hOrGSDsd6IWHmqQgaEsDX-8FFvryEh_0Yrzl-Syi6WC7IIFYYqX8D9qKCH4P9mgD2ce2eBqdFwD1lXYbNomN-PNqVjhPDFzxIAHIYioXmEu0NcuP2dhboY5iRU_k71tqZDQONg4HWbXmPcnSQgVNb4NK6DQu0I8mNb16Hn1_yMbgU1s1T7DxQzVlrUWLbZ0CIpgB4o4rhUmYs1g6mmKSRJAuqE1GXeDN0AygnBQLcYKEONj0m-sNBgrjNKObnxXoxJlO6Gosw_JcUZGp5m5y6QpddqD2UK0CIABH_3ptzU6sTJMAG84vloDeSsTx-6hKcvCMmSobE_S7WvSxey0XTQoYwSrmGOmOUiNKkxkxixiBzufvi22YJ1m9FO5AD4LYpFoPYAQPPooEeeN6HiQn56bIvQe4weobBgiUhYRDs3KBG5RvPe7ZCDHbkG5aRF7k-FJuVF-4N1nVNduuVNUtcl3avv48fdc-XpHcqTJOML6k-bXg65fxZG3r9wL5YK-vhOzCAriwtkBAKwnVw_RgWlrTNfcIyek9G7HK02OMCy-Rbz03wbyPM_7Wq6vEIzI99DJXS1tbzVn0IBH45-FxQGBIbA2SoQb6QA8v6qQCy2UO2fWMCWL7W9hGG6JcP0bff5pAUyoaJ3AjJHRLQ6UuDxDcw2evDxloXSHQIruup1yPPt4Q_yu2hF-3pKtN74SGqZJIv1-FMFCLswZMue9cp4qQVYk8rkveR1dJ26zTmetUZzYOvyx3Fo2zhwxcY8M0re8BDAo6yPGe4R7015OWG5a7Ae2OQ44o8Q_8DQFajJqmtf0fw3rN5XwwVwN0VNXdii1kXZGyxMPapk1ujq5y3nI9ZacgoOeybTsK0CuX16aksa1KyxI9mqbrItGGr4avnEKQlYuqrL6UvcquAsMY2RD9TgEdLa4Q63uhyAagRNI1iG52OoOvCcf5lIvYtzSYnvu7Nj6ec10hWWH9p_Fpf6sBxa5aEKum7DjeTMY3gW_Rzp1mDr1Y6dPY6dPW6dPW6juMqx26oSRsRTF6GLGdTQLB2vwgY1oEZM1JtZfpQ26YfUcp755LH8uek6koE93kcYejiEfYSc2-Y6s5RGsdihzf1bE5KeaGf_lf2YH7G0wcw1BQm5GRZPhMHeVX2hNzP8VKziqqMkQAtABLwX9TxTaMI6-qQww2el_gKb1jv1OeQFHmheBPDD6beZQKB5BId4fADNRoAgGxyUCCP0rv5P8LWkKQmrTFLwFi5MnKwhPgVzn-I1nGsLwwi6_4LYzup59QuMjf4HRrCiGvK-__iFo6at9_t5dO7k6St9UQXTHVBL071W2LqoMEgmZ_xhux43TtQ83lSdv_K_jBo26LmKgvxJ0IQV2TRPGh4b44lZb1rFTlX0kDU9ZmLKlUGoHB4QrKcXnHJKVpGMYvOvPC8Kt0TTySGKJBKh6ikLopGxWPlasFX3EtFU0UhX6s88wvNjOtFBJNtfg7wQiKscz5rE6JnocuRytBXTM2L7au98BflRPdT-tDBABtS4F7xUF1QhUB7ympFMo7e1j-cvVlnwBVYFsaUFXuXw6oFP6jn5EyjrhXVjenDD_7Sm6hvDFeJrYnXlWCKT0nF4HlTOOZ9FDPGfVqElVNMrcDNOyK7YVMpa2gTamFFpkU2Qb_mBBqMmefD9-rB7W6yRyQHQlh7FEMyd44FzZfOrdNp2k4W31kNYt7kC58xLd2yr5r7BwT_pitrna3jtbHT9SmCCuf77IXaNkbAYiYqlTpPDud9Y4xgltZs2bZSKJvWao-rGXKaLLzLVPe-wjN3pLxYsXVb1Vmcc-QysJ5FAMp9UMFfTQ9dk2NSWIEw0WYmXJ13v4HfjVj-2ckSR9X-XShgJOlTnyM5gVz4pCUn3IfOktw8O2Xytb3TnkxTrj-gUtHTlJ6iTsBpVaU21c9cmYKQjtsS57zo4QgkkCVUqUlDuhtkXwrpwdDJz88LQI76I9xnSq0hZ5wae9oL7uhoJH9OiejRJz98kRR7zyXK8ubP2ua6-NBCTf-5_9gX54xwNcUrVZwttw_aECLul2MPEE9xi_LUtCW3ZKRMI4sdoSXG30o5TweUWUQJ58KrfTuKEG_JYlelTcIkB4aflu4VTIrY2Oitw_l6tiZtFsp3tEoJ7DpdEEdISTh6Z5CIRI24g7EC1tcl9cgI28PZ32fvJNpaSbxYfgUvUPvEaFwh79xujn6nULjm-4zpLJvtP0AQ_VxRuYXUAMjpNV3lqTwrE90pNDRzmEHSSEIYp2EB0GWl-70ywlt7m00]--></g></svg>