<?xml version="1.0" encoding="us-ascii" standalone="no"?><svg xmlns="http://www.w3.org/2000/svg" xmlns:xlink="http://www.w3.org/1999/xlink" contentStyleType="text/css" height="108px" preserveAspectRatio="none" style="width:702px;height:108px;" version="1.1" viewBox="0 0 702 108" width="702px" zoomAndPan="magnify"><defs/><g><rect fill="none" height="106.1328" style="stroke:none;stroke-width:1.0;" width="700" x="0" y="0"/><line style="stroke:#1168BD;stroke-width:0.5;" x1="70" x2="70" y1="42" y2="101.1328"/><line style="stroke:#1168BD;stroke-width:0.5;" x1="210" x2="210" y1="42" y2="101.1328"/><line style="stroke:#1168BD;stroke-width:0.5;" x1="350" x2="350" y1="42" y2="101.1328"/><line style="stroke:#1168BD;stroke-width:0.5;" x1="490" x2="490" y1="42" y2="101.1328"/><line style="stroke:#1168BD;stroke-width:0.5;" x1="630" x2="630" y1="42" y2="101.1328"/><rect fill="#08427B" height="36" rx="2.5" ry="2.5" style="stroke:#08427B;stroke-width:0.5;" width="114" x="13" y="5"/><ellipse cx="56.5" cy="23" fill="#41AF46" rx="11" ry="11" style="stroke:#08427B;stroke-width:1.0;"/><path d="M51.8906,17.6094 L61.3438,17.6094 L61.3438,19.0156 L57.4688,19.0156 L57.4688,30 L55.7813,30 L55.7813,19.0156 L51.8906,19.0156 L51.8906,17.6094 Z " fill="#FFFFFF"/><text fill="#FFFFFF" font-family="sans-serif" font-size="14" lengthAdjust="spacing" textLength="17" x="75.5" y="26.9951">tip</text><rect fill="#08427B" height="36" rx="2.5" ry="2.5" style="stroke:#08427B;stroke-width:0.5;" width="114" x="153" y="5"/><ellipse cx="189" cy="23" fill="#217EE7" rx="11" ry="11" style="stroke:#08427B;stroke-width:1.0;"/><path d="M185.1563,16.6094 L187.2813,16.6094 L191.4688,26.8125 L191.4688,16.6094 L193.0781,16.6094 L193.0781,29 L190.9531,29 L186.7656,18.7969 L186.7656,29 L185.1563,29 L185.1563,16.6094 Z " fill="#FFFFFF"/><text fill="#FFFFFF" font-family="sans-serif" font-size="14" lengthAdjust="spacing" textLength="32" x="208" y="26.9951">note</text><rect fill="#08427B" height="36" rx="2.5" ry="2.5" style="stroke:#08427B;stroke-width:0.5;" width="114" x="293" y="5"/><ellipse cx="318" cy="23" fill="#E18114" rx="11" ry="11" style="stroke:#08427B;stroke-width:1.0;"/><path d="M313,17.1094 L314.6406,17.1094 L315.8281,27.1719 L317.2344,20.5156 L318.9844,20.5156 L320.4063,27.1875 L321.5938,17.1094 L323.2344,17.1094 L321.3906,29.5 L319.7969,29.5 L318.1094,22.1406 L316.4375,29.5 L314.8438,29.5 L313,17.1094 Z " fill="#FFFFFF"/><text fill="#FFFFFF" font-family="sans-serif" font-size="14" lengthAdjust="spacing" textLength="54" x="337" y="26.9951">warning</text><rect fill="#08427B" height="36" rx="2.5" ry="2.5" style="stroke:#08427B;stroke-width:0.5;" width="114" x="433" y="5"/><ellipse cx="459.5" cy="23" fill="#A0439C" rx="11" ry="11" style="stroke:#08427B;stroke-width:1.0;"/><path d="M462.4063,28.5625 Q461.7656,28.9063 461.0938,29.0625 Q460.4219,29.2344 459.6719,29.2344 Q457.2813,29.2344 455.9688,27.5625 Q454.6563,25.875 454.6563,22.8125 Q454.6563,19.7813 455.9688,18.0781 Q457.2969,16.375 459.6719,16.375 Q460.4219,16.375 461.0938,16.5469 Q461.7656,16.7188 462.4063,17.0625 L462.4063,18.7813 Q461.7969,18.2813 461.0781,18.0156 Q460.375,17.75 459.6719,17.75 Q458.0313,17.75 457.2188,19.0156 Q456.4063,20.2656 456.4063,22.8125 Q456.4063,25.3594 457.2188,26.625 Q458.0313,27.875 459.6719,27.875 Q460.3906,27.875 461.0938,27.6094 Q461.7969,27.3438 462.4063,26.8438 L462.4063,28.5625 Z " fill="#FFFFFF"/><text fill="#FFFFFF" font-family="sans-serif" font-size="14" lengthAdjust="spacing" textLength="51" x="478.5" y="26.9951">caution</text><rect fill="#08427B" height="36" rx="2.5" ry="2.5" style="stroke:#08427B;stroke-width:0.5;" width="114" x="573" y="5"/><ellipse cx="592" cy="23" fill="#D32F2F" rx="11" ry="11" style="stroke:#08427B;stroke-width:1.0;"/><path d="M588.6719,16.6094 L595.5469,16.6094 L595.5469,18.0156 L592.9531,18.0156 L592.9531,27.5938 L595.5469,27.5938 L595.5469,29 L588.6719,29 L588.6719,27.5938 L591.2656,27.5938 L591.2656,18.0156 L588.6719,18.0156 L588.6719,16.6094 Z " fill="#FFFFFF"/><text fill="#FFFFFF" font-family="sans-serif" font-size="14" lengthAdjust="spacing" textLength="66" x="611" y="26.9951">important</text><path d="M5,57 L5,86 L135,86 L135,67 L125,57 L5,57 " fill="#41AF46" style="stroke:#999999;stroke-width:0.5;"/><path d="M125,57 L125,67 L135,67 L125,57 " fill="#41AF46" style="stroke:#999999;stroke-width:0.5;"/><text fill="#FFFFFF" font-family="sans-serif" font-size="13" lengthAdjust="spacing" textLength="18" x="61" y="76.0669">Tip</text><path d="M145,57 L145,86 L275,86 L275,67 L265,57 L145,57 " fill="#217EE7" style="stroke:#999999;stroke-width:0.5;"/><path d="M265,57 L265,67 L275,67 L265,57 " fill="#217EE7" style="stroke:#999999;stroke-width:0.5;"/><text fill="#FFFFFF" font-family="sans-serif" font-size="13" lengthAdjust="spacing" textLength="31" x="194.5" y="76.0669">Note</text><path d="M285,57 L285,86 L415,86 L415,67 L405,57 L285,57 " fill="#E18114" style="stroke:#999999;stroke-width:0.5;"/><path d="M405,57 L405,67 L415,67 L405,57 " fill="#E18114" style="stroke:#999999;stroke-width:0.5;"/><text fill="#FFFFFF" font-family="sans-serif" font-size="13" lengthAdjust="spacing" textLength="51" x="324.5" y="76.0669">Warning</text><path d="M425,57 L425,86 L555,86 L555,67 L545,57 L425,57 " fill="#A0439C" style="stroke:#999999;stroke-width:0.5;"/><path d="M545,57 L545,67 L555,67 L545,57 " fill="#A0439C" style="stroke:#999999;stroke-width:0.5;"/><text fill="#FFFFFF" font-family="sans-serif" font-size="13" lengthAdjust="spacing" textLength="49" x="465.5" y="76.0669">Caution</text><path d="M565,57 L565,86 L695,86 L695,67 L685,57 L565,57 " fill="#D32F2F" style="stroke:#999999;stroke-width:0.5;"/><path d="M685,57 L685,67 L695,67 L685,57 " fill="#D32F2F" style="stroke:#999999;stroke-width:0.5;"/><text fill="#FFFFFF" font-family="sans-serif" font-size="13" lengthAdjust="spacing" textLength="63" x="598.5" y="76.0669">Important</text><!--SRC=[rLfjKziu4FwUNw5odU5k9WKIQ0kKCiDhOOPIZj3fnrQnruaEsyf9CY5tq_z-AzbE9B-5z2YaxGoOxEhPHwlTrShAAkcfISZY0P6W5FwM9E22N8KqLfy_NX2VqO6WaMojaXu06IersbrV7sbn4eLhaYV20nmnWBKOb1dhSo-985PKCHxZk1jE1YYY96HI4HwG4PUIzKCWyfR58uhmK-Dj8f9ub-Juv1K-318w0CH1Q4y0LO1GKtu1GvmnKqFoLuBetwQGe438RwtM2nPxOU83sLF9YFfYSptWiNf5no1v1Ek9HBNz5i8VVRhuTDt3X_SF_AS73I06GKFYyP0BT9tW4U7Zc4XqAiWXW6gzU8aE-QgDVZLQv3rP-MrxG_zVGI4LWeyj2UnquCscbk2gt5g2pQsTxUF35MqrehVe13_YCTC-pgtJEyf2gXshbm52qAiWjGq_-khHHEjQW7HZQtF7Mod87PKW278vYqPSAEhCmj_i1jqAZJgCc2km9DtEMu2tZh1kf68ZIx3LeS7M6rjMDsvCHOnnPVktiztfR1NbvV7evfZxyBNJJdzt2OrzeaaIXUwFqxK-sZ9BZH08cEfRG1lRMzst_PMPg8fcYcvztkcysUxxbgXX54tkknKnekMEgtTsTgQVLiuLyw0YedGSSJK49vf2Fc3U5ABivgcAPQZIsQWu43mPkLfEe4vLYbZ5SDLfnkwO3yBLcmQEfL34iWD8- -B3oUN9zS45wPtSt9nVVbYi9hnusUV-9CttW4Oid6W_InhBLrXg67fxbG3rXhb7YKTZKn-PagPqdEB8IwnVRVFKO__aJxgalDCHY0lbWux5SQirAw67rBlLlehz8pCv9T0cYj26fNMSrlD3Bj0JJOfdan48NO9I9QiQeOjcQXWnt1jYAc1QY0Gi03caFX_hdIMWeRGbPvX9Oy6KqbbKa5tXtFIOhctaMi_Aum9hBNbjANzaCOkIw0lpiVvtDZPiTnn3G9DGaNzRnBWlcuPRYpEPTZSfhLicD7v7Puk8XlZH3TohWv0DudJny0U8rdVRSiW2G6z13nshO30XaeVCru7bSv1c0IL0H1GdOovkoHsZPCzi6Fja0chNni9Dz-y4OWy-w2mmao6bbROpCbMmLhSaF0EAGiibRhAYZZERdC0r123qGnq9Dq_BFAnKDqABGL6KKfnluNkbguxJDA_ZwPI9Cisos8wUGWKfSVWimQCozr4FOmEumaooC0f5lGXnu2cUSay3BsjKT8XbGOAYjNG_gPkYlH4PZGiCnpfPaLh7NSFwENJi2UISkesSkWsSkWsSkW_br2rmCh7zqBIn61L5JUbImyU5IEcO2DRbhJ67AXdDJP_vZ5o8b96_QB9Ob1PDbHfQHPYKcCSZKs5hmodlRyh1v4YS2B6wdwP0iW1ICbcNK4V6RJGALaiTXWrg-ia6rFh9b5fc1pThjPgWtPwj0htKhja6ilwhoO3Ro5KOAFLmje7fQQB9HE5GKcMaV2h9pPYJLuPknOzr82lXEI83WkKQmrTDbgFiPMfKgBfgVrA_IHnIKL-wi6_4Liz_pbBgwDMq25Mz3B7srCVVB7zWfpmOD1QsPzWd3uHY0VMMYzIX9a35PCx2EU0_VUqE-Vq23V0Y-_SFjR-4757XBzMo7OKyyN-oZr93F0p1qpk8_FcDS6OHDvDusPBt2CM2XqkL9iTKqVxi83H_OUQSGig4Ysjp327DIyMyvdBL7CBruLltI7ZcDXlSqpN2XiH9hERr3K-zQgVwPVeoXVOf3nlMv7aAxgc-N5WkIixB8UvF7hKzMxGtCupEu9uEwey7ozqkdkjtUjWEGJFzkbL-78_-8FUBxENZ0eVA-aGsY9VusNA5-sN3eVantWiO8v_wVy6IDSHNo88Eu2bwgoiyGZAFZUYSNkVnUYjZiUcLmlF4sXK8MS_fwS-ELroeNx0i_Pb00kLtBHNl8FvNesXiNMFUqdWGmY-s-nZLLNs5u1CMwwlb22SOobqZMEkxn-67hN_Zv1fZu24NHOk4WLwSR85w2hMNgh8Y8_KuM-PZSkAYeTe_Zv_6B0ffN9793pe2ELZkLTcppQzOFUJq5j5Sb6VqoZVDQR9YdjBfaFpBKcsYXlX7VWGEQHz2mYJ1NtnCc6gRuoU_mvCDK-yCKk6ytBnP69xcHyHYFw8ZbslJ5m6qF9urT0_nUxFdv_eUVKVlBT-ztfZDWP0-lmz1ojffTwlgnxWltHd_sZFQMy_kTOUO92JWN256uxSSHbPtfg-bzlP-lscxjr1_xE-trjElAvb0IzKobVtzNNB3HYwGqKMaotQXuXMXCiLSIOFfZjn5oo-W4F1BktpVLCISgLkg6lbB-kY2vvTF27xKBjyr5S5dwfQg1ZzA7rtmsSKJmf-tg-wPYWRi8OwwDdAU__4V]--></g></svg>