<?xml version="1.0" encoding="us-ascii" standalone="no"?><svg xmlns="http://www.w3.org/2000/svg" xmlns:xlink="http://www.w3.org/1999/xlink" contentStyleType="text/css" height="593px" preserveAspectRatio="none" style="width:863px;height:593px;" version="1.1" viewBox="0 0 863 593" width="863px" zoomAndPan="magnify"><defs/><g><rect fill="none" height="591.4481" style="stroke:none;stroke-width:1.0;" width="861" x="0" y="0"/><!--cluster boundary1--><g id="cluster_boundary1"><rect fill="none" height="169.18" rx="2.5" ry="2.5" style="stroke:#444444;stroke-width:1.0;stroke-dasharray:7.0,7.0;" width="808" x="43" y="7"/><text fill="#444444" font-family="sans-serif" font-size="16" font-weight="bold" lengthAdjust="spacing" textLength="158" x="368" y="25.8516">System_Boundary</text><text fill="#444444" font-family="sans-serif" font-size="12" font-weight="bold" lengthAdjust="spacing" textLength="62" x="416" y="40.7637">[System]</text></g><!--cluster boundary2--><g id="cluster_boundary2"><rect fill="none" height="169.19" rx="2.5" ry="2.5" style="stroke:#444444;stroke-width:1.0;stroke-dasharray:7.0,7.0;" width="850" x="7" y="227.18"/><text fill="#444444" font-family="sans-serif" font-size="16" font-weight="bold" lengthAdjust="spacing" textLength="158" x="353" y="246.0316">System_Boundary</text><text fill="#444444" font-family="sans-serif" font-size="12" font-weight="bold" lengthAdjust="spacing" textLength="62" x="401" y="260.9437">[System]</text></g><!--entity container1--><g id="elem_container1"><rect fill="#438DD5" height="89.1875" rx="2.5" ry="2.5" style="stroke:#3C7FC0;stroke-width:0.5;" width="164" x="329" y="66.5"/><text fill="#FFFFFF" font-family="sans-serif" font-size="16" font-weight="bold" lengthAdjust="spacing" textLength="86" x="368" y="93.3516">Container</text><text fill="#FFFFFF" font-family="sans-serif" font-size="12" font-style="italic" lengthAdjust="spacing" textLength="81" x="370.5" y="108.2637">[Technology]</text><text fill="#FFFFFF" font-family="sans-serif" font-size="14" lengthAdjust="spacing" textLength="4" x="409" y="124.0889">&#160;</text><text fill="#FFFFFF" font-family="sans-serif" font-size="14" lengthAdjust="spacing" textLength="57" x="341" y="140.3857">Optional</text><text fill="#FFFFFF" font-family="sans-serif" font-size="14" lengthAdjust="spacing" textLength="4" x="398" y="140.3857">&#160;</text><text fill="#FFFFFF" font-family="sans-serif" font-size="14" lengthAdjust="spacing" textLength="79" x="402" y="140.3857">Description</text></g><!--entity cqueue--><g id="elem_cqueue"><path d="M64,87.79 L222,87.79 C227,87.79 227,111.0869 227,111.0869 C227,111.0869 227,134.3838 222,134.3838 L64,134.3838 C59,134.3838 59,111.0869 59,111.0869 C59,111.0869 59,87.79 64,87.79 " fill="#438DD5" style="stroke:#3C7FC0;stroke-width:0.5;"/><path d="M222,87.79 C217,87.79 217,111.0869 217,111.0869 C217,134.3838 222,134.3838 222,134.3838 " fill="none" style="stroke:#3C7FC0;stroke-width:0.5;"/><text fill="#FFFFFF" font-family="sans-serif" font-size="16" font-weight="bold" lengthAdjust="spacing" textLength="144" x="66" y="109.6416">ContainerQueue</text><text fill="#FFFFFF" font-family="sans-serif" font-size="12" font-style="italic" lengthAdjust="spacing" textLength="81" x="97.5" y="124.5537">[Technology]</text></g><!--entity cdb--><g id="elem_cdb"><path d="M671,72 C671,62 753,62 753,62 C753,62 835,62 835,72 L835,150.1875 C835,160.1875 753,160.1875 753,160.1875 C753,160.1875 671,160.1875 671,150.1875 L671,72 " fill="#438DD5" style="stroke:#3C7FC0;stroke-width:0.5;"/><path d="M671,72 C671,82 753,82 753,82 C753,82 835,82 835,72 " fill="none" style="stroke:#3C7FC0;stroke-width:0.5;"/><text fill="#FFFFFF" font-family="sans-serif" font-size="16" font-weight="bold" lengthAdjust="spacing" textLength="110" x="698" y="102.8516">ContainerDb</text><text fill="#FFFFFF" font-family="sans-serif" font-size="12" font-style="italic" lengthAdjust="spacing" textLength="81" x="712.5" y="117.7637">[Technology]</text><text fill="#FFFFFF" font-family="sans-serif" font-size="14" lengthAdjust="spacing" textLength="4" x="751" y="133.5889">&#160;</text><text fill="#FFFFFF" font-family="sans-serif" font-size="14" lengthAdjust="spacing" textLength="57" x="683" y="149.8857">Optional</text><text fill="#FFFFFF" font-family="sans-serif" font-size="14" lengthAdjust="spacing" textLength="4" x="740" y="149.8857">&#160;</text><text fill="#FFFFFF" font-family="sans-serif" font-size="14" lengthAdjust="spacing" textLength="79" x="744" y="149.8857">Description</text></g><!--entity container2--><g id="elem_container2"><rect fill="#B3B3B3" height="89.1875" rx="2.5" ry="2.5" style="stroke:#A6A6A6;stroke-width:0.5;" width="164" x="329" y="286.68"/><text fill="#FFFFFF" font-family="sans-serif" font-size="16" font-weight="bold" lengthAdjust="spacing" textLength="122" x="350" y="313.5316">Container_Ext</text><text fill="#FFFFFF" font-family="sans-serif" font-size="12" font-style="italic" lengthAdjust="spacing" textLength="81" x="370.5" y="328.4437">[Technology]</text><text fill="#FFFFFF" font-family="sans-serif" font-size="14" lengthAdjust="spacing" textLength="4" x="409" y="344.2689">&#160;</text><text fill="#FFFFFF" font-family="sans-serif" font-size="14" lengthAdjust="spacing" textLength="57" x="341" y="360.5657">Optional</text><text fill="#FFFFFF" font-family="sans-serif" font-size="14" lengthAdjust="spacing" textLength="4" x="398" y="360.5657">&#160;</text><text fill="#FFFFFF" font-family="sans-serif" font-size="14" lengthAdjust="spacing" textLength="79" x="402" y="360.5657">Description</text></g><!--entity cqueue2--><g id="elem_cqueue2"><path d="M28,307.98 L222,307.98 C227,307.98 227,331.2769 227,331.2769 C227,331.2769 227,354.5738 222,354.5738 L28,354.5738 C23,354.5738 23,331.2769 23,331.2769 C23,331.2769 23,307.98 28,307.98 " fill="#B3B3B3" style="stroke:#A6A6A6;stroke-width:0.5;"/><path d="M222,307.98 C217,307.98 217,331.2769 217,331.2769 C217,354.5738 222,354.5738 222,354.5738 " fill="none" style="stroke:#A6A6A6;stroke-width:0.5;"/><text fill="#FFFFFF" font-family="sans-serif" font-size="16" font-weight="bold" lengthAdjust="spacing" textLength="180" x="30" y="329.8316">ContainerQueue_Ext</text><text fill="#FFFFFF" font-family="sans-serif" font-size="12" font-style="italic" lengthAdjust="spacing" textLength="81" x="79.5" y="344.7437">[Technology]</text></g><!--entity cdb2--><g id="elem_cdb2"><path d="M671,292.18 C671,282.18 756,282.18 756,282.18 C756,282.18 841,282.18 841,292.18 L841,370.3675 C841,380.3675 756,380.3675 756,380.3675 C756,380.3675 671,380.3675 671,370.3675 L671,292.18 " fill="#B3B3B3" style="stroke:#A6A6A6;stroke-width:0.5;"/><path d="M671,292.18 C671,302.18 756,302.18 756,302.18 C756,302.18 841,302.18 841,292.18 " fill="none" style="stroke:#A6A6A6;stroke-width:0.5;"/><text fill="#FFFFFF" font-family="sans-serif" font-size="16" font-weight="bold" lengthAdjust="spacing" textLength="146" x="683" y="323.0316">ContainerDb_Ext</text><text fill="#FFFFFF" font-family="sans-serif" font-size="12" font-style="italic" lengthAdjust="spacing" textLength="81" x="715.5" y="337.9437">[Technology]</text><text fill="#FFFFFF" font-family="sans-serif" font-size="14" lengthAdjust="spacing" textLength="4" x="754" y="353.7689">&#160;</text><text fill="#FFFFFF" font-family="sans-serif" font-size="14" lengthAdjust="spacing" textLength="57" x="686" y="370.0657">Optional</text><text fill="#FFFFFF" font-family="sans-serif" font-size="14" lengthAdjust="spacing" textLength="4" x="743" y="370.0657">&#160;</text><text fill="#FFFFFF" font-family="sans-serif" font-size="14" lengthAdjust="spacing" textLength="79" x="747" y="370.0657">Description</text></g><!--link container1 to cdb--><g id="link_container1_cdb"><path d="M493.35,111.09 C547.11,111.09 609.03,111.09 662.77,111.09 " fill="none" id="container1-to-cdb" style="stroke:#666666;stroke-width:1.0;"/><polygon fill="#666666" points="670.77,111.09,662.77,108.09,662.77,114.09,670.77,111.09" style="stroke:#666666;stroke-width:1.0;"/><text fill="#666666" font-family="sans-serif" font-size="12" font-weight="bold" lengthAdjust="spacing" textLength="37" x="563.5" y="89.2287">Rel_R</text><text fill="#666666" font-family="sans-serif" font-size="12" font-style="italic" lengthAdjust="spacing" textLength="57" x="513.5" y="103.1974">[Optional</text><text fill="#666666" font-family="sans-serif" font-size="12" font-style="italic" lengthAdjust="spacing" textLength="4" x="570.5" y="103.1974">&#160;</text><text fill="#666666" font-family="sans-serif" font-size="12" font-style="italic" lengthAdjust="spacing" textLength="76" x="574.5" y="103.1974">Technology]</text></g><!--link cqueue to container1--><g id="link_cqueue_container1"><path d="M235.43,111.09 C267.8,111.09 288.67,111.09 320.83,111.09 " fill="none" id="cqueue-container1" style="stroke:#666666;stroke-width:1.0;"/><polygon fill="#666666" points="227.43,111.09,235.43,114.09,235.43,108.09,227.43,111.09" style="stroke:#666666;stroke-width:1.0;"/><polygon fill="#666666" points="328.83,111.09,320.83,108.09,320.83,114.09,328.83,111.09" style="stroke:#666666;stroke-width:1.0;"/><text fill="#666666" font-family="sans-serif" font-size="12" font-weight="bold" lengthAdjust="spacing" textLength="35" x="260.5" y="89.2287">BiRel</text><text fill="#666666" font-family="sans-serif" font-size="12" font-style="italic" lengthAdjust="spacing" textLength="62" x="247" y="103.1974">[Optional]</text></g><!--link container2 to cdb2--><g id="link_container2_cdb2"><path d="M493.2,331.28 C546.71,331.28 608.37,331.28 662.53,331.28 " fill="none" id="container2-to-cdb2" style="stroke:#666666;stroke-width:1.0;"/><polygon fill="#666666" points="670.53,331.28,662.53,328.28,662.53,334.28,670.53,331.28" style="stroke:#666666;stroke-width:1.0;"/><text fill="#666666" font-family="sans-serif" font-size="12" font-weight="bold" lengthAdjust="spacing" textLength="37" x="563.5" y="309.4187">Rel_R</text><text fill="#666666" font-family="sans-serif" font-size="12" font-style="italic" lengthAdjust="spacing" textLength="57" x="513.5" y="323.3874">[Optional</text><text fill="#666666" font-family="sans-serif" font-size="12" font-style="italic" lengthAdjust="spacing" textLength="4" x="570.5" y="323.3874">&#160;</text><text fill="#666666" font-family="sans-serif" font-size="12" font-style="italic" lengthAdjust="spacing" textLength="76" x="574.5" y="323.3874">Technology]</text></g><!--link cqueue2 to container2--><g id="link_cqueue2_container2"><path d="M235.44,331.28 C268.62,331.28 288.98,331.28 320.52,331.28 " fill="none" id="cqueue2-container2" style="stroke:#666666;stroke-width:1.0;"/><polygon fill="#666666" points="227.44,331.28,235.44,334.28,235.44,328.28,227.44,331.28" style="stroke:#666666;stroke-width:1.0;"/><polygon fill="#666666" points="328.52,331.28,320.52,328.28,320.52,334.28,328.52,331.28" style="stroke:#666666;stroke-width:1.0;"/><text fill="#666666" font-family="sans-serif" font-size="12" font-weight="bold" lengthAdjust="spacing" textLength="35" x="260.5" y="309.4187">BiRel</text><text fill="#666666" font-family="sans-serif" font-size="12" font-style="italic" lengthAdjust="spacing" textLength="62" x="247" y="323.3874">[Optional]</text></g><!--link container1 to container2--><g id="link_container1_container2"><path d="M411,155.98 C411,193.93 411,240.52 411,278.46 " fill="none" id="container1-to-container2" style="stroke:#666666;stroke-width:1.0;"/><polygon fill="#666666" points="411,286.46,414,278.46,408,278.46,411,286.46" style="stroke:#666666;stroke-width:1.0;"/><text fill="#666666" font-family="sans-serif" font-size="12" font-weight="bold" lengthAdjust="spacing" textLength="22" x="414" y="206.3187">Rel</text></g><text fill="#000000" font-family="sans-serif" font-size="14" font-weight="bold" lengthAdjust="spacing" textLength="59" x="696" y="437.3651">Legend</text><text fill="#FFFFFF" font-family="sans-serif" font-size="14" lengthAdjust="spacing" textLength="4" x="755" y="437.3651">&#160;</text><rect fill="#08427B" height="20.2969" style="stroke:none;stroke-width:1.0;" width="136" x="694" y="442.6669"/><text fill="#FFFFFF" font-family="sans-serif" font-size="14" lengthAdjust="spacing" textLength="49" x="700" y="457.662">person</text><rect fill="#1168BD" height="20.2969" style="stroke:none;stroke-width:1.0;" width="136" x="694" y="462.9638"/><text fill="#FFFFFF" font-family="sans-serif" font-size="14" lengthAdjust="spacing" textLength="50" x="700" y="477.9589">system</text><rect fill="#438DD5" height="20.2969" style="stroke:none;stroke-width:1.0;" width="136" x="694" y="483.2606"/><text fill="#FFFFFF" font-family="sans-serif" font-size="14" lengthAdjust="spacing" textLength="65" x="700" y="498.2557">container</text><rect fill="#686868" height="20.2969" style="stroke:none;stroke-width:1.0;" width="136" x="694" y="503.5575"/><text fill="#FFFFFF" font-family="sans-serif" font-size="14" lengthAdjust="spacing" textLength="108" x="700" y="518.5526">external person</text><rect fill="#999999" height="20.2969" style="stroke:none;stroke-width:1.0;" width="136" x="694" y="523.8544"/><text fill="#FFFFFF" font-family="sans-serif" font-size="14" lengthAdjust="spacing" textLength="109" x="700" y="538.8495">external system</text><rect fill="#B3B3B3" height="20.2969" style="stroke:none;stroke-width:1.0;" width="136" x="694" y="544.1513"/><text fill="#FFFFFF" font-family="sans-serif" font-size="14" lengthAdjust="spacing" textLength="124" x="700" y="559.1464">external container</text><line style="stroke:#FFFFFF;stroke-width:1.0;" x1="694" x2="830" y1="422.37" y2="422.37"/><line style="stroke:#FFFFFF;stroke-width:1.0;" x1="694" x2="830" y1="442.6669" y2="442.6669"/><line style="stroke:#FFFFFF;stroke-width:1.0;" x1="694" x2="830" y1="462.9638" y2="462.9638"/><line style="stroke:#FFFFFF;stroke-width:1.0;" x1="694" x2="830" y1="483.2606" y2="483.2606"/><line style="stroke:#FFFFFF;stroke-width:1.0;" x1="694" x2="830" y1="503.5575" y2="503.5575"/><line style="stroke:#FFFFFF;stroke-width:1.0;" x1="694" x2="830" y1="523.8544" y2="523.8544"/><line style="stroke:#FFFFFF;stroke-width:1.0;" x1="694" x2="830" y1="544.1513" y2="544.1513"/><line style="stroke:#FFFFFF;stroke-width:1.0;" x1="694" x2="830" y1="564.4481" y2="564.4481"/><line style="stroke:#FFFFFF;stroke-width:1.0;" x1="694" x2="694" y1="422.37" y2="564.4481"/><line style="stroke:#FFFFFF;stroke-width:1.0;" x1="830" x2="830" y1="422.37" y2="564.4481"/><!--SRC=[rLfRKziu57xFhr2pdG5cA12Jja0lCq2uT8O2I-XqzYbLx9D4Yssbaap8xlI_xv4S1ycE7SBIai8CCJwtJ-Uc8pihfAt68OlxH89I-2b9Zmjo6T9OVVbyHW96-u96ihP2sW1aeDHmRtDpgCb956v8dWWVKA8F6p4e8njmFuaWLbGn7gFSDITz954ICga8xv4Xbv9rGo3oXiL3YkgdnjU9IE8zakadh_2Ydz0-e1vKxGkW2b3L55-FePuHKmFoTuBQlqrLWW8XlzLgBrZiXqa0vBrAXZGGsviz7gjNT0IIHx2PI6JxM4FrXnTd5rTjlFZmm1yjr8SO10s9pqCkq7M2HuIFOYBHgI070AhsuYKwfAEDTWmN-K3gV-niwTyw4gaGV6HHOBS1RxOr1QDoOn6scxixhOEwjXhH6tH24F6OQHzdrkajPI7LZjLXW11q5AIs4KGTdoQQrr98jvhRktuzHtTOUhrUHcVHa0j5dLK4srxFcy5HfYFc2YoArtWByDOXbaagDhG8pGRjDT_Oj3Av4HKnvfNjtyPEez7CqulowEQO1z1fhAUV7g5nG3H8ej3zSHhhmwO9DQf0XIc_fMXhf-czxTRlIRDWfjgj-ut6cvrkO94gf6Xovyt84KrtNBsxkpkzEtEjM0SpCahd4LS3SB8fv7tcJrKKtJnbiGpDT3OozWLFXYwNawXJbhokVBhgCcEtB03XyaqJnsB8wx8JIFlYvEZyw6h_ZBIFhgy_dPyirXDUlEpoO9pMUuz6B1nhFqiQorVOQXXwUuK0zGUPHubFOzCVcPAcTHoZv3dshtLprMR_P5UwfRpJ6OY12a3dugXMks-X1zI_qRwAWqEpE2NG9fBGXiNLIllv0HVeYIh6q_4GX6v1APFLZT15zsoOCTmVO2bWMOW4B0LoG0C-qZjBZuRIffnY9Oq4KqfNKOvsYMlJCfvjv4glokS2UorvRJ5_PZ6BakWh2x3_DxQsR7Uqe4UJK95_QyIuRx8CjnTFQDhTf12t2T7u7Pqj8XhYhMkuK_iXwyTfyF0FYDeFstB8Ue3UWZOwLa5_J2GFMQ0JA-0WJG0bG4GK9oCkRiWje-IzsJ0-aZ6eFLiNRhhV4uXzED5LO1P32f6sAp9biA9R89u2HQBb4hTOaSTPJGRW2deWz4KP2BTEYpYiKZT42q6Ub4ASR-77J5UrqZ8lm-cqYIBC8jdEdbm7AM3u8i6dClDH6tC3kC9AidJacdfUnRwlU8ezJRp9eA9JR98aIDf8zvEo9TeRaU4umtGie-MXDTmObg-XOIyWm-HLOl8gC7aLcBo7Ol9oc4nkFxHiB4HvKbMvbE1nLQHmJ0RhzbPPGpCHpIsV-OXS5IcYOD5YiI0jMYebiF9gKc0-Zqo7BKsdRBuf9fD3SJB4cdwg4ibIa8APJ0bbODn18sUrC67OIiqyMQ6rV365aTdHEncrgbIxCziCxOLnpJOmcR-g3BY3t0m3XHdEDZ0zJLIPo1rAPXafdaeoC-RaDT5kvOzr82leSqX62RPhJ5yrNewsDs6ZGfLr-wFoJUA0YlBMXNCZZdh1SxPIXwzaH9Wron1hJttwpV8HE-L-lxAnFSC-kIyKwr5_kK0TQ01KZES4pb7-qsDtmEyM680NsRyVDVuISaX5i5HXEmnv4lna7wM6U1Y2htSG-VC7uOb5t4pYPIlUGoGB7YvLcRIeejtxWz3ymCmvXHG1vsFJWf1chMBUSBbY3k7wyArd93npcmtkrmt21iHHhERD3RywQiVwOVeofVOn3ojYyZmDzrY_N5WkICx38HwCdtGyMtGsCuXEuOxsouy7opqkVjBFz70SWchuPL5-6ey-4llPvE7Z0eVAya8s6i_ntdAb-td5eVafdWiO8nVTls791k9BH47xy2jcgqiyGZAV3UcSMUVfPYjZiUgHmlFasYK8MOxfrvyTBxbGls5R-ZE118hFMcOyW_XVWwAnTOLrI-D-2B_PxcDOL_GhX82mMBzQZd21eTmpX8skUnn-MFmh5rUP0mzvKRH86kZWJ0BKLiYzL9qL4QcdsJAV4XCN5Tt-UVmqOb58uncL_A0ZaAFBVLNsRElBTmyvVOjeNfHFu1NVDAV5YdLAfoBPbwNMYHhWFzaHEAHT20cJ13_uY32rRewV_1PFDaozCvfov-NgpSBWD7yY5WSH7RfOgxu8eEdn_K3t4BzNUtwkxz5tzCxotUkj-pKGqkLt8KXPkcnlLlyOTQMxujzxHUyt9-zrxx-gTjZSF6nsz8CTYaZ5nrhjRF-lYo_NdQ-VhayxPqSdH-UjrRLQhJsM2g9EzgHqDTiZ6kkadgFLyTRqYQekXVgQmJWrikfdLrfwUblBNOC_Y15rtsYv6EenZOQa1T8NpFnNNxDLcTr-rV-kFsnTvdvEeIFOwgxwGTSMQNKV3C1i_M7dobb8gixSTqHp20wOPZbpHJFyXcXBeyYFSkTxZt1-v-XEtHltR0zeqgE3aEer2_4AaPYXEHUDL3peUcv85e9K38jdmk8zAYvU5XUlF31uqmsaxLSjiVOV]--></g></svg>