<?xml version="1.0" encoding="us-ascii" standalone="no"?><svg xmlns="http://www.w3.org/2000/svg" xmlns:xlink="http://www.w3.org/1999/xlink" contentStyleType="text/css" height="556px" preserveAspectRatio="none" style="width:606px;height:556px;" version="1.1" viewBox="0 0 606 556" width="606px" zoomAndPan="magnify"><defs/><g><rect fill="#1168BD" height="36.2969" rx="12.5" ry="12.5" style="stroke:#1168BD;stroke-width:1.5;" width="116" x="10" y="259.2617"/><text fill="#FFFFFF" font-family="sans-serif" font-size="14" lengthAdjust="spacing" textLength="29" x="20" y="282.2568">UML</text><text fill="#FFFFFF" font-family="sans-serif" font-size="14" lengthAdjust="spacing" textLength="4" x="49" y="282.2568">&#160;</text><text fill="#FFFFFF" font-family="sans-serif" font-size="14" lengthAdjust="spacing" textLength="63" x="53" y="282.2568">diagrams</text><rect fill="#1168BD" height="36.2969" rx="12.5" ry="12.5" style="stroke:#1168BD;stroke-width:1.5;" width="89" x="176" y="118.5195"/><text fill="#FFFFFF" font-family="sans-serif" font-size="14" lengthAdjust="spacing" textLength="69" x="186" y="141.5146">Behaviour</text><rect fill="#1168BD" height="36.2969" rx="12.5" ry="12.5" style="stroke:#1168BD;stroke-width:1.5;" width="92" x="315" y="20"/><text fill="#FFFFFF" font-family="sans-serif" font-size="14" lengthAdjust="spacing" textLength="27" x="325" y="42.9951">Use</text><text fill="#FFFFFF" font-family="sans-serif" font-size="14" lengthAdjust="spacing" textLength="4" x="352" y="42.9951">&#160;</text><text fill="#FFFFFF" font-family="sans-serif" font-size="14" lengthAdjust="spacing" textLength="41" x="356" y="42.9951">cases</text><path d="M265,136.668 L275,136.668 C290,136.668 290,38.1484 305,38.1484 L315,38.1484 " fill="none" style="stroke:#E91E63;stroke-width:1.0;"/><rect fill="#1168BD" height="36.2969" rx="12.5" ry="12.5" style="stroke:#1168BD;stroke-width:1.5;" width="80" x="315" y="76.2969"/><text fill="#FFFFFF" font-family="sans-serif" font-size="14" lengthAdjust="spacing" textLength="60" x="325" y="99.292">Activities</text><path d="M265,136.668 L275,136.668 C290,136.668 290,94.4453 305,94.4453 L315,94.4453 " fill="none" style="stroke:#E91E63;stroke-width:1.0;"/><rect fill="#1168BD" height="36.2969" rx="12.5" ry="12.5" style="stroke:#1168BD;stroke-width:1.5;" width="64" x="315" y="132.5938"/><text fill="#FFFFFF" font-family="sans-serif" font-size="14" lengthAdjust="spacing" textLength="44" x="325" y="155.5889">States</text><path d="M265,136.668 L275,136.668 C290,136.668 290,150.7422 305,150.7422 L315,150.7422 " fill="none" style="stroke:#E91E63;stroke-width:1.0;"/><rect fill="#1168BD" height="36.2969" rx="12.5" ry="12.5" style="stroke:#1168BD;stroke-width:1.5;" width="101" x="315" y="188.8906"/><text fill="#FFFFFF" font-family="sans-serif" font-size="14" lengthAdjust="spacing" textLength="81" x="325" y="211.8857">Interactions</text><rect fill="#1168BD" height="36.2969" rx="12.5" ry="12.5" style="stroke:#1168BD;stroke-width:1.5;" width="99" x="466" y="160.7422"/><text fill="#FFFFFF" font-family="sans-serif" font-size="14" lengthAdjust="spacing" textLength="79" x="476" y="183.7373">Sequences</text><path d="M416,207.0391 L426,207.0391 C441,207.0391 441,178.8906 456,178.8906 L466,178.8906 " fill="none" style="stroke:#E91E63;stroke-width:1.0;"/><rect fill="#1168BD" height="36.2969" rx="12.5" ry="12.5" style="stroke:#1168BD;stroke-width:1.5;" width="128" x="466" y="217.0391"/><text fill="#FFFFFF" font-family="sans-serif" font-size="14" lengthAdjust="spacing" textLength="108" x="476" y="240.0342">Communication</text><path d="M416,207.0391 L426,207.0391 C441,207.0391 441,235.1875 456,235.1875 L466,235.1875 " fill="none" style="stroke:#E91E63;stroke-width:1.0;"/><path d="M265,136.668 L275,136.668 C290,136.668 290,207.0391 305,207.0391 L315,207.0391 " fill="none" style="stroke:#E91E63;stroke-width:1.0;"/><path d="M126,277.4102 L136,277.4102 C151,277.4102 151,136.668 166,136.668 L176,136.668 " fill="none" style="stroke:#E91E63;stroke-width:1.0;"/><rect fill="#1168BD" height="36.2969" rx="12.5" ry="12.5" style="stroke:#1168BD;stroke-width:1.5;" width="84" x="176" y="385.9297"/><text fill="#FFFFFF" font-family="sans-serif" font-size="14" lengthAdjust="spacing" textLength="64" x="186" y="408.9248">Structure</text><rect fill="#1168BD" height="36.2969" rx="12.5" ry="12.5" style="stroke:#1168BD;stroke-width:1.5;" width="74" x="310" y="273.3359"/><text fill="#FFFFFF" font-family="sans-serif" font-size="14" lengthAdjust="spacing" textLength="54" x="320" y="296.3311">Classes</text><path d="M260,404.0781 L270,404.0781 C285,404.0781 285,291.4844 300,291.4844 L310,291.4844 " fill="none" style="stroke:#E91E63;stroke-width:1.0;"/><rect fill="#1168BD" height="36.2969" rx="12.5" ry="12.5" style="stroke:#1168BD;stroke-width:1.5;" width="73" x="310" y="329.6328"/><text fill="#FFFFFF" font-family="sans-serif" font-size="14" lengthAdjust="spacing" textLength="53" x="320" y="352.6279">Objects</text><path d="M260,404.0781 L270,404.0781 C285,404.0781 285,347.7813 300,347.7813 L310,347.7813 " fill="none" style="stroke:#E91E63;stroke-width:1.0;"/><rect fill="#1168BD" height="36.2969" rx="12.5" ry="12.5" style="stroke:#1168BD;stroke-width:1.5;" width="87" x="310" y="385.9297"/><text fill="#FFFFFF" font-family="sans-serif" font-size="14" lengthAdjust="spacing" textLength="67" x="320" y="408.9248">Packages</text><path d="M260,404.0781 L270,404.0781 C285,404.0781 285,404.0781 300,404.0781 L310,404.0781 " fill="none" style="stroke:#E91E63;stroke-width:1.0;"/><rect fill="#1168BD" height="36.2969" rx="12.5" ry="12.5" style="stroke:#1168BD;stroke-width:1.5;" width="110" x="310" y="442.2266"/><text fill="#FFFFFF" font-family="sans-serif" font-size="14" lengthAdjust="spacing" textLength="90" x="320" y="465.2217">Components</text><path d="M260,404.0781 L270,404.0781 C285,404.0781 285,460.375 300,460.375 L310,460.375 " fill="none" style="stroke:#E91E63;stroke-width:1.0;"/><rect fill="#1168BD" height="36.2969" rx="12.5" ry="12.5" style="stroke:#1168BD;stroke-width:1.5;" width="104" x="310" y="498.5234"/><text fill="#FFFFFF" font-family="sans-serif" font-size="14" lengthAdjust="spacing" textLength="84" x="320" y="521.5186">Deployment</text><path d="M260,404.0781 L270,404.0781 C285,404.0781 285,516.6719 300,516.6719 L310,516.6719 " fill="none" style="stroke:#E91E63;stroke-width:1.0;"/><path d="M126,277.4102 L136,277.4102 C151,277.4102 151,404.0781 166,404.0781 L176,404.0781 " fill="none" style="stroke:#E91E63;stroke-width:1.0;"/><!--SRC=[jLBRJXin47ttLupK5q0gpL908KA8iccgeaH4N9zdlPEDMw-TskD0LF7ldTsOAXAlhMHBFdFEN3sNaJ5mQrpTuagTHzvOkb0PZmqs0LluhG2kKFziWa-kBhtr0JYWYoiCv5XOvslgPU-57uhYT5ZLFJSrZjvR9zvnjYuMYzuqmnVJflR9rBo4ucGWnbUvbN-n56FEjEFtDrgdmX3ySzRiPAIpWau_zvfNzLp5tUx-R_s3Vr__-QVyLGVmC9j2lUqbAZY0ArhYslWKH2fi9D0OAVReYsQpDcmol6Fa_Fpkc08AxLrdw4ZwbSXfoh3qRPkSqTX9LEySakOKgFSlBSQtB3VL3zAyVSzbdDXaGcAil9ELsS8nhQpVjDqANP9iNDv2DRVek6jhJI5ADYWEZmP7nuV5tlqomOGg61HG34ToJexXuRw4ZjvNUz_cKuZIkIQPIEHWgjHLkw-kSOrmcnoRbaRWahNg-d4sWhjKYKo608ypDQO59ilmrMbV6zUC9FJaur1DqJL9UiYEfUm6XyqM_G40]--></g></svg>