<?xml version="1.0" encoding="UTF-8" standalone="no"?><svg xmlns="http://www.w3.org/2000/svg" xmlns:xlink="http://www.w3.org/1999/xlink" contentScriptType="application/ecmascript" contentStyleType="text/css" height="1615px" preserveAspectRatio="none" style="width:785px;height:1615px;background:#FFFFFF;" version="1.1" viewBox="0 0 785 1615" width="785px" zoomAndPan="magnify"><defs/><g><rect fill="none" height="1613.2004" style="stroke:#FFFFFF;stroke-width:1.0;" width="783.25" x="0" y="0"/><ellipse cx="395.75" cy="20" fill="#08427B" rx="10" ry="10" style="stroke:none;stroke-width:1.0;"/><rect fill="#D32F2F" height="39.6" style="stroke:#FFFFFF;stroke-width:1.5;" width="205" x="293.25" y="50"/><text fill="#FFFFFF" font-family="Roboto" font-size="13" lengthAdjust="spacing" textLength="181" x="305.25" y="75">config/iati-workbench.properties</text><rect fill="#08427B" height="39.6" style="stroke:#FFFFFF;stroke-width:1.5;" width="75" x="358.25" y="109.6"/><text fill="#FFFFFF" font-family="Roboto" font-size="13" lengthAdjust="spacing" textLength="51" x="370.25" y="134.6">inputs/*.*</text><path d="M117.25,159.2 L117.25,235.6001 A0,0 0 0 0 117.25,235.6001 L311.25,235.6001 A0,0 0 0 0 311.25,235.6001 L311.25,201.4001 L331.25,197.4001 L311.25,193.4001 L311.25,169.2 L301.25,159.2 L117.25,159.2 A0,0 0 0 0 117.25,159.2 " fill="#D32F2F" style="stroke:#FFFFFF;stroke-width:1.0;"/><path d="M301.25,159.2 L301.25,169.2 L311.25,169.2 L301.25,159.2 " fill="#D32F2F" style="stroke:#FFFFFF;stroke-width:1.0;"/><text fill="#FFFFFF" font-family="Roboto" font-size="13" lengthAdjust="spacing" textLength="133" x="143.25" y="179.2">TODO: check if needed</text><text fill="#FFFFFF" font-family="Roboto" font-size="13" lengthAdjust="spacing" textLength="123" x="148.25" y="194.8001">Rename files, remove</text><text fill="#FFFFFF" font-family="Roboto" font-size="13" lengthAdjust="spacing" textLength="89" x="165.25" y="210.4001">empty files, etc.</text><text fill="#FFFFFF" font-family="Roboto" font-size="13" lengthAdjust="spacing" textLength="94" x="125.25" y="226.0001">override via local</text><text fill="#FFFFFF" font-family="monospace" font-size="13" lengthAdjust="spacing" textLength="72" x="222.25" y="226.0001">build.xml</text><rect fill="#1168BD" height="39.6" rx="12.5" ry="12.5" style="stroke:#FFFFFF;stroke-width:1.5;" width="129" x="331.25" y="177.6"/><text fill="#FFFFFF" font-family="Roboto" font-size="13" lengthAdjust="spacing" textLength="105" x="343.25" y="202.6001">postprocess inputs</text><rect fill="#08427B" height="39.6" style="stroke:#FFFFFF;stroke-width:1.5;" width="115" x="338.25" y="255.6001"/><text fill="#FFFFFF" font-family="Roboto" font-size="13" lengthAdjust="spacing" textLength="91" x="350.25" y="280.6001">updates inputs/*</text><rect fill="#FFFCFF" height="545.4001" style="stroke:#A0439C;stroke-width:2.0;" width="311.5" x="221.75" y="305.2001"/><path d="M333.75,305.2001 L333.75,317.8001 L323.75,327.8001 L221.75,327.8001 " fill="none" style="stroke:#A0439C;stroke-width:2.0;"/><text fill="#A0439C" font-family="Roboto" font-size="13" lengthAdjust="spacing" textLength="98" x="226.75" y="321.2001">spreadsheet-map</text><rect fill="#FFFCFF" height="381.6001" style="stroke:#A0439C;stroke-width:2.0;" width="291.5" x="231.75" y="337.8001"/><path d="M325.75,337.8001 L325.75,350.4001 L315.75,360.4001 L231.75,360.4001 " fill="none" style="stroke:#A0439C;stroke-width:2.0;"/><text fill="#A0439C" font-family="Roboto" font-size="13" lengthAdjust="spacing" textLength="80" x="236.75" y="353.8001">sheets-csvxml</text><rect fill="#E18114" height="6" rx="2.5" ry="2.5" style="stroke:#E18114;stroke-width:1.0;" width="235" x="278.25" y="377.4001"/><rect fill="#08427B" height="39.6" style="stroke:#FFFFFF;stroke-width:1.5;" width="96" x="292.25" y="403.4001"/><text fill="#FFFFFF" font-family="Roboto" font-size="13" lengthAdjust="spacing" textLength="69" x="304.25" y="428.4001">input/*.xsl{x}</text><rect fill="#1168BD" height="39.6" rx="12.5" ry="12.5" style="stroke:#FFFFFF;stroke-width:1.5;" width="77" x="301.75" y="463.0001"/><text fill="#FFFFFF" font-family="Roboto" font-size="13" lengthAdjust="spacing" textLength="53" x="313.75" y="488.0001">excel-csv</text><rect fill="#08427B" height="39.6" style="stroke:#FFFFFF;stroke-width:1.5;" width="77" x="301.75" y="522.6002"/><text fill="#FFFFFF" font-family="Roboto" font-size="13" lengthAdjust="spacing" textLength="53" x="313.75" y="547.6002">tmp/*.csv</text><rect fill="#08427B" height="39.6" style="stroke:#FFFFFF;stroke-width:1.5;" width="83" x="416.25" y="403.4001"/><text fill="#FFFFFF" font-family="Roboto" font-size="13" lengthAdjust="spacing" textLength="59" x="428.25" y="428.4001">input/*.csv</text><rect fill="#1168BD" height="39.6" rx="12.5" ry="12.5" style="stroke:#FFFFFF;stroke-width:1.5;" width="66" x="424.75" y="463.0001"/><text fill="#FFFFFF" font-family="Roboto" font-size="13" lengthAdjust="spacing" textLength="42" x="436.75" y="488.0001">csv-csv</text><rect fill="#08427B" height="39.6" style="stroke:#FFFFFF;stroke-width:1.5;" width="77" x="419.25" y="522.6002"/><text fill="#FFFFFF" font-family="Roboto" font-size="13" lengthAdjust="spacing" textLength="53" x="431.25" y="547.6002">tmp/*.csv</text><rect fill="#E18114" height="6" rx="2.5" ry="2.5" style="stroke:#E18114;stroke-width:1.0;" width="235" x="278.25" y="582.2002"/><path d="M241.75,613.2002 L241.75,642.8002 A0,0 0 0 0 241.75,642.8002 L332.75,642.8002 A0,0 0 0 0 332.75,642.8002 L332.75,632.0002 L352.75,628.0002 L332.75,624.0002 L332.75,623.2002 L322.75,613.2002 L241.75,613.2002 A0,0 0 0 0 241.75,613.2002 " fill="#999999" style="stroke:#FFFFFF;stroke-width:1.0;"/><path d="M322.75,613.2002 L322.75,623.2002 L332.75,623.2002 L322.75,613.2002 " fill="#999999" style="stroke:#FFFFFF;stroke-width:1.0;"/><text fill="#FFFFFF" font-family="Roboto" font-size="13" lengthAdjust="spacing" textLength="66" x="249.75" y="633.2002">using basex</text><rect fill="#1168BD" height="39.6" rx="12.5" ry="12.5" style="stroke:#FFFFFF;stroke-width:1.5;" width="86" x="352.75" y="608.2002"/><text fill="#FFFFFF" font-family="Roboto" font-size="13" lengthAdjust="spacing" textLength="62" x="364.75" y="633.2002">csv-csvxml</text><rect fill="#08427B" height="39.6" style="stroke:#FFFFFF;stroke-width:1.5;" width="100" x="345.75" y="667.8002"/><text fill="#FFFFFF" font-family="Roboto" font-size="13" lengthAdjust="spacing" textLength="76" x="357.75" y="692.8002">tmp/*.csv.xml</text><rect fill="#1168BD" height="39.6" rx="12.5" ry="12.5" style="stroke:#FFFFFF;stroke-width:1.5;" width="88" x="351.75" y="739.4002"/><text fill="#FFFFFF" font-family="Roboto" font-size="13" lengthAdjust="spacing" textLength="64" x="363.75" y="764.4002">create map</text><rect fill="#08427B" height="39.6" style="stroke:#FFFFFF;stroke-width:1.5;" width="131" x="330.25" y="799.0002"/><text fill="#FFFFFF" font-family="Roboto" font-size="13" lengthAdjust="spacing" textLength="107" x="342.25" y="824.0002">output/csvmap-csv</text><path d="M195.75,875.6002 L195.75,905.2002 A0,0 0 0 0 195.75,905.2002 L305.75,905.2002 A0,0 0 0 0 305.75,905.2002 L305.75,894.4002 L325.75,890.4002 L305.75,886.4002 L305.75,885.6002 L295.75,875.6002 L195.75,875.6002 A0,0 0 0 0 195.75,875.6002 " fill="#999999" style="stroke:#FFFFFF;stroke-width:1.0;"/><path d="M295.75,875.6002 L295.75,885.6002 L305.75,885.6002 L295.75,875.6002 " fill="#999999" style="stroke:#FFFFFF;stroke-width:1.0;"/><text fill="#FFFFFF" font-family="Roboto" font-size="13" lengthAdjust="spacing" textLength="85" x="203.75" y="895.6002">extension point</text><rect fill="#1168BD" height="39.6" rx="12.5" ry="12.5" style="stroke:#FFFFFF;stroke-width:1.5;" width="140" x="325.75" y="870.6002"/><text fill="#FFFFFF" font-family="Roboto" font-size="13" lengthAdjust="spacing" textLength="116" x="337.75" y="895.6002">generate-iati-partials</text><rect fill="#E18114" height="6" rx="2.5" ry="2.5" style="stroke:#E18114;stroke-width:1.0;" width="763.25" x="11" y="930.2002"/><rect fill="#FFFCFF" height="320.4001" style="stroke:#A0439C;stroke-width:2.0;" width="346.5" x="23" y="948.4002"/><path d="M95,948.4002 L95,961.0002 L85,971.0002 L23,971.0002 " fill="none" style="stroke:#A0439C;stroke-width:2.0;"/><text fill="#A0439C" font-family="Roboto" font-size="13" lengthAdjust="spacing" textLength="58" x="28" y="964.4002">sheets-iati</text><path d="M33,988.0002 L33,1033.2003 A0,0 0 0 0 33,1033.2003 L215,1033.2003 A0,0 0 0 0 215,1033.2003 L215,1014.6003 L235,1010.6003 L215,1006.6003 L215,998.0002 L205,988.0002 L33,988.0002 A0,0 0 0 0 33,988.0002 " fill="#999999" style="stroke:#FFFFFF;stroke-width:1.0;"/><path d="M205,988.0002 L205,998.0002 L215,998.0002 L205,988.0002 " fill="#999999" style="stroke:#FFFFFF;stroke-width:1.0;"/><text fill="#FFFFFF" font-family="Roboto" font-size="13" lengthAdjust="spacing" textLength="112" x="63.5" y="1008.0003">already done in step</text><text fill="#FFFFFF" font-family="monospace" font-size="13" lengthAdjust="spacing" textLength="120" x="41" y="1023.6003">spreadsheet-map</text><text fill="#FFFFFF" font-family="Roboto" font-size="13" lengthAdjust="spacing" textLength="34" x="164" y="1023.6003">above</text><rect fill="#1168BD" height="39.6" rx="12.5" ry="12.5" style="stroke:#FFFFFF;stroke-width:1.5;" width="104" x="235" y="990.8002"/><text fill="#FFFFFF" font-family="Roboto" font-size="13" lengthAdjust="spacing" textLength="80" x="247" y="1015.8003">sheets-csvxml</text><rect fill="#08427B" height="39.6" style="stroke:#FFFFFF;stroke-width:1.5;" width="100" x="237" y="1068.2003"/><text fill="#FFFFFF" font-family="Roboto" font-size="13" lengthAdjust="spacing" textLength="76" x="249" y="1093.2003">tmp/*.csv.xml</text><path d="M40.5,1135.6003 L40.5,1180.8003 A0,0 0 0 0 40.5,1180.8003 L194.5,1180.8003 A0,0 0 0 0 194.5,1180.8003 L194.5,1162.2003 L214.5,1158.2003 L194.5,1154.2003 L194.5,1145.6003 L184.5,1135.6003 L40.5,1135.6003 A0,0 0 0 0 40.5,1135.6003 " fill="#999999" style="stroke:#FFFFFF;stroke-width:1.0;"/><path d="M184.5,1135.6003 L184.5,1145.6003 L194.5,1145.6003 L184.5,1135.6003 " fill="#999999" style="stroke:#FFFFFF;stroke-width:1.0;"/><text fill="#FFFFFF" font-family="Roboto" font-size="13" lengthAdjust="spacing" textLength="129" x="48.5" y="1155.6003">Can include or override</text><text fill="#FFFFFF" font-family="Roboto" font-size="13" lengthAdjust="spacing" textLength="98" x="64" y="1171.2003">default templates</text><rect fill="#D32F2F" height="39.6" style="stroke:#FFFFFF;stroke-width:1.5;" width="145" x="214.5" y="1138.4003"/><text fill="#FFFFFF" font-family="Roboto" font-size="13" lengthAdjust="spacing" textLength="121" x="226.5" y="1163.4003">config/csvxml-iati.xslt</text><rect fill="#1168BD" height="39.6" rx="12.5" ry="12.5" style="stroke:#FFFFFF;stroke-width:1.5;" width="82" x="246" y="1215.0003"/><text fill="#FFFFFF" font-family="Roboto" font-size="13" lengthAdjust="spacing" textLength="58" x="258" y="1240.0003">sheets-iati</text><rect fill="#FFFCFF" height="166.4001" style="stroke:#A0439C;stroke-width:2.0;" width="124" x="397.5" y="1028.6003"/><path d="M469.5,1028.6003 L469.5,1041.2003 L459.5,1051.2003 L397.5,1051.2003 " fill="none" style="stroke:#A0439C;stroke-width:2.0;"/><text fill="#A0439C" font-family="Roboto" font-size="13" lengthAdjust="spacing" textLength="58" x="402.5" y="1044.6003">iatixml-iati</text><rect fill="#08427B" height="39.6" style="stroke:#FFFFFF;stroke-width:1.5;" width="104" x="407.5" y="1068.2003"/><text fill="#FFFFFF" font-family="Roboto" font-size="13" lengthAdjust="spacing" textLength="80" x="419.5" y="1093.2003">input/*.iati.xml</text><rect fill="#1168BD" height="39.6" rx="12.5" ry="12.5" style="stroke:#FFFFFF;stroke-width:1.5;" width="82" x="418.5" y="1135.6003"/><text fill="#FFFFFF" font-family="Roboto" font-size="13" lengthAdjust="spacing" textLength="58" x="430.5" y="1160.6003">iatixml-iati</text><rect fill="#FFFCFF" height="324.8001" style="stroke:#A0439C;stroke-width:2.0;" width="219" x="543.25" y="946.2002"/><path d="M584.25,946.2002 L584.25,958.8002 L574.25,968.8002 L543.25,968.8002 " fill="none" style="stroke:#A0439C;stroke-width:2.0;"/><text fill="#A0439C" font-family="Roboto" font-size="13" lengthAdjust="spacing" textLength="27" x="548.25" y="962.2002">akvo</text><rect fill="#D32F2F" height="55.2" rx="12.5" ry="12.5" style="stroke:#FFFFFF;stroke-width:1.5;" width="199" x="553.25" y="985.8002"/><text fill="#FFFFFF" font-family="Roboto" font-size="13" lengthAdjust="spacing" textLength="132" x="586.75" y="1010.8003">:Optional Akvo target in</text><text fill="#FFFFFF" font-family="Roboto" font-size="13" lengthAdjust="spacing" textLength="175" x="565.25" y="1026.4003">config/build.iati-workbench.xml</text><rect fill="#08427B" height="39.6" style="stroke:#FFFFFF;stroke-width:1.5;" width="114" x="595.75" y="1076.0003"/><text fill="#FFFFFF" font-family="Roboto" font-size="13" lengthAdjust="spacing" textLength="90" x="607.75" y="1101.0003">input/*.akvo.xml</text><rect fill="#D32F2F" height="39.6" style="stroke:#FFFFFF;stroke-width:1.5;" width="132" x="586.75" y="1143.4003"/><text fill="#FFFFFF" font-family="Roboto" font-size="13" lengthAdjust="spacing" textLength="108" x="598.75" y="1168.4003">config/akvo-s2i.xslt</text><rect fill="#1168BD" height="39.6" rx="12.5" ry="12.5" style="stroke:#FFFFFF;stroke-width:1.5;" width="71" x="617.25" y="1217.2003"/><text fill="#FFFFFF" font-family="Roboto" font-size="13" lengthAdjust="spacing" textLength="47" x="629.25" y="1242.2003">akvo-s2i</text><rect fill="#E18114" height="6" rx="2.5" ry="2.5" style="stroke:#E18114;stroke-width:1.0;" width="763.25" x="11" y="1291.0003"/><rect fill="#08427B" height="39.6" style="stroke:#FFFFFF;stroke-width:1.5;" width="138" x="326.75" y="1317.0003"/><text fill="#FFFFFF" font-family="Roboto" font-size="13" lengthAdjust="spacing" textLength="114" x="338.75" y="1342.0003">tmp/*.generated.xml</text><rect fill="#1168BD" height="39.6" rx="12.5" ry="12.5" style="stroke:#FFFFFF;stroke-width:1.5;" width="81" x="355.25" y="1376.6003"/><text fill="#FFFFFF" font-family="Roboto" font-size="13" lengthAdjust="spacing" textLength="57" x="367.25" y="1401.6003">merge-iati</text><rect fill="#08427B" height="39.6" style="stroke:#FFFFFF;stroke-width:1.5;" width="223" x="284.25" y="1436.2003"/><text fill="#FFFFFF" font-family="Roboto" font-size="13" lengthAdjust="spacing" textLength="199" x="296.25" y="1461.2003">src/iati-{activities, organisation}.xml</text><path d="M125.75,1485.8004 L125.75,1562.2004 A0,0 0 0 0 125.75,1562.2004 L319.75,1562.2004 A0,0 0 0 0 319.75,1562.2004 L319.75,1528.0004 L339.75,1524.0004 L319.75,1520.0004 L319.75,1495.8004 L309.75,1485.8004 L125.75,1485.8004 A0,0 0 0 0 125.75,1485.8004 " fill="#D32F2F" style="stroke:#FFFFFF;stroke-width:1.0;"/><path d="M309.75,1485.8004 L309.75,1495.8004 L319.75,1495.8004 L309.75,1485.8004 " fill="#D32F2F" style="stroke:#FFFFFF;stroke-width:1.0;"/><text fill="#FFFFFF" font-family="Roboto" font-size="13" lengthAdjust="spacing" textLength="133" x="151.75" y="1505.8004">TODO: check if needed</text><text fill="#FFFFFF" font-family="Roboto" font-size="13" lengthAdjust="spacing" textLength="124" x="156.25" y="1521.4004">Fix known data errors,</text><text fill="#FFFFFF" font-family="Roboto" font-size="13" lengthAdjust="spacing" textLength="107" x="164.75" y="1537.0004">anonymisation, etc</text><text fill="#FFFFFF" font-family="Roboto" font-size="13" lengthAdjust="spacing" textLength="94" x="133.75" y="1552.6004">override via local</text><text fill="#FFFFFF" font-family="monospace" font-size="13" lengthAdjust="spacing" textLength="72" x="230.75" y="1552.6004">build.xml</text><rect fill="#1168BD" height="39.6" rx="12.5" ry="12.5" style="stroke:#FFFFFF;stroke-width:1.5;" width="112" x="339.75" y="1504.2004"/><text fill="#FFFFFF" font-family="Roboto" font-size="13" lengthAdjust="spacing" textLength="88" x="351.75" y="1529.2004">postprocess iati</text><ellipse cx="395.75" cy="1593.2004" fill="#FFFFFF" rx="11" ry="11" style="stroke:#08427B;stroke-width:1.0;"/><ellipse cx="395.75" cy="1593.2004" fill="#08427B" rx="6" ry="6" style="stroke:#83A0BD;stroke-width:1.0;"/><line style="stroke:#E91E63;stroke-width:1.5;" x1="395.75" x2="395.75" y1="30" y2="50"/><polygon fill="#E91E63" points="391.75,40,395.75,50,399.75,40,395.75,44" style="stroke:#E91E63;stroke-width:1.0;"/><line style="stroke:#E91E63;stroke-width:1.5;" x1="395.75" x2="395.75" y1="89.6" y2="109.6"/><polygon fill="#E91E63" points="391.75,99.6,395.75,109.6,399.75,99.6,395.75,103.6" style="stroke:#E91E63;stroke-width:1.0;"/><line style="stroke:#E91E63;stroke-width:1.5;" x1="395.75" x2="395.75" y1="149.2" y2="177.6"/><polygon fill="#E91E63" points="391.75,167.6,395.75,177.6,399.75,167.6,395.75,171.6" style="stroke:#E91E63;stroke-width:1.0;"/><line style="stroke:#E91E63;stroke-width:1.5;" x1="395.75" x2="395.75" y1="217.2001" y2="255.6001"/><polygon fill="#E91E63" points="391.75,245.6001,395.75,255.6001,399.75,245.6001,395.75,249.6001" style="stroke:#E91E63;stroke-width:1.0;"/><line style="stroke:#E91E63;stroke-width:1.5;" x1="340.25" x2="340.25" y1="443.0001" y2="463.0001"/><polygon fill="#E91E63" points="336.25,453.0001,340.25,463.0001,344.25,453.0001,340.25,457.0001" style="stroke:#E91E63;stroke-width:1.0;"/><line style="stroke:#E91E63;stroke-width:1.5;" x1="340.25" x2="340.25" y1="502.6002" y2="522.6002"/><polygon fill="#E91E63" points="336.25,512.6002,340.25,522.6002,344.25,512.6002,340.25,516.6002" style="stroke:#E91E63;stroke-width:1.0;"/><line style="stroke:#E91E63;stroke-width:1.5;" x1="457.75" x2="457.75" y1="443.0001" y2="463.0001"/><polygon fill="#E91E63" points="453.75,453.0001,457.75,463.0001,461.75,453.0001,457.75,457.0001" style="stroke:#E91E63;stroke-width:1.0;"/><line style="stroke:#E91E63;stroke-width:1.5;" x1="457.75" x2="457.75" y1="502.6002" y2="522.6002"/><polygon fill="#E91E63" points="453.75,512.6002,457.75,522.6002,461.75,512.6002,457.75,516.6002" style="stroke:#E91E63;stroke-width:1.0;"/><line style="stroke:#E91E63;stroke-width:1.5;" x1="340.25" x2="340.25" y1="383.4001" y2="403.4001"/><polygon fill="#E91E63" points="336.25,393.4001,340.25,403.4001,344.25,393.4001,340.25,397.4001" style="stroke:#E91E63;stroke-width:1.0;"/><line style="stroke:#E91E63;stroke-width:1.5;" x1="457.75" x2="457.75" y1="383.4001" y2="403.4001"/><polygon fill="#E91E63" points="453.75,393.4001,457.75,403.4001,461.75,393.4001,457.75,397.4001" style="stroke:#E91E63;stroke-width:1.0;"/><line style="stroke:#E91E63;stroke-width:1.5;" x1="340.25" x2="340.25" y1="562.2002" y2="582.2002"/><polygon fill="#E91E63" points="336.25,572.2002,340.25,582.2002,344.25,572.2002,340.25,576.2002" style="stroke:#E91E63;stroke-width:1.0;"/><line style="stroke:#E91E63;stroke-width:1.5;" x1="457.75" x2="457.75" y1="562.2002" y2="582.2002"/><polygon fill="#E91E63" points="453.75,572.2002,457.75,582.2002,461.75,572.2002,457.75,576.2002" style="stroke:#E91E63;stroke-width:1.0;"/><line style="stroke:#E91E63;stroke-width:1.5;" x1="395.75" x2="395.75" y1="588.2002" y2="608.2002"/><polygon fill="#E91E63" points="391.75,598.2002,395.75,608.2002,399.75,598.2002,395.75,602.2002" style="stroke:#E91E63;stroke-width:1.0;"/><line style="stroke:#E91E63;stroke-width:1.5;" x1="395.75" x2="395.75" y1="647.8002" y2="667.8002"/><polygon fill="#E91E63" points="391.75,657.8002,395.75,667.8002,399.75,657.8002,395.75,661.8002" style="stroke:#E91E63;stroke-width:1.0;"/><line style="stroke:#E91E63;stroke-width:1.5;" x1="395.75" x2="395.75" y1="707.4002" y2="739.4002"/><polygon fill="#E91E63" points="391.75,729.4002,395.75,739.4002,399.75,729.4002,395.75,733.4002" style="stroke:#E91E63;stroke-width:1.0;"/><line style="stroke:#E91E63;stroke-width:1.5;" x1="395.75" x2="395.75" y1="779.0002" y2="799.0002"/><polygon fill="#E91E63" points="391.75,789.0002,395.75,799.0002,399.75,789.0002,395.75,793.0002" style="stroke:#E91E63;stroke-width:1.0;"/><line style="stroke:#E91E63;stroke-width:1.5;" x1="395.75" x2="395.75" y1="295.2001" y2="377.4001"/><polygon fill="#E91E63" points="391.75,367.4001,395.75,377.4001,399.75,367.4001,395.75,371.4001" style="stroke:#E91E63;stroke-width:1.0;"/><line style="stroke:#E91E63;stroke-width:1.5;" x1="395.75" x2="395.75" y1="838.6002" y2="870.6002"/><polygon fill="#E91E63" points="391.75,860.6002,395.75,870.6002,399.75,860.6002,395.75,864.6002" style="stroke:#E91E63;stroke-width:1.0;"/><line style="stroke:#E91E63;stroke-width:1.5;" x1="287" x2="287" y1="1030.4003" y2="1068.2003"/><polygon fill="#E91E63" points="283,1058.2003,287,1068.2003,291,1058.2003,287,1062.2003" style="stroke:#E91E63;stroke-width:1.0;"/><line style="stroke:#E91E63;stroke-width:1.5;" x1="287" x2="287" y1="1107.8003" y2="1138.4003"/><polygon fill="#E91E63" points="283,1128.4003,287,1138.4003,291,1128.4003,287,1132.4003" style="stroke:#E91E63;stroke-width:1.0;"/><line style="stroke:#E91E63;stroke-width:1.5;" x1="287" x2="287" y1="1178.0003" y2="1215.0003"/><polygon fill="#E91E63" points="283,1205.0003,287,1215.0003,291,1205.0003,287,1209.0003" style="stroke:#E91E63;stroke-width:1.0;"/><line style="stroke:#E91E63;stroke-width:1.5;" x1="459.5" x2="459.5" y1="1107.8003" y2="1135.6003"/><polygon fill="#E91E63" points="455.5,1125.6003,459.5,1135.6003,463.5,1125.6003,459.5,1129.6003" style="stroke:#E91E63;stroke-width:1.0;"/><line style="stroke:#E91E63;stroke-width:1.5;" x1="652.75" x2="652.75" y1="1041.0003" y2="1076.0003"/><polygon fill="#E91E63" points="648.75,1066.0003,652.75,1076.0003,656.75,1066.0003,652.75,1070.0003" style="stroke:#E91E63;stroke-width:1.0;"/><line style="stroke:#E91E63;stroke-width:1.5;" x1="652.75" x2="652.75" y1="1115.6003" y2="1143.4003"/><polygon fill="#E91E63" points="648.75,1133.4003,652.75,1143.4003,656.75,1133.4003,652.75,1137.4003" style="stroke:#E91E63;stroke-width:1.0;"/><line style="stroke:#E91E63;stroke-width:1.5;" x1="652.75" x2="652.75" y1="1183.0003" y2="1217.2003"/><polygon fill="#E91E63" points="648.75,1207.2003,652.75,1217.2003,656.75,1207.2003,652.75,1211.2003" style="stroke:#E91E63;stroke-width:1.0;"/><line style="stroke:#E91E63;stroke-width:1.5;" x1="287" x2="287" y1="936.2002" y2="990.8002"/><polygon fill="#E91E63" points="283,980.8002,287,990.8002,291,980.8002,287,984.8002" style="stroke:#E91E63;stroke-width:1.0;"/><line style="stroke:#E91E63;stroke-width:1.5;" x1="459.5" x2="459.5" y1="936.2002" y2="1068.2003"/><polygon fill="#E91E63" points="455.5,1058.2003,459.5,1068.2003,463.5,1058.2003,459.5,1062.2003" style="stroke:#E91E63;stroke-width:1.0;"/><line style="stroke:#E91E63;stroke-width:1.5;" x1="652.75" x2="652.75" y1="936.2002" y2="985.8002"/><polygon fill="#E91E63" points="648.75,975.8002,652.75,985.8002,656.75,975.8002,652.75,979.8002" style="stroke:#E91E63;stroke-width:1.0;"/><line style="stroke:#E91E63;stroke-width:1.5;" x1="287" x2="287" y1="1254.6003" y2="1291.0003"/><polygon fill="#E91E63" points="283,1281.0003,287,1291.0003,291,1281.0003,287,1285.0003" style="stroke:#E91E63;stroke-width:1.0;"/><line style="stroke:#E91E63;stroke-width:1.5;" x1="459.5" x2="459.5" y1="1175.2003" y2="1291.0003"/><polygon fill="#E91E63" points="455.5,1281.0003,459.5,1291.0003,463.5,1281.0003,459.5,1285.0003" style="stroke:#E91E63;stroke-width:1.0;"/><line style="stroke:#E91E63;stroke-width:1.5;" x1="652.75" x2="652.75" y1="1256.8003" y2="1291.0003"/><polygon fill="#E91E63" points="648.75,1281.0003,652.75,1291.0003,656.75,1281.0003,652.75,1285.0003" style="stroke:#E91E63;stroke-width:1.0;"/><line style="stroke:#E91E63;stroke-width:1.5;" x1="395.75" x2="395.75" y1="910.2002" y2="930.2002"/><polygon fill="#E91E63" points="391.75,920.2002,395.75,930.2002,399.75,920.2002,395.75,924.2002" style="stroke:#E91E63;stroke-width:1.0;"/><line style="stroke:#E91E63;stroke-width:1.5;" x1="395.75" x2="395.75" y1="1297.0003" y2="1317.0003"/><polygon fill="#E91E63" points="391.75,1307.0003,395.75,1317.0003,399.75,1307.0003,395.75,1311.0003" style="stroke:#E91E63;stroke-width:1.0;"/><line style="stroke:#E91E63;stroke-width:1.5;" x1="395.75" x2="395.75" y1="1356.6003" y2="1376.6003"/><polygon fill="#E91E63" points="391.75,1366.6003,395.75,1376.6003,399.75,1366.6003,395.75,1370.6003" style="stroke:#E91E63;stroke-width:1.0;"/><line style="stroke:#E91E63;stroke-width:1.5;" x1="395.75" x2="395.75" y1="1416.2003" y2="1436.2003"/><polygon fill="#E91E63" points="391.75,1426.2003,395.75,1436.2003,399.75,1426.2003,395.75,1430.2003" style="stroke:#E91E63;stroke-width:1.0;"/><line style="stroke:#E91E63;stroke-width:1.5;" x1="395.75" x2="395.75" y1="1475.8004" y2="1504.2004"/><polygon fill="#E91E63" points="391.75,1494.2004,395.75,1504.2004,399.75,1494.2004,395.75,1498.2004" style="stroke:#E91E63;stroke-width:1.0;"/><line style="stroke:#E91E63;stroke-width:1.5;" x1="395.75" x2="395.75" y1="1543.8004" y2="1582.2004"/><polygon fill="#E91E63" points="391.75,1572.2004,395.75,1582.2004,399.75,1572.2004,395.75,1576.2004" style="stroke:#E91E63;stroke-width:1.0;"/><!--MD5=[ab8dcbd96829866529c8114c0b04f1ac]
@startuml
' Styling settings for PlantUML diagrams
' See http://plantuml.sourceforge.net for documentation
' To get a list of possible skinparam settings, run: plantuml -language

' COLORS
' ========================================

' general colors from own stylesheet
!$diagram_background_color = "#fff"
!$diagram_border_color = "#fff"
!$diagram_color = "#808080"
!$arrow_color = "#e91e63"
!$link_color = "#3498DB"

' make admonition colors available for elements
!$caution_color = "#a0439c"
!$caution_on_color = "#fff"
!$important_color = "#d32f2f"
!$important_on_color = "#fff"
!$note_color = "#217ee7"
!$note_on_color = "#fff"
!$tip_color = "#41af46"
!$tip_on_color = "#fff"
!$warning_color = "#e18114"
!$warning_on_color = "#fff"

' use admonition colors for elements
!$logic_main_color = $warning_color

!procedure $logic_style($var=1)
  $styling($var, $logic_main_color, $logic_main_color, $warning_on_color) 
!endprocedure

!procedure $group_style($var=4)
  $styling($var, $caution_color, $caution_color, $caution_on_color, "#FFFCFF") 
!endprocedure

!procedure $divider_style($var=1)
  $styling($var, $tip_color, $tip_color, $tip_on_color) 
!endprocedure

' node_1, node_2 and note taken from C4 styling
!$node_1_main_color = "#08427b"
!$node_2_main_color = "#1168bd"
!$node_2_aux2_color = "#3498DB"

!procedure $node_1_style($var=1)
  $styling($var, "#08427b", "#fff", "fff") 
!endprocedure

!procedure $node_2_style($var=1)
  $styling($var, "#1168bd", "#fff", "fff", "#3498DB") 
!endprocedure

!procedure $note_1_style($var=1)
  $styling($var, "#999", "#fff", "fff") 
!endprocedure

' STYLE HELPERS
' ========================================

' get variation with color palette:
' $main: primary fill color, typically background
' $aux1, $aux2: add'l fill colors, typically border, alternative background
' $on1, $on2: text colors, typically main text, supplementary
' variations:
' 1) regular (default)
' 2) name reversed (label outside)
' 3) reverse background
' 4) light background
' 5) border box (loop, alt)
' 6) ...

!procedure $styling($var=1, $main, $aux1, $on1, $aux2="#ccc", $on2="#666")
  !if ($var=="2")
    BackgroundColor $main
    BorderColor $aux1
    FontColor $main
    StereotypeFontColor $main
  !elseif ($var=="3")
    BackgroundColor $aux1
    BorderColor $main
    FontColor $main
    StereotypeFontColor $main
  !elseif ($var==4)
    BackgroundColor $aux2
    BorderColor $aux1
    FontColor $main
  !elseif ($var=="5")
    BackgroundColor $main
    BorderColor $aux1
    FontColor $main
    HeaderFontColor $on1
  !elseif ($var=="6")
    BackgroundColor $on1
    BorderColor $aux1
    FontColor $main
    HeaderFontColor $on1
    HeaderBackgroundColor $aux1
  !elseif ($var==7)
    BackgroundColor $aux2
    BorderColor $main
    FontColor $main
  !else
    BackgroundColor $main
    BorderColor $aux1
    FontColor $on1
    StereotypeFontColor $on1
    HeaderBackgroundColor $on1
  !endif
  FontSize 13
!endprocedure

' GENERAL SETTINGS
' ========================================

!$body_font_family = "Roboto"
' each element can get its own FontName, FontSize, FontStyle; not added now

skinparam BackgroundColor $diagram_background_color
skinparam DiagramBorderColor $diagram_border_color
skinparam HyperlinkColor $link_color

'skinparam monochrome true
skinparam shadowing false
skinparam Handwritten false
skinparam Padding 2
'skinparam Roundcorner 5

' Setting a minimum width can make sequence diagram participants look more balanced
skinparam minClassWidth 100

skinparam Default {
  FontColor $doc_font_color
  FontName $body_font_family
  FontStyle normal
  TextAlignment center
}

skinparam Arrow {
  Color $arrow_color
  FontColor $arrow_color
}

skinparam Note {
  $note_1_style()
}

' USE CASE
' ========================================

skinparam Actor {
  $node_1_style(2)
  ' Make actors look like in C4
  Style awesome
}

skinparam Usecase {
  $node_2_style()
}

skinparam Package {
  $group_style()
}

' ACTIVITY
' ========================================

skinparam Activity {
  $node_2_style()

  StartColor $node_1_main_color
  EndColor $node_1_main_color
  BarColor $logic_main_color
}

skinparam ActivityDiamond {
  $logic_style()
}

skinparam Partition {
  $group_style()
}

skinparam Swimlane {
  $divider_style()
}

skinparam SwimlaneTitle {
  $divider_style(6)
}

' SEQUENCE
' ========================================

'Actor: see Use Case diagram above

skinparam Participant {
  $node_1_style()
'  Padding 40
}

skinparam Boundary {
  $node_1_style(3)
}

skinparam Control {
  $node_1_style(3)
}

skinparam Entity {
  $node_1_style(3)
}

skinparam Database {
  $node_1_style(2)
}

skinparam Collections {
  $node_1_style()
}

skinparam Queue {
  $node_1_style()
}

skinparam SequenceLifeline {
  $node_2_style(7)
}

skinparam SequenceDelay {
  $divider_style(2)
}

skinparam SequenceDivider {
  $divider_style()
}

skinparam SequenceGroup {
  $logic_style(5)
}

skinparam SequenceReference {
  $group_style(6)
  BorderThickness 1
}

skinparam SequenceBox {
  $group_style(4)
'  Padding 13
}

' ========================================
' ========================================


' DEPLOYMENT
' ========================================

' Actor: see Use case diagram
' Use case: see Use case diagram
' Package: see Use case diagram (fix?)
' Boundary: see Sequence diagram
' Control: see Sequence diagram
' Entity: see Sequence diagram
' Queue: see Sequence diagram

' Database: see Sequence diagram (fix?)
' Collections: see Sequence diagram (fix?)

skinparam Agent {
  $node_2_style()
}

skinparam Person {
  $node_1_style()
}

skinparam Artifact {
  $node_2_style()
}

skinparam Component {
  $node_2_style()
}

skinparam File {
  $node_2_style()
}

skinparam Card {
  $node_2_style()
}

skinparam Storage {
  $node_2_style()
}

skinparam Cloud {
  $group_style(4)
}

skinparam Frame {
  $group_style()
}

skinparam Node {
  $group_style()
}

' check lighter background
skinparam Stack {
  $node_2_style()
}

' artefact or group?
skinparam Folder {
  $group_style()
}

skinparam Hexagon {
  $logic_style()
}

skinparam Interface {
  $logic_style(3)
}

skinparam Object {
  $node_2_style()
'  AttributeFontColor $arrow_color
'  EndColor $arrow_color
'  StartColor $arrow_color
}

skinparam Rectangle {
  $logic_style()
}

' Used in C4 models:
skinparam Rectangle<<boundary>> {
  $logic_style(6)
}

skinparam State {
  $node_2_style()
'  AttributeFontColor $arrow_color
'  EndColor $arrow_color
'  StartColor $arrow_color
}
start
$important_color:config/iati-workbench.properties]

$node_1_main_color:inputs/*.*]
:postprocess inputs;
note $important_color
  TODO: check if needed
  Rename files, remove
  empty files, etc.
  override via local ""build.xml""
end note
$node_1_main_color:updates inputs/*]

partition spreadsheet-map {
  partition sheets-csvxml {
    fork
      $node_1_main_color:input/*.xsl{x} ]
      :excel-csv;
      $node_1_main_color:tmp/*.csv]
    fork again
      $node_1_main_color:input/*.csv]
      :csv-csv;
      $node_1_main_color:tmp/*.csv]
    end fork

    :csv-csvxml;
    note: using basex
    $node_1_main_color:tmp/*.csv.xml]
  }

  :create map;
  $node_1_main_color:output/csvmap-csv]

}

:generate-iati-partials;
note: extension point
fork
  partition sheets-iati {
    :sheets-csvxml;
    note
      already done in step
      ""spreadsheet-map"" above
    end note
    $node_1_main_color:tmp/*.csv.xml]

    $important_color:config/csvxml-iati.xslt]
    note
      Can include or override
      default templates
    end note
    :sheets-iati;
  }
fork again
  partition iatixml-iati {
    $node_1_main_color:input/*.iati.xml]
    :iatixml-iati;
  }
fork again
  partition akvo {
    $important_color::Optional Akvo target in
    config/build.iati-workbench.xml;
    $node_1_main_color:input/*.akvo.xml]
    $important_color:config/akvo-s2i.xslt]
    :akvo-s2i;
  }
end fork

$node_1_main_color:tmp/*.generated.xml]

:merge-iati;
$node_1_main_color:src/iati-{activities, organisation}.xml]

:postprocess iati;
note $important_color
  TODO: check if needed
  Fix known data errors,
  anonymisation, etc
  override via local ""build.xml""
end note

stop
@enduml

@startuml

















skinparam BackgroundColor #fff
skinparam DiagramBorderColor #fff
skinparam HyperlinkColor #3498DB

skinparam shadowing false
skinparam Handwritten false
skinparam Padding 2

skinparam minClassWidth 100

skinparam Default {
  FontColor $doc_font_color
  FontName Roboto
  FontStyle normal
  TextAlignment center
}

skinparam Arrow {
  Color #e91e63
  FontColor #e91e63
}

skinparam Note {
      BackgroundColor #999
    BorderColor #fff
    FontColor fff
    StereotypeFontColor fff
    HeaderBackgroundColor fff
  FontSize 13 
}


skinparam Actor {
      BackgroundColor #08427b
    BorderColor #fff
    FontColor #08427b
    StereotypeFontColor #08427b
  FontSize 13 
  Style awesome
}

skinparam Usecase {
      BackgroundColor #1168bd
    BorderColor #fff
    FontColor fff
    StereotypeFontColor fff
    HeaderBackgroundColor fff
  FontSize 13 
}

skinparam Package {
      BackgroundColor #FFFCFF
    BorderColor #a0439c
    FontColor #a0439c
  FontSize 13 
}


skinparam Activity {
      BackgroundColor #1168bd
    BorderColor #fff
    FontColor fff
    StereotypeFontColor fff
    HeaderBackgroundColor fff
  FontSize 13 

  StartColor #08427b
  EndColor #08427b
  BarColor #e18114
}

skinparam ActivityDiamond {
      BackgroundColor #e18114
    BorderColor #e18114
    FontColor #fff
    StereotypeFontColor #fff
    HeaderBackgroundColor #fff
  FontSize 13 
}

skinparam Partition {
      BackgroundColor #FFFCFF
    BorderColor #a0439c
    FontColor #a0439c
  FontSize 13 
}

skinparam Swimlane {
      BackgroundColor #41af46
    BorderColor #41af46
    FontColor #fff
    StereotypeFontColor #fff
    HeaderBackgroundColor #fff
  FontSize 13 
}

skinparam SwimlaneTitle {
      BackgroundColor #fff
    BorderColor #41af46
    FontColor #41af46
    HeaderFontColor #fff
    HeaderBackgroundColor #41af46
  FontSize 13 
}



skinparam Participant {
      BackgroundColor #08427b
    BorderColor #fff
    FontColor fff
    StereotypeFontColor fff
    HeaderBackgroundColor fff
  FontSize 13 
}

skinparam Boundary {
      BackgroundColor #fff
    BorderColor #08427b
    FontColor #08427b
    StereotypeFontColor #08427b
  FontSize 13 
}

skinparam Control {
      BackgroundColor #fff
    BorderColor #08427b
    FontColor #08427b
    StereotypeFontColor #08427b
  FontSize 13 
}

skinparam Entity {
      BackgroundColor #fff
    BorderColor #08427b
    FontColor #08427b
    StereotypeFontColor #08427b
  FontSize 13 
}

skinparam Database {
      BackgroundColor #08427b
    BorderColor #fff
    FontColor #08427b
    StereotypeFontColor #08427b
  FontSize 13 
}

skinparam Collections {
      BackgroundColor #08427b
    BorderColor #fff
    FontColor fff
    StereotypeFontColor fff
    HeaderBackgroundColor fff
  FontSize 13 
}

skinparam Queue {
      BackgroundColor #08427b
    BorderColor #fff
    FontColor fff
    StereotypeFontColor fff
    HeaderBackgroundColor fff
  FontSize 13 
}

skinparam SequenceLifeline {
      BackgroundColor #3498DB
    BorderColor #1168bd
    FontColor #1168bd
  FontSize 13 
}

skinparam SequenceDelay {
      BackgroundColor #41af46
    BorderColor #41af46
    FontColor #41af46
    StereotypeFontColor #41af46
  FontSize 13 
}

skinparam SequenceDivider {
      BackgroundColor #41af46
    BorderColor #41af46
    FontColor #fff
    StereotypeFontColor #fff
    HeaderBackgroundColor #fff
  FontSize 13 
}

skinparam SequenceGroup {
      BackgroundColor #e18114
    BorderColor #e18114
    FontColor #e18114
    HeaderFontColor #fff
  FontSize 13 
}

skinparam SequenceReference {
      BackgroundColor #fff
    BorderColor #a0439c
    FontColor #a0439c
    HeaderFontColor #fff
    HeaderBackgroundColor #a0439c
  FontSize 13 
  BorderThickness 1
}

skinparam SequenceBox {
      BackgroundColor #FFFCFF
    BorderColor #a0439c
    FontColor #a0439c
  FontSize 13 
}






skinparam Agent {
      BackgroundColor #1168bd
    BorderColor #fff
    FontColor fff
    StereotypeFontColor fff
    HeaderBackgroundColor fff
  FontSize 13 
}

skinparam Person {
      BackgroundColor #08427b
    BorderColor #fff
    FontColor fff
    StereotypeFontColor fff
    HeaderBackgroundColor fff
  FontSize 13 
}

skinparam Artifact {
      BackgroundColor #1168bd
    BorderColor #fff
    FontColor fff
    StereotypeFontColor fff
    HeaderBackgroundColor fff
  FontSize 13 
}

skinparam Component {
      BackgroundColor #1168bd
    BorderColor #fff
    FontColor fff
    StereotypeFontColor fff
    HeaderBackgroundColor fff
  FontSize 13 
}

skinparam File {
      BackgroundColor #1168bd
    BorderColor #fff
    FontColor fff
    StereotypeFontColor fff
    HeaderBackgroundColor fff
  FontSize 13 
}

skinparam Card {
      BackgroundColor #1168bd
    BorderColor #fff
    FontColor fff
    StereotypeFontColor fff
    HeaderBackgroundColor fff
  FontSize 13 
}

skinparam Storage {
      BackgroundColor #1168bd
    BorderColor #fff
    FontColor fff
    StereotypeFontColor fff
    HeaderBackgroundColor fff
  FontSize 13 
}

skinparam Cloud {
      BackgroundColor #FFFCFF
    BorderColor #a0439c
    FontColor #a0439c
  FontSize 13 
}

skinparam Frame {
      BackgroundColor #FFFCFF
    BorderColor #a0439c
    FontColor #a0439c
  FontSize 13 
}

skinparam Node {
      BackgroundColor #FFFCFF
    BorderColor #a0439c
    FontColor #a0439c
  FontSize 13 
}

skinparam Stack {
      BackgroundColor #1168bd
    BorderColor #fff
    FontColor fff
    StereotypeFontColor fff
    HeaderBackgroundColor fff
  FontSize 13 
}

skinparam Folder {
      BackgroundColor #FFFCFF
    BorderColor #a0439c
    FontColor #a0439c
  FontSize 13 
}

skinparam Hexagon {
      BackgroundColor #e18114
    BorderColor #e18114
    FontColor #fff
    StereotypeFontColor #fff
    HeaderBackgroundColor #fff
  FontSize 13 
}

skinparam Interface {
      BackgroundColor #e18114
    BorderColor #e18114
    FontColor #e18114
    StereotypeFontColor #e18114
  FontSize 13 
}

skinparam Object {
      BackgroundColor #1168bd
    BorderColor #fff
    FontColor fff
    StereotypeFontColor fff
    HeaderBackgroundColor fff
  FontSize 13 
}

skinparam Rectangle {
      BackgroundColor #e18114
    BorderColor #e18114
    FontColor #fff
    StereotypeFontColor #fff
    HeaderBackgroundColor #fff
  FontSize 13 
}

skinparam Rectangle<<boundary>> {
      BackgroundColor #fff
    BorderColor #e18114
    FontColor #e18114
    HeaderFontColor #fff
    HeaderBackgroundColor #e18114
  FontSize 13 
}

skinparam State {
      BackgroundColor #1168bd
    BorderColor #fff
    FontColor fff
    StereotypeFontColor fff
    HeaderBackgroundColor fff
  FontSize 13 
}
start
#d32f2f:config/iati-workbench.properties]

#08427b:inputs/*.*]
:postprocess inputs;
note #d32f2f
  TODO: check if needed
  Rename files, remove
  empty files, etc.
  override via local ""build.xml""
end note
#08427b:updates inputs/*]

partition spreadsheet-map {
  partition sheets-csvxml {
    fork
      #08427b:input/*.xsl{x} ]
      :excel-csv;
      #08427b:tmp/*.csv]
    fork again
      #08427b:input/*.csv]
      :csv-csv;
      #08427b:tmp/*.csv]
    end fork

    :csv-csvxml;
    note: using basex
    #08427b:tmp/*.csv.xml]
  }

  :create map;
  #08427b:output/csvmap-csv]

}

:generate-iati-partials;
note: extension point
fork
  partition sheets-iati {
    :sheets-csvxml;
    note
      already done in step
      ""spreadsheet-map"" above
    end note
    #08427b:tmp/*.csv.xml]

    #d32f2f:config/csvxml-iati.xslt]
    note
      Can include or override
      default templates
    end note
    :sheets-iati;
  }
fork again
  partition iatixml-iati {
    #08427b:input/*.iati.xml]
    :iatixml-iati;
  }
fork again
  partition akvo {
    #d32f2f::Optional Akvo target in
    config/build.iati-workbench.xml;
    #08427b:input/*.akvo.xml]
    #d32f2f:config/akvo-s2i.xslt]
    :akvo-s2i;
  }
end fork

#08427b:tmp/*.generated.xml]

:merge-iati;
#08427b:src/iati-{activities, organisation}.xml]

:postprocess iati;
note #d32f2f
  TODO: check if needed
  Fix known data errors,
  anonymisation, etc
  override via local ""build.xml""
end note

stop
@enduml

PlantUML version 1.2021.10(Mon Aug 30 13:43:48 GMT 2021)
(GPL source distribution)
Java Runtime: OpenJDK Runtime Environment
JVM: OpenJDK 64-Bit Server VM
Default Encoding: UTF-8
Language: en
Country: US
--></g></svg>