<?xml version="1.0" encoding="UTF-8" standalone="no"?><svg xmlns="http://www.w3.org/2000/svg" xmlns:xlink="http://www.w3.org/1999/xlink" contentStyleType="text/css" height="228px" preserveAspectRatio="none" style="width:737px;height:228px;background:#FFFFFF;" version="1.1" viewBox="0 0 737 228" width="737px" zoomAndPan="magnify"><defs/><g><rect fill="#1168BD" height="36.2969" rx="12.5" ry="12.5" style="stroke:#1168BD;stroke-width:1.5;" width="64" x="10" y="94.9453"/><text fill="#FFFFFF" font-family="sans-serif" font-size="14" lengthAdjust="spacing" textLength="44" x="20" y="117.9404">Library</text><rect fill="#1168BD" height="36.2969" rx="12.5" ry="12.5" style="stroke:#1168BD;stroke-width:1.5;" width="145" x="124" y="20"/><text fill="#FFFFFF" font-family="sans-serif" font-size="14" lengthAdjust="spacing" textLength="125" x="134" y="42.9951">(other collections)</text><text fill="#1168BD" font-family="sans-serif" font-size="14" lengthAdjust="spacing" textLength="12" x="322" y="42.9951">...</text><path d="M269,38.1484 L279,38.1484 C294,38.1484 294,38.1484 309,38.1484 L319,38.1484 " fill="none" style="stroke:#E91E63;stroke-width:1.0;"/><path d="M74,113.0938 L84,113.0938 C99,113.0938 99,38.1484 114,38.1484 L124,38.1484 " fill="none" style="stroke:#E91E63;stroke-width:1.0;"/><rect fill="#1168BD" height="36.2969" rx="12.5" ry="12.5" style="stroke:#1168BD;stroke-width:1.5;" width="139" x="124" y="123.0938"/><text fill="#FFFFFF" font-family="sans-serif" font-size="14" lengthAdjust="spacing" textLength="119" x="134" y="146.0889">References used</text><rect fill="#1168BD" height="36.2969" rx="12.5" ry="12.5" style="stroke:#1168BD;stroke-width:1.5;" width="156" x="313" y="104.4453"/><text fill="#FFFFFF" font-family="sans-serif" font-size="14" lengthAdjust="spacing" textLength="136" x="323" y="127.4404">Documentation site</text><rect fill="#1168BD" height="36.2969" rx="12.5" ry="12.5" style="stroke:#1168BD;stroke-width:1.5;" width="68" x="519" y="76.2969"/><text fill="#FFFFFF" font-family="sans-serif" font-size="14" lengthAdjust="spacing" textLength="48" x="529" y="99.292">Page 1</text><text fill="#1168BD" font-family="sans-serif" font-size="14" lengthAdjust="spacing" textLength="85" x="640" y="80.9951">Reference 1</text><path d="M587,94.4453 L597,94.4453 C612,94.4453 612,76.1484 627,76.1484 L637,76.1484 " fill="none" style="stroke:#E91E63;stroke-width:1.0;"/><text fill="#1168BD" font-family="sans-serif" font-size="14" lengthAdjust="spacing" textLength="85" x="640" y="99.292">Reference 2</text><path d="M587,94.4453 L597,94.4453 C612,94.4453 612,94.4453 627,94.4453 L637,94.4453 " fill="none" style="stroke:#E91E63;stroke-width:1.0;"/><text fill="#1168BD" font-family="sans-serif" font-size="14" lengthAdjust="spacing" textLength="12" x="640" y="117.5889">...</text><path d="M587,94.4453 L597,94.4453 C612,94.4453 612,112.7422 627,112.7422 L637,112.7422 " fill="none" style="stroke:#E91E63;stroke-width:1.0;"/><path d="M469,122.5938 L479,122.5938 C494,122.5938 494,94.4453 509,94.4453 L519,94.4453 " fill="none" style="stroke:#E91E63;stroke-width:1.0;"/><rect fill="#1168BD" height="36.2969" rx="12.5" ry="12.5" style="stroke:#1168BD;stroke-width:1.5;" width="68" x="519" y="132.5938"/><text fill="#FFFFFF" font-family="sans-serif" font-size="14" lengthAdjust="spacing" textLength="48" x="529" y="155.5889">Page 2</text><text fill="#1168BD" font-family="sans-serif" font-size="14" lengthAdjust="spacing" textLength="12" x="640" y="155.5889">...</text><path d="M587,150.7422 L597,150.7422 C612,150.7422 612,150.7422 627,150.7422 L637,150.7422 " fill="none" style="stroke:#E91E63;stroke-width:1.0;"/><path d="M469,122.5938 L479,122.5938 C494,122.5938 494,150.7422 509,150.7422 L519,150.7422 " fill="none" style="stroke:#E91E63;stroke-width:1.0;"/><path d="M263,141.2422 L273,141.2422 C288,141.2422 288,122.5938 303,122.5938 L313,122.5938 " fill="none" style="stroke:#E91E63;stroke-width:1.0;"/><rect fill="#1168BD" height="36.2969" rx="12.5" ry="12.5" style="stroke:#1168BD;stroke-width:1.5;" width="154" x="313" y="169.8906"/><text fill="#FFFFFF" font-family="sans-serif" font-size="14" lengthAdjust="spacing" textLength="134" x="323" y="192.8857">(other publications)</text><text fill="#1168BD" font-family="sans-serif" font-size="14" lengthAdjust="spacing" textLength="12" x="520" y="192.8857">...</text><path d="M467,188.0391 L477,188.0391 C492,188.0391 492,188.0391 507,188.0391 L517,188.0391 " fill="none" style="stroke:#E91E63;stroke-width:1.0;"/><path d="M263,141.2422 L273,141.2422 C288,141.2422 288,188.0391 303,188.0391 L313,188.0391 " fill="none" style="stroke:#E91E63;stroke-width:1.0;"/><path d="M74,113.0938 L84,113.0938 C99,113.0938 99,141.2422 114,141.2422 L124,141.2422 " fill="none" style="stroke:#E91E63;stroke-width:1.0;"/><!--MD5=[d12de38366001e8ef5a3e492e987d442]
@startmindmap
<style>
mindmapDiagram {
  node {
    BackgroundColor #1168bd
    LineColor #1168bd
    FontColor #fff
    MaximumWidth 150
  }
  boxless {
    FontColor #1168bd
  }
  arrow {
    LineColor #e91e63
  }
}
wbsDiagram {
  node {
    BackgroundColor #1168bd
    LineColor #1168bd
    FontColor #fff
    MaximumWidth 100
  }
  boxless {
    FontColor #1168bd
  }
  arrow {
    LineColor #e91e63
  }
}
</style>
* Library
 * (other collections)
  *_ ...
 * References used
  * Documentation site
   * Page 1
    *_ Reference 1
    *_ Reference 2
    *_ ...
   * Page 2
    *_ ...
  * (other publications)
   *_ ...
@endmindmap

PlantUML version 1.2022.12(Sun Oct 23 18:12:26 GMT 2022)
(GPL source distribution)
Java Runtime: OpenJDK Runtime Environment
JVM: OpenJDK 64-Bit Server VM
Default Encoding: UTF-8
Language: en
Country: US
--></g></svg>