<?xml version="1.0" encoding="UTF-8" standalone="no"?><svg xmlns="http://www.w3.org/2000/svg" xmlns:xlink="http://www.w3.org/1999/xlink" contentScriptType="application/ecmascript" contentStyleType="text/css" height="249px" preserveAspectRatio="none" style="width:687px;height:249px;background:#FFFFFF;" version="1.1" viewBox="0 0 687 249" width="687px" zoomAndPan="magnify"><defs><filter height="300%" id="fq85b8ywvq202" width="300%" x="-1" y="-1"><feGaussianBlur result="blurOut" stdDeviation="2.0"/><feColorMatrix in="blurOut" result="blurOut2" type="matrix" values="0 0 0 0 0 0 0 0 0 0 0 0 0 0 0 0 0 0 .4 0"/><feOffset dx="4.0" dy="4.0" in="blurOut2" result="blurOut3"/><feBlend in="SourceGraphic" in2="blurOut3" mode="normal"/></filter></defs><g><rect fill="#FEFECE" filter="url(#fq85b8ywvq202)" height="36.7999" rx="12.5" ry="12.5" style="stroke:#A80036;stroke-width:1.5;" width="64" x="10" y="105.1999"/><text fill="#000000" font-family="sans-serif" font-size="14" lengthAdjust="spacing" textLength="44" x="20" y="129.1998">Library</text><rect fill="#FEFECE" filter="url(#fq85b8ywvq202)" height="36.7999" rx="12.5" ry="12.5" style="stroke:#A80036;stroke-width:1.5;" width="128" x="124" y="20"/><text fill="#000000" font-family="sans-serif" font-size="14" lengthAdjust="spacing" textLength="108" x="134" y="43.9999">(other collections)</text><text fill="#000000" font-family="sans-serif" font-size="14" lengthAdjust="spacing" textLength="12" x="305" y="43.9999">...</text><path d="M252,38.4 L262,38.4 C277,38.4 277,38.4 292,38.4 L302,38.4 " fill="none" style="stroke:#A80036;stroke-width:1.0;"/><path d="M74,123.5999 L84,123.5999 C99,123.5999 99,38.4 114,38.4 L124,38.4 " fill="none" style="stroke:#A80036;stroke-width:1.0;"/><rect fill="#FEFECE" filter="url(#fq85b8ywvq202)" height="36.7999" rx="12.5" ry="12.5" style="stroke:#A80036;stroke-width:1.5;" width="123" x="124" y="133.5999"/><text fill="#000000" font-family="sans-serif" font-size="14" lengthAdjust="spacing" textLength="103" x="134" y="157.5998">References used</text><rect fill="#FEFECE" filter="url(#fq85b8ywvq202)" height="36.7999" rx="12.5" ry="12.5" style="stroke:#A80036;stroke-width:1.5;" width="137" x="297" y="105.1999"/><text fill="#000000" font-family="sans-serif" font-size="14" lengthAdjust="spacing" textLength="117" x="307" y="129.1998">Documentation site</text><rect fill="#FEFECE" filter="url(#fq85b8ywvq202)" height="36.7999" rx="12.5" ry="12.5" style="stroke:#A80036;stroke-width:1.5;" width="64" x="484" y="76.7999"/><text fill="#000000" font-family="sans-serif" font-size="14" lengthAdjust="spacing" textLength="44" x="494" y="100.7999">Page 1</text><text fill="#000000" font-family="sans-serif" font-size="14" lengthAdjust="spacing" textLength="74" x="601" y="81.9999">Reference 1</text><path d="M548,95.1999 L558,95.1999 C573,95.1999 573,76.4 588,76.4 L598,76.4 " fill="none" style="stroke:#A80036;stroke-width:1.0;"/><text fill="#000000" font-family="sans-serif" font-size="14" lengthAdjust="spacing" textLength="74" x="601" y="100.7999">Reference 2</text><path d="M548,95.1999 L558,95.1999 C573,95.1999 573,95.1999 588,95.1999 L598,95.1999 " fill="none" style="stroke:#A80036;stroke-width:1.0;"/><text fill="#000000" font-family="sans-serif" font-size="14" lengthAdjust="spacing" textLength="12" x="601" y="119.5998">...</text><path d="M548,95.1999 L558,95.1999 C573,95.1999 573,113.9998 588,113.9998 L598,113.9998 " fill="none" style="stroke:#A80036;stroke-width:1.0;"/><path d="M434,123.5999 L444,123.5999 C459,123.5999 459,95.1999 474,95.1999 L484,95.1999 " fill="none" style="stroke:#A80036;stroke-width:1.0;"/><rect fill="#FEFECE" filter="url(#fq85b8ywvq202)" height="36.7999" rx="12.5" ry="12.5" style="stroke:#A80036;stroke-width:1.5;" width="64" x="484" y="133.5999"/><text fill="#000000" font-family="sans-serif" font-size="14" lengthAdjust="spacing" textLength="44" x="494" y="157.5998">Page 2</text><text fill="#000000" font-family="sans-serif" font-size="14" lengthAdjust="spacing" textLength="12" x="601" y="157.5998">...</text><path d="M548,151.9998 L558,151.9998 C573,151.9998 573,151.9998 588,151.9998 L598,151.9998 " fill="none" style="stroke:#A80036;stroke-width:1.0;"/><path d="M434,123.5999 L444,123.5999 C459,123.5999 459,151.9998 474,151.9998 L484,151.9998 " fill="none" style="stroke:#A80036;stroke-width:1.0;"/><path d="M247,151.9998 L257,151.9998 C272,151.9998 272,123.5999 287,123.5999 L297,123.5999 " fill="none" style="stroke:#A80036;stroke-width:1.0;"/><rect fill="#FEFECE" filter="url(#fq85b8ywvq202)" height="36.7999" rx="12.5" ry="12.5" style="stroke:#A80036;stroke-width:1.5;" width="139" x="297" y="190.3998"/><text fill="#000000" font-family="sans-serif" font-size="14" lengthAdjust="spacing" textLength="119" x="307" y="214.3997">(other publications)</text><text fill="#000000" font-family="sans-serif" font-size="14" lengthAdjust="spacing" textLength="12" x="489" y="214.3997">...</text><path d="M436,208.7997 L446,208.7997 C461,208.7997 461,208.7997 476,208.7997 L486,208.7997 " fill="none" style="stroke:#A80036;stroke-width:1.0;"/><path d="M247,151.9998 L257,151.9998 C272,151.9998 272,208.7997 287,208.7997 L297,208.7997 " fill="none" style="stroke:#A80036;stroke-width:1.0;"/><path d="M74,123.5999 L84,123.5999 C99,123.5999 99,151.9998 114,151.9998 L124,151.9998 " fill="none" style="stroke:#A80036;stroke-width:1.0;"/><!--MD5=[3b28b0742c1ea2e7a91cae0073aa2156]
@startmindmap
* Library
 * (other collections)
  *_ ...
 * References used
  * Documentation site
   * Page 1
    *_ Reference 1
    *_ Reference 2
    *_ ...
   * Page 2
    *_ ...
  * (other publications)
   *_ ...
@endmindmap

PlantUML version 1.2021.8(Sat Jun 26 08:20:59 GMT 2021)
(GPL source distribution)
Java Runtime: OpenJDK Runtime Environment
JVM: OpenJDK 64-Bit Server VM
Default Encoding: UTF-8
Language: en
Country: US
--></g></svg>