<?xml version="1.0" encoding="UTF-8" standalone="no"?><svg xmlns="http://www.w3.org/2000/svg" xmlns:xlink="http://www.w3.org/1999/xlink" contentStyleType="text/css" height="108px" preserveAspectRatio="none" style="width:702px;height:108px;" version="1.1" viewBox="0 0 702 108" width="702px" zoomAndPan="magnify"><defs/><g><rect fill="none" height="106.1328" style="stroke:#FFFFFF;stroke-width:1.0;" width="700" x="0" y="0"/><line style="stroke:#1168BD;stroke-width:0.5;stroke-dasharray:5.0,5.0;" x1="70" x2="70" y1="42" y2="101.1328"/><line style="stroke:#1168BD;stroke-width:0.5;stroke-dasharray:5.0,5.0;" x1="210" x2="210" y1="42" y2="101.1328"/><line style="stroke:#1168BD;stroke-width:0.5;stroke-dasharray:5.0,5.0;" x1="350" x2="350" y1="42" y2="101.1328"/><line style="stroke:#1168BD;stroke-width:0.5;stroke-dasharray:5.0,5.0;" x1="490" x2="490" y1="42" y2="101.1328"/><line style="stroke:#1168BD;stroke-width:0.5;stroke-dasharray:5.0,5.0;" x1="630" x2="630" y1="42" y2="101.1328"/><rect fill="#08427B" height="36" rx="2.5" ry="2.5" style="stroke:#FFFFFF;stroke-width:0.5;" width="114" x="13" y="5"/><ellipse cx="57" cy="23" fill="#41AF46" rx="11" ry="11" style="stroke:#FFFFFF;stroke-width:1.0;"/><path d="M52.3906,17.6094 L61.8438,17.6094 L61.8438,19.0156 L57.9688,19.0156 L57.9688,30 L56.2813,30 L56.2813,19.0156 L52.3906,19.0156 L52.3906,17.6094 Z " fill="#FFFFFF"/><text fill="#FFFFFF" font-family="sans-serif" font-size="13" lengthAdjust="spacing" textLength="16" x="76" y="26.0669">tip</text><rect fill="#08427B" height="36" rx="2.5" ry="2.5" style="stroke:#FFFFFF;stroke-width:0.5;" width="114" x="153" y="5"/><ellipse cx="190.5" cy="23" fill="#217EE7" rx="11" ry="11" style="stroke:#FFFFFF;stroke-width:1.0;"/><path d="M186.6563,16.6094 L188.7813,16.6094 L192.9688,26.8125 L192.9688,16.6094 L194.5781,16.6094 L194.5781,29 L192.4531,29 L188.2656,18.7969 L188.2656,29 L186.6563,29 L186.6563,16.6094 Z " fill="#FFFFFF"/><text fill="#FFFFFF" font-family="sans-serif" font-size="13" lengthAdjust="spacing" textLength="29" x="209.5" y="26.0669">note</text><rect fill="#08427B" height="36" rx="2.5" ry="2.5" style="stroke:#FFFFFF;stroke-width:0.5;" width="114" x="293" y="5"/><ellipse cx="320.5" cy="23" fill="#E18114" rx="11" ry="11" style="stroke:#FFFFFF;stroke-width:1.0;"/><path d="M315.5,17.1094 L317.1406,17.1094 L318.3281,27.1719 L319.7344,20.5156 L321.4844,20.5156 L322.9063,27.1875 L324.0938,17.1094 L325.7344,17.1094 L323.8906,29.5 L322.2969,29.5 L320.6094,22.1406 L318.9375,29.5 L317.3438,29.5 L315.5,17.1094 Z " fill="#FFFFFF"/><text fill="#FFFFFF" font-family="sans-serif" font-size="13" lengthAdjust="spacing" textLength="49" x="339.5" y="26.0669">warning</text><rect fill="#08427B" height="36" rx="2.5" ry="2.5" style="stroke:#FFFFFF;stroke-width:0.5;" width="114" x="433" y="5"/><ellipse cx="461.5" cy="23" fill="#A0439C" rx="11" ry="11" style="stroke:#FFFFFF;stroke-width:1.0;"/><path d="M464.4063,28.5625 Q463.7656,28.9063 463.0938,29.0625 Q462.4219,29.2344 461.6719,29.2344 Q459.2813,29.2344 457.9688,27.5625 Q456.6563,25.875 456.6563,22.8125 Q456.6563,19.7813 457.9688,18.0781 Q459.2969,16.375 461.6719,16.375 Q462.4219,16.375 463.0938,16.5469 Q463.7656,16.7188 464.4063,17.0625 L464.4063,18.7813 Q463.7969,18.2813 463.0781,18.0156 Q462.375,17.75 461.6719,17.75 Q460.0313,17.75 459.2188,19.0156 Q458.4063,20.2656 458.4063,22.8125 Q458.4063,25.3594 459.2188,26.625 Q460.0313,27.875 461.6719,27.875 Q462.3906,27.875 463.0938,27.6094 Q463.7969,27.3438 464.4063,26.8438 L464.4063,28.5625 Z " fill="#FFFFFF"/><text fill="#FFFFFF" font-family="sans-serif" font-size="13" lengthAdjust="spacing" textLength="47" x="480.5" y="26.0669">caution</text><rect fill="#08427B" height="36" rx="2.5" ry="2.5" style="stroke:#FFFFFF;stroke-width:0.5;" width="114" x="573" y="5"/><ellipse cx="593.5" cy="23" fill="#D32F2F" rx="11" ry="11" style="stroke:#FFFFFF;stroke-width:1.0;"/><path d="M590.1719,16.6094 L597.0469,16.6094 L597.0469,18.0156 L594.4531,18.0156 L594.4531,27.5938 L597.0469,27.5938 L597.0469,29 L590.1719,29 L590.1719,27.5938 L592.7656,27.5938 L592.7656,18.0156 L590.1719,18.0156 L590.1719,16.6094 Z " fill="#FFFFFF"/><text fill="#FFFFFF" font-family="sans-serif" font-size="13" lengthAdjust="spacing" textLength="63" x="612.5" y="26.0669">important</text><path d="M5,57 L5,86 L135,86 L135,67 L125,57 L5,57 " fill="#41AF46" style="stroke:#181818;stroke-width:0.5;"/><path d="M125,57 L125,67 L135,67 L125,57 " fill="#41AF46" style="stroke:#181818;stroke-width:0.5;"/><text fill="#FFFFFF" font-family="sans-serif" font-size="13" lengthAdjust="spacing" textLength="18" x="61" y="76.0669">Tip</text><path d="M145,57 L145,86 L275,86 L275,67 L265,57 L145,57 " fill="#217EE7" style="stroke:#181818;stroke-width:0.5;"/><path d="M265,57 L265,67 L275,67 L265,57 " fill="#217EE7" style="stroke:#181818;stroke-width:0.5;"/><text fill="#FFFFFF" font-family="sans-serif" font-size="13" lengthAdjust="spacing" textLength="31" x="194.5" y="76.0669">Note</text><path d="M285,57 L285,86 L415,86 L415,67 L405,57 L285,57 " fill="#E18114" style="stroke:#181818;stroke-width:0.5;"/><path d="M405,57 L405,67 L415,67 L405,57 " fill="#E18114" style="stroke:#181818;stroke-width:0.5;"/><text fill="#FFFFFF" font-family="sans-serif" font-size="13" lengthAdjust="spacing" textLength="51" x="324.5" y="76.0669">Warning</text><path d="M425,57 L425,86 L555,86 L555,67 L545,57 L425,57 " fill="#A0439C" style="stroke:#181818;stroke-width:0.5;"/><path d="M545,57 L545,67 L555,67 L545,57 " fill="#A0439C" style="stroke:#181818;stroke-width:0.5;"/><text fill="#FFFFFF" font-family="sans-serif" font-size="13" lengthAdjust="spacing" textLength="49" x="465.5" y="76.0669">Caution</text><path d="M565,57 L565,86 L695,86 L695,67 L685,57 L565,57 " fill="#D32F2F" style="stroke:#181818;stroke-width:0.5;"/><path d="M685,57 L685,67 L695,67 L685,57 " fill="#D32F2F" style="stroke:#181818;stroke-width:0.5;"/><text fill="#FFFFFF" font-family="sans-serif" font-size="13" lengthAdjust="spacing" textLength="63" x="598.5" y="76.0669">Important</text><!--SRC=[lHbfSnh7yZk_OaHKXQZ2ia1O1v6KaX6oLINBZi1n-PCox3OmqR93PcQ5UAdyzzSzkmkpbux45RjiOBgdxtEtmOPc5OXmoZGOWv-QJQHYNm8Ucg-Vhfal-5JnkQurs120pOnPzDw-NH0ucWUxMaRA0xmnXTqGZBthIo-QGsYu4JB4UoF9fWZYB13QC3bX2wcr60V0zBq85np9hvctc8h27alfipVuPHhnAI0T9Eqfu0QGr5g-YK0wIs5cx8y8gV- -9Wa6bFwzXlVwdwy_tmxno-aB_z2bAOIWUC0y6KY5Db5opkGoP1gj1Ne6O6fRsubnxiRSkvyg6ON-dSLdfwnk50yrIeA6gBkeKlcWDcW_JIOJ5xu17EtHNu9nfUJIWS1n6mxs2OAEktS0-ztZeultTP9_pk_HJlvSXeBSaEh17xW8EDcUF0K1aACqKl9uH7WECRxNtJ_swWui0qxa5lE5L0QTuO3y_SwaauEMtGsb0UUqqpu4E5m3ocuOiN0Eksq-wHwavsNuIwv232lNTksZThlhmehtq7oXzE6ktOe_Euo7FYEXc46pXd4qzBis6924bPZmx-PSkDJsZhgTmt4zXNVoy7Rxu6ZiEt0UFNPA_9bO97Vx-FZOoXhfCa-JVwMPGSRBWPmABqidQoF4eK1Uv70oqM6ZzK5G66UnrjwfrROMIdhWHmfOmjGcpixs0rUdxMQDiUt4UFQenGgYbH_bdTPajIq8_JMtBETO5OTpjunpNk7oetmIjD03bvUN_SlBUlCf6L9JFQT_qQHLXswmFwr_4fNFiIu4Rol91FoaZnSmwRoCIQUQoGPbamJFCJOlqowJEi_gXerkzFrwm3uEhhyC_a7VC0pv2jlyuiOKvyU21zZZe8SusoGDDZabvbojg8KbVQR5p6eXF1u4AxRfANG3ROBLY3uwFKnsln4urtJcdcqmBSO3R80XYl40ELeo958oH4e67aq93PBFmbfCHuj5N3zGLBozrasJ9kqcKp2D0gxOZWyJ7WMcYSUT9Wkn0oFi0Pim-6m7Umu4J4P6OpmJodupXMQbwpPnJ9ZEJFRqNJFH2pyUaPgK2wiXKJfeijtTtMnek25mIjgIHgsr6MCBa35FwpzvdbUFxO4_3WuEwXH4MsB2ujkdzOuzOUpzMgA-zQWb6aEiRCafyR2dbp8qUSmXEWKaMXgAq2q8D3XyzwluhZba-Avv_4k-tMgkdLTfczVdtG-quqVWYEb0qAKbB0-gMCReFu1Z2gXoKawYmrSPzmcNvZKz-j6QLX2oVF-j6rEPIgFo6RkcOeI-cDHYgaFnFs3j_M8X_p2u6ToUNxFXO3Iwkldmkbg-jJsM_kfkWWpk9dmki2xYrALngd-ZGGcS4niCk3TBvolcyT2MVs6qNHL8j1iiWwsraCatQbW_qpn9bHneibpMQfjTgA1orPhXtBc8KJAMBrivd2iVqUoA5eW4VRDBeEasQ3XNIc-60oyEloe2Xu2USLykQNMSS0eAXpJEoqibiDs51TWNr9dkT5mcjwIK9nNkNEoTRS7nFeYRtbo4OXxDiPNwr4lHndQrqV1d1A47wOAA_LKPuOa5BXkQOOEuHyaLDHVS534Y70cGOZ_WMd-p5DjxUwxnB-8knlwgPI8MTzeu4c83iRLpMI5Aqg0aBwDhrPm7U3J2RdgEdIsCGmN_0rNxs-LyJbkUvPjcpcRjomhZ0Z8aRcX58GhPsQX9M0tsTJXW_VFXu5LPuCZd6MIUK7VcoWuLdWRxP1TEmadC7mWym3cYtwqn5bk3Bq5Z86M5_gh1uneSoXrNRZTol7i-JH3TqJxHxxm_klhjQlJzd-k7qxPPbGfYLS08IpnGc9WHFbZdQndqFK_JCh_LvA8WaG8J6ZFFZuLnDwY2KJ3ixQnPRfODvd0fvfWBYVsoQqa5waYOe1J_837vSF3hry5D_tKXrR2HrCCK1d8-wvFtqpJcO_a01GNZl2u9FXe0roMbkvTLuprL5PgmY_VsSnhtCRkK35w0EGXDDaYoY0tcSyF7f98zZf-8mIAGAvlvwVEqbbKV6nOz43CpeUsJBBnE-9mjfRhdjjJRWtorqsx5IlaLHMeNj0m2yEpqNchB3FAl4KJmFDem4UrQJ01RI5aU7rPSkO20hyh2grDr8SPwIGGdDpvGFXIJw5q5-YrCS28XGnUowOZANDnVHpFXtOUWDMkNatcFIqg1G3SJgpYks6XvSTgy9iCG-MBmvVhpzq-3cz4h5zXSSdfESb8FIOug4P8YNGvdEnFn-0lP8KtD66-O2szwQ1idP2KyJiDAi0tU2YXP9ycPSeoDc4x2F8tgLl0fP4fLLJV3tJUjsa_brpcMlmdsrUSfzkLy8SCNCRyKmGiQRfyh_tci8SRBkYq_IIwGaL-Q5rdPwE7zizti1XbLJWBU3Bpx-3a2FJBOF4bmfSRJAfaR39iEMAjZyRKCVd4bbC6w2ZqXuaTuvDFKnK-qy2kQ1P4P537ppUVp-0-e20MiBUV6A36E35JCYWrtICa1tEccShwyHUOyd0PGePEj3tuyzE7uxUEks2kxVd8oJlB_xAn8wg0GODp0VwnpmtRWDt4Bxf56lAIBjx1pmwRXssTUsCdHvqOkuiQEOy1gFfO1KhH4yfsyXUiYtHb3WDE_C3_7YFJwoBTp7G_Irmpr5bjIFGrfS_I5fWKf4dg6TyqISDL2RbJxq1e98iDPIYdiah4WoOi- -sOWt9GmshzPf0b4Q24iNTGvDqXp1ulVN9EilWHjTrSoK3pTfFgZt1iR9HifMu5frawinyxGXNhTocFmNtRNzzqP9lUme6oQPkpl6lqxUPiGhir8oucKPYmVQpLd6MH6BDZ9oSwejNa_qJmxgzdNEMGVYx21zTX8BB8KB2gIk6avhwo8nbkseMA_EV2UtSQoX9At5qJhMolxuYLFBaNDOlNOj_XdbcxoReBezblPbpLvkYbg5gk7jTx-pD9TlxuZobUj_Ck-FEqDUXwpnwxIW_y3]--></g></svg>