<?xml version="1.0" encoding="us-ascii" standalone="no"?><svg xmlns="http://www.w3.org/2000/svg" xmlns:xlink="http://www.w3.org/1999/xlink" contentStyleType="text/css" height="742px" preserveAspectRatio="none" style="width:806px;height:742px;" version="1.1" viewBox="0 0 806 742" width="806px" zoomAndPan="magnify"><defs/><g><rect fill="#1168BD" height="36.2969" rx="12.5" ry="12.5" style="stroke:#1168BD;stroke-width:1.5;" width="83" x="10" y="351.8555"/><text fill="#FFFFFF" font-family="sans-serif" font-size="14" lengthAdjust="spacing" textLength="63" x="20" y="374.8506">PlantUML</text><rect fill="#1168BD" height="36.2969" rx="12.5" ry="12.5" style="stroke:#1168BD;stroke-width:1.5;" width="116" x="143" y="259.2617"/><text fill="#FFFFFF" font-family="sans-serif" font-size="14" lengthAdjust="spacing" textLength="29" x="153" y="282.2568">UML</text><text fill="#FFFFFF" font-family="sans-serif" font-size="14" lengthAdjust="spacing" textLength="4" x="182" y="282.2568">&#160;</text><text fill="#FFFFFF" font-family="sans-serif" font-size="14" lengthAdjust="spacing" textLength="63" x="186" y="282.2568">diagrams</text><rect fill="#1168BD" height="36.2969" rx="12.5" ry="12.5" style="stroke:#1168BD;stroke-width:1.5;" width="156" x="309" y="118.5195"/><text fill="#FFFFFF" font-family="sans-serif" font-size="14" lengthAdjust="spacing" textLength="69" x="319" y="141.5146">Behaviour</text><text fill="#FFFFFF" font-family="sans-serif" font-size="14" lengthAdjust="spacing" textLength="4" x="388" y="141.5146">&#160;</text><text fill="#FFFFFF" font-family="sans-serif" font-size="14" lengthAdjust="spacing" textLength="63" x="392" y="141.5146">diagrams</text><rect fill="#1168BD" height="36.2969" rx="12.5" ry="12.5" style="stroke:#1168BD;stroke-width:1.5;" width="92" x="515" y="20"/><text fill="#FFFFFF" font-family="sans-serif" font-size="14" lengthAdjust="spacing" textLength="27" x="525" y="42.9951">Use</text><text fill="#FFFFFF" font-family="sans-serif" font-size="14" lengthAdjust="spacing" textLength="4" x="552" y="42.9951">&#160;</text><text fill="#FFFFFF" font-family="sans-serif" font-size="14" lengthAdjust="spacing" textLength="41" x="556" y="42.9951">cases</text><path d="M465,136.668 L475,136.668 C490,136.668 490,38.1484 505,38.1484 L515,38.1484 " fill="none" style="stroke:#E91E63;stroke-width:1.0;"/><rect fill="#1168BD" height="36.2969" rx="12.5" ry="12.5" style="stroke:#1168BD;stroke-width:1.5;" width="80" x="515" y="76.2969"/><text fill="#FFFFFF" font-family="sans-serif" font-size="14" lengthAdjust="spacing" textLength="60" x="525" y="99.292">Activities</text><path d="M465,136.668 L475,136.668 C490,136.668 490,94.4453 505,94.4453 L515,94.4453 " fill="none" style="stroke:#E91E63;stroke-width:1.0;"/><rect fill="#1168BD" height="36.2969" rx="12.5" ry="12.5" style="stroke:#1168BD;stroke-width:1.5;" width="64" x="515" y="132.5938"/><text fill="#FFFFFF" font-family="sans-serif" font-size="14" lengthAdjust="spacing" textLength="44" x="525" y="155.5889">States</text><path d="M465,136.668 L475,136.668 C490,136.668 490,150.7422 505,150.7422 L515,150.7422 " fill="none" style="stroke:#E91E63;stroke-width:1.0;"/><rect fill="#1168BD" height="36.2969" rx="12.5" ry="12.5" style="stroke:#1168BD;stroke-width:1.5;" width="101" x="515" y="188.8906"/><text fill="#FFFFFF" font-family="sans-serif" font-size="14" lengthAdjust="spacing" textLength="81" x="525" y="211.8857">Interactions</text><rect fill="#1168BD" height="36.2969" rx="12.5" ry="12.5" style="stroke:#1168BD;stroke-width:1.5;" width="99" x="666" y="160.7422"/><text fill="#FFFFFF" font-family="sans-serif" font-size="14" lengthAdjust="spacing" textLength="79" x="676" y="183.7373">Sequences</text><path d="M616,207.0391 L626,207.0391 C641,207.0391 641,178.8906 656,178.8906 L666,178.8906 " fill="none" style="stroke:#E91E63;stroke-width:1.0;"/><rect fill="#1168BD" height="36.2969" rx="12.5" ry="12.5" style="stroke:#1168BD;stroke-width:1.5;" width="128" x="666" y="217.0391"/><text fill="#FFFFFF" font-family="sans-serif" font-size="14" lengthAdjust="spacing" textLength="108" x="676" y="240.0342">Communication</text><path d="M616,207.0391 L626,207.0391 C641,207.0391 641,235.1875 656,235.1875 L666,235.1875 " fill="none" style="stroke:#E91E63;stroke-width:1.0;"/><path d="M465,136.668 L475,136.668 C490,136.668 490,207.0391 505,207.0391 L515,207.0391 " fill="none" style="stroke:#E91E63;stroke-width:1.0;"/><path d="M259,277.4102 L269,277.4102 C284,277.4102 284,136.668 299,136.668 L309,136.668 " fill="none" style="stroke:#E91E63;stroke-width:1.0;"/><rect fill="#1168BD" height="36.2969" rx="12.5" ry="12.5" style="stroke:#1168BD;stroke-width:1.5;" width="151" x="309" y="385.9297"/><text fill="#FFFFFF" font-family="sans-serif" font-size="14" lengthAdjust="spacing" textLength="64" x="319" y="408.9248">Structure</text><text fill="#FFFFFF" font-family="sans-serif" font-size="14" lengthAdjust="spacing" textLength="4" x="383" y="408.9248">&#160;</text><text fill="#FFFFFF" font-family="sans-serif" font-size="14" lengthAdjust="spacing" textLength="63" x="387" y="408.9248">diagrams</text><rect fill="#1168BD" height="36.2969" rx="12.5" ry="12.5" style="stroke:#1168BD;stroke-width:1.5;" width="74" x="510" y="273.3359"/><text fill="#FFFFFF" font-family="sans-serif" font-size="14" lengthAdjust="spacing" textLength="54" x="520" y="296.3311">Classes</text><path d="M460,404.0781 L470,404.0781 C485,404.0781 485,291.4844 500,291.4844 L510,291.4844 " fill="none" style="stroke:#E91E63;stroke-width:1.0;"/><rect fill="#1168BD" height="36.2969" rx="12.5" ry="12.5" style="stroke:#1168BD;stroke-width:1.5;" width="73" x="510" y="329.6328"/><text fill="#FFFFFF" font-family="sans-serif" font-size="14" lengthAdjust="spacing" textLength="53" x="520" y="352.6279">Objects</text><path d="M460,404.0781 L470,404.0781 C485,404.0781 485,347.7813 500,347.7813 L510,347.7813 " fill="none" style="stroke:#E91E63;stroke-width:1.0;"/><rect fill="#1168BD" height="36.2969" rx="12.5" ry="12.5" style="stroke:#1168BD;stroke-width:1.5;" width="87" x="510" y="385.9297"/><text fill="#FFFFFF" font-family="sans-serif" font-size="14" lengthAdjust="spacing" textLength="67" x="520" y="408.9248">Packages</text><path d="M460,404.0781 L470,404.0781 C485,404.0781 485,404.0781 500,404.0781 L510,404.0781 " fill="none" style="stroke:#E91E63;stroke-width:1.0;"/><rect fill="#1168BD" height="36.2969" rx="12.5" ry="12.5" style="stroke:#1168BD;stroke-width:1.5;" width="110" x="510" y="442.2266"/><text fill="#FFFFFF" font-family="sans-serif" font-size="14" lengthAdjust="spacing" textLength="90" x="520" y="465.2217">Components</text><path d="M460,404.0781 L470,404.0781 C485,404.0781 485,460.375 500,460.375 L510,460.375 " fill="none" style="stroke:#E91E63;stroke-width:1.0;"/><rect fill="#1168BD" height="36.2969" rx="12.5" ry="12.5" style="stroke:#1168BD;stroke-width:1.5;" width="104" x="510" y="498.5234"/><text fill="#FFFFFF" font-family="sans-serif" font-size="14" lengthAdjust="spacing" textLength="84" x="520" y="521.5186">Deployment</text><path d="M460,404.0781 L470,404.0781 C485,404.0781 485,516.6719 500,516.6719 L510,516.6719 " fill="none" style="stroke:#E91E63;stroke-width:1.0;"/><path d="M259,277.4102 L269,277.4102 C284,277.4102 284,404.0781 299,404.0781 L309,404.0781 " fill="none" style="stroke:#E91E63;stroke-width:1.0;"/><path d="M93,370.0039 L103,370.0039 C118,370.0039 118,277.4102 133,277.4102 L143,277.4102 " fill="none" style="stroke:#E91E63;stroke-width:1.0;"/><rect fill="#1168BD" height="36.2969" rx="12.5" ry="12.5" style="stroke:#1168BD;stroke-width:1.5;" width="126" x="143" y="619.2656"/><text fill="#FFFFFF" font-family="sans-serif" font-size="14" lengthAdjust="spacing" textLength="39" x="153" y="642.2607">Other</text><text fill="#FFFFFF" font-family="sans-serif" font-size="14" lengthAdjust="spacing" textLength="4" x="192" y="642.2607">&#160;</text><text fill="#FFFFFF" font-family="sans-serif" font-size="14" lengthAdjust="spacing" textLength="63" x="196" y="642.2607">diagrams</text><rect fill="#1168BD" height="36.2969" rx="12.5" ry="12.5" style="stroke:#1168BD;stroke-width:1.5;" width="91" x="319" y="554.8203"/><text fill="#FFFFFF" font-family="sans-serif" font-size="14" lengthAdjust="spacing" textLength="71" x="329" y="577.8154">Mindmaps</text><path d="M269,637.4141 L279,637.4141 C294,637.4141 294,572.9688 309,572.9688 L319,572.9688 " fill="none" style="stroke:#E91E63;stroke-width:1.0;"/><rect fill="#1168BD" height="52.5938" rx="12.5" ry="12.5" style="stroke:#1168BD;stroke-width:1.5;" width="138" x="319" y="611.1172"/><text fill="#FFFFFF" font-family="sans-serif" font-size="14" lengthAdjust="spacing" textLength="35" x="329" y="634.1123">Work</text><text fill="#FFFFFF" font-family="sans-serif" font-size="14" lengthAdjust="spacing" textLength="4" x="364" y="634.1123">&#160;</text><text fill="#FFFFFF" font-family="sans-serif" font-size="14" lengthAdjust="spacing" textLength="78" x="368" y="634.1123">Breakdown</text><text fill="#FFFFFF" font-family="sans-serif" font-size="14" lengthAdjust="spacing" textLength="72" x="329" y="650.4092">Structures</text><text fill="#FFFFFF" font-family="sans-serif" font-size="14" lengthAdjust="spacing" textLength="4" x="401" y="650.4092">&#160;</text><text fill="#FFFFFF" font-family="sans-serif" font-size="14" lengthAdjust="spacing" textLength="42" x="405" y="650.4092">(WBS)</text><path d="M269,637.4141 L279,637.4141 C294,637.4141 294,637.4141 309,637.4141 L319,637.4141 " fill="none" style="stroke:#E91E63;stroke-width:1.0;"/><rect fill="#1168BD" height="36.2969" rx="12.5" ry="12.5" style="stroke:#1168BD;stroke-width:1.5;" width="106" x="319" y="683.7109"/><text fill="#FFFFFF" font-family="sans-serif" font-size="14" lengthAdjust="spacing" textLength="19" x="329" y="706.7061">C4</text><text fill="#FFFFFF" font-family="sans-serif" font-size="14" lengthAdjust="spacing" textLength="4" x="348" y="706.7061">&#160;</text><text fill="#FFFFFF" font-family="sans-serif" font-size="14" lengthAdjust="spacing" textLength="63" x="352" y="706.7061">diagrams</text><path d="M269,637.4141 L279,637.4141 C294,637.4141 294,701.8594 309,701.8594 L319,701.8594 " fill="none" style="stroke:#E91E63;stroke-width:1.0;"/><path d="M93,370.0039 L103,370.0039 C118,370.0039 118,637.4141 133,637.4141 L143,637.4141 " fill="none" style="stroke:#E91E63;stroke-width:1.0;"/><rect fill="#1168BD" height="36.2969" rx="12.5" ry="12.5" style="stroke:#1168BD;stroke-width:1.5;" width="45" x="143" y="675.5625"/><text fill="#FFFFFF" font-family="sans-serif" font-size="14" lengthAdjust="spacing" textLength="25" x="153" y="698.5576">abc</text><path d="M93,370.0039 L103,370.0039 C118,370.0039 118,693.7109 133,693.7109 L143,693.7109 " fill="none" style="stroke:#E91E63;stroke-width:1.0;"/><!--SRC=[jLDTRzf047o_Nx5INm2fAKv9H55KfPXIDS8gAabuNfyNSyM-e_S1GL7-Uy_sEN6QrrQoPS_ixEpjUdrjB6fR2fcLk6TNnfuA-im2dWdCDPRmo02co7UvLavciIgK1gjHcZrgajP7fSgebhqLlekYot6QrR65aFIMdIjf0xlPR6egmGTHkd8jChk5w6BeoIT_f-gX86D2fKxUirkbGgtLCMWw5UbJH9SVQyqJEwQcszt_FV_mtv__waFuL0DO5YZjNR9WC03_WApfotZb0AQqnODGJdVfIcW8E1eAy0ktuY2iQF7AectVlqjB6hr0oPgfmlJRaUJKubYLfPE2OoLYZO5st3fDVzMD2pJFLN-aluZR09P-xfYt8U-uLz8lLy0psXVgLDRRvXFjblJhHfDcPHkmLde7KqsuozHHlXp6G6yzNVLhJJpg60m0KywkoNk4Nu6rOuK3QUFRWkZiV7W-Eejwjri7SqfX644qdlZhOWHtjp5KuJxhVLikmFY9ywftOxL8NJMMFhl10y9F9wqeQGBI5GMxkKyci7Afb_c1mtt2PhH1LrZuAhdAXCmdtdh-VimMA7FdvnCIOx-WLfyQz0S0]--></g></svg>