<?xml version="1.0" encoding="us-ascii" standalone="no"?><svg xmlns="http://www.w3.org/2000/svg" xmlns:xlink="http://www.w3.org/1999/xlink" contentStyleType="text/css" height="534px" preserveAspectRatio="none" style="width:512px;height:534px;" version="1.1" viewBox="0 0 512 534" width="512px" zoomAndPan="magnify"><defs/><g><rect fill="none" height="532.7188" style="stroke:none;stroke-width:1.0;" width="510" x="0" y="0"/><rect fill="#1168BD" height="37.9688" rx="12.5" ry="12.5" style="stroke:#1168BD;stroke-width:0.5;" width="62" x="246.5" y="11"/><text fill="#FFFFFF" font-family="sans-serif" font-size="12" lengthAdjust="spacing" textLength="38" x="258.5" y="34.1387">Ready</text><rect fill="#1168BD" height="37.9688" style="stroke:#1168BD;stroke-width:0.5;" width="69" x="243" y="68.9688"/><line style="stroke:#1168BD;stroke-width:0.5;" x1="248" x2="248" y1="68.9688" y2="106.9375"/><line style="stroke:#1168BD;stroke-width:0.5;" x1="307" x2="307" y1="68.9688" y2="106.9375"/><text fill="#FFFFFF" font-family="sans-serif" font-size="12" lengthAdjust="spacing" textLength="45" x="255" y="92.1074">next(o)</text><rect fill="#1168BD" height="37.9688" rx="12.5" ry="12.5" style="stroke:#1168BD;stroke-width:0.5;" width="83" x="236" y="126.9375"/><text fill="#FFFFFF" font-family="sans-serif" font-size="12" lengthAdjust="spacing" textLength="59" x="248" y="150.0762">Receiving</text><line style="stroke:#E91E63;stroke-width:1.5;" x1="52" x2="473.5" y1="184.9063" y2="184.9063"/><polygon fill="#1168BD" points="22,269.8594,92,269.8594,82,288.8438,92,307.8281,22,307.8281" style="stroke:#1168BD;stroke-width:0.5;"/><text fill="#FFFFFF" font-family="sans-serif" font-size="12" lengthAdjust="spacing" textLength="36" x="39" y="292.998">nak(i)</text><polygon fill="#1168BD" points="20,342.8281,84,342.8281,94,361.8125,84,380.7969,20,380.7969" style="stroke:#1168BD;stroke-width:0.5;"/><text fill="#FFFFFF" font-family="sans-serif" font-size="12" lengthAdjust="spacing" textLength="40" x="37" y="365.9668">ack(o)</text><polygon fill="#1168BD" points="135.5,204.9063,204.5,204.9063,194.5,223.8906,204.5,242.875,135.5,242.875" style="stroke:#1168BD;stroke-width:0.5;"/><text fill="#FFFFFF" font-family="sans-serif" font-size="12" lengthAdjust="spacing" textLength="35" x="152.5" y="228.0449">ack(i)</text><rect fill="#1168BD" height="51.9375" style="stroke:#1168BD;stroke-width:0.5;" width="122" x="104" y="262.875"/><line style="stroke:#1168BD;stroke-width:0.5;" x1="109" x2="109" y1="262.875" y2="314.8125"/><line style="stroke:#1168BD;stroke-width:0.5;" x1="221" x2="221" y1="262.875" y2="314.8125"/><text fill="#FFFFFF" font-family="sans-serif" font-size="12" lengthAdjust="spacing" textLength="45" x="142.5" y="286.0137">next(o)</text><text fill="#FFFFFF" font-family="sans-serif" font-size="12" lengthAdjust="spacing" textLength="98" x="116" y="299.9824">on several lines</text><rect fill="#1168BD" height="37.9688" style="stroke:#1168BD;stroke-width:0.5;" width="78" x="126" y="349.8125"/><text fill="#FFFFFF" font-family="sans-serif" font-size="12" lengthAdjust="spacing" textLength="54" x="138" y="372.9512">i := i + 1</text><polygon fill="#1168BD" points="133,407.7813,197,407.7813,207,426.7656,197,445.75,133,445.75" style="stroke:#1168BD;stroke-width:0.5;"/><text fill="#FFFFFF" font-family="sans-serif" font-size="12" lengthAdjust="spacing" textLength="40" x="150" y="430.9199">ack(o)</text><polygon fill="#1168BD" points="258,269.8594,323,269.8594,313,288.8438,323,307.8281,258,307.8281" style="stroke:#1168BD;stroke-width:0.5;"/><text fill="#FFFFFF" font-family="sans-serif" font-size="12" lengthAdjust="spacing" textLength="31" x="275" y="292.998">err(i)</text><polygon fill="#1168BD" points="253,342.8281,318,342.8281,328,361.8125,318,380.7969,253,380.7969" style="stroke:#1168BD;stroke-width:0.5;"/><text fill="#FFFFFF" font-family="sans-serif" font-size="12" lengthAdjust="spacing" textLength="41" x="270" y="365.9668">nak(o)</text><polygon fill="#1168BD" points="348,306.3438,382,306.3438,372,344.3125,338,344.3125" style="stroke:#1168BD;stroke-width:0.5;"/><text fill="#FFFFFF" font-family="sans-serif" font-size="12" lengthAdjust="spacing" textLength="20" x="350" y="329.4824">foo</text><rect fill="#1168BD" height="37.9688" rx="12.5" ry="12.5" style="stroke:#1168BD;stroke-width:0.5;" width="45" x="392" y="306.3438"/><text fill="#FFFFFF" font-family="sans-serif" font-size="12" lengthAdjust="spacing" textLength="21" x="404" y="329.4824">bar</text><path d="M452,277.8438 L447,296.8281 L452,315.8125 M495,277.8438 L500,296.8281 L495,315.8125 " fill="#1168BD" style="stroke:#1168BD;stroke-width:0.5;"/><text fill="#FFFFFF" font-family="sans-serif" font-size="12" lengthAdjust="spacing" textLength="29" x="459" y="300.9824">i &gt; 5</text><ellipse cx="473.5" cy="361.8125" fill="none" rx="11" ry="11" style="stroke:#222222;stroke-width:1.0;"/><ellipse cx="473.5" cy="361.8125" fill="#222222" rx="6" ry="6" style="stroke:#222222;stroke-width:1.0;"/><line style="stroke:#E91E63;stroke-width:1.5;" x1="52" x2="414.5" y1="465.75" y2="465.75"/><rect fill="#1168BD" height="37.9688" rx="12.5" ry="12.5" style="stroke:#1168BD;stroke-width:0.5;" width="57" x="249" y="485.75"/><text fill="#FFFFFF" font-family="sans-serif" font-size="12" lengthAdjust="spacing" textLength="33" x="261" y="508.8887">finish</text><line style="stroke:#E91E63;stroke-width:1.0;" x1="277.5" x2="277.5" y1="48.9688" y2="68.9688"/><polygon fill="#E91E63" points="273.5,58.9688,277.5,68.9688,281.5,58.9688,277.5,62.9688" style="stroke:#E91E63;stroke-width:1.0;"/><line style="stroke:#E91E63;stroke-width:1.0;" x1="277.5" x2="277.5" y1="106.9375" y2="126.9375"/><polygon fill="#E91E63" points="273.5,116.9375,277.5,126.9375,281.5,116.9375,277.5,120.9375" style="stroke:#E91E63;stroke-width:1.0;"/><line style="stroke:#E91E63;stroke-width:1.0;" x1="52" x2="52" y1="307.8281" y2="342.8281"/><polygon fill="#E91E63" points="48,332.8281,52,342.8281,56,332.8281,52,336.8281" style="stroke:#E91E63;stroke-width:1.0;"/><line style="stroke:#E91E63;stroke-width:1.0;" x1="165" x2="165" y1="242.875" y2="262.875"/><polygon fill="#E91E63" points="161,252.875,165,262.875,169,252.875,165,256.875" style="stroke:#E91E63;stroke-width:1.0;"/><line style="stroke:#E91E63;stroke-width:1.0;" x1="165" x2="165" y1="314.8125" y2="349.8125"/><polygon fill="#E91E63" points="161,339.8125,165,349.8125,169,339.8125,165,343.8125" style="stroke:#E91E63;stroke-width:1.0;"/><line style="stroke:#E91E63;stroke-width:1.0;" x1="165" x2="165" y1="387.7813" y2="407.7813"/><polygon fill="#E91E63" points="161,397.7813,165,407.7813,169,397.7813,165,401.7813" style="stroke:#E91E63;stroke-width:1.0;"/><line style="stroke:#E91E63;stroke-width:1.0;" x1="285.5" x2="285.5" y1="307.8281" y2="342.8281"/><polygon fill="#E91E63" points="281.5,332.8281,285.5,342.8281,289.5,332.8281,285.5,336.8281" style="stroke:#E91E63;stroke-width:1.0;"/><line style="stroke:#E91E63;stroke-width:1.0;" x1="473.5" x2="473.5" y1="315.8125" y2="350.8125"/><polygon fill="#E91E63" points="469.5,340.8125,473.5,350.8125,477.5,340.8125,473.5,344.8125" style="stroke:#E91E63;stroke-width:1.0;"/><line style="stroke:#E91E63;stroke-width:1.0;" x1="52" x2="52" y1="186.4063" y2="269.8594"/><polygon fill="#E91E63" points="48,259.8594,52,269.8594,56,259.8594,52,263.8594" style="stroke:#E91E63;stroke-width:1.0;"/><line style="stroke:#E91E63;stroke-width:1.0;" x1="165" x2="165" y1="186.4063" y2="204.9063"/><polygon fill="#E91E63" points="161,194.9063,165,204.9063,169,194.9063,165,198.9063" style="stroke:#E91E63;stroke-width:1.0;"/><line style="stroke:#E91E63;stroke-width:1.0;" x1="285.5" x2="285.5" y1="186.4063" y2="269.8594"/><polygon fill="#E91E63" points="281.5,259.8594,285.5,269.8594,289.5,259.8594,285.5,263.8594" style="stroke:#E91E63;stroke-width:1.0;"/><line style="stroke:#E91E63;stroke-width:1.0;" x1="360" x2="360" y1="186.4063" y2="306.3438"/><polygon fill="#E91E63" points="356,296.3438,360,306.3438,364,296.3438,360,300.3438" style="stroke:#E91E63;stroke-width:1.0;"/><line style="stroke:#E91E63;stroke-width:1.0;" x1="414.5" x2="414.5" y1="186.4063" y2="306.3438"/><polygon fill="#E91E63" points="410.5,296.3438,414.5,306.3438,418.5,296.3438,414.5,300.3438" style="stroke:#E91E63;stroke-width:1.0;"/><line style="stroke:#E91E63;stroke-width:1.0;" x1="473.5" x2="473.5" y1="186.4063" y2="277.8438"/><polygon fill="#E91E63" points="469.5,267.8438,473.5,277.8438,477.5,267.8438,473.5,271.8438" style="stroke:#E91E63;stroke-width:1.0;"/><line style="stroke:#E91E63;stroke-width:1.0;" x1="52" x2="52" y1="380.7969" y2="465.75"/><polygon fill="#E91E63" points="48,455.75,52,465.75,56,455.75,52,459.75" style="stroke:#E91E63;stroke-width:1.0;"/><line style="stroke:#E91E63;stroke-width:1.0;" x1="165" x2="165" y1="445.75" y2="465.75"/><polygon fill="#E91E63" points="161,455.75,165,465.75,169,455.75,165,459.75" style="stroke:#E91E63;stroke-width:1.0;"/><line style="stroke:#E91E63;stroke-width:1.0;" x1="285.5" x2="285.5" y1="380.7969" y2="465.75"/><polygon fill="#E91E63" points="281.5,455.75,285.5,465.75,289.5,455.75,285.5,459.75" style="stroke:#E91E63;stroke-width:1.0;"/><line style="stroke:#E91E63;stroke-width:1.0;" x1="360" x2="360" y1="344.3125" y2="465.75"/><polygon fill="#E91E63" points="356,455.75,360,465.75,364,455.75,360,459.75" style="stroke:#E91E63;stroke-width:1.0;"/><line style="stroke:#E91E63;stroke-width:1.0;" x1="414.5" x2="414.5" y1="344.3125" y2="465.75"/><polygon fill="#E91E63" points="410.5,455.75,414.5,465.75,418.5,455.75,414.5,459.75" style="stroke:#E91E63;stroke-width:1.0;"/><line style="stroke:#E91E63;stroke-width:1.0;" x1="277.5" x2="277.5" y1="164.9063" y2="184.9063"/><polygon fill="#E91E63" points="273.5,174.9063,277.5,184.9063,281.5,174.9063,277.5,178.9063" style="stroke:#E91E63;stroke-width:1.0;"/><line style="stroke:#E91E63;stroke-width:1.0;" x1="277.5" x2="277.5" y1="467.25" y2="485.75"/><polygon fill="#E91E63" points="273.5,475.75,277.5,485.75,281.5,475.75,277.5,479.75" style="stroke:#E91E63;stroke-width:1.0;"/><!--SRC=[rLfjKziu4FwUNw5odQ6Teq02RI7Gpl1QEaCf1tJkIs-eOgyT5LlAIJ8XT-r_lvNi1Farf4SXXHbYlAlTH_kcNJkBv5oF8iP3ea1h_5Ga49ASHfJhJn-EYSzeA6ciMela783qjHvqLrO6Xfp4qR8IYVG0LuImp47RjRxmaXYuffe9Zkik10cHH4d4b2OY80EX5Ej5GDGLumEAuYVAbuXCU9UCvPCNU14cD0IKWw8z2LG3YfhW2nZA6JBT9ryJbFvb8X8qIFMbrNh2k1SbFf1jdGoeBzTM0i7r2pe49M9OIHIolMsX-BsFnn_Fpl7YpHr_pA8GE4WQ4Kz4GgBff8Y967AYqAYW-W2wzUGf6kJIABsqNEGDMVXjOzNyBY2HIYc63WKss_1gpL3GArSEOMrzSsD_Ty5eZUaL6i6F1MV6ncFjz9goY1h36ZT01COBokZmuqkF9eRN4KXNrzSslOK2FSSI1C6OpkA1a9hcTk6lTO9E1KUT32uqE9HE-pN0wnonRgLc0uUmtgR1-YkNLhTkI2N7k7BjszvejzUBzF9wD3CNFbosbzBF3g7S9mOaqMX-dlfwRzsw6aMWm9JV4RIwiTvvtLku9LN1JAKxzzljLnizto4rhAB9JQSYHWmzP-hDpSt9tSgzOXvKH9I98w7xa8kcI8JCcuWectd2uYYgD3OoXb8aWpnNBb0dB4LPnN0rQSQkcGyoppS978UXACiD86EBTmSd1sSxn-JyuEBY_ScxsMh2awSzuO_IV0zepAAHiREYNBt0KiFGsei4gDSVMvHubDlwoBIofUCGLvvW_LgoL-Vid_6LAIbR9WBHKJwOM1osMhSbT9TwLyPMtD-pczCITI89TJXS-saztnKIBT74U3GQW3GbA6LogX6Qw9OD8qPuVKm5J0kPW2D0zQalXkPa2MYaNCeHPj9GCgrD5XLefxWtiwRZAZapk_A4n5fBNZhC7nXdSHB_oNoi_-tLLTSS-n3G9DBatnQnviksaQ_56SsOcvJybX6jtT7OCgOHthg06xqJiP2dpiC_85lVNSqH2m2j1UTeM0tXY2WHCTy4bYz0MGSgW9XeGOP2Nf5hHicsFJ3UaX7ehYiB3zs_4-0Ul3DPO3T3IfvsCp9bSBnR8Xu1HQ9Zadoo8azkDsC0Pn20D1Tr8F9vMiRXfBebEWYAf1JYT0tVAqsrdwPv7SvScIZ3B9FTw2bKa1A6JmeygiOsEiVO0A4nanmPXQ9U5B7ZQP5YJmClQrHCY6L1WgJbz3ofsw9x45cEOmp7EbeHMZllm_ezjDqDZ35r6Z5r6Z1r6Z1rxegfKy1aO_kkQUCWAfAQqgK6Jrv42iT6i2blZJbKYMXg-an7b1UH8l9dJHO7qgofKWEhA2O5vedOLjZQS1htD-LWob5o4U9qFqs1v0X8mMHTGXsOVADHq5hgC5oXjfzia5g_cLBBd9ERjLfDelCzMuNqKhlcAiZwhoO5-KQkGa6fXtCLJAQ99XM5eQHAINag6QknarSctOaVPo0hoSkHh10irnY-UZGVPIzZerBNLVk3-aDYbyhwqeLz8xPw_cEMqXnVJOjGrSiGvqoz_yFo1qxAdR2ni3t2ERaZDGkeDr-WTWq0AaTJ79SJ_jDzjojkPcY0Ppc_VwZz9MIFId-ktBONYSJ_oJPA5Oae0i-S8EhdDyAPHZnC-BmbxnwIfOZcAatsgQQzsq5ekcEcJ25bm4NVx4D4nwLYMdEvQ8TmCtoR7WbdRdl0FLmZR44SS3sjRtXehnsQX-dp5Dg78chmoUCKt4FpSc6-8EKU3Wb_TA_jsQozcKLq13Sqh1yFvhjTV6-UwM4x1CtmwxnyFnRzGUp7sSF76ORA-aIs4a_mtdo5-qd3q7mVpmMiae-zhp1d3V4feg0XF4HlTOeZ9FFOW4xfTUwljx8QcnufF4widO9KzPWUVdOy5LB_WcNfZmGIA3zhgNW6yRyQHQlh3FEMyZ22N-pqiQoBvXM2JnWthvPZt62akfQmtCkFmtVpV-Fc6cFWBY-APWa3uvpCGUSQkUUgiY8YVJz7vdrY4hAXsZ-EdOOiZYYloEGxZK0vMVbNPO-slsBrK9EtYFP5UGQl_AOvJLRCKpfPClwor1BHVVndF097j0SHOOhWXnWIffVi-2ckSR9XUijAAipBpOU5nMd_n8pxCHtaiJPz4S3G-Mr3TnUxDrj-gktHTlJ6iTtBrTiz4D8JDn4eLRljJbNz6FPKViU_zewsLxBtkjqphAMZhLQNmur-9fv_CtSymEJXuLPB3IA63knoUlMCFT_6AzmeShrDAOI6bF7iRahFnBG8DZ0AhkqNrSnieBuXaP7k6yB8xwJzLwqea78iYbRH0o5M2hTwL7x-NBZ7o5loydjBQJ5e0VT9kfDkW3cb-bl_0G00]--></g></svg>