<?xml version="1.0" encoding="UTF-8" standalone="no"?><svg xmlns="http://www.w3.org/2000/svg" xmlns:xlink="http://www.w3.org/1999/xlink" contentScriptType="application/ecmascript" contentStyleType="text/css" height="797px" preserveAspectRatio="none" style="width:832px;height:797px;background:#FFFFFF;" version="1.1" viewBox="0 0 832 797" width="832px" zoomAndPan="magnify"><defs><filter height="300%" id="f1m72aql30nduy" width="300%" x="-1" y="-1"><feGaussianBlur result="blurOut" stdDeviation="2.0"/><feColorMatrix in="blurOut" result="blurOut2" type="matrix" values="0 0 0 0 0 0 0 0 0 0 0 0 0 0 0 0 0 0 .4 0"/><feOffset dx="4.0" dy="4.0" in="blurOut2" result="blurOut3"/><feBlend in="SourceGraphic" in2="blurOut3" mode="normal"/></filter></defs><g><rect fill="#DDDDDD" height="785.1997" style="stroke:#A80036;stroke-width:1.0;" width="289" x="216" y="6"/><text fill="#000000" font-family="sans-serif" font-size="13" font-weight="bold" lengthAdjust="spacing" textLength="24" x="348.5" y="19">Box</text><rect fill="#FFFFFF" filter="url(#f1m72aql30nduy)" height="336.3999" style="stroke:#000000;stroke-width:2.0;" width="584" x="141.5" y="167.7999"/><rect fill="#FFFFFF" height="239.9999" style="stroke:none;stroke-width:1.0;" width="584" x="141.5" y="234.9999"/><rect fill="#FFFFFF" height="29.1999" style="stroke:none;stroke-width:1.0;" width="584" x="141.5" y="474.9999"/><rect fill="#FFFFFF" filter="url(#f1m72aql30nduy)" height="157.2" style="stroke:#000000;stroke-width:2.0;" width="356" x="344.5" y="293.7998"/><rect fill="#FFFFFF" filter="url(#f1m72aql30nduy)" height="83.6" style="stroke:#000000;stroke-width:2.0;" width="234" x="441.5" y="339.3998"/><line style="stroke:#A80036;stroke-width:1.5;" x1="210.5" x2="210.5" y1="610.9997" y2="716.9997"/><polygon fill="#A80036" points="206.5,620.9997,210.5,610.9997,214.5,620.9997,210.5,616.9997" style="stroke:#A80036;stroke-width:1.0;"/><polygon fill="#A80036" points="206.5,706.9997,210.5,716.9997,214.5,706.9997,210.5,710.9997" style="stroke:#A80036;stroke-width:1.0;"/><text fill="#000000" font-family="sans-serif" font-size="13" lengthAdjust="spacing" textLength="27" x="214.5" y="669.1997">label</text><line style="stroke:#A80036;stroke-width:1.0;" x1="54.5" x2="54.5" y1="126.1999" y2="561.7998"/><line style="stroke:#A80036;stroke-width:1.0;stroke-dasharray:1.0,4.0;" x1="54.5" x2="54.5" y1="561.7998" y2="602.9997"/><line style="stroke:#A80036;stroke-width:1.0;" x1="54.5" x2="54.5" y1="602.9997" y2="785.1997"/><line style="stroke:#A80036;stroke-width:1.0;" x1="157.5" x2="157.5" y1="126.1999" y2="561.7998"/><line style="stroke:#A80036;stroke-width:1.0;stroke-dasharray:1.0,4.0;" x1="157.5" x2="157.5" y1="561.7998" y2="602.9997"/><line style="stroke:#A80036;stroke-width:1.0;" x1="157.5" x2="157.5" y1="602.9997" y2="785.1997"/><line style="stroke:#A80036;stroke-width:1.0;" x1="263.5" x2="263.5" y1="126.1999" y2="561.7998"/><line style="stroke:#A80036;stroke-width:1.0;stroke-dasharray:1.0,4.0;" x1="263.5" x2="263.5" y1="561.7998" y2="602.9997"/><line style="stroke:#A80036;stroke-width:1.0;" x1="263.5" x2="263.5" y1="602.9997" y2="785.1997"/><rect fill="#FFFFFF" filter="url(#f1m72aql30nduy)" height="110" style="stroke:#A80036;stroke-width:1.0;" width="10" x="258.5" y="608.9997"/><rect fill="#FFFFFF" filter="url(#f1m72aql30nduy)" height="56" style="stroke:#A80036;stroke-width:1.0;" width="10" x="263.5" y="635.9997"/><line style="stroke:#A80036;stroke-width:1.0;" x1="360.5" x2="360.5" y1="126.1999" y2="561.7998"/><line style="stroke:#A80036;stroke-width:1.0;stroke-dasharray:1.0,4.0;" x1="360.5" x2="360.5" y1="561.7998" y2="602.9997"/><line style="stroke:#A80036;stroke-width:1.0;" x1="360.5" x2="360.5" y1="602.9997" y2="785.1997"/><rect fill="#FFFFFF" filter="url(#f1m72aql30nduy)" height="28" style="stroke:#A80036;stroke-width:1.0;" width="10" x="355.5" y="649.9997"/><line style="stroke:#A80036;stroke-width:1.0;" x1="457.5" x2="457.5" y1="126.1999" y2="561.7998"/><line style="stroke:#A80036;stroke-width:1.0;stroke-dasharray:1.0,4.0;" x1="457.5" x2="457.5" y1="561.7998" y2="602.9997"/><line style="stroke:#A80036;stroke-width:1.0;" x1="457.5" x2="457.5" y1="602.9997" y2="785.1997"/><line style="stroke:#A80036;stroke-width:2.0;" x1="448.5" x2="466.5" y1="654.9997" y2="672.9997"/><line style="stroke:#A80036;stroke-width:2.0;" x1="448.5" x2="466.5" y1="672.9997" y2="654.9997"/><line style="stroke:#A80036;stroke-width:1.0;" x1="554.5" x2="554.5" y1="126.1999" y2="561.7998"/><line style="stroke:#A80036;stroke-width:1.0;stroke-dasharray:1.0,4.0;" x1="554.5" x2="554.5" y1="561.7998" y2="602.9997"/><line style="stroke:#A80036;stroke-width:1.0;" x1="554.5" x2="554.5" y1="602.9997" y2="785.1997"/><rect fill="#FFFFFF" filter="url(#f1m72aql30nduy)" height="28" style="stroke:#A80036;stroke-width:1.0;" width="10" x="549.5" y="372.9999"/><line style="stroke:#A80036;stroke-width:1.0;" x1="659.5" x2="659.5" y1="126.1999" y2="561.7998"/><line style="stroke:#A80036;stroke-width:1.0;stroke-dasharray:1.0,4.0;" x1="659.5" x2="659.5" y1="561.7998" y2="602.9997"/><line style="stroke:#A80036;stroke-width:1.0;" x1="659.5" x2="659.5" y1="602.9997" y2="785.1997"/><line style="stroke:#A80036;stroke-width:1.0;" x1="771.5" x2="771.5" y1="126.1999" y2="561.7998"/><line style="stroke:#A80036;stroke-width:1.0;stroke-dasharray:1.0,4.0;" x1="771.5" x2="771.5" y1="561.7998" y2="602.9997"/><line style="stroke:#A80036;stroke-width:1.0;" x1="771.5" x2="771.5" y1="602.9997" y2="785.1997"/><rect fill="#FEFECE" filter="url(#f1m72aql30nduy)" height="47.5999" style="stroke:#A80036;stroke-width:1.5;" width="95" x="5" y="73.6"/><text fill="#000000" font-family="sans-serif" font-size="14" font-style="italic" lengthAdjust="spacing" textLength="81" x="12" y="94.6">«Stereotype»</text><text fill="#000000" font-family="sans-serif" font-size="14" lengthAdjust="spacing" textLength="67" x="19" y="111.3999">Participant</text><text fill="#000000" font-family="sans-serif" font-size="14" font-style="italic" lengthAdjust="spacing" textLength="81" x="114" y="106.6">«Stereotype»</text><text fill="#000000" font-family="sans-serif" font-size="14" lengthAdjust="spacing" textLength="32" x="138.5" y="123.3999">Actor</text><ellipse cx="157.5" cy="35.6" fill="#FEFECE" filter="url(#f1m72aql30nduy)" rx="8" ry="8" style="stroke:#A80036;stroke-width:2.0;"/><path d="M157.5,43.6 L157.5,70.6 M144.5,51.6 L170.5,51.6 M157.5,70.6 L144.5,85.6 M157.5,70.6 L170.5,85.6 " fill="none" filter="url(#f1m72aql30nduy)" style="stroke:#A80036;stroke-width:2.0;"/><text fill="#000000" font-family="sans-serif" font-size="14" font-style="italic" lengthAdjust="spacing" textLength="81" x="220" y="106.6">«Stereotype»</text><text fill="#000000" font-family="sans-serif" font-size="14" lengthAdjust="spacing" textLength="60" x="230.5" y="123.3999">Boundary</text><path d="M243,64.6 L243,88.6 M243,76.6 L260,76.6 " fill="none" filter="url(#f1m72aql30nduy)" style="stroke:#A80036;stroke-width:2.0;"/><ellipse cx="272" cy="76.6" fill="#FEFECE" filter="url(#f1m72aql30nduy)" rx="12" ry="12" style="stroke:#A80036;stroke-width:2.0;"/><text fill="#000000" font-family="sans-serif" font-size="14" font-style="italic" lengthAdjust="spacing" textLength="81" x="317" y="106.6">«Stereotype»</text><text fill="#000000" font-family="sans-serif" font-size="14" lengthAdjust="spacing" textLength="44" x="335.5" y="123.3999">Control</text><ellipse cx="360.5" cy="76.6" fill="#FEFECE" filter="url(#f1m72aql30nduy)" rx="12" ry="12" style="stroke:#A80036;stroke-width:2.0;"/><polygon fill="#A80036" points="356.5,64.6,362.5,59.6,360.5,64.6,362.5,69.6,356.5,64.6" style="stroke:#A80036;stroke-width:1.0;"/><text fill="#000000" font-family="sans-serif" font-size="14" font-style="italic" lengthAdjust="spacing" textLength="81" x="414" y="106.6">«Stereotype»</text><text fill="#000000" font-family="sans-serif" font-size="14" lengthAdjust="spacing" textLength="35" x="437" y="123.3999">Entity</text><ellipse cx="457.5" cy="76.6" fill="#FEFECE" filter="url(#f1m72aql30nduy)" rx="12" ry="12" style="stroke:#A80036;stroke-width:2.0;"/><line style="stroke:#A80036;stroke-width:2.0;" x1="445.5" x2="469.5" y1="90.6" y2="90.6"/><text fill="#000000" font-family="sans-serif" font-size="14" font-style="italic" lengthAdjust="spacing" textLength="81" x="511" y="106.6">«Stereotype»</text><text fill="#000000" font-family="sans-serif" font-size="14" lengthAdjust="spacing" textLength="60" x="521.5" y="123.3999">Database</text><path d="M536.5,56.6 C536.5,46.6 554.5,46.6 554.5,46.6 C554.5,46.6 572.5,46.6 572.5,56.6 L572.5,82.6 C572.5,92.6 554.5,92.6 554.5,92.6 C554.5,92.6 536.5,92.6 536.5,82.6 L536.5,56.6 " fill="#FEFECE" filter="url(#f1m72aql30nduy)" style="stroke:#000000;stroke-width:1.5;"/><path d="M536.5,56.6 C536.5,66.6 554.5,66.6 554.5,66.6 C554.5,66.6 572.5,66.6 572.5,56.6 " fill="none" style="stroke:#000000;stroke-width:1.5;"/><rect fill="#FEFECE" filter="url(#f1m72aql30nduy)" height="47.5999" style="stroke:#A80036;stroke-width:1.5;" width="95" x="612" y="69.6"/><rect fill="#FEFECE" filter="url(#f1m72aql30nduy)" height="47.5999" style="stroke:#A80036;stroke-width:1.5;" width="95" x="608" y="73.6"/><text fill="#000000" font-family="sans-serif" font-size="14" font-style="italic" lengthAdjust="spacing" textLength="81" x="615" y="94.6">«Stereotype»</text><text fill="#000000" font-family="sans-serif" font-size="14" lengthAdjust="spacing" textLength="66" x="622.5" y="111.3999">Collections</text><path d="M726,82.6 L817,82.6 C822,82.6 822,104.3999 822,104.3999 C822,104.3999 822,126.1999 817,126.1999 L726,126.1999 C721,126.1999 721,104.3999 721,104.3999 C721,104.3999 721,82.6 726,82.6 " fill="#FEFECE" filter="url(#f1m72aql30nduy)" style="stroke:#A80036;stroke-width:2.0;"/><path d="M817,82.6 C812,82.6 812,104.3999 812,104.3999 C812,126.1999 817,126.1999 817,126.1999 " fill="none" style="stroke:#A80036;stroke-width:2.0;"/><text fill="#000000" font-family="sans-serif" font-size="14" font-style="italic" lengthAdjust="spacing" textLength="81" x="726" y="101.6">«Stereotype»</text><text fill="#000000" font-family="sans-serif" font-size="14" lengthAdjust="spacing" textLength="41" x="746" y="118.3999">Queue</text><polygon fill="#A80036" points="145.5,151.7999,155.5,155.7999,145.5,159.7999,149.5,155.7999" style="stroke:#A80036;stroke-width:1.0;"/><line style="stroke:#A80036;stroke-width:1.0;" x1="54.5" x2="151.5" y1="155.7999" y2="155.7999"/><text fill="#000000" font-family="sans-serif" font-size="13" font-weight="bold" lengthAdjust="spacing" textLength="7" x="61.5" y="151.1999">1</text><text fill="#000000" font-family="sans-serif" font-size="13" lengthAdjust="spacing" textLength="51" x="72.5" y="151.1999">Message</text><path d="M141.5,167.7999 L201.5,167.7999 L201.5,174.7999 L191.5,184.7999 L141.5,184.7999 L141.5,167.7999 " fill="#EEEEEE" style="stroke:#000000;stroke-width:1.0;"/><rect fill="none" height="336.3999" style="stroke:#000000;stroke-width:2.0;" width="584" x="141.5" y="167.7999"/><text fill="#000000" font-family="sans-serif" font-size="13" font-weight="bold" lengthAdjust="spacing" textLength="15" x="156.5" y="181.7999">alt</text><text fill="#000000" font-family="sans-serif" font-size="11" font-weight="bold" lengthAdjust="spacing" textLength="61" x="216.5" y="180.7998">[Main case]</text><line style="stroke:#000000;stroke-width:1.0;stroke-dasharray:2.0,2.0;" x1="141.5" x2="725.5" y1="235.9999" y2="235.9999"/><text fill="#000000" font-family="sans-serif" font-size="11" font-weight="bold" lengthAdjust="spacing" textLength="107" x="146.5" y="246.9998">[Alternative case #1]</text><line style="stroke:#000000;stroke-width:1.0;stroke-dasharray:2.0,2.0;" x1="141.5" x2="725.5" y1="475.9999" y2="475.9999"/><text fill="#000000" font-family="sans-serif" font-size="11" font-weight="bold" lengthAdjust="spacing" textLength="107" x="146.5" y="486.9998">[Alternative case #2]</text><polygon fill="#A80036" points="251.5,212.9999,261.5,216.9999,251.5,220.9999,255.5,216.9999" style="stroke:#A80036;stroke-width:1.0;"/><line style="stroke:#A80036;stroke-width:1.0;" x1="157.5" x2="257.5" y1="216.9999" y2="216.9999"/><text fill="#000000" font-family="sans-serif" font-size="13" lengthAdjust="spacing" textLength="82" x="164.5" y="212.3999">Main message</text><polygon fill="#A80036" points="348.5,267.7998,358.5,271.7998,348.5,275.7998,352.5,271.7998" style="stroke:#A80036;stroke-width:1.0;"/><line style="stroke:#A80036;stroke-width:1.0;" x1="157.5" x2="354.5" y1="271.7998" y2="271.7998"/><text fill="#000000" font-family="sans-serif" font-size="13" lengthAdjust="spacing" textLength="115" x="164.5" y="267.1998">Alternative message</text><path d="M365.5,255.1998 L365.5,280.1998 L413.5,280.1998 L413.5,265.1998 L403.5,255.1998 L365.5,255.1998 " fill="#FBFB77" filter="url(#f1m72aql30nduy)" style="stroke:#A80036;stroke-width:1.0;"/><path d="M403.5,255.1998 L403.5,265.1998 L413.5,265.1998 L403.5,255.1998 " fill="#FBFB77" style="stroke:#A80036;stroke-width:1.0;"/><text fill="#000000" font-family="sans-serif" font-size="13" lengthAdjust="spacing" textLength="27" x="371.5" y="273.1998">Note</text><path d="M344.5,293.7998 L430.5,293.7998 L430.5,300.7998 L420.5,310.7998 L344.5,310.7998 L344.5,293.7998 " fill="#EEEEEE" style="stroke:#000000;stroke-width:1.0;"/><rect fill="none" height="157.2" style="stroke:#000000;stroke-width:2.0;" width="356" x="344.5" y="293.7998"/><text fill="#000000" font-family="sans-serif" font-size="13" font-weight="bold" lengthAdjust="spacing" textLength="37" x="359.5" y="307.7998">group</text><text fill="#000000" font-family="sans-serif" font-size="11" font-weight="bold" lengthAdjust="spacing" textLength="63" x="445.5" y="306.7997">[Extra label]</text><polygon fill="#A80036" points="445.5,323.3998,455.5,327.3998,445.5,331.3998,449.5,327.3998" style="stroke:#A80036;stroke-width:1.0;"/><line style="stroke:#A80036;stroke-width:1.0;" x1="360.5" x2="451.5" y1="327.3998" y2="327.3998"/><path d="M441.5,339.3998 L514.5,339.3998 L514.5,346.3998 L504.5,356.3998 L441.5,356.3998 L441.5,339.3998 " fill="#EEEEEE" style="stroke:#000000;stroke-width:1.0;"/><rect fill="none" height="83.6" style="stroke:#000000;stroke-width:2.0;" width="234" x="441.5" y="339.3998"/><text fill="#000000" font-family="sans-serif" font-size="13" font-weight="bold" lengthAdjust="spacing" textLength="28" x="456.5" y="353.3998">loop</text><text fill="#000000" font-family="sans-serif" font-size="11" font-weight="bold" lengthAdjust="spacing" textLength="64" x="529.5" y="352.3998">[1000 times]</text><polygon fill="#A80036" points="537.5,368.9999,547.5,372.9999,537.5,376.9999,541.5,372.9999" style="stroke:#A80036;stroke-width:1.0;"/><line style="stroke:#A80036;stroke-width:1.0;" x1="457.5" x2="543.5" y1="372.9999" y2="372.9999"/><polygon fill="#A80036" points="647.5,382.9999,657.5,386.9999,647.5,390.9999,651.5,386.9999" style="stroke:#A80036;stroke-width:1.0;"/><line style="stroke:#A80036;stroke-width:1.0;" x1="457.5" x2="653.5" y1="386.9999" y2="386.9999"/><polygon fill="#A80036" points="468.5,396.9999,458.5,400.9999,468.5,404.9999,464.5,400.9999" style="stroke:#A80036;stroke-width:1.0;"/><line style="stroke:#A80036;stroke-width:1.0;stroke-dasharray:2.0,2.0;" x1="462.5" x2="548.5" y1="400.9999" y2="400.9999"/><polygon fill="#A80036" points="468.5,410.9999,458.5,414.9999,468.5,418.9999,464.5,414.9999" style="stroke:#A80036;stroke-width:1.0;"/><line style="stroke:#A80036;stroke-width:1.0;" x1="462.5" x2="658.5" y1="414.9999" y2="414.9999"/><polygon fill="#A80036" points="647.5,438.9999,657.5,442.9999,647.5,446.9999,651.5,442.9999" style="stroke:#A80036;stroke-width:1.0;"/><line style="stroke:#A80036;stroke-width:1.0;" x1="554.5" x2="653.5" y1="442.9999" y2="442.9999"/><polygon fill="#A80036" points="168.5,492.1998,158.5,496.1998,168.5,500.1998,164.5,496.1998" style="stroke:#A80036;stroke-width:1.0;"/><line style="stroke:#A80036;stroke-width:1.0;" x1="162.5" x2="658.5" y1="496.1998" y2="496.1998"/><rect fill="#EEEEEE" filter="url(#f1m72aql30nduy)" height="3" style="stroke:#EEEEEE;stroke-width:1.0;" width="817" x="5" y="538.9998"/><line style="stroke:#000000;stroke-width:1.0;" x1="5" x2="822" y1="538.9998" y2="538.9998"/><line style="stroke:#000000;stroke-width:1.0;" x1="5" x2="822" y1="541.9998" y2="541.9998"/><rect fill="#EEEEEE" filter="url(#f1m72aql30nduy)" height="23.6" style="stroke:#000000;stroke-width:2.0;" width="63" x="382" y="528.1998"/><text fill="#000000" font-family="sans-serif" font-size="13" font-weight="bold" lengthAdjust="spacing" textLength="45" x="388" y="545.1998">Divider</text><text fill="#000000" font-family="sans-serif" font-size="11" lengthAdjust="spacing" textLength="25" x="400.5" y="586.7997">delay</text><polygon fill="#A80036" points="246.5,604.9997,256.5,608.9997,246.5,612.9997,250.5,608.9997" style="stroke:#A80036;stroke-width:1.0;"/><line style="stroke:#A80036;stroke-width:1.0;" x1="157.5" x2="252.5" y1="608.9997" y2="608.9997"/><line style="stroke:#A80036;stroke-width:1.0;" x1="268.5" x2="315.5" y1="622.9997" y2="622.9997"/><line style="stroke:#A80036;stroke-width:1.0;" x1="315.5" x2="315.5" y1="622.9997" y2="635.9997"/><line style="stroke:#A80036;stroke-width:1.0;" x1="274.5" x2="315.5" y1="635.9997" y2="635.9997"/><polygon fill="#A80036" points="284.5,631.9997,274.5,635.9997,284.5,639.9997,280.5,635.9997" style="stroke:#A80036;stroke-width:1.0;"/><polygon fill="#A80036" points="343.5,645.9997,353.5,649.9997,343.5,653.9997,347.5,649.9997" style="stroke:#A80036;stroke-width:1.0;"/><line style="stroke:#A80036;stroke-width:1.0;" x1="273.5" x2="349.5" y1="649.9997" y2="649.9997"/><polygon fill="#A80036" points="445.5,659.9997,455.5,663.9997,445.5,667.9997,449.5,663.9997" style="stroke:#A80036;stroke-width:1.0;"/><line style="stroke:#A80036;stroke-width:1.0;" x1="365.5" x2="451.5" y1="663.9997" y2="663.9997"/><polygon fill="#A80036" points="284.5,673.9997,274.5,677.9997,284.5,681.9997,280.5,677.9997" style="stroke:#A80036;stroke-width:1.0;"/><line style="stroke:#A80036;stroke-width:1.0;stroke-dasharray:2.0,2.0;" x1="278.5" x2="354.5" y1="677.9997" y2="677.9997"/><line style="stroke:#A80036;stroke-width:1.0;stroke-dasharray:2.0,2.0;" x1="273.5" x2="315.5" y1="691.9997" y2="691.9997"/><line style="stroke:#A80036;stroke-width:1.0;stroke-dasharray:2.0,2.0;" x1="315.5" x2="315.5" y1="691.9997" y2="704.9997"/><line style="stroke:#A80036;stroke-width:1.0;stroke-dasharray:2.0,2.0;" x1="268.5" x2="315.5" y1="704.9997" y2="704.9997"/><polygon fill="#A80036" points="278.5,700.9997,268.5,704.9997,278.5,708.9997,274.5,704.9997" style="stroke:#A80036;stroke-width:1.0;"/><polygon fill="#A80036" points="168.5,714.9997,158.5,718.9997,168.5,722.9997,164.5,718.9997" style="stroke:#A80036;stroke-width:1.0;"/><line style="stroke:#A80036;stroke-width:1.0;stroke-dasharray:2.0,2.0;" x1="162.5" x2="257.5" y1="718.9997" y2="718.9997"/><rect fill="#FFFFFF" filter="url(#f1m72aql30nduy)" height="41.2" style="stroke:#000000;stroke-width:2.0;" width="176" x="416" y="726.9997"/><polygon fill="#EEEEEE" points="416,726.9997,478,726.9997,478,733.9997,468,743.9997,416,743.9997,416,726.9997" style="stroke:#000000;stroke-width:2.0;"/><text fill="#000000" font-family="sans-serif" font-size="13" font-weight="bold" lengthAdjust="spacing" textLength="17" x="429" y="741.9997">ref</text><text fill="#000000" font-family="sans-serif" font-size="13" lengthAdjust="spacing" textLength="54" x="479" y="760.9997">reference</text><line style="stroke:#A80036;stroke-width:1.5;" x1="210.5" x2="210.5" y1="610.9997" y2="716.9997"/><polygon fill="#A80036" points="206.5,620.9997,210.5,610.9997,214.5,620.9997,210.5,616.9997" style="stroke:#A80036;stroke-width:1.0;"/><polygon fill="#A80036" points="206.5,706.9997,210.5,716.9997,214.5,706.9997,210.5,710.9997" style="stroke:#A80036;stroke-width:1.0;"/><text fill="#000000" font-family="sans-serif" font-size="13" lengthAdjust="spacing" textLength="27" x="214.5" y="669.1997">label</text><!--MD5=[779db5820925267c1a29a43d6c80a9c6]
@startuml
' don't show participants at end of lifeline
hide footbox

participant Participant <<Stereotype>>
actor       Actor <<Stereotype>>
box Box
boundary    Boundary <<Stereotype>>
control     Control <<Stereotype>>
entity      Entity <<Stereotype>>
end box
database    Database <<Stereotype>>
collections Collections <<Stereotype>>
queue       Queue <<Stereotype>>

autonumber
Participant -> Actor: Message
autonumber stop

alt Main case
  Actor -> Boundary : Main message
else Alternative case #1
  Actor -> Control : Alternative message
  note right: Note

  group group [Extra label]
    Control -> Entity

    loop 1000 times
        Entity -> Database ++
        Entity -> Collections
        return
        Collections -> Entity
    end

    Database -> Collections
  end
else Alternative case #2
  Collections -> Actor
end

== Divider ==

...delay...

!pragma teoz true
{a} Actor -> Boundary ++
  Boundary -> Boundary ++
    Boundary -> Control ++
      Control -> Entity !!
    return
  return
{b} Boundary - -> Actor - -
{a} <-> {b}: label

ref over Entity, Database: reference
@enduml

@startuml
hide footbox

participant Participant <<Stereotype>>
actor       Actor <<Stereotype>>
box Box
boundary    Boundary <<Stereotype>>
control     Control <<Stereotype>>
entity      Entity <<Stereotype>>
end box
database    Database <<Stereotype>>
collections Collections <<Stereotype>>
queue       Queue <<Stereotype>>

autonumber
Participant -> Actor: Message
autonumber stop

alt Main case
  Actor -> Boundary : Main message
else Alternative case #1
  Actor -> Control : Alternative message
  note right: Note

  group group [Extra label]
    Control -> Entity

    loop 1000 times
        Entity -> Database ++
        Entity -> Collections
        return
        Collections -> Entity
    end

    Database -> Collections
  end
else Alternative case #2
  Collections -> Actor
end

== Divider ==

...delay...

!pragma teoz true
{a} Actor -> Boundary ++
  Boundary -> Boundary ++
    Boundary -> Control ++
      Control -> Entity !!
    return
  return
{b} Boundary - -> Actor - -
{a} <-> {b}: label

ref over Entity, Database: reference
@enduml

PlantUML version 1.2021.6(Fri May 14 07:09:51 GMT 2021)
(GPL source distribution)
Java Runtime: OpenJDK Runtime Environment
JVM: OpenJDK 64-Bit Server VM
Default Encoding: UTF-8
Language: en
Country: US
--></g></svg>