<?xml version="1.0" encoding="us-ascii" standalone="no"?><svg xmlns="http://www.w3.org/2000/svg" xmlns:xlink="http://www.w3.org/1999/xlink" contentStyleType="text/css" height="1064px" preserveAspectRatio="none" style="width:941px;height:1064px;" version="1.1" viewBox="0 0 941 1064" width="941px" zoomAndPan="magnify"><defs/><g><rect fill="none" height="1062.73" style="stroke:#FFFFFF;stroke-width:1.0;" width="939.0749" x="0" y="0"/><!--cluster cloud--><g id="cluster_cloud"><path d="M50.3269,174.8515 C62.3388,154.8643 83.1769,154.1306 95.1055,174.943 C109.5371,150.2639 130.0701,151.4331 142.494,176.8425 C152.4977,151.1099 177.8235,148.7886 193.5677,170.6872 C206.0343,153.0731 225.804,153.2267 237.5374,171.5835 C250.866,148.9313 266.0273,147.6835 284.3372,165.8758 C299.373,143.8294 318.1076,144.7345 328.6005,170.1156 C344.8392,147.0779 363.1142,145.3365 380.5774,168.7452 C395.1801,142.169 412.0241,143.5522 430.5473,164.6346 C447.7478,147.6567 462.0181,147.3403 471.8417,171.9581 C488.4575,141.6828 504.7911,146.1934 524.9584,168.361 C541.8686,148.0396 556.6202,153.0161 568.1672,173.9747 C583.9918,156.0139 598.9218,156.9841 612.6192,176.498 C623.8126,151.2435 648.353,150.4446 661.9895,174.0284 C681.191,155.0768 697.7001,156.5909 713.0749,178.78 C716.8235,177.4593 719.0726,179.5817 718.1479,183.3964 C743.9715,194.5727 745.9859,218.0384 720.3911,231.6072 C747.5393,246.0734 742.5169,271.7524 719.8591,285.7289 C745.9484,301.1865 740.29,318.9786 720.4257,334.9649 C746.6026,343.8401 743.5811,367.3978 726.2272,381.6792 C749.7458,395.7213 753.0706,411.367 729.7401,428.8947 C757.8443,443.0955 758.5105,468.6867 730.7528,483.9157 C754.8213,501.3626 752.9282,516.0545 727.6667,530.2132 C748.653,547.5129 749.6789,565.4995 722.9135,578.0549 C746.507,592.1945 744.5165,615.4253 721.4146,628.1683 C744.2035,649.6404 735.006,676.3366 706.0749,683.46 C711.3048,683.6163 713.2484,685.7369 710.8902,690.8425 C695.9612,716.6551 677.1225,712.9713 661.7696,691.2809 C649.0595,712.7954 630.2263,711.7302 619.8575,689.06 C603.1201,712.0066 586.7191,715.7798 569.0144,690.0708 C551.5051,718.4124 534.9088,713.3065 517.4137,690.0566 C506.4128,710.3344 492.7532,714.9636 476.8655,694.978 C460.1009,716.1689 444.8135,716.7695 428.9796,693.9651 C414.7716,718.7575 394.502,722.7407 378.5205,695.6913 C362.4317,715.6951 343.6593,716.1185 328.6914,694.3541 C315.2534,712.4218 297.1936,708.2753 288.5248,689.1971 C273.9733,715.2859 259.7503,714.0832 241.7689,692.5657 C225.8291,713.7474 206.1614,716.4879 189.5459,693.3621 C172.3132,719.9344 155.8196,713.382 139.4558,692.446 C122.3098,710.7407 108.2998,708.2185 96.754,686.4735 C71.1549,711.7172 52.5866,711.336 37.0749,676.46 C42.7073,675.4978 46.6224,679.1133 44.6529,684.9424 C11.6571,670.0566 13.809,652.0143 35.6746,628.4149 C12.0177,616.9151 15.2685,594.1862 35.5798,582.5954 C15.2922,567.2431 13.9143,549.226 34.6143,533.0746 C6,514.1511 11.6471,496.2424 34.8623,477.5504 C12.7102,465.9575 8.8295,448.6027 31.5688,433.6426 C6.5653,414.8759 15.2802,393.6127 38.66,381.4153 C17.1908,363.7128 14.7238,348.0353 40.9754,332.5962 C14.4975,319.691 19.1999,297.4711 39.4403,283.1165 C18.0609,268.3542 18.746,247.7012 42.8777,236.279 C15.0607,215.064 17.143,191.9788 44.0749,171.78 C47.3347,169.6733 49.8979,171.1963 50.3269,174.8515 " fill="#FFFCFF" style="stroke:#A0439C;stroke-width:1.0;"/><text fill="#A0439C" font-family="sans-serif" font-size="13" font-weight="bold" lengthAdjust="spacing" textLength="40" x="355.0749" y="190.8469">cloud</text></g><!--cluster node--><g id="cluster_node"><polygon fill="#FFFCFF" points="328.0749,237.78,338.0749,227.78,705.0749,227.78,705.0749,363.07,695.0749,373.07,328.0749,373.07,328.0749,237.78" style="stroke:#A0439C;stroke-width:1.0;"/><line style="stroke:#A0439C;stroke-width:1.0;" x1="695.0749" x2="705.0749" y1="237.78" y2="227.78"/><line style="stroke:#A0439C;stroke-width:1.0;" x1="328.0749" x2="695.0749" y1="237.78" y2="237.78"/><line style="stroke:#A0439C;stroke-width:1.0;" x1="695.0749" x2="695.0749" y1="237.78" y2="373.07"/><text fill="#A0439C" font-family="sans-serif" font-size="13" font-weight="bold" lengthAdjust="spacing" textLength="37" x="494.0749" y="254.8469">node</text></g><!--cluster folder--><g id="cluster_folder"><path d="M487.5749,742.4 L536.5749,742.4 A3.75,3.75 0 0 1 539.0749,744.9 L546.0749,767.5328 L644.5749,767.5328 A2.5,2.5 0 0 1 647.0749,770.0328 L647.0749,1048.23 A2.5,2.5 0 0 1 644.5749,1050.73 L487.5749,1050.73 A2.5,2.5 0 0 1 485.0749,1048.23 L485.0749,744.9 A2.5,2.5 0 0 1 487.5749,742.4 " fill="#FFFCFF" style="stroke:#A0439C;stroke-width:1.5;"/><line style="stroke:#A0439C;stroke-width:1.5;" x1="485.0749" x2="546.0749" y1="767.5328" y2="767.5328"/><text fill="#A0439C" font-family="sans-serif" font-size="13" font-weight="bold" lengthAdjust="spacing" textLength="44" x="491.0749" y="758.4669">folder</text></g><!--cluster frame--><g id="cluster_frame"><rect fill="#FFFCFF" height="335.27" rx="2.5" ry="2.5" style="stroke:#A0439C;stroke-width:1.0;" width="256" x="679.0749" y="723.46"/><path d="M737.0749,723.46 L737.0749,735.5928 L727.0749,745.5928 L679.0749,745.5928 " fill="none" style="stroke:#A0439C;stroke-width:1.0;"/><text fill="#A0439C" font-family="sans-serif" font-size="13" font-weight="bold" lengthAdjust="spacing" textLength="44" x="684.0749" y="738.5269">frame</text></g><!--entity agent--><g id="elem_agent"><rect fill="#1168BD" height="39.1328" rx="2.5" ry="2.5" style="stroke:#FFFFFF;stroke-width:0.5;" width="120" x="200.0749" y="208.22"/><text fill="#FFFFFF" font-family="sans-serif" font-size="13" lengthAdjust="spacing" textLength="37" x="241.5749" y="232.2869">agent</text></g><!--entity boundary--><g id="elem_boundary"><path d="M141.5749,628.33 L141.5749,652.33 M141.5749,640.33 L158.5749,640.33 " fill="none" style="stroke:#08427B;stroke-width:0.5;"/><ellipse cx="170.5749" cy="640.33" fill="#FFFFFF" rx="12" ry="12" style="stroke:#08427B;stroke-width:0.5;"/><text fill="#08427B" font-family="sans-serif" font-size="13" lengthAdjust="spacing" textLength="60" x="132.0749" y="670.3969">boundary</text></g><!--entity card--><g id="elem_card"><rect fill="#1168BD" height="25.1328" rx="2.5" ry="2.5" style="stroke:#FFFFFF;stroke-width:0.5;" width="120" x="562.0749" y="532.2"/><text fill="#FFFFFF" font-family="sans-serif" font-size="13" lengthAdjust="spacing" textLength="28" x="608.0749" y="549.2669">card</text></g><!--entity collections--><g id="elem_collections"><rect fill="#08427B" height="35.1328" rx="2.5" ry="2.5" style="stroke:#FFFFFF;stroke-width:0.5;" width="116" x="566.0749" y="425.57"/><rect fill="#08427B" height="35.1328" rx="2.5" ry="2.5" style="stroke:#FFFFFF;stroke-width:0.5;" width="116" x="562.0749" y="421.57"/><text fill="#FFFFFF" font-family="sans-serif" font-size="13" lengthAdjust="spacing" textLength="67" x="586.5749" y="443.6369">collections</text></g><!--entity control--><g id="elem_control"><ellipse cx="297.0749" cy="640.33" fill="#FFFFFF" rx="12" ry="12" style="stroke:#08427B;stroke-width:0.5;"/><polygon fill="#08427B" points="293.0749,628.33,299.0749,623.33,297.0749,628.33,299.0749,633.33,293.0749,628.33" style="stroke:#08427B;stroke-width:1.0;"/><text fill="#08427B" font-family="sans-serif" font-size="13" lengthAdjust="spacing" textLength="44" x="275.0749" y="670.3969">control</text></g><!--entity database--><g id="elem_database"><path d="M407.0749,427.07 C407.0749,417.07 467.0749,417.07 467.0749,417.07 C467.0749,417.07 527.0749,417.07 527.0749,427.07 L527.0749,455.2028 C527.0749,465.2028 467.0749,465.2028 467.0749,465.2028 C467.0749,465.2028 407.0749,465.2028 407.0749,455.2028 L407.0749,427.07 " fill="#08427B" style="stroke:#FFFFFF;stroke-width:0.5;"/><path d="M407.0749,427.07 C407.0749,437.07 467.0749,437.07 467.0749,437.07 C467.0749,437.07 527.0749,437.07 527.0749,427.07 " fill="none" style="stroke:#FFFFFF;stroke-width:0.5;"/><text fill="#FFFFFF" font-family="sans-serif" font-size="13" lengthAdjust="spacing" textLength="60" x="437.0749" y="455.1369">database</text></g><!--entity entity--><g id="elem_entity"><ellipse cx="432.0749" cy="640.33" fill="#FFFFFF" rx="12" ry="12" style="stroke:#08427B;stroke-width:0.5;"/><line style="stroke:#08427B;stroke-width:0.5;" x1="420.0749" x2="444.0749" y1="654.33" y2="654.33"/><text fill="#08427B" font-family="sans-serif" font-size="13" lengthAdjust="spacing" textLength="36" x="414.0749" y="670.3969">entity</text></g><!--entity label--><g id="elem_label"><text fill="#FFFFFF" font-family="sans-serif" font-size="14" lengthAdjust="spacing" textLength="32" x="89.0749" y="232.6351">label</text></g><!--entity queue--><g id="elem_queue"><path d="M249.0749,426.57 L359.0749,426.57 C364.0749,426.57 364.0749,441.1364 364.0749,441.1364 C364.0749,441.1364 364.0749,455.7028 359.0749,455.7028 L249.0749,455.7028 C244.0749,455.7028 244.0749,441.1364 244.0749,441.1364 C244.0749,441.1364 244.0749,426.57 249.0749,426.57 " fill="#08427B" style="stroke:#FFFFFF;stroke-width:0.5;"/><path d="M359.0749,426.57 C354.0749,426.57 354.0749,441.1364 354.0749,441.1364 C354.0749,455.7028 359.0749,455.7028 359.0749,455.7028 " fill="none" style="stroke:#FFFFFF;stroke-width:0.5;"/><text fill="#FFFFFF" font-family="sans-serif" font-size="13" lengthAdjust="spacing" textLength="40" x="279.0749" y="445.6369">queue</text></g><!--entity stack--><g id="elem_stack"><rect fill="#1168BD" height="39.1328" rx="2.5" ry="2.5" style="stroke:none;stroke-width:0.5;" width="120" x="237.0749" y="525.2"/><path d="M222.0749,525.2 L234.5749,525.2 A2.5,2.5 0 0 1 237.0749,527.7 L237.0749,561.8328 A2.5,2.5 0 0 0 239.5749,564.3328 L354.5749,564.3328 A2.5,2.5 0 0 0 357.0749,561.8328 L357.0749,527.7 A2.5,2.5 0 0 1 359.5749,525.2 L372.0749,525.2 " fill="none" style="stroke:#FFFFFF;stroke-width:0.5;"/><text fill="#FFFFFF" font-family="sans-serif" font-size="13" lengthAdjust="spacing" textLength="34" x="280.0749" y="549.2669">stack</text></g><!--entity storage--><g id="elem_storage"><rect fill="#1168BD" height="39.1328" rx="35" ry="35" style="stroke:#FFFFFF;stroke-width:0.5;" width="120" x="407.0749" y="525.2"/><text fill="#FFFFFF" font-family="sans-serif" font-size="13" lengthAdjust="spacing" textLength="49" x="442.5749" y="549.2669">storage</text></g><text fill="#FFFFFF" font-family="sans-serif" font-size="14" lengthAdjust="spacing" textLength="37" x="363.5749" y="204.4782">port1</text><rect fill="#F1F1F1" height="12" style="stroke:#181818;stroke-width:1.5;" width="12" x="376.0749" y="221.78"/><text fill="#FFFFFF" font-family="sans-serif" font-size="14" lengthAdjust="spacing" textLength="37" x="452.5749" y="204.4782">port2</text><rect fill="#F1F1F1" height="12" style="stroke:#181818;stroke-width:1.5;" width="12" x="465.0749" y="221.78"/><!--entity component--><g id="elem_component"><rect fill="#1168BD" height="49.1328" rx="2.5" ry="2.5" style="stroke:#FFFFFF;stroke-width:0.5;" width="140" x="397.0749" y="307.93"/><rect fill="#1168BD" height="10" style="stroke:#FFFFFF;stroke-width:0.5;" width="15" x="517.0749" y="312.93"/><rect fill="#1168BD" height="2" style="stroke:#FFFFFF;stroke-width:0.5;" width="4" x="515.0749" y="314.93"/><rect fill="#1168BD" height="2" style="stroke:#FFFFFF;stroke-width:0.5;" width="4" x="515.0749" y="318.93"/><text fill="#FFFFFF" font-family="sans-serif" font-size="13" lengthAdjust="spacing" textLength="73" x="425.5749" y="341.9969">component</text></g><!--entity interface--><g id="elem_interface"><ellipse cx="353.0749" cy="332.5" fill="#E18114" rx="8" ry="8" style="stroke:#E18114;stroke-width:0.5;"/><text fill="#E18114" font-family="sans-serif" font-size="13" lengthAdjust="spacing" textLength="56" x="325.0749" y="363.5669">interface</text></g><!--entity package--><g id="elem_package"><path d="M503.5749,780.4 L604.5749,780.4 A3.75,3.75 0 0 1 607.0749,782.9 L614.0749,805.5328 L628.5749,805.5328 A2.5,2.5 0 0 1 631.0749,808.0328 L631.0749,820.0328 A2.5,2.5 0 0 1 628.5749,822.5328 L503.5749,822.5328 A2.5,2.5 0 0 1 501.0749,820.0328 L501.0749,782.9 A2.5,2.5 0 0 1 503.5749,780.4 " fill="#FFFCFF" style="stroke:#A0439C;stroke-width:0.5;"/><line style="stroke:#A0439C;stroke-width:0.5;" x1="501.0749" x2="614.0749" y1="805.5328" y2="805.5328"/><text fill="#A0439C" font-family="sans-serif" font-size="13" lengthAdjust="spacing" textLength="54" x="528.0749" y="797.4669">package</text></g><!--entity artifact--><g id="elem_artifact"><rect fill="#1168BD" height="42.1328" rx="2.5" ry="2.5" style="stroke:#FFFFFF;stroke-width:0.5;" width="130" x="501.0749" y="893.46"/><polygon fill="#1168BD" points="614.0749,898.46,614.0749,912.46,626.0749,912.46,626.0749,904.46,620.0749,898.46,614.0749,898.46" style="stroke:#FFFFFF;stroke-width:0.5;"/><line style="stroke:#FFFFFF;stroke-width:0.5;" x1="620.0749" x2="620.0749" y1="898.46" y2="904.46"/><line style="stroke:#FFFFFF;stroke-width:0.5;" x1="626.0749" x2="620.0749" y1="904.46" y2="904.46"/><text fill="#FFFFFF" font-family="sans-serif" font-size="13" lengthAdjust="spacing" textLength="45" x="538.5749" y="920.5269">artifact</text></g><!--entity file--><g id="elem_file"><path d="M506.0749,998.1 L506.0749,1032.2328 A2.5,2.5 0 0 0 508.5749,1034.7328 L623.5749,1034.7328 A2.5,2.5 0 0 0 626.0749,1032.2328 L626.0749,1005.6 L616.0749,995.6 L508.5749,995.6 A2.5,2.5 0 0 0 506.0749,998.1 " fill="#1168BD" style="stroke:#FFFFFF;stroke-width:0.5;"/><path d="M616.0749,995.6 L616.0749,1003.1 A2.5,2.5 0 0 0 618.5749,1005.6 L626.0749,1005.6 " fill="#1168BD" style="stroke:#FFFFFF;stroke-width:0.5;"/><text fill="#FFFFFF" font-family="sans-serif" font-size="13" lengthAdjust="spacing" textLength="18" x="557.0749" y="1019.6669">file</text></g><!--entity circle--><g id="elem_circle"><ellipse cx="811.0749" cy="801.46" fill="#E18114" rx="8" ry="8" style="stroke:#E18114;stroke-width:0.5;"/><text fill="#E18114" font-family="sans-serif" font-size="13" lengthAdjust="spacing" textLength="33" x="794.5749" y="832.5269">circle</text></g><!--entity hexagon--><g id="elem_hexagon"><polygon fill="#E18114" points="911.0749,914.53,861.0749,899.96,761.0749,899.96,711.0749,914.53,761.0749,929.1,861.0749,929.1,911.0749,914.53" style="stroke:#E18114;stroke-width:0.5;"/><text fill="#FFFFFF" font-family="sans-serif" font-size="13" lengthAdjust="spacing" textLength="55" x="783.5749" y="919.0269">hexagon</text></g><!--entity rectangle--><g id="elem_rectangle"><rect fill="#E18114" height="39.1328" rx="2.5" ry="2.5" style="stroke:#E18114;stroke-width:0.5;" width="120" x="751.0749" y="995.6"/><text fill="#FFFFFF" font-family="sans-serif" font-size="13" lengthAdjust="spacing" textLength="60" x="781.0749" y="1019.6669">rectangle</text></g><!--entity actor--><g id="elem_actor"><ellipse cx="277.0749" cy="22" fill="#08427B" rx="16" ry="16" style="stroke:#FFFFFF;stroke-width:1.5;"/><path d="M277.0749,42 C281.0749,42 284.0749,42 288.0749,38 C296.0749,38 304.0749,46 304.0749,54 L304.0749,58 C304.0749,62 300.0749,66 296.0749,66 L258.0749,66 C254.0749,66 250.0749,62 250.0749,58 L250.0749,54 C250.0749,46 258.0749,38 266.0749,38 C270.0749,42 273.0749,42 277.0749,42 " fill="#08427B" style="stroke:#FFFFFF;stroke-width:1.5;"/><text fill="#08427B" font-family="sans-serif" font-size="13" lengthAdjust="spacing" textLength="33" x="260.5749" y="81.5669">actor</text></g><g id="elem_usecase"><ellipse cx="424.0708" cy="45.5652" fill="#1168BD" rx="61.9759" ry="14.7952" style="stroke:#FFFFFF;stroke-width:0.5;"/><text fill="#FFFFFF" font-family="sans-serif" font-size="13" lengthAdjust="spacing" textLength="53" x="397.5708" y="48.0657">usecase</text></g><!--link actor to usecase--><g id="link_actor_usecase"><path d="M327.3149,45.57 C338.7849,45.57 350.2449,45.57 361.7149,45.57 " fill="none" id="actor-usecase" style="stroke:#E91E63;stroke-width:1.0;"/></g><!--link component to interface--><g id="link_component_interface"><path d="M396.7649,332.5 C385.3149,332.5 373.8749,332.5 362.4249,332.5 " fill="none" id="component-interface" style="stroke:#E91E63;stroke-width:1.0;"/></g><!--link stack to boundary--><g id="link_stack_boundary"><path d="M272.3149,564.68 C250.5449,581.31 218.6949,605.64 194.8249,623.88 " fill="none" id="stack-boundary" style="stroke:#E91E63;stroke-width:1.0;"/></g><!--link stack to control--><g id="link_stack_control"><path d="M297.0749,564.68 C297.0749,581.31 297.0749,605.64 297.0749,623.88 " fill="none" id="stack-control" style="stroke:#E91E63;stroke-width:1.0;"/></g><!--link stack to entity--><g id="link_stack_entity"><path d="M321.8349,564.68 C343.6049,581.31 375.4549,605.64 399.3249,623.88 " fill="none" id="stack-entity" style="stroke:#E91E63;stroke-width:1.0;"/></g><!--link component to database--><g id="link_component_database"><path d="M467.0749,357.43 C467.0749,375.11 467.0749,399.07 467.0749,416.65 " fill="none" id="component-database" style="stroke:#E91E63;stroke-width:1.0;"/></g><!--link database to storage--><g id="link_database_storage"><path d="M467.0749,465.45 C467.0749,478.99 467.0749,496.25 467.0749,511.12 " fill="none" id="database-to-storage" style="stroke:#E91E63;stroke-width:1.0;"/><polygon fill="#E91E63" points="467.0749,523.97,471.0749,517.97,467.0749,511.97,463.0749,517.97,467.0749,523.97" style="stroke:#E91E63;stroke-width:1.0;"/></g><!--link component to queue--><g id="link_component_queue"><path d="M430.4949,357.43 C398.2049,378.55 352.2349,408.63 325.5449,426.09 " fill="none" id="component-queue" style="stroke:#E91E63;stroke-width:1.0;"/></g><!--link queue to stack--><g id="link_queue_stack"><path d="M303.1349,455.84 C302.1649,469.86 300.6249,492.18 299.3449,510.81 " fill="none" id="queue-to-stack" style="stroke:#E91E63;stroke-width:1.0;"/><polygon fill="none" points="298.3849,523.75,302.7906,518.0413,299.2155,511.7788,294.8098,517.4875,298.3849,523.75" style="stroke:#E91E63;stroke-width:1.0;"/></g><!--link component to collections--><g id="link_component_collections"><path d="M501.8649,357.43 C529.8849,376.71 568.7549,403.45 594.6149,421.24 " fill="none" id="component-collections" style="stroke:#E91E63;stroke-width:1.0;"/></g><!--reverse link collections to card--><g id="link_collections_card"><path d="M622.0749,466.64 C622.0749,487.31 622.0749,515.99 622.0749,531.91 " fill="none" id="collections-backto-card" style="stroke:#E91E63;stroke-width:1.0;"/><ellipse cx="622.0749" cy="461.77" fill="none" rx="6" ry="6" style="stroke:#E91E63;stroke-width:1.5;"/><path d="M615.0039,468.8411 A10,10 0 0 0 629.146 468.8411" fill="none" style="stroke:#E91E63;stroke-width:1.5;"/></g><!--link actor to agent--><g id="link_actor_agent"><path d="M262.4149,87.01 C256.0349,122.43 251.8849,172.72 253.3149,202.33 " fill="none" id="actor-to-agent" style="stroke:#E91E63;stroke-width:1.0;"/><polygon fill="#E91E63" points="253.6749,206.97,257.1008,197.7362,253.3604,201.9799,249.1167,198.2395,253.6749,206.97" style="stroke:#E91E63;stroke-width:1.0;"/><ellipse cx="254.9362" cy="146.8488" fill="none" rx="10" ry="10" style="stroke:none;stroke-width:1.0;"/><path d="M247.3237,153.3334 A10,10 0 0 0 261.4208 154.4612" fill="none" style="stroke:#E91E63;stroke-width:1.5;"/><path d="M262.5487,140.3641 A10,10 0 0 0 248.4516 139.2363" fill="none" style="stroke:#E91E63;stroke-width:1.5;"/><ellipse cx="254.9362" cy="146.8488" fill="none" rx="6" ry="6" style="stroke:#E91E63;stroke-width:1.5;"/></g><!--link actor to agent--><g id="link_actor_agent"><path d="M284.7449,87.01 C284.6249,121.25 279.5949,169.39 272.7049,199.3 " fill="none" id="actor-to-agent-1" style="stroke:#E91E63;stroke-width:1.0;"/><polygon fill="#E91E63" points="270.5049,206.97,275.3709,199.947,269.5532,198.4792,270.5049,206.97" style="stroke:#E91E63;stroke-width:1.0;"/></g><!--link actor to port1--><g id="link_actor_port1"><path d="M307.0349,86.93 C321.2949,107.06 338.0349,132.11 351.0749,155.78 C364.1849,179.58 375.9049,210.03 380.2649,221.82 " fill="none" id="actor-port1" style="stroke:#E91E63;stroke-width:1.0;"/></g><!--link actor to port2--><g id="link_actor_port2"><path d="M327.3849,76.62 C358.1649,96.57 397.0549,124.74 426.0749,155.78 C446.4049,177.54 462.9049,209.71 468.7749,221.88 " fill="none" id="actor-port2" style="stroke:#E91E63;stroke-width:1.0;"/></g><!--link agent to interface--><g id="link_agent_interface"><path d="M277.1349,247.62 C297.4749,270.1 330.5949,306.68 345.4449,323.08 " fill="none" id="agent-interface" style="stroke:#E91E63;stroke-width:1.0;"/></g><!--link package to artifact--><g id="link_package_artifact"><path d="M566.0749,822.84 C566.0749,842.88 566.0749,873.29 566.0749,893.29 " fill="none" id="package-artifact" style="stroke:#E91E63;stroke-width:1.0;"/></g><!--link artifact to file--><g id="link_artifact_file"><path d="M566.0749,935.97 C566.0749,953.46 566.0749,978.44 566.0749,995.42 " fill="none" id="artifact-file" style="stroke:#E91E63;stroke-width:1.0;"/></g><!--link card to package--><g id="link_card_package"><path d="M619.4449,557.71 C610.5849,598.03 581.6949,729.44 570.5349,780.2 " fill="none" id="card-package" style="stroke:#E91E63;stroke-width:1.0;"/></g><!--link hexagon to rectangle--><g id="link_hexagon_rectangle"><path d="M811.0749,934.83 C811.0749,950.36 811.0749,972.32 811.0749,989.19 " fill="none" id="hexagon-rectangle" style="stroke:#E91E63;stroke-width:2.0;"/><ellipse cx="811.0749" cy="936.25" fill="none" rx="6" ry="6" style="stroke:#E91E63;stroke-width:1.5;"/><ellipse cx="811.0749" cy="988.16" fill="#E91E63" rx="6" ry="6" style="stroke:#E91E63;stroke-width:1.5;"/></g><!--link circle to hexagon--><g id="link_circle_hexagon"><path d="M811.0749,810.45 C811.0749,827.69 811.0749,868.83 811.0749,893.61 " fill="none" id="circle-to-hexagon" style="stroke:#E91E63;stroke-width:1.0;stroke-dasharray:7.0,7.0;"/><rect fill="none" height="10" style="stroke:#E91E63;stroke-width:1.5;" width="10" x="806.0749" y="893.53"/></g><!--link card to frame--><g id="link_card_frame"><path d="M625.1249,557.71 C631.4499,582.495 646.5549,641.69 660.2649,695.4175 C667.1199,722.2813 673.6262,747.7781 678.5118,766.9234 C678.6645,767.5217 678.8156,768.1138 678.9651,768.6996 " fill="none" id="card-frame" style="stroke:#E91E63;stroke-width:1.0;"/></g><!--SRC=[lHbfSzksyZj_1QnuHjORoR5anLVZzDcod6J6SLBBQIUVN8W49TGKeHAWPRUJ__vs0P02BnzjviKJ7jZ5NjYJQfE9UeXuF2EIAGLtIKAHa2yHZTNNJnSau7IMq8NqscJ269ahjJnw_Ng9u7GHRKkH9Zw37JEs7JEbzmR2JnSiLbHn4SE-Qq5c0A8aub8H4PAba99F8qRaBO-N5CZdpBiaIUCZaj4dFNYOfNJ6W0wGzXD65GDIkNmX1pehhkRaZnIe_vwJP8ebydSFzeq-Nto-ci33yJF_uQOPYrb28-ABI2HWaqGiY5Z5H8Arc9mpfhoDJMkScodrRsU9IEFWHkEJOz9I2OqbI0A6QBce8WbOiaPx5OQX2ry33dRm3s4qISJAWR33FjlRHGWStAq3s1qU7foTjb3-1Rq5EmKB4NCyXamFUaTvHD7sU58iOdXG4YZvD4KyXnZT6UuU-Yq7LW1RkVbYAH85X-60Wjr1E2X1w_R6GZ5dTT3VPsm_1zJjK7pfB0xxD1pkPUjr-2kQnE1Mhktw1_t-q8LLzu7vOX6mctxNt0U4nW51eOW2iyR66qP3xGn0GakC-3SBobrgEmV3mVwqbS47PNY_ltSm3HmuJUy7DUTfBLBQVNXug6LDPTr9u_aADMU5Kux4ZFj5EaKR0GuwyhA4K_0ExQrt7DsuY9MVZkTjB1FXio1D6B5CTU1iRTxHvBZVyGZPjCRJIrrI4Qr-gNne7U9ji3Z8kHKv6rKSpiCwpcM5wvVAGT254pW_Fn-TdxSwZycGcUef_QicRLfqdVrn_QrNFiMwuhnT6mbmnzipc0oUnsJGp6IDiWw2fnYhvsbN29qdTOD2T_tjOam-Z2- -ZFz1tL04-79T_4nXCl6nf17KE7O4E9ie3HIvX2zeye0bpDQPBb4FI-xJA7eWwvg2Ey0ca8tmDZY2O0_QaRDD5lRf0jCbD88268COTwn4IyH8IiH0IR5xLKC3vTEmBf7fScdo1uWAktFT96hIxv24pTA89cGhO25D8zM1vK67n5210NO7HPW5P0jg3ek8I9K4VqQKtKu6BKetx42RC9khukgRZjKBRlT0JOYbrX0fxNN8zlPsqJLS5pX6RL6ZRcv6Om4qvd7hbU_xBMCFUDdRsskX4stma9ZTnws1NY7aD9Tef4zK4pKGBPjTHHvwzLp4gemvWKDX0YpDgj0D5adcyDrjufjpAF3DUVnBliDcheCNQLlMvyqFjEC7HW7JWS2Hrh3SQs9fq7y0nmpGT4WbYVPVPDn7ZhIiwS6FrhI1aERxRuynawdMAv-mQoP67F3GCrGd_2z6-hlLHFv-V3c-EhaWa_7rzSVBzo_BvHkRKn4yt8J0u2Qa2mvv4Rek2LrzJxA4Gv_O9epwywo_8ZwDTVhdIkfH0KMxX3JOpOMqJrYmVi9-4ZCvmyvovNdhMQYYSjEOuUmvCoW5ozUD7CwM3s3s10S8YxwU9S1qQpJeAuK_XuONcjyaPGu1EQU1ME7e659q2eSqzCkhX4EvYokmBw0pxXcuJAvGALyaC7EHDxe4ctaG9hq5Z_aYNK0f3R2MWetrQ2FPdocBVPODg51V4yLzleHXGn8e4BSWUOB51IP5y0X70g0uYgYKlscA_PqTr_XdfegHlxs2ny9CQpp168ZaXqigNf8v9Puo76soe14iNKCrFO7A5XjNWGjBlEykvnESyZJVB7BMOrzH61TG87698mfIAFP67SHgaw-JCHcTJCOlYW97Fby1SqlTwIi7c7ZQv9CUE177cZ_Yi01zn6Ze4MAiGLTCWYCLXVugcKybSoWFNBbTp_5lwSmYkgszrUzaTFtnru_Nt_wvVj1jguTQGRGAu67s12eTCy37URpMGKzf5fRbgQRa1LOA26Y8lC08uqvG5QE0s-jUizuiQyp9YYyW5gpzYcD90-erLr4j_fur-MJyozVnvUXbBjNMddG48SpmyCa8JpyBOpeLTwoYe8dh6kV31Z1FASETeXgdc5MmmwxksorfF8BeIaJq3Cnnh8fEKaHiau0gEaMLzBBv8iQMaNZGaPzzJ-jgzQ5WuGSnDUTIVyc2xOXFoKeajrIdUhrGpdRIpLWPlwf8_OgMKSHytRtNshA0_4lAKlOqsiIATi531YMaBext6xQSiOW-rBdNe6c3mNgE1ziTxp4Uga7qfW7zYeNGaQ2XAz5qW6dErDVhEVTlOoObwTUJEOKXfK9WMF1LQ5UqjpmxR5uIOO1yDlvoyVdRf_7bzGi7s59m-avmOWsnIuq8DadNmybMoEz_HZjaeMdm9YNtne-s9Y0RuIOC6y7QUHkWQ1qRC_KOQp6TW7aSrStWCrP8LKtL36RVB6i_5bydaFv2gAjFKno9nLB4ps9-pgDd5DmHJOAdiIRWBtbPVfHS9DAWDYwAik77-oUhsIKmQkm4_3dpRyrt1FnaiFwIu4eDgqqojmaK7QQj3ibNC_ZPbL14UHPwHCGFx9xEiYD-f8H_n5uGcB4gPhduV9x-mHfS0NBBYL89dwQADVIARRT9AG7SxgQnlxm2vZIUHQn19vqV0jFqGViTmAnuLBVzxTkfZVztxwgazYeEHXNxF-lSrXMuPqhm4Mf4Qwfu5oetMnTy_SqBAZcSkH9BKzYX3NXOJ4K453MHSYNlmhY8UwOiWkwVgvyC8lvy5EY-ZaRPpmojBbbXFernSWoun04fvN8EUzMAmQW5t33tWJKi8e5UAacWIXf1x0zz-fU1U9t2SFucgKGGeiLivQ8kg0AQMv3y5X9b3GIJUdP50vdk9jCVv5xRo4wav86fZlTMdzWxE4APbt83_blF-e7RmvG-5jHrquHyz_3_szUMi1uypFZXfNQWi7SBw-NldgyJaP-d8qAepjdwgjypzymVzAgF-H0lvirfffnd2pFjfBqNTSmUz2epxQIvwHNpgLHVzJlgRowPSGZ1NzNqfLzT6dZvcfzNXFmfX_4yw-HFDVjw9UXtVVrJjuRwgj-bJgRwQjzDIR1tpq7gzOespLTTK-MBrYnUIQXUqOQvPNkz_-GyArlMuXhnUptXY5n0hHxd-gXtEeY0JW1fmhfMRmjMtrd_oTPwxyehziGAhmFF-5xFjRGNcWeJhWiD7B0TV-tT-6tM76GFUbN_9gx72NSVS2XWvNi1e9517-tXFHJDCl52NOt3l2Q3CNZY0trpqojpM-ZiNQybUQd8dmguEyV7_os1BE7jxLSv9LSaBSF_0000]--></g></svg>