<svg aria-roledescription="gitGraph" role="graphics-document document" viewBox="-130.80813598632812 -35.20000076293945 888.80810546875 280.0357360839844" height="280.0357360839844" xmlns="http://www.w3.org/2000/svg" width="888.80810546875" id="container"><style>#container{font-family:"trebuchet ms",verdana,arial,sans-serif;font-size:16px;fill:#333;}#container .error-icon{fill:#552222;}#container .error-text{fill:#552222;stroke:#552222;}#container .edge-thickness-normal{stroke-width:2px;}#container .edge-thickness-thick{stroke-width:3.5px;}#container .edge-pattern-solid{stroke-dasharray:0;}#container .edge-pattern-dashed{stroke-dasharray:3;}#container .edge-pattern-dotted{stroke-dasharray:2;}#container .marker{fill:#333333;stroke:#333333;}#container .marker.cross{stroke:#333333;}#container svg{font-family:"trebuchet ms",verdana,arial,sans-serif;font-size:16px;}#container .commit-id,#container .commit-msg,#container .branch-label{fill:lightgrey;color:lightgrey;font-family:'trebuchet ms',verdana,arial,sans-serif;font-family:var(--mermaid-font-family);}#container .branch-label0{fill:#ffffff;}#container .commit0{stroke:hsl(240, 100%, 46.2745098039%);fill:hsl(240, 100%, 46.2745098039%);}#container .commit-highlight0{stroke:hsl(60, 100%, 3.7254901961%);fill:hsl(60, 100%, 3.7254901961%);}#container .label0{fill:hsl(240, 100%, 46.2745098039%);}#container .arrow0{stroke:hsl(240, 100%, 46.2745098039%);}#container .branch-label1{fill:black;}#container .commit1{stroke:hsl(60, 100%, 43.5294117647%);fill:hsl(60, 100%, 43.5294117647%);}#container .commit-highlight1{stroke:rgb(0, 0, 160.5);fill:rgb(0, 0, 160.5);}#container .label1{fill:hsl(60, 100%, 43.5294117647%);}#container .arrow1{stroke:hsl(60, 100%, 43.5294117647%);}#container .branch-label2{fill:black;}#container .commit2{stroke:hsl(80, 100%, 46.2745098039%);fill:hsl(80, 100%, 46.2745098039%);}#container .commit-highlight2{stroke:rgb(48.8333333334, 0, 146.5000000001);fill:rgb(48.8333333334, 0, 146.5000000001);}#container .label2{fill:hsl(80, 100%, 46.2745098039%);}#container .arrow2{stroke:hsl(80, 100%, 46.2745098039%);}#container .branch-label3{fill:#ffffff;}#container .commit3{stroke:hsl(210, 100%, 46.2745098039%);fill:hsl(210, 100%, 46.2745098039%);}#container .commit-highlight3{stroke:rgb(146.5000000001, 73.2500000001, 0);fill:rgb(146.5000000001, 73.2500000001, 0);}#container .label3{fill:hsl(210, 100%, 46.2745098039%);}#container .arrow3{stroke:hsl(210, 100%, 46.2745098039%);}#container .branch-label4{fill:black;}#container .commit4{stroke:hsl(180, 100%, 46.2745098039%);fill:hsl(180, 100%, 46.2745098039%);}#container .commit-highlight4{stroke:rgb(146.5000000001, 0, 0);fill:rgb(146.5000000001, 0, 0);}#container .label4{fill:hsl(180, 100%, 46.2745098039%);}#container .arrow4{stroke:hsl(180, 100%, 46.2745098039%);}#container .branch-label5{fill:black;}#container .commit5{stroke:hsl(150, 100%, 46.2745098039%);fill:hsl(150, 100%, 46.2745098039%);}#container .commit-highlight5{stroke:rgb(146.5000000001, 0, 73.2500000001);fill:rgb(146.5000000001, 0, 73.2500000001);}#container .label5{fill:hsl(150, 100%, 46.2745098039%);}#container .arrow5{stroke:hsl(150, 100%, 46.2745098039%);}#container .branch-label6{fill:black;}#container .commit6{stroke:hsl(300, 100%, 46.2745098039%);fill:hsl(300, 100%, 46.2745098039%);}#container .commit-highlight6{stroke:rgb(0, 146.5000000001, 0);fill:rgb(0, 146.5000000001, 0);}#container .label6{fill:hsl(300, 100%, 46.2745098039%);}#container .arrow6{stroke:hsl(300, 100%, 46.2745098039%);}#container .branch-label7{fill:black;}#container .commit7{stroke:hsl(0, 100%, 46.2745098039%);fill:hsl(0, 100%, 46.2745098039%);}#container .commit-highlight7{stroke:rgb(0, 146.5000000001, 146.5000000001);fill:rgb(0, 146.5000000001, 146.5000000001);}#container .label7{fill:hsl(0, 100%, 46.2745098039%);}#container .arrow7{stroke:hsl(0, 100%, 46.2745098039%);}#container .branch{stroke-width:1;stroke:#333333;stroke-dasharray:2;}#container .commit-label{font-size:10px;fill:#000021;}#container .commit-label-bkg{font-size:10px;fill:#ffffde;opacity:0.5;}#container .tag-label{font-size:10px;fill:#131300;}#container .tag-label-bkg{fill:#ECECFF;stroke:hsl(240, 60%, 86.2745098039%);}#container .tag-hole{fill:#333;}#container .commit-merge{stroke:#ECECFF;fill:#ECECFF;}#container .commit-reverse{stroke:#ECECFF;fill:#ECECFF;stroke-width:3;}#container .commit-highlight-inner{stroke:#ECECFF;fill:#ECECFF;}#container .arrow{stroke-width:8;stroke-linecap:round;fill:none;}#container .gitTitleText{text-anchor:middle;font-size:18px;fill:#333;}:root{--mermaid-font-family:"trebuchet ms",verdana,arial,sans-serif;}</style><g></g><g class="commit-bullets"></g><g class="commit-labels"></g><g><line class="branch branch0" y2="0" x2="750" y1="0" x1="0"></line><rect transform="translate(-19, -9.5)" height="23" width="54.3125" y="-1.5" x="-70.3125" ry="4" rx="4" class="branchLabelBkg label0"></rect><g class="branchLabel"><g transform="translate(-80.3125, -10.5)" class="label branch-label0"><text><tspan class="row" x="0" dy="1em" xml:space="preserve">main</tspan></text></g></g><line class="branch branch1" y2="90" x2="750" y1="90" x1="0"></line><rect transform="translate(-19, 80.5)" height="23" width="76.21875" y="-1.5" x="-92.21875" ry="4" rx="4" class="branchLabelBkg label1"></rect><g class="branchLabel"><g transform="translate(-102.21875, 79.5)" class="label branch-label1"><text><tspan class="row" x="0" dy="1em" xml:space="preserve">develop</tspan></text></g></g><line class="branch branch2" y2="180" x2="750" y1="180" x1="0"></line><rect transform="translate(-19, 170.5)" height="23" width="87.80813598632812" y="-1.5" x="-103.80813598632812" ry="4" rx="4" class="branchLabelBkg label2"></rect><g class="branchLabel"><g transform="translate(-113.80813598632812, 169.5)" class="label branch-label2"><text><tspan class="row" x="0" dy="1em" xml:space="preserve">feature/A</tspan></text></g></g></g><g class="commit-arrows"><path class="arrow arrow0" d="M 10 0 L 10 0  10 0 L 60 0"></path><path class="arrow arrow1" d="M 60 0 L 60 70 A 20 20, 0, 0, 0, 80 90 L 110 90"></path><path class="arrow arrow2" d="M 110 90 L 110 160 A 20 20, 0, 0, 0, 130 180 L 160 180"></path><path class="arrow arrow2" d="M 160 180 L 160 180  160 180 L 210 180"></path><path class="arrow arrow0" d="M 60 0 L 60 0  60 0 L 260 0"></path><path class="arrow arrow2" d="M 210 180 L 210 180  210 180 L 310 180"></path><path class="arrow arrow1" d="M 110 90 L 110 90  110 90 L 360 90"></path><path class="arrow arrow1" d="M 260 0 L 260 70 A 20 20, 0, 0, 0, 280 90 L 360 90"></path><path class="arrow arrow1" d="M 360 90 L 360 90  360 90 L 410 90"></path><path class="arrow arrow1" d="M 310 180 L 310 145 A 10 10, 0, 0, 1, 320 135 L 400 135 A 10 10, 0, 0, 0, 410 125 L 410 90"></path><path class="arrow arrow1" d="M 410 90 L 410 90  410 90 L 460 90"></path><path class="arrow arrow0" d="M 260 0 L 260 0  260 0 L 510 0"></path><path class="arrow arrow1" d="M 460 90 L 490 90 A 20 20, 0, 0, 0, 510 70 L 510 0"></path><path class="arrow arrow0" d="M 510 0 L 510 0  510 0 L 560 0"></path><path class="arrow arrow0" d="M 560 0 L 560 0  560 0 L 610 0"></path><path class="arrow arrow1" d="M 460 90 L 460 90  460 90 L 660 90"></path><path class="arrow arrow1" d="M 660 90 L 660 90  660 90 L 710 90"></path></g><g class="commit-bullets"><circle class="commit 0-0e15859 commit0" r="10" cy="0" cx="10"></circle><circle class="commit Normal commit0" r="10" cy="0" cx="60"></circle><circle class="commit 2-eebb8cc commit1" r="10" cy="90" cx="110"></circle><circle class="commit 3-029bc82 commit2" r="10" cy="180" cx="160"></circle><circle class="commit 4-f2439f5 commit2" r="10" cy="180" cx="210"></circle><circle class="commit 5-69fc885 commit0" r="10" cy="0" cx="260"></circle><circle class="commit 6-f068473 commit2" r="10" cy="180" cx="310"></circle><circle class="commit 7-dcee5cd commit1" r="9" cy="90" cx="360"></circle><circle class="commit commit-merge 7-dcee5cd commit1" r="6" cy="90" cx="360"></circle><circle class="commit 8-684601a commit1" r="9" cy="90" cx="410"></circle><circle class="commit commit-merge 8-684601a commit1" r="6" cy="90" cx="410"></circle><circle class="commit 9-568bf8f commit1" r="10" cy="90" cx="460"></circle><circle class="commit 10-cc5748a commit0" r="9" cy="0" cx="510"></circle><circle class="commit commit-merge 10-cc5748a commit0" r="6" cy="0" cx="510"></circle><circle class="commit 11-ef1889b commit0" r="10" cy="0" cx="560"></circle><circle class="commit 12-b650bb0 commit0" r="10" cy="0" cx="610"></circle><circle class="commit 13-99f9db2 commit1" r="10" cy="90" cx="660"></circle><circle class="commit 14-5e37a65 commit1" r="10" cy="90" cx="710"></circle></g><g class="commit-labels"><g transform="translate(-28.441562500000003, 25.3371875) rotate(-45, 0, 0)"><rect height="16" width="49.109375" y="13.5" x="-14.5546875" class="commit-label-bkg"></rect><text class="commit-label" y="25" x="-12.5546875">0-0e15859</text></g><g transform="translate(-24.007189331054686, 21.369590454101562) rotate(-45, 50, 0)"><rect height="16" width="37.439971923828125" y="13.5" x="41.28001403808594" class="commit-label-bkg"></rect><text class="commit-label" y="25" x="43.28001403808594">Normal</text></g><polygon points="35.30500030517578,-17.2
          35.30500030517578,-21.2
          43.30500030517578,-27.2
          76.69499969482422,-27.2
          76.69499969482422,-11.2
          43.30500030517578,-11.2" class="tag-label-bkg"></polygon><circle class="tag-hole" r="1.5" cy="-19.2" cx="39.30500030517578"></circle><text x="47.30500030517578" class="tag-label" y="-16">v1.0.0</text><g transform="translate(-29.10298492431641, 25.92898651123047) rotate(-45, 100, 90)"><rect height="16" width="50.84996032714844" y="103.5" x="84.57501983642578" class="commit-label-bkg"></rect><text class="commit-label" y="115" x="86.57501983642578">2-eebb8cc</text></g><g transform="translate(-28.631782836914063, 25.507384643554687) rotate(-45, 150, 180)"><rect height="16" width="49.609954833984375" y="193.5" x="135.1950225830078" class="commit-label-bkg"></rect><text class="commit-label" y="205" x="137.1950225830078">3-029bc82</text></g><g transform="translate(-26.980937500000003, 24.0303125) rotate(-45, 200, 180)"><rect height="16" width="45.265625" y="193.5" x="187.3671875" class="commit-label-bkg"></rect><text class="commit-label" y="205" x="189.3671875">4-f2439f5</text></g><g transform="translate(-27.806250000000002, 24.76875) rotate(-45, 250, 0)"><rect height="16" width="47.4375" y="13.5" x="236.28125" class="commit-label-bkg"></rect><text class="commit-label" y="25" x="238.28125">5-69fc885</text></g><g transform="translate(-27.791986083984373, 24.755987548828124) rotate(-45, 300, 180)"><rect height="16" width="47.39996337890625" y="193.5" x="286.3000183105469" class="commit-label-bkg"></rect><text class="commit-label" y="205" x="288.3000183105469">6-f068473</text></g><g transform="translate(-27.974378662109377, 24.919180908203124) rotate(-45, 450, 90)"><rect height="16" width="47.87994384765625" y="103.5" x="436.0600280761719" class="commit-label-bkg"></rect><text class="commit-label" y="115" x="438.0600280761719">9-568bf8f</text></g><g transform="translate(-29.532392578125002, 26.313193359375) rotate(-45, 550, 0)"><rect height="16" width="51.97998046875" y="13.5" x="534.010009765625" class="commit-label-bkg"></rect><text class="commit-label" y="25" x="536.010009765625">11-ef1889b</text></g><g transform="translate(-31.439976806640626, 28.019979248046877) rotate(-45, 600, 0)"><rect height="16" width="56.99993896484375" y="13.5" x="581.5000305175781" class="commit-label-bkg"></rect><text class="commit-label" y="25" x="583.5000305175781">12-b650bb0</text></g><g transform="translate(-30.022584228515626, 26.751785888671876) rotate(-45, 650, 90)"><rect height="16" width="53.26995849609375" y="103.5" x="633.3650207519531" class="commit-label-bkg"></rect><text class="commit-label" y="115" x="635.3650207519531">13-99f9db2</text></g><g transform="translate(-29.789375, 26.543125) rotate(-45, 700, 90)"><rect height="16" width="52.65625" y="103.5" x="683.671875" class="commit-label-bkg"></rect><text class="commit-label" y="115" x="685.671875">14-5e37a65</text></g></g></svg>