<?xml version="1.0" encoding="UTF-8" standalone="no"?><svg xmlns="http://www.w3.org/2000/svg" xmlns:xlink="http://www.w3.org/1999/xlink" contentScriptType="application/ecmascript" contentStyleType="text/css" height="516px" preserveAspectRatio="none" style="width:504px;height:516px;background:#FFFFFF;" version="1.1" viewBox="0 0 504 516" width="504px" zoomAndPan="magnify"><defs><filter height="300%" id="f1960wmn8b2knl" width="300%" x="-1" y="-1"><feGaussianBlur result="blurOut" stdDeviation="2.0"/><feColorMatrix in="blurOut" result="blurOut2" type="matrix" values="0 0 0 0 0 0 0 0 0 0 0 0 0 0 0 0 0 0 .4 0"/><feOffset dx="4.0" dy="4.0" in="blurOut2" result="blurOut3"/><feBlend in="SourceGraphic" in2="blurOut3" mode="normal"/></filter></defs><g><ellipse cx="106.5" cy="48.6998" fill="#000000" filter="url(#f1960wmn8b2knl)" rx="10" ry="10" style="stroke:none;stroke-width:1.0;"/><polygon fill="#FEFECE" filter="url(#f1960wmn8b2knl)" points="48,78.6998,165,78.6998,175,95.8999,165,113.0999,48,113.0999" style="stroke:#A80036;stroke-width:1.5;"/><text fill="#000000" font-family="sans-serif" font-size="12" lengthAdjust="spacing" textLength="97" x="58" y="100.6999">Request validation</text><polygon fill="#FEFECE" filter="url(#f1960wmn8b2knl)" points="30,423.0504,193,423.0504,183,440.2504,193,457.4505,30,457.4505" style="stroke:#A80036;stroke-width:1.5;"/><text fill="#000000" font-family="sans-serif" font-size="12" lengthAdjust="spacing" textLength="133" x="40" y="445.0505">Receive validation results</text><ellipse cx="106.5" cy="488.4505" fill="#FFFFFF" filter="url(#f1960wmn8b2knl)" rx="11" ry="11" style="stroke:#000000;stroke-width:1.0;"/><ellipse cx="106.5" cy="488.4505" fill="#000000" rx="6" ry="6" style="stroke:#7F7F7F;stroke-width:1.0;"/><line style="stroke:#000000;stroke-width:2.0;" x1="15" x2="15" y1="12.1" y2="499.4505"/><rect fill="#FEFECE" filter="url(#f1960wmn8b2knl)" height="34.4001" rx="12.5" ry="12.5" style="stroke:#A80036;stroke-width:1.5;" width="110" x="231" y="151.0499"/><text fill="#000000" font-family="sans-serif" font-size="12" lengthAdjust="spacing" textLength="90" x="241" y="173.05">Get file from URL</text><polygon fill="#FEFECE" filter="url(#f1960wmn8b2knl)" points="223,205.45,349,205.45,359,222.65,349,239.8501,223,239.8501" style="stroke:#A80036;stroke-width:1.5;"/><text fill="#000000" font-family="sans-serif" font-size="12" lengthAdjust="spacing" textLength="106" x="233" y="227.4501">Send file to validator</text><polygon fill="#FEFECE" filter="url(#f1960wmn8b2knl)" points="236.5,314.2502,345.5,314.2502,335.5,331.4502,345.5,348.6503,236.5,348.6503" style="stroke:#A80036;stroke-width:1.5;"/><text fill="#000000" font-family="sans-serif" font-size="12" lengthAdjust="spacing" textLength="79" x="246.5" y="336.2503">Receive results</text><rect fill="#FEFECE" filter="url(#f1960wmn8b2knl)" height="34.4001" rx="12.5" ry="12.5" style="stroke:#A80036;stroke-width:1.5;" width="93" x="239.5" y="368.6503"/><text fill="#000000" font-family="sans-serif" font-size="12" lengthAdjust="spacing" textLength="73" x="249.5" y="390.6504">Deliver results</text><line style="stroke:#000000;stroke-width:2.0;" x1="208" x2="208" y1="12.1" y2="499.4505"/><rect fill="#FEFECE" filter="url(#f1960wmn8b2knl)" height="34.4001" rx="12.5" ry="12.5" style="stroke:#A80036;stroke-width:1.5;" width="95" x="380" y="259.8501"/><text fill="#000000" font-family="sans-serif" font-size="12" lengthAdjust="spacing" textLength="75" x="390" y="281.8502">Run validation</text><line style="stroke:#000000;stroke-width:2.0;" x1="374" x2="374" y1="12.1" y2="499.4505"/><line style="stroke:#000000;stroke-width:2.0;" x1="485" x2="485" y1="12.1" y2="499.4505"/><line style="stroke:#A80036;stroke-width:1.5;" x1="106.5" x2="106.5" y1="58.6998" y2="78.6998"/><polygon fill="#A80036" points="102.5,68.6998,106.5,78.6998,110.5,68.6998,106.5,72.6998" style="stroke:#A80036;stroke-width:1.0;"/><line style="stroke:#A80036;stroke-width:1.5;" x1="106.5" x2="106.5" y1="457.4505" y2="477.4505"/><polygon fill="#A80036" points="102.5,467.4505,106.5,477.4505,110.5,467.4505,106.5,471.4505" style="stroke:#A80036;stroke-width:1.0;"/><line style="stroke:#A80036;stroke-width:1.5;" x1="286" x2="286" y1="185.45" y2="205.45"/><polygon fill="#A80036" points="282,195.45,286,205.45,290,195.45,286,199.45" style="stroke:#A80036;stroke-width:1.0;"/><line style="stroke:#A80036;stroke-width:1.5;" x1="286" x2="286" y1="348.6503" y2="368.6503"/><polygon fill="#A80036" points="282,358.6503,286,368.6503,290,358.6503,286,362.6503" style="stroke:#A80036;stroke-width:1.0;"/><line style="stroke:#A80036;stroke-width:1.5;" x1="106.5" x2="106.5" y1="113.0999" y2="136.0499"/><line style="stroke:#A80036;stroke-width:1.5;" x1="106.5" x2="286" y1="136.0499" y2="136.0499"/><line style="stroke:#A80036;stroke-width:1.5;" x1="286" x2="286" y1="136.0499" y2="151.0499"/><polygon fill="#A80036" points="282,141.0499,286,151.0499,290,141.0499,286,145.0499" style="stroke:#A80036;stroke-width:1.0;"/><text fill="#000000" font-family="sans-serif" font-size="11" lengthAdjust="spacing" textLength="73" x="110.5" y="129.5499">[GET ...?url=...]</text><line style="stroke:#A80036;stroke-width:1.5;" x1="286" x2="286" y1="239.8501" y2="244.8501"/><line style="stroke:#A80036;stroke-width:1.5;" x1="286" x2="427.5" y1="244.8501" y2="244.8501"/><line style="stroke:#A80036;stroke-width:1.5;" x1="427.5" x2="427.5" y1="244.8501" y2="259.8501"/><polygon fill="#A80036" points="423.5,249.8501,427.5,259.8501,431.5,249.8501,427.5,253.8501" style="stroke:#A80036;stroke-width:1.0;"/><line style="stroke:#A80036;stroke-width:1.5;" x1="427.5" x2="427.5" y1="294.2502" y2="299.2502"/><line style="stroke:#A80036;stroke-width:1.5;" x1="427.5" x2="286" y1="299.2502" y2="299.2502"/><line style="stroke:#A80036;stroke-width:1.5;" x1="286" x2="286" y1="299.2502" y2="314.2502"/><polygon fill="#A80036" points="282,304.2502,286,314.2502,290,304.2502,286,308.2502" style="stroke:#A80036;stroke-width:1.0;"/><line style="stroke:#A80036;stroke-width:1.5;" x1="286" x2="286" y1="403.0504" y2="408.0504"/><line style="stroke:#A80036;stroke-width:1.5;" x1="286" x2="106.5" y1="408.0504" y2="408.0504"/><line style="stroke:#A80036;stroke-width:1.5;" x1="106.5" x2="106.5" y1="408.0504" y2="423.0504"/><polygon fill="#A80036" points="102.5,413.0504,106.5,423.0504,110.5,413.0504,106.5,417.0504" style="stroke:#A80036;stroke-width:1.0;"/><text fill="#000000" font-family="sans-serif" font-size="18" lengthAdjust="spacing" textLength="46" x="88.5" y="30.0999">Client</text><text fill="#000000" font-family="sans-serif" font-size="18" lengthAdjust="spacing" textLength="29" x="276.5" y="30.0999">API</text><text fill="#000000" font-family="sans-serif" font-size="18" lengthAdjust="spacing" textLength="71" x="394" y="30.0999">Validator</text><!--MD5=[57904746b19d0714cff6897fbc1a0acf]
@startuml
|Client|
start
:Request validation>
->[GET ...?url=...];
|API|
:Get file from URL;
:Send file to validator>
|Validator|
:Run validation;
|API|
:Receive results<
:Deliver results;
|Client|
:Receive validation results<
stop
@enduml

PlantUML version 1.2021.6(Fri May 14 07:09:51 GMT 2021)
(GPL source distribution)
Java Runtime: OpenJDK Runtime Environment
JVM: OpenJDK 64-Bit Server VM
Default Encoding: UTF-8
Language: en
Country: US
--></g></svg>