<?xml version="1.0" encoding="UTF-8" standalone="no"?><svg xmlns="http://www.w3.org/2000/svg" xmlns:xlink="http://www.w3.org/1999/xlink" contentStyleType="text/css" height="108px" preserveAspectRatio="none" style="width:702px;height:108px;background:#FFFFFF;" version="1.1" viewBox="0 0 702 108" width="702px" zoomAndPan="magnify"><defs/><g><rect fill="none" height="106.1328" style="stroke:#FFFFFF;stroke-width:1.0;" width="700" x="0" y="0"/><line style="stroke:#1168BD;stroke-width:0.5;stroke-dasharray:5.0,5.0;" x1="70" x2="70" y1="42" y2="101.1328"/><line style="stroke:#1168BD;stroke-width:0.5;stroke-dasharray:5.0,5.0;" x1="210" x2="210" y1="42" y2="101.1328"/><line style="stroke:#1168BD;stroke-width:0.5;stroke-dasharray:5.0,5.0;" x1="350" x2="350" y1="42" y2="101.1328"/><line style="stroke:#1168BD;stroke-width:0.5;stroke-dasharray:5.0,5.0;" x1="490" x2="490" y1="42" y2="101.1328"/><line style="stroke:#1168BD;stroke-width:0.5;stroke-dasharray:5.0,5.0;" x1="630" x2="630" y1="42" y2="101.1328"/><rect fill="#08427B" height="36" rx="2.5" ry="2.5" style="stroke:#FFFFFF;stroke-width:0.5;" width="114" x="13" y="5"/><ellipse cx="57" cy="23" fill="#41AF46" rx="11" ry="11" style="stroke:#FFFFFF;stroke-width:1.0;"/><path d="M52.3906,17.6094 L61.8438,17.6094 L61.8438,19.0156 L57.9688,19.0156 L57.9688,30 L56.2813,30 L56.2813,19.0156 L52.3906,19.0156 L52.3906,17.6094 Z " fill="#FFFFFF"/><text fill="#FFFFFF" font-family="Roboto" font-size="13" lengthAdjust="spacing" textLength="16" x="76" y="26.0669">tip</text><rect fill="#08427B" height="36" rx="2.5" ry="2.5" style="stroke:#FFFFFF;stroke-width:0.5;" width="114" x="153" y="5"/><ellipse cx="190.5" cy="23" fill="#217EE7" rx="11" ry="11" style="stroke:#FFFFFF;stroke-width:1.0;"/><path d="M186.6563,16.6094 L188.7813,16.6094 L192.9688,26.8125 L192.9688,16.6094 L194.5781,16.6094 L194.5781,29 L192.4531,29 L188.2656,18.7969 L188.2656,29 L186.6563,29 L186.6563,16.6094 Z " fill="#FFFFFF"/><text fill="#FFFFFF" font-family="Roboto" font-size="13" lengthAdjust="spacing" textLength="29" x="209.5" y="26.0669">note</text><rect fill="#08427B" height="36" rx="2.5" ry="2.5" style="stroke:#FFFFFF;stroke-width:0.5;" width="114" x="293" y="5"/><ellipse cx="320.5" cy="23" fill="#E18114" rx="11" ry="11" style="stroke:#FFFFFF;stroke-width:1.0;"/><path d="M315.5,17.1094 L317.1406,17.1094 L318.3281,27.1719 L319.7344,20.5156 L321.4844,20.5156 L322.9063,27.1875 L324.0938,17.1094 L325.7344,17.1094 L323.8906,29.5 L322.2969,29.5 L320.6094,22.1406 L318.9375,29.5 L317.3438,29.5 L315.5,17.1094 Z " fill="#FFFFFF"/><text fill="#FFFFFF" font-family="Roboto" font-size="13" lengthAdjust="spacing" textLength="49" x="339.5" y="26.0669">warning</text><rect fill="#08427B" height="36" rx="2.5" ry="2.5" style="stroke:#FFFFFF;stroke-width:0.5;" width="114" x="433" y="5"/><ellipse cx="461.5" cy="23" fill="#A0439C" rx="11" ry="11" style="stroke:#FFFFFF;stroke-width:1.0;"/><path d="M464.4063,28.5625 Q463.7656,28.9063 463.0938,29.0625 Q462.4219,29.2344 461.6719,29.2344 Q459.2813,29.2344 457.9688,27.5625 Q456.6563,25.875 456.6563,22.8125 Q456.6563,19.7813 457.9688,18.0781 Q459.2969,16.375 461.6719,16.375 Q462.4219,16.375 463.0938,16.5469 Q463.7656,16.7188 464.4063,17.0625 L464.4063,18.7813 Q463.7969,18.2813 463.0781,18.0156 Q462.375,17.75 461.6719,17.75 Q460.0313,17.75 459.2188,19.0156 Q458.4063,20.2656 458.4063,22.8125 Q458.4063,25.3594 459.2188,26.625 Q460.0313,27.875 461.6719,27.875 Q462.3906,27.875 463.0938,27.6094 Q463.7969,27.3438 464.4063,26.8438 L464.4063,28.5625 Z " fill="#FFFFFF"/><text fill="#FFFFFF" font-family="Roboto" font-size="13" lengthAdjust="spacing" textLength="47" x="480.5" y="26.0669">caution</text><rect fill="#08427B" height="36" rx="2.5" ry="2.5" style="stroke:#FFFFFF;stroke-width:0.5;" width="114" x="573" y="5"/><ellipse cx="593.5" cy="23" fill="#D32F2F" rx="11" ry="11" style="stroke:#FFFFFF;stroke-width:1.0;"/><path d="M590.1719,16.6094 L597.0469,16.6094 L597.0469,18.0156 L594.4531,18.0156 L594.4531,27.5938 L597.0469,27.5938 L597.0469,29 L590.1719,29 L590.1719,27.5938 L592.7656,27.5938 L592.7656,18.0156 L590.1719,18.0156 L590.1719,16.6094 Z " fill="#FFFFFF"/><text fill="#FFFFFF" font-family="Roboto" font-size="13" lengthAdjust="spacing" textLength="63" x="612.5" y="26.0669">important</text><path d="M5,57 L5,86 L135,86 L135,67 L125,57 L5,57 " fill="#41AF46" style="stroke:#181818;stroke-width:0.5;"/><path d="M125,57 L125,67 L135,67 L125,57 " fill="#41AF46" style="stroke:#181818;stroke-width:0.5;"/><text fill="#FFFFFF" font-family="Roboto" font-size="13" lengthAdjust="spacing" textLength="18" x="61" y="76.0669">Tip</text><path d="M145,57 L145,86 L275,86 L275,67 L265,57 L145,57 " fill="#217EE7" style="stroke:#181818;stroke-width:0.5;"/><path d="M265,57 L265,67 L275,67 L265,57 " fill="#217EE7" style="stroke:#181818;stroke-width:0.5;"/><text fill="#FFFFFF" font-family="Roboto" font-size="13" lengthAdjust="spacing" textLength="31" x="194.5" y="76.0669">Note</text><path d="M285,57 L285,86 L415,86 L415,67 L405,57 L285,57 " fill="#E18114" style="stroke:#181818;stroke-width:0.5;"/><path d="M405,57 L405,67 L415,67 L405,57 " fill="#E18114" style="stroke:#181818;stroke-width:0.5;"/><text fill="#FFFFFF" font-family="Roboto" font-size="13" lengthAdjust="spacing" textLength="51" x="324.5" y="76.0669">Warning</text><path d="M425,57 L425,86 L555,86 L555,67 L545,57 L425,57 " fill="#A0439C" style="stroke:#181818;stroke-width:0.5;"/><path d="M545,57 L545,67 L555,67 L545,57 " fill="#A0439C" style="stroke:#181818;stroke-width:0.5;"/><text fill="#FFFFFF" font-family="Roboto" font-size="13" lengthAdjust="spacing" textLength="49" x="465.5" y="76.0669">Caution</text><path d="M565,57 L565,86 L695,86 L695,67 L685,57 L565,57 " fill="#D32F2F" style="stroke:#181818;stroke-width:0.5;"/><path d="M685,57 L685,67 L695,67 L685,57 " fill="#D32F2F" style="stroke:#181818;stroke-width:0.5;"/><text fill="#FFFFFF" font-family="Roboto" font-size="13" lengthAdjust="spacing" textLength="63" x="598.5" y="76.0669">Important</text><!--SRC=[lHbhKzj8yhj_HUEb2bpb9TWu1dmXMs1CGXKXMUnSAf-eiTIovv0rlj48mrtTVz-UaMJFw05cT-j2LMHFltlwAU_1M3s7F9f1Z4hHCuP0IFWMiaXz_t83FcSpoHPnOm_6Y31NQZbuzswfmSaYF8X58ZqaYXaUHAWChI-yP86HOegBYEWc0cO4OX3oM848O2dYc4z3XFY1Hqj6xDV2so2JQ00vV_YLFimIDiC6CHf-lVbwDwOFPrl-qqGpZ52o43mH2ad6IR40iOeW9hCndYEgnivkPkNzb7aFCocIoByt-706pL-286ZQE4BwAElX6y39eVxJC2QbM5aGFErW_qX3oFKF5k2eTtfoUT7KYY_O0mBp5oBYsf6v0UoHyP1fxsbVOuZQrJ5nybYYyIncxB1tTEerBPW3plJcYwMGYlnjWVoZRj0jGAje8w7GEkrsZX6Fru0g2iMNrc6lmu9UFp-lmbyn6L5WsBxhd7GwFHjMfYFtHSB7-quxVNQ1HJvefK2HMwCq38Oz4mN4mcYiyUyNZDlS3azwtUDfCuTtY_1EftyozIquIvww5VUPUQH0VNfwQdHDuggRrlShr1oTMmx5Z7ik7zT7XACZU5d0SQB3HEiZrs7iOgrlfz7OMKhXePz8X4oeoPZztKScppgj1i1kvZnpr8QIQjL7nKjhGMC78tyjpPMScc99xbL9BXfSVLHCWZRTmDNLrV3gglco4hclNdD0sQTrXtQqlomx2ylNH9UYjvsb0ZtrOmiXtUs4TEk5R50sMV2QOBMTTKxkl6eRzQh9pviHV1xTV1lzYOwXWEHoqxzWnTKypKXOif3Q50u8PrThGtrAyWMJpn3mCEimRL3FI-wnC7o6JJVH5EGJAaVwqHrGjljxeKKMEtIcmxI1XGfbH6eyOe6NY3Gh4H4dXK-gWeVMpy3Q42VBPLf0I5MYNjiMQqiwBP0uIq8cOT_7W2MXQj5njmKHMo317b76wCC-DHqCGIGgfdZMA4Uj7EfgrsjHfv_DbNlwlfNPHOyduYR4qbYeEVLRS71mu8Q67G9dsbfjKNljnjG3sfbdpLyypskc_g0l_Nw_gODeXmUGKfyrk-O4u6AjqT3Sg66QGenksQcMOKwlHAIAc6Ew51JaQIn3Tp2CqP9xL2TtBS6HkvRn5-NswgLstsHjqPxtVwCVFoCZJ0j2LreXibydCaN_6oJcWBfBAcXq_2Rdld2bXkzVTMTkGcLql69Vxl38vq4ZvJhc_q7e79KBwgVHxUZk_0R6eyda-lRJsshgpkvK-C_t0Gcu3zY2KtsYyUTEJ8KIJUA4p9ldGmvuB38bcAlO3EfQhLigHUsrWjadtJJ-eOSwNKrHZtUhHcEpKfJChHloBPhB5CNnUjNSRv5y9fTBFSLdw9k1djosGQFXJdXpcZff0fK9MWpYEVF5IczW0TC1OR6ceNKbERMSg0JxHZPhcgujv4uRvGb96m-yDsqmNQjezrhmY2-I1RKpN_Spyh7PBsByTuAHX_cUHprEAkxn9KtyCL2HVY3DfIxmj8XHD5WQ4CTXoEBuX-7OEJoqdN-PTXBuRyE9LbeDqoX87GJhouLIXEG1gM-PhbOkM4X74-fevzHTeZHKw3-KZV_Pai_rgcNavbcpsRrSPMo0m-9MxmcQWpkVj3JM7dmVZs1uFXwzAGCi_Jn5mZFkrcpNrMLb3xwOhK_ZPEuFEHrGBn_s6W2fDzWAOmeaL-dlCNeiHejprzRRZXplWHRg5D6UhpFxpeUJwtzUJtx-UVjeubNFbOeO4oZ2iXieJQq47wtpjGfwmVAqBAuMXIZ8jA24fippKsNiDQRa50fxC-zLksM3ELxn1UL2vZztDQX1dN0LLkBtCvUFHxz_7zqEtnPIUoQI1fJ2g2yVXlhsypHcK_689GFJlAu8FZs4hKjAxz0ruq9N5JtbbkcE2XOFARka2BV074NA3P8wn4kcsDGDR2jb2jB343qpsLRQw23_dc22hwEDim9vmmEaqbwLNySr99SOikUgQ-_M4QHOsqHMHl59nsavkD_NeDzXG5E2BlUbAE_hyfFslScSUmyHnZ5qgjbSq01VOj1pOeX621FPMuVpMoAVa2z7tsw-_lmokfsySRah98rd9OskxTbHBK9MFAlXi1_mfz-q7_AKIV76XIQhNsMcYL8BJzEZ5co2jmQglPFbJ3N6HaqhOLv6jIlh39qIKjTbQ2_Cg-bB-NLEPIcWVlSwnw5OB4MqbV0h7cxH28TC-gzZZIbUrktoHNQXIFpAl71rathSUQtBt9AWsWxjpT5xI7TilKvljcnRQpgjqtaFg1cWyJfrKYFWDrj34Qwhq0igViOdDikl-8NMUgrdD1A6PSnYhVyw_HVMX0BLbdEb99yc2cjck3rxU2W0xAcZTkwx8-4iceLOOvEf3tuwZD5OxDF-DgWY__1XckN_nuzbLlrIW365_sURvzHQ8112JSLJes7D_A3u4Zvys9-qD- -2Mny_DiohSneff47Om0OmuKkNWq4b5hTjw-S1pUCTRBYOJnPyO8Pkbr7sfbZp-j5sNt8NsUMeBjO0VgHVNRxPUs3DTzXsNumN-UQeBjQ0IeVvwl9T_rIYEL-tYp-i57blq8kO0xZE3_u0]--></g></svg>