<?xml version="1.0" encoding="UTF-8" standalone="no"?><svg xmlns="http://www.w3.org/2000/svg" xmlns:xlink="http://www.w3.org/1999/xlink" contentStyleType="text/css" height="863px" preserveAspectRatio="none" style="width:934px;height:863px;background:#FFFFFF;" version="1.1" viewBox="0 0 934 863" width="934px" zoomAndPan="magnify"><defs/><g><rect fill="none" height="861.0625" style="stroke:#FFFFFF;stroke-width:1.0;" width="932" x="0" y="0"/><rect fill="#FFFCFF" height="851.0625" style="stroke:#A0439C;stroke-width:0.5;" width="319" x="246" y="6"/><text fill="#FFFFFF" font-family="Roboto" font-size="13" font-weight="bold" lengthAdjust="spacing" textLength="27" x="392" y="20.0669">Box</text><rect fill="#FFFCFF" height="79.3984" style="stroke:#FFFCFF;stroke-width:1.0;" width="651.5" x="161.5" y="171.5313"/><rect fill="#FFFCFF" height="172.5313" style="stroke:#FFFCFF;stroke-width:1.0;" width="398.5" x="389.5" y="320.1953"/><rect fill="#FFFCFF" height="91.2656" style="stroke:#FFFCFF;stroke-width:1.0;" width="266.5" x="496.5" y="373.4609"/><line style="stroke:#E91E63;stroke-width:1.0;" x1="238" x2="238" y1="671.7969" y2="777.7969"/><polygon fill="#E91E63" points="234,681.7969,238,671.7969,242,681.7969,238,677.7969" style="stroke:#E91E63;stroke-width:1.0;"/><polygon fill="#E91E63" points="234,767.7969,238,777.7969,242,767.7969,238,771.7969" style="stroke:#E91E63;stroke-width:1.0;"/><text fill="#E91E63" font-family="Roboto" font-size="13" lengthAdjust="spacing" textLength="30" x="244" y="729.2974">label</text><line style="stroke:#1168BD;stroke-width:0.5;stroke-dasharray:5.0,5.0;" x1="62" x2="62" y1="126.3984" y2="618.9922"/><line style="stroke:#1168BD;stroke-width:1.0;stroke-dasharray:1.0,4.0;" x1="62" x2="62" y1="618.9922" y2="663.7969"/><line style="stroke:#1168BD;stroke-width:0.5;stroke-dasharray:5.0,5.0;" x1="62" x2="62" y1="663.7969" y2="851.0625"/><line style="stroke:#1168BD;stroke-width:0.5;stroke-dasharray:5.0,5.0;" x1="177.5" x2="177.5" y1="126.3984" y2="618.9922"/><line style="stroke:#1168BD;stroke-width:1.0;stroke-dasharray:1.0,4.0;" x1="177.5" x2="177.5" y1="618.9922" y2="663.7969"/><line style="stroke:#1168BD;stroke-width:0.5;stroke-dasharray:5.0,5.0;" x1="177.5" x2="177.5" y1="663.7969" y2="851.0625"/><line style="stroke:#1168BD;stroke-width:0.5;stroke-dasharray:5.0,5.0;" x1="298.5" x2="298.5" y1="126.3984" y2="618.9922"/><line style="stroke:#1168BD;stroke-width:1.0;stroke-dasharray:1.0,4.0;" x1="298.5" x2="298.5" y1="618.9922" y2="663.7969"/><line style="stroke:#1168BD;stroke-width:0.5;stroke-dasharray:5.0,5.0;" x1="298.5" x2="298.5" y1="663.7969" y2="851.0625"/><rect fill="#3498DB" height="110" style="stroke:#1168BD;stroke-width:1.0;" width="10" x="293.5" y="669.7969"/><rect fill="#3498DB" height="56" style="stroke:#1168BD;stroke-width:1.0;" width="10" x="298.5" y="696.7969"/><line style="stroke:#1168BD;stroke-width:0.5;stroke-dasharray:5.0,5.0;" x1="405.5" x2="405.5" y1="126.3984" y2="618.9922"/><line style="stroke:#1168BD;stroke-width:1.0;stroke-dasharray:1.0,4.0;" x1="405.5" x2="405.5" y1="618.9922" y2="663.7969"/><line style="stroke:#1168BD;stroke-width:0.5;stroke-dasharray:5.0,5.0;" x1="405.5" x2="405.5" y1="663.7969" y2="851.0625"/><rect fill="#3498DB" height="28" style="stroke:#1168BD;stroke-width:1.0;" width="10" x="400.5" y="710.7969"/><line style="stroke:#1168BD;stroke-width:0.5;stroke-dasharray:5.0,5.0;" x1="512.5" x2="512.5" y1="126.3984" y2="618.9922"/><line style="stroke:#1168BD;stroke-width:1.0;stroke-dasharray:1.0,4.0;" x1="512.5" x2="512.5" y1="618.9922" y2="663.7969"/><line style="stroke:#1168BD;stroke-width:0.5;stroke-dasharray:5.0,5.0;" x1="512.5" x2="512.5" y1="663.7969" y2="851.0625"/><line style="stroke:#1168BD;stroke-width:2.0;" x1="503.5" x2="521.5" y1="715.7969" y2="733.7969"/><line style="stroke:#1168BD;stroke-width:2.0;" x1="503.5" x2="521.5" y1="733.7969" y2="715.7969"/><line style="stroke:#1168BD;stroke-width:0.5;stroke-dasharray:5.0,5.0;" x1="629.5" x2="629.5" y1="126.3984" y2="618.9922"/><line style="stroke:#1168BD;stroke-width:1.0;stroke-dasharray:1.0,4.0;" x1="629.5" x2="629.5" y1="618.9922" y2="663.7969"/><line style="stroke:#1168BD;stroke-width:0.5;stroke-dasharray:5.0,5.0;" x1="629.5" x2="629.5" y1="663.7969" y2="851.0625"/><rect fill="#3498DB" height="28" style="stroke:#1168BD;stroke-width:1.0;" width="10" x="624.5" y="414.7266"/><line style="stroke:#1168BD;stroke-width:0.5;stroke-dasharray:5.0,5.0;" x1="747" x2="747" y1="126.3984" y2="618.9922"/><line style="stroke:#1168BD;stroke-width:1.0;stroke-dasharray:1.0,4.0;" x1="747" x2="747" y1="618.9922" y2="663.7969"/><line style="stroke:#1168BD;stroke-width:0.5;stroke-dasharray:5.0,5.0;" x1="747" x2="747" y1="663.7969" y2="851.0625"/><line style="stroke:#1168BD;stroke-width:0.5;stroke-dasharray:5.0,5.0;" x1="871.5" x2="871.5" y1="126.3984" y2="618.9922"/><line style="stroke:#1168BD;stroke-width:1.0;stroke-dasharray:1.0,4.0;" x1="871.5" x2="871.5" y1="618.9922" y2="663.7969"/><line style="stroke:#1168BD;stroke-width:0.5;stroke-dasharray:5.0,5.0;" x1="871.5" x2="871.5" y1="663.7969" y2="851.0625"/><rect fill="#08427B" height="48.2656" rx="2.5" ry="2.5" style="stroke:#FFFFFF;stroke-width:0.5;" width="114" x="5" y="77.1328"/><text fill="#FFFFFF" font-family="Roboto" font-size="13" font-style="italic" lengthAdjust="spacing" textLength="87" x="18.5" y="98.1997">«Stereotype»</text><text fill="#FFFFFF" font-family="Roboto" font-size="13" lengthAdjust="spacing" textLength="68" x="28" y="113.3325">Participant</text><text fill="#08427B" font-family="Roboto" font-size="13" font-style="italic" lengthAdjust="spacing" textLength="87" x="131" y="106.1997">«Stereotype»</text><text fill="#08427B" font-family="Roboto" font-size="13" lengthAdjust="spacing" textLength="34" x="157.5" y="121.3325">Actor</text><ellipse cx="177.5" cy="46.6328" fill="#08427B" rx="16" ry="16" style="stroke:#FFFFFF;stroke-width:1.5;"/><path d="M177.5,66.6328 C181.5,66.6328 184.5,66.6328 188.5,62.6328 C196.5,62.6328 204.5,70.6328 204.5,78.6328 L204.5,82.6328 C204.5,86.6328 200.5,90.6328 196.5,90.6328 L158.5,90.6328 C154.5,90.6328 150.5,86.6328 150.5,82.6328 L150.5,78.6328 C150.5,70.6328 158.5,62.6328 166.5,62.6328 C170.5,66.6328 173.5,66.6328 177.5,66.6328 " fill="#08427B" style="stroke:#FFFFFF;stroke-width:1.5;"/><text fill="#08427B" font-family="Roboto" font-size="13" font-style="italic" lengthAdjust="spacing" textLength="87" x="252" y="106.1997">«Stereotype»</text><text fill="#08427B" font-family="Roboto" font-size="13" lengthAdjust="spacing" textLength="61" x="265" y="121.3325">Boundary</text><path d="M278,64.1328 L278,88.1328 M278,76.1328 L295,76.1328 " fill="none" style="stroke:#08427B;stroke-width:0.5;"/><ellipse cx="307" cy="76.1328" fill="#FFFFFF" rx="12" ry="12" style="stroke:#08427B;stroke-width:0.5;"/><text fill="#08427B" font-family="Roboto" font-size="13" font-style="italic" lengthAdjust="spacing" textLength="87" x="359" y="106.1997">«Stereotype»</text><text fill="#08427B" font-family="Roboto" font-size="13" lengthAdjust="spacing" textLength="46" x="379.5" y="121.3325">Control</text><ellipse cx="405.5" cy="76.1328" fill="#FFFFFF" rx="12" ry="12" style="stroke:#08427B;stroke-width:0.5;"/><polygon fill="#08427B" points="401.5,64.1328,407.5,59.1328,405.5,64.1328,407.5,69.1328,401.5,64.1328" style="stroke:#08427B;stroke-width:1.0;"/><text fill="#08427B" font-family="Roboto" font-size="13" font-style="italic" lengthAdjust="spacing" textLength="87" x="466" y="106.1997">«Stereotype»</text><text fill="#08427B" font-family="Roboto" font-size="13" lengthAdjust="spacing" textLength="36" x="491.5" y="121.3325">Entity</text><ellipse cx="512.5" cy="76.1328" fill="#FFFFFF" rx="12" ry="12" style="stroke:#08427B;stroke-width:0.5;"/><line style="stroke:#08427B;stroke-width:0.5;" x1="500.5" x2="524.5" y1="90.1328" y2="90.1328"/><text fill="#08427B" font-family="Roboto" font-size="13" font-style="italic" lengthAdjust="spacing" textLength="87" x="583" y="106.1997">«Stereotype»</text><text fill="#08427B" font-family="Roboto" font-size="13" lengthAdjust="spacing" textLength="62" x="595.5" y="121.3325">Database</text><path d="M611.5,56.1328 C611.5,46.1328 629.5,46.1328 629.5,46.1328 C629.5,46.1328 647.5,46.1328 647.5,56.1328 L647.5,82.1328 C647.5,92.1328 629.5,92.1328 629.5,92.1328 C629.5,92.1328 611.5,92.1328 611.5,82.1328 L611.5,56.1328 " fill="#08427B" style="stroke:#FFFFFF;stroke-width:1.5;"/><path d="M611.5,56.1328 C611.5,66.1328 629.5,66.1328 629.5,66.1328 C629.5,66.1328 647.5,66.1328 647.5,56.1328 " fill="none" style="stroke:#FFFFFF;stroke-width:1.5;"/><rect fill="#08427B" height="48.2656" style="stroke:#FFFFFF;stroke-width:0.5;" width="114" x="692" y="73.1328"/><rect fill="#08427B" height="48.2656" style="stroke:#FFFFFF;stroke-width:0.5;" width="114" x="688" y="77.1328"/><text fill="#FFFFFF" font-family="Roboto" font-size="13" font-style="italic" lengthAdjust="spacing" textLength="87" x="701.5" y="98.1997">«Stereotype»</text><text fill="#FFFFFF" font-family="Roboto" font-size="13" lengthAdjust="spacing" textLength="69" x="710.5" y="113.3325">Collections</text><path d="M821,82.1328 L922,82.1328 C927,82.1328 927,104.2656 927,104.2656 C927,104.2656 927,126.3984 922,126.3984 L821,126.3984 C816,126.3984 816,104.2656 816,104.2656 C816,104.2656 816,82.1328 821,82.1328 " fill="#08427B" style="stroke:#FFFFFF;stroke-width:0.5;"/><path d="M922,82.1328 C917,82.1328 917,104.2656 917,104.2656 C917,126.3984 922,126.3984 922,126.3984 " fill="none" style="stroke:#FFFFFF;stroke-width:0.5;"/><text fill="#FFFFFF" font-family="Roboto" font-size="13" font-style="italic" lengthAdjust="spacing" textLength="87" x="823" y="101.1997">«Stereotype»</text><text fill="#FFFFFF" font-family="Roboto" font-size="13" lengthAdjust="spacing" textLength="42" x="845.5" y="116.3325">Queue</text><polygon fill="#E91E63" points="165.5,155.5313,175.5,159.5313,165.5,163.5313,169.5,159.5313" style="stroke:#E91E63;stroke-width:1.0;"/><line style="stroke:#E91E63;stroke-width:1.0;" x1="62" x2="171.5" y1="159.5313" y2="159.5313"/><text fill="#E91E63" font-family="Roboto" font-size="13" font-weight="bold" lengthAdjust="spacing" textLength="9" x="82.75" y="152.4653">1</text><text fill="#E91E63" font-family="Roboto" font-size="13" lengthAdjust="spacing" textLength="57" x="99.75" y="152.4653">Message</text><path d="M161.5,171.5313 L229.5,171.5313 L229.5,182.6641 L219.5,192.6641 L161.5,192.6641 L161.5,171.5313 " fill="#E18114" style="stroke:#E18114;stroke-width:1.5;"/><rect fill="none" height="386.3281" style="stroke:#E18114;stroke-width:1.5;" width="651.5" x="161.5" y="171.5313"/><text fill="#FFFFFF" font-family="Roboto" font-size="13" font-weight="bold" lengthAdjust="spacing" textLength="19" x="178.5" y="186.5981">alt</text><text fill="#E18114" font-family="Roboto" font-size="13" font-weight="bold" lengthAdjust="spacing" textLength="86" x="246.5" y="187.5981">[Main case]</text><line style="stroke:#E18114;stroke-width:1.0;stroke-dasharray:2.0,2.0;" x1="161.5" x2="813" y1="250.9297" y2="250.9297"/><text fill="#E18114" font-family="Roboto" font-size="13" font-weight="bold" lengthAdjust="spacing" textLength="156" x="168.5" y="266.9966">[Alternative case #1]</text><line style="stroke:#E18114;stroke-width:1.0;stroke-dasharray:2.0,2.0;" x1="161.5" x2="813" y1="517.7266" y2="517.7266"/><text fill="#E18114" font-family="Roboto" font-size="13" font-weight="bold" lengthAdjust="spacing" textLength="156" x="168.5" y="533.7935">[Alternative case #2]</text><polygon fill="#E91E63" points="286.5,227.9297,296.5,231.9297,286.5,235.9297,290.5,231.9297" style="stroke:#E91E63;stroke-width:1.0;"/><line style="stroke:#E91E63;stroke-width:1.0;" x1="177.5" x2="292.5" y1="231.9297" y2="231.9297"/><text fill="#E91E63" font-family="Roboto" font-size="13" lengthAdjust="spacing" textLength="93" x="191.5" y="224.8638">Main message</text><polygon fill="#E91E63" points="393.5,298.1953,403.5,302.1953,393.5,306.1953,397.5,302.1953" style="stroke:#E91E63;stroke-width:1.0;"/><line style="stroke:#E91E63;stroke-width:1.0;" x1="177.5" x2="399.5" y1="302.1953" y2="302.1953"/><text fill="#E91E63" font-family="Roboto" font-size="13" lengthAdjust="spacing" textLength="132" x="225.5" y="295.1294">Alternative message</text><path d="M410.5,282.0625 L410.5,311.0625 L540.5,311.0625 L540.5,292.0625 L530.5,282.0625 L410.5,282.0625 " fill="#999999" style="stroke:#181818;stroke-width:0.5;"/><path d="M530.5,282.0625 L530.5,292.0625 L540.5,292.0625 L530.5,282.0625 " fill="#999999" style="stroke:#181818;stroke-width:0.5;"/><text fill="#FFFFFF" font-family="Roboto" font-size="13" lengthAdjust="spacing" textLength="31" x="460" y="301.1294">Note</text><path d="M389.5,320.1953 L487.5,320.1953 L487.5,331.3281 L477.5,341.3281 L389.5,341.3281 L389.5,320.1953 " fill="#E18114" style="stroke:#E18114;stroke-width:1.5;"/><rect fill="none" height="172.5313" style="stroke:#E18114;stroke-width:1.5;" width="398.5" x="389.5" y="320.1953"/><text fill="#FFFFFF" font-family="Roboto" font-size="13" font-weight="bold" lengthAdjust="spacing" textLength="44" x="406.5" y="335.2622">group</text><text fill="#E18114" font-family="Roboto" font-size="13" font-weight="bold" lengthAdjust="spacing" textLength="91" x="504.5" y="336.2622">[Extra label]</text><polygon fill="#E91E63" points="500.5,357.4609,510.5,361.4609,500.5,365.4609,504.5,361.4609" style="stroke:#E91E63;stroke-width:1.0;"/><line style="stroke:#E91E63;stroke-width:1.0;" x1="405.5" x2="506.5" y1="361.4609" y2="361.4609"/><path d="M496.5,373.4609 L577.5,373.4609 L577.5,384.5938 L567.5,394.5938 L496.5,394.5938 L496.5,373.4609 " fill="#E18114" style="stroke:#E18114;stroke-width:1.5;"/><rect fill="none" height="91.2656" style="stroke:#E18114;stroke-width:1.5;" width="266.5" x="496.5" y="373.4609"/><text fill="#FFFFFF" font-family="Roboto" font-size="13" font-weight="bold" lengthAdjust="spacing" textLength="32" x="513.5" y="388.5278">loop</text><text fill="#E18114" font-family="Roboto" font-size="13" font-weight="bold" lengthAdjust="spacing" textLength="94" x="594.5" y="389.5278">[1000 times]</text><polygon fill="#E91E63" points="612.5,410.7266,622.5,414.7266,612.5,418.7266,616.5,414.7266" style="stroke:#E91E63;stroke-width:1.0;"/><line style="stroke:#E91E63;stroke-width:1.0;" x1="512.5" x2="618.5" y1="414.7266" y2="414.7266"/><polygon fill="#E91E63" points="735,424.7266,745,428.7266,735,432.7266,739,428.7266" style="stroke:#E91E63;stroke-width:1.0;"/><line style="stroke:#E91E63;stroke-width:1.0;" x1="512.5" x2="741" y1="428.7266" y2="428.7266"/><polygon fill="#E91E63" points="523.5,438.7266,513.5,442.7266,523.5,446.7266,519.5,442.7266" style="stroke:#E91E63;stroke-width:1.0;"/><line style="stroke:#E91E63;stroke-width:1.0;stroke-dasharray:2.0,2.0;" x1="517.5" x2="623.5" y1="442.7266" y2="442.7266"/><polygon fill="#E91E63" points="523.5,452.7266,513.5,456.7266,523.5,460.7266,519.5,456.7266" style="stroke:#E91E63;stroke-width:1.0;"/><line style="stroke:#E91E63;stroke-width:1.0;" x1="517.5" x2="746" y1="456.7266" y2="456.7266"/><polygon fill="#E91E63" points="735,480.7266,745,484.7266,735,488.7266,739,484.7266" style="stroke:#E91E63;stroke-width:1.0;"/><line style="stroke:#E91E63;stroke-width:1.0;" x1="629.5" x2="741" y1="484.7266" y2="484.7266"/><polygon fill="#E91E63" points="188.5,545.8594,178.5,549.8594,188.5,553.8594,184.5,549.8594" style="stroke:#E91E63;stroke-width:1.0;"/><line style="stroke:#E91E63;stroke-width:1.0;" x1="182.5" x2="746" y1="549.8594" y2="549.8594"/><rect fill="#41AF46" height="3" style="stroke:#41AF46;stroke-width:1.0;" width="922" x="5" y="594.4258"/><line style="stroke:#41AF46;stroke-width:1.0;" x1="5" x2="927" y1="594.4258" y2="594.4258"/><line style="stroke:#41AF46;stroke-width:1.0;" x1="5" x2="927" y1="597.4258" y2="597.4258"/><rect fill="#41AF46" height="27.1328" style="stroke:#41AF46;stroke-width:2.0;" width="75" x="428.5" y="581.8594"/><text fill="#FFFFFF" font-family="Roboto" font-size="13" font-weight="bold" lengthAdjust="spacing" textLength="52" x="436.5" y="599.9263">Divider</text><text fill="#FFFFFF" font-family="Roboto" font-size="11" lengthAdjust="spacing" textLength="30" x="451.75" y="645.2026">delay</text><polygon fill="#E91E63" points="281.5,665.7969,291.5,669.7969,281.5,673.7969,285.5,669.7969" style="stroke:#E91E63;stroke-width:1.0;"/><line style="stroke:#E91E63;stroke-width:1.0;" x1="177.5" x2="287.5" y1="669.7969" y2="669.7969"/><line style="stroke:#E91E63;stroke-width:1.0;" x1="303.5" x2="350.5" y1="683.7969" y2="683.7969"/><line style="stroke:#E91E63;stroke-width:1.0;" x1="350.5" x2="350.5" y1="683.7969" y2="696.7969"/><line style="stroke:#E91E63;stroke-width:1.0;" x1="309.5" x2="350.5" y1="696.7969" y2="696.7969"/><polygon fill="#E91E63" points="319.5,692.7969,309.5,696.7969,319.5,700.7969,315.5,696.7969" style="stroke:#E91E63;stroke-width:1.0;"/><polygon fill="#E91E63" points="388.5,706.7969,398.5,710.7969,388.5,714.7969,392.5,710.7969" style="stroke:#E91E63;stroke-width:1.0;"/><line style="stroke:#E91E63;stroke-width:1.0;" x1="308.5" x2="394.5" y1="710.7969" y2="710.7969"/><polygon fill="#E91E63" points="500.5,720.7969,510.5,724.7969,500.5,728.7969,504.5,724.7969" style="stroke:#E91E63;stroke-width:1.0;"/><line style="stroke:#E91E63;stroke-width:1.0;" x1="410.5" x2="506.5" y1="724.7969" y2="724.7969"/><polygon fill="#E91E63" points="319.5,734.7969,309.5,738.7969,319.5,742.7969,315.5,738.7969" style="stroke:#E91E63;stroke-width:1.0;"/><line style="stroke:#E91E63;stroke-width:1.0;stroke-dasharray:2.0,2.0;" x1="313.5" x2="399.5" y1="738.7969" y2="738.7969"/><line style="stroke:#E91E63;stroke-width:1.0;stroke-dasharray:2.0,2.0;" x1="308.5" x2="350.5" y1="752.7969" y2="752.7969"/><line style="stroke:#E91E63;stroke-width:1.0;stroke-dasharray:2.0,2.0;" x1="350.5" x2="350.5" y1="752.7969" y2="765.7969"/><line style="stroke:#E91E63;stroke-width:1.0;stroke-dasharray:2.0,2.0;" x1="303.5" x2="350.5" y1="765.7969" y2="765.7969"/><polygon fill="#E91E63" points="313.5,761.7969,303.5,765.7969,313.5,769.7969,309.5,765.7969" style="stroke:#E91E63;stroke-width:1.0;"/><polygon fill="#E91E63" points="188.5,775.7969,178.5,779.7969,188.5,783.7969,184.5,779.7969" style="stroke:#E91E63;stroke-width:1.0;"/><line style="stroke:#E91E63;stroke-width:1.0;stroke-dasharray:2.0,2.0;" x1="182.5" x2="292.5" y1="779.7969" y2="779.7969"/><rect fill="#FFFFFF" height="48.2656" style="stroke:#A0439C;stroke-width:1.5;" width="210" x="466" y="787.7969"/><path d="M466,787.7969 L536,787.7969 L536,798.7969 L526,808.7969 L466,808.7969 L466,787.7969 " fill="#A0439C" style="stroke:#A0439C;stroke-width:2.0;"/><text fill="#A0439C" font-family="Roboto" font-size="13" font-weight="bold" lengthAdjust="spacing" textLength="21" x="481" y="803.8638">ref</text><text fill="#A0439C" font-family="Roboto" font-size="13" lengthAdjust="spacing" textLength="61" x="540.5" y="826.8638">reference</text><line style="stroke:#E91E63;stroke-width:1.0;" x1="238" x2="238" y1="671.7969" y2="777.7969"/><polygon fill="#E91E63" points="234,681.7969,238,671.7969,242,681.7969,238,677.7969" style="stroke:#E91E63;stroke-width:1.0;"/><polygon fill="#E91E63" points="234,767.7969,238,777.7969,242,767.7969,238,771.7969" style="stroke:#E91E63;stroke-width:1.0;"/><text fill="#E91E63" font-family="Roboto" font-size="13" lengthAdjust="spacing" textLength="30" x="244" y="729.2974">label</text><!--SRC=[lHbhJ-D8yhj_HP51oaIRPKd81CZ1h224cP60cIMPEurE9zInEuaFsvrjjtdiQFxxLNNRJll5OtTrGI99LtMzdquRfkenyACbn5mfV8zX8IHy2LYalbvUWEUpfMHXxBHXoZcib5gFVlbbJU0a37PYaKYNuuqbtucuqdSzuIOXZnHJleZmtap04a4C0ZzM81Qm5d7ipmCEyQqVhHcIpvbtGIRH23Bwy3D-M2PioHqaDFvyyVbwYX-EN_YYIqiUSSa2S4KW92edHGZYFe8OrURnYdFbR6sdMjxCcNkxb2A9l1kD3yVGUhDOB5esZf0Ubytm3U1Wb_u8ngGKznQ47_RuS8yWQFfR2x0tE3muEssHu26xvS2yK4G-6J9JWDqnFs1aFR8r3pYPEaPABai8poB6TWTxXsxBWXN0gTn-k1PIeRqjaBVNN_HBqBgxaL3SEkttzZdVpm5rDvI_jWu7FROO3BFpElnx9YCC3DjslODURs33glVGV97m-4slQzxxm28FI2XGQDR8XC5ueAC0IMY92VycPBvDRVTWqD-Vjp9ulmplzOO7Sy-2i-IXN-FFr2AbsuU7XrhM9AxpDFbNg1KlU3aGIzyjqYdQ274eWjSbd49qw6YzyocCYrYvTnndQos5oxr4SaYPwenvktt7v76lum1ifyRJHrseY5P_L7PQ1vmj7davjo9deuh5UL37kQnm_L4v2RheWVFpy_7vUUjf8J9RFMU0gasR3kreVvft6fRFiQv4RpTD1NodjnSmwR-CIR-PoGPbamNFCLOlqwwGEy_gXhrgzkrY0Xyd5rycVw9ZA42-lkvVSE-hbSb8MBC0snGV8SusIODzIleXau-my8EqmtH1FQvzbmN18sow2Tr0cs0vehV-2BFTQmVMjRXmJtUOBh10SHcX67UyH4j4H4f4I4dn1rL3W-JJi2x4oNfj2WYAYhTptMBIfDS1oPT9m2IyzVY29O7gu76_0n4BESBkk8ov1s-nwV00HA9YZ6T2sUjaqA9qWmvs-kLA5K_VTLAzyEq1gGcnrXeIfM47TdPsYg5XXy0nQKiQTNCp6WkGCOzRRrpNRHbxu9VXSDYY8Dho5s1k7xVw-WJWD9Teh3sgYHg8bYqz9Hxwz5n4gemvHQTmWPRcLUWM3s9kyTrhufjpAF3DUVn5leDchlrNQLlMvztVQCUFd26c1K6Nrh0SDh4qw7y3nmpGvAIIHFklCkuJBjLq_wevCnLge-CP_JA3Hvw_S0pLgVy7XzvUjQ1-c5nDhaykO3gPpJvTVNXTJTtQdWllyMQ136uMBFInFk7uSotcGeaMKkBCNML33hWiqYNOLx4Ur4ciAon5tLp0z1CrZN_GK4VLbDDuT-yucvMYecxJa6_TEJCe1QlNpVtMbOzeSabJV8g-6UZHR1iq7Ew4kyAf4oTGcN2BGBnYdhYd3Mp1A20iqZYqtaiVMqvKWNr1dUbEtsPoJKgvGkB60-zq6pHh5UvUeH_vOH9YE_Eedw6DzNuHyzyJ7hays_Emnqdbk_uQ9_uOi4ZVekII2ZmkOXWDbWH8SHomEFwNfjZRtRMDVsOw2Nnt2j6Agw690cCWo9qBbGZ90fAyZAwL8GlmQ8OTxGIxIsH21VznwVomEP_GggNvPbcpsRsAmjY00eahsXE8Gd4-wH1M6xvE9p0-cKvUbG6MVAv2vYbrQxRhKrbfmwNU-WWdDN_Wum7syl700J3MOFSyna0g2lqrvYwBkKMvRyjjHuvxYmkrGRJdwrI_a_7iqpy_pRxzUVrmubMFjO9e5J32KWzKfbQ4J_9yhOEUiYmjowj5AGfIAJ2XCVCy8uoznbICWc6lvxrwismmf_T-YBcGsg-u6ZIWpdmLrE8FKvDF9xzzdLoDNnTIRHr98qnXJiw7CNa_IsCs5tUyeg39wvhWeo4iBoc3tQ8QfrHLQCgjtjihQJp6x98YU07c95B586b2F6EApOk1RQLCYNiGS5TFjhKw5f1_ItZ2dqURfWNombzmBErr-RNVSEMC1-onpktzfWi6woMHbTxuG75Q3Uvt3UZNV85J0fNxIfGFgVoOlZTR-UvjnECOUlLaJd60hn0O5688HmWTsIyEvzT4FYAVJRvSVFvsERcQlNAvAoMDQoKDrVRqg14XBPxrS7Yxy1z-9JjaAMFmfgKcIuyoJQ8qmarwD89ry3P0oJffpjHZRCIq4kPfLBkoBdcXX3Hr6TmBishwL7wTO5bQOBzxdk9OX6iHlOZvkH-ye16EcVIUnvfYlEJjyaboWKYyshmeoYPft7ckormXeyOExQwuUsjsR5gdDrksBJMUDidS1cm6N5iTEwbcyAijeGZoAlI4Y1_v0rjcBdwYjNwY6GsPyIfckTP_dl-NDuG2rfOJfQG_JnHlcE7Qzl1G0jXJH-FSTutCMRGCU8DEkZvuPXZ3iTZ3_MrKT_teQ9xc__ltLLB3Ie0nnV-_EhV14r5RuUg1et9XucSASFEZ7sc2jE4vAsn3i112pSM3urZOXPdYw6YpWRv_x-W95ipBJBmb17e8X7t4oInbbjtqSmdNJQSAUcKJHWc5ct52lzBHeeBXqPCdnylc2NpbiqM5uMQGi8UA4jhlUeGmBpDEb10SbYWH9U4SbnJRM3-_p_hG9RPP-dLhWmYn4ckyYSlJ9Jt3emRZP4R4YxcHHWOUfXJeOGASM4yCTMTwqxFlPiOR5H0p2c1-895KLqPw2Q9vNLU0zF-_9mzACj1F0l_ZsEv0uiRiZZwcftkq4kw2yf6yanefSmrYvwR_wQSQg6Nq72gvIcIKVxNzik5E4FIqaIBdKQ58A0q6wpiLsjf-ZYPxV0pPb4RpnCxEZaTJNlRqaYr31egBFyoI_vtzg76SrZZ_Le4KOPc1SpDLB0vRMqx1Fkc7x_CV5gLC3VoanJh20yGO6MSwZkGBm9L1faIxrWmXiwdnVm00]--></g></svg>