<?xml version="1.0" encoding="us-ascii" standalone="no"?><svg xmlns="http://www.w3.org/2000/svg" xmlns:xlink="http://www.w3.org/1999/xlink" contentStyleType="text/css" height="432px" preserveAspectRatio="none" style="width:490px;height:432px;" version="1.1" viewBox="0 0 490 432" width="490px" zoomAndPan="magnify"><defs/><g><rect fill="#1168BD" height="36.2969" rx="12.5" ry="12.5" style="stroke:#1168BD;stroke-width:1.5;" width="94" x="10" y="197.0391"/><text fill="#FFFFFF" font-family="sans-serif" font-size="14" lengthAdjust="spacing" textLength="19" x="20" y="220.0342">C4</text><text fill="#FFFFFF" font-family="sans-serif" font-size="14" lengthAdjust="spacing" textLength="4" x="39" y="220.0342">&#160;</text><text fill="#FFFFFF" font-family="sans-serif" font-size="14" lengthAdjust="spacing" textLength="51" x="43" y="220.0342">models</text><rect fill="#1168BD" height="36.2969" rx="12.5" ry="12.5" style="stroke:#1168BD;stroke-width:1.5;" width="108" x="154" y="112.5938"/><text fill="#FFFFFF" font-family="sans-serif" font-size="14" lengthAdjust="spacing" textLength="33" x="164" y="135.5889">Root</text><text fill="#FFFFFF" font-family="sans-serif" font-size="14" lengthAdjust="spacing" textLength="4" x="197" y="135.5889">&#160;</text><text fill="#FFFFFF" font-family="sans-serif" font-size="14" lengthAdjust="spacing" textLength="51" x="201" y="135.5889">models</text><rect fill="#1168BD" height="52.5938" rx="12.5" ry="12.5" style="stroke:#1168BD;stroke-width:1.5;" width="127" x="312" y="20"/><text fill="#FFFFFF" font-family="sans-serif" font-size="14" lengthAdjust="spacing" textLength="35" x="322" y="42.9951">Level</text><text fill="#FFFFFF" font-family="sans-serif" font-size="14" lengthAdjust="spacing" textLength="4" x="357" y="42.9951">&#160;</text><text fill="#FFFFFF" font-family="sans-serif" font-size="14" lengthAdjust="spacing" textLength="13" x="361" y="42.9951">1,</text><text fill="#FFFFFF" font-family="sans-serif" font-size="14" lengthAdjust="spacing" textLength="4" x="374" y="42.9951">&#160;</text><text fill="#FFFFFF" font-family="sans-serif" font-size="14" lengthAdjust="spacing" textLength="51" x="378" y="42.9951">System</text><text fill="#FFFFFF" font-family="sans-serif" font-size="14" lengthAdjust="spacing" textLength="52" x="322" y="59.292">context</text><path d="M262,130.7422 L272,130.7422 C287,130.7422 287,46.2969 302,46.2969 L312,46.2969 " fill="none" style="stroke:#E91E63;stroke-width:1.0;"/><rect fill="#1168BD" height="36.2969" rx="12.5" ry="12.5" style="stroke:#1168BD;stroke-width:1.5;" width="151" x="312" y="92.5938"/><text fill="#FFFFFF" font-family="sans-serif" font-size="14" lengthAdjust="spacing" textLength="35" x="322" y="115.5889">Level</text><text fill="#FFFFFF" font-family="sans-serif" font-size="14" lengthAdjust="spacing" textLength="4" x="357" y="115.5889">&#160;</text><text fill="#FFFFFF" font-family="sans-serif" font-size="14" lengthAdjust="spacing" textLength="13" x="361" y="115.5889">2,</text><text fill="#FFFFFF" font-family="sans-serif" font-size="14" lengthAdjust="spacing" textLength="4" x="374" y="115.5889">&#160;</text><text fill="#FFFFFF" font-family="sans-serif" font-size="14" lengthAdjust="spacing" textLength="75" x="378" y="115.5889">Containers</text><path d="M262,130.7422 L272,130.7422 C287,130.7422 287,110.7422 302,110.7422 L312,110.7422 " fill="none" style="stroke:#E91E63;stroke-width:1.0;"/><rect fill="#1168BD" height="36.2969" rx="12.5" ry="12.5" style="stroke:#1168BD;stroke-width:1.5;" width="166" x="312" y="148.8906"/><text fill="#FFFFFF" font-family="sans-serif" font-size="14" lengthAdjust="spacing" textLength="35" x="322" y="171.8857">Level</text><text fill="#FFFFFF" font-family="sans-serif" font-size="14" lengthAdjust="spacing" textLength="4" x="357" y="171.8857">&#160;</text><text fill="#FFFFFF" font-family="sans-serif" font-size="14" lengthAdjust="spacing" textLength="13" x="361" y="171.8857">3,</text><text fill="#FFFFFF" font-family="sans-serif" font-size="14" lengthAdjust="spacing" textLength="4" x="374" y="171.8857">&#160;</text><text fill="#FFFFFF" font-family="sans-serif" font-size="14" lengthAdjust="spacing" textLength="90" x="378" y="171.8857">Components</text><path d="M262,130.7422 L272,130.7422 C287,130.7422 287,167.0391 302,167.0391 L312,167.0391 " fill="none" style="stroke:#E91E63;stroke-width:1.0;"/><rect fill="#1168BD" height="36.2969" rx="12.5" ry="12.5" style="stroke:#1168BD;stroke-width:1.5;" width="113" x="312" y="205.1875"/><text fill="#FFFFFF" font-family="sans-serif" font-size="14" lengthAdjust="spacing" textLength="35" x="322" y="228.1826">Level</text><text fill="#FFFFFF" font-family="sans-serif" font-size="14" lengthAdjust="spacing" textLength="4" x="357" y="228.1826">&#160;</text><text fill="#FFFFFF" font-family="sans-serif" font-size="14" lengthAdjust="spacing" textLength="13" x="361" y="228.1826">4,</text><text fill="#FFFFFF" font-family="sans-serif" font-size="14" lengthAdjust="spacing" textLength="4" x="374" y="228.1826">&#160;</text><text fill="#FFFFFF" font-family="sans-serif" font-size="14" lengthAdjust="spacing" textLength="37" x="378" y="228.1826">Code</text><path d="M262,130.7422 L272,130.7422 C287,130.7422 287,223.3359 302,223.3359 L312,223.3359 " fill="none" style="stroke:#E91E63;stroke-width:1.0;"/><path d="M104,215.1875 L114,215.1875 C129,215.1875 129,130.7422 144,130.7422 L154,130.7422 " fill="none" style="stroke:#E91E63;stroke-width:1.0;"/><rect fill="#1168BD" height="52.5938" rx="12.5" ry="12.5" style="stroke:#1168BD;stroke-width:1.5;" width="124" x="154" y="309.6328"/><text fill="#FFFFFF" font-family="sans-serif" font-size="14" lengthAdjust="spacing" textLength="104" x="164" y="332.6279">Supplementary</text><text fill="#FFFFFF" font-family="sans-serif" font-size="14" lengthAdjust="spacing" textLength="63" x="164" y="348.9248">diagrams</text><rect fill="#1168BD" height="36.2969" rx="12.5" ry="12.5" style="stroke:#1168BD;stroke-width:1.5;" width="146" x="328" y="261.4844"/><text fill="#FFFFFF" font-family="sans-serif" font-size="14" lengthAdjust="spacing" textLength="51" x="338" y="284.4795">System</text><text fill="#FFFFFF" font-family="sans-serif" font-size="14" lengthAdjust="spacing" textLength="4" x="389" y="284.4795">&#160;</text><text fill="#FFFFFF" font-family="sans-serif" font-size="14" lengthAdjust="spacing" textLength="71" x="393" y="284.4795">landscape</text><path d="M278,335.9297 L288,335.9297 C303,335.9297 303,279.6328 318,279.6328 L328,279.6328 " fill="none" style="stroke:#E91E63;stroke-width:1.0;"/><rect fill="#1168BD" height="36.2969" rx="12.5" ry="12.5" style="stroke:#1168BD;stroke-width:1.5;" width="87" x="328" y="317.7813"/><text fill="#FFFFFF" font-family="sans-serif" font-size="14" lengthAdjust="spacing" textLength="67" x="338" y="340.7764">Dynamics</text><path d="M278,335.9297 L288,335.9297 C303,335.9297 303,335.9297 318,335.9297 L328,335.9297 " fill="none" style="stroke:#E91E63;stroke-width:1.0;"/><rect fill="#1168BD" height="36.2969" rx="12.5" ry="12.5" style="stroke:#1168BD;stroke-width:1.5;" width="104" x="328" y="374.0781"/><text fill="#FFFFFF" font-family="sans-serif" font-size="14" lengthAdjust="spacing" textLength="84" x="338" y="397.0732">Deployment</text><path d="M278,335.9297 L288,335.9297 C303,335.9297 303,392.2266 318,392.2266 L328,392.2266 " fill="none" style="stroke:#E91E63;stroke-width:1.0;"/><path d="M104,215.1875 L114,215.1875 C129,215.1875 129,335.9297 144,335.9297 L154,335.9297 " fill="none" style="stroke:#E91E63;stroke-width:1.0;"/><!--SRC=[jLBBRjim4BppAnRe9GcIr9ATHuMW22hN1G8P2FBgUIMk5I9y22JbM2Zoxrt9IY0Wr_R0myxES8RBlGuHVJJAIeEDk0gnq_HTZFLIOUtHm1y1y0EhbzgxrihSQUSXUhIXGKysSjSwIGFjC_5BafnVbdBe5ShIPtJbR1pHpMOpG6lSATEQtqh6PqZEPWo-yIdTJbC8ezD4zt5RpqBltUl8cJZIjuJEvmFdJRoMOVgw_vj_zk_pNtqTl-e8yWKOZg-3W2EuSov-b5mNj2KDoJ7STo6IWOezQHSdlVGOSWQHZVnKC-znqpZBFpp55pqkgJUxRvj6as42-WxaVfvxxcYdqSfGOKC3kEmi6bNj6KjgjEjwiRWcNhTn1SKjQ-BZke0jvr7EGdAQpjBvwSN1oYiUR0T92ib5biwpHGgF3pdqxKDnyEksWE1QNn572T6hiesiFnGtk4MuQsrKXZAmhTRYvccTSVoIQHW9djPYIHjiTOIVjd9IsJhZgrSdbw90MxTOlmjpNepekttr5m00]--></g></svg>