<?xml version="1.0" encoding="UTF-8" standalone="no"?><svg xmlns="http://www.w3.org/2000/svg" xmlns:xlink="http://www.w3.org/1999/xlink" contentStyleType="text/css" height="432px" preserveAspectRatio="none" style="width:490px;height:432px;background:#FFFFFF;" version="1.1" viewBox="0 0 490 432" width="490px" zoomAndPan="magnify"><defs/><g><rect fill="#1168BD" height="36.2969" rx="12.5" ry="12.5" style="stroke:#1168BD;stroke-width:1.5;" width="94" x="10" y="197.0391"/><text fill="#FFFFFF" font-family="sans-serif" font-size="14" lengthAdjust="spacing" textLength="74" x="20" y="220.0342">C4 models</text><rect fill="#1168BD" height="36.2969" rx="12.5" ry="12.5" style="stroke:#1168BD;stroke-width:1.5;" width="108" x="154" y="112.5938"/><text fill="#FFFFFF" font-family="sans-serif" font-size="14" lengthAdjust="spacing" textLength="88" x="164" y="135.5889">Root models</text><rect fill="#1168BD" height="52.5938" rx="12.5" ry="12.5" style="stroke:#1168BD;stroke-width:1.5;" width="131" x="312" y="20"/><text fill="#FFFFFF" font-family="sans-serif" font-size="14" lengthAdjust="spacing" textLength="107" x="322" y="42.9951">Level 1, System</text><text fill="#FFFFFF" font-family="sans-serif" font-size="14" lengthAdjust="spacing" textLength="52" x="322" y="59.292">context</text><path d="M262,130.7422 L272,130.7422 C287,130.7422 287,46.2969 302,46.2969 L312,46.2969 " fill="none" style="stroke:#E91E63;stroke-width:1.0;"/><rect fill="#1168BD" height="36.2969" rx="12.5" ry="12.5" style="stroke:#1168BD;stroke-width:1.5;" width="151" x="312" y="92.5938"/><text fill="#FFFFFF" font-family="sans-serif" font-size="14" lengthAdjust="spacing" textLength="131" x="322" y="115.5889">Level 2, Containers</text><path d="M262,130.7422 L272,130.7422 C287,130.7422 287,110.7422 302,110.7422 L312,110.7422 " fill="none" style="stroke:#E91E63;stroke-width:1.0;"/><rect fill="#1168BD" height="36.2969" rx="12.5" ry="12.5" style="stroke:#1168BD;stroke-width:1.5;" width="166" x="312" y="148.8906"/><text fill="#FFFFFF" font-family="sans-serif" font-size="14" lengthAdjust="spacing" textLength="146" x="322" y="171.8857">Level 3, Components</text><path d="M262,130.7422 L272,130.7422 C287,130.7422 287,167.0391 302,167.0391 L312,167.0391 " fill="none" style="stroke:#E91E63;stroke-width:1.0;"/><rect fill="#1168BD" height="36.2969" rx="12.5" ry="12.5" style="stroke:#1168BD;stroke-width:1.5;" width="113" x="312" y="205.1875"/><text fill="#FFFFFF" font-family="sans-serif" font-size="14" lengthAdjust="spacing" textLength="93" x="322" y="228.1826">Level 4, Code</text><path d="M262,130.7422 L272,130.7422 C287,130.7422 287,223.3359 302,223.3359 L312,223.3359 " fill="none" style="stroke:#E91E63;stroke-width:1.0;"/><path d="M104,215.1875 L114,215.1875 C129,215.1875 129,130.7422 144,130.7422 L154,130.7422 " fill="none" style="stroke:#E91E63;stroke-width:1.0;"/><rect fill="#1168BD" height="52.5938" rx="12.5" ry="12.5" style="stroke:#1168BD;stroke-width:1.5;" width="128" x="154" y="309.6328"/><text fill="#FFFFFF" font-family="sans-serif" font-size="14" lengthAdjust="spacing" textLength="104" x="164" y="332.6279">Supplementary</text><text fill="#FFFFFF" font-family="sans-serif" font-size="14" lengthAdjust="spacing" textLength="63" x="164" y="348.9248">diagrams</text><rect fill="#1168BD" height="36.2969" rx="12.5" ry="12.5" style="stroke:#1168BD;stroke-width:1.5;" width="146" x="332" y="261.4844"/><text fill="#FFFFFF" font-family="sans-serif" font-size="14" lengthAdjust="spacing" textLength="126" x="342" y="284.4795">System landscape</text><path d="M282,335.9297 L292,335.9297 C307,335.9297 307,279.6328 322,279.6328 L332,279.6328 " fill="none" style="stroke:#E91E63;stroke-width:1.0;"/><rect fill="#1168BD" height="36.2969" rx="12.5" ry="12.5" style="stroke:#1168BD;stroke-width:1.5;" width="87" x="332" y="317.7813"/><text fill="#FFFFFF" font-family="sans-serif" font-size="14" lengthAdjust="spacing" textLength="67" x="342" y="340.7764">Dynamics</text><path d="M282,335.9297 L292,335.9297 C307,335.9297 307,335.9297 322,335.9297 L332,335.9297 " fill="none" style="stroke:#E91E63;stroke-width:1.0;"/><rect fill="#1168BD" height="36.2969" rx="12.5" ry="12.5" style="stroke:#1168BD;stroke-width:1.5;" width="104" x="332" y="374.0781"/><text fill="#FFFFFF" font-family="sans-serif" font-size="14" lengthAdjust="spacing" textLength="84" x="342" y="397.0732">Deployment</text><path d="M282,335.9297 L292,335.9297 C307,335.9297 307,392.2266 322,392.2266 L332,392.2266 " fill="none" style="stroke:#E91E63;stroke-width:1.0;"/><path d="M104,215.1875 L114,215.1875 C129,215.1875 129,335.9297 144,335.9297 L154,335.9297 " fill="none" style="stroke:#E91E63;stroke-width:1.0;"/><!--MD5=[76349f570f5b42c8d34c96d74d7072cc]
@startmindmap
<style>
mindmapDiagram {
  node {
    BackgroundColor #1168bd
    LineColor #1168bd
    FontColor #fff
    MaximumWidth 150
  }
  boxless {
    FontColor #1168bd
  }
  arrow {
    LineColor #e91e63
  }
}
wbsDiagram {
  node {
    BackgroundColor #1168bd
    LineColor #1168bd
    FontColor #fff
    MaximumWidth 100
  }
  boxless {
    FontColor #1168bd
  }
  arrow {
    LineColor #e91e63
  }
}
</style>
* C4 models
 * Root models
  * Level 1, System context
  * Level 2, Containers
  * Level 3, Components
  * Level 4, Code
 * Supplementary diagrams
  * System landscape
  * Dynamics
  * Deployment
@endmindmap

PlantUML version 1.2022.12(Sun Oct 23 18:12:26 GMT 2022)
(GPL source distribution)
Java Runtime: OpenJDK Runtime Environment
JVM: OpenJDK 64-Bit Server VM
Default Encoding: UTF-8
Language: en
Country: US
--></g></svg>