<?xml version="1.0" encoding="UTF-8" standalone="no"?><svg xmlns="http://www.w3.org/2000/svg" xmlns:xlink="http://www.w3.org/1999/xlink" contentStyleType="text/css" height="553px" preserveAspectRatio="none" style="width:868px;height:553px;background:#FFFFFF;" version="1.1" viewBox="0 0 868 553" width="868px" zoomAndPan="magnify"><defs/><g><rect fill="none" height="551.6633" style="stroke:#FFFFFF;stroke-width:1.0;" width="866.2529" x="0" y="0"/><!--entity user--><g id="elem_user"><ellipse cx="506" cy="22" fill="#08427B" rx="16" ry="16" style="stroke:#FFFFFF;stroke-width:1.5;"/><path d="M506,42 C510,42 513,42 517,38 C525,38 533,46 533,54 L533,58 C533,62 529,66 525,66 L487,66 C483,66 479,62 479,58 L479,54 C479,46 487,38 495,38 C499,42 502,42 506,42 " fill="#08427B" style="stroke:#FFFFFF;stroke-width:1.5;"/><text fill="#08427B" font-family="Roboto" font-size="13" lengthAdjust="spacing" textLength="30" x="491" y="81.5669">User</text></g><!--entity developer--><g id="elem_developer"><ellipse cx="396" cy="165" fill="#08427B" rx="16" ry="16" style="stroke:#FFFFFF;stroke-width:1.5;"/><path d="M396,185 C400,185 403,185 407,181 C415,181 423,189 423,197 L423,201 C423,205 419,209 415,209 L377,209 C373,209 369,205 369,201 L369,197 C369,189 377,181 385,181 C389,185 392,185 396,185 " fill="#08427B" style="stroke:#FFFFFF;stroke-width:1.5;"/><text fill="#08427B" font-family="Roboto" font-size="13" lengthAdjust="spacing" textLength="65" x="363.5" y="224.5669">Developer</text></g><!--entity appman--><g id="elem_appman"><ellipse cx="244" cy="165" fill="#08427B" rx="16" ry="16" style="stroke:#FFFFFF;stroke-width:1.5;"/><path d="M244,185 C248,185 251,185 255,181 C263,181 271,189 271,197 L271,201 C271,205 267,209 263,209 L225,209 C221,209 217,205 217,201 L217,197 C217,189 225,181 233,181 C237,185 240,185 244,185 " fill="#08427B" style="stroke:#FFFFFF;stroke-width:1.5;"/><text fill="#08427B" font-family="Roboto" font-size="13" lengthAdjust="spacing" textLength="130" x="179" y="224.5669">Application Manager</text></g><!--entity dwb--><g id="elem_dwb"><ellipse cx="534" cy="165" fill="#08427B" rx="16" ry="16" style="stroke:#FFFFFF;stroke-width:1.5;"/><path d="M534,185 C538,185 541,185 545,181 C553,181 561,189 561,197 L561,201 C561,205 557,209 553,209 L515,209 C511,209 507,205 507,201 L507,197 C507,189 515,181 523,181 C527,185 530,185 534,185 " fill="#08427B" style="stroke:#FFFFFF;stroke-width:1.5;"/><text fill="#08427B" font-family="Roboto" font-size="13" lengthAdjust="spacing" textLength="101" x="483.5" y="224.5669">DataWorkbench</text></g><g id="elem_hfeedback"><ellipse cx="124.8368" cy="520.6674" fill="#1168BD" rx="118.8368" ry="26.1674" style="stroke:#FFFFFF;stroke-width:0.5;"/><text fill="#FFFFFF" font-family="Roboto" font-size="13" lengthAdjust="spacing" textLength="195" x="27.3368" y="523.1678">Get human-readable feedback</text></g><g id="elem_mfeedback"><ellipse cx="402.9083" cy="520.5817" fill="#1168BD" rx="123.4083" ry="27.0817" style="stroke:#FFFFFF;stroke-width:0.5;"/><text fill="#FFFFFF" font-family="Roboto" font-size="13" lengthAdjust="spacing" textLength="205" x="300.4083" y="523.0821">Get machine-readable feedback</text></g><g id="elem_api"><ellipse cx="264.0222" cy="415.7044" fill="#1168BD" rx="74.0222" ry="17.2044" style="stroke:#FFFFFF;stroke-width:0.5;"/><text fill="#FFFFFF" font-family="Roboto" font-size="13" lengthAdjust="spacing" textLength="89" x="219.5222" y="418.2049">Access an API</text></g><g id="elem_run"><ellipse cx="434.8052" cy="314.061" fill="#1168BD" rx="105.8052" ry="23.561" style="stroke:#FFFFFF;stroke-width:0.5;"/><text fill="#FFFFFF" font-family="Roboto" font-size="13" lengthAdjust="spacing" textLength="166" x="351.8052" y="316.5615">Run the validator software</text></g><g id="elem_ws"><ellipse cx="769.8765" cy="188.3753" fill="#1168BD" rx="92.3765" ry="20.8753" style="stroke:#FFFFFF;stroke-width:0.5;"/><text fill="#FFFFFF" font-family="Roboto" font-size="13" lengthAdjust="spacing" textLength="135" x="702.3765" y="190.8758">Access a web service</text></g><!--reverse link user to appman--><g id="link_user_appman"><path d="M437.02,83.62 C398.2,104.52 349.93,130.49 311.37,151.24 " fill="none" id="user-backto-appman" style="stroke:#E91E63;stroke-width:1.0;"/><polygon fill="none" points="433.53,77.55,454.46,74.24,440.17,89.88,433.53,77.55" style="stroke:#E91E63;stroke-width:1.0;"/></g><!--reverse link appman to developer--><g id="link_appman_developer"><path d="M332.87,188.5 C337.17,188.5 341.47,188.5 345.76,188.5 " fill="none" id="appman-backto-developer" style="stroke:#E91E63;stroke-width:1.0;"/><polygon fill="none" points="332.9,195.5,312.9,188.5,332.9,181.5,332.9,195.5" style="stroke:#E91E63;stroke-width:1.0;"/></g><!--reverse link developer to dwb--><g id="link_developer_dwb"><path d="M467.67,188.5 C472.22,188.5 476.76,188.5 481.3,188.5 " fill="none" id="developer-backto-dwb" style="stroke:#E91E63;stroke-width:1.0;"/><polygon fill="none" points="467.92,195.5,447.92,188.5,467.92,181.5,467.92,195.5" style="stroke:#E91E63;stroke-width:1.0;"/></g><!--reverse link api to mfeedback--><g id="link_api_mfeedback"><path d="M302.25,444.85 C323.04,460.25 348.55,479.15 368.69,494.08 " fill="none" id="api-backto-mfeedback" style="stroke:#E91E63;stroke-width:1.0;"/><polygon fill="none" points="298.23,450.58,286.33,433.04,306.56,439.33,298.23,450.58" style="stroke:#E91E63;stroke-width:1.0;"/></g><!--reverse link api to hfeedback--><g id="link_api_hfeedback"><path d="M225.75,444.84 C204.5,460.59 178.32,479.99 157.97,495.07 " fill="none" id="api-backto-hfeedback" style="stroke:#E91E63;stroke-width:1.0;"/><polygon fill="none" points="221.44,439.33,241.67,433.04,229.77,450.58,221.44,439.33" style="stroke:#E91E63;stroke-width:1.0;"/></g><!--reverse link run to api--><g id="link_run_api"><path d="M380.05,346.97 C349.99,364.46 314.13,385.33 290.31,399.19 " fill="none" id="run-backto-api" style="stroke:#E91E63;stroke-width:1.0;"/><polygon fill="none" points="376.2,341.11,397.01,337.11,383.24,353.22,376.2,341.11" style="stroke:#E91E63;stroke-width:1.0;"/></g><!--reverse link ws to run--><g id="link_ws_run"><path d="M702.56,214.36 C639.47,237.62 546.5,271.9 488.41,293.31 " fill="none" id="ws-backto-run" style="stroke:#E91E63;stroke-width:1.0;"/><polygon fill="none" points="700.11,207.81,721.29,207.46,704.95,220.94,700.11,207.81" style="stroke:#E91E63;stroke-width:1.0;"/></g><!--link user to ws--><g id="link_user_ws"><path d="M556.28,73.35 C606.45,100.15 682.59,140.82 729.16,165.69 " fill="none" id="user-to-ws" style="stroke:#E91E63;stroke-width:1.0;"/><polygon fill="#E91E63" points="733.35,167.92,727.3056,160.1441,728.9426,165.5589,723.5278,167.1959,733.35,167.92" style="stroke:#E91E63;stroke-width:1.0;"/></g><!--link appman to api--><g id="link_appman_api"><path d="M247.6,229.99 C251.81,277.35 258.63,354.09 261.99,391.93 " fill="none" id="appman-to-api" style="stroke:#E91E63;stroke-width:1.0;"/><polygon fill="#E91E63" points="262.41,396.59,265.598,387.2714,261.9676,391.6096,257.6294,387.9792,262.41,396.59" style="stroke:#E91E63;stroke-width:1.0;"/><text fill="#E91E63" font-family="Roboto" font-size="13" lengthAdjust="spacing" textLength="44" x="261" y="318.5669">access</text></g><!--link developer to run--><g id="link_developer_run"><path d="M408.77,229.94 C414.34,247.58 420.74,267.86 425.83,283.96 " fill="none" id="developer-to-run" style="stroke:#E91E63;stroke-width:1.0;"/><polygon fill="#E91E63" points="427.33,288.7,428.4201,278.9117,425.8175,283.9342,420.7949,281.3316,427.33,288.7" style="stroke:#E91E63;stroke-width:1.0;"/></g><!--link dwb to ws--><g id="link_dwb_ws"><path d="M586.96,188.5 C611.73,188.5 642.05,188.5 670.83,188.5 " fill="none" id="dwb-to-ws" style="stroke:#E91E63;stroke-width:1.0;"/><polygon fill="#E91E63" points="675.82,188.5,666.82,184.5,670.82,188.5,666.82,192.5,675.82,188.5" style="stroke:#E91E63;stroke-width:1.0;"/><text fill="#E91E63" font-family="Roboto" font-size="13" lengthAdjust="spacing" textLength="50" x="607" y="179.5669">operate</text></g><!--SRC=[lLdhKzj84l-klsBmKWMkCYmsZdbSo1OOar1528kTsyedQYorx3aaZMuqik5sxt-_xf5aZoo9n-xM9LKndkxfr_pwHNROM3y78fgn1BJ6puJvKh6xW4Vw-zSRvWa-KpnCd1qs1c1phUFJdt-EYPo6mNuYK-K2tfZ1VWJQtFMacuOGQQw5ZF3UHB8PaZWBHAAPz5aiaqHC0s39euXYZk9NoZjCfT4fA-IpFVnXbl8PE2Xe-Etcs_qOVpXxun-wD8C850-OAmEfq3abGoQN4KlGRKZc0DhPsiwzV9Xozt6cP1fv3uQVdR7MJxxljsmUgJnGpVGruVY0_XADAoMN5WLEkZ0u90g6_j4Y7FPFZYylMcHuo1-1SI-KaQ105Wxm1HS1f-XHh2402dM2aboU4fybZ1_q3q_SbaKhaNExHHXBfJ7U5iaxxFcz3MhTtKXgi4vxtIE0enMXxeOMiNNOxtA_FoZEw_YNN4K833jstUDkjs_JglSmV97quA7RoJvxZ4SU8wEOnh166Go6VOC2564i9lw7a0jRsi5nltSqRHNqtYQzsnqSJpsBpjEdNirxvX7Pk7roSc9iJPEwbwRtbNeEfLSEv4ouPJdb624F8JZUu2cXmw1r8GZ6PQxLwpZELgoa2rwgWELAJSRiRY-uEkks7SQsy-2Pemwhc5P_jFbeRUPiGUIjj9KrPwvOcljrcZSThZ_QJ88Eli3LrTNmwghriX55h5uBG3McJOSssb_MdSFoDTKLz7RoLC1F-dY3ajxRbFIQbQnPrbdmccBzDkzAkVEgRzYh9ZzkHkpBwEPkz2SwXcQeLvZ-nPP2pxECP34Fi4t1AV9iapNOfvG8kNfclWZo3jDX-ZaMBW-2PxRk9dG3OuBbY3vwfvZjtavWNKjAzqo7wJ0UQ50Hch603Lao8b4oGaaQddID3BBFq3eiIUCuAo1eAjvU-PQG9zqsKp1B0wxOhWS-JmFTnkDUcqKy1AGjG2NWiLriEX0mcUe4yKmiX-s2MhQktyPEFvlhykc7TkuNVZoXD2bZuo596hJP_lv-6Hes1Cx8M_AeimfZ5W4Avbdh9zTrMrayyCjWC6WHYBQ4pxBRPwsUEM7iOcNHqBoe4PfHZ6tvAUamfrSoqfkSOtmKa1Xfg5At84Z0qdlOf7UbeQHtfUClwkqtQ-szozjDVpxyZN7y0XmvBGe-QOtAGPFAZFrlq5WGcXvfmwAZTmNtXISrSlzgE0iNQj7nYdz5m2DF-4ucTIp-0wnxM2sedqUte_lp6pOUJIRNjv_VLrEtjgVIUtxmKS63pqE1zGd7dtivbLgsK19mTruCESpbaId1GYTcK2UpRh4KTLO6vZzHq_W73NLKJO76kwNZh5UAYhjDGxvrvp9ZAKMzRkwthdp1a2kQudFszK2FOLkpuN0dtJbEdJY1gXGi0ScSUt996vZF2H2MQ1nQbqfWouagj3lqcUxqR2Ntv9Gh5Muyx8DfWzbQXRjNA28HfY6sCu_w6SROx1S9_3k5o8LYpyCUfxHmHOmJVyAmI3-YvOeAF2vYY0RB0fGu37YI_6OaTWyExE1VPfs4_UwKq8ghOOQ2B41izRYiWf02aFJA-BGgv04UJR2ZdMDtYJAeu3-WdF_QcizfrJ9wYwnPxrvbOsn2ISGjxGaaeJoVj8bhXtqVZzZmV3nwLmPOzhaQbUVIhTckHsLbXtqrMn_nvE4F11vWBn_s7SQoQF0b90Yaij7V4t1v0fRadcstZHpt4HVgZD6UhtF_peUJwtzUJtxyUVzmujNFjOOO5n1X-GjKfbQaZrRvMaUzu4LQRguM6oZ8hS24nippCcFiDQOI58IzcVVgmxBc72z5YBcGnw-y6ZImJeGEQla7USZ7er-_Zsw7xuFKZa7IAQOmqEEp8Rr-aSPyAXTGSJ3BwnhmqH2sAYdzWx8R5rHLQCgjtZlSy7Y8sQLay0REKQJB86bYlEIQJyl0jb9cGtiGW6icsreVIyo_ff32wspZl43U21-mjDVbrr73bKi8-7FTi_UQBcHSRq5MVkCpuRGAxWyDxFVWuvH0vRw2yW6LdwplJUR2VOmWILYtNim53l0L0VqIXd24CCX-CvpVWtnalXpTtNpxyNLqEtddShUHDAwLD5JRywD6XhnurjFPhY-UVg4u52cJyOqtcYpzAZDBb4PwbXwDP0FU1Yf59y-PUewrcLR2lCngLzOPb4f8KvV1lR2efY_brpcM9H_xtUiIXpACPVGcvLSYU4CZ77BblSurHhoiskMBuWAPUhLvKRPDqRZpMfUvHKMD7TgTW_kOxTYqJg-tRDjgF6soUOTXCm0JTUoaHi4ljeKoM5MX5qpy0azyLZpn2wtrccOqL0PLpirQ_stwBsY00jQMSwsLcAOQ6cQu7Njus23OKqVZt7UFodaq2w319rCVl6mOmx7Om_tjjExwnu_JFFy_VQgA6bG0nZNydtqs0oRzsbandh0MkgLQ-Q472mXad5CkYsy5cSTnYCi3qSxZE11kzbkohpp295aBMKwpwrY8VfFgSOf5PTvo7AFnunzxUxaS9nU7HuhWlBTMxwmDiQZBgH5YgkxS1_08_KRLPrmPvoaAsrEuxMR_GPBJMwihOULAYAidjlMNBl5OPFwwBZL5DFVyxdfDLcaMZdlyr7DW2nu8ZrCK4kdh9LUmvbqc9Kbi2LEikseXN6HoTb5JEmlFxihITkbuRXsZukAOE9pTPL9y9r8UxRszJumeJX5h-axyfwp5ZHseUHthFTn58sB9HD13vWAGdpWGhAt_0G00]--></g></svg>