<svg aria-roledescription="gitGraph" viewBox="-130.80813598632812 -35.20000076293945 888.80810546875 280.0570068359375" height="280.0570068359375" xmlns:xlink="http://www.w3.org/1999/xlink" xmlns="http://www.w3.org/2000/svg" width="888.80810546875" id="mermaid-1684079219707"><style>#mermaid-1684079219707{font-family:"trebuchet ms",verdana,arial,sans-serif;font-size:16px;fill:#333;}#mermaid-1684079219707 .error-icon{fill:#552222;}#mermaid-1684079219707 .error-text{fill:#552222;stroke:#552222;}#mermaid-1684079219707 .edge-thickness-normal{stroke-width:2px;}#mermaid-1684079219707 .edge-thickness-thick{stroke-width:3.5px;}#mermaid-1684079219707 .edge-pattern-solid{stroke-dasharray:0;}#mermaid-1684079219707 .edge-pattern-dashed{stroke-dasharray:3;}#mermaid-1684079219707 .edge-pattern-dotted{stroke-dasharray:2;}#mermaid-1684079219707 .marker{fill:#333333;stroke:#333333;}#mermaid-1684079219707 .marker.cross{stroke:#333333;}#mermaid-1684079219707 svg{font-family:"trebuchet ms",verdana,arial,sans-serif;font-size:16px;}#mermaid-1684079219707 .commit-id,#mermaid-1684079219707 .commit-msg,#mermaid-1684079219707 .branch-label{fill:lightgrey;color:lightgrey;font-family:'trebuchet ms',verdana,arial,sans-serif;font-family:var(--mermaid-font-family);}#mermaid-1684079219707 .branch-label0{fill:#ffffff;}#mermaid-1684079219707 .commit0{stroke:hsl(240, 100%, 46.2745098039%);fill:hsl(240, 100%, 46.2745098039%);}#mermaid-1684079219707 .commit-highlight0{stroke:hsl(60, 100%, 3.7254901961%);fill:hsl(60, 100%, 3.7254901961%);}#mermaid-1684079219707 .label0{fill:hsl(240, 100%, 46.2745098039%);}#mermaid-1684079219707 .arrow0{stroke:hsl(240, 100%, 46.2745098039%);}#mermaid-1684079219707 .branch-label1{fill:black;}#mermaid-1684079219707 .commit1{stroke:hsl(60, 100%, 43.5294117647%);fill:hsl(60, 100%, 43.5294117647%);}#mermaid-1684079219707 .commit-highlight1{stroke:rgb(0, 0, 160.5);fill:rgb(0, 0, 160.5);}#mermaid-1684079219707 .label1{fill:hsl(60, 100%, 43.5294117647%);}#mermaid-1684079219707 .arrow1{stroke:hsl(60, 100%, 43.5294117647%);}#mermaid-1684079219707 .branch-label2{fill:black;}#mermaid-1684079219707 .commit2{stroke:hsl(80, 100%, 46.2745098039%);fill:hsl(80, 100%, 46.2745098039%);}#mermaid-1684079219707 .commit-highlight2{stroke:rgb(48.8333333334, 0, 146.5000000001);fill:rgb(48.8333333334, 0, 146.5000000001);}#mermaid-1684079219707 .label2{fill:hsl(80, 100%, 46.2745098039%);}#mermaid-1684079219707 .arrow2{stroke:hsl(80, 100%, 46.2745098039%);}#mermaid-1684079219707 .branch-label3{fill:#ffffff;}#mermaid-1684079219707 .commit3{stroke:hsl(210, 100%, 46.2745098039%);fill:hsl(210, 100%, 46.2745098039%);}#mermaid-1684079219707 .commit-highlight3{stroke:rgb(146.5000000001, 73.2500000001, 0);fill:rgb(146.5000000001, 73.2500000001, 0);}#mermaid-1684079219707 .label3{fill:hsl(210, 100%, 46.2745098039%);}#mermaid-1684079219707 .arrow3{stroke:hsl(210, 100%, 46.2745098039%);}#mermaid-1684079219707 .branch-label4{fill:black;}#mermaid-1684079219707 .commit4{stroke:hsl(180, 100%, 46.2745098039%);fill:hsl(180, 100%, 46.2745098039%);}#mermaid-1684079219707 .commit-highlight4{stroke:rgb(146.5000000001, 0, 0);fill:rgb(146.5000000001, 0, 0);}#mermaid-1684079219707 .label4{fill:hsl(180, 100%, 46.2745098039%);}#mermaid-1684079219707 .arrow4{stroke:hsl(180, 100%, 46.2745098039%);}#mermaid-1684079219707 .branch-label5{fill:black;}#mermaid-1684079219707 .commit5{stroke:hsl(150, 100%, 46.2745098039%);fill:hsl(150, 100%, 46.2745098039%);}#mermaid-1684079219707 .commit-highlight5{stroke:rgb(146.5000000001, 0, 73.2500000001);fill:rgb(146.5000000001, 0, 73.2500000001);}#mermaid-1684079219707 .label5{fill:hsl(150, 100%, 46.2745098039%);}#mermaid-1684079219707 .arrow5{stroke:hsl(150, 100%, 46.2745098039%);}#mermaid-1684079219707 .branch-label6{fill:black;}#mermaid-1684079219707 .commit6{stroke:hsl(300, 100%, 46.2745098039%);fill:hsl(300, 100%, 46.2745098039%);}#mermaid-1684079219707 .commit-highlight6{stroke:rgb(0, 146.5000000001, 0);fill:rgb(0, 146.5000000001, 0);}#mermaid-1684079219707 .label6{fill:hsl(300, 100%, 46.2745098039%);}#mermaid-1684079219707 .arrow6{stroke:hsl(300, 100%, 46.2745098039%);}#mermaid-1684079219707 .branch-label7{fill:black;}#mermaid-1684079219707 .commit7{stroke:hsl(0, 100%, 46.2745098039%);fill:hsl(0, 100%, 46.2745098039%);}#mermaid-1684079219707 .commit-highlight7{stroke:rgb(0, 146.5000000001, 146.5000000001);fill:rgb(0, 146.5000000001, 146.5000000001);}#mermaid-1684079219707 .label7{fill:hsl(0, 100%, 46.2745098039%);}#mermaid-1684079219707 .arrow7{stroke:hsl(0, 100%, 46.2745098039%);}#mermaid-1684079219707 .branch{stroke-width:1;stroke:#333333;stroke-dasharray:2;}#mermaid-1684079219707 .commit-label{font-size:10px;fill:#000021;}#mermaid-1684079219707 .commit-label-bkg{font-size:10px;fill:#ffffde;opacity:0.5;}#mermaid-1684079219707 .tag-label{font-size:10px;fill:#131300;}#mermaid-1684079219707 .tag-label-bkg{fill:#ECECFF;stroke:hsl(240, 60%, 86.2745098039%);}#mermaid-1684079219707 .tag-hole{fill:#333;}#mermaid-1684079219707 .commit-merge{stroke:#ECECFF;fill:#ECECFF;}#mermaid-1684079219707 .commit-reverse{stroke:#ECECFF;fill:#ECECFF;stroke-width:3;}#mermaid-1684079219707 .commit-highlight-inner{stroke:#ECECFF;fill:#ECECFF;}#mermaid-1684079219707 .arrow{stroke-width:8;stroke-linecap:round;fill:none;}#mermaid-1684079219707 .gitTitleText{text-anchor:middle;font-size:18px;fill:#333;}:root{--mermaid-font-family:"trebuchet ms",verdana,arial,sans-serif;}</style><g/><g class="commit-bullets"/><g class="commit-labels"/><g><line class="branch branch0" y2="0" x2="750" y1="0" x1="0"/><rect transform="translate(-19, -9.5)" height="23" width="54.3125" y="-1.5" x="-70.3125" ry="4" rx="4" class="branchLabelBkg label0"/><g class="branchLabel"><g transform="translate(-80.3125, -10.5)" class="label branch-label0"><text><tspan class="row" x="0" dy="1em" xml:space="preserve">main</tspan></text></g></g><line class="branch branch1" y2="90" x2="750" y1="90" x1="0"/><rect transform="translate(-19, 80.5)" height="23" width="76.21875" y="-1.5" x="-92.21875" ry="4" rx="4" class="branchLabelBkg label1"/><g class="branchLabel"><g transform="translate(-102.21875, 79.5)" class="label branch-label1"><text><tspan class="row" x="0" dy="1em" xml:space="preserve">develop</tspan></text></g></g><line class="branch branch2" y2="180" x2="750" y1="180" x1="0"/><rect transform="translate(-19, 170.5)" height="23" width="87.80813598632812" y="-1.5" x="-103.80813598632812" ry="4" rx="4" class="branchLabelBkg label2"/><g class="branchLabel"><g transform="translate(-113.80813598632812, 169.5)" class="label branch-label2"><text><tspan class="row" x="0" dy="1em" xml:space="preserve">feature/A</tspan></text></g></g></g><g class="commit-arrows"><path class="arrow arrow0" d="M 10 0 L 10 0  10 0 L 60 0"/><path class="arrow arrow1" d="M 60 0 L 60 70 A 20 20, 0, 0, 0, 80 90 L 110 90"/><path class="arrow arrow2" d="M 110 90 L 110 160 A 20 20, 0, 0, 0, 130 180 L 160 180"/><path class="arrow arrow2" d="M 160 180 L 160 180  160 180 L 210 180"/><path class="arrow arrow0" d="M 60 0 L 60 0  60 0 L 260 0"/><path class="arrow arrow2" d="M 210 180 L 210 180  210 180 L 310 180"/><path class="arrow arrow1" d="M 110 90 L 110 90  110 90 L 360 90"/><path class="arrow arrow1" d="M 260 0 L 260 70 A 20 20, 0, 0, 0, 280 90 L 360 90"/><path class="arrow arrow1" d="M 360 90 L 360 90  360 90 L 410 90"/><path class="arrow arrow1" d="M 310 180 L 310 145 A 10 10, 0, 0, 1, 320 135 L 400 135 A 10 10, 0, 0, 0, 410 125 L 410 90"/><path class="arrow arrow1" d="M 410 90 L 410 90  410 90 L 460 90"/><path class="arrow arrow0" d="M 260 0 L 260 0  260 0 L 510 0"/><path class="arrow arrow1" d="M 460 90 L 490 90 A 20 20, 0, 0, 0, 510 70 L 510 0"/><path class="arrow arrow0" d="M 510 0 L 510 0  510 0 L 560 0"/><path class="arrow arrow0" d="M 560 0 L 560 0  560 0 L 610 0"/><path class="arrow arrow1" d="M 460 90 L 460 90  460 90 L 660 90"/><path class="arrow arrow1" d="M 660 90 L 660 90  660 90 L 710 90"/></g><g class="commit-bullets"><circle class="commit 0-0bb9e00 commit0" r="10" cy="0" cx="10"/><circle class="commit Normal commit0" r="10" cy="0" cx="60"/><circle class="commit 2-df391f1 commit1" r="10" cy="90" cx="110"/><circle class="commit 3-d013fb0 commit2" r="10" cy="180" cx="160"/><circle class="commit 4-c983db1 commit2" r="10" cy="180" cx="210"/><circle class="commit 5-3f3ce71 commit0" r="10" cy="0" cx="260"/><circle class="commit 6-7ae87dc commit2" r="10" cy="180" cx="310"/><circle class="commit 7-33bf2f1 commit1" r="9" cy="90" cx="360"/><circle class="commit commit-merge 7-33bf2f1 commit1" r="6" cy="90" cx="360"/><circle class="commit 8-9a7d559 commit1" r="9" cy="90" cx="410"/><circle class="commit commit-merge 8-9a7d559 commit1" r="6" cy="90" cx="410"/><circle class="commit 9-f1dec1e commit1" r="10" cy="90" cx="460"/><circle class="commit 10-1718d87 commit0" r="9" cy="0" cx="510"/><circle class="commit commit-merge 10-1718d87 commit0" r="6" cy="0" cx="510"/><circle class="commit 11-1d9a0bf commit0" r="10" cy="0" cx="560"/><circle class="commit 12-f7e070d commit0" r="10" cy="0" cx="610"/><circle class="commit 13-667f7cb commit1" r="10" cy="90" cx="660"/><circle class="commit 14-6947ee9 commit1" r="10" cy="90" cx="710"/></g><g class="commit-labels"><g transform="translate(-30.007392578125, 26.738193359375) rotate(-45, 0, 0)"><rect height="16" width="53.22998046875" y="13.5" x="-16.614990234375" class="commit-label-bkg"/><text class="commit-label" y="25" x="-14.614990234375">0-0bb9e00</text></g><g transform="translate(-24.007189331054686, 21.369590454101562) rotate(-45, 50, 0)"><rect height="16" width="37.439971923828125" y="13.5" x="41.28001403808594" class="commit-label-bkg"/><text class="commit-label" y="25" x="43.28001403808594">Normal</text></g><polygon points="35.30500030517578,-17.2&#10;          35.30500030517578,-21.2&#10;          43.30500030517578,-27.2&#10;          76.69499969482422,-27.2&#10;          76.69499969482422,-11.2&#10;          43.30500030517578,-11.2" class="tag-label-bkg"/><circle class="tag-hole" r="1.5" cy="-19.2" cx="39.30500030517578"/><text x="47.30500030517578" class="tag-label" y="-16">v1.0.0</text><g transform="translate(-26.761249999999997, 23.833750000000002) rotate(-45, 100, 90)"><rect height="16" width="44.6875" y="103.5" x="87.65625" class="commit-label-bkg"/><text class="commit-label" y="115" x="89.65625">2-df391f1</text></g><g transform="translate(-28.37718353271484, 25.27958526611328) rotate(-45, 150, 180)"><rect height="16" width="48.93995666503906" y="193.5" x="135.53002166748047" class="commit-label-bkg"/><text class="commit-label" y="205" x="137.53002166748047">3-d013fb0</text></g><g transform="translate(-28.6434375, 25.517812499999998) rotate(-45, 200, 180)"><rect height="16" width="49.640625" y="193.5" x="185.1796875" class="commit-label-bkg"/><text class="commit-label" y="205" x="187.1796875">4-c983db1</text></g><g transform="translate(-26.5890625, 23.6796875) rotate(-45, 250, 0)"><rect height="16" width="44.234375" y="13.5" x="237.8828125" class="commit-label-bkg"/><text class="commit-label" y="25" x="239.8828125">5-3f3ce71</text></g><g transform="translate(-28.12259582519531, 25.051796264648438) rotate(-45, 300, 180)"><rect height="16" width="48.269989013671875" y="193.5" x="285.86500549316406" class="commit-label-bkg"/><text class="commit-label" y="205" x="287.86500549316406">6-7ae87dc</text></g><g transform="translate(-27.5925, 24.5775) rotate(-45, 450, 90)"><rect height="16" width="46.875" y="103.5" x="436.5625" class="commit-label-bkg"/><text class="commit-label" y="115" x="438.5625">9-f1dec1e</text></g><g transform="translate(-29.642607421875, 26.411806640625002) rotate(-45, 550, 0)"><rect height="16" width="52.27001953125" y="13.5" x="533.864990234375" class="commit-label-bkg"/><text class="commit-label" y="25" x="535.864990234375">11-1d9a0bf</text></g><g transform="translate(-29.532392578125002, 26.313193359375) rotate(-45, 600, 0)"><rect height="16" width="51.97998046875" y="13.5" x="584.010009765625" class="commit-label-bkg"/><text class="commit-label" y="25" x="586.010009765625">12-f7e070d</text></g><g transform="translate(-29.186602783203124, 26.003802490234374) rotate(-45, 650, 90)"><rect height="16" width="51.07000732421875" y="103.5" x="634.4649963378906" class="commit-label-bkg"/><text class="commit-label" y="115" x="636.4649963378906">13-667f7cb</text></g><g transform="translate(-30.0209375, 26.7503125) rotate(-45, 700, 90)"><rect height="16" width="53.265625" y="103.5" x="683.3671875" class="commit-label-bkg"/><text class="commit-label" y="115" x="685.3671875">14-6947ee9</text></g></g></svg>