<?xml version="1.0" encoding="UTF-8" standalone="no"?><svg xmlns="http://www.w3.org/2000/svg" xmlns:xlink="http://www.w3.org/1999/xlink" contentScriptType="application/ecmascript" contentStyleType="text/css" height="818px" preserveAspectRatio="none" style="width:282px;height:818px;background:#FFFFFF;" version="1.1" viewBox="0 0 282 818" width="282px" zoomAndPan="magnify"><defs><filter height="300%" id="f1bx6z7je4wgx2" width="300%" x="-1" y="-1"><feGaussianBlur result="blurOut" stdDeviation="2.0"/><feColorMatrix in="blurOut" result="blurOut2" type="matrix" values="0 0 0 0 0 0 0 0 0 0 0 0 0 0 0 0 0 0 .4 0"/><feOffset dx="4.0" dy="4.0" in="blurOut2" result="blurOut3"/><feBlend in="SourceGraphic" in2="blurOut3" mode="normal"/></filter></defs><g><ellipse cx="128.5" cy="20" fill="#000000" filter="url(#f1bx6z7je4wgx2)" rx="10" ry="10" style="stroke:none;stroke-width:1.0;"/><rect fill="#FFFFFF" filter="url(#f1bx6z7je4wgx2)" height="201.6001" style="stroke:#000000;stroke-width:2.0;" width="224.5" x="11" y="40"/><path d="M95,40 L95,49.7999 L85,59.7999 L11,59.7999 " fill="none" style="stroke:#000000;stroke-width:2.0;"/><text fill="#000000" font-family="sans-serif" font-size="14" lengthAdjust="spacing" textLength="74" x="14" y="54.9999">First section</text><polygon fill="#FEFECE" filter="url(#f1bx6z7je4wgx2)" points="95.5,76.7999,161.5,76.7999,173.5,88.7999,161.5,100.7999,95.5,100.7999,83.5,88.7999,95.5,76.7999" style="stroke:#A80036;stroke-width:1.5;"/><text fill="#000000" font-family="sans-serif" font-size="11" lengthAdjust="spacing" textLength="66" x="95.5" y="93.1999">decision node</text><text fill="#000000" font-family="sans-serif" font-size="11" lengthAdjust="spacing" textLength="16" x="67.5" y="86.5999">yes</text><text fill="#000000" font-family="sans-serif" font-size="11" lengthAdjust="spacing" textLength="12" x="173.5" y="86.5999">no</text><polygon fill="#FEFECE" filter="url(#f1bx6z7je4wgx2)" points="31,110.7999,126,110.7999,116,128,126,145.2,31,145.2" style="stroke:#A80036;stroke-width:1.5;"/><text fill="#000000" font-family="sans-serif" font-size="12" lengthAdjust="spacing" textLength="65" x="41" y="132.8">receive input</text><rect fill="#FEFECE" filter="url(#f1bx6z7je4wgx2)" height="34.4001" rx="12.5" ry="12.5" style="stroke:#A80036;stroke-width:1.5;" width="63" x="42" y="165.2"/><text fill="#000000" font-family="sans-serif" font-size="12" lengthAdjust="spacing" textLength="43" x="52" y="187.2001">Action A</text><rect fill="#FEFECE" filter="url(#f1bx6z7je4wgx2)" height="34.4001" rx="12.5" ry="12.5" style="stroke:#A80036;stroke-width:1.5;" width="63" x="152" y="110.7999"/><text fill="#000000" font-family="sans-serif" font-size="12" lengthAdjust="spacing" textLength="43" x="162" y="132.8">Action B</text><rect fill="#FEFECE" filter="url(#f1bx6z7je4wgx2)" height="34.4001" style="stroke:#A80036;stroke-width:1.5;" width="64" x="151.5" y="165.2"/><text fill="#000000" font-family="sans-serif" font-size="12" lengthAdjust="spacing" textLength="44" x="161.5" y="187.2001">Object 1</text><polygon fill="#FEFECE" filter="url(#f1bx6z7je4wgx2)" points="128.5,205.6001,140.5,217.6001,128.5,229.6001,116.5,217.6001,128.5,205.6001" style="stroke:#A80036;stroke-width:1.5;"/><rect fill="#000000" filter="url(#f1bx6z7je4wgx2)" height="6" rx="2.5" ry="2.5" style="stroke:#000000;stroke-width:1.0;" width="200" x="28.5" y="261.6001"/><rect fill="#FEFECE" filter="url(#f1bx6z7je4wgx2)" height="34.4001" rx="12.5" ry="12.5" style="stroke:#A80036;stroke-width:1.5;" width="72" x="42.5" y="287.6001"/><text fill="#000000" font-family="sans-serif" font-size="12" lengthAdjust="spacing" textLength="52" x="52.5" y="309.6002">Parallel X</text><rect fill="#FEFECE" filter="url(#f1bx6z7je4wgx2)" height="34.4001" rx="12.5" ry="12.5" style="stroke:#A80036;stroke-width:1.5;" width="72" x="142.5" y="287.6001"/><text fill="#000000" font-family="sans-serif" font-size="12" lengthAdjust="spacing" textLength="52" x="152.5" y="309.6002">Parallel Y</text><polygon fill="#FEFECE" filter="url(#f1bx6z7je4wgx2)" points="128.5,332.0002,140.5,344.0002,128.5,356.0002,116.5,344.0002,128.5,332.0002" style="stroke:#A80036;stroke-width:1.5;"/><polygon fill="#FEFECE" filter="url(#f1bx6z7je4wgx2)" points="104,420.0002,153,420.0002,165,432.0002,153,444.0002,104,444.0002,92,432.0002,104,420.0002" style="stroke:#A80036;stroke-width:1.5;"/><text fill="#000000" font-family="sans-serif" font-size="11" lengthAdjust="spacing" textLength="49" x="104" y="436.4002">done here</text><text fill="#000000" font-family="sans-serif" font-size="11" lengthAdjust="spacing" textLength="20" x="72" y="429.8002">stop</text><rect fill="#FEFECE" filter="url(#f1bx6z7je4wgx2)" height="48.8002" rx="12.5" ry="12.5" style="stroke:#A80036;stroke-width:1.5;" width="106" x="19.25" y="454.0002"/><text fill="#000000" font-family="sans-serif" font-size="12" lengthAdjust="spacing" textLength="86" x="29.25" y="476.0003">last action in this</text><text fill="#000000" font-family="sans-serif" font-size="12" lengthAdjust="spacing" textLength="75" x="29.25" y="490.4004">part of the flow</text><ellipse cx="72.25" cy="547.2005" fill="#FFFFFF" filter="url(#f1bx6z7je4wgx2)" rx="10" ry="10" style="stroke:#000000;stroke-width:1.5;"/><line style="stroke:#000000;stroke-width:2.5;" x1="66.0628" x2="78.4372" y1="541.0133" y2="553.3877"/><line style="stroke:#000000;stroke-width:2.5;" x1="78.4372" x2="66.0628" y1="541.0133" y2="553.3877"/><rect fill="#FEFECE" filter="url(#f1bx6z7je4wgx2)" height="34.4001" rx="12.5" ry="12.5" style="stroke:#A80036;stroke-width:1.5;" width="62" x="153.75" y="454.0002"/><text fill="#000000" font-family="sans-serif" font-size="12" lengthAdjust="spacing" textLength="42" x="163.75" y="476.0003">continue</text><polygon fill="#FEFECE" filter="url(#f1bx6z7je4wgx2)" points="145.25,522.8004,224.25,522.8004,234.25,540.0005,224.25,557.2005,145.25,557.2005" style="stroke:#A80036;stroke-width:1.5;"/><text fill="#000000" font-family="sans-serif" font-size="12" lengthAdjust="spacing" textLength="59" x="155.25" y="544.8005">send output</text><polygon fill="#FEFECE" filter="url(#f1bx6z7je4wgx2)" points="114.5,577.2005,142.5,577.2005,154.5,589.2005,142.5,601.2005,114.5,601.2005,102.5,589.2005,114.5,577.2005" style="stroke:#A80036;stroke-width:1.5;"/><text fill="#000000" font-family="sans-serif" font-size="11" lengthAdjust="spacing" textLength="28" x="114.5" y="593.6005">cases</text><rect fill="#FEFECE" filter="url(#f1bx6z7je4wgx2)" height="34.4001" rx="12.5" ry="12.5" style="stroke:#A80036;stroke-width:1.5;" width="58" x="17" y="624.4004"/><text fill="#000000" font-family="sans-serif" font-size="12" lengthAdjust="spacing" textLength="38" x="27" y="646.4005">Action i</text><rect fill="#FEFECE" filter="url(#f1bx6z7je4wgx2)" height="34.4001" rx="12.5" ry="12.5" style="stroke:#A80036;stroke-width:1.5;" width="61" x="95" y="624.4004"/><text fill="#000000" font-family="sans-serif" font-size="12" lengthAdjust="spacing" textLength="41" x="105" y="646.4005">Action ii</text><rect fill="#FEFECE" filter="url(#f1bx6z7je4wgx2)" height="34.4001" rx="12.5" ry="12.5" style="stroke:#A80036;stroke-width:1.5;" width="64" x="176" y="624.4004"/><text fill="#000000" font-family="sans-serif" font-size="12" lengthAdjust="spacing" textLength="44" x="186" y="646.4005">Action iii</text><polygon fill="#FEFECE" filter="url(#f1bx6z7je4wgx2)" points="128.5,678.8005,128.5,678.8005,140.5,690.8005,128.5,702.8005,128.5,702.8005,116.5,690.8005,128.5,678.8005" style="stroke:#A80036;stroke-width:1.5;"/><polygon fill="#FEFECE" filter="url(#f1bx6z7je4wgx2)" points="128.5,376.0002,140.5,388.0002,128.5,400.0002,116.5,388.0002,128.5,376.0002" style="stroke:#A80036;stroke-width:1.5;"/><polygon fill="#FEFECE" filter="url(#f1bx6z7je4wgx2)" points="100,722.8005,157,722.8005,169,734.8005,157,746.8005,100,746.8005,88,734.8005,100,722.8005" style="stroke:#A80036;stroke-width:1.5;"/><text fill="#000000" font-family="sans-serif" font-size="11" lengthAdjust="spacing" textLength="12" x="132.5" y="757.8005">no</text><text fill="#000000" font-family="sans-serif" font-size="11" lengthAdjust="spacing" textLength="57" x="100" y="739.2005">Do it again?</text><text fill="#000000" font-family="sans-serif" font-size="11" lengthAdjust="spacing" textLength="16" x="169" y="732.6005">yes</text><ellipse cx="128.5" cy="790.3005" fill="#FFFFFF" filter="url(#f1bx6z7je4wgx2)" rx="11" ry="11" style="stroke:#000000;stroke-width:1.0;"/><ellipse cx="128.5" cy="790.3005" fill="#000000" rx="6" ry="6" style="stroke:#7F7F7F;stroke-width:1.0;"/><line style="stroke:#A80036;stroke-width:1.5;" x1="73.5" x2="73.5" y1="145.2" y2="165.2"/><polygon fill="#A80036" points="69.5,155.2,73.5,165.2,77.5,155.2,73.5,159.2" style="stroke:#A80036;stroke-width:1.0;"/><line style="stroke:#A80036;stroke-width:1.5;" x1="183.5" x2="183.5" y1="145.2" y2="165.2"/><polygon fill="#A80036" points="179.5,155.2,183.5,165.2,187.5,155.2,183.5,159.2" style="stroke:#A80036;stroke-width:1.0;"/><line style="stroke:#A80036;stroke-width:1.5;" x1="83.5" x2="73.5" y1="88.7999" y2="88.7999"/><line style="stroke:#A80036;stroke-width:1.5;" x1="73.5" x2="73.5" y1="88.7999" y2="110.7999"/><polygon fill="#A80036" points="69.5,100.7999,73.5,110.7999,77.5,100.7999,73.5,104.7999" style="stroke:#A80036;stroke-width:1.0;"/><line style="stroke:#A80036;stroke-width:1.5;" x1="173.5" x2="183.5" y1="88.7999" y2="88.7999"/><line style="stroke:#A80036;stroke-width:1.5;" x1="183.5" x2="183.5" y1="88.7999" y2="110.7999"/><polygon fill="#A80036" points="179.5,100.7999,183.5,110.7999,187.5,100.7999,183.5,104.7999" style="stroke:#A80036;stroke-width:1.0;"/><line style="stroke:#A80036;stroke-width:1.5;" x1="73.5" x2="73.5" y1="199.6001" y2="217.6001"/><line style="stroke:#A80036;stroke-width:1.5;" x1="73.5" x2="116.5" y1="217.6001" y2="217.6001"/><polygon fill="#A80036" points="106.5,213.6001,116.5,217.6001,106.5,221.6001,110.5,217.6001" style="stroke:#A80036;stroke-width:1.0;"/><line style="stroke:#A80036;stroke-width:1.5;" x1="183.5" x2="183.5" y1="199.6001" y2="217.6001"/><line style="stroke:#A80036;stroke-width:1.5;" x1="183.5" x2="140.5" y1="217.6001" y2="217.6001"/><polygon fill="#A80036" points="150.5,213.6001,140.5,217.6001,150.5,221.6001,146.5,217.6001" style="stroke:#A80036;stroke-width:1.0;"/><line style="stroke:#A80036;stroke-width:1.5;" x1="128.5" x2="128.5" y1="30" y2="76.7999"/><polygon fill="#A80036" points="124.5,66.7999,128.5,76.7999,132.5,66.7999,128.5,70.7999" style="stroke:#A80036;stroke-width:1.0;"/><line style="stroke:#A80036;stroke-width:1.5;" x1="78.5" x2="78.5" y1="267.6001" y2="287.6001"/><polygon fill="#A80036" points="74.5,277.6001,78.5,287.6001,82.5,277.6001,78.5,281.6001" style="stroke:#A80036;stroke-width:1.0;"/><line style="stroke:#A80036;stroke-width:1.5;" x1="178.5" x2="178.5" y1="267.6001" y2="287.6001"/><polygon fill="#A80036" points="174.5,277.6001,178.5,287.6001,182.5,277.6001,178.5,281.6001" style="stroke:#A80036;stroke-width:1.0;"/><line style="stroke:#A80036;stroke-width:1.5;" x1="78.5" x2="78.5" y1="322.0002" y2="344.0002"/><line style="stroke:#A80036;stroke-width:1.5;" x1="78.5" x2="116.5" y1="344.0002" y2="344.0002"/><polygon fill="#A80036" points="106.5,340.0002,116.5,344.0002,106.5,348.0002,110.5,344.0002" style="stroke:#A80036;stroke-width:1.0;"/><line style="stroke:#A80036;stroke-width:1.5;" x1="178.5" x2="178.5" y1="322.0002" y2="344.0002"/><line style="stroke:#A80036;stroke-width:1.5;" x1="178.5" x2="140.5" y1="344.0002" y2="344.0002"/><polygon fill="#A80036" points="150.5,340.0002,140.5,344.0002,150.5,348.0002,146.5,344.0002" style="stroke:#A80036;stroke-width:1.0;"/><line style="stroke:#A80036;stroke-width:1.5;" x1="128.5" x2="128.5" y1="229.6001" y2="261.6001"/><polygon fill="#A80036" points="124.5,251.6001,128.5,261.6001,132.5,251.6001,128.5,255.6001" style="stroke:#A80036;stroke-width:1.0;"/><line style="stroke:#A80036;stroke-width:1.5;" x1="72.25" x2="72.25" y1="502.8004" y2="537.2005"/><polygon fill="#A80036" points="68.25,527.2005,72.25,537.2005,76.25,527.2005,72.25,531.2005" style="stroke:#A80036;stroke-width:1.0;"/><line style="stroke:#A80036;stroke-width:1.5;" x1="184.75" x2="184.75" y1="488.4003" y2="522.8004"/><polygon fill="#A80036" points="180.75,512.8004,184.75,522.8004,188.75,512.8004,184.75,516.8004" style="stroke:#A80036;stroke-width:1.0;"/><line style="stroke:#A80036;stroke-width:1.5;stroke-dasharray:1.0,3.0;" x1="92" x2="72.25" y1="432.0002" y2="432.0002"/><line style="stroke:#A80036;stroke-width:1.5;stroke-dasharray:1.0,3.0;" x1="72.25" x2="72.25" y1="432.0002" y2="454.0002"/><polygon fill="#A80036" points="68.25,444.0002,72.25,454.0002,76.25,444.0002,72.25,448.0002" style="stroke:#A80036;stroke-width:1.0;"/><line style="stroke:#A80036;stroke-width:1.5;" x1="165" x2="184.75" y1="432.0002" y2="432.0002"/><line style="stroke:#A80036;stroke-width:1.5;" x1="184.75" x2="184.75" y1="432.0002" y2="454.0002"/><polygon fill="#A80036" points="180.75,444.0002,184.75,454.0002,188.75,444.0002,184.75,448.0002" style="stroke:#A80036;stroke-width:1.0;"/><line style="stroke:#A80036;stroke-width:1.5;" x1="184.75" x2="184.75" y1="557.2005" y2="562.2005"/><line style="stroke:#A80036;stroke-width:1.5;" x1="184.75" x2="128.5" y1="562.2005" y2="562.2005"/><line style="stroke:#A80036;stroke-width:1.5;" x1="128.5" x2="128.5" y1="562.2005" y2="577.2005"/><polygon fill="#A80036" points="124.5,567.2005,128.5,577.2005,132.5,567.2005,128.5,571.2005" style="stroke:#A80036;stroke-width:1.0;"/><line style="stroke:#A80036;stroke-width:1.5;" x1="102.5" x2="46" y1="589.2005" y2="589.2005"/><line style="stroke:#A80036;stroke-width:1.5;" x1="46" x2="46" y1="589.2005" y2="624.4004"/><polygon fill="#A80036" points="42,614.4004,46,624.4004,50,614.4004,46,618.4004" style="stroke:#A80036;stroke-width:1.0;"/><text fill="#000000" font-family="sans-serif" font-size="11" lengthAdjust="spacing" textLength="31" x="46" y="611.2004">case i.</text><line style="stroke:#A80036;stroke-width:1.5;" x1="154.5" x2="208" y1="589.2005" y2="589.2005"/><line style="stroke:#A80036;stroke-width:1.5;" x1="208" x2="208" y1="589.2005" y2="624.4004"/><polygon fill="#A80036" points="204,614.4004,208,624.4004,212,614.4004,208,618.4004" style="stroke:#A80036;stroke-width:1.0;"/><text fill="#000000" font-family="sans-serif" font-size="11" lengthAdjust="spacing" textLength="35" x="208" y="611.2004">case iii.</text><line style="stroke:#A80036;stroke-width:1.5;" x1="46" x2="46" y1="658.8005" y2="690.8005"/><line style="stroke:#A80036;stroke-width:1.5;" x1="46" x2="116.5" y1="690.8005" y2="690.8005"/><polygon fill="#A80036" points="106.5,686.8005,116.5,690.8005,106.5,694.8005,110.5,690.8005" style="stroke:#A80036;stroke-width:1.0;"/><line style="stroke:#A80036;stroke-width:1.5;" x1="208" x2="208" y1="658.8005" y2="690.8005"/><line style="stroke:#A80036;stroke-width:1.5;" x1="208" x2="140.5" y1="690.8005" y2="690.8005"/><polygon fill="#A80036" points="150.5,686.8005,140.5,690.8005,150.5,694.8005,146.5,690.8005" style="stroke:#A80036;stroke-width:1.0;"/><line style="stroke:#A80036;stroke-width:1.5;" x1="128.5" x2="128.5" y1="601.2005" y2="608.9338"/><line style="stroke:#A80036;stroke-width:1.5;" x1="128.5" x2="125.5" y1="608.9338" y2="608.9338"/><line style="stroke:#A80036;stroke-width:1.5;" x1="125.5" x2="125.5" y1="608.9338" y2="624.4004"/><polygon fill="#A80036" points="121.5,614.4004,125.5,624.4004,129.5,614.4004,125.5,618.4004" style="stroke:#A80036;stroke-width:1.0;"/><text fill="#000000" font-family="sans-serif" font-size="11" lengthAdjust="spacing" textLength="33" x="125.5" y="609.4671">case ii.</text><line style="stroke:#A80036;stroke-width:1.5;" x1="125.5" x2="125.5" y1="658.8005" y2="663.8005"/><line style="stroke:#A80036;stroke-width:1.5;" x1="125.5" x2="128.5" y1="663.8005" y2="663.8005"/><line style="stroke:#A80036;stroke-width:1.5;" x1="128.5" x2="128.5" y1="663.8005" y2="678.8005"/><polygon fill="#A80036" points="124.5,668.8005,128.5,678.8005,132.5,668.8005,128.5,672.8005" style="stroke:#A80036;stroke-width:1.0;"/><line style="stroke:#A80036;stroke-width:1.5;" x1="128.5" x2="128.5" y1="400.0002" y2="420.0002"/><polygon fill="#A80036" points="124.5,410.0002,128.5,420.0002,132.5,410.0002,128.5,414.0002" style="stroke:#A80036;stroke-width:1.0;"/><line style="stroke:#A80036;stroke-width:1.5;" x1="169" x2="256.25" y1="734.8005" y2="734.8005"/><polygon fill="#A80036" points="252.25,605.6004,256.25,595.6004,260.25,605.6004,256.25,601.6004" style="stroke:#A80036;stroke-width:1.5;"/><line style="stroke:#A80036;stroke-width:1.5;" x1="256.25" x2="256.25" y1="388.0002" y2="734.8005"/><line style="stroke:#A80036;stroke-width:1.5;" x1="256.25" x2="140.5" y1="388.0002" y2="388.0002"/><polygon fill="#A80036" points="150.5,384.0002,140.5,388.0002,150.5,392.0002,146.5,388.0002" style="stroke:#A80036;stroke-width:1.0;"/><line style="stroke:#A80036;stroke-width:1.5;" x1="128.5" x2="128.5" y1="702.8005" y2="722.8005"/><polygon fill="#A80036" points="124.5,712.8005,128.5,722.8005,132.5,712.8005,128.5,716.8005" style="stroke:#A80036;stroke-width:1.0;"/><line style="stroke:#A80036;stroke-width:1.5;" x1="128.5" x2="128.5" y1="356.0002" y2="376.0002"/><polygon fill="#A80036" points="124.5,366.0002,128.5,376.0002,132.5,366.0002,128.5,370.0002" style="stroke:#A80036;stroke-width:1.0;"/><line style="stroke:#A80036;stroke-width:1.5;" x1="128.5" x2="128.5" y1="746.8005" y2="779.3005"/><polygon fill="#A80036" points="124.5,769.3005,128.5,779.3005,132.5,769.3005,128.5,773.3005" style="stroke:#A80036;stroke-width:1.0;"/><!--MD5=[0dcdc531313e3a004d5fae7e68eae65c]
@startuml
start

partition "First section" {
  if (decision node) then (yes)
    :receive input<
    :Action A;
  else (no)
    :Action B;
    :Object 1]
  endif
}

fork
  :Parallel X;
fork again
  :Parallel Y;
end merge

repeat

  if (done here) then (stop)
    -[dotted]->
    :last action in this
    part of the flow;
    end;
  else
    :continue;
    :send output>
  endif
  
  switch (cases)
  case (case i.)
    :Action i;
  case (case ii.)
    :Action ii;
  case (case iii.)
    :Action iii;
  endswitch

repeat while (Do it again?) is (yes) not (no)

stop
@enduml

PlantUML version 1.2021.6(Fri May 14 07:09:51 GMT 2021)
(GPL source distribution)
Java Runtime: OpenJDK Runtime Environment
JVM: OpenJDK 64-Bit Server VM
Default Encoding: UTF-8
Language: en
Country: US
--></g></svg>