<?xml version="1.0" encoding="UTF-8" standalone="no"?><svg xmlns="http://www.w3.org/2000/svg" xmlns:xlink="http://www.w3.org/1999/xlink" contentStyleType="text/css" height="1063px" preserveAspectRatio="none" style="width:947px;height:1063px;" version="1.1" viewBox="0 0 947 1063" width="947px" zoomAndPan="magnify"><defs/><g><rect fill="none" height="1061.5" style="stroke:#FFFFFF;stroke-width:1.0;" width="945.3716" x="0" y="0"/><!--cluster cloud--><g id="cluster_cloud"><path d="M52.7938,184.7868 C66.889,156.8757 83.7722,157.9447 103.8529,178.4783 C121.4164,156.6556 141.3333,162.795 153.1626,184.9131 C163.8241,162.9059 183.1962,164.1717 194.4789,184.304 C207.734,157.7261 228.714,159.68 243.0283,183.2791 C254.8708,162.872 274.0256,159.3083 289.0562,179.6807 C304.7088,153.125 321.8728,148.6361 342.251,174.9236 C356.3016,153.2687 377.9601,153.1385 389.9997,177.0318 C407.7699,158.8967 423.4168,159.1205 436.7131,182.1134 C451.1029,162.158 468.9427,160.6434 483.1889,182.2738 C495.6772,155.6291 517.9001,159.1654 531.3922,181.2815 C544.9864,159.7841 560.7616,159.3396 574.9292,180.699 C588.6944,156.301 614.3395,155.6087 627.0056,181.8297 C636.8263,160.5426 652.1863,156.7134 667.0131,177.0138 C684.6262,152.4692 710.3235,155.1236 720.3716,184.5 C724.3883,184.2511 725.7442,186.8604 724.5674,190.3417 C742.8425,203.455 744.6789,220.5641 725.0524,234.0975 C753.1071,250.2242 759.0631,268.0257 731.3765,290.4121 C750.4447,304.4623 751.1138,323.2593 726.9481,332.7919 C750.3065,347.2589 756.6203,365.3693 731.5025,384.1363 C755.0636,400.4759 755.1451,420.2681 729.1551,434.2884 C747.3932,450.4153 751.622,467.0374 727.1854,481.3793 C751.8501,495.6222 752.5504,520.2527 729.2632,536.3095 C749.5349,548.7255 751.6927,567.6772 729.1805,580.0123 C750.7058,597.1039 746.0975,616.4142 722.1231,626.6156 C744.384,649.2539 745.484,668.3766 713.3716,682.5 C715.3714,683.5367 715.291,685.4916 713.6343,686.7541 C698.3653,709.5338 684.7334,708.8234 668.9708,687.2511 C655.9986,707.5385 637.7853,706.2549 624.9956,687.0479 C611.4569,709.6171 592.7839,714.9892 575.1029,691.5387 C557.9763,711.8811 541.8187,707.4753 529.3178,686.4223 C515.8439,707.6747 500.0888,706.0096 484.812,688.4919 C471.5574,718.2183 449.8075,719.394 431.2922,693.5593 C419.0399,720.1827 398.7096,716.6916 384.0074,696.0082 C370.3973,713.3273 352.7636,712.7281 342.6503,692.1884 C327.4632,714.3977 309.014,714.7328 293.951,692.0537 C279.6939,720.2332 258.1477,715.637 242.8843,693.0663 C229.0468,712.3365 207.7327,716.6537 196.2676,690.625 C178.8839,709.7114 160.175,708.3304 146.6164,686.0355 C134.3024,704.2958 118.3897,704.4491 105.867,686.2688 C84.6667,713.7556 54.9626,703.7795 43.3716,675.5 C47.9754,674.3025 51.3513,676.0499 50.6511,681.3983 C25.6009,669.0033 23.7257,653.2577 44.3301,634.685 C12.0574,620.4088 17.9099,598.1334 38.9059,578.6965 C15.1961,566.9337 17.5251,551.1181 36.0448,536.4925 C9.009,518.6873 10.9635,495.4777 40.9687,482.9145 C14.3252,471.9459 13.9445,451.8321 33.6472,433.9356 C6,417.2831 9.9408,397.1895 34.2928,381.1734 C11.7513,365.8547 17.3138,348.6155 36.6602,335.4664 C13.9168,320.3911 16.8813,303.6254 39.1211,291.0419 C12.5195,273.2906 16.9251,249.6558 44.045,236.7793 C21.2947,217.7058 18.6661,190.7617 50.3716,177.5 C54.6894,178.1039 55.1388,181.9682 52.7938,184.7868 " fill="#FFFCFF" style="stroke:#A0439C;stroke-width:1.0;"/><text fill="#A0439C" font-family="sans-serif" font-size="13" font-weight="bold" lengthAdjust="spacing" textLength="40" x="361.8716" y="196.5669">cloud</text></g><!--cluster node--><g id="cluster_node"><polygon fill="#FFFCFF" points="334.3716,237.5,344.3716,227.5,712.3716,227.5,712.3716,362.5,702.3716,372.5,334.3716,372.5,334.3716,237.5" style="stroke:#A0439C;stroke-width:1.0;"/><line style="stroke:#A0439C;stroke-width:1.0;" x1="702.3716" x2="712.3716" y1="237.5" y2="227.5"/><line style="stroke:#A0439C;stroke-width:1.0;" x1="334.3716" x2="702.3716" y1="237.5" y2="237.5"/><line style="stroke:#A0439C;stroke-width:1.0;" x1="702.3716" x2="702.3716" y1="237.5" y2="372.5"/><text fill="#A0439C" font-family="sans-serif" font-size="13" font-weight="bold" lengthAdjust="spacing" textLength="37" x="500.8716" y="254.5669">node</text></g><!--cluster folder--><g id="cluster_folder"><path d="M493.8716,741.5 L542.8716,741.5 A3.75,3.75 0 0 1 545.3716,744 L552.3716,766.6328 L650.8716,766.6328 A2.5,2.5 0 0 1 653.3716,769.1328 L653.3716,1047 A2.5,2.5 0 0 1 650.8716,1049.5 L493.8716,1049.5 A2.5,2.5 0 0 1 491.3716,1047 L491.3716,744 A2.5,2.5 0 0 1 493.8716,741.5 " fill="#FFFCFF" style="stroke:#A0439C;stroke-width:1.5;"/><line style="stroke:#A0439C;stroke-width:1.5;" x1="491.3716" x2="552.3716" y1="766.6328" y2="766.6328"/><text fill="#A0439C" font-family="sans-serif" font-size="13" font-weight="bold" lengthAdjust="spacing" textLength="44" x="497.3716" y="757.5669">folder</text></g><!--cluster frame--><g id="cluster_frame"><rect fill="#FFFCFF" height="335" rx="2.5" ry="2.5" style="stroke:#A0439C;stroke-width:1.0;" width="256" x="685.3716" y="722.5"/><path d="M743.3716,722.5 L743.3716,734.6328 L733.3716,744.6328 L685.3716,744.6328 " fill="none" style="stroke:#A0439C;stroke-width:1.0;"/><text fill="#A0439C" font-family="sans-serif" font-size="13" font-weight="bold" lengthAdjust="spacing" textLength="44" x="690.3716" y="737.5669">frame</text></g><!--entity agent--><g id="elem_agent"><rect fill="#1168BD" height="39.1328" rx="2.5" ry="2.5" style="stroke:#FFFFFF;stroke-width:0.5;" width="120" x="206.3716" y="208"/><text fill="#FFFFFF" font-family="sans-serif" font-size="13" lengthAdjust="spacing" textLength="37" x="247.8716" y="232.0669">agent</text></g><!--entity boundary--><g id="elem_boundary"><path d="M147.8716,627.5 L147.8716,651.5 M147.8716,639.5 L164.8716,639.5 " fill="none" style="stroke:#08427B;stroke-width:0.5;"/><ellipse cx="176.8716" cy="639.5" fill="#FFFFFF" rx="12" ry="12" style="stroke:#08427B;stroke-width:0.5;"/><text fill="#08427B" font-family="sans-serif" font-size="13" lengthAdjust="spacing" textLength="60" x="138.3716" y="669.5669">boundary</text></g><!--entity card--><g id="elem_card"><rect fill="#1168BD" height="25.1328" rx="2.5" ry="2.5" style="stroke:#FFFFFF;stroke-width:0.5;" width="120" x="568.3716" y="531.5"/><text fill="#FFFFFF" font-family="sans-serif" font-size="13" lengthAdjust="spacing" textLength="28" x="614.3716" y="548.5669">card</text></g><!--entity collections--><g id="elem_collections"><rect fill="#08427B" height="35.1328" rx="2.5" ry="2.5" style="stroke:#FFFFFF;stroke-width:0.5;" width="116" x="572.3716" y="425"/><rect fill="#08427B" height="35.1328" rx="2.5" ry="2.5" style="stroke:#FFFFFF;stroke-width:0.5;" width="116" x="568.3716" y="421"/><text fill="#FFFFFF" font-family="sans-serif" font-size="13" lengthAdjust="spacing" textLength="67" x="592.8716" y="443.0669">collections</text></g><!--entity control--><g id="elem_control"><ellipse cx="303.3716" cy="639.5" fill="#FFFFFF" rx="12" ry="12" style="stroke:#08427B;stroke-width:0.5;"/><polygon fill="#08427B" points="299.3716,627.5,305.3716,622.5,303.3716,627.5,305.3716,632.5,299.3716,627.5" style="stroke:#08427B;stroke-width:1.0;"/><text fill="#08427B" font-family="sans-serif" font-size="13" lengthAdjust="spacing" textLength="44" x="281.3716" y="669.5669">control</text></g><!--entity database--><g id="elem_database"><path d="M413.3716,426.5 C413.3716,416.5 473.3716,416.5 473.3716,416.5 C473.3716,416.5 533.3716,416.5 533.3716,426.5 L533.3716,454.6328 C533.3716,464.6328 473.3716,464.6328 473.3716,464.6328 C473.3716,464.6328 413.3716,464.6328 413.3716,454.6328 L413.3716,426.5 " fill="#08427B" style="stroke:#FFFFFF;stroke-width:0.5;"/><path d="M413.3716,426.5 C413.3716,436.5 473.3716,436.5 473.3716,436.5 C473.3716,436.5 533.3716,436.5 533.3716,426.5 " fill="none" style="stroke:#FFFFFF;stroke-width:0.5;"/><text fill="#FFFFFF" font-family="sans-serif" font-size="13" lengthAdjust="spacing" textLength="60" x="443.3716" y="454.5669">database</text></g><!--entity entity--><g id="elem_entity"><ellipse cx="438.3716" cy="639.5" fill="#FFFFFF" rx="12" ry="12" style="stroke:#08427B;stroke-width:0.5;"/><line style="stroke:#08427B;stroke-width:0.5;" x1="426.3716" x2="450.3716" y1="653.5" y2="653.5"/><text fill="#08427B" font-family="sans-serif" font-size="13" lengthAdjust="spacing" textLength="36" x="420.3716" y="669.5669">entity</text></g><!--entity label--><g id="elem_label"><text fill="#FFFFFF" font-family="sans-serif" font-size="14" lengthAdjust="spacing" textLength="32" x="95.3716" y="232.4951">label</text></g><!--entity queue--><g id="elem_queue"><path d="M255.3716,426 L365.3716,426 C370.3716,426 370.3716,440.5664 370.3716,440.5664 C370.3716,440.5664 370.3716,455.1328 365.3716,455.1328 L255.3716,455.1328 C250.3716,455.1328 250.3716,440.5664 250.3716,440.5664 C250.3716,440.5664 250.3716,426 255.3716,426 " fill="#08427B" style="stroke:#FFFFFF;stroke-width:0.5;"/><path d="M365.3716,426 C360.3716,426 360.3716,440.5664 360.3716,440.5664 C360.3716,455.1328 365.3716,455.1328 365.3716,455.1328 " fill="none" style="stroke:#FFFFFF;stroke-width:0.5;"/><text fill="#FFFFFF" font-family="sans-serif" font-size="13" lengthAdjust="spacing" textLength="40" x="285.3716" y="445.0669">queue</text></g><!--entity stack--><g id="elem_stack"><rect fill="#1168BD" height="39.1328" rx="2.5" ry="2.5" style="stroke:none;stroke-width:0.5;" width="120" x="243.3716" y="524.5"/><path d="M228.3716,524.5 L240.8716,524.5 A2.5,2.5 0 0 1 243.3716,527 L243.3716,561.1328 A2.5,2.5 0 0 0 245.8716,563.6328 L360.8716,563.6328 A2.5,2.5 0 0 0 363.3716,561.1328 L363.3716,527 A2.5,2.5 0 0 1 365.8716,524.5 L378.3716,524.5 " fill="none" style="stroke:#FFFFFF;stroke-width:0.5;"/><text fill="#FFFFFF" font-family="sans-serif" font-size="13" lengthAdjust="spacing" textLength="34" x="286.3716" y="548.5669">stack</text></g><!--entity storage--><g id="elem_storage"><rect fill="#1168BD" height="39.1328" rx="35" ry="35" style="stroke:#FFFFFF;stroke-width:0.5;" width="120" x="413.3716" y="524.5"/><text fill="#FFFFFF" font-family="sans-serif" font-size="13" lengthAdjust="spacing" textLength="49" x="448.8716" y="548.5669">storage</text></g><text fill="#08427B" font-family="sans-serif" font-size="13" lengthAdjust="spacing" textLength="16" x="365.3716" y="204.4341">p1</text><rect fill="#F1F1F1" height="12" style="stroke:#181818;stroke-width:1.5;" width="12" x="367.3716" y="221.5"/><text fill="#08427B" font-family="sans-serif" font-size="13" lengthAdjust="spacing" textLength="16" x="417.3716" y="204.4341">p2</text><rect fill="#F1F1F1" height="12" style="stroke:#181818;stroke-width:1.5;" width="12" x="419.3716" y="221.5"/><!--entity component--><g id="elem_component"><rect fill="#1168BD" height="49.1328" rx="2.5" ry="2.5" style="stroke:#FFFFFF;stroke-width:0.5;" width="140" x="403.3716" y="307.5"/><rect fill="#1168BD" height="10" style="stroke:#FFFFFF;stroke-width:0.5;" width="15" x="523.3716" y="312.5"/><rect fill="#1168BD" height="2" style="stroke:#FFFFFF;stroke-width:0.5;" width="4" x="521.3716" y="314.5"/><rect fill="#1168BD" height="2" style="stroke:#FFFFFF;stroke-width:0.5;" width="4" x="521.3716" y="318.5"/><text fill="#FFFFFF" font-family="sans-serif" font-size="13" lengthAdjust="spacing" textLength="73" x="431.8716" y="341.5669">component</text></g><!--entity interface--><g id="elem_interface"><ellipse cx="359.3716" cy="332" fill="#E18114" rx="8" ry="8" style="stroke:#E18114;stroke-width:0.5;"/><text fill="#E18114" font-family="sans-serif" font-size="13" lengthAdjust="spacing" textLength="56" x="331.3716" y="363.0669">interface</text></g><!--entity package--><g id="elem_package"><path d="M509.8716,779.5 L610.8716,779.5 A3.75,3.75 0 0 1 613.3716,782 L620.3716,804.6328 L634.8716,804.6328 A2.5,2.5 0 0 1 637.3716,807.1328 L637.3716,819.1328 A2.5,2.5 0 0 1 634.8716,821.6328 L509.8716,821.6328 A2.5,2.5 0 0 1 507.3716,819.1328 L507.3716,782 A2.5,2.5 0 0 1 509.8716,779.5 " fill="#FFFCFF" style="stroke:#A0439C;stroke-width:0.5;"/><line style="stroke:#A0439C;stroke-width:0.5;" x1="507.3716" x2="620.3716" y1="804.6328" y2="804.6328"/><text fill="#A0439C" font-family="sans-serif" font-size="13" lengthAdjust="spacing" textLength="54" x="534.3716" y="796.5669">package</text></g><!--entity artifact--><g id="elem_artifact"><rect fill="#1168BD" height="42.1328" rx="2.5" ry="2.5" style="stroke:#FFFFFF;stroke-width:0.5;" width="130" x="507.3716" y="892.5"/><polygon fill="#1168BD" points="620.3716,897.5,620.3716,911.5,632.3716,911.5,632.3716,903.5,626.3716,897.5,620.3716,897.5" style="stroke:#FFFFFF;stroke-width:0.5;"/><line style="stroke:#FFFFFF;stroke-width:0.5;" x1="626.3716" x2="626.3716" y1="897.5" y2="903.5"/><line style="stroke:#FFFFFF;stroke-width:0.5;" x1="632.3716" x2="626.3716" y1="903.5" y2="903.5"/><text fill="#FFFFFF" font-family="sans-serif" font-size="13" lengthAdjust="spacing" textLength="45" x="544.8716" y="919.5669">artifact</text></g><!--entity file--><g id="elem_file"><path d="M512.3716,997 L512.3716,1031.1328 A2.5,2.5 0 0 0 514.8716,1033.6328 L629.8716,1033.6328 A2.5,2.5 0 0 0 632.3716,1031.1328 L632.3716,1004.5 L622.3716,994.5 L514.8716,994.5 A2.5,2.5 0 0 0 512.3716,997 " fill="#1168BD" style="stroke:#FFFFFF;stroke-width:0.5;"/><path d="M622.3716,994.5 L622.3716,1002 A2.5,2.5 0 0 0 624.8716,1004.5 L632.3716,1004.5 " fill="#1168BD" style="stroke:#FFFFFF;stroke-width:0.5;"/><text fill="#FFFFFF" font-family="sans-serif" font-size="13" lengthAdjust="spacing" textLength="18" x="563.3716" y="1018.5669">file</text></g><!--entity circle--><g id="elem_circle"><ellipse cx="817.3716" cy="800.5" fill="#E18114" rx="8" ry="8" style="stroke:#E18114;stroke-width:0.5;"/><text fill="#E18114" font-family="sans-serif" font-size="13" lengthAdjust="spacing" textLength="33" x="800.8716" y="831.5669">circle</text></g><!--entity hexagon--><g id="elem_hexagon"><polygon fill="#E18114" points="917.3716,913.5,867.3716,899,767.3716,899,717.3716,913.5,767.3716,928,867.3716,928,917.3716,913.5" style="stroke:#E18114;stroke-width:0.5;"/><text fill="#FFFFFF" font-family="sans-serif" font-size="13" lengthAdjust="spacing" textLength="55" x="789.8716" y="918.0669">hexagon</text></g><!--entity rectangle--><g id="elem_rectangle"><rect fill="#E18114" height="39.1328" rx="2.5" ry="2.5" style="stroke:#E18114;stroke-width:0.5;" width="120" x="757.3716" y="994.5"/><text fill="#FFFFFF" font-family="sans-serif" font-size="13" lengthAdjust="spacing" textLength="60" x="787.3716" y="1018.5669">rectangle</text></g><!--entity actor--><g id="elem_actor"><ellipse cx="266.3716" cy="22" fill="#08427B" rx="16" ry="16" style="stroke:#FFFFFF;stroke-width:1.5;"/><path d="M266.3716,42 C270.3716,42 273.3716,42 277.3716,38 C285.3716,38 293.3716,46 293.3716,54 L293.3716,58 C293.3716,62 289.3716,66 285.3716,66 L247.3716,66 C243.3716,66 239.3716,62 239.3716,58 L239.3716,54 C239.3716,46 247.3716,38 255.3716,38 C259.3716,42 262.3716,42 266.3716,42 " fill="#08427B" style="stroke:#FFFFFF;stroke-width:1.5;"/><text fill="#08427B" font-family="sans-serif" font-size="13" lengthAdjust="spacing" textLength="33" x="249.8716" y="81.5669">actor</text></g><g id="elem_usecase"><ellipse cx="413.3475" cy="45.2952" fill="#1168BD" rx="61.9759" ry="14.7952" style="stroke:#FFFFFF;stroke-width:0.5;"/><text fill="#FFFFFF" font-family="sans-serif" font-size="13" lengthAdjust="spacing" textLength="53" x="386.8475" y="47.7957">usecase</text></g><!--link actor to usecase--><g id="link_actor_usecase"><path d="M316.6116,45.5 C328.0816,45.5 339.5416,45.5 351.0116,45.5 " fill="none" id="actor-usecase" style="stroke:#E91E63;stroke-width:1.0;"/></g><!--link component to interface--><g id="link_component_interface"><path d="M403.0616,332 C391.6116,332 380.1716,332 368.7216,332 " fill="none" id="component-interface" style="stroke:#E91E63;stroke-width:1.0;"/></g><!--link stack to boundary--><g id="link_stack_boundary"><path d="M278.6116,563.89 C256.8416,580.5 224.9916,604.8 201.1216,623.01 " fill="none" id="stack-boundary" style="stroke:#E91E63;stroke-width:1.0;"/></g><!--link stack to control--><g id="link_stack_control"><path d="M303.3716,563.89 C303.3716,580.5 303.3716,604.8 303.3716,623.01 " fill="none" id="stack-control" style="stroke:#E91E63;stroke-width:1.0;"/></g><!--link stack to entity--><g id="link_stack_entity"><path d="M328.1316,563.89 C349.9016,580.5 381.7516,604.8 405.6216,623.01 " fill="none" id="stack-entity" style="stroke:#E91E63;stroke-width:1.0;"/></g><!--link component to database--><g id="link_component_database"><path d="M473.3716,356.9 C473.3716,374.56 473.3716,398.49 473.3716,416.05 " fill="none" id="component-database" style="stroke:#E91E63;stroke-width:1.0;"/></g><!--link database to storage--><g id="link_database_storage"><path d="M473.3716,464.79 C473.3716,478.17 473.3716,495.19 473.3716,509.93 " fill="none" id="database-to-storage" style="stroke:#E91E63;stroke-width:1.0;"/><polygon fill="#E91E63" points="473.3716,522.72,477.3716,516.72,473.3716,510.72,469.3716,516.72,473.3716,522.72" style="stroke:#E91E63;stroke-width:1.0;"/></g><!--link component to queue--><g id="link_component_queue"><path d="M436.7916,356.9 C404.3116,378.12 358.0016,408.38 331.3816,425.77 " fill="none" id="component-queue" style="stroke:#E91E63;stroke-width:1.0;"/></g><!--link queue to stack--><g id="link_queue_stack"><path d="M309.4316,455.19 C308.4716,469.05 306.9516,491.04 305.6816,509.54 " fill="none" id="queue-to-stack" style="stroke:#E91E63;stroke-width:1.0;"/><polygon fill="none" points="304.7816,522.5,309.1873,516.7913,305.6122,510.5288,301.2065,516.2375,304.7816,522.5" style="stroke:#E91E63;stroke-width:1.0;"/></g><!--link component to collections--><g id="link_component_collections"><path d="M508.1616,356.9 C536.1816,376.16 575.0516,402.86 600.9116,420.64 " fill="none" id="component-collections" style="stroke:#E91E63;stroke-width:1.0;"/></g><!--reverse link collections to card--><g id="link_collections_card"><path d="M628.3716,466.51 C628.3716,487.1 628.3716,515.39 628.3716,531.16 " fill="none" id="collections-backto-card" style="stroke:#E91E63;stroke-width:1.0;"/><ellipse cx="628.3716" cy="461.63" fill="none" rx="6" ry="6" style="stroke:#E91E63;stroke-width:1.5;"/><path d="M621.3005,468.7011 A10,10 0 0 0 635.4427 468.7011" fill="none" style="stroke:#E91E63;stroke-width:1.5;"/></g><!--link actor to agent--><g id="link_actor_agent"><path d="M255.5316,86.9 C252.5116,121.97 253.0716,171.67 257.2016,201.33 " fill="none" id="actor-to-agent" style="stroke:#E91E63;stroke-width:1.0;"/><polygon fill="#E91E63" points="257.9616,206.21,260.5259,196.7008,257.1906,201.2698,252.6216,197.9345,257.9616,206.21" style="stroke:#E91E63;stroke-width:1.0;"/><ellipse cx="253.6853" cy="146.1438" fill="none" rx="10" ry="10" style="stroke:none;stroke-width:1.0;"/><path d="M246.711,153.3102 A10,10 0 0 0 260.8518 153.1181" fill="none" style="stroke:#E91E63;stroke-width:1.5;"/><path d="M260.6597,138.9773 A10,10 0 0 0 246.5189 139.1694" fill="none" style="stroke:#E91E63;stroke-width:1.5;"/><ellipse cx="253.6853" cy="146.1438" fill="none" rx="6" ry="6" style="stroke:#E91E63;stroke-width:1.5;"/></g><!--link actor to agent--><g id="link_actor_agent"><path d="M277.8516,86.9 C280.9516,120.94 280.4816,168.76 276.4616,198.67 " fill="none" id="actor-to-agent-1" style="stroke:#E91E63;stroke-width:1.0;"/><polygon fill="#E91E63" points="275.2616,206.21,279.4816,198.7809,273.5561,197.8379,275.2616,206.21" style="stroke:#E91E63;stroke-width:1.0;"/></g><!--link actor to p1--><g id="link_actor_p1"><path d="M309.9216,86.79 C329.3816,107.27 350.7216,133.68 363.3716,161.5 C372.7316,182.08 373.5916,209.71 373.5016,221.17 " fill="none" id="actor-p1" style="stroke:#E91E63;stroke-width:1.0;"/></g><!--link actor to p2--><g id="link_actor_p2"><path d="M316.6716,80.86 C343.5816,101.5 375.4016,129.85 396.3716,161.5 C409.8916,181.89 419.8416,209.62 423.6616,221.14 " fill="none" id="actor-p2" style="stroke:#E91E63;stroke-width:1.0;"/></g><!--link agent to interface--><g id="link_agent_interface"><path d="M283.4316,247.3 C303.7716,269.72 336.8916,306.23 351.7416,322.6 " fill="none" id="agent-interface" style="stroke:#E91E63;stroke-width:1.0;"/></g><!--link package to artifact--><g id="link_package_artifact"><path d="M572.3716,821.86 C572.3716,841.89 572.3716,872.29 572.3716,892.27 " fill="none" id="package-artifact" style="stroke:#E91E63;stroke-width:1.0;"/></g><!--link artifact to file--><g id="link_artifact_file"><path d="M572.3716,934.91 C572.3716,952.38 572.3716,977.32 572.3716,994.28 " fill="none" id="artifact-file" style="stroke:#E91E63;stroke-width:1.0;"/></g><!--link card to package--><g id="link_card_package"><path d="M625.7416,556.93 C616.8816,597.23 587.9916,728.53 576.8316,779.25 " fill="none" id="card-package" style="stroke:#E91E63;stroke-width:1.0;"/></g><!--link hexagon to rectangle--><g id="link_hexagon_rectangle"><path d="M817.3716,934.69 C817.3716,950.04 817.3716,971.26 817.3716,987.74 " fill="none" id="hexagon-rectangle" style="stroke:#E91E63;stroke-width:2.0;"/><ellipse cx="817.3716" cy="935.71" fill="none" rx="6" ry="6" style="stroke:#E91E63;stroke-width:1.5;"/><ellipse cx="817.3716" cy="986.51" fill="#E91E63" rx="6" ry="6" style="stroke:#E91E63;stroke-width:1.5;"/></g><!--link circle to hexagon--><g id="link_circle_hexagon"><path d="M817.3716,809.48 C817.3716,826.64 817.3716,867.48 817.3716,892.28 " fill="none" id="circle-to-hexagon" style="stroke:#E91E63;stroke-width:1.0;stroke-dasharray:7.0,7.0;"/><rect fill="none" height="10" style="stroke:#E91E63;stroke-width:1.5;" width="10" x="812.3716" y="892"/></g><!--link card to frame--><g id="link_card_frame"><path d="M631.4216,556.93 C637.7466,581.695 652.8516,640.845 666.5616,694.5325 C673.4166,721.3763 679.9228,746.8544 684.8085,765.9859 C684.9611,766.5838 685.1122,767.1755 685.2617,767.7608 " fill="none" id="card-frame" style="stroke:#E91E63;stroke-width:1.0;"/></g><!--SRC=[lHbfSzksyZj_1QnuHjORoR5anLVZzDcod6J6SLBBQIUVN8W49TGKeHAWPRUJ__vs0P02BnzjviKJ7jZ5NjYJQfE9UeXuF2EIAGLtIKAHa2yHZTNNJnSau7IMq8NqscJ269ahjJnw_Ng9u7GHRKkH9Zw37JEs7JEbzmR2JnSiLbHn4SE-Qq5c0A8aub8H4PAba99F8qRaBO-N5CZdpBiaIUCZaj4dFNYOfNJ6W0wGzXD65GDIkNmX1pehhkRaZnIe_vwJP8ebydSFzeq-Nto-ci33yJF_uQOPYrb28-ABI2HWaqGiY5Z5H8Arc9mpfhoDJMkScodrRsU9IEFWHkEJOz9I2OqbI0A6QBce8WbOiaPx5OQX2ry33dRm3s4qISJAWR33FjlRHGWStAq3s1qU7foTjb3-1Rq5EmKB4NCyXamFUaTvHD7sU58iOdXG4YZvD4KyXnZT6UuU-Yq7LW1RkVbYAH85X-60Wjr1E2X1w_R6GZ5dTT3VPsm_1zJjK7pfB0xxD1pkPUjr-2kQnE1Mhktw1_t-q8LLzu7vOX6mctxNt0U4nW51eOW2iyR66qP3xGn0GakC-3SBobrgEmV3mVwqbS47PNY_ltSm3HmuJUy7DUTfBLBQVNXug6LDPTr9u_aADMU5Kux4ZFj5EaKR0GuwyhA4K_0ExQrt7DsuY9MVZkTjB1FXio1D6B5CTU1iRTxHvBZVyGZPjCRJIrrI4Qr-gNne7U9ji3Z8kHKv6rKSpiCwpcM5wvVAGT254pW_Fn-TdxSwZycGcUef_QicRLfqdVrn_QrNFiMwuhnT6mbmnzipc0oUnsJGp6IDiWw2fnYhvsbN29qdTOD2T_tjOam-Z2- -ZFz1tL04-79T_4nXCl6nf17KE7O4E9ie3HIvX2zeye0bpDQPBb4FI-xJA7eWwvg2Ey0ca8tmDZY2O0_QaRDD5lRf0jCbD88268COTwn4IyH8IiH0IR5xLKC3vTEmBf7fScdo1uWAktFT96hIxv24pTA89cGhO25D8zM1vK67n5210NO7HPW5P0jg3ek8I9K4VqQKtKu6BKetx42RC9khukgRZjKBRlT0JOYbrX0fxNN8zlPsqJLS5pX6RL6ZRcv6Om4qvd7hbU_xBMCFUDdRsskX4stma9ZTnws1NY7aD9Tef4zK4pKGBPjTHHvwzLp4gemvWKDX0YpDgj0D5adcyDrjufjpAF3DUVnBliDcheCNQLlMvyqFjEC7HW7JWS2Hrh3SQs9fq7y0nmpGT4WbYVPVPDn7ZhIiwS6FrhI1aERxRuynawdMAv-mQoP67F3GCrGd_2z6-hlLHFv-V3c-EhaWa_7rzSVBzo_BvHkRKn4yt8J0u2Qa2mvv4Rek2LrzJxA4Gv_O9epwywo_8ZwDTVhdIkfH0KMxX3JOpOMqJrYmVi9-4ZCvmyvovNdhMQYYSjEOuUmvCoW5ozUD7CwM3s3s10S8YxwU9S1qQpJeAuK_XuONcjyaPGu1EQU1ME7e659q2eSqzCkhX4EvYokmBw0pxXcuJAvGALyaC7EHDxe4ctaG9hq5Z_aYNK0f3R2MWetrQ2FPdocBVPODg51V4yLzleHXGn8e4BSWUOB51IP5y0X70g0uYgYKlscA_PqTr_XdfegHlxs2ny9CQpp168ZaXqigNf8v9Puo76soe14iNKCrFO7A5XjNWGjBlEykvnESyZJVB7BMOrzH61TG87698mfIAFP67SHgaw-JCHcTJCOlYW97Fby1SqlTwIi7c7ZQv9CUE177cZ_Yi01zn6Ze4MAiGLTCWYCLXVugcKybSoWFNBbTp_5lwSmYkgszrUzaTFtnru_Nt_wvVj1jguTQGRGAu67s12eTCy37URpMGKzf5fRbgQRa1LOA26Y8lC08uqvG5QE0s-jUizuiQyp9YYyW5gpzYcD90-erLr4j_fur-MJyozVnvUXbBjNMddG48SpmyCa8JpyBOpeLTwoYe8dh6kV31Z1FASETeXgdc5MmmwxksorfF8BeIaJq3Cnnh8fEKaHiau0gEaMLzBBv8iQMaNZGaPzzJ-jgzQ5WuGSnDUTIVyc2xOXFoKeajrIdUhrGpdRIpLWPlwf8_OgMKSHytRtNshA0_4lAKlOqsiIATi531YMaBext6xQSiOW-rBdNe6c3mNgE1ziTxp4Uga7qfW7zYeNGaQ2XAz5qW6dErDVhEVTlOoObwTUJEOKXfK9WMF1LQ5UqjpmxR5uIOO1yDlvoyVdRf_7bzGi7s59m-avmOWsnIuq8DadNmybMoEz_HZjaeMdm9YNtne-s9Y0RuIOC6y7QUHkWQ1qRC_KOQp6TW7aSrStWCrP8LKtL36RVB6i_5bydaFv2gAjFKno9nLB4ps9-pgDd5DmHJOAdiIRWBtbPVfHS9DAWDYwAik77-oUhsIKmQkm4_3dpRyrt1FnaiFwIu4eDgqqojmaK7QQj3ibNC_ZPbL14UHPwHCGFx9xEiYD-f8H_n5uGcB4gPhduV9x-mHfS0NBBYL89dwQADVIARRT9AG7SxgQnlxm2vZIUHQn19vqV0jFqGViTmAnuLBVzxTkfZVztxwgazYeEHXNxF-lSrXMuPqhm4Mf4Qwfu5oetMnTy_SqBAZcSkH9BKzYX3NXOJ4K453MHSYNlmhY8UwOiWkwVgvyC8lvy5EY-ZaRPpmojBbbXFernSWoun04fvN8EUzMAmQW5t33tWJKi8e5UAacWIXf1x0zz-fU1U9t2SFucgKGGeiLivQ8kg0AQMv3y5X9b3GIJUdP50vdk9jCVv5xRo4wav86fZlTMdzWxE4APbt83_blF-e7RmvG-5jHrquHyz_3_szUMi1uypFZXfNQWi7SBw-NldgyJaP-d8qAepjdwgjypzymVzAgF-H0lvirfffnd2pFjfBqNTSmUz2epxQIvwHNpgLHVzJlgRowPSGZ1NzN8ibzw7-JlVbuAygSSnlDqap_LxEkLeD_rzK_T4-ghVfSwY-ghVJUrmDuz1wdNAnepNtLjb2zQUtWbeNf5u-KcxVN-a_EiR5cBQyJlzOGZSW6rUexhCzxf80AUFkG7wrEzBLXzPnqdM-kzAw_WKQsV1vvnjvvhOoyqHILSrnOuLZlnshjnrQmVo1xqgluPN4yGxZxWKC3Azm908uCcsgbxA9TbueMw08Tv6GOpyCG7-kQcL-QsjjcxNalowf0_5N1tZe__Mm9PmjlRht9AhaXQXly1]--></g></svg>