<?xml version="1.0" encoding="UTF-8" standalone="no"?><svg xmlns="http://www.w3.org/2000/svg" xmlns:xlink="http://www.w3.org/1999/xlink" contentStyleType="text/css" height="950px" preserveAspectRatio="none" style="width:839px;height:950px;background:#FFFFFF;" version="1.1" viewBox="0 0 839 950" width="839px" zoomAndPan="magnify"><defs/><g><rect fill="none" height="948.4409" style="stroke:#FFFFFF;stroke-width:1.0;" width="837" x="0" y="0"/><rect fill="#FFFFFF" height="19.1328" style="stroke:#FFFFFF;stroke-width:1.0;" width="806" x="15" y="11"/><ellipse cx="397" cy="45.1328" fill="#08427B" rx="10" ry="10" style="stroke:#222222;stroke-width:1.0;"/><polygon fill="#E18114" points="366,75.1328,428,75.1328,440,87.1328,428,99.1328,366,99.1328,354,87.1328,366,75.1328" style="stroke:#E18114;stroke-width:0.5;"/><text fill="#FFFFFF" font-family="Roboto" font-size="13" lengthAdjust="spacing" textLength="58" x="368" y="91.6333">condition</text><text fill="#E91E63" font-family="Roboto" font-size="11" lengthAdjust="spacing" textLength="21" x="331" y="82.5386">one</text><text fill="#E91E63" font-family="Roboto" font-size="11" lengthAdjust="spacing" textLength="20" x="442" y="82.5386">two</text><rect fill="#FFFCFF" height="239.0703" style="stroke:#A0439C;stroke-width:1.5;" width="360" x="21" y="119.1328"/><path d="M88,119.1328 L88,131.2656 L78,141.2656 L21,141.2656 " fill="none" style="stroke:#A0439C;stroke-width:1.5;"/><text fill="#A0439C" font-family="Roboto" font-size="13" lengthAdjust="spacing" textLength="53" x="26" y="134.1997">Partition</text><polygon fill="#E18114" points="63.5,178.2656,98.5,178.2656,110.5,190.2656,98.5,202.2656,63.5,202.2656,51.5,190.2656,63.5,178.2656" style="stroke:#E18114;stroke-width:0.5;"/><text fill="#E91E63" font-family="Roboto" font-size="11" lengthAdjust="spacing" textLength="20" x="87" y="214.4761">yes</text><text fill="#FFFFFF" font-family="Roboto" font-size="13" lengthAdjust="spacing" textLength="31" x="65.5" y="194.7661">first?</text><rect fill="#1168BD" height="39.1328" rx="12.5" ry="12.5" style="stroke:#FFFFFF;stroke-width:0.5;" width="100" x="31" y="239.0703"/><text fill="#FFFFFF" font-family="Roboto" font-size="13" lengthAdjust="spacing" textLength="53" x="54.5" y="263.1372">Action A</text><polygon fill="#E18114" points="172.5,178.2656,229.5,178.2656,241.5,190.2656,229.5,202.2656,172.5,202.2656,160.5,190.2656,172.5,178.2656" style="stroke:#E18114;stroke-width:0.5;"/><text fill="#E91E63" font-family="Roboto" font-size="11" lengthAdjust="spacing" textLength="20" x="207" y="214.4761">yes</text><text fill="#FFFFFF" font-family="Roboto" font-size="13" lengthAdjust="spacing" textLength="53" x="174.5" y="194.7661">second?</text><text fill="#E91E63" font-family="Roboto" font-size="11" lengthAdjust="spacing" textLength="14" x="243.5" y="185.6714">no</text><rect fill="#1168BD" height="39.1328" rx="12.5" ry="12.5" style="stroke:#FFFFFF;stroke-width:0.5;" width="100" x="151" y="239.0703"/><text fill="#FFFFFF" font-family="Roboto" font-size="13" lengthAdjust="spacing" textLength="53" x="174.5" y="263.1372">Action B</text><rect fill="#1168BD" height="39.1328" rx="12.5" ry="12.5" style="stroke:#FFFFFF;stroke-width:0.5;" width="100" x="271" y="233.668"/><text fill="#FFFFFF" font-family="Roboto" font-size="13" lengthAdjust="spacing" textLength="53" x="294.5" y="257.7349">Action C</text><path d="M271,470.2031 L271,480.7695 L251,484.7695 L271,488.7695 L271,499.3359 A0,0 0 0 0 271,499.3359 L327,499.3359 A0,0 0 0 0 327,499.3359 L327,480.2031 L317,470.2031 L271,470.2031 A0,0 0 0 0 271,470.2031 " fill="#999999" style="stroke:#181818;stroke-width:0.5;"/><path d="M317,470.2031 L317,480.2031 L327,480.2031 L317,470.2031 " fill="#999999" style="stroke:#181818;stroke-width:0.5;"/><text fill="#FFFFFF" font-family="Roboto" font-size="13" lengthAdjust="spacing" textLength="31" x="279" y="489.27">Note</text><rect fill="#1168BD" height="39.1328" rx="12.5" ry="12.5" style="stroke:#FFFFFF;stroke-width:0.5;" width="100" x="151" y="465.2031"/><text fill="#FFFFFF" font-family="Roboto" font-size="13" lengthAdjust="spacing" textLength="45" x="178.5" y="489.27">Repeat</text><polygon fill="#E18114" points="201,393.2031,213,405.2031,201,417.2031,189,405.2031,201,393.2031" style="stroke:#E18114;stroke-width:0.5;"/><polygon fill="#E18114" points="177.5,544.0625,224.5,544.0625,236.5,556.0625,224.5,568.0625,177.5,568.0625,165.5,556.0625,177.5,544.0625" style="stroke:#E18114;stroke-width:0.5;"/><text fill="#E91E63" font-family="Roboto" font-size="11" lengthAdjust="spacing" textLength="14" x="207" y="580.2729">no</text><text fill="#FFFFFF" font-family="Roboto" font-size="13" lengthAdjust="spacing" textLength="43" x="179.5" y="560.563">Again?</text><text fill="#E91E63" font-family="Roboto" font-size="11" lengthAdjust="spacing" textLength="20" x="238.5" y="551.4683">yes</text><rect fill="#E18114" height="6" rx="2.5" ry="2.5" style="stroke:#E18114;stroke-width:1.0;" width="256" x="73" y="603.0625"/><rect fill="#1168BD" height="39.1328" rx="12.5" ry="12.5" style="stroke:#FFFFFF;stroke-width:0.5;" width="100" x="87" y="629.0625"/><text fill="#FFFFFF" font-family="Roboto" font-size="13" lengthAdjust="spacing" textLength="58" x="108" y="653.1294">Parallel X</text><rect fill="#1168BD" height="39.1328" rx="12.5" ry="12.5" style="stroke:#FFFFFF;stroke-width:0.5;" width="100" x="215" y="629.0625"/><text fill="#FFFFFF" font-family="Roboto" font-size="13" lengthAdjust="spacing" textLength="57" x="236.5" y="653.1294">Parallel Y</text><polygon fill="#1168BD" points="201,688.1953,213,700.1953,201,712.1953,189,700.1953,201,688.1953" style="stroke:#FFFFFF;stroke-width:0.5;"/><polygon fill="#E18114" points="178.5,747.1953,223.5,747.1953,235.5,759.1953,223.5,771.1953,178.5,771.1953,166.5,759.1953,178.5,747.1953" style="stroke:#E18114;stroke-width:0.5;"/><text fill="#FFFFFF" font-family="Roboto" font-size="13" lengthAdjust="spacing" textLength="41" x="180.5" y="763.6958">Switch</text><rect fill="#1168BD" height="39.1328" rx="12.5" ry="12.5" style="stroke:#FFFFFF;stroke-width:0.5;" width="100" x="31" y="813.3081"/><text fill="#FFFFFF" font-family="Roboto" font-size="13" lengthAdjust="spacing" textLength="47" x="57.5" y="837.375">Action i</text><rect fill="#1168BD" height="39.1328" rx="12.5" ry="12.5" style="stroke:#FFFFFF;stroke-width:0.5;" width="100" x="151" y="813.3081"/><text fill="#FFFFFF" font-family="Roboto" font-size="13" lengthAdjust="spacing" textLength="50" x="176" y="837.375">Action ii</text><rect fill="#1168BD" height="39.1328" rx="12.5" ry="12.5" style="stroke:#FFFFFF;stroke-width:0.5;" width="100" x="271" y="813.3081"/><text fill="#FFFFFF" font-family="Roboto" font-size="13" lengthAdjust="spacing" textLength="53" x="294.5" y="837.375">Action iii</text><polygon fill="#E18114" points="201,872.4409,201,872.4409,213,884.4409,201,896.4409,201,896.4409,189,884.4409,201,872.4409" style="stroke:#E18114;stroke-width:0.5;"/><ellipse cx="397" cy="927.4409" fill="none" rx="11" ry="11" style="stroke:#222222;stroke-width:1.0;"/><ellipse cx="397" cy="927.4409" fill="#222222" rx="6" ry="6" style="stroke:#111111;stroke-width:1.0;"/><line style="stroke:#41AF46;stroke-width:1.5;" x1="15" x2="15" y1="11" y2="938.4409"/><polygon fill="#1168BD" points="583,119.1328,693,119.1328,683,138.6992,693,158.2656,583,158.2656" style="stroke:#FFFFFF;stroke-width:0.5;"/><text fill="#FFFFFF" font-family="Roboto" font-size="13" lengthAdjust="spacing" textLength="32" x="622" y="143.1997">Input</text><path d="M705,188.2656 L705,242.5313 L813,242.5313 L813,198.2656 L803,188.2656 L705,188.2656 " fill="#999999" style="stroke:#181818;stroke-width:0.5;"/><path d="M803,188.2656 L803,198.2656 L813,198.2656 L803,188.2656 " fill="#999999" style="stroke:#181818;stroke-width:0.5;"/><text fill="#FFFFFF" font-family="Roboto" font-size="13" lengthAdjust="spacing" textLength="83" x="713" y="207.3325">Floating note</text><line style="stroke:#181818;stroke-width:1.0;" x1="705" x2="813" y1="215.3984" y2="215.3984"/><text fill="#FFFFFF" font-family="Roboto" font-size="13" lengthAdjust="spacing" textLength="74" x="717.5" y="232.4653">Second line</text><polygon fill="#1168BD" points="583,195.832,683,195.832,693,215.3984,683,234.9648,583,234.9648" style="stroke:#FFFFFF;stroke-width:0.5;"/><text fill="#FFFFFF" font-family="Roboto" font-size="13" lengthAdjust="spacing" textLength="44" x="616" y="219.8989">Output</text><rect fill="#1168BD" height="39.1328" style="stroke:#FFFFFF;stroke-width:0.5;" width="100" x="583" y="277.5313"/><line style="stroke:#FFFFFF;stroke-width:0.5;" x1="588" x2="588" y1="277.5313" y2="316.6641"/><line style="stroke:#FFFFFF;stroke-width:0.5;" x1="678" x2="678" y1="277.5313" y2="316.6641"/><text fill="#FFFFFF" font-family="Roboto" font-size="13" lengthAdjust="spacing" textLength="34" x="616" y="301.5981">Block</text><rect fill="#1168BD" height="39.1328" style="stroke:#FFFFFF;stroke-width:0.5;" width="100" x="583" y="336.6641"/><text fill="#FFFFFF" font-family="Roboto" font-size="13" lengthAdjust="spacing" textLength="63" x="601.5" y="360.731">Rectangle</text><polygon fill="#1168BD" points="593,410.7969,683,410.7969,673,449.9297,583,449.9297" style="stroke:#FFFFFF;stroke-width:0.5;"/><text fill="#FFFFFF" font-family="Roboto" font-size="13" lengthAdjust="spacing" textLength="58" x="604" y="434.8638">Parallel 1</text><polygon fill="#1168BD" points="583,484.9297,673,484.9297,683,524.0625,593,524.0625" style="stroke:#FFFFFF;stroke-width:0.5;"/><text fill="#FFFFFF" font-family="Roboto" font-size="13" lengthAdjust="spacing" textLength="58" x="604" y="508.9966">Parallel 2</text><path d="M588,550.7891 L583,570.3555 L588,589.9219 M678,550.7891 L683,570.3555 L678,589.9219 " fill="#1168BD" style="stroke:#FFFFFF;stroke-width:0.5;"/><text fill="#FFFFFF" font-family="Roboto" font-size="13" lengthAdjust="spacing" textLength="56" x="605" y="574.856">Brackets</text><line style="stroke:#E91E63;stroke-width:1.5;" x1="523" x2="753" y1="624.9219" y2="624.9219"/><rect fill="#1168BD" height="39.1328" rx="12.5" ry="12.5" style="stroke:#FFFFFF;stroke-width:0.5;" width="100" x="473" y="673.9219"/><text fill="#FFFFFF" font-family="Roboto" font-size="13" lengthAdjust="spacing" textLength="17" x="514.5" y="697.9888">Kill</text><rect fill="#1168BD" height="39.1328" rx="12.5" ry="12.5" style="stroke:#FFFFFF;stroke-width:0.5;" width="100" x="583" y="646.4219"/><text fill="#FFFFFF" font-family="Roboto" font-size="13" lengthAdjust="spacing" textLength="24" x="621" y="670.4888">End</text><ellipse cx="633" cy="730.5547" fill="none" rx="10" ry="10" style="stroke:#08427B;stroke-width:1.5;"/><line style="stroke:#08427B;stroke-width:2.5;" x1="626.8128" x2="639.1872" y1="724.3675" y2="736.7419"/><line style="stroke:#08427B;stroke-width:2.5;" x1="639.1872" x2="626.8128" y1="724.3675" y2="736.7419"/><rect fill="#1168BD" height="39.1328" rx="12.5" ry="12.5" style="stroke:#FFFFFF;stroke-width:0.5;" width="100" x="703" y="646.4219"/><text fill="#FFFFFF" font-family="Roboto" font-size="13" lengthAdjust="spacing" textLength="46" x="730" y="670.4888">Detach</text><ellipse cx="753" cy="730.5547" fill="#F1F1F1" rx="10" ry="10" style="stroke:#181818;stroke-width:0.5;"/><path d="M748.7344,725.5703 L756.1719,725.5703 L756.1719,726.5547 L750.1875,733.9766 L756.3281,733.9766 L756.3281,735.0547 L748.5781,735.0547 L748.5781,734.0703 L754.5781,726.6641 L748.7344,726.6641 L748.7344,725.5703 Z " fill="#FFFFFF"/><line style="stroke:#41AF46;stroke-width:1.5;" x1="467" x2="467" y1="11" y2="938.4409"/><line style="stroke:#41AF46;stroke-width:1.5;" x1="818" x2="818" y1="11" y2="938.4409"/><line style="stroke:#E91E63;stroke-width:1.0;" x1="81" x2="81" y1="202.2656" y2="239.0703"/><polygon fill="#E91E63" points="77,229.0703,81,239.0703,85,229.0703,81,233.0703" style="stroke:#E91E63;stroke-width:1.0;"/><line style="stroke:#E91E63;stroke-width:1.0;" x1="81" x2="81" y1="278.2031" y2="338.2031"/><polygon fill="#E91E63" points="77,328.2031,81,338.2031,85,328.2031,81,332.2031" style="stroke:#E91E63;stroke-width:1.0;"/><line style="stroke:#E91E63;stroke-width:1.0;" x1="201" x2="201" y1="202.2656" y2="239.0703"/><polygon fill="#E91E63" points="197,229.0703,201,239.0703,205,229.0703,201,233.0703" style="stroke:#E91E63;stroke-width:1.0;"/><line style="stroke:#E91E63;stroke-width:1.0;" x1="201" x2="201" y1="278.2031" y2="393.2031"/><polygon fill="#E91E63" points="197,383.2031,201,393.2031,205,383.2031,201,387.2031" style="stroke:#E91E63;stroke-width:1.0;"/><line style="stroke:#E91E63;stroke-width:1.0;" x1="110.5" x2="160.5" y1="190.2656" y2="190.2656"/><polygon fill="#E91E63" points="150.5,186.2656,160.5,190.2656,150.5,194.2656,154.5,190.2656" style="stroke:#E91E63;stroke-width:1.0;"/><line style="stroke:#E91E63;stroke-width:1.0;" x1="354" x2="81" y1="87.1328" y2="87.1328"/><line style="stroke:#E91E63;stroke-width:1.0;" x1="81" x2="81" y1="87.1328" y2="178.2656"/><polygon fill="#E91E63" points="77,168.2656,81,178.2656,85,168.2656,81,172.2656" style="stroke:#E91E63;stroke-width:1.0;"/><line style="stroke:#E91E63;stroke-width:1.0;" x1="241.5" x2="321" y1="190.2656" y2="190.2656"/><line style="stroke:#E91E63;stroke-width:1.0;" x1="321" x2="321" y1="190.2656" y2="233.668"/><polygon fill="#E91E63" points="317,223.668,321,233.668,325,223.668,321,227.668" style="stroke:#E91E63;stroke-width:1.0;"/><line style="stroke:#E91E63;stroke-width:1.0;" x1="321" x2="321" y1="272.8008" y2="338.2031"/><polygon fill="#E91E63" points="317,328.2031,321,338.2031,325,328.2031,321,332.2031" style="stroke:#E91E63;stroke-width:1.0;"/><line style="stroke:#E91E63;stroke-width:1.0;" x1="81" x2="321" y1="338.2031" y2="338.2031"/><line style="stroke:#E91E63;stroke-width:1.0;" x1="201" x2="201" y1="417.2031" y2="465.2031"/><polygon fill="#E91E63" points="197,455.2031,201,465.2031,205,455.2031,201,459.2031" style="stroke:#E91E63;stroke-width:1.0;"/><line style="stroke:#E91E63;stroke-width:1.0;" x1="236.5" x2="339" y1="556.0625" y2="556.0625"/><polygon fill="#E91E63" points="335,494.7695,339,484.7695,343,494.7695,339,490.7695" style="stroke:#E91E63;stroke-width:1.0;"/><line style="stroke:#E91E63;stroke-width:1.0;" x1="339" x2="339" y1="405.2031" y2="556.0625"/><line style="stroke:#E91E63;stroke-width:1.0;" x1="339" x2="213" y1="405.2031" y2="405.2031"/><polygon fill="#E91E63" points="223,401.2031,213,405.2031,223,409.2031,219,405.2031" style="stroke:#E91E63;stroke-width:1.0;"/><line style="stroke:#E91E63;stroke-width:1.0;" x1="201" x2="201" y1="504.3359" y2="544.0625"/><polygon fill="#E91E63" points="197,534.0625,201,544.0625,205,534.0625,201,538.0625" style="stroke:#E91E63;stroke-width:1.0;"/><line style="stroke:#E91E63;stroke-width:1.0;" x1="137" x2="137" y1="609.0625" y2="629.0625"/><polygon fill="#E91E63" points="133,619.0625,137,629.0625,141,619.0625,137,623.0625" style="stroke:#E91E63;stroke-width:1.0;"/><line style="stroke:#E91E63;stroke-width:1.0;" x1="265" x2="265" y1="609.0625" y2="629.0625"/><polygon fill="#E91E63" points="261,619.0625,265,629.0625,269,619.0625,265,623.0625" style="stroke:#E91E63;stroke-width:1.0;"/><line style="stroke:#FFFFFF;stroke-width:1.0;" x1="137" x2="137" y1="668.1953" y2="700.1953"/><line style="stroke:#FFFFFF;stroke-width:1.0;" x1="137" x2="189" y1="700.1953" y2="700.1953"/><polygon fill="#FFFFFF" points="179,696.1953,189,700.1953,179,704.1953,183,700.1953" style="stroke:#FFFFFF;stroke-width:1.0;"/><line style="stroke:#FFFFFF;stroke-width:1.0;" x1="265" x2="265" y1="668.1953" y2="700.1953"/><line style="stroke:#FFFFFF;stroke-width:1.0;" x1="265" x2="213" y1="700.1953" y2="700.1953"/><polygon fill="#FFFFFF" points="223,696.1953,213,700.1953,223,704.1953,219,700.1953" style="stroke:#FFFFFF;stroke-width:1.0;"/><line style="stroke:#E91E63;stroke-width:1.0;" x1="201" x2="201" y1="568.0625" y2="603.0625"/><polygon fill="#E91E63" points="197,593.0625,201,603.0625,205,593.0625,201,597.0625" style="stroke:#E91E63;stroke-width:1.0;"/><line style="stroke:#E91E63;stroke-width:1.0;" x1="166.5" x2="81" y1="759.1953" y2="759.1953"/><line style="stroke:#E91E63;stroke-width:1.0;" x1="81" x2="81" y1="759.1953" y2="813.3081"/><polygon fill="#E91E63" points="77,803.3081,81,813.3081,85,803.3081,81,807.3081" style="stroke:#E91E63;stroke-width:1.0;"/><text fill="#E91E63" font-family="Roboto" font-size="11" lengthAdjust="spacing" textLength="36" x="83" y="790.8081">Case i</text><line style="stroke:#E91E63;stroke-width:1.0;" x1="235.5" x2="321" y1="759.1953" y2="759.1953"/><line style="stroke:#E91E63;stroke-width:1.0;" x1="321" x2="321" y1="759.1953" y2="813.3081"/><polygon fill="#E91E63" points="317,803.3081,321,813.3081,325,803.3081,321,807.3081" style="stroke:#E91E63;stroke-width:1.0;"/><text fill="#E91E63" font-family="Roboto" font-size="11" lengthAdjust="spacing" textLength="42" x="323" y="790.8081">Case iii</text><line style="stroke:#E91E63;stroke-width:1.0;" x1="201" x2="201" y1="771.1953" y2="785.7318"/><line style="stroke:#E91E63;stroke-width:1.0;" x1="201" x2="201" y1="785.7318" y2="813.3081"/><polygon fill="#E91E63" points="197,803.3081,201,813.3081,205,803.3081,201,807.3081" style="stroke:#E91E63;stroke-width:1.0;"/><text fill="#E91E63" font-family="Roboto" font-size="11" lengthAdjust="spacing" textLength="39" x="203" y="791.8081">Case ii</text><line style="stroke:#E91E63;stroke-width:1.0;" x1="81" x2="81" y1="852.4409" y2="884.4409"/><line style="stroke:#E91E63;stroke-width:1.0;" x1="81" x2="189" y1="884.4409" y2="884.4409"/><polygon fill="#E91E63" points="179,880.4409,189,884.4409,179,888.4409,183,884.4409" style="stroke:#E91E63;stroke-width:1.0;"/><line style="stroke:#E91E63;stroke-width:1.0;" x1="321" x2="321" y1="852.4409" y2="884.4409"/><line style="stroke:#E91E63;stroke-width:1.0;" x1="321" x2="213" y1="884.4409" y2="884.4409"/><polygon fill="#E91E63" points="223,880.4409,213,884.4409,223,888.4409,219,884.4409" style="stroke:#E91E63;stroke-width:1.0;"/><line style="stroke:#E91E63;stroke-width:1.0;" x1="201" x2="201" y1="852.4409" y2="857.4409"/><line style="stroke:#E91E63;stroke-width:1.0;" x1="201" x2="201" y1="857.4409" y2="872.4409"/><polygon fill="#E91E63" points="197,862.4409,201,872.4409,205,862.4409,201,866.4409" style="stroke:#E91E63;stroke-width:1.0;"/><line style="stroke:#E91E63;stroke-width:1.0;" x1="201" x2="201" y1="712.1953" y2="747.1953"/><polygon fill="#E91E63" points="197,737.1953,201,747.1953,205,737.1953,201,741.1953" style="stroke:#E91E63;stroke-width:1.0;"/><line style="stroke:#E91E63;stroke-width:1.0;" x1="201" x2="201" y1="896.4409" y2="901.4409"/><line style="stroke:#E91E63;stroke-width:1.0;" x1="201" x2="397" y1="901.4409" y2="901.4409"/><line style="stroke:#E91E63;stroke-width:1.0;" x1="397" x2="397" y1="901.4409" y2="916.4409"/><polygon fill="#E91E63" points="393,906.4409,397,916.4409,401,906.4409,397,910.4409" style="stroke:#E91E63;stroke-width:1.0;"/><line style="stroke:#E91E63;stroke-width:1.0;" x1="397" x2="397" y1="55.1328" y2="75.1328"/><polygon fill="#E91E63" points="393,65.1328,397,75.1328,401,65.1328,397,69.1328" style="stroke:#E91E63;stroke-width:1.0;"/><line style="stroke:#E91E63;stroke-width:1.0;" x1="633" x2="633" y1="158.2656" y2="195.832"/><polygon fill="#E91E63" points="629,185.832,633,195.832,637,185.832,633,189.832" style="stroke:#E91E63;stroke-width:1.0;"/><line style="stroke:#E91E63;stroke-width:1.0;" x1="633" x2="633" y1="234.9648" y2="277.5313"/><polygon fill="#E91E63" points="629,267.5313,633,277.5313,637,267.5313,633,271.5313" style="stroke:#E91E63;stroke-width:1.0;"/><line style="stroke:#E91E63;stroke-width:1.0;" x1="633" x2="633" y1="316.6641" y2="336.6641"/><polygon fill="#E91E63" points="629,326.6641,633,336.6641,637,326.6641,633,330.6641" style="stroke:#E91E63;stroke-width:1.0;"/><line style="stroke:#E91E63;stroke-width:1.0;" x1="633" x2="633" y1="375.7969" y2="410.7969"/><polygon fill="#E91E63" points="629,400.7969,633,410.7969,637,400.7969,633,404.7969" style="stroke:#E91E63;stroke-width:1.0;"/><line style="stroke:#E91E63;stroke-width:1.0;" x1="633" x2="633" y1="449.9297" y2="484.9297"/><polygon fill="#E91E63" points="629,474.9297,633,484.9297,637,474.9297,633,478.9297" style="stroke:#E91E63;stroke-width:1.0;"/><line style="stroke:#E91E63;stroke-width:1.0;" x1="633" x2="633" y1="524.0625" y2="550.7891"/><polygon fill="#E91E63" points="629,540.7891,633,550.7891,637,540.7891,633,544.7891" style="stroke:#E91E63;stroke-width:1.0;"/><line style="stroke:#E91E63;stroke-width:1.0;" x1="633" x2="633" y1="685.5547" y2="720.5547"/><polygon fill="#E91E63" points="629,710.5547,633,720.5547,637,710.5547,633,714.5547" style="stroke:#E91E63;stroke-width:1.0;"/><line style="stroke:#E91E63;stroke-width:1.0;" x1="753" x2="753" y1="685.5547" y2="720.5547"/><polygon fill="#E91E63" points="749,710.5547,753,720.5547,757,710.5547,753,714.5547" style="stroke:#E91E63;stroke-width:1.0;"/><line style="stroke:#E91E63;stroke-width:1.0;" x1="523" x2="523" y1="626.4219" y2="673.9219"/><polygon fill="#E91E63" points="519,663.9219,523,673.9219,527,663.9219,523,667.9219" style="stroke:#E91E63;stroke-width:1.0;"/><line style="stroke:#E91E63;stroke-width:1.0;" x1="633" x2="633" y1="626.4219" y2="646.4219"/><polygon fill="#E91E63" points="629,636.4219,633,646.4219,637,636.4219,633,640.4219" style="stroke:#E91E63;stroke-width:1.0;"/><line style="stroke:#E91E63;stroke-width:1.0;" x1="753" x2="753" y1="626.4219" y2="646.4219"/><polygon fill="#E91E63" points="749,636.4219,753,646.4219,757,636.4219,753,640.4219" style="stroke:#E91E63;stroke-width:1.0;"/><line style="stroke:#E91E63;stroke-width:1.0;" x1="633" x2="633" y1="589.9219" y2="624.9219"/><polygon fill="#E91E63" points="629,614.9219,633,624.9219,637,614.9219,633,618.9219" style="stroke:#E91E63;stroke-width:1.0;"/><line style="stroke:#E91E63;stroke-width:1.5;stroke-dasharray:1.0,3.0;" x1="440" x2="633" y1="87.1328" y2="87.1328"/><line style="stroke:#E91E63;stroke-width:1.5;stroke-dasharray:1.0,3.0;" x1="633" x2="633" y1="87.1328" y2="119.1328"/><polygon fill="#E91E63" points="629,109.1328,633,119.1328,637,109.1328,633,113.1328" style="stroke:#E91E63;stroke-width:1.0;"/><text fill="#41AF46" font-family="Roboto" font-size="13" lengthAdjust="spacing" textLength="73" x="204.5" y="25.0669">Swimlane 1</text><text fill="#41AF46" font-family="Roboto" font-size="13" lengthAdjust="spacing" textLength="73" x="606" y="25.0669">Swimlane 2</text><!--MD5=[a3ed8653941763f82fa168deb96f5201]
@startuml
' Styling settings for PlantUML diagrams
' See http://plantuml.sourceforge.net for documentation
' To get a list of possible skinparam settings, run: plantuml -language

' COLORS
' ========================================

' general colors from own stylesheet
!$diagram_background_color = "#fff"
!$diagram_border_color = "#fff"
!$diagram_color = "#808080"
!$arrow_color = "#e91e63"
!$link_color = "#3498DB"

' make admonition colors available for elements
!$caution_color = "#a0439c"
!$caution_on_color = "#fff"
!$important_color = "#d32f2f"
!$important_on_color = "#fff"
!$note_color = "#217ee7"
!$note_on_color = "#fff"
!$tip_color = "#41af46"
!$tip_on_color = "#fff"
!$warning_color = "#e18114"
!$warning_on_color = "#fff"

' node_1, node_2 and note taken from C4 styling
!$node_1_main_color = "#08427b"
!$node_2_main_color = "#1168bd"
!$node_2_aux2_color = "#3498DB"
!$note_main_color = "#999"

' use admonition colors for other elements
!$logic_main_color = $warning_color
!$group_main_color = $caution_color
!$divider_main_color = $tip_color

!procedure $logic_style($var=1)
  $styling($var, $logic_main_color, $logic_main_color, $warning_on_color) 
!endprocedure

!procedure $group_style($var=4)
  $styling($var, $group_main_color, $group_main_color, $caution_on_color, "#FFFCFF") 
!endprocedure

!procedure $divider_style($var=1)
  $styling($var, $divider_main_color, $divider_main_color, $tip_on_color) 
!endprocedure

!procedure $node_1_style($var=1)
  $styling($var, $node_1_main_color, "#fff", "fff") 
!endprocedure

!procedure $node_2_style($var=1)
  $styling($var, $node_2_main_color, "#fff", "fff", $node_2_aux2_color) 
!endprocedure

!procedure $note_1_style($var=1)
  $styling($var, $note_main_color, "#fff", "fff") 
!endprocedure

' STYLE HELPERS
' ========================================

' get variation with color palette:
' $main: primary fill color, typically background
' $aux1, $aux2: add'l fill colors, typically border, alternative background
' $on1, $on2: text colors, typically main text, supplementary
' variations:
' 1) regular (default)
' 2) name reversed (label outside)
' 3) reverse background
' 4) light background
' 5) border box (loop, alt)
' 6) ...

!procedure $styling($var=1, $main, $aux1, $on1, $aux2="#ccc", $on2="#666")
  !if ($var=="2")
    BackgroundColor $main
    BorderColor $aux1
    FontColor $main
    StereotypeFontColor $main
  !elseif ($var=="3")
    BackgroundColor $aux1
    BorderColor $main
    FontColor $main
    StereotypeFontColor $main
  !elseif ($var==4)
    BackgroundColor $aux2
    BorderColor $aux1
    FontColor $main
  !elseif ($var=="5")
    BackgroundColor $main
    BorderColor $aux1
    FontColor $main
    HeaderFontColor $on1
  !elseif ($var=="6")
    BackgroundColor $on1
    BorderColor $aux1
    FontColor $main
    HeaderFontColor $on1
    HeaderBackgroundColor $aux1
  !elseif ($var==7)
    BackgroundColor $aux2
    BorderColor $main
    FontColor $main
  !else
    BackgroundColor $main
    BorderColor $aux1
    FontColor $on1
    StereotypeFontColor $on1
    HeaderBackgroundColor $on1
  !endif
  FontSize 13
!endprocedure

' GENERAL SETTINGS
' ========================================

!$body_font_family = "Roboto"
' each element can get its own FontName, FontSize, FontStyle; not added now

skinparam BackgroundColor $diagram_background_color
skinparam DiagramBorderColor $diagram_border_color
skinparam HyperlinkColor $link_color

'skinparam monochrome true
skinparam shadowing false
skinparam Handwritten false
skinparam Padding 2
'skinparam Roundcorner 5

' Setting a minimum width can make sequence diagram participants look more balanced
skinparam minClassWidth 100

skinparam Default {
  FontColor $doc_font_color
  FontName $body_font_family
  FontStyle normal
  TextAlignment center
}

skinparam Arrow {
  Color $arrow_color
  FontColor $arrow_color
}

skinparam Note {
  $note_1_style()
}

' USE CASE
' ========================================

skinparam Actor {
  $node_1_style(2)
  ' Make actors look like in C4
  Style awesome
}

skinparam Usecase {
  $node_2_style()
}

skinparam Package {
  $group_style()
}

' ACTIVITY
' ========================================

skinparam Activity {
  $node_2_style()

  StartColor $node_1_main_color
  EndColor $node_1_main_color
  BarColor $logic_main_color
}

skinparam ActivityDiamond {
  $logic_style()
}

skinparam Partition {
  $group_style()
}

skinparam Swimlane {
  $divider_style()
}

skinparam SwimlaneTitle {
  $divider_style(6)
}

' SEQUENCE
' ========================================

'Actor: see Use Case diagram above

skinparam Participant {
  $node_1_style()
'  Padding 40
}

skinparam Boundary {
  $node_1_style(3)
}

skinparam Control {
  $node_1_style(3)
}

skinparam Entity {
  $node_1_style(3)
}

skinparam Database {
  $node_1_style(2)
}

skinparam Collections {
  $node_1_style()
}

skinparam Queue {
  $node_1_style()
}

skinparam SequenceLifeline {
  $node_2_style(7)
}

skinparam SequenceDelay {
  $divider_style(2)
}

skinparam SequenceDivider {
  $divider_style()
}

skinparam SequenceGroup {
  $logic_style(5)
}

skinparam SequenceReference {
  $group_style(6)
  BorderThickness 1
}

skinparam SequenceBox {
  $group_style(4)
'  Padding 13
}

' ========================================
' ========================================


' DEPLOYMENT
' ========================================

' Actor: see Use case diagram
' Use case: see Use case diagram
' Package: see Use case diagram (fix?)
' Boundary: see Sequence diagram
' Control: see Sequence diagram
' Entity: see Sequence diagram
' Queue: see Sequence diagram

' Database: see Sequence diagram (fix?)
' Collections: see Sequence diagram (fix?)

skinparam Agent {
  $node_2_style()
}

skinparam Person {
  $node_1_style()
}

skinparam Artifact {
  $node_2_style()
}

skinparam Component {
  $node_2_style()
}

skinparam File {
  $node_2_style()
}

skinparam Card {
  $node_2_style()
}

skinparam Storage {
  $node_2_style()
}

skinparam Cloud {
  $group_style(4)
}

skinparam Frame {
  $group_style()
}

skinparam Node {
  $group_style()
}

' check lighter background
skinparam Stack {
  $node_2_style()
}

' artefact or group?
skinparam Folder {
  $group_style()
}

skinparam Hexagon {
  $logic_style()
}

skinparam Interface {
  $logic_style(3)
}

skinparam Object {
  $node_2_style()
'  AttributeFontColor $arrow_color
'  EndColor $arrow_color
'  StartColor $arrow_color
}

skinparam Rectangle {
  $logic_style()
}

' Used in C4 models:
skinparam Rectangle<<boundary>> {
  $logic_style(6)
}

skinparam State {
  $node_2_style()
'  AttributeFontColor $arrow_color
'  EndColor $arrow_color
'  StartColor $arrow_color
}
|Swimlane 1|
start

  if (condition) then (one)
  partition "Partition" {
    if (first?) then (yes)
      :Action A;
    elseif (second?) then (yes)
      :Action B;
    else (no)
      :Action C;
    endif
  }
  
  repeat
    :Repeat;
    note right: Note
  repeat while (Again?) is (yes) not (no)

  fork
    :Parallel X;
  fork again
    :Parallel Y;
  end merge
  
  switch (Switch)
  case (Case i)
    :Action i;
  case (Case ii)
    :Action ii;
  case (Case iii)
    :Action iii;
  endswitch

else (two)
  -[dotted]->

  |Swimlane 2|
  :Input<
  :Output>
  floating note right
    Floating note
    - - - -
    Second line
  end note
  
  :Block|
  :Rectangle]
  :Parallel 1/
  :Parallel 2\\
  :Brackets}

  split
    :Kill;
    kill
  split again
    :End;
    end;
  split again
    :Detach;
    (Z)
    detach
  end split
endif

|Swimlane 1|  

stop
@enduml

@startuml

















skinparam BackgroundColor #fff
skinparam DiagramBorderColor #fff
skinparam HyperlinkColor #3498DB

skinparam shadowing false
skinparam Handwritten false
skinparam Padding 2

skinparam minClassWidth 100

skinparam Default {
  FontColor $doc_font_color
  FontName Roboto
  FontStyle normal
  TextAlignment center
}

skinparam Arrow {
  Color #e91e63
  FontColor #e91e63
}

skinparam Note {
      BackgroundColor #999
    BorderColor #fff
    FontColor fff
    StereotypeFontColor fff
    HeaderBackgroundColor fff
  FontSize 13 
}


skinparam Actor {
      BackgroundColor #08427b
    BorderColor #fff
    FontColor #08427b
    StereotypeFontColor #08427b
  FontSize 13 
  Style awesome
}

skinparam Usecase {
      BackgroundColor #1168bd
    BorderColor #fff
    FontColor fff
    StereotypeFontColor fff
    HeaderBackgroundColor fff
  FontSize 13 
}

skinparam Package {
      BackgroundColor #FFFCFF
    BorderColor #a0439c
    FontColor #a0439c
  FontSize 13 
}


skinparam Activity {
      BackgroundColor #1168bd
    BorderColor #fff
    FontColor fff
    StereotypeFontColor fff
    HeaderBackgroundColor fff
  FontSize 13 

  StartColor #08427b
  EndColor #08427b
  BarColor #e18114
}

skinparam ActivityDiamond {
      BackgroundColor #e18114
    BorderColor #e18114
    FontColor #fff
    StereotypeFontColor #fff
    HeaderBackgroundColor #fff
  FontSize 13 
}

skinparam Partition {
      BackgroundColor #FFFCFF
    BorderColor #a0439c
    FontColor #a0439c
  FontSize 13 
}

skinparam Swimlane {
      BackgroundColor #41af46
    BorderColor #41af46
    FontColor #fff
    StereotypeFontColor #fff
    HeaderBackgroundColor #fff
  FontSize 13 
}

skinparam SwimlaneTitle {
      BackgroundColor #fff
    BorderColor #41af46
    FontColor #41af46
    HeaderFontColor #fff
    HeaderBackgroundColor #41af46
  FontSize 13 
}



skinparam Participant {
      BackgroundColor #08427b
    BorderColor #fff
    FontColor fff
    StereotypeFontColor fff
    HeaderBackgroundColor fff
  FontSize 13 
}

skinparam Boundary {
      BackgroundColor #fff
    BorderColor #08427b
    FontColor #08427b
    StereotypeFontColor #08427b
  FontSize 13 
}

skinparam Control {
      BackgroundColor #fff
    BorderColor #08427b
    FontColor #08427b
    StereotypeFontColor #08427b
  FontSize 13 
}

skinparam Entity {
      BackgroundColor #fff
    BorderColor #08427b
    FontColor #08427b
    StereotypeFontColor #08427b
  FontSize 13 
}

skinparam Database {
      BackgroundColor #08427b
    BorderColor #fff
    FontColor #08427b
    StereotypeFontColor #08427b
  FontSize 13 
}

skinparam Collections {
      BackgroundColor #08427b
    BorderColor #fff
    FontColor fff
    StereotypeFontColor fff
    HeaderBackgroundColor fff
  FontSize 13 
}

skinparam Queue {
      BackgroundColor #08427b
    BorderColor #fff
    FontColor fff
    StereotypeFontColor fff
    HeaderBackgroundColor fff
  FontSize 13 
}

skinparam SequenceLifeline {
      BackgroundColor #3498DB
    BorderColor #1168bd
    FontColor #1168bd
  FontSize 13 
}

skinparam SequenceDelay {
      BackgroundColor #41af46
    BorderColor #41af46
    FontColor #41af46
    StereotypeFontColor #41af46
  FontSize 13 
}

skinparam SequenceDivider {
      BackgroundColor #41af46
    BorderColor #41af46
    FontColor #fff
    StereotypeFontColor #fff
    HeaderBackgroundColor #fff
  FontSize 13 
}

skinparam SequenceGroup {
      BackgroundColor #e18114
    BorderColor #e18114
    FontColor #e18114
    HeaderFontColor #fff
  FontSize 13 
}

skinparam SequenceReference {
      BackgroundColor #fff
    BorderColor #a0439c
    FontColor #a0439c
    HeaderFontColor #fff
    HeaderBackgroundColor #a0439c
  FontSize 13 
  BorderThickness 1
}

skinparam SequenceBox {
      BackgroundColor #FFFCFF
    BorderColor #a0439c
    FontColor #a0439c
  FontSize 13 
}






skinparam Agent {
      BackgroundColor #1168bd
    BorderColor #fff
    FontColor fff
    StereotypeFontColor fff
    HeaderBackgroundColor fff
  FontSize 13 
}

skinparam Person {
      BackgroundColor #08427b
    BorderColor #fff
    FontColor fff
    StereotypeFontColor fff
    HeaderBackgroundColor fff
  FontSize 13 
}

skinparam Artifact {
      BackgroundColor #1168bd
    BorderColor #fff
    FontColor fff
    StereotypeFontColor fff
    HeaderBackgroundColor fff
  FontSize 13 
}

skinparam Component {
      BackgroundColor #1168bd
    BorderColor #fff
    FontColor fff
    StereotypeFontColor fff
    HeaderBackgroundColor fff
  FontSize 13 
}

skinparam File {
      BackgroundColor #1168bd
    BorderColor #fff
    FontColor fff
    StereotypeFontColor fff
    HeaderBackgroundColor fff
  FontSize 13 
}

skinparam Card {
      BackgroundColor #1168bd
    BorderColor #fff
    FontColor fff
    StereotypeFontColor fff
    HeaderBackgroundColor fff
  FontSize 13 
}

skinparam Storage {
      BackgroundColor #1168bd
    BorderColor #fff
    FontColor fff
    StereotypeFontColor fff
    HeaderBackgroundColor fff
  FontSize 13 
}

skinparam Cloud {
      BackgroundColor #FFFCFF
    BorderColor #a0439c
    FontColor #a0439c
  FontSize 13 
}

skinparam Frame {
      BackgroundColor #FFFCFF
    BorderColor #a0439c
    FontColor #a0439c
  FontSize 13 
}

skinparam Node {
      BackgroundColor #FFFCFF
    BorderColor #a0439c
    FontColor #a0439c
  FontSize 13 
}

skinparam Stack {
      BackgroundColor #1168bd
    BorderColor #fff
    FontColor fff
    StereotypeFontColor fff
    HeaderBackgroundColor fff
  FontSize 13 
}

skinparam Folder {
      BackgroundColor #FFFCFF
    BorderColor #a0439c
    FontColor #a0439c
  FontSize 13 
}

skinparam Hexagon {
      BackgroundColor #e18114
    BorderColor #e18114
    FontColor #fff
    StereotypeFontColor #fff
    HeaderBackgroundColor #fff
  FontSize 13 
}

skinparam Interface {
      BackgroundColor #e18114
    BorderColor #e18114
    FontColor #e18114
    StereotypeFontColor #e18114
  FontSize 13 
}

skinparam Object {
      BackgroundColor #1168bd
    BorderColor #fff
    FontColor fff
    StereotypeFontColor fff
    HeaderBackgroundColor fff
  FontSize 13 
}

skinparam Rectangle {
      BackgroundColor #e18114
    BorderColor #e18114
    FontColor #fff
    StereotypeFontColor #fff
    HeaderBackgroundColor #fff
  FontSize 13 
}

skinparam Rectangle<<boundary>> {
      BackgroundColor #fff
    BorderColor #e18114
    FontColor #e18114
    HeaderFontColor #fff
    HeaderBackgroundColor #e18114
  FontSize 13 
}

skinparam State {
      BackgroundColor #1168bd
    BorderColor #fff
    FontColor fff
    StereotypeFontColor fff
    HeaderBackgroundColor fff
  FontSize 13 
}
|Swimlane 1|
start

  if (condition) then (one)
  partition "Partition" {
    if (first?) then (yes)
      :Action A;
    elseif (second?) then (yes)
      :Action B;
    else (no)
      :Action C;
    endif
  }
  
  repeat
    :Repeat;
    note right: Note
  repeat while (Again?) is (yes) not (no)

  fork
    :Parallel X;
  fork again
    :Parallel Y;
  end merge
  
  switch (Switch)
  case (Case i)
    :Action i;
  case (Case ii)
    :Action ii;
  case (Case iii)
    :Action iii;
  endswitch

else (two)
  -[dotted]->

  |Swimlane 2|
  :Input<
  :Output>
  floating note right
    Floating note
    - - - -
    Second line
  end note
  
  :Block|
  :Rectangle]
  :Parallel 1/
  :Parallel 2\\
  :Brackets}

  split
    :Kill;
    kill
  split again
    :End;
    end;
  split again
    :Detach;
    (Z)
    detach
  end split
endif

|Swimlane 1|  

stop
@enduml

PlantUML version 1.2022.12(Sun Oct 23 18:12:26 GMT 2022)
(GPL source distribution)
Java Runtime: OpenJDK Runtime Environment
JVM: OpenJDK 64-Bit Server VM
Default Encoding: UTF-8
Language: en
Country: US
--></g></svg>