<?xml version="1.0" encoding="UTF-8" standalone="no"?><svg xmlns="http://www.w3.org/2000/svg" xmlns:xlink="http://www.w3.org/1999/xlink" contentScriptType="application/ecmascript" contentStyleType="text/css" height="890px" preserveAspectRatio="none" style="width:596px;height:890px;background:#FFFFFF;" version="1.1" viewBox="0 0 596 890" width="596px" zoomAndPan="magnify"><defs><filter height="300%" id="fhec2vbjfk58j" width="300%" x="-1" y="-1"><feGaussianBlur result="blurOut" stdDeviation="2.0"/><feColorMatrix in="blurOut" result="blurOut2" type="matrix" values="0 0 0 0 0 0 0 0 0 0 0 0 0 0 0 0 0 0 .4 0"/><feOffset dx="4.0" dy="4.0" in="blurOut2" result="blurOut3"/><feBlend in="SourceGraphic" in2="blurOut3" mode="normal"/></filter></defs><g><ellipse cx="274.5" cy="48.6998" fill="#000000" filter="url(#fhec2vbjfk58j)" rx="10" ry="10" style="stroke:none;stroke-width:1.0;"/><polygon fill="#FEFECE" filter="url(#fhec2vbjfk58j)" points="253,78.6998,296,78.6998,308,90.6998,296,102.6998,253,102.6998,241,90.6998,253,78.6998" style="stroke:#A80036;stroke-width:1.5;"/><text fill="#000000" font-family="sans-serif" font-size="11" lengthAdjust="spacing" textLength="43" x="253" y="95.0998">condition</text><text fill="#000000" font-family="sans-serif" font-size="11" lengthAdjust="spacing" textLength="18" x="223" y="88.4999">one</text><text fill="#000000" font-family="sans-serif" font-size="11" lengthAdjust="spacing" textLength="17" x="308" y="88.4999">two</text><rect fill="#FFFFFF" filter="url(#fhec2vbjfk58j)" height="226.0001" style="stroke:#000000;stroke-width:2.0;" width="252" x="21" y="122.6998"/><path d="M82,122.6998 L82,132.4998 L72,142.4998 L21,142.4998 " fill="none" style="stroke:#000000;stroke-width:2.0;"/><text fill="#000000" font-family="sans-serif" font-size="14" lengthAdjust="spacing" textLength="51" x="24" y="137.6998">Partition</text><polygon fill="#FEFECE" filter="url(#fhec2vbjfk58j)" points="50.5,177.0999,74.5,177.0999,86.5,189.0999,74.5,201.0999,50.5,201.0999,38.5,189.0999,50.5,177.0999" style="stroke:#A80036;stroke-width:1.5;"/><text fill="#000000" font-family="sans-serif" font-size="11" lengthAdjust="spacing" textLength="16" x="66.5" y="212.0999">yes</text><text fill="#000000" font-family="sans-serif" font-size="11" lengthAdjust="spacing" textLength="23" x="51" y="193.4999">first?</text><rect fill="#FEFECE" filter="url(#fhec2vbjfk58j)" height="34.4001" rx="12.5" ry="12.5" style="stroke:#A80036;stroke-width:1.5;" width="63" x="31" y="234.2998"/><text fill="#000000" font-family="sans-serif" font-size="12" lengthAdjust="spacing" textLength="43" x="41" y="256.2999">Action A</text><polygon fill="#FEFECE" filter="url(#fhec2vbjfk58j)" points="126,177.0999,167,177.0999,179,189.0999,167,201.0999,126,201.0999,114,189.0999,126,177.0999" style="stroke:#A80036;stroke-width:1.5;"/><text fill="#000000" font-family="sans-serif" font-size="11" lengthAdjust="spacing" textLength="16" x="150.5" y="212.0999">yes</text><text fill="#000000" font-family="sans-serif" font-size="11" lengthAdjust="spacing" textLength="41" x="126" y="193.4999">second?</text><text fill="#000000" font-family="sans-serif" font-size="11" lengthAdjust="spacing" textLength="12" x="179" y="186.9">no</text><rect fill="#FEFECE" filter="url(#fhec2vbjfk58j)" height="34.4001" rx="12.5" ry="12.5" style="stroke:#A80036;stroke-width:1.5;" width="63" x="115" y="234.2998"/><text fill="#000000" font-family="sans-serif" font-size="12" lengthAdjust="spacing" textLength="43" x="125" y="256.2999">Action B</text><rect fill="#FEFECE" filter="url(#fhec2vbjfk58j)" height="34.4001" rx="12.5" ry="12.5" style="stroke:#A80036;stroke-width:1.5;" width="64" x="199" y="230.6999"/><text fill="#000000" font-family="sans-serif" font-size="12" lengthAdjust="spacing" textLength="44" x="209" y="252.7">Action C</text><path d="M196,449.5009 L196,458.3009 L176,462.3009 L196,466.3009 L196,475.1009 A0,0 0 0 0 196,475.1009 L244,475.1009 A0,0 0 0 0 244,475.1009 L244,459.5009 L234,449.5009 L196,449.5009 A0,0 0 0 0 196,449.5009 " fill="#FBFB77" filter="url(#fhec2vbjfk58j)" style="stroke:#A80036;stroke-width:1.0;"/><path d="M234,449.5009 L234,459.5009 L244,459.5009 L234,449.5009 " fill="#FBFB77" style="stroke:#A80036;stroke-width:1.0;"/><text fill="#000000" font-family="sans-serif" font-size="13" lengthAdjust="spacing" textLength="27" x="202" y="467.5009">Note</text><rect fill="#FEFECE" filter="url(#fhec2vbjfk58j)" height="34.4001" rx="12.5" ry="12.5" style="stroke:#A80036;stroke-width:1.5;" width="58" x="118" y="445.1008"/><text fill="#000000" font-family="sans-serif" font-size="12" lengthAdjust="spacing" textLength="38" x="128" y="467.1009">Repeat</text><polygon fill="#FEFECE" filter="url(#fhec2vbjfk58j)" points="147,379.7003,159,391.7003,147,403.7003,135,391.7003,147,379.7003" style="stroke:#A80036;stroke-width:1.5;"/><polygon fill="#FEFECE" filter="url(#fhec2vbjfk58j)" points="130.5,512.5009,163.5,512.5009,175.5,524.5009,163.5,536.5009,130.5,536.5009,118.5,524.5009,130.5,512.5009" style="stroke:#A80036;stroke-width:1.5;"/><text fill="#000000" font-family="sans-serif" font-size="11" lengthAdjust="spacing" textLength="12" x="151" y="547.5009">no</text><text fill="#000000" font-family="sans-serif" font-size="11" lengthAdjust="spacing" textLength="33" x="130.5" y="528.9009">Again?</text><text fill="#000000" font-family="sans-serif" font-size="11" lengthAdjust="spacing" textLength="16" x="175.5" y="522.301">yes</text><rect fill="#000000" filter="url(#fhec2vbjfk58j)" height="6" rx="2.5" ry="2.5" style="stroke:#000000;stroke-width:1.0;" width="200" x="47" y="569.0009"/><rect fill="#FEFECE" filter="url(#fhec2vbjfk58j)" height="34.4001" rx="12.5" ry="12.5" style="stroke:#A80036;stroke-width:1.5;" width="72" x="61" y="595.0009"/><text fill="#000000" font-family="sans-serif" font-size="12" lengthAdjust="spacing" textLength="52" x="71" y="617.0009">Parallel X</text><rect fill="#FEFECE" filter="url(#fhec2vbjfk58j)" height="34.4001" rx="12.5" ry="12.5" style="stroke:#A80036;stroke-width:1.5;" width="72" x="161" y="595.0009"/><text fill="#000000" font-family="sans-serif" font-size="12" lengthAdjust="spacing" textLength="52" x="171" y="617.0009">Parallel Y</text><polygon fill="#FEFECE" filter="url(#fhec2vbjfk58j)" points="147,649.401,159,661.401,147,673.401,135,661.401,147,649.401" style="stroke:#A80036;stroke-width:1.5;"/><polygon fill="#FEFECE" filter="url(#fhec2vbjfk58j)" points="131,705.7016,163,705.7016,175,717.7016,163,729.7016,131,729.7016,119,717.7016,131,705.7016" style="stroke:#A80036;stroke-width:1.5;"/><text fill="#000000" font-family="sans-serif" font-size="11" lengthAdjust="spacing" textLength="32" x="131" y="722.1015">Switch</text><rect fill="#FEFECE" filter="url(#fhec2vbjfk58j)" height="34.4001" rx="12.5" ry="12.5" style="stroke:#A80036;stroke-width:1.5;" width="58" x="35.5" y="752.9015"/><text fill="#000000" font-family="sans-serif" font-size="12" lengthAdjust="spacing" textLength="38" x="45.5" y="774.9016">Action i</text><rect fill="#FEFECE" filter="url(#fhec2vbjfk58j)" height="34.4001" rx="12.5" ry="12.5" style="stroke:#A80036;stroke-width:1.5;" width="61" x="113.5" y="752.9015"/><text fill="#000000" font-family="sans-serif" font-size="12" lengthAdjust="spacing" textLength="41" x="123.5" y="774.9016">Action ii</text><rect fill="#FEFECE" filter="url(#fhec2vbjfk58j)" height="34.4001" rx="12.5" ry="12.5" style="stroke:#A80036;stroke-width:1.5;" width="64" x="194.5" y="752.9015"/><text fill="#000000" font-family="sans-serif" font-size="12" lengthAdjust="spacing" textLength="44" x="204.5" y="774.9016">Action iii</text><polygon fill="#FEFECE" filter="url(#fhec2vbjfk58j)" points="147,807.3016,147,807.3016,159,819.3016,147,831.3016,147,831.3016,135,819.3016,147,807.3016" style="stroke:#A80036;stroke-width:1.5;"/><ellipse cx="274.5" cy="862.3016" fill="#FFFFFF" filter="url(#fhec2vbjfk58j)" rx="11" ry="11" style="stroke:#000000;stroke-width:1.0;"/><ellipse cx="274.5" cy="862.3016" fill="#000000" rx="6" ry="6" style="stroke:#7F7F7F;stroke-width:1.0;"/><line style="stroke:#000000;stroke-width:2.0;" x1="15" x2="15" y1="12.1" y2="873.3016"/><polygon fill="#FEFECE" filter="url(#fhec2vbjfk58j)" points="397,122.6998,452,122.6998,442,139.8999,452,157.0999,397,157.0999" style="stroke:#A80036;stroke-width:1.5;"/><text fill="#000000" font-family="sans-serif" font-size="12" lengthAdjust="spacing" textLength="25" x="407" y="144.6999">Input</text><path d="M476.5,184.7001 L476.5,235.9001 L571.5,235.9001 L571.5,194.7001 L561.5,184.7001 L476.5,184.7001 " fill="#FBFB77" filter="url(#fhec2vbjfk58j)" style="stroke:#A80036;stroke-width:1.0;"/><path d="M561.5,184.7001 L561.5,194.7001 L571.5,194.7001 L561.5,184.7001 " fill="#FBFB77" style="stroke:#A80036;stroke-width:1.0;"/><text fill="#000000" font-family="sans-serif" font-size="13" lengthAdjust="spacing" textLength="74" x="482.5" y="202.7001">Floating note</text><line style="stroke:#A80036;stroke-width:1.0;" x1="476.5" x2="571.5" y1="210.3001" y2="210.3001"/><text fill="#000000" font-family="sans-serif" font-size="13" lengthAdjust="spacing" textLength="67" x="482.5" y="228.3001">Second line</text><polygon fill="#FEFECE" filter="url(#fhec2vbjfk58j)" points="392.5,193.1001,446.5,193.1001,456.5,210.3001,446.5,227.5002,392.5,227.5002" style="stroke:#A80036;stroke-width:1.5;"/><text fill="#000000" font-family="sans-serif" font-size="12" lengthAdjust="spacing" textLength="34" x="402.5" y="215.1002">Output</text><rect fill="#FEFECE" filter="url(#fhec2vbjfk58j)" height="34.4001" style="stroke:#A80036;stroke-width:1.5;" width="49" x="395" y="270.9001"/><line style="stroke:#A80036;stroke-width:1.5;" x1="400" x2="400" y1="270.9001" y2="305.3002"/><line style="stroke:#A80036;stroke-width:1.5;" x1="439" x2="439" y1="270.9001" y2="305.3002"/><text fill="#000000" font-family="sans-serif" font-size="12" lengthAdjust="spacing" textLength="29" x="405" y="292.9002">Block</text><rect fill="#FEFECE" filter="url(#fhec2vbjfk58j)" height="34.4001" style="stroke:#A80036;stroke-width:1.5;" width="73" x="383" y="325.3002"/><text fill="#000000" font-family="sans-serif" font-size="12" lengthAdjust="spacing" textLength="53" x="393" y="347.3003">Rectangle</text><polygon fill="#FEFECE" filter="url(#fhec2vbjfk58j)" points="394,390.7007,455,390.7007,445,425.1008,384,425.1008" style="stroke:#A80036;stroke-width:1.5;"/><text fill="#000000" font-family="sans-serif" font-size="12" lengthAdjust="spacing" textLength="51" x="394" y="412.7008">Parallel 1</text><polygon fill="#FEFECE" filter="url(#fhec2vbjfk58j)" points="384,453.5013,445,453.5013,455,487.9014,394,487.9014" style="stroke:#A80036;stroke-width:1.5;"/><text fill="#000000" font-family="sans-serif" font-size="12" lengthAdjust="spacing" textLength="51" x="394" y="475.5014">Parallel 2</text><path d="M391.5,507.9014 L386.5,525.1015 L391.5,542.3015 M447.5,507.9014 L452.5,525.1015 L447.5,542.3015 " fill="#FEFECE" filter="url(#fhec2vbjfk58j)" style="stroke:#A80036;stroke-width:1.5;"/><text fill="#000000" font-family="sans-serif" font-size="12" lengthAdjust="spacing" textLength="46" x="396.5" y="529.9015">Brackets</text><line style="stroke:#A80036;stroke-width:1.5;" x1="354.5" x2="486.5" y1="574.8015" y2="574.8015"/><rect fill="#FEFECE" filter="url(#fhec2vbjfk58j)" height="34.4001" rx="12.5" ry="12.5" style="stroke:#A80036;stroke-width:1.5;" width="37" x="336" y="623.8015"/><text fill="#000000" font-family="sans-serif" font-size="12" lengthAdjust="spacing" textLength="17" x="346" y="645.8016">Kill</text><rect fill="#FEFECE" filter="url(#fhec2vbjfk58j)" height="34.4001" rx="12.5" ry="12.5" style="stroke:#A80036;stroke-width:1.5;" width="41" x="389.5" y="596.3015"/><text fill="#000000" font-family="sans-serif" font-size="12" lengthAdjust="spacing" textLength="21" x="399.5" y="618.3016">End</text><ellipse cx="410" cy="675.7016" fill="#FFFFFF" filter="url(#fhec2vbjfk58j)" rx="10" ry="10" style="stroke:#000000;stroke-width:1.5;"/><line style="stroke:#000000;stroke-width:2.5;" x1="403.8128" x2="416.1872" y1="669.5144" y2="681.8888"/><line style="stroke:#000000;stroke-width:2.5;" x1="416.1872" x2="403.8128" y1="669.5144" y2="681.8888"/><rect fill="#FEFECE" filter="url(#fhec2vbjfk58j)" height="34.4001" rx="12.5" ry="12.5" style="stroke:#A80036;stroke-width:1.5;" width="56" x="458.5" y="596.3015"/><text fill="#000000" font-family="sans-serif" font-size="12" lengthAdjust="spacing" textLength="36" x="468.5" y="618.3016">Detach</text><ellipse cx="486.5" cy="675.7016" fill="#FEFECE" filter="url(#fhec2vbjfk58j)" rx="10" ry="10" style="stroke:#A80036;stroke-width:1.5;"/><path d="M490,671.4516 L490,672.4672 L484.7656,679.2172 L490.0156,679.2172 L490.0156,680.2016 L483.3594,680.2016 L483.3594,679.2172 L488.6094,672.4359 L483.7031,672.4359 L483.7031,671.4516 L490,671.4516 Z " fill="#000000"/><line style="stroke:#000000;stroke-width:2.0;" x1="330" x2="330" y1="12.1" y2="873.3016"/><line style="stroke:#000000;stroke-width:2.0;" x1="576.5" x2="576.5" y1="12.1" y2="873.3016"/><line style="stroke:#A80036;stroke-width:1.5;" x1="62.5" x2="62.5" y1="201.0999" y2="234.2998"/><polygon fill="#A80036" points="58.5,224.2998,62.5,234.2998,66.5,224.2998,62.5,228.2998" style="stroke:#A80036;stroke-width:1.0;"/><line style="stroke:#A80036;stroke-width:1.5;" x1="62.5" x2="62.5" y1="268.6999" y2="328.6999"/><polygon fill="#A80036" points="58.5,318.6999,62.5,328.6999,66.5,318.6999,62.5,322.6999" style="stroke:#A80036;stroke-width:1.0;"/><line style="stroke:#A80036;stroke-width:1.5;" x1="146.5" x2="146.5" y1="201.0999" y2="234.2998"/><polygon fill="#A80036" points="142.5,224.2998,146.5,234.2998,150.5,224.2998,146.5,228.2998" style="stroke:#A80036;stroke-width:1.0;"/><line style="stroke:#A80036;stroke-width:1.5;" x1="146.5" x2="146.5" y1="268.6999" y2="328.6999"/><polygon fill="#A80036" points="142.5,318.6999,146.5,328.6999,150.5,318.6999,146.5,322.6999" style="stroke:#A80036;stroke-width:1.0;"/><line style="stroke:#A80036;stroke-width:1.5;" x1="86.5" x2="114" y1="189.0999" y2="189.0999"/><polygon fill="#A80036" points="104,185.0999,114,189.0999,104,193.0999,108,189.0999" style="stroke:#A80036;stroke-width:1.0;"/><line style="stroke:#A80036;stroke-width:1.5;" x1="241" x2="62.5" y1="90.6998" y2="90.6998"/><line style="stroke:#A80036;stroke-width:1.5;" x1="62.5" x2="62.5" y1="90.6998" y2="177.0999"/><polygon fill="#A80036" points="58.5,167.0999,62.5,177.0999,66.5,167.0999,62.5,171.0999" style="stroke:#A80036;stroke-width:1.0;"/><line style="stroke:#A80036;stroke-width:1.5;" x1="179" x2="231" y1="189.0999" y2="189.0999"/><line style="stroke:#A80036;stroke-width:1.5;" x1="231" x2="231" y1="189.0999" y2="230.6999"/><polygon fill="#A80036" points="227,220.6999,231,230.6999,235,220.6999,231,224.6999" style="stroke:#A80036;stroke-width:1.0;"/><line style="stroke:#A80036;stroke-width:1.5;" x1="231" x2="231" y1="265.1" y2="328.6999"/><polygon fill="#A80036" points="227,318.6999,231,328.6999,235,318.6999,231,322.6999" style="stroke:#A80036;stroke-width:1.0;"/><line style="stroke:#A80036;stroke-width:1.5;" x1="62.5" x2="231" y1="328.6999" y2="328.6999"/><line style="stroke:#A80036;stroke-width:1.5;" x1="147" x2="147" y1="403.7003" y2="445.1008"/><polygon fill="#A80036" points="143,435.1008,147,445.1008,151,435.1008,147,439.1008" style="stroke:#A80036;stroke-width:1.0;"/><line style="stroke:#A80036;stroke-width:1.5;" x1="175.5" x2="256" y1="524.5009" y2="524.5009"/><polygon fill="#A80036" points="252,472.3009,256,462.3009,260,472.3009,256,468.3009" style="stroke:#A80036;stroke-width:1.5;"/><line style="stroke:#A80036;stroke-width:1.5;" x1="256" x2="256" y1="391.7003" y2="524.5009"/><line style="stroke:#A80036;stroke-width:1.5;" x1="256" x2="159" y1="391.7003" y2="391.7003"/><polygon fill="#A80036" points="169,387.7003,159,391.7003,169,395.7003,165,391.7003" style="stroke:#A80036;stroke-width:1.0;"/><line style="stroke:#A80036;stroke-width:1.5;" x1="147" x2="147" y1="479.5009" y2="512.5009"/><polygon fill="#A80036" points="143,502.5009,147,512.5009,151,502.5009,147,506.5009" style="stroke:#A80036;stroke-width:1.0;"/><line style="stroke:#A80036;stroke-width:1.5;" x1="147" x2="147" y1="328.6999" y2="379.7003"/><polygon fill="#A80036" points="143,369.7003,147,379.7003,151,369.7003,147,373.7003" style="stroke:#A80036;stroke-width:1.0;"/><line style="stroke:#A80036;stroke-width:1.5;" x1="97" x2="97" y1="575.0009" y2="595.0009"/><polygon fill="#A80036" points="93,585.0009,97,595.0009,101,585.0009,97,589.0009" style="stroke:#A80036;stroke-width:1.0;"/><line style="stroke:#A80036;stroke-width:1.5;" x1="197" x2="197" y1="575.0009" y2="595.0009"/><polygon fill="#A80036" points="193,585.0009,197,595.0009,201,585.0009,197,589.0009" style="stroke:#A80036;stroke-width:1.0;"/><line style="stroke:#A80036;stroke-width:1.5;" x1="97" x2="97" y1="629.401" y2="661.401"/><line style="stroke:#A80036;stroke-width:1.5;" x1="97" x2="135" y1="661.401" y2="661.401"/><polygon fill="#A80036" points="125,657.401,135,661.401,125,665.401,129,661.401" style="stroke:#A80036;stroke-width:1.0;"/><line style="stroke:#A80036;stroke-width:1.5;" x1="197" x2="197" y1="629.401" y2="661.401"/><line style="stroke:#A80036;stroke-width:1.5;" x1="197" x2="159" y1="661.401" y2="661.401"/><polygon fill="#A80036" points="169,657.401,159,661.401,169,665.401,165,661.401" style="stroke:#A80036;stroke-width:1.0;"/><line style="stroke:#A80036;stroke-width:1.5;" x1="147" x2="147" y1="536.5009" y2="569.0009"/><polygon fill="#A80036" points="143,559.0009,147,569.0009,151,559.0009,147,563.0009" style="stroke:#A80036;stroke-width:1.0;"/><line style="stroke:#A80036;stroke-width:1.5;" x1="119" x2="64.5" y1="717.7016" y2="717.7016"/><line style="stroke:#A80036;stroke-width:1.5;" x1="64.5" x2="64.5" y1="717.7016" y2="752.9015"/><polygon fill="#A80036" points="60.5,742.9015,64.5,752.9015,68.5,742.9015,64.5,746.9015" style="stroke:#A80036;stroke-width:1.0;"/><text fill="#000000" font-family="sans-serif" font-size="11" lengthAdjust="spacing" textLength="30" x="64.5" y="739.7015">Case i</text><line style="stroke:#A80036;stroke-width:1.5;" x1="175" x2="226.5" y1="717.7016" y2="717.7016"/><line style="stroke:#A80036;stroke-width:1.5;" x1="226.5" x2="226.5" y1="717.7016" y2="752.9015"/><polygon fill="#A80036" points="222.5,742.9015,226.5,752.9015,230.5,742.9015,226.5,746.9015" style="stroke:#A80036;stroke-width:1.0;"/><text fill="#000000" font-family="sans-serif" font-size="11" lengthAdjust="spacing" textLength="34" x="226.5" y="739.7015">Case iii</text><line style="stroke:#A80036;stroke-width:1.5;" x1="64.5" x2="64.5" y1="787.3016" y2="819.3016"/><line style="stroke:#A80036;stroke-width:1.5;" x1="64.5" x2="135" y1="819.3016" y2="819.3016"/><polygon fill="#A80036" points="125,815.3016,135,819.3016,125,823.3016,129,819.3016" style="stroke:#A80036;stroke-width:1.0;"/><line style="stroke:#A80036;stroke-width:1.5;" x1="226.5" x2="226.5" y1="787.3016" y2="819.3016"/><line style="stroke:#A80036;stroke-width:1.5;" x1="226.5" x2="159" y1="819.3016" y2="819.3016"/><polygon fill="#A80036" points="169,815.3016,159,819.3016,169,823.3016,165,819.3016" style="stroke:#A80036;stroke-width:1.0;"/><line style="stroke:#A80036;stroke-width:1.5;" x1="147" x2="147" y1="729.7016" y2="737.4349"/><line style="stroke:#A80036;stroke-width:1.5;" x1="147" x2="144" y1="737.4349" y2="737.4349"/><line style="stroke:#A80036;stroke-width:1.5;" x1="144" x2="144" y1="737.4349" y2="752.9015"/><polygon fill="#A80036" points="140,742.9015,144,752.9015,148,742.9015,144,746.9015" style="stroke:#A80036;stroke-width:1.0;"/><text fill="#000000" font-family="sans-serif" font-size="11" lengthAdjust="spacing" textLength="32" x="144" y="737.9682">Case ii</text><line style="stroke:#A80036;stroke-width:1.5;" x1="144" x2="144" y1="787.3016" y2="792.3016"/><line style="stroke:#A80036;stroke-width:1.5;" x1="144" x2="147" y1="792.3016" y2="792.3016"/><line style="stroke:#A80036;stroke-width:1.5;" x1="147" x2="147" y1="792.3016" y2="807.3016"/><polygon fill="#A80036" points="143,797.3016,147,807.3016,151,797.3016,147,801.3016" style="stroke:#A80036;stroke-width:1.0;"/><line style="stroke:#A80036;stroke-width:1.5;" x1="147" x2="147" y1="673.401" y2="705.7016"/><polygon fill="#A80036" points="143,695.7016,147,705.7016,151,695.7016,147,699.7016" style="stroke:#A80036;stroke-width:1.0;"/><line style="stroke:#A80036;stroke-width:1.5;" x1="147" x2="147" y1="831.3016" y2="836.3016"/><line style="stroke:#A80036;stroke-width:1.5;" x1="147" x2="274.5" y1="836.3016" y2="836.3016"/><line style="stroke:#A80036;stroke-width:1.5;" x1="274.5" x2="274.5" y1="836.3016" y2="851.3016"/><polygon fill="#A80036" points="270.5,841.3016,274.5,851.3016,278.5,841.3016,274.5,845.3016" style="stroke:#A80036;stroke-width:1.0;"/><line style="stroke:#A80036;stroke-width:1.5;" x1="274.5" x2="274.5" y1="58.6998" y2="78.6998"/><polygon fill="#A80036" points="270.5,68.6998,274.5,78.6998,278.5,68.6998,274.5,72.6998" style="stroke:#A80036;stroke-width:1.0;"/><line style="stroke:#A80036;stroke-width:1.5;" x1="419.5" x2="419.5" y1="157.0999" y2="193.1001"/><polygon fill="#A80036" points="415.5,183.1001,419.5,193.1001,423.5,183.1001,419.5,187.1001" style="stroke:#A80036;stroke-width:1.0;"/><line style="stroke:#A80036;stroke-width:1.5;" x1="419.5" x2="419.5" y1="227.5002" y2="270.9001"/><polygon fill="#A80036" points="415.5,260.9001,419.5,270.9001,423.5,260.9001,419.5,264.9001" style="stroke:#A80036;stroke-width:1.0;"/><line style="stroke:#A80036;stroke-width:1.5;" x1="419.5" x2="419.5" y1="305.3002" y2="325.3002"/><polygon fill="#A80036" points="415.5,315.3002,419.5,325.3002,423.5,315.3002,419.5,319.3002" style="stroke:#A80036;stroke-width:1.0;"/><line style="stroke:#A80036;stroke-width:1.5;" x1="419.5" x2="419.5" y1="359.7003" y2="390.7007"/><polygon fill="#A80036" points="415.5,380.7007,419.5,390.7007,423.5,380.7007,419.5,384.7007" style="stroke:#A80036;stroke-width:1.0;"/><line style="stroke:#A80036;stroke-width:1.5;" x1="419.5" x2="419.5" y1="425.1008" y2="453.5013"/><polygon fill="#A80036" points="415.5,443.5013,419.5,453.5013,423.5,443.5013,419.5,447.5013" style="stroke:#A80036;stroke-width:1.0;"/><line style="stroke:#A80036;stroke-width:1.5;" x1="419.5" x2="419.5" y1="487.9014" y2="507.9014"/><polygon fill="#A80036" points="415.5,497.9014,419.5,507.9014,423.5,497.9014,419.5,501.9014" style="stroke:#A80036;stroke-width:1.0;"/><line style="stroke:#A80036;stroke-width:1.5;" x1="410" x2="410" y1="630.7016" y2="665.7016"/><polygon fill="#A80036" points="406,655.7016,410,665.7016,414,655.7016,410,659.7016" style="stroke:#A80036;stroke-width:1.0;"/><line style="stroke:#A80036;stroke-width:1.5;" x1="486.5" x2="486.5" y1="630.7016" y2="665.7016"/><polygon fill="#A80036" points="482.5,655.7016,486.5,665.7016,490.5,655.7016,486.5,659.7016" style="stroke:#A80036;stroke-width:1.0;"/><line style="stroke:#A80036;stroke-width:1.5;" x1="354.5" x2="354.5" y1="576.3015" y2="623.8015"/><polygon fill="#A80036" points="350.5,613.8015,354.5,623.8015,358.5,613.8015,354.5,617.8015" style="stroke:#A80036;stroke-width:1.0;"/><line style="stroke:#A80036;stroke-width:1.5;" x1="410" x2="410" y1="576.3015" y2="596.3015"/><polygon fill="#A80036" points="406,586.3015,410,596.3015,414,586.3015,410,590.3015" style="stroke:#A80036;stroke-width:1.0;"/><line style="stroke:#A80036;stroke-width:1.5;" x1="486.5" x2="486.5" y1="576.3015" y2="596.3015"/><polygon fill="#A80036" points="482.5,586.3015,486.5,596.3015,490.5,586.3015,486.5,590.3015" style="stroke:#A80036;stroke-width:1.0;"/><line style="stroke:#A80036;stroke-width:1.5;" x1="419.5" x2="419.5" y1="542.3015" y2="574.8015"/><polygon fill="#A80036" points="415.5,564.8015,419.5,574.8015,423.5,564.8015,419.5,568.8015" style="stroke:#A80036;stroke-width:1.0;"/><line style="stroke:#A80036;stroke-width:1.5;stroke-dasharray:1.0,3.0;" x1="308" x2="419.5" y1="90.6998" y2="90.6998"/><line style="stroke:#A80036;stroke-width:1.5;stroke-dasharray:1.0,3.0;" x1="419.5" x2="419.5" y1="90.6998" y2="122.6998"/><polygon fill="#A80036" points="415.5,112.6998,419.5,122.6998,423.5,112.6998,419.5,116.6998" style="stroke:#A80036;stroke-width:1.0;"/><text fill="#000000" font-family="sans-serif" font-size="18" lengthAdjust="spacing" textLength="93" x="126" y="30.0999">Swimlane 1</text><text fill="#000000" font-family="sans-serif" font-size="18" lengthAdjust="spacing" textLength="93" x="406.75" y="30.0999">Swimlane 2</text><!--MD5=[76e2b10bfd261323ba276c0f9b07cf68]
@startuml
|Swimlane 1|
start

  if (condition) then (one)
  partition "Partition" {
    if (first?) then (yes)
      :Action A;
    elseif (second?) then (yes)
      :Action B;
    else (no)
      :Action C;
    endif
  }
  
  repeat
    :Repeat;
    note right: Note
  repeat while (Again?) is (yes) not (no)

  fork
    :Parallel X;
  fork again
    :Parallel Y;
  end merge
  
  switch (Switch)
  case (Case i)
    :Action i;
  case (Case ii)
    :Action ii;
  case (Case iii)
    :Action iii;
  endswitch

else (two)
  -[dotted]->

  |Swimlane 2|
  :Input<
  :Output>
  floating note right
    Floating note
    - - - -
    Second line
  end note
  
  :Block|
  :Rectangle]
  :Parallel 1/
  :Parallel 2\\
  :Brackets}

  split
    :Kill;
    kill
  split again
    :End;
    end;
  split again
    :Detach;
    (Z)
    detach
  end split
endif

|Swimlane 1|  

stop
@enduml

PlantUML version 1.2021.6(Fri May 14 07:09:51 GMT 2021)
(GPL source distribution)
Java Runtime: OpenJDK Runtime Environment
JVM: OpenJDK 64-Bit Server VM
Default Encoding: UTF-8
Language: en
Country: US
--></g></svg>