<?xml version="1.0" encoding="us-ascii" standalone="no"?><svg xmlns="http://www.w3.org/2000/svg" xmlns:xlink="http://www.w3.org/1999/xlink" contentStyleType="text/css" height="554px" preserveAspectRatio="none" style="width:865px;height:554px;" version="1.1" viewBox="0 0 865 554" width="865px" zoomAndPan="magnify"><defs/><g><rect fill="none" height="552.4633" style="stroke:#FFFFFF;stroke-width:1.0;" width="863.2129" x="0" y="0"/><!--entity user--><g id="elem_user"><ellipse cx="503.84" cy="22" fill="#08427B" rx="16" ry="16" style="stroke:#FFFFFF;stroke-width:1.5;"/><path d="M503.84,42 C507.84,42 510.84,42 514.84,38 C522.84,38 530.84,46 530.84,54 L530.84,58 C530.84,62 526.84,66 522.84,66 L484.84,66 C480.84,66 476.84,62 476.84,58 L476.84,54 C476.84,46 484.84,38 492.84,38 C496.84,42 499.84,42 503.84,42 " fill="#08427B" style="stroke:#FFFFFF;stroke-width:1.5;"/><text fill="#08427B" font-family="sans-serif" font-size="13" lengthAdjust="spacing" textLength="30" x="488.84" y="81.5669">User</text></g><!--entity developer--><g id="elem_developer"><ellipse cx="394.84" cy="165.13" fill="#08427B" rx="16" ry="16" style="stroke:#FFFFFF;stroke-width:1.5;"/><path d="M394.84,185.13 C398.84,185.13 401.84,185.13 405.84,181.13 C413.84,181.13 421.84,189.13 421.84,197.13 L421.84,201.13 C421.84,205.13 417.84,209.13 413.84,209.13 L375.84,209.13 C371.84,209.13 367.84,205.13 367.84,201.13 L367.84,197.13 C367.84,189.13 375.84,181.13 383.84,181.13 C387.84,185.13 390.84,185.13 394.84,185.13 " fill="#08427B" style="stroke:#FFFFFF;stroke-width:1.5;"/><text fill="#08427B" font-family="sans-serif" font-size="13" lengthAdjust="spacing" textLength="65" x="362.34" y="224.6969">Developer</text></g><!--entity appman--><g id="elem_appman"><ellipse cx="242.84" cy="165.13" fill="#08427B" rx="16" ry="16" style="stroke:#FFFFFF;stroke-width:1.5;"/><path d="M242.84,185.13 C246.84,185.13 249.84,185.13 253.84,181.13 C261.84,181.13 269.84,189.13 269.84,197.13 L269.84,201.13 C269.84,205.13 265.84,209.13 261.84,209.13 L223.84,209.13 C219.84,209.13 215.84,205.13 215.84,201.13 L215.84,197.13 C215.84,189.13 223.84,181.13 231.84,181.13 C235.84,185.13 238.84,185.13 242.84,185.13 " fill="#08427B" style="stroke:#FFFFFF;stroke-width:1.5;"/><text fill="#08427B" font-family="sans-serif" font-size="13" lengthAdjust="spacing" textLength="130" x="177.84" y="224.6969">Application Manager</text></g><!--entity dwb--><g id="elem_dwb"><ellipse cx="531.84" cy="165.13" fill="#08427B" rx="16" ry="16" style="stroke:#FFFFFF;stroke-width:1.5;"/><path d="M531.84,185.13 C535.84,185.13 538.84,185.13 542.84,181.13 C550.84,181.13 558.84,189.13 558.84,197.13 L558.84,201.13 C558.84,205.13 554.84,209.13 550.84,209.13 L512.84,209.13 C508.84,209.13 504.84,205.13 504.84,201.13 L504.84,197.13 C504.84,189.13 512.84,181.13 520.84,181.13 C524.84,185.13 527.84,185.13 531.84,185.13 " fill="#08427B" style="stroke:#FFFFFF;stroke-width:1.5;"/><text fill="#08427B" font-family="sans-serif" font-size="13" lengthAdjust="spacing" textLength="101" x="481.34" y="224.6969">DataWorkbench</text></g><g id="elem_hfeedback"><ellipse cx="124.8368" cy="521.3774" fill="#1168BD" rx="118.8368" ry="26.1674" style="stroke:#FFFFFF;stroke-width:0.5;"/><text fill="#FFFFFF" font-family="sans-serif" font-size="13" lengthAdjust="spacing" textLength="195" x="27.3368" y="523.8778">Get human-readable feedback</text></g><g id="elem_mfeedback"><ellipse cx="401.8383" cy="521.3817" fill="#1168BD" rx="123.4083" ry="27.0817" style="stroke:#FFFFFF;stroke-width:0.5;"/><text fill="#FFFFFF" font-family="sans-serif" font-size="13" lengthAdjust="spacing" textLength="205" x="299.3383" y="523.8821">Get machine-readable feedback</text></g><g id="elem_api"><ellipse cx="262.8422" cy="416.0944" fill="#1168BD" rx="74.0222" ry="17.2044" style="stroke:#FFFFFF;stroke-width:0.5;"/><text fill="#FFFFFF" font-family="sans-serif" font-size="13" lengthAdjust="spacing" textLength="89" x="218.3422" y="418.5949">Access an API</text></g><g id="elem_run"><ellipse cx="433.8352" cy="314.331" fill="#1168BD" rx="105.8052" ry="23.561" style="stroke:#FFFFFF;stroke-width:0.5;"/><text fill="#FFFFFF" font-family="sans-serif" font-size="13" lengthAdjust="spacing" textLength="166" x="350.8352" y="316.8315">Run the validator software</text></g><g id="elem_ws"><ellipse cx="766.8365" cy="188.6953" fill="#1168BD" rx="92.3765" ry="20.8753" style="stroke:#FFFFFF;stroke-width:0.5;"/><text fill="#FFFFFF" font-family="sans-serif" font-size="13" lengthAdjust="spacing" textLength="135" x="699.3365" y="191.1958">Access a web service</text></g><!--reverse link user to appman--><g id="link_user_appman"><path d="M435.14,83.71 C396.57,104.57 348.64,130.49 310.28,151.23 " fill="none" id="user-backto-appman" style="stroke:#E91E63;stroke-width:1.0;"/><polygon fill="none" points="431.59,77.13,452.51,73.78,438.25,89.45,431.59,77.13" style="stroke:#E91E63;stroke-width:1.0;"/></g><!--reverse link appman to developer--><g id="link_appman_developer"><path d="M331.17,188.7 C335.65,188.7 340.12,188.7 344.6,188.7 " fill="none" id="appman-backto-developer" style="stroke:#E91E63;stroke-width:1.0;"/><polygon fill="none" points="331.23,195.7,311.23,188.7,331.23,181.7,331.23,195.7" style="stroke:#E91E63;stroke-width:1.0;"/></g><!--reverse link developer to dwb--><g id="link_developer_dwb"><path d="M466.04,188.7 C470.36,188.7 474.69,188.7 479.01,188.7 " fill="none" id="developer-backto-dwb" style="stroke:#E91E63;stroke-width:1.0;"/><polygon fill="none" points="466.14,195.7,446.14,188.7,466.14,181.7,466.14,195.7" style="stroke:#E91E63;stroke-width:1.0;"/></g><!--reverse link api to mfeedback--><g id="link_api_mfeedback"><path d="M301.09,445.52 C321.94,461.01 347.51,480.01 367.68,495 " fill="none" id="api-backto-mfeedback" style="stroke:#E91E63;stroke-width:1.0;"/><polygon fill="none" points="297.13,450.55,285.25,433,305.48,439.31,297.13,450.55" style="stroke:#E91E63;stroke-width:1.0;"/></g><!--reverse link api to hfeedback--><g id="link_api_hfeedback"><path d="M224.92,445.47 C203.85,461.24 177.89,480.67 157.69,495.79 " fill="none" id="api-backto-hfeedback" style="stroke:#E91E63;stroke-width:1.0;"/><polygon fill="none" points="220.37,439.38,240.58,433,228.76,450.59,220.37,439.38" style="stroke:#E91E63;stroke-width:1.0;"/></g><!--reverse link run to api--><g id="link_run_api"><path d="M379.37,347.1 C349.32,364.63 313.36,385.62 289.41,399.59 " fill="none" id="run-backto-api" style="stroke:#E91E63;stroke-width:1.0;"/><polygon fill="none" points="375.35,340.76,396.15,336.73,382.41,352.85,375.35,340.76" style="stroke:#E91E63;stroke-width:1.0;"/></g><!--reverse link ws to run--><g id="link_ws_run"><path d="M700.58,214.3 C637.9,237.57 545.04,272.04 487.05,293.57 " fill="none" id="ws-backto-run" style="stroke:#E91E63;stroke-width:1.0;"/><polygon fill="none" points="698,207.42,719.18,207.02,702.87,220.54,698,207.42" style="stroke:#E91E63;stroke-width:1.0;"/></g><!--link user to ws--><g id="link_user_ws"><path d="M554.23,73.61 C604.5,100.59 680.71,141.48 726.92,166.28 " fill="none" id="user-to-ws" style="stroke:#E91E63;stroke-width:1.0;"/><polygon fill="#E91E63" points="731.13,169.08,725.0856,161.3041,726.7226,166.7189,721.3078,168.3559,731.13,169.08" style="stroke:#E91E63;stroke-width:1.0;"/></g><!--link appman to api--><g id="link_appman_api"><path d="M246.44,230.26 C250.66,277.9 257.52,355.21 260.87,392.95 " fill="none" id="appman-to-api" style="stroke:#E91E63;stroke-width:1.0;"/><polygon fill="#E91E63" points="261.38,397.66,264.568,388.3414,260.9376,392.6796,256.5994,389.0492,261.38,397.66" style="stroke:#E91E63;stroke-width:1.0;"/><text fill="#E91E63" font-family="sans-serif" font-size="13" lengthAdjust="spacing" textLength="44" x="259.84" y="318.8969">access</text></g><!--link developer to run--><g id="link_developer_run"><path d="M407.61,230.18 C413.28,248.15 419.81,268.86 424.94,285.11 " fill="none" id="developer-to-run" style="stroke:#E91E63;stroke-width:1.0;"/><polygon fill="#E91E63" points="426.62,289.44,427.7368,279.6547,425.1205,284.6701,420.105,282.0539,426.62,289.44" style="stroke:#E91E63;stroke-width:1.0;"/></g><!--link dwb to ws--><g id="link_dwb_ws"><path d="M584.58,188.7 C609.31,188.7 639.62,188.7 668.37,188.7 " fill="none" id="dwb-to-ws" style="stroke:#E91E63;stroke-width:1.0;"/><polygon fill="#E91E63" points="673.1,188.7,664.1,184.7,668.1,188.7,664.1,192.7,673.1,188.7" style="stroke:#E91E63;stroke-width:1.0;"/><text fill="#E91E63" font-family="sans-serif" font-size="13" lengthAdjust="spacing" textLength="50" x="604.4" y="179.7669">operate</text></g><!--SRC=[lHbhKzj8yhj-nU1DbN6LIR1n2B0XMyIO95M4P36vhNnYnrBRdaNIw6P666vl__jrZoHxzEAncxga4jdJFVr-obqsDVUXY1TCWp7ur6mk5ViQyjXy-tpE0i4NYaVQwx8f05iQanozUfKGE8t2brgcoWUyiO2NCHXxDv1-6a5ik14ondjNaYqGn5aej65opXAfjPY5mFIDY1EEvDVC-qobyH4hwBCT_B18-GAG3fBs5N03I6ejtrmWdPKmI_P7YjH_NvC40qh_xk6zyPVpBvTJ_73yn3zqQG4nA1uoNuPIeKsKZ9XSnKoZjK0l0OotzI8tplMC-pSB9TCukBRux9XrZEAnHadG41qNLQe0r0Rjf_byxi8tW8DT-aimhfHSEH0u7C3-7a7GSJSEO6zqU73wlaFoH_m6xHH4CXRaXa8FVij5oCdsv2a8WHobaPBFKy9pYF7TqTwXtt5W9N0kjuWIgGmwmm45UyFvi09jkXjB0yxfSF06uCqQq7J3YCGv70tuVBHVd3VXhxYACQnSsmqE1eEH2wlVG_F5Ce3hGJzx3XcF0qP2CODcZRDe68ziC209Ap7XNqTSkDHs3qR3DxDE0HzMuOF1_i4iSE0ylHis-3EtIENsuU6XbJNLJPuc_qgpX9ANGxaGVfbEsKQ8Gu6SL71AqM6ZzLPG69UnrjxnlAr4IH-2L07BcTh4sNvnozNneESnzY8tdZtgivfepKTLf_MOjmLniEPMvfofud0UDN6kAjnyL4s2FdhWxEniV7RMwJqaGs6gn_IlcxJjq0tsX_NFe_8nrhNWxUUPW4zwF879y6bCXkrCDYYR97YCiNcQTgNKULGtR7HNtyydxEFa_ElaR_GDmv2liCqlQqnPVYGyn1u7HuZpWgJ19gT4nDKzjR2yp_IPkK-4pyFmdcrw2jr0cs0reiVm29Czw8REDLswPnjCd_4G6s2COjn2XPQCYPICaPA1EzD0W-Ipi3xJQP9azGD5nTjhtJHfCkWn1Oiqv8fj1p3dQMXwU3piiHWxCC9kiGb3mBQnvq38P6eqnZEXxFKAQ5cwKG_7XCNIb4zVztAzy767rAHCh8P4QR_7NhvyMGuDDmIEILlIgBysOsO1CkPnvoVVzpkPFV3B_lv-Xu9eIynPTlkuCxGdZBrVIpIs7hL4CuYLBJyb7lRqJCQcYZb5fu14IqCTkWMX1eVlNXlVDOSItpMFVyXtrCvr-2njg_gy_e5s_0WSCHq8khI1vNuRompz1t0i06rEgaZqvbd6VS2bLKqFVhIcBOGitt_gnaAcngXynAw5674Wvbv6TIh-0somLo_a7oONaykJSpQTN5rzklZml5g-zM8cW_lhEJAudlD8O5t4gKlZLB-ZGGcS4xiCkByivYlcyzYMVs6qNHL8j0iiW_sraFadQbW_qpn9bHneibnvtcONggdSjcOuTqupb9BbcrOEvyf7DBkY1I97t-mIQBeD6iwLqb_Ym8l3hqh18Q2NF90hMXtdd8B28Otpyae9R7Tn3VOLTQOxGvV99IdbIuKx5tjjMt2s3-Ac5ubOH6c4hJIWNeesjgkDXd-d4FjGBAZONvKHlaXmsT0C6yGDIgwekU2cY17XI80Kno7N-ZTBSR2xwnh_DEjYx4-l5B6uqsQHa1c8hPtBQb5I12Lv6Lsh8XxYqHLsqnFiR74MAlWVAEylb_C9RNcMRv4vcxMlB8mBA96ue1M5A9HdenvXTTctwOIDJwQJPsM18vzla7bEtPahXrHukkopNJW99pT_AF00vuZno6CiimPVWSP0AWlzJOFFDJYKXwxSRkJuDtoH8xgZVQxVoVZgqxy-NNt_-_hXj6tk6mMnAc24vHweJSm8dwppjGdwdXTfMTrgAb6GIu49ZPaNPCAu6rJDA1ZsTjPiDii6SxeI4UP2Rh_oMjA2UYLCs8Y_dvjyEldrs-HY_BoGwjf8Ei8K1d8-6vFtYpJcCtaBDGMpl6u8FXe0roLbj5jMuprL5Pgmw_VsAXgFCRkK39-0EObDEKZAY5qMSCDdf98zpjw8GHBAUvlvnVkqlbKV6nQz43DBeUsRBBnE-9ojfBhXjjJRWsgrqsx5AlZLHHhKj0n3yEtqtcZB4lAlAQJmEDeq5-rSp05RI5CUlscvSWeXlsyAhs7RXGphAH6St_X0-L1FejSjw9Smnuc435tBfWCgSrb_lLeA_oO6hTcWcSnxN59g14QbMCLnnKRBazFcEHc6oAUJh-TVld-UN5mzSu6j9AVl92VraFoe5I4lqirmjZqNTx-G7OhKpF2cbV2cbxPPGhR2ipHi1TlWRO6ITVASQSROYEaapCEeRWLVGAbKjNKpt7sBglrGVfrW-PjZNtsSubX6YOoVnFnCX4zek6EkWiUnfXWlwxRy8BbGfa5ZNfHbevVtZtQp2sJKEWduI_1lilS8zCfWyoR1bHfFssJkCcmwOAsEnTSo-CMLK8RhAlI0Y1_XZYyA5p_GmZ_HB8ZCe8vPRJvVPdz0IoXWRJanHebPQg1bLkowGqe5u4uthVFb9JBdyIA45friVGYoeG_7xm1tnQEcws_VplByV_UkJcg_5c3SmFzPvwxjm3jP2puYZNX35-zZvuPDmxVllB2Jey-DJBB6ZcF0VJIJ8LAqHAgTl8_h8jsPGOZJlp0_PuZqyr5WvpeU5ZypTFfiHVKqfiqn49eMf5Je9TurAy1L2xbHxKDhv8WCPocbi4jcWkG_zDbV1k9D2QFzcwMQG8GMmyf5ZRX1cjjO_29DiWOIjDrToK3PT5FeZt9lR9HlfEmUJCzxQpts3bserwqy0_zfT_t0dM4gBmkQfcd6_lBetzjNEM7FRXxqKmXEJvfrC0vL9pyCu1QDc-IGq-9R0UP94g6f27QI9A7mirUtdtcCLMr3P3NBhgEalw7cCrHYsV4yo_7jVtTsSZfUJWwF5DMVdGrxRoE80rtDB17R9fTpW83AbMNr0GnRfaXiHm4FiX_jSdXdVIMgNOculyGvxA5BF16PlhvFKmoAU_BrqmQiqimSbwcDANRBGu4UeZbKpisAAzZWhdI94WRU37siReMFIDusSkfbvjbUIzeh7I-TOsHS71E6jxtInNS2vTRUsNd72E8LjgRlX7_4EjpAWPmtjju9v2ecb8m4EJ8dWFY4WTMbypy0]--></g></svg>