<?xml version="1.0" encoding="us-ascii" standalone="no"?><svg xmlns="http://www.w3.org/2000/svg" xmlns:xlink="http://www.w3.org/1999/xlink" contentStyleType="text/css" height="1075px" preserveAspectRatio="none" style="width:695px;height:1075px;" version="1.1" viewBox="0 0 695 1075" width="695px" zoomAndPan="magnify"><defs/><g><rect fill="none" height="1073.73" style="stroke:none;stroke-width:1.0;" width="693.4262" x="0" y="0"/><!--cluster cloud--><g id="cluster_cloud"><path d="M35.0979,178.6508 C46.2801,159.0963 58.6181,156.6452 74.1042,174.1168 C88.6387,157.3373 99.3439,160.5749 110.2303,177.973 C120.5849,157.8974 134.5348,158.5392 148.6347,173.9158 C162.2078,158.4601 176.2645,158.4572 188.4335,175.6285 C199.5473,160.8902 210.1156,159.3012 222.6829,173.9336 C237.2411,158.2583 250.3458,159.3946 262.5406,176.7825 C274.1191,158.6214 286.7629,156.9251 299.324,175.8069 C310.7657,155.4956 328.4552,158.1869 341.0144,174.536 C350.3755,155.7486 368.6601,153.5805 379.9218,172.579 C392.6252,152.4439 404.4951,152.6069 417.243,172.5376 C432.9238,154.1911 443.2496,160.975 453.9814,177.719 C465.2888,157.3486 482.4475,158.5582 492.9996,178.4509 C499.907,157.7876 517.1794,157.7512 530.3383,171.7088 C545.4763,155.6709 561.1551,156.9866 569.4262,178.8 C572.8033,178.9185 574.2164,180.9951 572.3576,184.0416 C589.7686,193.5118 590.0874,209.0939 574.8253,220.76 C592.2537,230.0129 593.2328,240.4865 578.4038,253.288 C594.619,264.3182 598.4,280.3006 578.796,291.6967 C597.3733,301.2647 593.3538,319.2683 577.9367,328.0323 C592.2713,337.8418 595.9003,350.8976 578.3386,361.0949 C593.737,368.3975 597.8451,385.207 581.4353,395.3825 C598.6978,409.1261 601.8549,421.1964 581.5231,435.0232 C596.2612,446.0595 595.952,463.1514 577.24,470.1037 C595.8531,479.6439 598.9245,495.6387 579.96,507.8843 C595.2142,518.449 599.1847,534.254 579.9115,544.7733 C595.7876,553.978 593.7974,569.2488 579.1459,577.7445 C597.0394,587.719 592.2341,604.083 577.1367,612.1297 C594.3926,625.9379 591.4484,638.5716 571.7617,646.6231 C592.6564,662.8884 582.1346,681.7899 562.4262,689.14 C565.0607,686.9396 566.6897,687.953 567.5982,690.8807 C558.1049,714.3911 536.3894,710.4617 524.6846,693.2089 C515.1167,708.7186 500.835,707.6032 490.9415,693.581 C482.4935,708.9564 466.573,712.7451 455.7878,696.1509 C441.6123,714.9737 427.8418,715.2392 413.3442,696.515 C400.942,714.3315 388.0634,713.311 377.0289,695.135 C366.3915,711.652 346.9815,711.0829 337.0161,694.3269 C328.6063,715.3027 309.6162,714.0041 298.1258,697.5257 C284.9206,714.2721 270.8921,712.8463 260.405,694.596 C251.4225,713.7213 236.6768,713.1798 225.3433,696.9258 C216.0356,714.7012 198.1813,715.5748 188.3956,697.4173 C176.7767,713.9438 158.472,716.187 149.2406,694.9425 C139.1942,714.7669 122.0756,713.416 111.6022,695.3669 C100.6463,710.673 84.9167,707.5149 77.9891,691.0985 C56.5607,716.1236 38.5373,710.7434 26.4262,682.14 C30.4391,681.6459 31.9562,683.4951 31.4127,687.3565 C12.6952,677.4508 13.7729,659.5166 29.0427,647.5856 C13.3094,639.0443 11.9594,624.6454 26.3969,613.7452 C6.2483,603.443 6,587.1203 25.8575,576.2427 C10.7409,562.3847 10.3286,550.0718 29.1296,539.2107 C10.7486,527.7619 10.663,515.7182 28.1744,503.3143 C11.8511,492.8573 9.9931,482.3142 27.3576,471.0055 C10.0048,459.2673 11.6157,446.9742 28.5378,436.4051 C6.6205,423.6522 6.5911,410.4258 26.0436,395.1706 C13.4684,386.5127 9.0912,375.283 24.8532,365.4886 C8.6944,352.1671 10.1703,333.2064 29.9111,324.2925 C12.0782,314.2763 11.4269,301.9221 26.1124,288.4587 C7.9611,276.8947 8.318,261.5504 27.1334,250.994 C10.0629,240.4764 13.9919,226.9719 28.2497,217.4983 C7.4551,201.3691 10.712,183.0007 33.4262,171.8 C37.3053,173.2121 37.435,175.7219 35.0979,178.6508 " fill="#FFFFFF" style="stroke:#E18114;stroke-width:1.0;"/><text fill="#A0439C" font-family="sans-serif" font-size="14" font-weight="bold" lengthAdjust="spacing" textLength="43" x="276.4262" y="191.7951">cloud</text></g><!--cluster node--><g id="cluster_node"><polygon fill="#FFFFFF" points="197.4262,238.8,207.4262,228.8,561.4262,228.8,561.4262,365.25,551.4262,375.25,197.4262,375.25,197.4262,238.8" style="stroke:#A0439C;stroke-width:1.0;"/><line style="stroke:#A0439C;stroke-width:1.0;" x1="551.4262" x2="561.4262" y1="238.8" y2="228.8"/><line style="stroke:#A0439C;stroke-width:1.0;" x1="197.4262" x2="551.4262" y1="238.8" y2="238.8"/><line style="stroke:#A0439C;stroke-width:1.0;" x1="551.4262" x2="551.4262" y1="238.8" y2="375.25"/><text fill="#A0439C" font-family="sans-serif" font-size="14" font-weight="bold" lengthAdjust="spacing" textLength="40" x="355.4262" y="256.7951">node</text></g><!--cluster folder--><g id="cluster_folder"><path d="M331.9262,748.49 L383.9262,748.49 A3.75,3.75 0 0 1 386.4262,750.99 L393.4262,774.7869 L470.9262,774.7869 A2.5,2.5 0 0 1 473.4262,777.2869 L473.4262,1059.23 A2.5,2.5 0 0 1 470.9262,1061.73 L331.9262,1061.73 A2.5,2.5 0 0 1 329.4262,1059.23 L329.4262,750.99 A2.5,2.5 0 0 1 331.9262,748.49 " fill="#FFFFFF" style="stroke:#E18114;stroke-width:1.5;"/><line style="stroke:#E18114;stroke-width:1.5;" x1="329.4262" x2="393.4262" y1="774.7869" y2="774.7869"/><text fill="#A0439C" font-family="sans-serif" font-size="14" font-weight="bold" lengthAdjust="spacing" textLength="47" x="335.4262" y="765.4851">folder</text></g><!--cluster frame--><g id="cluster_frame"><rect fill="#FFFFFF" height="340.59" rx="2.5" ry="2.5" style="stroke:#E18114;stroke-width:1.0;" width="184" x="505.4262" y="729.14"/><path d="M565.4262,729.14 L565.4262,742.4369 L555.4262,752.4369 L505.4262,752.4369 " fill="none" style="stroke:#E18114;stroke-width:1.0;"/><text fill="#A0439C" font-family="sans-serif" font-size="14" font-weight="bold" lengthAdjust="spacing" textLength="46" x="510.4262" y="745.1351">frame</text></g><!--entity agent--><g id="elem_agent"><rect fill="#1168BD" height="40.2969" rx="2.5" ry="2.5" style="stroke:#1168BD;stroke-width:0.5;" width="64" x="125.4262" y="208.65"/><text fill="#FFFFFF" font-family="sans-serif" font-size="14" lengthAdjust="spacing" textLength="40" x="137.4262" y="233.6451">agent</text></g><!--entity boundary--><g id="elem_boundary"><path d="M96.9262,632.84 L96.9262,656.84 M96.9262,644.84 L113.9262,644.84 " fill="none" style="stroke:#08427B;stroke-width:0.5;"/><ellipse cx="125.9262" cy="644.84" fill="#FFFFFF" rx="12" ry="12" style="stroke:#08427B;stroke-width:0.5;"/><text fill="#08427B" font-family="sans-serif" font-size="14" lengthAdjust="spacing" textLength="65" x="84.9262" y="675.8351">boundary</text></g><!--entity card--><g id="elem_card"><rect fill="#1168BD" height="26.2969" rx="2.5" ry="2.5" style="stroke:#1168BD;stroke-width:0.5;" width="54" x="429.4262" y="535.54"/><text fill="#FFFFFF" font-family="sans-serif" font-size="14" lengthAdjust="spacing" textLength="30" x="441.4262" y="553.5351">card</text></g><!--entity collections--><g id="elem_collections"><rect fill="#08427B" height="36.2969" rx="2.5" ry="2.5" style="stroke:#08427B;stroke-width:0.5;" width="94" x="411.4262" y="427.75"/><rect fill="#08427B" height="36.2969" rx="2.5" ry="2.5" style="stroke:#08427B;stroke-width:0.5;" width="94" x="407.4262" y="423.75"/><text fill="#FFFFFF" font-family="sans-serif" font-size="14" lengthAdjust="spacing" textLength="74" x="417.4262" y="446.7451">collections</text></g><!--entity control--><g id="elem_control"><ellipse cx="212.4262" cy="644.84" fill="#FFFFFF" rx="12" ry="12" style="stroke:#08427B;stroke-width:0.5;"/><polygon fill="#08427B" points="208.4262,632.84,214.4262,627.84,212.4262,632.84,214.4262,637.84,208.4262,632.84" style="stroke:#08427B;stroke-width:1.0;"/><text fill="#08427B" font-family="sans-serif" font-size="14" lengthAdjust="spacing" textLength="48" x="188.4262" y="675.8351">control</text></g><!--entity database--><g id="elem_database"><path d="M284.4262,429.25 C284.4262,419.25 328.4262,419.25 328.4262,419.25 C328.4262,419.25 372.4262,419.25 372.4262,429.25 L372.4262,458.5469 C372.4262,468.5469 328.4262,468.5469 328.4262,468.5469 C328.4262,468.5469 284.4262,468.5469 284.4262,458.5469 L284.4262,429.25 " fill="#08427B" style="stroke:#FFFFFF;stroke-width:0.5;"/><path d="M284.4262,429.25 C284.4262,439.25 328.4262,439.25 328.4262,439.25 C328.4262,439.25 372.4262,439.25 372.4262,429.25 " fill="none" style="stroke:#FFFFFF;stroke-width:0.5;"/><text fill="#FFFFFF" font-family="sans-serif" font-size="14" lengthAdjust="spacing" textLength="64" x="296.4262" y="458.2451">database</text></g><!--entity entity--><g id="elem_entity"><ellipse cx="294.4262" cy="644.84" fill="#FFFFFF" rx="12" ry="12" style="stroke:#08427B;stroke-width:0.5;"/><line style="stroke:#08427B;stroke-width:0.5;" x1="282.4262" x2="306.4262" y1="658.84" y2="658.84"/><text fill="#08427B" font-family="sans-serif" font-size="14" lengthAdjust="spacing" textLength="38" x="275.4262" y="675.8351">entity</text></g><!--entity label--><g id="elem_label"><text fill="#808080" font-family="sans-serif" font-size="14" lengthAdjust="spacing" textLength="32" x="46.4262" y="233.6451">label</text></g><!--entity queue--><g id="elem_queue"><path d="M183.9262,428.75 L242.9262,428.75 C247.9262,428.75 247.9262,443.8984 247.9262,443.8984 C247.9262,443.8984 247.9262,459.0469 242.9262,459.0469 L183.9262,459.0469 C178.9262,459.0469 178.9262,443.8984 178.9262,443.8984 C178.9262,443.8984 178.9262,428.75 183.9262,428.75 " fill="#08427B" style="stroke:#08427B;stroke-width:0.5;"/><path d="M242.9262,428.75 C237.9262,428.75 237.9262,443.8984 237.9262,443.8984 C237.9262,459.0469 242.9262,459.0469 242.9262,459.0469 " fill="none" style="stroke:#08427B;stroke-width:0.5;"/><text fill="#FFFFFF" font-family="sans-serif" font-size="14" lengthAdjust="spacing" textLength="45" x="185.9262" y="448.7451">queue</text></g><!--entity stack--><g id="elem_stack"><rect fill="#1168BD" height="40.2969" rx="2.5" ry="2.5" style="stroke:none;stroke-width:0.5;" width="61" x="181.9262" y="528.54"/><path d="M166.9262,528.54 L179.4262,528.54 A2.5,2.5 0 0 1 181.9262,531.04 L181.9262,566.3369 A2.5,2.5 0 0 0 184.4262,568.8369 L240.4262,568.8369 A2.5,2.5 0 0 0 242.9262,566.3369 L242.9262,531.04 A2.5,2.5 0 0 1 245.4262,528.54 L257.9262,528.54 " fill="none" style="stroke:#1168BD;stroke-width:0.5;"/><text fill="#FFFFFF" font-family="sans-serif" font-size="14" lengthAdjust="spacing" textLength="37" x="193.9262" y="553.5351">stack</text></g><!--entity storage--><g id="elem_storage"><rect fill="#1168BD" height="40.2969" rx="35" ry="35" style="stroke:#1168BD;stroke-width:0.5;" width="77" x="292.9262" y="528.54"/><text fill="#FFFFFF" font-family="sans-serif" font-size="14" lengthAdjust="spacing" textLength="53" x="304.9262" y="553.5351">storage</text></g><text fill="#E18114" font-family="sans-serif" font-size="14" lengthAdjust="spacing" textLength="37" x="232.9262" y="205.4982">port1</text><rect fill="#FFFFFF" height="12" style="stroke:#E18114;stroke-width:1.5;" width="12" x="245.4262" y="222.8"/><text fill="#E18114" font-family="sans-serif" font-size="14" lengthAdjust="spacing" textLength="37" x="321.9262" y="205.4982">port2</text><rect fill="#FFFFFF" height="12" style="stroke:#E18114;stroke-width:1.5;" width="12" x="334.4262" y="222.8"/><!--entity component--><g id="elem_component"><rect fill="#1168BD" height="50.2969" rx="2.5" ry="2.5" style="stroke:#1168BD;stroke-width:0.5;" width="124" x="266.4262" y="308.95"/><rect fill="#1168BD" height="10" style="stroke:#1168BD;stroke-width:0.5;" width="15" x="370.4262" y="313.95"/><rect fill="#1168BD" height="2" style="stroke:#1168BD;stroke-width:0.5;" width="4" x="368.4262" y="315.95"/><rect fill="#1168BD" height="2" style="stroke:#1168BD;stroke-width:0.5;" width="4" x="368.4262" y="319.95"/><text fill="#FFFFFF" font-family="sans-serif" font-size="14" lengthAdjust="spacing" textLength="80" x="283.4262" y="343.9451">component</text></g><!--entity interface--><g id="elem_interface"><ellipse cx="222.4262" cy="334.1" fill="#FFFFFF" rx="8" ry="8" style="stroke:#E18114;stroke-width:0.5;"/><text fill="#E18114" font-family="sans-serif" font-size="14" lengthAdjust="spacing" textLength="60" x="192.4262" y="366.0951">interface</text></g><!--entity package--><g id="elem_package"><path d="M347.9262,787.49 L430.9262,787.49 A3.75,3.75 0 0 1 433.4262,789.99 L440.4262,813.7869 L454.9262,813.7869 A2.5,2.5 0 0 1 457.4262,816.2869 L457.4262,828.2869 A2.5,2.5 0 0 1 454.9262,830.7869 L347.9262,830.7869 A2.5,2.5 0 0 1 345.4262,828.2869 L345.4262,789.99 A2.5,2.5 0 0 1 347.9262,787.49 " fill="#FFFFFF" style="stroke:#A0439C;stroke-width:0.5;"/><line style="stroke:#A0439C;stroke-width:0.5;" x1="345.4262" x2="440.4262" y1="813.7869" y2="813.7869"/><text fill="#A0439C" font-family="sans-serif" font-size="14" font-weight="bold" lengthAdjust="spacing" textLength="66" x="357.4262" y="805.4851">package</text></g><!--entity artifact--><g id="elem_artifact"><rect fill="#1168BD" height="43.2969" rx="2.5" ry="2.5" style="stroke:#1168BD;stroke-width:0.5;" width="80" x="361.4262" y="902.14"/><polygon fill="#1168BD" points="424.4262,907.14,424.4262,921.14,436.4262,921.14,436.4262,913.14,430.4262,907.14,424.4262,907.14" style="stroke:#1168BD;stroke-width:0.5;"/><line style="stroke:#1168BD;stroke-width:0.5;" x1="430.4262" x2="430.4262" y1="907.14" y2="913.14"/><line style="stroke:#1168BD;stroke-width:0.5;" x1="436.4262" x2="430.4262" y1="913.14" y2="913.14"/><text fill="#FFFFFF" font-family="sans-serif" font-size="14" lengthAdjust="spacing" textLength="46" x="373.4262" y="930.1351">artifact</text></g><!--entity file--><g id="elem_file"><path d="M379.9262,1007.93 L379.9262,1043.2269 A2.5,2.5 0 0 0 382.4262,1045.7269 L420.4262,1045.7269 A2.5,2.5 0 0 0 422.9262,1043.2269 L422.9262,1015.43 L412.9262,1005.43 L382.4262,1005.43 A2.5,2.5 0 0 0 379.9262,1007.93 " fill="#1168BD" style="stroke:#1168BD;stroke-width:0.5;"/><path d="M412.9262,1005.43 L412.9262,1012.93 A2.5,2.5 0 0 0 415.4262,1015.43 L422.9262,1015.43 " fill="#1168BD" style="stroke:#1168BD;stroke-width:0.5;"/><text fill="#FFFFFF" font-family="sans-serif" font-size="14" lengthAdjust="spacing" textLength="19" x="391.9262" y="1030.4251">file</text></g><!--entity circle--><g id="elem_circle"><ellipse cx="601.4262" cy="809.14" fill="#FFFFFF" rx="8" ry="8" style="stroke:#E18114;stroke-width:0.5;"/><text fill="#E18114" font-family="sans-serif" font-size="14" lengthAdjust="spacing" textLength="36" x="583.4262" y="841.1351">circle</text></g><!--entity hexagon--><g id="elem_hexagon"><polygon fill="#E18114" points="665.4262,923.78,633.4262,908.64,569.4262,908.64,537.4262,923.78,569.4262,938.93,633.4262,938.93,665.4262,923.78" style="stroke:#E18114;stroke-width:0.5;"/><text fill="#FFFFFF" font-family="sans-serif" font-size="14" lengthAdjust="spacing" textLength="60" x="571.4262" y="928.6351">hexagon</text></g><!--entity rectangle--><g id="elem_rectangle"><rect fill="#E18114" height="40.2969" rx="2.5" ry="2.5" style="stroke:#E18114;stroke-width:0.5;" width="89" x="556.9262" y="1005.43"/><text fill="#FFFFFF" font-family="sans-serif" font-size="14" lengthAdjust="spacing" textLength="65" x="568.9262" y="1030.4251">rectangle</text></g><!--entity actor--><g id="elem_actor"><ellipse cx="160.4262" cy="22" fill="#08427B" rx="16" ry="16" style="stroke:#08427B;stroke-width:0.5;"/><path d="M160.4262,42 C164.4262,42 167.4262,42 171.4262,38 C179.4262,38 187.4262,46 187.4262,54 L187.4262,58 C187.4262,62 183.4262,66 179.4262,66 L141.4262,66 C137.4262,66 133.4262,62 133.4262,58 L133.4262,54 C133.4262,46 141.4262,38 149.4262,38 C153.4262,42 156.4262,42 160.4262,42 " fill="#08427B" style="stroke:#08427B;stroke-width:0.5;"/><text fill="#08427B" font-family="sans-serif" font-size="14" lengthAdjust="spacing" textLength="35" x="142.9262" y="81.4951">actor</text></g><g id="elem_usecase"><ellipse cx="279.4293" cy="46.1521" fill="#1168BD" rx="56.033" ry="17.3521" style="stroke:#1168BD;stroke-width:0.5;"/><text fill="#FFFFFF" font-family="sans-serif" font-size="14" lengthAdjust="spacing" textLength="59" x="249.9293" y="48.9987">usecase</text></g><!--link actor to usecase--><g id="link_actor_usecase"><path d="M188.3162,46.15 C199.9462,46.15 211.5662,46.15 223.1962,46.15 " fill="none" id="actor-usecase" style="stroke:#E91E63;stroke-width:1.0;"/></g><!--link component to interface--><g id="link_component_interface"><path d="M265.9762,334.1 C254.4962,334.1 243.0162,334.1 231.5362,334.1 " fill="none" id="component-interface" style="stroke:#E91E63;stroke-width:1.0;"/></g><!--link stack to boundary--><g id="link_stack_boundary"><path d="M194.5562,569.31 C179.2962,586.07 157.2262,610.29 140.6062,628.54 " fill="none" id="stack-boundary" style="stroke:#E91E63;stroke-width:1.0;"/></g><!--link stack to control--><g id="link_stack_control"><path d="M212.4262,569.31 C212.4262,586.07 212.4262,610.29 212.4262,628.54 " fill="none" id="stack-control" style="stroke:#E91E63;stroke-width:1.0;"/></g><!--link stack to entity--><g id="link_stack_entity"><path d="M227.8462,569.31 C241.0262,586.07 260.0662,610.29 274.4162,628.54 " fill="none" id="stack-entity" style="stroke:#E91E63;stroke-width:1.0;"/></g><!--link component to database--><g id="link_component_database"><path d="M328.4262,359.56 C328.4262,377.32 328.4262,401.25 328.4262,418.9 " fill="none" id="component-database" style="stroke:#E91E63;stroke-width:1.0;"/></g><!--link database to storage--><g id="link_database_storage"><path d="M329.1262,469 C329.6562,487.04 330.0166,499.4051 330.5066,516.2151 " fill="none" id="database-to-storage" style="stroke:#E91E63;stroke-width:1.0;"/><polygon fill="#E91E63" points="330.8562,528.21,334.6797,522.096,330.5066,516.2151,326.6831,522.3291,330.8562,528.21" style="stroke:#E91E63;stroke-width:1.0;"/></g><!--link component to queue--><g id="link_component_queue"><path d="M302.3262,359.56 C279.6662,380.8 247.6162,410.85 228.8262,428.46 " fill="none" id="component-queue" style="stroke:#E91E63;stroke-width:1.0;"/></g><!--link queue to stack--><g id="link_queue_stack"><path d="M213.2862,459.19 C213.1162,477.17 212.9195,496.1305 212.7295,516.2605 " fill="none" id="queue-to-stack" style="stroke:#E91E63;stroke-width:1.0;"/><polygon fill="none" points="212.6162,528.26,216.6727,522.298,212.7295,516.2605,208.6731,522.2225,212.6162,528.26" style="stroke:#E91E63;stroke-width:1.0;"/></g><!--link component to collections--><g id="link_component_collections"><path d="M357.4762,359.56 C380.4862,378.94 412.1962,405.65 433.4562,423.55 " fill="none" id="component-collections" style="stroke:#E91E63;stroke-width:1.0;"/></g><!--reverse link collections to card--><g id="link_collections_card"><path d="M456.4262,474.23 C456.4262,495.05 456.4262,517.56 456.4262,535.23 " fill="none" id="collections-backto-card" style="stroke:#E91E63;stroke-width:1.0;"/><ellipse cx="456.4262" cy="464.23" fill="none" rx="6" ry="6" style="stroke:#E91E63;stroke-width:1.5;"/><path d="M449.3552,471.3011 A10,10 0 0 0 463.4973 471.3011" fill="none" style="stroke:#E91E63;stroke-width:1.5;"/></g><!--link actor to agent--><g id="link_actor_agent"><path d="M148.9562,87.24 C145.0662,124.87 144.0866,173.6209 148.5566,202.4409 " fill="none" id="actor-to-agent" style="stroke:#E91E63;stroke-width:1.0;"/><polygon fill="#E91E63" points="149.4762,208.37,152.0496,198.8633,148.7099,203.4291,144.1441,200.0894,149.4762,208.37" style="stroke:#E91E63;stroke-width:1.0;"/><ellipse cx="145.6214" cy="148.1442" fill="none" rx="10" ry="10" style="stroke:none;stroke-width:1.0;"/><path d="M138.4911,155.1555 A10,10 0 0 0 152.6328 155.2745" fill="none" style="stroke:#E91E63;stroke-width:1.5;"/><path d="M152.7517,141.1329 A10,10 0 0 0 138.6101 141.0139" fill="none" style="stroke:#E91E63;stroke-width:1.5;"/><ellipse cx="145.6214" cy="148.1442" fill="none" rx="6" ry="6" style="stroke:#E91E63;stroke-width:1.5;"/></g><!--link actor to agent--><g id="link_actor_agent"><path d="M171.1962,87.24 C174.0362,124.87 173.7837,171.7031 168.0637,200.5231 " fill="none" id="actor-to-agent-1" style="stroke:#E91E63;stroke-width:1.0;"/><polygon fill="#E91E63" points="166.5062,208.37,171.0063,201.1071,165.1211,199.939,166.5062,208.37" style="stroke:#E91E63;stroke-width:1.0;"/></g><!--link actor to port1--><g id="link_actor_port1"><path d="M183.7462,87.16 C195.2662,107.47 209.0962,132.68 220.4262,155.8 C232.5262,180.49 244.8262,211.04 249.4862,222.84 " fill="none" id="actor-port1" style="stroke:#E91E63;stroke-width:1.0;"/></g><!--link actor to port2--><g id="link_actor_port2"><path d="M188.2562,72.2 C193.8762,77.11 199.7962,82.17 205.4262,86.8 C244.3562,118.81 261.5262,118.5 295.4262,155.8 C315.6462,178.05 332.2162,210.56 338.1162,222.85 " fill="none" id="actor-port2" style="stroke:#E91E63;stroke-width:1.0;"/></g><!--link agent to interface--><g id="link_agent_interface"><path d="M169.6562,249.23 C183.9162,271.91 206.8662,308.38 217.1462,324.71 " fill="none" id="agent-interface" style="stroke:#E91E63;stroke-width:1.0;"/></g><!--link package to artifact--><g id="link_package_artifact"><path d="M401.4262,831.06 C401.4262,851.29 401.4262,881.78 401.4262,901.97 " fill="none" id="package-artifact" style="stroke:#E91E63;stroke-width:1.0;"/></g><!--link artifact to file--><g id="link_artifact_file"><path d="M401.4262,945.46 C401.4262,962.93 401.4262,987.78 401.4262,1004.95 " fill="none" id="artifact-file" style="stroke:#E91E63;stroke-width:1.0;"/></g><!--link card to package--><g id="link_card_package"><path d="M453.7762,562.16 C444.9962,603.4 416.8362,735.72 405.8662,787.28 " fill="none" id="card-package" style="stroke:#E91E63;stroke-width:1.0;"/></g><!--link hexagon to rectangle--><g id="link_hexagon_rectangle"><path d="M601.4262,951.08 C601.4262,968.44 601.4262,973.78 601.4262,993.17 " fill="none" id="hexagon-rectangle" style="stroke:#E91E63;stroke-width:2.0;"/><ellipse cx="601.4262" cy="945.08" fill="none" rx="6" ry="6" style="stroke:#E91E63;stroke-width:1.5;"/><ellipse cx="601.4262" cy="999.17" fill="#E91E63" rx="6" ry="6" style="stroke:#E91E63;stroke-width:1.5;"/></g><!--link circle to hexagon--><g id="link_circle_hexagon"><path d="M601.4262,817.88 C601.4262,836.57 601.4262,879.38 601.4262,903.47 " fill="none" id="circle-to-hexagon" style="stroke:#E91E63;stroke-width:1.0;stroke-dasharray:7.0,7.0;"/><rect fill="none" height="10" style="stroke:#E91E63;stroke-width:1.5;" width="10" x="596.4262" y="903.47"/></g><!--link card to frame--><g id="link_card_frame"><path d="M459.1762,562.16 C464.7812,587.57 478.0112,647.555 490.0025,701.925 C493.0003,715.5175 495.9207,728.7591 498.6252,741.0217 C499.9774,747.153 501.2757,753.0396 502.5026,758.603 C503.1161,761.3847 503.7118,764.0856 504.2874,766.6959 C504.5753,768.001 504.8581,769.2835 505.1357,770.5421 C505.2051,770.8567 505.2742,771.1699 505.3429,771.4815 " fill="none" id="card-frame" style="stroke:#E91E63;stroke-width:1.0;"/></g><!--SRC=[rLfjRzis4FwkNy6c0x8DSH8xQPjqRR6yzGL8qonfiOyTBPriBfBeabGTR-X_tv6YP5AovAHB6xS599ftF3wyDnwfh9DBDKjODY8IbCAt934Nv3oXcVhmzfH4Z8u4JMMmJYu1o5YfoTEjhOacvscoANakGi0H8zZCG9cn4G_p53955UCPZdlFoGX9b2HCAi9ZCk5Iic42H5wnR49HV3Nv1X5vzfIKyaaF6wESZW3beEXG05M0eYfyCKCvKwR6vEySfVzLYGG5GluL10zO5YPv1EIPoYSq4ZjRCSzKZqv1yXIsSebiBm8KV_JkzDt59JQUt_2V7ZI230HDICWJBb1rWgU4JpCYKQaWnm0gUF0JAkIZdlIZuIBFoTh3lMtzVms9L0W-TIYmtuV7Evg2Lhbo23kx-tl7XsjwrfHUeHAYb6TCwxYSdNwcBA5QiTeCa82sWjHpHEd7aEQQrn58jtTtziEr6jrZYUEufBDqmeMYtYgYdK4yMC3H9YFZ2XpAeFy4u8b7R1kfsCGXxFPflFlOfRMDcrAHeL-v-ktlzVkxTNfpFAevun5yx6yKxm6XMKGqIA9G_LbXwwDTOseKWG8BVaVGzjxkuCbmRKvQ1BEGxlJt-u_tXf53wXX5y-l10X_HT4_L-_lxLU_2jM8SBF0exKTSZS7pfeIFM5Y9QAgvOd4cMgXiP1m9dazyBizHAvQwhBgxwZ1Zdra4mkUh7CTXgCjo7KZhujN9sSd5mIcvF7d__itPgzlbX0S_3NaqA-8zfYbBPbhFacQoXwc6eRRN2T1mN6gKX3Gp-P4fQLB7InnvXlbhmxGksJzbIwUKtxG7eg4YqBuu3O9v2ZsauPNMLHOTcSKfWNCY2UTmk8wBV7x81MgYY_7rR092fw22oSb6gA8v6teC3ySO2XWM8WT7W1pJY4_rpXBJHBgKrnX9Ky6Kqb5KevtZslIOWJl9XLvLo0NcMlB8ONxBCfRcwPyimlpVtzvsrN4CCSqJHVuDY56VNOQVYorDgviqx6Q9Hk-eR97I1BlUmxKwIDWeAuo73n315tVcXCM0se9BLAo2qOn8dh18ErR4GHe3Ie2KA4wcN5oHpuoIPsR3U45ce9wwid3J_PH35i8h7GLcCQHXQJSY2mR7kWtYQw18T5JY1oloUAif0Ln0348tsa3uSTh4uOIw8Je8wgG2ul8PlYnKrN4HvcqulJJHXDaakzvJoo0D31yaX5IMEhf4tm2kC98S6RMaNXTn42fUO2ySpnOgsiMiao1fizXFsfReRaI6unJTiOrMXzRtRTY-XhwxW1BJe1FJe0FJe0FJuAQO1ZLCnhTl6ZOEeZgfArnQyFWY2ZZ6WtLwwuoXXOYMXizoHBw80b5qss1n8DqsL5fWrSKKm4AUcWpRwavbVTDq9e_YUOXJ_NGvaYEW06EhX3OmVg5HcxLHORX2JJtP8RLzCOsIsPDhIwqkqNxDja1wernp9x3rLzS4VY6tO8963UTEK9qckgQe7KeMJT8ybPJJc9ENbUxuZtCWQyZpI4O8fcjqNpLRZRHdsQXGRTd-f7sJEAIYFNLXtOYbNdIVgTJZQoaH5jKonDbJxtwp_8gTyc3KcTZkOPyy48h5D5mjK8SQ01Mp9ORpX7zpsntowriKmBVPlx-g_2NaY8fefSnsbF0y-iOwAYRYIGAXta7ajo-4xOoucMIh5hn7I1OyMQamEQQA3kS7eUM6MN8AQGAks-OO4bgcYcN5vRevXEl3jwwHyCnjDhZlLmWR42UPMbOtV6-hlTINwQlasYzvqc6J-qcuB_N7XTM2v5qEyMXsf-NPRMipW-WrNDDH-_5WjSl5D_fE3yiXw8RVPkMxqUXNOZ-rbu-tE5Is1xAHU8Pzg-NkPns7vhku5p2Jl1l-3IjM49yZ2Zg2xr5RdUCHaeLiGfVKEdTNMvaPkwuKxiVNpa78TapV_-nupeNw0TFI7pdaqBnhMN07yRyAHJFN1SOjpKO9_62xZs5TrvyG8i8o_MavnGKcygaXR0xzu_3DxD-vk4uVkCc7ejkuWJQEDT2bGkwLogo8IDtDbdcNcBZeoFRtewSfInEQBOZa6ns1F5d-fx9xMryzUyZgAwBvK6xXDRyq5y6ASKgh8UKVIsqGDSOVvH4ueKD829C4NtnAcDemnq_-6KysJFrc9DNEozsRXS5f7YdBefHEVAnTVmYWwTcyeBk9thirlrJtg3jwxUZkqVPy3OGC-NK2KhOkUx0eVqo7qb_nZxsYPrlskourrzJc6UGsEkpRqdhLxo0qrsoXSzb6pRMoULeaTiCe6wOtrFU5-b7ySkxGdBQb5VTAzctwAgSk6wONYgkCucLw2fytpxc5F3CHeh_Bc4U_sJK8ghwmkdIhMXMDLIUrghLWNAz6_MAUdqn9OfxcjpIxaddQtqN-jU_0OUhrV9rMlQwggawhbg06gkVhiD9ih_ThDMTZo1nk0R_NumvaZxLfphcfjt_H3De9q6kjQ_L-njuNrd_AljwBUe-rcFTp41I-rtCr7SJ5vKtitk5Cx176lWk_BJy-b0tJQ_wmKp-ySJY3nrMDHO9XnlKO3-zfQ7QI83PNDh5pSHCo4QByucLwnlR6mhvDdwWgoQhbyMu_V_vxZMG5Rsu-h2Iva0o6_m00]--></g></svg>