<svg aria-roledescription="gitGraph" role="graphics-document document" viewBox="-130.80813598632812 -35.20000076293945 888.80810546875 281.2841491699219" height="281.2841491699219" xmlns="http://www.w3.org/2000/svg" width="888.80810546875" id="container"><style>#container{font-family:"trebuchet ms",verdana,arial,sans-serif;font-size:16px;fill:#333;}#container .error-icon{fill:#552222;}#container .error-text{fill:#552222;stroke:#552222;}#container .edge-thickness-normal{stroke-width:2px;}#container .edge-thickness-thick{stroke-width:3.5px;}#container .edge-pattern-solid{stroke-dasharray:0;}#container .edge-pattern-dashed{stroke-dasharray:3;}#container .edge-pattern-dotted{stroke-dasharray:2;}#container .marker{fill:#333333;stroke:#333333;}#container .marker.cross{stroke:#333333;}#container svg{font-family:"trebuchet ms",verdana,arial,sans-serif;font-size:16px;}#container .commit-id,#container .commit-msg,#container .branch-label{fill:lightgrey;color:lightgrey;font-family:'trebuchet ms',verdana,arial,sans-serif;font-family:var(--mermaid-font-family);}#container .branch-label0{fill:#ffffff;}#container .commit0{stroke:hsl(240, 100%, 46.2745098039%);fill:hsl(240, 100%, 46.2745098039%);}#container .commit-highlight0{stroke:hsl(60, 100%, 3.7254901961%);fill:hsl(60, 100%, 3.7254901961%);}#container .label0{fill:hsl(240, 100%, 46.2745098039%);}#container .arrow0{stroke:hsl(240, 100%, 46.2745098039%);}#container .branch-label1{fill:black;}#container .commit1{stroke:hsl(60, 100%, 43.5294117647%);fill:hsl(60, 100%, 43.5294117647%);}#container .commit-highlight1{stroke:rgb(0, 0, 160.5);fill:rgb(0, 0, 160.5);}#container .label1{fill:hsl(60, 100%, 43.5294117647%);}#container .arrow1{stroke:hsl(60, 100%, 43.5294117647%);}#container .branch-label2{fill:black;}#container .commit2{stroke:hsl(80, 100%, 46.2745098039%);fill:hsl(80, 100%, 46.2745098039%);}#container .commit-highlight2{stroke:rgb(48.8333333334, 0, 146.5000000001);fill:rgb(48.8333333334, 0, 146.5000000001);}#container .label2{fill:hsl(80, 100%, 46.2745098039%);}#container .arrow2{stroke:hsl(80, 100%, 46.2745098039%);}#container .branch-label3{fill:#ffffff;}#container .commit3{stroke:hsl(210, 100%, 46.2745098039%);fill:hsl(210, 100%, 46.2745098039%);}#container .commit-highlight3{stroke:rgb(146.5000000001, 73.2500000001, 0);fill:rgb(146.5000000001, 73.2500000001, 0);}#container .label3{fill:hsl(210, 100%, 46.2745098039%);}#container .arrow3{stroke:hsl(210, 100%, 46.2745098039%);}#container .branch-label4{fill:black;}#container .commit4{stroke:hsl(180, 100%, 46.2745098039%);fill:hsl(180, 100%, 46.2745098039%);}#container .commit-highlight4{stroke:rgb(146.5000000001, 0, 0);fill:rgb(146.5000000001, 0, 0);}#container .label4{fill:hsl(180, 100%, 46.2745098039%);}#container .arrow4{stroke:hsl(180, 100%, 46.2745098039%);}#container .branch-label5{fill:black;}#container .commit5{stroke:hsl(150, 100%, 46.2745098039%);fill:hsl(150, 100%, 46.2745098039%);}#container .commit-highlight5{stroke:rgb(146.5000000001, 0, 73.2500000001);fill:rgb(146.5000000001, 0, 73.2500000001);}#container .label5{fill:hsl(150, 100%, 46.2745098039%);}#container .arrow5{stroke:hsl(150, 100%, 46.2745098039%);}#container .branch-label6{fill:black;}#container .commit6{stroke:hsl(300, 100%, 46.2745098039%);fill:hsl(300, 100%, 46.2745098039%);}#container .commit-highlight6{stroke:rgb(0, 146.5000000001, 0);fill:rgb(0, 146.5000000001, 0);}#container .label6{fill:hsl(300, 100%, 46.2745098039%);}#container .arrow6{stroke:hsl(300, 100%, 46.2745098039%);}#container .branch-label7{fill:black;}#container .commit7{stroke:hsl(0, 100%, 46.2745098039%);fill:hsl(0, 100%, 46.2745098039%);}#container .commit-highlight7{stroke:rgb(0, 146.5000000001, 146.5000000001);fill:rgb(0, 146.5000000001, 146.5000000001);}#container .label7{fill:hsl(0, 100%, 46.2745098039%);}#container .arrow7{stroke:hsl(0, 100%, 46.2745098039%);}#container .branch{stroke-width:1;stroke:#333333;stroke-dasharray:2;}#container .commit-label{font-size:10px;fill:#000021;}#container .commit-label-bkg{font-size:10px;fill:#ffffde;opacity:0.5;}#container .tag-label{font-size:10px;fill:#131300;}#container .tag-label-bkg{fill:#ECECFF;stroke:hsl(240, 60%, 86.2745098039%);}#container .tag-hole{fill:#333;}#container .commit-merge{stroke:#ECECFF;fill:#ECECFF;}#container .commit-reverse{stroke:#ECECFF;fill:#ECECFF;stroke-width:3;}#container .commit-highlight-inner{stroke:#ECECFF;fill:#ECECFF;}#container .arrow{stroke-width:8;stroke-linecap:round;fill:none;}#container .gitTitleText{text-anchor:middle;font-size:18px;fill:#333;}#container :root{--mermaid-font-family:"trebuchet ms",verdana,arial,sans-serif;}</style><g></g><g class="commit-bullets"></g><g class="commit-labels"></g><g><line class="branch branch0" y2="0" x2="750" y1="0" x1="0"></line><rect transform="translate(-19, -9.5)" height="23" width="54.3125" y="-1.5" x="-70.3125" ry="4" rx="4" class="branchLabelBkg label0"></rect><g class="branchLabel"><g transform="translate(-80.3125, -10.5)" class="label branch-label0"><text><tspan class="row" x="0" dy="1em" xml:space="preserve">main</tspan></text></g></g><line class="branch branch1" y2="90" x2="750" y1="90" x1="0"></line><rect transform="translate(-19, 80.5)" height="23" width="76.21875" y="-1.5" x="-92.21875" ry="4" rx="4" class="branchLabelBkg label1"></rect><g class="branchLabel"><g transform="translate(-102.21875, 79.5)" class="label branch-label1"><text><tspan class="row" x="0" dy="1em" xml:space="preserve">develop</tspan></text></g></g><line class="branch branch2" y2="180" x2="750" y1="180" x1="0"></line><rect transform="translate(-19, 170.5)" height="23" width="87.80813598632812" y="-1.5" x="-103.80813598632812" ry="4" rx="4" class="branchLabelBkg label2"></rect><g class="branchLabel"><g transform="translate(-113.80813598632812, 169.5)" class="label branch-label2"><text><tspan class="row" x="0" dy="1em" xml:space="preserve">feature/A</tspan></text></g></g></g><g class="commit-arrows"><path class="arrow arrow0" d="M 10 0 L 60 0"></path><path class="arrow arrow1" d="M 60 0 L 60 70 A 20 20, 0, 0, 0, 80 90 L 110 90"></path><path class="arrow arrow2" d="M 110 90 L 110 160 A 20 20, 0, 0, 0, 130 180 L 160 180"></path><path class="arrow arrow2" d="M 160 180 L 210 180"></path><path class="arrow arrow0" d="M 60 0 L 260 0"></path><path class="arrow arrow2" d="M 210 180 L 310 180"></path><path class="arrow arrow1" d="M 110 90 L 360 90"></path><path class="arrow arrow0" d="M 260 0 L 340 0 A 20 20, 0, 0, 1, 360 20 L 360 90"></path><path class="arrow arrow1" d="M 360 90 L 410 90"></path><path class="arrow arrow2" d="M 310 180 L 390 180 A 20 20, 0, 0, 0, 410 160 L 410 90"></path><path class="arrow arrow1" d="M 410 90 L 460 90"></path><path class="arrow arrow0" d="M 260 0 L 510 0"></path><path class="arrow arrow1" d="M 460 90 L 490 90 A 20 20, 0, 0, 0, 510 70 L 510 0"></path><path class="arrow arrow0" d="M 510 0 L 560 0"></path><path class="arrow arrow0" d="M 560 0 L 610 0"></path><path class="arrow arrow1" d="M 460 90 L 660 90"></path><path class="arrow arrow1" d="M 660 90 L 710 90"></path></g><g class="commit-bullets"><circle class="commit 0-c48641b commit0" r="10" cy="0" cx="10"></circle><circle class="commit Normal commit0" r="10" cy="0" cx="60"></circle><circle class="commit 2-5e42120 commit1" r="10" cy="90" cx="110"></circle><circle class="commit 3-7a91358 commit2" r="10" cy="180" cx="160"></circle><circle class="commit 4-1297713 commit2" r="10" cy="180" cx="210"></circle><circle class="commit 5-16367e3 commit0" r="10" cy="0" cx="260"></circle><circle class="commit 6-eb54ed3 commit2" r="10" cy="180" cx="310"></circle><circle class="commit 7-93eff1e commit1" r="9" cy="90" cx="360"></circle><circle class="commit commit-merge 7-93eff1e commit1" r="6" cy="90" cx="360"></circle><circle class="commit 8-2792cd9 commit1" r="9" cy="90" cx="410"></circle><circle class="commit commit-merge 8-2792cd9 commit1" r="6" cy="90" cx="410"></circle><circle class="commit 9-27e8336 commit1" r="10" cy="90" cx="460"></circle><circle class="commit 10-496bf28 commit0" r="9" cy="0" cx="510"></circle><circle class="commit commit-merge 10-496bf28 commit0" r="6" cy="0" cx="510"></circle><circle class="commit 11-8b3d6e1 commit0" r="10" cy="0" cx="560"></circle><circle class="commit 12-165a650 commit0" r="10" cy="0" cx="610"></circle><circle class="commit 13-096a48f commit1" r="10" cy="90" cx="660"></circle><circle class="commit 14-68b3a4d commit1" r="10" cy="90" cx="710"></circle></g><g class="commit-labels"><g transform="translate(-28.521591186523438, 25.408792114257814) rotate(-45, 0, 0)"><rect height="16" width="49.319976806640625" y="13.5" x="-14.659988403320312" class="commit-label-bkg"></rect><text class="commit-label" y="25" x="-12.659988403320312">0-c48641b</text></g><g transform="translate(-24.007189331054686, 21.369590454101562) rotate(-45, 50, 0)"><rect height="16" width="37.439971923828125" y="13.5" x="41.28001403808594" class="commit-label-bkg"></rect><text class="commit-label" y="25" x="43.28001403808594">Normal</text></g><polygon points="35.36499786376953,-17.2
          35.36499786376953,-21.2
          43.36499786376953,-27.2
          76.63500213623047,-27.2
          76.63500213623047,-11.2
          43.36499786376953,-11.2" class="tag-label-bkg"></polygon><circle class="tag-hole" r="1.5" cy="-19.2" cx="39.36499786376953"></circle><text x="47.36499786376953" class="tag-label" y="-16">v1.0.0</text><g transform="translate(-28.088391418457032, 25.02119232177734) rotate(-45, 100, 90)"><rect height="16" width="48.17997741699219" y="103.5" x="85.9100112915039" class="commit-label-bkg"></rect><text class="commit-label" y="115" x="87.9100112915039">2-5e42120</text></g><g transform="translate(-27.784390258789063, 24.749191284179688) rotate(-45, 150, 180)"><rect height="16" width="47.379974365234375" y="193.5" x="136.3100128173828" class="commit-label-bkg"></rect><text class="commit-label" y="205" x="138.3100128173828">3-7a91358</text></g><g transform="translate(-26.826800231933593, 23.89240020751953) rotate(-45, 200, 180)"><rect height="16" width="44.86000061035156" y="193.5" x="187.56999969482422" class="commit-label-bkg"></rect><text class="commit-label" y="205" x="189.56999969482422">4-1297713</text></g><g transform="translate(-27.39679443359375, 24.402395019531248) rotate(-45, 250, 0)"><rect height="16" width="46.3599853515625" y="13.5" x="236.82000732421875" class="commit-label-bkg"></rect><text class="commit-label" y="25" x="238.82000732421875">5-16367e3</text></g><g transform="translate(-29.315789794921873, 26.119390869140624) rotate(-45, 300, 180)"><rect height="16" width="51.40997314453125" y="193.5" x="284.2950134277344" class="commit-label-bkg"></rect><text class="commit-label" y="205" x="286.2950134277344">6-eb54ed3</text></g><g transform="translate(-27.996250000000003, 24.93875) rotate(-45, 450, 90)"><rect height="16" width="47.9375" y="103.5" x="436.03125" class="commit-label-bkg"></rect><text class="commit-label" y="115" x="438.03125">9-27e8336</text></g><g transform="translate(-30.068437499999998, 26.7928125) rotate(-45, 550, 0)"><rect height="16" width="53.390625" y="13.5" x="533.3046875" class="commit-label-bkg"></rect><text class="commit-label" y="25" x="535.3046875">11-8b3d6e1</text></g><g transform="translate(-29.806004638671876, 26.558004150390627) rotate(-45, 600, 0)"><rect height="16" width="52.70001220703125" y="13.5" x="583.6499938964844" class="commit-label-bkg"></rect><text class="commit-label" y="25" x="585.6499938964844">12-165a650</text></g><g transform="translate(-30.178397216796874, 26.891197509765625) rotate(-45, 650, 90)"><rect height="16" width="53.67999267578125" y="103.5" x="633.1600036621094" class="commit-label-bkg"></rect><text class="commit-label" y="115" x="635.1600036621094">13-096a48f</text></g><g transform="translate(-31.025789794921874, 27.649390869140625) rotate(-45, 700, 90)"><rect height="16" width="55.90997314453125" y="103.5" x="682.0450134277344" class="commit-label-bkg"></rect><text class="commit-label" y="115" x="684.0450134277344">14-68b3a4d</text></g></g></svg>