<?xml version="1.0" encoding="UTF-8" standalone="no"?><svg xmlns="http://www.w3.org/2000/svg" xmlns:xlink="http://www.w3.org/1999/xlink" contentStyleType="text/css" height="625px" preserveAspectRatio="none" style="width:865px;height:625px;background:#FFFFFF;" version="1.1" viewBox="0 0 865 625" width="865px" zoomAndPan="magnify"><defs/><g><rect fill="none" height="623.6719" style="stroke:#FFFFFF;stroke-width:1.0;" width="863" x="0" y="0"/><!--cluster boundary1--><g id="cluster_boundary1"><rect fill="none" height="165" rx="2.5" ry="2.5" style="stroke:#444444;stroke-width:1.0;stroke-dasharray:7.0,7.0;" width="798" x="43" y="7"/><text fill="#444444" font-family="Roboto" font-size="15" font-weight="bold" lengthAdjust="spacing" textLength="165" x="359.5" y="24.9233">Container_Boundary</text><text fill="#444444" font-family="Roboto" font-size="12" font-weight="bold" lengthAdjust="spacing" textLength="80" x="402" y="39.5996">[Container]</text></g><!--cluster boundary2--><g id="cluster_boundary2"><rect fill="none" height="165" rx="2.5" ry="2.5" style="stroke:#444444;stroke-width:1.0;stroke-dasharray:7.0,7.0;" width="852" x="7" y="223"/><text fill="#444444" font-family="Roboto" font-size="15" font-weight="bold" lengthAdjust="spacing" textLength="78" x="394" y="240.9233">Boundary</text><text fill="#444444" font-family="Roboto" font-size="12" font-weight="bold" lengthAdjust="spacing" textLength="80" x="393" y="255.5996">[Container]</text></g><!--entity component1--><g id="elem_component1"><rect fill="#85BBF0" height="85.6953" rx="2.5" ry="2.5" style="stroke:#78A8D8;stroke-width:0.5;" width="157" x="332.5" y="65.5"/><text fill="#000000" font-family="Roboto" font-size="15" font-weight="bold" lengthAdjust="spacing" textLength="94" x="364" y="91.4233">Component</text><text fill="#000000" font-family="Roboto" font-size="12" font-style="italic" lengthAdjust="spacing" textLength="82" x="370" y="106.0996">[Technology]</text><text fill="#000000" font-family="Roboto" font-size="13" lengthAdjust="spacing" textLength="4" x="409" y="120.9966"> </text><text fill="#000000" font-family="Roboto" font-size="13" lengthAdjust="spacing" textLength="4" x="344.5" y="136.1294"> </text><text fill="#000000" font-family="Roboto" font-size="13" lengthAdjust="spacing" textLength="53" x="348.5" y="136.1294">Optional</text><text fill="#000000" font-family="Roboto" font-size="13" lengthAdjust="spacing" textLength="4" x="401.5" y="136.1294"> </text><text fill="#000000" font-family="Roboto" font-size="13" lengthAdjust="spacing" textLength="72" x="405.5" y="136.1294">Description</text></g><!--entity cqueue--><g id="elem_cqueue"><path d="M64.5,86 L225.5,86 C230.5,86 230.5,108.7148 230.5,108.7148 C230.5,108.7148 230.5,131.4297 225.5,131.4297 L64.5,131.4297 C59.5,131.4297 59.5,108.7148 59.5,108.7148 C59.5,108.7148 59.5,86 64.5,86 " fill="#85BBF0" style="stroke:#78A8D8;stroke-width:0.5;"/><path d="M225.5,86 C220.5,86 220.5,108.7148 220.5,108.7148 C220.5,131.4297 225.5,131.4297 225.5,131.4297 " fill="none" style="stroke:#78A8D8;stroke-width:0.5;"/><text fill="#000000" font-family="Roboto" font-size="15" font-weight="bold" lengthAdjust="spacing" textLength="147" x="66.5" y="106.9233">ComponentQueue</text><text fill="#000000" font-family="Roboto" font-size="12" font-style="italic" lengthAdjust="spacing" textLength="82" x="99" y="121.5996">[Technology]</text></g><!--entity cdb--><g id="elem_cdb"><path d="M667.5,71 C667.5,61 746,61 746,61 C746,61 824.5,61 824.5,71 L824.5,145.6953 C824.5,155.6953 746,155.6953 746,155.6953 C746,155.6953 667.5,155.6953 667.5,145.6953 L667.5,71 " fill="#85BBF0" style="stroke:#78A8D8;stroke-width:0.5;"/><path d="M667.5,71 C667.5,81 746,81 746,81 C746,81 824.5,81 824.5,71 " fill="none" style="stroke:#78A8D8;stroke-width:0.5;"/><text fill="#000000" font-family="Roboto" font-size="15" font-weight="bold" lengthAdjust="spacing" textLength="116" x="688" y="100.9233">ComponentDb</text><text fill="#000000" font-family="Roboto" font-size="12" font-style="italic" lengthAdjust="spacing" textLength="82" x="705" y="115.5996">[Technology]</text><text fill="#000000" font-family="Roboto" font-size="13" lengthAdjust="spacing" textLength="4" x="744" y="130.4966"> </text><text fill="#000000" font-family="Roboto" font-size="13" lengthAdjust="spacing" textLength="4" x="679.5" y="145.6294"> </text><text fill="#000000" font-family="Roboto" font-size="13" lengthAdjust="spacing" textLength="53" x="683.5" y="145.6294">Optional</text><text fill="#000000" font-family="Roboto" font-size="13" lengthAdjust="spacing" textLength="4" x="736.5" y="145.6294"> </text><text fill="#000000" font-family="Roboto" font-size="13" lengthAdjust="spacing" textLength="72" x="740.5" y="145.6294">Description</text></g><!--entity component2--><g id="elem_component2"><rect fill="#CCCCCC" height="85.6953" rx="2.5" ry="2.5" style="stroke:#BFBFBF;stroke-width:0.5;" width="157" x="332.5" y="281.5"/><text fill="#000000" font-family="Roboto" font-size="15" font-weight="bold" lengthAdjust="spacing" textLength="130" x="346" y="307.4233">Component_Ext</text><text fill="#000000" font-family="Roboto" font-size="12" font-style="italic" lengthAdjust="spacing" textLength="82" x="370" y="322.0996">[Technology]</text><text fill="#000000" font-family="Roboto" font-size="13" lengthAdjust="spacing" textLength="4" x="409" y="336.9966"> </text><text fill="#000000" font-family="Roboto" font-size="13" lengthAdjust="spacing" textLength="4" x="344.5" y="352.1294"> </text><text fill="#000000" font-family="Roboto" font-size="13" lengthAdjust="spacing" textLength="53" x="348.5" y="352.1294">Optional</text><text fill="#000000" font-family="Roboto" font-size="13" lengthAdjust="spacing" textLength="4" x="401.5" y="352.1294"> </text><text fill="#000000" font-family="Roboto" font-size="13" lengthAdjust="spacing" textLength="72" x="405.5" y="352.1294">Description</text></g><!--entity cqueue2--><g id="elem_cqueue2"><path d="M28.5,302 L225.5,302 C230.5,302 230.5,324.7148 230.5,324.7148 C230.5,324.7148 230.5,347.4297 225.5,347.4297 L28.5,347.4297 C23.5,347.4297 23.5,324.7148 23.5,324.7148 C23.5,324.7148 23.5,302 28.5,302 " fill="#CCCCCC" style="stroke:#BFBFBF;stroke-width:0.5;"/><path d="M225.5,302 C220.5,302 220.5,324.7148 220.5,324.7148 C220.5,347.4297 225.5,347.4297 225.5,347.4297 " fill="none" style="stroke:#BFBFBF;stroke-width:0.5;"/><text fill="#000000" font-family="Roboto" font-size="15" font-weight="bold" lengthAdjust="spacing" textLength="183" x="30.5" y="322.9233">ComponentQueue_Ext</text><text fill="#000000" font-family="Roboto" font-size="12" font-style="italic" lengthAdjust="spacing" textLength="82" x="81" y="337.5996">[Technology]</text></g><!--entity cdb2--><g id="elem_cdb2"><path d="M667,287 C667,277 755,277 755,277 C755,277 843,277 843,287 L843,361.6953 C843,371.6953 755,371.6953 755,371.6953 C755,371.6953 667,371.6953 667,361.6953 L667,287 " fill="#CCCCCC" style="stroke:#BFBFBF;stroke-width:0.5;"/><path d="M667,287 C667,297 755,297 755,297 C755,297 843,297 843,287 " fill="none" style="stroke:#BFBFBF;stroke-width:0.5;"/><text fill="#000000" font-family="Roboto" font-size="15" font-weight="bold" lengthAdjust="spacing" textLength="152" x="679" y="316.9233">ComponentDb_Ext</text><text fill="#000000" font-family="Roboto" font-size="12" font-style="italic" lengthAdjust="spacing" textLength="82" x="714" y="331.5996">[Technology]</text><text fill="#000000" font-family="Roboto" font-size="13" lengthAdjust="spacing" textLength="4" x="753" y="346.4966"> </text><text fill="#000000" font-family="Roboto" font-size="13" lengthAdjust="spacing" textLength="4" x="688.5" y="361.6294"> </text><text fill="#000000" font-family="Roboto" font-size="13" lengthAdjust="spacing" textLength="53" x="692.5" y="361.6294">Optional</text><text fill="#000000" font-family="Roboto" font-size="13" lengthAdjust="spacing" textLength="4" x="745.5" y="361.6294"> </text><text fill="#000000" font-family="Roboto" font-size="13" lengthAdjust="spacing" textLength="72" x="749.5" y="361.6294">Description</text></g><!--link component1 to cdb--><g id="link_component1_cdb"><path d="M489.97,108.5 C540.42,108.5 605.92,108.5 658.04,108.5 " fill="none" id="component1-to-cdb" style="stroke:#666666;stroke-width:1.0;"/><polygon fill="#666666" points="665.76,108.5,657.76,105.5,657.76,111.5,665.76,108.5" style="stroke:#666666;stroke-width:1.0;"/><text fill="#666666" font-family="Roboto" font-size="12" font-weight="bold" lengthAdjust="spacing" textLength="37" x="560" y="86.6387">Rel_R</text><text fill="#666666" font-family="Roboto" font-size="12" font-style="italic" lengthAdjust="spacing" textLength="56" x="510" y="100.6074">[Optional</text><text fill="#666666" font-family="Roboto" font-size="12" font-style="italic" lengthAdjust="spacing" textLength="4" x="566" y="100.6074"> </text><text fill="#666666" font-family="Roboto" font-size="12" font-style="italic" lengthAdjust="spacing" textLength="77" x="570" y="100.6074">Technology]</text></g><!--link cqueue to component1--><g id="link_cqueue_component1"><path d="M240.24,108.5 C267.16,108.5 296.33,108.5 322.81,108.5 " fill="none" id="cqueue-component1" style="stroke:#666666;stroke-width:1.0;"/><polygon fill="#666666" points="232.51,108.5,240.51,111.5,240.51,105.5,232.51,108.5" style="stroke:#666666;stroke-width:1.0;"/><polygon fill="#666666" points="330.55,108.5,322.55,105.5,322.55,111.5,330.55,108.5" style="stroke:#666666;stroke-width:1.0;"/><text fill="#666666" font-family="Roboto" font-size="12" font-weight="bold" lengthAdjust="spacing" textLength="35" x="264" y="86.6387">BiRel</text><text fill="#666666" font-family="Roboto" font-size="12" font-style="italic" lengthAdjust="spacing" textLength="61" x="251" y="100.6074">[Optional]</text></g><!--link component2 to cdb2--><g id="link_component2_cdb2"><path d="M489.92,324.5 C539.7,324.5 604.35,324.5 657.35,324.5 " fill="none" id="component2-to-cdb2" style="stroke:#666666;stroke-width:1.0;"/><polygon fill="#666666" points="665.25,324.5,657.25,321.5,657.25,327.5,665.25,324.5" style="stroke:#666666;stroke-width:1.0;"/><text fill="#666666" font-family="Roboto" font-size="12" font-weight="bold" lengthAdjust="spacing" textLength="37" x="559.75" y="302.6387">Rel_R</text><text fill="#666666" font-family="Roboto" font-size="12" font-style="italic" lengthAdjust="spacing" textLength="56" x="509.75" y="316.6074">[Optional</text><text fill="#666666" font-family="Roboto" font-size="12" font-style="italic" lengthAdjust="spacing" textLength="4" x="565.75" y="316.6074"> </text><text fill="#666666" font-family="Roboto" font-size="12" font-style="italic" lengthAdjust="spacing" textLength="77" x="569.75" y="316.6074">Technology]</text></g><!--link cqueue2 to component2--><g id="link_cqueue2_component2"><path d="M240.21,324.5 C267.6,324.5 296.48,324.5 322.55,324.5 " fill="none" id="cqueue2-component2" style="stroke:#666666;stroke-width:1.0;"/><polygon fill="#666666" points="232.25,324.5,240.25,327.5,240.25,321.5,232.25,324.5" style="stroke:#666666;stroke-width:1.0;"/><polygon fill="#666666" points="330.5,324.5,322.5,321.5,322.5,327.5,330.5,324.5" style="stroke:#666666;stroke-width:1.0;"/><text fill="#666666" font-family="Roboto" font-size="12" font-weight="bold" lengthAdjust="spacing" textLength="35" x="264" y="302.6387">BiRel</text><text fill="#666666" font-family="Roboto" font-size="12" font-style="italic" lengthAdjust="spacing" textLength="61" x="251" y="316.6074">[Optional]</text></g><!--link component1 to component2--><g id="link_component1_component2"><path d="M411,151.78 C411,186.37 411,235.4 411,272.23 " fill="none" id="component1-to-component2" style="stroke:#666666;stroke-width:1.0;"/><polygon fill="#666666" points="411,279.79,414,271.79,408,271.79,411,279.79" style="stroke:#666666;stroke-width:1.0;"/><text fill="#666666" font-family="Roboto" font-size="12" font-weight="bold" lengthAdjust="spacing" textLength="22" x="414" y="202.1387">Rel</text></g><text fill="#000000" font-family="Roboto" font-size="14" font-weight="bold" lengthAdjust="spacing" textLength="59" x="683" y="428.9951">Legend</text><text fill="#FFFFFF" font-family="Roboto" font-size="14" lengthAdjust="spacing" textLength="4" x="742" y="428.9951"> </text><rect fill="#08427B" height="20.2969" style="stroke:none;stroke-width:1.0;" width="151" x="681" y="434.2969"/><text fill="#FFFFFF" font-family="Roboto" font-size="14" lengthAdjust="spacing" textLength="49" x="687" y="449.292">person</text><rect fill="#1168BD" height="20.2969" style="stroke:none;stroke-width:1.0;" width="151" x="681" y="454.5938"/><text fill="#FFFFFF" font-family="Roboto" font-size="14" lengthAdjust="spacing" textLength="50" x="687" y="469.5889">system</text><rect fill="#438DD5" height="20.2969" style="stroke:none;stroke-width:1.0;" width="151" x="681" y="474.8906"/><text fill="#FFFFFF" font-family="Roboto" font-size="14" lengthAdjust="spacing" textLength="65" x="687" y="489.8857">container</text><rect fill="#85BBF0" height="20.2969" style="stroke:none;stroke-width:1.0;" width="151" x="681" y="495.1875"/><text fill="#FFFFFF" font-family="Roboto" font-size="14" lengthAdjust="spacing" textLength="80" x="687" y="510.1826">component</text><rect fill="#686868" height="20.2969" style="stroke:none;stroke-width:1.0;" width="151" x="681" y="515.4844"/><text fill="#FFFFFF" font-family="Roboto" font-size="14" lengthAdjust="spacing" textLength="108" x="687" y="530.4795">external person</text><rect fill="#999999" height="20.2969" style="stroke:none;stroke-width:1.0;" width="151" x="681" y="535.7813"/><text fill="#FFFFFF" font-family="Roboto" font-size="14" lengthAdjust="spacing" textLength="109" x="687" y="550.7764">external system</text><rect fill="#B3B3B3" height="20.2969" style="stroke:none;stroke-width:1.0;" width="151" x="681" y="556.0781"/><text fill="#FFFFFF" font-family="Roboto" font-size="14" lengthAdjust="spacing" textLength="124" x="687" y="571.0732">external container</text><rect fill="#CCCCCC" height="20.2969" style="stroke:none;stroke-width:1.0;" width="151" x="681" y="576.375"/><text fill="#FFFFFF" font-family="Roboto" font-size="14" lengthAdjust="spacing" textLength="139" x="687" y="591.3701">external component</text><line style="stroke:#FFFFFF;stroke-width:1.0;" x1="681" x2="832" y1="414" y2="414"/><line style="stroke:#FFFFFF;stroke-width:1.0;" x1="681" x2="832" y1="434.2969" y2="434.2969"/><line style="stroke:#FFFFFF;stroke-width:1.0;" x1="681" x2="832" y1="454.5938" y2="454.5938"/><line style="stroke:#FFFFFF;stroke-width:1.0;" x1="681" x2="832" y1="474.8906" y2="474.8906"/><line style="stroke:#FFFFFF;stroke-width:1.0;" x1="681" x2="832" y1="495.1875" y2="495.1875"/><line style="stroke:#FFFFFF;stroke-width:1.0;" x1="681" x2="832" y1="515.4844" y2="515.4844"/><line style="stroke:#FFFFFF;stroke-width:1.0;" x1="681" x2="832" y1="535.7813" y2="535.7813"/><line style="stroke:#FFFFFF;stroke-width:1.0;" x1="681" x2="832" y1="556.0781" y2="556.0781"/><line style="stroke:#FFFFFF;stroke-width:1.0;" x1="681" x2="832" y1="576.375" y2="576.375"/><line style="stroke:#FFFFFF;stroke-width:1.0;" x1="681" x2="832" y1="596.6719" y2="596.6719"/><line style="stroke:#FFFFFF;stroke-width:1.0;" x1="681" x2="681" y1="414" y2="596.6719"/><line style="stroke:#FFFFFF;stroke-width:1.0;" x1="832" x2="832" y1="414" y2="596.6719"/><!--SRC=[lHXhJoB9zZk_ecHDb8JhIClWOyVPAE1emkYiuDtC9r9q7w3MfeljhXRTpVxtUqxrW-eNuEpcZic0TTxlSpnWG_Nc2c_60b0AFmCsbJxxvd9FFNqTC4VmcSyNGUs03G7ONAdbnOSFImA72_SeaA5l0rBCuCW3fMaTQOSBy1HNGdf8Dv9iXY3EN14e9gTiAOD0J5nWmRFmbXpPfyARp0-z2vRmP__1BxEGpw26ZBeFWuV78NwvtF4V4St00v-xp9QkzD4uNowON7aiGBCXc0Eesjv-RELumktdcIz3pnbhV7R9wZzDfzEwYIDz1_ng-1fmTam_1EE-BrS61CvRq3aX2Bh-sG2SjC_FUjTrKdp1du5nPo4zGOvC3E0lNBYSl4U-1XV8rG5oidb8U0OpVjm-ERVh1Ym3ZlKMYwNq5VhR03adrjJAGSjeFQd0UBLQfm2dAQ2CGecbyTXkyMcxaxoNuQ-uxs5YcBvhdRLQRHDMf4FtUTA1SQiPVLgCUmuZfPX2jtfH6dJREWkGXTQOyCSBBanknsTjwtHIJ-1M7jvgTSucZW7duQjL4i_O8pdgy_DphMiOb4MQuYlL739HTkLCs5a-MHyX3cNmCeUJoGwThI-2qZYBbKQdLjjR-j869_I1nK9rnHpklt3_ijMeCROVEqy_DLb1jVAdVD0QhBO7dfDAoqgEJ34ajyiavmqkVyeNGHCZS7DpqxsvgMzM8l7LDWSKVLhrQ6RxPjbnMcuJNSZUPbmA-4aVEmYnTXDYLGjPewohO9jWjPjrcThPQXlEgj7tGP_TzWVV-ZymCHH3kKBFBxOIQXvL95jo5ySKN23EFcc3SyeN2-w_iQbmumdJPEfjAMpkkcziFKs80ds2xOW-h0kiTkV0DSY239sUC4t6NGM-XsgyG8wNz8YLz92JWbTLmeFqqx0c2yBbCceWg2fIfxO5P4chmNoOXIxtsQ43Knwwge7FLeDvV048Um4_08STuj01bybG1PZFX7BIIA1PxTeDdFIpkSg-Vcp4Tk77AtAJSgaj94wT1ZiwEigcXfa2bsGjMTHCtHXvW9nvMV_9jkrwv0_yfTFfr2c9ziIKHTINTKk_C7QTQjJL4TLC8uZMBNub6VhrHdegZpd4e814JqCHkWTk08RSaogvgOICt5J6FvJRhfPglSlQl3qV_qK_tW97J0E28IqHsQaI6Q7_2n8JG5MGSXgTlikv6qAg-VvJToOcb6R75liIXtkEcDOYhaFn9x3MIR6XVkdVzn-l1cpO7utkxh-yhwVkxK-aypQUee3nb2y4zYTSVnxbH2fPHqx0xNcov32RUxe52nNeHPtKkiTMr4mLZB_HqFYPbZhgfa3htQfMMvyK1NEhbdo3fXUXPBnUjlSR9BVeSf-s-1XzlT2ZszPekDn9UuvR9swWVWW6Ws3E7RcY2spAAI4CrhYqhdo18yShmBwXpKHZcK8UoIXR-dZni8zw34Pd5TvU2-69HRZ0SURGF4CVw_iYW3z2y6n8xZoSSRuIjbZYnXymRDBFgBbF3HuFCSm6GmFas7Lv4FocERQEZqtdzw99mlwgPR8LJyCe2o87iJIuh90XIK9Ib36q_eAx-3J2YNQ5qyMBKWN_0x_sjodvYaujBJUfclNjbLN616HOtDETG1oo-qc3i0xOqx3FkbV3_higmD3FLYWyvcxiTXQrbGFsLLzzX1ExtnNuWBEyswun5dc3ho30HCeg_HI0pGCmE5kctcRcsCzuK4U8vduTstVL7Ttzzsxq_SVjmurNlPKgeat038iZKDXQ4TvFwxKCUisJiioV5haiYBN0WiRASo9bp3Ecu1HCUxtlbRjbZJbSYGNMGko_x6bGWJeIoYt5xyGk7_P_VUhVTz-NKWSwaowmX862pxeK_QIC-KI-GC70gAvBae-MiBIbj8-pPbnJLw4jjqXtahEuYzNbItS7pBwdiabIXTZZYa-oYMsKJ4wwwuAjDzjI6pF8luOGmdQqOTmW1s8AsDhBwkkqWgG7Bdyh2xjLHH1XxP9PCSKNojDYSd-iG7-4AMu9rEuBMTwXzXFDlT5SsCyU105hbREvnWM-mA2ToI5S8NHcxvpExybyHExrlmqUld_jtu_UUTpbYiOsYePwU_nKYH0tpt8uEvoArr_83qd9H7Z3t92bFsL6XL89ZygZ4goJjm9AtebhfXnZhQPHC9jHpSuwWqmBgPeoU1SctNHJVLrXMvhYlDlEiIiNI-dj9Fn6k3iCmYxtdUrOGyoNT5nkPEVAq2cjYwnkFgqxswRCFGggdD3s7EpdwCQcStfzPPjQuskLpWSCXm5eh-CarG9-CJMKRjg5DgXu2wzybeHumsYzenqDXK4HCz_h7oQ_GqKgO6-vKieNar11nGvtO2uFEO2vTLJkVOyed7ip5ofiqlt1YPOnN8iTlDykoiW_VPh4zV_vSv5Lfv1WNC7_r-OzuTbkY1dsgTl-q6sFqzBwNAiDhhu_F8t6lzsDRiU3FfvzFThRg5_XgeNpA6bjXucDhIQh5y7qnxbqSQ2pjDw8b_9OrA6TV8iOnByGtGZikOUgpZINXoKrAExYJH7Olj2_wRy9f3Iw6nxQVz27oKk_vnXc27kJGzkPc2IzoSuA8AD7SCUF6KCYTlezGvhJu5eGoY1BckYlWIPrNMVCXX1OXhEtEdxSVpMSRvdM4-Y70n3nrKPOXIYKSCv58Y9t9bOs7EzIgHWIIuV4-g6OM4bChEgWu6CsYAPVYQBnFm00]--></g></svg>