<?xml version="1.0" encoding="us-ascii" standalone="no"?><svg xmlns="http://www.w3.org/2000/svg" xmlns:xlink="http://www.w3.org/1999/xlink" contentStyleType="text/css" height="850px" preserveAspectRatio="none" style="width:969px;height:850px;" version="1.1" viewBox="0 0 969 850" width="969px" zoomAndPan="magnify"><defs/><g><rect fill="none" height="848.5859" style="stroke:none;stroke-width:1.0;" width="967" x="0" y="0"/><rect fill="#FFFFFF" height="838.5859" style="stroke:#A0439C;stroke-width:0.5;" width="340" x="246" y="6"/><text fill="#A0439C" font-family="sans-serif" font-size="13" font-weight="bold" lengthAdjust="spacing" textLength="27" x="402.5" y="20.0669">Box</text><line style="stroke:#E91E63;stroke-width:1.0;" x1="241.5" x2="241.5" y1="660.4844" y2="766.4844"/><polygon fill="#E91E63" points="237.5,670.4844,241.5,660.4844,245.5,670.4844,241.5,666.4844" style="stroke:#E91E63;stroke-width:1.0;"/><polygon fill="#E91E63" points="237.5,756.4844,241.5,766.4844,245.5,756.4844,241.5,760.4844" style="stroke:#E91E63;stroke-width:1.0;"/><text fill="#E91E63" font-family="sans-serif" font-size="13" lengthAdjust="spacing" textLength="30" x="247.5" y="717.9849">label</text><line style="stroke:#1168BD;stroke-width:0.5;" x1="62" x2="62" y1="126.7266" y2="607.6797"/><line style="stroke:#A80036;stroke-width:1.0;stroke-dasharray:1.0,4.0;" x1="62" x2="62" y1="607.6797" y2="652.4844"/><line style="stroke:#1168BD;stroke-width:0.5;" x1="62" x2="62" y1="652.4844" y2="838.5859"/><line style="stroke:#1168BD;stroke-width:0.5;" x1="181" x2="181" y1="126.7266" y2="607.6797"/><line style="stroke:#A80036;stroke-width:1.0;stroke-dasharray:1.0,4.0;" x1="181" x2="181" y1="607.6797" y2="652.4844"/><line style="stroke:#1168BD;stroke-width:0.5;" x1="181" x2="181" y1="652.4844" y2="838.5859"/><line style="stroke:#1168BD;stroke-width:0.5;" x1="302" x2="302" y1="126.7266" y2="607.6797"/><line style="stroke:#A80036;stroke-width:1.0;stroke-dasharray:1.0,4.0;" x1="302" x2="302" y1="607.6797" y2="652.4844"/><line style="stroke:#1168BD;stroke-width:0.5;" x1="302" x2="302" y1="652.4844" y2="838.5859"/><rect fill="#217EE7" height="110" style="stroke:#1168BD;stroke-width:1.0;" width="10" x="297" y="658.4844"/><rect fill="#217EE7" height="56" style="stroke:#1168BD;stroke-width:1.0;" width="10" x="302" y="685.4844"/><line style="stroke:#1168BD;stroke-width:0.5;" x1="416" x2="416" y1="126.7266" y2="607.6797"/><line style="stroke:#A80036;stroke-width:1.0;stroke-dasharray:1.0,4.0;" x1="416" x2="416" y1="607.6797" y2="652.4844"/><line style="stroke:#1168BD;stroke-width:0.5;" x1="416" x2="416" y1="652.4844" y2="838.5859"/><rect fill="#217EE7" height="28" style="stroke:#1168BD;stroke-width:1.0;" width="10" x="411" y="699.4844"/><line style="stroke:#1168BD;stroke-width:0.5;" x1="530" x2="530" y1="126.7266" y2="607.6797"/><line style="stroke:#A80036;stroke-width:1.0;stroke-dasharray:1.0,4.0;" x1="530" x2="530" y1="607.6797" y2="652.4844"/><line style="stroke:#1168BD;stroke-width:0.5;" x1="530" x2="530" y1="652.4844" y2="838.5859"/><line style="stroke:#1168BD;stroke-width:2.0;" x1="521" x2="539" y1="704.4844" y2="722.4844"/><line style="stroke:#1168BD;stroke-width:2.0;" x1="521" x2="539" y1="722.4844" y2="704.4844"/><line style="stroke:#1168BD;stroke-width:0.5;" x1="654" x2="654" y1="126.7266" y2="607.6797"/><line style="stroke:#A80036;stroke-width:1.0;stroke-dasharray:1.0,4.0;" x1="654" x2="654" y1="607.6797" y2="652.4844"/><line style="stroke:#1168BD;stroke-width:0.5;" x1="654" x2="654" y1="652.4844" y2="838.5859"/><rect fill="#217EE7" height="28" style="stroke:#1168BD;stroke-width:1.0;" width="10" x="649" y="405.7422"/><line style="stroke:#1168BD;stroke-width:0.5;" x1="775" x2="775" y1="126.7266" y2="607.6797"/><line style="stroke:#A80036;stroke-width:1.0;stroke-dasharray:1.0,4.0;" x1="775" x2="775" y1="607.6797" y2="652.4844"/><line style="stroke:#1168BD;stroke-width:0.5;" x1="775" x2="775" y1="652.4844" y2="838.5859"/><line style="stroke:#1168BD;stroke-width:0.5;" x1="903" x2="903" y1="126.7266" y2="607.6797"/><line style="stroke:#A80036;stroke-width:1.0;stroke-dasharray:1.0,4.0;" x1="903" x2="903" y1="607.6797" y2="652.4844"/><line style="stroke:#1168BD;stroke-width:0.5;" x1="903" x2="903" y1="652.4844" y2="838.5859"/><rect fill="#08427B" height="50.5938" rx="2.5" ry="2.5" style="stroke:#08427B;stroke-width:0.5;" width="114" x="5" y="75.1328"/><text fill="#FFFFFF" font-family="sans-serif" font-size="14" font-style="italic" lengthAdjust="spacing" textLength="94" x="15" y="97.1279">&#171;Stereotype&#187;</text><text fill="#FFFFFF" font-family="sans-serif" font-size="14" lengthAdjust="spacing" textLength="72" x="26" y="113.4248">Participant</text><text fill="#08427B" font-family="sans-serif" font-size="14" font-style="italic" lengthAdjust="spacing" textLength="94" x="131" y="105.1279">&#171;Stereotype&#187;</text><text fill="#08427B" font-family="sans-serif" font-size="14" lengthAdjust="spacing" textLength="36" x="160" y="121.4248">Actor</text><ellipse cx="181" cy="45.6328" fill="#08427B" rx="16" ry="16" style="stroke:#08427B;stroke-width:0.5;"/><path d="M181,65.6328 C185,65.6328 188,65.6328 192,61.6328 C200,61.6328 208,69.6328 208,77.6328 L208,81.6328 C208,85.6328 204,89.6328 200,89.6328 L162,89.6328 C158,89.6328 154,85.6328 154,81.6328 L154,77.6328 C154,69.6328 162,61.6328 170,61.6328 C174,65.6328 177,65.6328 181,65.6328 " fill="#08427B" style="stroke:#08427B;stroke-width:0.5;"/><text fill="#08427B" font-family="sans-serif" font-size="14" font-style="italic" lengthAdjust="spacing" textLength="94" x="252" y="105.1279">&#171;Stereotype&#187;</text><text fill="#08427B" font-family="sans-serif" font-size="14" lengthAdjust="spacing" textLength="66" x="266" y="121.4248">Boundary</text><path d="M281.5,62.1328 L281.5,86.1328 M281.5,74.1328 L298.5,74.1328 " fill="none" style="stroke:#08427B;stroke-width:0.5;"/><ellipse cx="310.5" cy="74.1328" fill="#FFFFFF" rx="12" ry="12" style="stroke:#08427B;stroke-width:0.5;"/><text fill="#08427B" font-family="sans-serif" font-size="14" font-style="italic" lengthAdjust="spacing" textLength="94" x="366" y="105.1279">&#171;Stereotype&#187;</text><text fill="#08427B" font-family="sans-serif" font-size="14" lengthAdjust="spacing" textLength="50" x="388" y="121.4248">Control</text><ellipse cx="416" cy="74.1328" fill="#FFFFFF" rx="12" ry="12" style="stroke:#08427B;stroke-width:0.5;"/><polygon fill="#08427B" points="412,62.1328,418,57.1328,416,62.1328,418,67.1328,412,62.1328" style="stroke:#08427B;stroke-width:1.0;"/><text fill="#08427B" font-family="sans-serif" font-size="14" font-style="italic" lengthAdjust="spacing" textLength="94" x="480" y="105.1279">&#171;Stereotype&#187;</text><text fill="#08427B" font-family="sans-serif" font-size="14" lengthAdjust="spacing" textLength="38" x="508" y="121.4248">Entity</text><ellipse cx="530" cy="74.1328" fill="#FFFFFF" rx="12" ry="12" style="stroke:#08427B;stroke-width:0.5;"/><line style="stroke:#08427B;stroke-width:0.5;" x1="518" x2="542" y1="88.1328" y2="88.1328"/><text fill="#08427B" font-family="sans-serif" font-size="14" font-style="italic" lengthAdjust="spacing" textLength="94" x="604" y="105.1279">&#171;Stereotype&#187;</text><text fill="#08427B" font-family="sans-serif" font-size="14" lengthAdjust="spacing" textLength="66" x="618" y="121.4248">Database</text><path d="M636,54.1328 C636,44.1328 654,44.1328 654,44.1328 C654,44.1328 672,44.1328 672,54.1328 L672,80.1328 C672,90.1328 654,90.1328 654,90.1328 C654,90.1328 636,90.1328 636,80.1328 L636,54.1328 " fill="#08427B" style="stroke:#FFFFFF;stroke-width:1.5;"/><path d="M636,54.1328 C636,64.1328 654,64.1328 654,64.1328 C654,64.1328 672,64.1328 672,54.1328 " fill="none" style="stroke:#FFFFFF;stroke-width:1.5;"/><rect fill="#08427B" height="50.5938" style="stroke:#08427B;stroke-width:0.5;" width="114" x="720" y="71.1328"/><rect fill="#08427B" height="50.5938" style="stroke:#08427B;stroke-width:0.5;" width="114" x="716" y="75.1328"/><text fill="#FFFFFF" font-family="sans-serif" font-size="14" font-style="italic" lengthAdjust="spacing" textLength="94" x="726" y="97.1279">&#171;Stereotype&#187;</text><text fill="#FFFFFF" font-family="sans-serif" font-size="14" lengthAdjust="spacing" textLength="76" x="735" y="113.4248">Collections</text><path d="M849,80.1328 L957,80.1328 C962,80.1328 962,103.4297 962,103.4297 C962,103.4297 962,126.7266 957,126.7266 L849,126.7266 C844,126.7266 844,103.4297 844,103.4297 C844,103.4297 844,80.1328 849,80.1328 " fill="#08427B" style="stroke:#08427B;stroke-width:0.5;"/><path d="M957,80.1328 C952,80.1328 952,103.4297 952,103.4297 C952,126.7266 957,126.7266 957,126.7266 " fill="none" style="stroke:#08427B;stroke-width:0.5;"/><text fill="#FFFFFF" font-family="sans-serif" font-size="14" font-style="italic" lengthAdjust="spacing" textLength="94" x="851" y="100.1279">&#171;Stereotype&#187;</text><text fill="#FFFFFF" font-family="sans-serif" font-size="14" lengthAdjust="spacing" textLength="47" x="874.5" y="116.4248">Queue</text><polygon fill="#E91E63" points="169,155.8594,179,159.8594,169,163.8594,173,159.8594" style="stroke:#E91E63;stroke-width:1.0;"/><line style="stroke:#E91E63;stroke-width:1.0;" x1="62" x2="175" y1="159.8594" y2="159.8594"/><text fill="#E91E63" font-family="sans-serif" font-size="13" font-weight="bold" lengthAdjust="spacing" textLength="9" x="84.5" y="152.7935">1</text><text fill="#E91E63" font-family="sans-serif" font-size="13" lengthAdjust="spacing" textLength="57" x="101.5" y="152.7935">Message</text><path d="M165,171.8594 L233,171.8594 L233,182.9922 L223,192.9922 L165,192.9922 L165,171.8594 " fill="#E18114" style="stroke:#E18114;stroke-width:1.5;"/><rect fill="none" height="374.6875" style="stroke:#E18114;stroke-width:1.5;" width="676" x="165" y="171.8594"/><text fill="#FFFFFF" font-family="sans-serif" font-size="13" font-weight="bold" lengthAdjust="spacing" textLength="19" x="182" y="186.9263">alt</text><text fill="#E18114" font-family="sans-serif" font-size="11" font-weight="bold" lengthAdjust="spacing" textLength="75" x="250" y="186.0698">[Main case]</text><line style="stroke:#E18114;stroke-width:1.0;stroke-dasharray:2.0,2.0;" x1="165" x2="841" y1="248.9297" y2="248.9297"/><text fill="#E18114" font-family="sans-serif" font-size="11" font-weight="bold" lengthAdjust="spacing" textLength="135" x="172" y="263.1401">[Alternative case #1]</text><line style="stroke:#E18114;stroke-width:1.0;stroke-dasharray:2.0,2.0;" x1="165" x2="841" y1="508.7422" y2="508.7422"/><text fill="#E18114" font-family="sans-serif" font-size="11" font-weight="bold" lengthAdjust="spacing" textLength="135" x="172" y="522.9526">[Alternative case #2]</text><polygon fill="#E91E63" points="290,225.9297,300,229.9297,290,233.9297,294,229.9297" style="stroke:#E91E63;stroke-width:1.0;"/><line style="stroke:#E91E63;stroke-width:1.0;" x1="181" x2="296" y1="229.9297" y2="229.9297"/><text fill="#E91E63" font-family="sans-serif" font-size="13" lengthAdjust="spacing" textLength="93" x="195" y="222.8638">Main message</text><polygon fill="#E91E63" points="404,293.8672,414,297.8672,404,301.8672,408,297.8672" style="stroke:#E91E63;stroke-width:1.0;"/><line style="stroke:#E91E63;stroke-width:1.0;" x1="181" x2="410" y1="297.8672" y2="297.8672"/><text fill="#E91E63" font-family="sans-serif" font-size="13" lengthAdjust="spacing" textLength="132" x="232.5" y="290.8013">Alternative message</text><path d="M421,277.7344 L421,306.7344 L551,306.7344 L551,287.7344 L541,277.7344 L421,277.7344 " fill="#999999" style="stroke:#999999;stroke-width:0.5;"/><path d="M541,277.7344 L541,287.7344 L551,287.7344 L541,277.7344 " fill="#999999" style="stroke:#999999;stroke-width:0.5;"/><text fill="#FFFFFF" font-family="sans-serif" font-size="13" lengthAdjust="spacing" textLength="31" x="470.5" y="296.8013">Note</text><path d="M400,315.8672 L498,315.8672 L498,327 L488,337 L400,337 L400,315.8672 " fill="#E18114" style="stroke:#E18114;stroke-width:1.5;"/><rect fill="none" height="167.875" style="stroke:#E18114;stroke-width:1.5;" width="416" x="400" y="315.8672"/><text fill="#FFFFFF" font-family="sans-serif" font-size="13" font-weight="bold" lengthAdjust="spacing" textLength="44" x="417" y="330.9341">group</text><text fill="#E18114" font-family="sans-serif" font-size="11" font-weight="bold" lengthAdjust="spacing" textLength="79" x="515" y="330.0776">[Extra label]</text><polygon fill="#E91E63" points="518,350.8047,528,354.8047,518,358.8047,522,354.8047" style="stroke:#E91E63;stroke-width:1.0;"/><line style="stroke:#E91E63;stroke-width:1.0;" x1="416" x2="524" y1="354.8047" y2="354.8047"/><path d="M514,366.8047 L595,366.8047 L595,377.9375 L585,387.9375 L514,387.9375 L514,366.8047 " fill="#E18114" style="stroke:#E18114;stroke-width:1.5;"/><rect fill="none" height="88.9375" style="stroke:#E18114;stroke-width:1.5;" width="277" x="514" y="366.8047"/><text fill="#FFFFFF" font-family="sans-serif" font-size="13" font-weight="bold" lengthAdjust="spacing" textLength="32" x="531" y="381.8716">loop</text><text fill="#E18114" font-family="sans-serif" font-size="11" font-weight="bold" lengthAdjust="spacing" textLength="81" x="612" y="381.0151">[1000 times]</text><polygon fill="#E91E63" points="637,401.7422,647,405.7422,637,409.7422,641,405.7422" style="stroke:#E91E63;stroke-width:1.0;"/><line style="stroke:#E91E63;stroke-width:1.0;" x1="530" x2="643" y1="405.7422" y2="405.7422"/><polygon fill="#E91E63" points="763,415.7422,773,419.7422,763,423.7422,767,419.7422" style="stroke:#E91E63;stroke-width:1.0;"/><line style="stroke:#E91E63;stroke-width:1.0;" x1="530" x2="769" y1="419.7422" y2="419.7422"/><polygon fill="#E91E63" points="541,429.7422,531,433.7422,541,437.7422,537,433.7422" style="stroke:#E91E63;stroke-width:1.0;"/><line style="stroke:#E91E63;stroke-width:1.0;stroke-dasharray:2.0,2.0;" x1="535" x2="648" y1="433.7422" y2="433.7422"/><polygon fill="#E91E63" points="541,443.7422,531,447.7422,541,451.7422,537,447.7422" style="stroke:#E91E63;stroke-width:1.0;"/><line style="stroke:#E91E63;stroke-width:1.0;" x1="535" x2="774" y1="447.7422" y2="447.7422"/><polygon fill="#E91E63" points="763,471.7422,773,475.7422,763,479.7422,767,475.7422" style="stroke:#E91E63;stroke-width:1.0;"/><line style="stroke:#E91E63;stroke-width:1.0;" x1="654" x2="769" y1="475.7422" y2="475.7422"/><polygon fill="#E91E63" points="192,534.5469,182,538.5469,192,542.5469,188,538.5469" style="stroke:#E91E63;stroke-width:1.0;"/><line style="stroke:#E91E63;stroke-width:1.0;" x1="186" x2="774" y1="538.5469" y2="538.5469"/><rect fill="#41AF46" height="3" style="stroke:#41AF46;stroke-width:1.0;" width="957" x="5" y="583.1133"/><line style="stroke:#41AF46;stroke-width:1.0;" x1="5" x2="962" y1="583.1133" y2="583.1133"/><line style="stroke:#41AF46;stroke-width:1.0;" x1="5" x2="962" y1="586.1133" y2="586.1133"/><rect fill="#41AF46" height="27.1328" style="stroke:#41AF46;stroke-width:2.0;" width="75" x="446" y="570.5469"/><text fill="#FFFFFF" font-family="sans-serif" font-size="13" font-weight="bold" lengthAdjust="spacing" textLength="52" x="454" y="588.6138">Divider</text><text fill="#41AF46" font-family="sans-serif" font-size="11" lengthAdjust="spacing" textLength="30" x="467.5" y="633.8901">delay</text><polygon fill="#E91E63" points="285,654.4844,295,658.4844,285,662.4844,289,658.4844" style="stroke:#E91E63;stroke-width:1.0;"/><line style="stroke:#E91E63;stroke-width:1.0;" x1="181" x2="291" y1="658.4844" y2="658.4844"/><line style="stroke:#E91E63;stroke-width:1.0;" x1="307" x2="354" y1="672.4844" y2="672.4844"/><line style="stroke:#E91E63;stroke-width:1.0;" x1="354" x2="354" y1="672.4844" y2="685.4844"/><line style="stroke:#E91E63;stroke-width:1.0;" x1="313" x2="354" y1="685.4844" y2="685.4844"/><polygon fill="#E91E63" points="323,681.4844,313,685.4844,323,689.4844,319,685.4844" style="stroke:#E91E63;stroke-width:1.0;"/><polygon fill="#E91E63" points="399,695.4844,409,699.4844,399,703.4844,403,699.4844" style="stroke:#E91E63;stroke-width:1.0;"/><line style="stroke:#E91E63;stroke-width:1.0;" x1="312" x2="405" y1="699.4844" y2="699.4844"/><polygon fill="#E91E63" points="518,709.4844,528,713.4844,518,717.4844,522,713.4844" style="stroke:#E91E63;stroke-width:1.0;"/><line style="stroke:#E91E63;stroke-width:1.0;" x1="421" x2="524" y1="713.4844" y2="713.4844"/><polygon fill="#E91E63" points="323,723.4844,313,727.4844,323,731.4844,319,727.4844" style="stroke:#E91E63;stroke-width:1.0;"/><line style="stroke:#E91E63;stroke-width:1.0;stroke-dasharray:2.0,2.0;" x1="317" x2="410" y1="727.4844" y2="727.4844"/><line style="stroke:#E91E63;stroke-width:1.0;stroke-dasharray:2.0,2.0;" x1="312" x2="354" y1="741.4844" y2="741.4844"/><line style="stroke:#E91E63;stroke-width:1.0;stroke-dasharray:2.0,2.0;" x1="354" x2="354" y1="741.4844" y2="754.4844"/><line style="stroke:#E91E63;stroke-width:1.0;stroke-dasharray:2.0,2.0;" x1="307" x2="354" y1="754.4844" y2="754.4844"/><polygon fill="#E91E63" points="317,750.4844,307,754.4844,317,758.4844,313,754.4844" style="stroke:#E91E63;stroke-width:1.0;"/><polygon fill="#E91E63" points="192,764.4844,182,768.4844,192,772.4844,188,768.4844" style="stroke:#E91E63;stroke-width:1.0;"/><line style="stroke:#E91E63;stroke-width:1.0;stroke-dasharray:2.0,2.0;" x1="186" x2="296" y1="768.4844" y2="768.4844"/><rect fill="#FFFFFF" height="47.1016" style="stroke:#A0439C;stroke-width:1.5;" width="224" x="480" y="776.4844"/><path d="M480,776.4844 L550,776.4844 L550,787.4844 L540,797.4844 L480,797.4844 L480,776.4844 " fill="#FFFFFF" style="stroke:#A0439C;stroke-width:2.0;"/><text fill="#A0439C" font-family="sans-serif" font-size="13" font-weight="bold" lengthAdjust="spacing" textLength="21" x="495" y="792.5513">ref</text><text fill="#A0439C" font-family="sans-serif" font-size="12" lengthAdjust="spacing" textLength="61" x="561.5" y="814.623">reference</text><line style="stroke:#E91E63;stroke-width:1.0;" x1="241.5" x2="241.5" y1="660.4844" y2="766.4844"/><polygon fill="#E91E63" points="237.5,670.4844,241.5,660.4844,245.5,670.4844,241.5,666.4844" style="stroke:#E91E63;stroke-width:1.0;"/><polygon fill="#E91E63" points="237.5,756.4844,241.5,766.4844,245.5,756.4844,241.5,760.4844" style="stroke:#E91E63;stroke-width:1.0;"/><text fill="#E91E63" font-family="sans-serif" font-size="13" lengthAdjust="spacing" textLength="30" x="247.5" y="717.9849">label</text><!--SRC=[rLfRKnkv4dwVNo7OhU9X2M339k0bL75BibM4S21Rv-7KgQmyqxQrp8oyaWRZJUM_dvOqCvRcPiWXmJ5LU3pTwcvzVL5BCnlaHirZbew91ANmMv8H5-Ggfgdwu_q5YHWT2vh8O8FS0929KjF1zlPKaxCatf8y4o7WY35ifQ3Cs8Y7MGAfeehn5CTzv6IC94fY9XNX8pBbKh9X34JUidHAKNofV9E8B1sGGZvvWHVZZ8u1vQ3eK01LWA9A-qOCvSoOcf2_CfJ-PoaI50ZvPn2iiJICimZ8eSgcD1AxsoEUgXTq1f8di9r9P3iAKFpfXuiFrpTuyVg17pre32a86fEGnrmWT88dXCzI8X5Ka1C05QpzZ81yqae_6Ixocgp_jB-Z_zQHI8NWCuS21prukQifw9LRXx2xTx1_ThAkjIRq5a684fuoZN6XdTvH5bCDh7O3nA2z8BMEAFaKqappEWBfpjxkGRXUeNiiez6eeBDaoeMYtYoYtVwety3H9YFb2XnAl_SAu9L7R1kfsDGXxFNeQE-bIsiRDwCYnRXoyUtjztfxLNfzFCASyWW-zJRjTv_GD2BQIA8G_jJw-dJFk1f5e43BxmZQsT_hlngkBqXDPbhfplrUx-N-C7987QDeTjzlY15Dzw0-E3WexpRE5VEW8Q9q774r0I-QOZvcOIcY3dF9uYXg11iPnu9dKv_B2zIIfIgh6guwpTWTYq3uV6NWE0nLMMu0QIpUdb-UNnzVa9lpZnz_ltpxk9gmzlEGHtERxoEQi7YkSPOqbI-mr314UuC03IS5eYIagQcFJ4bJEjxWo4kiNvlcweRzKrpfalARZa1qL0Gw5cT1i2YX9pIyrLYbqQcPd1Ae4qcem-4wi_NyX0j4eelntNmAGfSWo-HK8uHemOOHmyC9fWAcXSZ04I0dDE8plRACQ2nToZlCf9bWIkaigj2kS6vwJDzLSgrd5NA1jPRywZ2_PobBikJVBCBwtzlPSU4uWn7DOaK-1yJ0bq_3hyKvJSDDQdxBYGPt15iaDCPR7-5U7STid5hduJyGmHTNSyn6W6Z13GAhO3mdaiSiqe4LSP36WH8W8OgJ6HUtv8vHScWMZ2Co1pLmPU6Y-tS6QGXlTHQOoP2QfzsCj0oETsl4Tq2Hw43Y9oloUBCf3BY64GXzqMQ4dwTrEvnKDqJ7WYh9chXSmvT6gCvichVPwPM9kfbriXizbGfIi-4F2I6L1KOt61l05MQI8wDIrAiYZaF5hUqsyF96HOTO7YH8shBhITiKtON8S5nWEBRHggRrV1-spw7dJg2mgTzfKx_3fdw7JVs7sjIls6HY-w5furXK9NMbIuizlWXhZebWNTuwSwZHegNfizmYNuIrA7fiiZWcFJPLMiogYh66XJmn5ROrd8h-fXvC7iMB4AVxwGeaHu0r9kyIsepn6usArbg7uGer_MI7rFR9r5fcJsxUQdM9zdks1kcrTirLaFTVNGhyHgv1GQs7SnMKkuak5PLDIPEI-gwaK6DsNhbq9twS3LbDdaSoGh1SO_Yg-MgKlPoD2jLMxS_R5uaJAjfB5_QDsEf5prbAFRwM5g6fbo7EclhqY-LNh9J7uyx2zWphvB5GR4J3rJBgH1j0nNo9uppXtznt9_p-4GtmOzRlhsf_2Jcb8befjvt6F8k-CKPM4OzZ2FKA8hzz8vnhnCKaNRNaFKMouF5AfSaPLNIus0WjTyoINKZTuAflpY2cHQbOrbnkc4sutdph7Wdtt6Q1-twDi37YF5NB-eRlxRKt-Z1zbKBx3OyxVF8y1VUDVhYmMYPvXqCycZzfU_ROtinOz0xkwRXzUx3QxUBl-amFso7eDh_Doq-3w5VQVf4VFZvYKzcUo4RY9TvRhN2_xDWqFyMvW57oOVWNh5X3V8LMq35yZzxg2hUGB6HJkgJNURhUocZiEb9udbYx0Y7RRVh-UyShBjGFM9R-bK46zREMXZE8_wjHDBgkCMzfEexX1rjz3Ek6VeGG4PRgHyi9JZ2M0qFO6lhRuOVvltDodJ7ma0T5Zma3xPpSGJSAkLUgig95wccMpAUqYOkEQlyyECrO4jEq8PCVj0NoPFcFofvjVjNg8SkdYEP1UMvU_KcpJLRCKreEALwMsYHgWZ-ABN1CXn0J9Wb-yHbXQjDiF_aTxcoO-ir8gkoNknSBOwVvbx0qIkZKjxNhHG1DJnSDtKDmxqP-AVQ87RrtiFjrPp47GeRyFWOfMwVTRweViw7qP_nZp-XmEt-kgryGI3SKaHCCa-cY0vE4AW9ffD-TAruk22QOKMJ4kKA5GU1mUxtRuU4Yze-E0ceEmkt77efN652OFk8CoiM6EEUm5TumFtVId-8Cgi82zeo3s2SFvhh64Md8WZ9Rt6IeALmS-Bc7VnMslqslOJ-sxwWm13HJFCsI8OZ01Ul5aGLbGDwZ1_LBXmj68XMVuiXOeVSnwtNfAfyiuC0If86b9xa4NB-17CUeFgMAtO4PI7xgkMCBy0OUOo61s9VE11jFrC3iVNIWcMur__-VytlCSLjd_Xkuxa3X5dORcp7dKrszTeXYA3wFqD8ro5r2_yil3LG7z98gG6KYBN-wVbbernJqTE3Nkff4pT82M3-eoJRu1KRiwzVb-Pr-1sjhQolInu7u7GHhKrn64qeKy7_iEqgVwPS6nvaPbxzg59zM05p2L4EShAq57ZxvnUVX5qTICGsyCcOTuWta65Xd1e60aLqehD3D4hm1oijVoFaV]--></g></svg>