<?xml version="1.0" encoding="UTF-8" standalone="no"?><svg xmlns="http://www.w3.org/2000/svg" xmlns:xlink="http://www.w3.org/1999/xlink" contentScriptType="application/ecmascript" contentStyleType="text/css" height="336px" preserveAspectRatio="none" style="width:225px;height:336px;background:#FFFFFF;" version="1.1" viewBox="0 0 225 336" width="225px" zoomAndPan="magnify"><defs><filter height="300%" id="f1jhb7byfy1myg" width="300%" x="-1" y="-1"><feGaussianBlur result="blurOut" stdDeviation="2.0"/><feColorMatrix in="blurOut" result="blurOut2" type="matrix" values="0 0 0 0 0 0 0 0 0 0 0 0 0 0 0 0 0 0 .4 0"/><feOffset dx="4.0" dy="4.0" in="blurOut2" result="blurOut3"/><feBlend in="SourceGraphic" in2="blurOut3" mode="normal"/></filter></defs><g><!--MD5=[94aedccb8cc96a5518789508ee38c62c]
cluster Package--><polygon fill="#FFFFFF" filter="url(#f1jhb7byfy1myg)" points="16,122.3,80,122.3,87,145.0999,168,145.0999,168,243.3,16,243.3,16,122.3" style="stroke:#000000;stroke-width:1.5;"/><line style="stroke:#000000;stroke-width:1.5;" x1="16" x2="87" y1="145.0999" y2="145.0999"/><text fill="#000000" font-family="sans-serif" font-size="14" font-weight="bold" lengthAdjust="spacing" textLength="58" x="20" y="138.2999">Package</text><text fill="#000000" font-family="sans-serif" font-size="14" font-style="italic" lengthAdjust="spacing" textLength="81" x="55.5" y="161.0999">«Stereotype»</text><ellipse cx="91.9981" cy="200.7361" fill="#FEFECE" filter="url(#f1jhb7byfy1myg)" rx="59.4981" ry="26.4361" style="stroke:#A80036;stroke-width:1.5;"/><text fill="#000000" font-family="sans-serif" font-size="14" font-style="italic" lengthAdjust="spacing" textLength="81" x="51.4981" y="197.6955">«Stereotype»</text><text fill="#000000" font-family="sans-serif" font-size="14" lengthAdjust="spacing" textLength="57" x="63.4981" y="214.4954">Use case</text><!--MD5=[19d16784bb5a3b3b7f2ed42a6c2fedf0]
entity Actor--><ellipse cx="92" cy="33.5999" fill="#FEFECE" filter="url(#f1jhb7byfy1myg)" rx="8" ry="8" style="stroke:#A80036;stroke-width:1.5;"/><path d="M92,41.5999 L92,68.5999 M79,49.5999 L105,49.5999 M92,68.5999 L79,83.5999 M92,68.5999 L105,83.5999 " fill="none" filter="url(#f1jhb7byfy1myg)" style="stroke:#A80036;stroke-width:1.5;"/><text fill="#000000" font-family="sans-serif" font-size="14" lengthAdjust="spacing" textLength="32" x="76" y="103.0999">Actor</text><text fill="#000000" font-family="sans-serif" font-size="14" font-style="italic" lengthAdjust="spacing" textLength="81" x="51.5" y="21.2999">«Stereotype»</text><path d="M168,43.8 L168,52.8 L132.62,56.8 L168,60.8 L168,69.4 A0,0 0 0 0 168,69.4 L216,69.4 A0,0 0 0 0 216,69.4 L216,53.8 L206,43.8 L168,43.8 A0,0 0 0 0 168,43.8 " fill="#FBFB77" filter="url(#f1jhb7byfy1myg)" style="stroke:#A80036;stroke-width:1.0;"/><path d="M206,43.8 L206,53.8 L216,53.8 L206,43.8 " fill="#FBFB77" style="stroke:#A80036;stroke-width:1.0;"/><text fill="#000000" font-family="sans-serif" font-size="13" lengthAdjust="spacing" textLength="27" x="174" y="61.8">Note</text><ellipse cx="92.2303" cy="305.9461" fill="#FEFECE" filter="url(#f1jhb7byfy1myg)" rx="81.2303" ry="18.6461" style="stroke:#A80036;stroke-width:1.5;"/><text fill="#000000" font-family="sans-serif" font-size="14" lengthAdjust="spacing" textLength="120" x="32.2303" y="309.546">Additional use case</text><!--MD5=[285bc26d9ac8303d53dfc210f76db585]
link Actor to UseCase--><path d="M92,106.67 C92,127.17 92,150.41 92,168.54 " fill="none" id="Actor-to-UseCase" style="stroke:#A80036;stroke-width:1.0;"/><polygon fill="#A80036" points="92,174,96,165,92,169,88,165,92,174" style="stroke:#A80036;stroke-width:1.0;"/><!--MD5=[67a799db911609346b00c67d0bb2bf73]
reverse link UseCase to UseCase2--><path d="M92,247.76 C92,261.74 92,276.26 92,287.15 " fill="none" id="UseCase-backto-UseCase2" style="stroke:#A80036;stroke-width:1.0;"/><polygon fill="none" points="85,247.53,92,227.53,99,247.53,85,247.53" style="stroke:#A80036;stroke-width:1.0;"/><!--MD5=[a32401f0ab5cb9c8a674657e75d28be7]
@startuml
actor "Actor" <<Stereotype>>
  note right of :Actor:: Note

  package "Package" <<Stereotype>> {
    usecase UseCase as "Use case" <<Stereotype>>
  }
 
  useCase UseCase2 as "Additional use case"
  
  :Actor: - -> UseCase
  UseCase <|- - UseCase2
@enduml

PlantUML version 1.2021.6(Fri May 14 07:09:51 GMT 2021)
(GPL source distribution)
Java Runtime: OpenJDK Runtime Environment
JVM: OpenJDK 64-Bit Server VM
Default Encoding: UTF-8
Language: en
Country: US
--></g></svg>