<?xml version="1.0" encoding="UTF-8" standalone="no"?><svg xmlns="http://www.w3.org/2000/svg" xmlns:xlink="http://www.w3.org/1999/xlink" contentStyleType="text/css" height="432px" preserveAspectRatio="none" style="width:490px;height:432px;background:#FFFFFF;" version="1.1" viewBox="0 0 490 432" width="490px" zoomAndPan="magnify"><defs/><g><rect fill="#1168BD" height="36.2969" rx="12.5" ry="12.5" style="stroke:#1168BD;stroke-width:1.5;" width="94" x="10" y="197.0391"/><text fill="#FFFFFF" font-family="sans-serif" font-size="14" lengthAdjust="spacing" textLength="19" x="20" y="220.0342">C4</text><text fill="#FFFFFF" font-family="sans-serif" font-size="14" lengthAdjust="spacing" textLength="4" x="39" y="220.0342"> </text><text fill="#FFFFFF" font-family="sans-serif" font-size="14" lengthAdjust="spacing" textLength="51" x="43" y="220.0342">models</text><rect fill="#1168BD" height="36.2969" rx="12.5" ry="12.5" style="stroke:#1168BD;stroke-width:1.5;" width="108" x="154" y="112.5938"/><text fill="#FFFFFF" font-family="sans-serif" font-size="14" lengthAdjust="spacing" textLength="33" x="164" y="135.5889">Root</text><text fill="#FFFFFF" font-family="sans-serif" font-size="14" lengthAdjust="spacing" textLength="4" x="197" y="135.5889"> </text><text fill="#FFFFFF" font-family="sans-serif" font-size="14" lengthAdjust="spacing" textLength="51" x="201" y="135.5889">models</text><rect fill="#1168BD" height="52.5938" rx="12.5" ry="12.5" style="stroke:#1168BD;stroke-width:1.5;" width="127" x="312" y="20"/><text fill="#FFFFFF" font-family="sans-serif" font-size="14" lengthAdjust="spacing" textLength="35" x="322" y="42.9951">Level</text><text fill="#FFFFFF" font-family="sans-serif" font-size="14" lengthAdjust="spacing" textLength="4" x="357" y="42.9951"> </text><text fill="#FFFFFF" font-family="sans-serif" font-size="14" lengthAdjust="spacing" textLength="13" x="361" y="42.9951">1,</text><text fill="#FFFFFF" font-family="sans-serif" font-size="14" lengthAdjust="spacing" textLength="4" x="374" y="42.9951"> </text><text fill="#FFFFFF" font-family="sans-serif" font-size="14" lengthAdjust="spacing" textLength="51" x="378" y="42.9951">System</text><text fill="#FFFFFF" font-family="sans-serif" font-size="14" lengthAdjust="spacing" textLength="52" x="322" y="59.292">context</text><path d="M262,130.7422 L272,130.7422 C287,130.7422 287,46.2969 302,46.2969 L312,46.2969 " fill="none" style="stroke:#E91E63;stroke-width:1.0;"/><rect fill="#1168BD" height="36.2969" rx="12.5" ry="12.5" style="stroke:#1168BD;stroke-width:1.5;" width="151" x="312" y="92.5938"/><text fill="#FFFFFF" font-family="sans-serif" font-size="14" lengthAdjust="spacing" textLength="35" x="322" y="115.5889">Level</text><text fill="#FFFFFF" font-family="sans-serif" font-size="14" lengthAdjust="spacing" textLength="4" x="357" y="115.5889"> </text><text fill="#FFFFFF" font-family="sans-serif" font-size="14" lengthAdjust="spacing" textLength="13" x="361" y="115.5889">2,</text><text fill="#FFFFFF" font-family="sans-serif" font-size="14" lengthAdjust="spacing" textLength="4" x="374" y="115.5889"> </text><text fill="#FFFFFF" font-family="sans-serif" font-size="14" lengthAdjust="spacing" textLength="75" x="378" y="115.5889">Containers</text><path d="M262,130.7422 L272,130.7422 C287,130.7422 287,110.7422 302,110.7422 L312,110.7422 " fill="none" style="stroke:#E91E63;stroke-width:1.0;"/><rect fill="#1168BD" height="36.2969" rx="12.5" ry="12.5" style="stroke:#1168BD;stroke-width:1.5;" width="166" x="312" y="148.8906"/><text fill="#FFFFFF" font-family="sans-serif" font-size="14" lengthAdjust="spacing" textLength="35" x="322" y="171.8857">Level</text><text fill="#FFFFFF" font-family="sans-serif" font-size="14" lengthAdjust="spacing" textLength="4" x="357" y="171.8857"> </text><text fill="#FFFFFF" font-family="sans-serif" font-size="14" lengthAdjust="spacing" textLength="13" x="361" y="171.8857">3,</text><text fill="#FFFFFF" font-family="sans-serif" font-size="14" lengthAdjust="spacing" textLength="4" x="374" y="171.8857"> </text><text fill="#FFFFFF" font-family="sans-serif" font-size="14" lengthAdjust="spacing" textLength="90" x="378" y="171.8857">Components</text><path d="M262,130.7422 L272,130.7422 C287,130.7422 287,167.0391 302,167.0391 L312,167.0391 " fill="none" style="stroke:#E91E63;stroke-width:1.0;"/><rect fill="#1168BD" height="36.2969" rx="12.5" ry="12.5" style="stroke:#1168BD;stroke-width:1.5;" width="113" x="312" y="205.1875"/><text fill="#FFFFFF" font-family="sans-serif" font-size="14" lengthAdjust="spacing" textLength="35" x="322" y="228.1826">Level</text><text fill="#FFFFFF" font-family="sans-serif" font-size="14" lengthAdjust="spacing" textLength="4" x="357" y="228.1826"> </text><text fill="#FFFFFF" font-family="sans-serif" font-size="14" lengthAdjust="spacing" textLength="13" x="361" y="228.1826">4,</text><text fill="#FFFFFF" font-family="sans-serif" font-size="14" lengthAdjust="spacing" textLength="4" x="374" y="228.1826"> </text><text fill="#FFFFFF" font-family="sans-serif" font-size="14" lengthAdjust="spacing" textLength="37" x="378" y="228.1826">Code</text><path d="M262,130.7422 L272,130.7422 C287,130.7422 287,223.3359 302,223.3359 L312,223.3359 " fill="none" style="stroke:#E91E63;stroke-width:1.0;"/><path d="M104,215.1875 L114,215.1875 C129,215.1875 129,130.7422 144,130.7422 L154,130.7422 " fill="none" style="stroke:#E91E63;stroke-width:1.0;"/><rect fill="#1168BD" height="52.5938" rx="12.5" ry="12.5" style="stroke:#1168BD;stroke-width:1.5;" width="124" x="154" y="309.6328"/><text fill="#FFFFFF" font-family="sans-serif" font-size="14" lengthAdjust="spacing" textLength="104" x="164" y="332.6279">Supplementary</text><text fill="#FFFFFF" font-family="sans-serif" font-size="14" lengthAdjust="spacing" textLength="63" x="164" y="348.9248">diagrams</text><rect fill="#1168BD" height="36.2969" rx="12.5" ry="12.5" style="stroke:#1168BD;stroke-width:1.5;" width="146" x="328" y="261.4844"/><text fill="#FFFFFF" font-family="sans-serif" font-size="14" lengthAdjust="spacing" textLength="51" x="338" y="284.4795">System</text><text fill="#FFFFFF" font-family="sans-serif" font-size="14" lengthAdjust="spacing" textLength="4" x="389" y="284.4795"> </text><text fill="#FFFFFF" font-family="sans-serif" font-size="14" lengthAdjust="spacing" textLength="71" x="393" y="284.4795">landscape</text><path d="M278,335.9297 L288,335.9297 C303,335.9297 303,279.6328 318,279.6328 L328,279.6328 " fill="none" style="stroke:#E91E63;stroke-width:1.0;"/><rect fill="#1168BD" height="36.2969" rx="12.5" ry="12.5" style="stroke:#1168BD;stroke-width:1.5;" width="87" x="328" y="317.7813"/><text fill="#FFFFFF" font-family="sans-serif" font-size="14" lengthAdjust="spacing" textLength="67" x="338" y="340.7764">Dynamics</text><path d="M278,335.9297 L288,335.9297 C303,335.9297 303,335.9297 318,335.9297 L328,335.9297 " fill="none" style="stroke:#E91E63;stroke-width:1.0;"/><rect fill="#1168BD" height="36.2969" rx="12.5" ry="12.5" style="stroke:#1168BD;stroke-width:1.5;" width="104" x="328" y="374.0781"/><text fill="#FFFFFF" font-family="sans-serif" font-size="14" lengthAdjust="spacing" textLength="84" x="338" y="397.0732">Deployment</text><path d="M278,335.9297 L288,335.9297 C303,335.9297 303,392.2266 318,392.2266 L328,392.2266 " fill="none" style="stroke:#E91E63;stroke-width:1.0;"/><path d="M104,215.1875 L114,215.1875 C129,215.1875 129,335.9297 144,335.9297 L154,335.9297 " fill="none" style="stroke:#E91E63;stroke-width:1.0;"/><!--SRC=[lL9DQzj04BtlhnZe9Gb9QicgSKqe8LOJS2KQOYSzhxLZTUb-YFrmB4h-UqUoaWXwBJqixBnvRzvZTwvzu2veQOJc3RloeLNuXGrrBddjk8RV3C1OWVq5u8PNlsfden5Bgwo33qaocsz5tokamR_HMsl2WEvsknug-K7gg7z84Nv2ycb2u0kThJqez7vm6kdUfdKixfnz7ZWZH_oSu6pQSrxOyzR_l_oJVv__wkFm6MUmp41JVEKPdC63jU6jfBh0FIf8pc7T-e0QAlB4GnZrqdDO4iZ9o8qrqmxNZJLemXZFEbnWPxQEJQDG4u6x5iJnFO_SmKvn8tp56-p1l3LSo-h8oB5Hjkt4x1ffeOObO_Ua2Ozb0NlA8ws1v3ATfEbbafri8fAiWiaCalaYpHR95ExA3NJzKtPoTr-0jz5LI5byS78R0mquPIk-v_0GJP0Q5_2zGRFAlxq2yDNifREcJx9wAjy9i-pYHWPOewCey5Io77Syga2AoWffwWKyRculvgpWfewyfjbes99M9xYMUki_]--></g></svg>