<?xml version="1.0" encoding="us-ascii" standalone="no"?><svg xmlns="http://www.w3.org/2000/svg" xmlns:xlink="http://www.w3.org/1999/xlink" contentStyleType="text/css" height="861px" preserveAspectRatio="none" style="width:934px;height:861px;" version="1.1" viewBox="0 0 934 861" width="934px" zoomAndPan="magnify"><defs/><g><rect fill="none" height="859.0625" style="stroke:#FFFFFF;stroke-width:1.0;" width="932" x="0" y="0"/><rect fill="#FFFCFF" height="849.0625" style="stroke:#A0439C;stroke-width:0.5;" width="319" x="246" y="6"/><text fill="#A0439C" font-family="sans-serif" font-size="13" font-weight="bold" lengthAdjust="spacing" textLength="27" x="392" y="20.0669">Box</text><rect fill="#FFFCFF" height="79.3984" style="stroke:#FFFCFF;stroke-width:1.0;" width="651.5" x="161.5" y="169.5313"/><rect fill="#FFFCFF" height="172.5313" style="stroke:#FFFCFF;stroke-width:1.0;" width="398.5" x="389.5" y="318.1953"/><rect fill="#FFFCFF" height="91.2656" style="stroke:#FFFCFF;stroke-width:1.0;" width="266.5" x="496.5" y="371.4609"/><line style="stroke:#E91E63;stroke-width:1.0;" x1="238" x2="238" y1="669.7969" y2="775.7969"/><polygon fill="#E91E63" points="234,679.7969,238,669.7969,242,679.7969,238,675.7969" style="stroke:#E91E63;stroke-width:1.0;"/><polygon fill="#E91E63" points="234,765.7969,238,775.7969,242,765.7969,238,769.7969" style="stroke:#E91E63;stroke-width:1.0;"/><text fill="#E91E63" font-family="sans-serif" font-size="13" lengthAdjust="spacing" textLength="30" x="244" y="727.2974">label</text><line style="stroke:#1168BD;stroke-width:0.5;stroke-dasharray:5.0,5.0;" x1="62" x2="62" y1="124.3984" y2="616.9922"/><line style="stroke:#1168BD;stroke-width:1.0;stroke-dasharray:1.0,4.0;" x1="62" x2="62" y1="616.9922" y2="661.7969"/><line style="stroke:#1168BD;stroke-width:0.5;stroke-dasharray:5.0,5.0;" x1="62" x2="62" y1="661.7969" y2="849.0625"/><line style="stroke:#1168BD;stroke-width:0.5;stroke-dasharray:5.0,5.0;" x1="177.5" x2="177.5" y1="124.3984" y2="616.9922"/><line style="stroke:#1168BD;stroke-width:1.0;stroke-dasharray:1.0,4.0;" x1="177.5" x2="177.5" y1="616.9922" y2="661.7969"/><line style="stroke:#1168BD;stroke-width:0.5;stroke-dasharray:5.0,5.0;" x1="177.5" x2="177.5" y1="661.7969" y2="849.0625"/><line style="stroke:#1168BD;stroke-width:0.5;stroke-dasharray:5.0,5.0;" x1="298.5" x2="298.5" y1="124.3984" y2="616.9922"/><line style="stroke:#1168BD;stroke-width:1.0;stroke-dasharray:1.0,4.0;" x1="298.5" x2="298.5" y1="616.9922" y2="661.7969"/><line style="stroke:#1168BD;stroke-width:0.5;stroke-dasharray:5.0,5.0;" x1="298.5" x2="298.5" y1="661.7969" y2="849.0625"/><rect fill="#3498DB" height="110" style="stroke:#1168BD;stroke-width:1.0;" width="10" x="293.5" y="667.7969"/><rect fill="#3498DB" height="56" style="stroke:#1168BD;stroke-width:1.0;" width="10" x="298.5" y="694.7969"/><line style="stroke:#1168BD;stroke-width:0.5;stroke-dasharray:5.0,5.0;" x1="405.5" x2="405.5" y1="124.3984" y2="616.9922"/><line style="stroke:#1168BD;stroke-width:1.0;stroke-dasharray:1.0,4.0;" x1="405.5" x2="405.5" y1="616.9922" y2="661.7969"/><line style="stroke:#1168BD;stroke-width:0.5;stroke-dasharray:5.0,5.0;" x1="405.5" x2="405.5" y1="661.7969" y2="849.0625"/><rect fill="#3498DB" height="28" style="stroke:#1168BD;stroke-width:1.0;" width="10" x="400.5" y="708.7969"/><line style="stroke:#1168BD;stroke-width:0.5;stroke-dasharray:5.0,5.0;" x1="512.5" x2="512.5" y1="124.3984" y2="616.9922"/><line style="stroke:#1168BD;stroke-width:1.0;stroke-dasharray:1.0,4.0;" x1="512.5" x2="512.5" y1="616.9922" y2="661.7969"/><line style="stroke:#1168BD;stroke-width:0.5;stroke-dasharray:5.0,5.0;" x1="512.5" x2="512.5" y1="661.7969" y2="849.0625"/><line style="stroke:#1168BD;stroke-width:2.0;" x1="503.5" x2="521.5" y1="713.7969" y2="731.7969"/><line style="stroke:#1168BD;stroke-width:2.0;" x1="503.5" x2="521.5" y1="731.7969" y2="713.7969"/><line style="stroke:#1168BD;stroke-width:0.5;stroke-dasharray:5.0,5.0;" x1="629.5" x2="629.5" y1="124.3984" y2="616.9922"/><line style="stroke:#1168BD;stroke-width:1.0;stroke-dasharray:1.0,4.0;" x1="629.5" x2="629.5" y1="616.9922" y2="661.7969"/><line style="stroke:#1168BD;stroke-width:0.5;stroke-dasharray:5.0,5.0;" x1="629.5" x2="629.5" y1="661.7969" y2="849.0625"/><rect fill="#3498DB" height="28" style="stroke:#1168BD;stroke-width:1.0;" width="10" x="624.5" y="412.7266"/><line style="stroke:#1168BD;stroke-width:0.5;stroke-dasharray:5.0,5.0;" x1="747" x2="747" y1="124.3984" y2="616.9922"/><line style="stroke:#1168BD;stroke-width:1.0;stroke-dasharray:1.0,4.0;" x1="747" x2="747" y1="616.9922" y2="661.7969"/><line style="stroke:#1168BD;stroke-width:0.5;stroke-dasharray:5.0,5.0;" x1="747" x2="747" y1="661.7969" y2="849.0625"/><line style="stroke:#1168BD;stroke-width:0.5;stroke-dasharray:5.0,5.0;" x1="871.5" x2="871.5" y1="124.3984" y2="616.9922"/><line style="stroke:#1168BD;stroke-width:1.0;stroke-dasharray:1.0,4.0;" x1="871.5" x2="871.5" y1="616.9922" y2="661.7969"/><line style="stroke:#1168BD;stroke-width:0.5;stroke-dasharray:5.0,5.0;" x1="871.5" x2="871.5" y1="661.7969" y2="849.0625"/><rect fill="#08427B" height="48.2656" rx="2.5" ry="2.5" style="stroke:#FFFFFF;stroke-width:0.5;" width="114" x="5" y="75.1328"/><text fill="#FFFFFF" font-family="sans-serif" font-size="13" font-style="italic" lengthAdjust="spacing" textLength="87" x="18.5" y="96.1997">&#171;Stereotype&#187;</text><text fill="#FFFFFF" font-family="sans-serif" font-size="13" lengthAdjust="spacing" textLength="68" x="28" y="111.3325">Participant</text><text fill="#08427B" font-family="sans-serif" font-size="13" font-style="italic" lengthAdjust="spacing" textLength="87" x="131" y="104.1997">&#171;Stereotype&#187;</text><text fill="#08427B" font-family="sans-serif" font-size="13" lengthAdjust="spacing" textLength="34" x="157.5" y="119.3325">Actor</text><ellipse cx="177.5" cy="45.6328" fill="#08427B" rx="16" ry="16" style="stroke:#FFFFFF;stroke-width:0.5;"/><path d="M177.5,65.6328 C181.5,65.6328 184.5,65.6328 188.5,61.6328 C196.5,61.6328 204.5,69.6328 204.5,77.6328 L204.5,81.6328 C204.5,85.6328 200.5,89.6328 196.5,89.6328 L158.5,89.6328 C154.5,89.6328 150.5,85.6328 150.5,81.6328 L150.5,77.6328 C150.5,69.6328 158.5,61.6328 166.5,61.6328 C170.5,65.6328 173.5,65.6328 177.5,65.6328 " fill="#08427B" style="stroke:#FFFFFF;stroke-width:0.5;"/><text fill="#08427B" font-family="sans-serif" font-size="13" font-style="italic" lengthAdjust="spacing" textLength="87" x="252" y="104.1997">&#171;Stereotype&#187;</text><text fill="#08427B" font-family="sans-serif" font-size="13" lengthAdjust="spacing" textLength="61" x="265" y="119.3325">Boundary</text><path d="M278,62.1328 L278,86.1328 M278,74.1328 L295,74.1328 " fill="none" style="stroke:#08427B;stroke-width:0.5;"/><ellipse cx="307" cy="74.1328" fill="#FFFFFF" rx="12" ry="12" style="stroke:#08427B;stroke-width:0.5;"/><text fill="#08427B" font-family="sans-serif" font-size="13" font-style="italic" lengthAdjust="spacing" textLength="87" x="359" y="104.1997">&#171;Stereotype&#187;</text><text fill="#08427B" font-family="sans-serif" font-size="13" lengthAdjust="spacing" textLength="46" x="379.5" y="119.3325">Control</text><ellipse cx="405.5" cy="74.1328" fill="#FFFFFF" rx="12" ry="12" style="stroke:#08427B;stroke-width:0.5;"/><polygon fill="#08427B" points="401.5,62.1328,407.5,57.1328,405.5,62.1328,407.5,67.1328,401.5,62.1328" style="stroke:#08427B;stroke-width:1.0;"/><text fill="#08427B" font-family="sans-serif" font-size="13" font-style="italic" lengthAdjust="spacing" textLength="87" x="466" y="104.1997">&#171;Stereotype&#187;</text><text fill="#08427B" font-family="sans-serif" font-size="13" lengthAdjust="spacing" textLength="36" x="491.5" y="119.3325">Entity</text><ellipse cx="512.5" cy="74.1328" fill="#FFFFFF" rx="12" ry="12" style="stroke:#08427B;stroke-width:0.5;"/><line style="stroke:#08427B;stroke-width:0.5;" x1="500.5" x2="524.5" y1="88.1328" y2="88.1328"/><text fill="#08427B" font-family="sans-serif" font-size="13" font-style="italic" lengthAdjust="spacing" textLength="87" x="583" y="104.1997">&#171;Stereotype&#187;</text><text fill="#08427B" font-family="sans-serif" font-size="13" lengthAdjust="spacing" textLength="62" x="595.5" y="119.3325">Database</text><path d="M611.5,54.1328 C611.5,44.1328 629.5,44.1328 629.5,44.1328 C629.5,44.1328 647.5,44.1328 647.5,54.1328 L647.5,80.1328 C647.5,90.1328 629.5,90.1328 629.5,90.1328 C629.5,90.1328 611.5,90.1328 611.5,80.1328 L611.5,54.1328 " fill="#08427B" style="stroke:#FFFFFF;stroke-width:1.5;"/><path d="M611.5,54.1328 C611.5,64.1328 629.5,64.1328 629.5,64.1328 C629.5,64.1328 647.5,64.1328 647.5,54.1328 " fill="none" style="stroke:#FFFFFF;stroke-width:1.5;"/><rect fill="#08427B" height="48.2656" style="stroke:#FFFFFF;stroke-width:0.5;" width="114" x="692" y="71.1328"/><rect fill="#08427B" height="48.2656" style="stroke:#FFFFFF;stroke-width:0.5;" width="114" x="688" y="75.1328"/><text fill="#FFFFFF" font-family="sans-serif" font-size="13" font-style="italic" lengthAdjust="spacing" textLength="87" x="701.5" y="96.1997">&#171;Stereotype&#187;</text><text fill="#FFFFFF" font-family="sans-serif" font-size="13" lengthAdjust="spacing" textLength="69" x="710.5" y="111.3325">Collections</text><path d="M821,80.1328 L922,80.1328 C927,80.1328 927,102.2656 927,102.2656 C927,102.2656 927,124.3984 922,124.3984 L821,124.3984 C816,124.3984 816,102.2656 816,102.2656 C816,102.2656 816,80.1328 821,80.1328 " fill="#08427B" style="stroke:#FFFFFF;stroke-width:0.5;"/><path d="M922,80.1328 C917,80.1328 917,102.2656 917,102.2656 C917,124.3984 922,124.3984 922,124.3984 " fill="none" style="stroke:#FFFFFF;stroke-width:0.5;"/><text fill="#FFFFFF" font-family="sans-serif" font-size="13" font-style="italic" lengthAdjust="spacing" textLength="87" x="823" y="99.1997">&#171;Stereotype&#187;</text><text fill="#FFFFFF" font-family="sans-serif" font-size="13" lengthAdjust="spacing" textLength="42" x="845.5" y="114.3325">Queue</text><polygon fill="#E91E63" points="165.5,153.5313,175.5,157.5313,165.5,161.5313,169.5,157.5313" style="stroke:#E91E63;stroke-width:1.0;"/><line style="stroke:#E91E63;stroke-width:1.0;" x1="62" x2="171.5" y1="157.5313" y2="157.5313"/><text fill="#E91E63" font-family="sans-serif" font-size="13" font-weight="bold" lengthAdjust="spacing" textLength="9" x="82.75" y="150.4653">1</text><text fill="#E91E63" font-family="sans-serif" font-size="13" lengthAdjust="spacing" textLength="57" x="99.75" y="150.4653">Message</text><path d="M161.5,169.5313 L229.5,169.5313 L229.5,180.6641 L219.5,190.6641 L161.5,190.6641 L161.5,169.5313 " fill="#E18114" style="stroke:#E18114;stroke-width:1.5;"/><rect fill="none" height="386.3281" style="stroke:#E18114;stroke-width:1.5;" width="651.5" x="161.5" y="169.5313"/><text fill="#FFFFFF" font-family="sans-serif" font-size="13" font-weight="bold" lengthAdjust="spacing" textLength="19" x="178.5" y="184.5981">alt</text><text fill="#E18114" font-family="sans-serif" font-size="13" font-weight="bold" lengthAdjust="spacing" textLength="86" x="246.5" y="185.5981">[Main case]</text><line style="stroke:#E18114;stroke-width:1.0;stroke-dasharray:2.0,2.0;" x1="161.5" x2="813" y1="248.9297" y2="248.9297"/><text fill="#E18114" font-family="sans-serif" font-size="13" font-weight="bold" lengthAdjust="spacing" textLength="156" x="168.5" y="264.9966">[Alternative case #1]</text><line style="stroke:#E18114;stroke-width:1.0;stroke-dasharray:2.0,2.0;" x1="161.5" x2="813" y1="515.7266" y2="515.7266"/><text fill="#E18114" font-family="sans-serif" font-size="13" font-weight="bold" lengthAdjust="spacing" textLength="156" x="168.5" y="531.7935">[Alternative case #2]</text><polygon fill="#E91E63" points="286.5,225.9297,296.5,229.9297,286.5,233.9297,290.5,229.9297" style="stroke:#E91E63;stroke-width:1.0;"/><line style="stroke:#E91E63;stroke-width:1.0;" x1="177.5" x2="292.5" y1="229.9297" y2="229.9297"/><text fill="#E91E63" font-family="sans-serif" font-size="13" lengthAdjust="spacing" textLength="93" x="191.5" y="222.8638">Main message</text><polygon fill="#E91E63" points="393.5,296.1953,403.5,300.1953,393.5,304.1953,397.5,300.1953" style="stroke:#E91E63;stroke-width:1.0;"/><line style="stroke:#E91E63;stroke-width:1.0;" x1="177.5" x2="399.5" y1="300.1953" y2="300.1953"/><text fill="#E91E63" font-family="sans-serif" font-size="13" lengthAdjust="spacing" textLength="132" x="225.5" y="293.1294">Alternative message</text><path d="M410.5,280.0625 L410.5,309.0625 L540.5,309.0625 L540.5,290.0625 L530.5,280.0625 L410.5,280.0625 " fill="#999999" style="stroke:#FFFFFF;stroke-width:0.5;"/><path d="M530.5,280.0625 L530.5,290.0625 L540.5,290.0625 L530.5,280.0625 " fill="#999999" style="stroke:#FFFFFF;stroke-width:0.5;"/><text fill="#FFFFFF" font-family="sans-serif" font-size="13" lengthAdjust="spacing" textLength="31" x="460" y="299.1294">Note</text><path d="M389.5,318.1953 L487.5,318.1953 L487.5,329.3281 L477.5,339.3281 L389.5,339.3281 L389.5,318.1953 " fill="#E18114" style="stroke:#E18114;stroke-width:1.5;"/><rect fill="none" height="172.5313" style="stroke:#E18114;stroke-width:1.5;" width="398.5" x="389.5" y="318.1953"/><text fill="#FFFFFF" font-family="sans-serif" font-size="13" font-weight="bold" lengthAdjust="spacing" textLength="44" x="406.5" y="333.2622">group</text><text fill="#E18114" font-family="sans-serif" font-size="13" font-weight="bold" lengthAdjust="spacing" textLength="91" x="504.5" y="334.2622">[Extra label]</text><polygon fill="#E91E63" points="500.5,355.4609,510.5,359.4609,500.5,363.4609,504.5,359.4609" style="stroke:#E91E63;stroke-width:1.0;"/><line style="stroke:#E91E63;stroke-width:1.0;" x1="405.5" x2="506.5" y1="359.4609" y2="359.4609"/><path d="M496.5,371.4609 L577.5,371.4609 L577.5,382.5938 L567.5,392.5938 L496.5,392.5938 L496.5,371.4609 " fill="#E18114" style="stroke:#E18114;stroke-width:1.5;"/><rect fill="none" height="91.2656" style="stroke:#E18114;stroke-width:1.5;" width="266.5" x="496.5" y="371.4609"/><text fill="#FFFFFF" font-family="sans-serif" font-size="13" font-weight="bold" lengthAdjust="spacing" textLength="32" x="513.5" y="386.5278">loop</text><text fill="#E18114" font-family="sans-serif" font-size="13" font-weight="bold" lengthAdjust="spacing" textLength="94" x="594.5" y="387.5278">[1000 times]</text><polygon fill="#E91E63" points="612.5,408.7266,622.5,412.7266,612.5,416.7266,616.5,412.7266" style="stroke:#E91E63;stroke-width:1.0;"/><line style="stroke:#E91E63;stroke-width:1.0;" x1="512.5" x2="618.5" y1="412.7266" y2="412.7266"/><polygon fill="#E91E63" points="735,422.7266,745,426.7266,735,430.7266,739,426.7266" style="stroke:#E91E63;stroke-width:1.0;"/><line style="stroke:#E91E63;stroke-width:1.0;" x1="512.5" x2="741" y1="426.7266" y2="426.7266"/><polygon fill="#E91E63" points="523.5,436.7266,513.5,440.7266,523.5,444.7266,519.5,440.7266" style="stroke:#E91E63;stroke-width:1.0;"/><line style="stroke:#E91E63;stroke-width:1.0;stroke-dasharray:2.0,2.0;" x1="517.5" x2="623.5" y1="440.7266" y2="440.7266"/><polygon fill="#E91E63" points="523.5,450.7266,513.5,454.7266,523.5,458.7266,519.5,454.7266" style="stroke:#E91E63;stroke-width:1.0;"/><line style="stroke:#E91E63;stroke-width:1.0;" x1="517.5" x2="746" y1="454.7266" y2="454.7266"/><polygon fill="#E91E63" points="735,478.7266,745,482.7266,735,486.7266,739,482.7266" style="stroke:#E91E63;stroke-width:1.0;"/><line style="stroke:#E91E63;stroke-width:1.0;" x1="629.5" x2="741" y1="482.7266" y2="482.7266"/><polygon fill="#E91E63" points="188.5,543.8594,178.5,547.8594,188.5,551.8594,184.5,547.8594" style="stroke:#E91E63;stroke-width:1.0;"/><line style="stroke:#E91E63;stroke-width:1.0;" x1="182.5" x2="746" y1="547.8594" y2="547.8594"/><rect fill="#41AF46" height="3" style="stroke:#41AF46;stroke-width:1.0;" width="922" x="5" y="592.4258"/><line style="stroke:#41AF46;stroke-width:1.0;" x1="5" x2="927" y1="592.4258" y2="592.4258"/><line style="stroke:#41AF46;stroke-width:1.0;" x1="5" x2="927" y1="595.4258" y2="595.4258"/><rect fill="#41AF46" height="27.1328" style="stroke:#41AF46;stroke-width:2.0;" width="75" x="428.5" y="579.8594"/><text fill="#FFFFFF" font-family="sans-serif" font-size="13" font-weight="bold" lengthAdjust="spacing" textLength="52" x="436.5" y="597.9263">Divider</text><text fill="#FFFFFF" font-family="sans-serif" font-size="11" lengthAdjust="spacing" textLength="30" x="451.75" y="643.2026">delay</text><polygon fill="#E91E63" points="281.5,663.7969,291.5,667.7969,281.5,671.7969,285.5,667.7969" style="stroke:#E91E63;stroke-width:1.0;"/><line style="stroke:#E91E63;stroke-width:1.0;" x1="177.5" x2="287.5" y1="667.7969" y2="667.7969"/><line style="stroke:#E91E63;stroke-width:1.0;" x1="303.5" x2="350.5" y1="681.7969" y2="681.7969"/><line style="stroke:#E91E63;stroke-width:1.0;" x1="350.5" x2="350.5" y1="681.7969" y2="694.7969"/><line style="stroke:#E91E63;stroke-width:1.0;" x1="309.5" x2="350.5" y1="694.7969" y2="694.7969"/><polygon fill="#E91E63" points="319.5,690.7969,309.5,694.7969,319.5,698.7969,315.5,694.7969" style="stroke:#E91E63;stroke-width:1.0;"/><polygon fill="#E91E63" points="388.5,704.7969,398.5,708.7969,388.5,712.7969,392.5,708.7969" style="stroke:#E91E63;stroke-width:1.0;"/><line style="stroke:#E91E63;stroke-width:1.0;" x1="308.5" x2="394.5" y1="708.7969" y2="708.7969"/><polygon fill="#E91E63" points="500.5,718.7969,510.5,722.7969,500.5,726.7969,504.5,722.7969" style="stroke:#E91E63;stroke-width:1.0;"/><line style="stroke:#E91E63;stroke-width:1.0;" x1="410.5" x2="506.5" y1="722.7969" y2="722.7969"/><polygon fill="#E91E63" points="319.5,732.7969,309.5,736.7969,319.5,740.7969,315.5,736.7969" style="stroke:#E91E63;stroke-width:1.0;"/><line style="stroke:#E91E63;stroke-width:1.0;stroke-dasharray:2.0,2.0;" x1="313.5" x2="399.5" y1="736.7969" y2="736.7969"/><line style="stroke:#E91E63;stroke-width:1.0;stroke-dasharray:2.0,2.0;" x1="308.5" x2="350.5" y1="750.7969" y2="750.7969"/><line style="stroke:#E91E63;stroke-width:1.0;stroke-dasharray:2.0,2.0;" x1="350.5" x2="350.5" y1="750.7969" y2="763.7969"/><line style="stroke:#E91E63;stroke-width:1.0;stroke-dasharray:2.0,2.0;" x1="303.5" x2="350.5" y1="763.7969" y2="763.7969"/><polygon fill="#E91E63" points="313.5,759.7969,303.5,763.7969,313.5,767.7969,309.5,763.7969" style="stroke:#E91E63;stroke-width:1.0;"/><polygon fill="#E91E63" points="188.5,773.7969,178.5,777.7969,188.5,781.7969,184.5,777.7969" style="stroke:#E91E63;stroke-width:1.0;"/><line style="stroke:#E91E63;stroke-width:1.0;stroke-dasharray:2.0,2.0;" x1="182.5" x2="292.5" y1="777.7969" y2="777.7969"/><rect fill="#FFFFFF" height="48.2656" style="stroke:#A0439C;stroke-width:1.5;" width="210" x="466" y="785.7969"/><path d="M466,785.7969 L536,785.7969 L536,796.7969 L526,806.7969 L466,806.7969 L466,785.7969 " fill="#FFFFFF" style="stroke:#A0439C;stroke-width:2.0;"/><text fill="#A0439C" font-family="sans-serif" font-size="13" font-weight="bold" lengthAdjust="spacing" textLength="21" x="481" y="801.8638">ref</text><text fill="#A0439C" font-family="sans-serif" font-size="13" lengthAdjust="spacing" textLength="61" x="540.5" y="824.8638">reference</text><line style="stroke:#E91E63;stroke-width:1.0;" x1="238" x2="238" y1="669.7969" y2="775.7969"/><polygon fill="#E91E63" points="234,679.7969,238,669.7969,242,679.7969,238,675.7969" style="stroke:#E91E63;stroke-width:1.0;"/><polygon fill="#E91E63" points="234,765.7969,238,775.7969,242,765.7969,238,769.7969" style="stroke:#E91E63;stroke-width:1.0;"/><text fill="#E91E63" font-family="sans-serif" font-size="13" lengthAdjust="spacing" textLength="30" x="244" y="727.2974">label</text><!--SRC=[lHdzRzksydVz5OnRm37cfh7ZfecNP4XSfosGfbsTleTY639QEjjQ9D6Zg3XUqV_ztP6IJ7tbOokUYqOsxtZVnxkZscoYre4VpLaCIk4pPZCXsQU0H-hBXmlc-NmkUHWxRJO1O0kbbiENBvS4Ji9W9nQ9T05tp64d0gNtUi9DGeWKLxw8SD-LO7C4SHRuiM9YnfOYZlrf02o-yQCbH_8vyowJIJHa6Nts0h_C4pu7f8EaNGbS0PBAvPlvI6VbgmNxCq7gV-GaGO6C_t1mt-ZZnSVF4_no_CWFRPf31987p1M1a6WJAK8cLX6BqLeGBm2Ki_KyDSxrbBitSocIoBlM-EoOjPJaKOoIe25QDggG7iWDshFPR6R3Du23NVf7C2wbM5aGEEp1_Xv1q74t5c1lS7Zmvgn5yeVy1ktaXIBooGsP7loM-m4dsvEd801oL8oKN9uGdaMCxmxs3jsM1Ik0KxdzS2caGcTO86-lF-kNe7Lx8w70MkttNWEypW5rEvI_j1O7FJuRx6VhTVWhBYCCAzjslODURs33gllGV97muBhNDSy-uv77I2YcqAoHYORHG0S3aj0I4_vro7sRskx1eFzwsihW_JAyrzi_c7eMd2Tt_Hf_fXOfxJuyFDIo9d6Tfyc_GYsWuEL0p7stIATe8yIXG5wMS0hHeQFrrgSmBcBbtd6ShQKKBdY919OorOcp_VoMo-DUns7iUMeylTHb5T7gbyfEwp1d2o8lvrRaR5InE0_gE9SLhbyg9q4NFN1-VZuwFszrxfCXCzL3-bTDshHe1_lz-gTH-H3hIl1sqqp09pqUmQJ_E2RzPYORb4qIFCHOFKwxGkeyg1iMkgkl5sFsRdpnQVmFwePYoDVNnSyK9fCVInvWZOCXuZmdQR38IJ_aSaqbBAqpNQRMIz_bGR1ccvf2Ez0cU1hHep_4PFVQWRKjBkpJ1QRBU805C48nRg54IqH4IaH8IS6Tgg51ycbObyN9ScdE3nGLT-UwnQH9hyCap9E0IxRjmOmdWUhWSh_38gp02Bl58WmUsyQQ0m4JYOendWbbhvD1Yz8DEjWcp1UgkFgga-g5Zpka9iHIQqYKzZjiPsUd61fs21oJjgHHDpUZiG0PyxZrp7NTbh47_jZVtszH46tvCsPs7xVwUeMniroYaVQe9ceWMhPqbNZerNCHgJBc19q20YqDLUWM135OVFUQ-EOS2dnp7l-Ixw2PQ_z9sfRrUVK3xVWEE69Q47Hf3Slz9fO6_GTmp01DJYf9zFf9nht7fMLD3twqfWs4DDz_wyPCfjgeVC2kcHYHvyySGtNY_msijrSzoD-EByUVJo_OP7nrzVxoxTFEygtdK-6jhsV8u7h6Gn_FHUowOkpgNyGWVUmJsmoukyZwA-RoI1__lehrg42YNU8nsCs5JBzHmVgP-aawoO4wovNZR6QXYifDOuQrvur1ALY-RkImjhn3iqiQ85BqpIo1fjkWOLyft0KslDZyoWGi0l62Us95e-ECKr1OfB5VNaaVorrKWNr2dMbFtsRocPHoXSIPYxtI9TZCWpZfXNxaXqc8fTIZMeesrgDD37yb4BcG3QXONwNoNN-9mqRCi43SeEIIYWjEYXWHbWH8SHJmEFwlfjZRtRMD_yPKCVRDAKGiphGc4eo1MEvSLecIB2Z9o-XQ6V80bwwmcfvYPOjCgE0VaCvtc_CfJNcQRvOvcx6lA8mDA92uf165A1HxemvXjTcNoPYDJYVZ9sM19P-ha7bAtUeh-tJmjDa7FN0IJch-mCS5x2D60uSnOms-WXW3gIZqbnXS7eD5kM_BRKUEUyFdAQBTsgVwdOwktl_d_TNNVwuVTjjgNIk8LW4ZBFL0fMD6-3ZFrphe6S_IiZpLbA8WbG8J6ZFFCyBO4rJ5A1ZskjUiDyi6SxBoGyo5r7x5iQG1zSfNGIt-VchooVZNB-FBqTD2ggqZQOWf3EHyDYBlPsdCf-8MAWgQlAu9Fce0yoDbi5jKuunE5Ugmg_lsIXgFCBka21w1EOvKCKYAY6tcSSMdf99UDZTYi0p4McT-Tf_MrUfZmQ8BCRNmOtsJXTi9dxELa3TS7_LweNpQnVQ9bV6hYjIhQ1a4uEhklTQM1UHV4qZWORH9Ajg5FmCi8NLv_BfXoni8-BeklFfD6mpMOo8utV6Myg6QHAyQq3_333iICdGbcmxec3FrzMhXkpSHn37hrPCvmo6bGc1GY5LiLtIqF3fjdf9XYFnc_EdYuzSFuykh9mwmfUHqhUIa6f8kDIAaXtGzd6tF_BjVo0vPQXgyIIcywTBM96GZtAHX8rW7RmEKh9FcJ3t6HamhOUv7jK_mEHIEggPgXhDlTchVbr-dUFpDiAu-J74amgM87iNyt0yUKN17N7eFOqqmNlAoV2-vG2HURLuKPQFB-mUhsIKoQkm4t0MuD-OUWQuCDZS9jjIusYHpcs7H0MrrF7mrWrzi2KMGdqBtYFWExlWyS_4z9VmzzOB83AgOvUBpSVedD8G2dYsdIab_cYXew1NRTfDI0jZTJMD_-HcPysWUG8DE-dpmJDE7xRU7i-AmRllHqJJD_vEJAgdzIe1n1VzddTkw0hym9NX86l6QAjx5oWsRWg_llB2Iey-LM9h2Zct0EfoA02bg8kLAtiLnaVPC8S3ktrS_6qHwVUJfleu7sMk6LfUjw3oDQ7Bq_9W6fCIF5xXNhG17BUH6PnzQ8qLas4j9YLNI29A-wDDl1gBD4KRpDqjY0X5Q12iRDUGAQMxZuHV69Aid8DQpAnd8T3UP_YZtnaRfHChMe3hEaVRO2Rempakv0N_Jixvdzp2bouAwRfgnxmxzFtgP4iQsIqHjXJCfMh4m2dALTLb1sg4u2xB8J0Wr5NUEOs4NcisZeytrnCc9eqSR8rmw2fKGw6OI2x-JXRQv2Kc_bt3TjDsaJzPwbb30z9dwa_QS5GoFhaETt7ZuoPl12iDDvsTtWIMqltJFPpwc_oiXE3nH8ah2AKwljh5Ud6IDmmViY-XzxGOHeqaiSITErH_eOfaw0YSp8cxCZJGqy32bG3TDxDIwnjQjnBEUlJSpth20c55WvgMTf48mrDCn3NBwo4x__ZQ-mqnZ-dhwTyTs1n8tPdVqCbqvqrt1BbC-aa_3D7SDOkUc_-cd6gXbz1mgGIKood_QVjbm9mXwsaYHywXG99G6W_MT2crjFqUJFJvcMLjD3U3Epev7RNbsfSxd8MSAnD_czkSR_rxZEArn_gi2AS8o0-TcgbYSRMqv1VkaNxvDlrkKCZNmcnRh21SGOsYSwJWIPlhyIubshQPFPct-_m00]--></g></svg>