<?xml version="1.0" encoding="UTF-8" standalone="no"?><svg xmlns="http://www.w3.org/2000/svg" xmlns:xlink="http://www.w3.org/1999/xlink" contentStyleType="text/css" height="748px" preserveAspectRatio="none" style="width:767px;height:748px;background:#FFFFFF;" version="1.1" viewBox="0 0 767 748" width="767px" zoomAndPan="magnify"><defs/><g><rect fill="#1168BD" height="36.7999" rx="12.5" ry="12.5" style="stroke:#1168BD;stroke-width:1.5;" width="82" x="10" y="354.9995"/><text fill="#FFFFFF" font-family="sans-serif" font-size="14" lengthAdjust="spacing" textLength="62" x="20" y="378.9995">PlantUML</text><rect fill="#1168BD" height="36.7999" rx="12.5" ry="12.5" style="stroke:#1168BD;stroke-width:1.5;" width="112" x="142" y="261.3997"/><text fill="#FFFFFF" font-family="sans-serif" font-size="14" lengthAdjust="spacing" textLength="92" x="152" y="285.3996">UML diagrams</text><rect fill="#1168BD" height="36.7999" rx="12.5" ry="12.5" style="stroke:#1168BD;stroke-width:1.5;" width="144" x="304" y="119.3999"/><text fill="#FFFFFF" font-family="sans-serif" font-size="14" lengthAdjust="spacing" textLength="124" x="314" y="143.3998">Behaviour diagrams</text><rect fill="#1168BD" height="36.7999" rx="12.5" ry="12.5" style="stroke:#1168BD;stroke-width:1.5;" width="84" x="498" y="20"/><text fill="#FFFFFF" font-family="sans-serif" font-size="14" lengthAdjust="spacing" textLength="64" x="508" y="43.9999">Use cases</text><path d="M448,137.7998 L458,137.7998 C473,137.7998 473,38.4 488,38.4 L498,38.4 " fill="none" style="stroke:#E91E63;stroke-width:1.0;"/><rect fill="#1168BD" height="36.7999" rx="12.5" ry="12.5" style="stroke:#1168BD;stroke-width:1.5;" width="74" x="498" y="76.7999"/><text fill="#FFFFFF" font-family="sans-serif" font-size="14" lengthAdjust="spacing" textLength="54" x="508" y="100.7999">Activities</text><path d="M448,137.7998 L458,137.7998 C473,137.7998 473,95.1999 488,95.1999 L498,95.1999 " fill="none" style="stroke:#E91E63;stroke-width:1.0;"/><rect fill="#1168BD" height="36.7999" rx="12.5" ry="12.5" style="stroke:#1168BD;stroke-width:1.5;" width="59" x="498" y="133.5999"/><text fill="#FFFFFF" font-family="sans-serif" font-size="14" lengthAdjust="spacing" textLength="39" x="508" y="157.5998">States</text><path d="M448,137.7998 L458,137.7998 C473,137.7998 473,151.9998 488,151.9998 L498,151.9998 " fill="none" style="stroke:#E91E63;stroke-width:1.0;"/><rect fill="#1168BD" height="36.7999" rx="12.5" ry="12.5" style="stroke:#1168BD;stroke-width:1.5;" width="92" x="498" y="190.3998"/><text fill="#FFFFFF" font-family="sans-serif" font-size="14" lengthAdjust="spacing" textLength="72" x="508" y="214.3997">Interactions</text><rect fill="#1168BD" height="36.7999" rx="12.5" ry="12.5" style="stroke:#1168BD;stroke-width:1.5;" width="88" x="640" y="161.9998"/><text fill="#FFFFFF" font-family="sans-serif" font-size="14" lengthAdjust="spacing" textLength="68" x="650" y="185.9998">Sequences</text><path d="M590,208.7997 L600,208.7997 C615,208.7997 615,180.3998 630,180.3998 L640,180.3998 " fill="none" style="stroke:#E91E63;stroke-width:1.0;"/><rect fill="#1168BD" height="36.7999" rx="12.5" ry="12.5" style="stroke:#1168BD;stroke-width:1.5;" width="115" x="640" y="218.7997"/><text fill="#FFFFFF" font-family="sans-serif" font-size="14" lengthAdjust="spacing" textLength="95" x="650" y="242.7997">Communication</text><path d="M590,208.7997 L600,208.7997 C615,208.7997 615,237.1997 630,237.1997 L640,237.1997 " fill="none" style="stroke:#E91E63;stroke-width:1.0;"/><path d="M448,137.7998 L458,137.7998 C473,137.7998 473,208.7997 488,208.7997 L498,208.7997 " fill="none" style="stroke:#E91E63;stroke-width:1.0;"/><path d="M254,279.7997 L264,279.7997 C279,279.7997 279,137.7998 294,137.7998 L304,137.7998 " fill="none" style="stroke:#E91E63;stroke-width:1.0;"/><rect fill="#1168BD" height="36.7999" rx="12.5" ry="12.5" style="stroke:#1168BD;stroke-width:1.5;" width="139" x="304" y="389.1995"/><text fill="#FFFFFF" font-family="sans-serif" font-size="14" lengthAdjust="spacing" textLength="119" x="314" y="413.1995">Structure diagrams</text><rect fill="#1168BD" height="36.7999" rx="12.5" ry="12.5" style="stroke:#1168BD;stroke-width:1.5;" width="69" x="493" y="275.5997"/><text fill="#FFFFFF" font-family="sans-serif" font-size="14" lengthAdjust="spacing" textLength="49" x="503" y="299.5996">Classes</text><path d="M443,407.5995 L453,407.5995 C468,407.5995 468,293.9996 483,293.9996 L493,293.9996 " fill="none" style="stroke:#E91E63;stroke-width:1.0;"/><rect fill="#1168BD" height="36.7999" rx="12.5" ry="12.5" style="stroke:#1168BD;stroke-width:1.5;" width="67" x="493" y="332.3996"/><text fill="#FFFFFF" font-family="sans-serif" font-size="14" lengthAdjust="spacing" textLength="47" x="503" y="356.3995">Objects</text><path d="M443,407.5995 L453,407.5995 C468,407.5995 468,350.7996 483,350.7996 L493,350.7996 " fill="none" style="stroke:#E91E63;stroke-width:1.0;"/><rect fill="#1168BD" height="36.7999" rx="12.5" ry="12.5" style="stroke:#1168BD;stroke-width:1.5;" width="81" x="493" y="389.1995"/><text fill="#FFFFFF" font-family="sans-serif" font-size="14" lengthAdjust="spacing" textLength="61" x="503" y="413.1995">Packages</text><path d="M443,407.5995 L453,407.5995 C468,407.5995 468,407.5995 483,407.5995 L493,407.5995 " fill="none" style="stroke:#E91E63;stroke-width:1.0;"/><rect fill="#1168BD" height="36.7999" rx="12.5" ry="12.5" style="stroke:#1168BD;stroke-width:1.5;" width="97" x="493" y="445.9995"/><text fill="#FFFFFF" font-family="sans-serif" font-size="14" lengthAdjust="spacing" textLength="77" x="503" y="469.9994">Components</text><path d="M443,407.5995 L453,407.5995 C468,407.5995 468,464.3994 483,464.3994 L493,464.3994 " fill="none" style="stroke:#E91E63;stroke-width:1.0;"/><rect fill="#1168BD" height="36.7999" rx="12.5" ry="12.5" style="stroke:#1168BD;stroke-width:1.5;" width="92" x="493" y="502.7994"/><text fill="#FFFFFF" font-family="sans-serif" font-size="14" lengthAdjust="spacing" textLength="72" x="503" y="526.7993">Deployment</text><path d="M443,407.5995 L453,407.5995 C468,407.5995 468,521.1993 483,521.1993 L493,521.1993 " fill="none" style="stroke:#E91E63;stroke-width:1.0;"/><path d="M254,279.7997 L264,279.7997 C279,279.7997 279,407.5995 294,407.5995 L304,407.5995 " fill="none" style="stroke:#E91E63;stroke-width:1.0;"/><path d="M92,373.3995 L102,373.3995 C117,373.3995 117,279.7997 132,279.7997 L142,279.7997 " fill="none" style="stroke:#E91E63;stroke-width:1.0;"/><rect fill="#1168BD" height="36.7999" rx="12.5" ry="12.5" style="stroke:#1168BD;stroke-width:1.5;" width="117" x="142" y="624.7992"/><text fill="#FFFFFF" font-family="sans-serif" font-size="14" lengthAdjust="spacing" textLength="97" x="152" y="648.7991">Other diagrams</text><rect fill="#1168BD" height="36.7999" rx="12.5" ry="12.5" style="stroke:#1168BD;stroke-width:1.5;" width="85" x="309" y="559.5993"/><text fill="#FFFFFF" font-family="sans-serif" font-size="14" lengthAdjust="spacing" textLength="65" x="319" y="583.5992">Mindmaps</text><path d="M259,643.1992 L269,643.1992 C284,643.1992 284,577.9993 299,577.9993 L309,577.9993 " fill="none" style="stroke:#E91E63;stroke-width:1.0;"/><rect fill="#1168BD" height="53.5999" rx="12.5" ry="12.5" style="stroke:#1168BD;stroke-width:1.5;" width="129" x="309" y="616.3992"/><text fill="#FFFFFF" font-family="sans-serif" font-size="14" lengthAdjust="spacing" textLength="105" x="319" y="640.3992">Work Breakdown</text><text fill="#FFFFFF" font-family="sans-serif" font-size="14" lengthAdjust="spacing" textLength="109" x="319" y="657.1991">Structures (WBS)</text><path d="M259,643.1992 L269,643.1992 C284,643.1992 284,643.1992 299,643.1992 L309,643.1992 " fill="none" style="stroke:#E91E63;stroke-width:1.0;"/><rect fill="#1168BD" height="36.7999" rx="12.5" ry="12.5" style="stroke:#1168BD;stroke-width:1.5;" width="100" x="309" y="689.9991"/><text fill="#FFFFFF" font-family="sans-serif" font-size="14" lengthAdjust="spacing" textLength="80" x="319" y="713.999">C4 diagrams</text><path d="M259,643.1992 L269,643.1992 C284,643.1992 284,708.399 299,708.399 L309,708.399 " fill="none" style="stroke:#E91E63;stroke-width:1.0;"/><path d="M92,373.3995 L102,373.3995 C117,373.3995 117,643.1992 132,643.1992 L142,643.1992 " fill="none" style="stroke:#E91E63;stroke-width:1.0;"/><!--MD5=[31232fd88563204aacf351f43f9bf186]
@startmindmap
<style>
mindmapDiagram {
  node {
    BackgroundColor #1168bd
    LineColor #1168bd
    FontColor #fff
    MaximumWidth 150
  }
  boxless {
    FontColor #1168bd
  }
  arrow {
    LineColor #e91e63
  }
}
wbsDiagram {
  node {
    BackgroundColor #1168bd
    LineColor #1168bd
    FontColor #fff
    MaximumWidth 100
  }
  boxless {
    FontColor #1168bd
  }
  arrow {
    LineColor #e91e63
  }
}
</style>
* PlantUML
 * UML diagrams
  * Behaviour diagrams
   * Use cases
   * Activities
   * States
   * Interactions
    * Sequences
    * Communication
  * Structure diagrams
   * Classes
   * Objects
   * Packages
   * Components
   * Deployment
 * Other diagrams
  * Mindmaps
  * Work Breakdown Structures (WBS)
  * C4 diagrams
@endmindmap

PlantUML version 1.2022.3(Tue Mar 29 16:10:57 GMT 2022)
(GPL source distribution)
Java Runtime: OpenJDK Runtime Environment
JVM: OpenJDK 64-Bit Server VM
Default Encoding: UTF-8
Language: en
Country: US
--></g></svg>