<?xml version="1.0" encoding="UTF-8" standalone="no"?><svg xmlns="http://www.w3.org/2000/svg" xmlns:xlink="http://www.w3.org/1999/xlink" contentStyleType="text/css" height="585px" preserveAspectRatio="none" style="width:835px;height:585px;background:#FFFFFF;" version="1.1" viewBox="0 0 835 585" width="835px" zoomAndPan="magnify"><defs/><g><rect fill="none" height="583.0781" style="stroke:#FFFFFF;stroke-width:1.0;" width="833" x="0" y="0"/><!--cluster boundary1--><g id="cluster_boundary1"><rect fill="none" height="165" rx="2.5" ry="2.5" style="stroke:#444444;stroke-width:1.0;stroke-dasharray:7.0,7.0;" width="782" x="43" y="7"/><text fill="#444444" font-family="Roboto" font-size="15" font-weight="bold" lengthAdjust="spacing" textLength="149" x="359.5" y="24.9233">System_Boundary</text><text fill="#444444" font-family="Roboto" font-size="12" font-weight="bold" lengthAdjust="spacing" textLength="62" x="403" y="39.5996">[System]</text></g><!--cluster boundary2--><g id="cluster_boundary2"><rect fill="none" height="165" rx="2.5" ry="2.5" style="stroke:#444444;stroke-width:1.0;stroke-dasharray:7.0,7.0;" width="822" x="7" y="223"/><text fill="#444444" font-family="Roboto" font-size="15" font-weight="bold" lengthAdjust="spacing" textLength="149" x="343.5" y="240.9233">System_Boundary</text><text fill="#444444" font-family="Roboto" font-size="12" font-weight="bold" lengthAdjust="spacing" textLength="62" x="387" y="255.5996">[System]</text></g><!--entity container1--><g id="elem_container1"><rect fill="#438DD5" height="85.6953" rx="2.5" ry="2.5" style="stroke:#3C7FC0;stroke-width:0.5;" width="157" x="316.5" y="65.5"/><text fill="#FFFFFF" font-family="Roboto" font-size="15" font-weight="bold" lengthAdjust="spacing" textLength="79" x="355.5" y="91.4233">Container</text><text fill="#FFFFFF" font-family="Roboto" font-size="12" font-style="italic" lengthAdjust="spacing" textLength="82" x="354" y="106.0996">[Technology]</text><text fill="#FFFFFF" font-family="Roboto" font-size="13" lengthAdjust="spacing" textLength="4" x="393" y="120.9966"> </text><text fill="#FFFFFF" font-family="Roboto" font-size="13" lengthAdjust="spacing" textLength="4" x="328.5" y="136.1294"> </text><text fill="#FFFFFF" font-family="Roboto" font-size="13" lengthAdjust="spacing" textLength="53" x="332.5" y="136.1294">Optional</text><text fill="#FFFFFF" font-family="Roboto" font-size="13" lengthAdjust="spacing" textLength="4" x="385.5" y="136.1294"> </text><text fill="#FFFFFF" font-family="Roboto" font-size="13" lengthAdjust="spacing" textLength="72" x="389.5" y="136.1294">Description</text></g><!--entity cqueue--><g id="elem_cqueue"><path d="M64,86 L210,86 C215,86 215,108.7148 215,108.7148 C215,108.7148 215,131.4297 210,131.4297 L64,131.4297 C59,131.4297 59,108.7148 59,108.7148 C59,108.7148 59,86 64,86 " fill="#438DD5" style="stroke:#3C7FC0;stroke-width:0.5;"/><path d="M210,86 C205,86 205,108.7148 205,108.7148 C205,131.4297 210,131.4297 210,131.4297 " fill="none" style="stroke:#3C7FC0;stroke-width:0.5;"/><text fill="#FFFFFF" font-family="Roboto" font-size="15" font-weight="bold" lengthAdjust="spacing" textLength="132" x="66" y="106.9233">ContainerQueue</text><text fill="#FFFFFF" font-family="Roboto" font-size="12" font-style="italic" lengthAdjust="spacing" textLength="82" x="91" y="121.5996">[Technology]</text></g><!--entity cdb--><g id="elem_cdb"><path d="M651.5,71 C651.5,61 730,61 730,61 C730,61 808.5,61 808.5,71 L808.5,145.6953 C808.5,155.6953 730,155.6953 730,155.6953 C730,155.6953 651.5,155.6953 651.5,145.6953 L651.5,71 " fill="#438DD5" style="stroke:#3C7FC0;stroke-width:0.5;"/><path d="M651.5,71 C651.5,81 730,81 730,81 C730,81 808.5,81 808.5,71 " fill="none" style="stroke:#3C7FC0;stroke-width:0.5;"/><text fill="#FFFFFF" font-family="Roboto" font-size="15" font-weight="bold" lengthAdjust="spacing" textLength="101" x="679.5" y="100.9233">ContainerDb</text><text fill="#FFFFFF" font-family="Roboto" font-size="12" font-style="italic" lengthAdjust="spacing" textLength="82" x="689" y="115.5996">[Technology]</text><text fill="#FFFFFF" font-family="Roboto" font-size="13" lengthAdjust="spacing" textLength="4" x="728" y="130.4966"> </text><text fill="#FFFFFF" font-family="Roboto" font-size="13" lengthAdjust="spacing" textLength="4" x="663.5" y="145.6294"> </text><text fill="#FFFFFF" font-family="Roboto" font-size="13" lengthAdjust="spacing" textLength="53" x="667.5" y="145.6294">Optional</text><text fill="#FFFFFF" font-family="Roboto" font-size="13" lengthAdjust="spacing" textLength="4" x="720.5" y="145.6294"> </text><text fill="#FFFFFF" font-family="Roboto" font-size="13" lengthAdjust="spacing" textLength="72" x="724.5" y="145.6294">Description</text></g><!--entity container2--><g id="elem_container2"><rect fill="#B3B3B3" height="85.6953" rx="2.5" ry="2.5" style="stroke:#A6A6A6;stroke-width:0.5;" width="157" x="316.5" y="281.5"/><text fill="#FFFFFF" font-family="Roboto" font-size="15" font-weight="bold" lengthAdjust="spacing" textLength="115" x="337.5" y="307.4233">Container_Ext</text><text fill="#FFFFFF" font-family="Roboto" font-size="12" font-style="italic" lengthAdjust="spacing" textLength="82" x="354" y="322.0996">[Technology]</text><text fill="#FFFFFF" font-family="Roboto" font-size="13" lengthAdjust="spacing" textLength="4" x="393" y="336.9966"> </text><text fill="#FFFFFF" font-family="Roboto" font-size="13" lengthAdjust="spacing" textLength="4" x="328.5" y="352.1294"> </text><text fill="#FFFFFF" font-family="Roboto" font-size="13" lengthAdjust="spacing" textLength="53" x="332.5" y="352.1294">Optional</text><text fill="#FFFFFF" font-family="Roboto" font-size="13" lengthAdjust="spacing" textLength="4" x="385.5" y="352.1294"> </text><text fill="#FFFFFF" font-family="Roboto" font-size="13" lengthAdjust="spacing" textLength="72" x="389.5" y="352.1294">Description</text></g><!--entity cqueue2--><g id="elem_cqueue2"><path d="M28,302 L210,302 C215,302 215,324.7148 215,324.7148 C215,324.7148 215,347.4297 210,347.4297 L28,347.4297 C23,347.4297 23,324.7148 23,324.7148 C23,324.7148 23,302 28,302 " fill="#B3B3B3" style="stroke:#A6A6A6;stroke-width:0.5;"/><path d="M210,302 C205,302 205,324.7148 205,324.7148 C205,347.4297 210,347.4297 210,347.4297 " fill="none" style="stroke:#A6A6A6;stroke-width:0.5;"/><text fill="#FFFFFF" font-family="Roboto" font-size="15" font-weight="bold" lengthAdjust="spacing" textLength="168" x="30" y="322.9233">ContainerQueue_Ext</text><text fill="#FFFFFF" font-family="Roboto" font-size="12" font-style="italic" lengthAdjust="spacing" textLength="82" x="73" y="337.5996">[Technology]</text></g><!--entity cdb2--><g id="elem_cdb2"><path d="M651.5,287 C651.5,277 732,277 732,277 C732,277 812.5,277 812.5,287 L812.5,361.6953 C812.5,371.6953 732,371.6953 732,371.6953 C732,371.6953 651.5,371.6953 651.5,361.6953 L651.5,287 " fill="#B3B3B3" style="stroke:#A6A6A6;stroke-width:0.5;"/><path d="M651.5,287 C651.5,297 732,297 732,297 C732,297 812.5,297 812.5,287 " fill="none" style="stroke:#A6A6A6;stroke-width:0.5;"/><text fill="#FFFFFF" font-family="Roboto" font-size="15" font-weight="bold" lengthAdjust="spacing" textLength="137" x="663.5" y="316.9233">ContainerDb_Ext</text><text fill="#FFFFFF" font-family="Roboto" font-size="12" font-style="italic" lengthAdjust="spacing" textLength="82" x="691" y="331.5996">[Technology]</text><text fill="#FFFFFF" font-family="Roboto" font-size="13" lengthAdjust="spacing" textLength="4" x="730" y="346.4966"> </text><text fill="#FFFFFF" font-family="Roboto" font-size="13" lengthAdjust="spacing" textLength="4" x="665.5" y="361.6294"> </text><text fill="#FFFFFF" font-family="Roboto" font-size="13" lengthAdjust="spacing" textLength="53" x="669.5" y="361.6294">Optional</text><text fill="#FFFFFF" font-family="Roboto" font-size="13" lengthAdjust="spacing" textLength="4" x="722.5" y="361.6294"> </text><text fill="#FFFFFF" font-family="Roboto" font-size="13" lengthAdjust="spacing" textLength="72" x="726.5" y="361.6294">Description</text></g><!--link container1 to cdb--><g id="link_container1_cdb"><path d="M473.97,108.5 C524.42,108.5 589.92,108.5 642.04,108.5 " fill="none" id="container1-to-cdb" style="stroke:#666666;stroke-width:1.0;"/><polygon fill="#666666" points="649.76,108.5,641.76,105.5,641.76,111.5,649.76,108.5" style="stroke:#666666;stroke-width:1.0;"/><text fill="#666666" font-family="Roboto" font-size="12" font-weight="bold" lengthAdjust="spacing" textLength="37" x="544" y="86.6387">Rel_R</text><text fill="#666666" font-family="Roboto" font-size="12" font-style="italic" lengthAdjust="spacing" textLength="56" x="494" y="100.6074">[Optional</text><text fill="#666666" font-family="Roboto" font-size="12" font-style="italic" lengthAdjust="spacing" textLength="4" x="550" y="100.6074"> </text><text fill="#666666" font-family="Roboto" font-size="12" font-style="italic" lengthAdjust="spacing" textLength="77" x="554" y="100.6074">Technology]</text></g><!--link cqueue to container1--><g id="link_cqueue_container1"><path d="M224.93,108.5 C251.35,108.5 280.34,108.5 306.79,108.5 " fill="none" id="cqueue-container1" style="stroke:#666666;stroke-width:1.0;"/><polygon fill="#666666" points="216.97,108.5,224.97,111.5,224.97,105.5,216.97,108.5" style="stroke:#666666;stroke-width:1.0;"/><polygon fill="#666666" points="314.51,108.5,306.51,105.5,306.51,111.5,314.51,108.5" style="stroke:#666666;stroke-width:1.0;"/><text fill="#666666" font-family="Roboto" font-size="12" font-weight="bold" lengthAdjust="spacing" textLength="35" x="248.25" y="86.6387">BiRel</text><text fill="#666666" font-family="Roboto" font-size="12" font-style="italic" lengthAdjust="spacing" textLength="61" x="235.25" y="100.6074">[Optional]</text></g><!--link container2 to cdb2--><g id="link_container2_cdb2"><path d="M473.59,324.5 C523.95,324.5 589.47,324.5 641.94,324.5 " fill="none" id="container2-to-cdb2" style="stroke:#666666;stroke-width:1.0;"/><polygon fill="#666666" points="649.72,324.5,641.72,321.5,641.72,327.5,649.72,324.5" style="stroke:#666666;stroke-width:1.0;"/><text fill="#666666" font-family="Roboto" font-size="12" font-weight="bold" lengthAdjust="spacing" textLength="37" x="544" y="302.6387">Rel_R</text><text fill="#666666" font-family="Roboto" font-size="12" font-style="italic" lengthAdjust="spacing" textLength="56" x="494" y="316.6074">[Optional</text><text fill="#666666" font-family="Roboto" font-size="12" font-style="italic" lengthAdjust="spacing" textLength="4" x="550" y="316.6074"> </text><text fill="#666666" font-family="Roboto" font-size="12" font-style="italic" lengthAdjust="spacing" textLength="77" x="554" y="316.6074">Technology]</text></g><!--link cqueue2 to container2--><g id="link_cqueue2_container2"><path d="M224.51,324.5 C251.6,324.5 280.46,324.5 306.59,324.5 " fill="none" id="cqueue2-container2" style="stroke:#666666;stroke-width:1.0;"/><polygon fill="#666666" points="216.66,324.5,224.66,327.5,224.66,321.5,216.66,324.5" style="stroke:#666666;stroke-width:1.0;"/><polygon fill="#666666" points="314.57,324.5,306.57,321.5,306.57,327.5,314.57,324.5" style="stroke:#666666;stroke-width:1.0;"/><text fill="#666666" font-family="Roboto" font-size="12" font-weight="bold" lengthAdjust="spacing" textLength="35" x="248.25" y="302.6387">BiRel</text><text fill="#666666" font-family="Roboto" font-size="12" font-style="italic" lengthAdjust="spacing" textLength="61" x="235.25" y="316.6074">[Optional]</text></g><!--link container1 to container2--><g id="link_container1_container2"><path d="M395,151.78 C395,186.37 395,235.4 395,272.23 " fill="none" id="container1-to-container2" style="stroke:#666666;stroke-width:1.0;"/><polygon fill="#666666" points="395,279.79,398,271.79,392,271.79,395,279.79" style="stroke:#666666;stroke-width:1.0;"/><text fill="#666666" font-family="Roboto" font-size="12" font-weight="bold" lengthAdjust="spacing" textLength="22" x="398" y="202.1387">Rel</text></g><text fill="#000000" font-family="Roboto" font-size="14" font-weight="bold" lengthAdjust="spacing" textLength="59" x="668" y="428.9951">Legend</text><text fill="#FFFFFF" font-family="Roboto" font-size="14" lengthAdjust="spacing" textLength="4" x="727" y="428.9951"> </text><rect fill="#08427B" height="20.2969" style="stroke:none;stroke-width:1.0;" width="136" x="666" y="434.2969"/><text fill="#FFFFFF" font-family="Roboto" font-size="14" lengthAdjust="spacing" textLength="49" x="672" y="449.292">person</text><rect fill="#1168BD" height="20.2969" style="stroke:none;stroke-width:1.0;" width="136" x="666" y="454.5938"/><text fill="#FFFFFF" font-family="Roboto" font-size="14" lengthAdjust="spacing" textLength="50" x="672" y="469.5889">system</text><rect fill="#438DD5" height="20.2969" style="stroke:none;stroke-width:1.0;" width="136" x="666" y="474.8906"/><text fill="#FFFFFF" font-family="Roboto" font-size="14" lengthAdjust="spacing" textLength="65" x="672" y="489.8857">container</text><rect fill="#686868" height="20.2969" style="stroke:none;stroke-width:1.0;" width="136" x="666" y="495.1875"/><text fill="#FFFFFF" font-family="Roboto" font-size="14" lengthAdjust="spacing" textLength="108" x="672" y="510.1826">external person</text><rect fill="#999999" height="20.2969" style="stroke:none;stroke-width:1.0;" width="136" x="666" y="515.4844"/><text fill="#FFFFFF" font-family="Roboto" font-size="14" lengthAdjust="spacing" textLength="109" x="672" y="530.4795">external system</text><rect fill="#B3B3B3" height="20.2969" style="stroke:none;stroke-width:1.0;" width="136" x="666" y="535.7813"/><text fill="#FFFFFF" font-family="Roboto" font-size="14" lengthAdjust="spacing" textLength="124" x="672" y="550.7764">external container</text><line style="stroke:#FFFFFF;stroke-width:1.0;" x1="666" x2="802" y1="414" y2="414"/><line style="stroke:#FFFFFF;stroke-width:1.0;" x1="666" x2="802" y1="434.2969" y2="434.2969"/><line style="stroke:#FFFFFF;stroke-width:1.0;" x1="666" x2="802" y1="454.5938" y2="454.5938"/><line style="stroke:#FFFFFF;stroke-width:1.0;" x1="666" x2="802" y1="474.8906" y2="474.8906"/><line style="stroke:#FFFFFF;stroke-width:1.0;" x1="666" x2="802" y1="495.1875" y2="495.1875"/><line style="stroke:#FFFFFF;stroke-width:1.0;" x1="666" x2="802" y1="515.4844" y2="515.4844"/><line style="stroke:#FFFFFF;stroke-width:1.0;" x1="666" x2="802" y1="535.7813" y2="535.7813"/><line style="stroke:#FFFFFF;stroke-width:1.0;" x1="666" x2="802" y1="556.0781" y2="556.0781"/><line style="stroke:#FFFFFF;stroke-width:1.0;" x1="666" x2="666" y1="414" y2="556.0781"/><line style="stroke:#FFFFFF;stroke-width:1.0;" x1="802" x2="802" y1="414" y2="556.0781"/><!--SRC=[lHXhKo99yZk_ecIDK28uHre67pVEXWAEHZ0wAtWRyuaekXEei-bYgwj5z-B- -sLMTqFrIz7Tk35YmChtEzCzDjGllWXcB0IjyJDaKwdO3vy7-k7xW7c2pnHVXBKzDWHWSwsNPvy-BGaSBVo3K4RA1QIOmK40sj1wqeqM46YkXGoGRYJP346S-IBKJ4xPKeQXcFZ0maSHB3coNmjlCXK5Popbp_w1NsOHdq4D6NNl1dVtG_nolkK_8ff108hxp9M-L6YSaWicLm4BqMm8vm2wjhERM3cUSFTnfcGKU6E3pyvP_PVfT5gtSQJoG5N3Du2JG_eX65TAhYm8dBQWSqGGTFsZ1JXgdvxqBkka-88_0kFUGWQ279aQm9-uy3bvZtmDFf2hG-JayeZmB6Ryi7rqwjOjM0QSw2qMIwaq-ji2UKVErCb1osW3gS5wTLh70CThG1c55alhiTtYqtOdVI_3Nt4LO6BOlckTj5fj6rQaG_S5qeDngnb_Eem77YEbc4Qt1d4QTDic2v25qPZmnmikR6w79stdU59FuKuUtcfrJYQU1UVHirCIpyGZEUhJqrEZQnIMHPhYA_KSCb7svKouMJvP7o4EPV0oXvF93fEjJuBIE8krZawjjhDKqWKlKi0IeQPYzdUVk3flDMgCxIRECqzDLb2j_2aVj0QhxK3WhQLb9SUcM9BRPPBp1fS_vOkWYH6ukhhgNbtLNrSYzTLR3YZwjEhHplRNPITf-PReGlOsarB0J_hOGeYpdH2dMiW6PLC5RmdMsrcNgPqtRSDPDVevwBFh_k17_mCJGpEKAypyOYkXvt55iYNtSKp16UBiaZOufvHOSFN2fi9F9aoJwPUbSBdllx3DD24Az0cs8_fmph3QlJtV8WipT6R2D1dtDQW0rNY272yP42iP82SDpxg41-bdO4qMHijbt41GLQHUsnQI9Qq6Kp2BVAxOlWTJ7lcwWSzEWmLy0GXx0XM2n_Pnw83FPAH3p6T2EMgaqAnsxGPE-jbSPry_DnAxyECPkKcvD1OIfqw37HmSP5F3Je5pifOiQgxT67k0d7bU_yLrtNhi3_obq-dKAObsn9J5rETrnxmmThdMg6iYQfZ64ADRyaeopEkL37GUSuX10OcUXY9q1_mGBBb7LNBN4Z9orpB-ejnsjLJdNTRcxVdyD_hn6ZXYMX0CQOd8JfN86Frla9W2geAKq-ZuNSvz9QI6xrzrPsf2QNQyOL_gyC0JqrhCTIZ-1DOwAZRKR_tR_lt5W0txez7DxRVtzTITtOdqNiPJ532UyeN0_eJhpxsSI2tho0cuEq-N7ERomBHWeKEpg9DQjzYAcci5asyqDFv9InrrKw3rRbMhRKwAWhbLIxv5qujHCbuls_ijacjqkQ8jFa7VBFJejWqQBdVIdUFMYHkeYi1Y4Cwv9rTqWKqv9OJ56fVMbH8uSe82x0VQJ3IEBUIUZ7Abmek7VJPZC3whyFPQY40ieWMECu_c6VhOt1SX_151u49wv-6CKrguOeaRVyYmIJ-YveeQF1vYc0sM1iYnw_Cm_DrmR1qUsixlnPE4_QUMoLOy3UCiY1t4ri5bXGn94vAYZA5L2-xZqmWdsWLEbo1E5VmFLEs_jkGBEhMCtBHgDhTNLXaRa65nItS2SSZk9mt2scCFmpxhNWpxxwe0IpzNe_24kxNRETHMzjXtS_KHJk9-N-03pl9kkyPOx0s-WX0JAQlqGmWk3y7YxDXwsvdZFk917IFQ-tLYtqLtTFElcz7FZzk76wz-ALN4c80PbaIWiBKYlB-krpBe9K_BCdzQvB8WqG8B6YlFYvMnpvY2Kp3jpRvNxfODvd0b5bWBYV-ofq45waXelnI_axXysF_jeN_RVLzAxPbCEiCI1We-wrBqqpBc4_a41GFZkYv9Fbh2rYsbVPWruvAw2csvHRgZdCLTh2ub_Iqm-u7E9aaLOezhFiacjbKoEUc-3wxPR4jjp23_5a44RwCDamOv45F0rbvMNySL93tm-KjPs9qgWXXhcynAABvHdXQJ-tC5-ZrCSKkWTb_8yWwrdtZkZUR2VGmW35chdCqbBl051krC3k4AOJ9xwtH-J-OZSg__Ot3tytl_TlJEuovNDAvLDDJRawTAXAHvbiFP_bGy_qf-I4icnXlcXYpzAJCkb4fuN1wLO9Ey5L3oJb8pvHWRDQs2UHtLxgmpoBIGgYc3Ts7QJL-hhmjiIrESTszpxCh5KWPR2RyI_XQ3iCkLzpRM4FDbFIvVPUVBo2kjYwnkYjQTjwRCBGggdD3k7Dp7-CQcStfpPTjQuskLpdiCXm4Oh-CaDG9-jJMK_heBlQBYDJppMHhYLqRh3UreA0oAcFbUVpVvDrIa0lQM2wsLc4GQAdQuFNjvo07ihQDoxxj7uJoO-L1Xa-aFNhoCuLhiuVrsLaR-vSiagV-lNukiEeK4unh-lpRlYC3r8yomBztsfsvxJDq85obGNskrmSNFkuVH-FURqVLuqCUphqTxs_0brB0OftrjFpMmrMJr78p-BBTU6UWWhJUITJmHik-ctuXw_Knq8t3d0IevCrpkbjIQk8_NHEWgONupVmrOqvW-kE_-GHysB_EUOvWXx4tsNMzYa_GcMok0ZEx17zzd38dPcVSCQKw3Iq4eWonfghy1sjHraojLpdS-uFnn_rblX3ks1mZquI34V8qXJY4I9PnpqOZ9lOcJ3ScxL2g6nJ5XSJuK5oUDYrCT67pC1jBsAr4q_WS0]--></g></svg>