<?xml version="1.0" encoding="UTF-8" standalone="no"?><svg xmlns="http://www.w3.org/2000/svg" xmlns:xlink="http://www.w3.org/1999/xlink" contentScriptType="application/ecmascript" contentStyleType="text/css" height="731px" preserveAspectRatio="none" style="width:774px;height:731px;" version="1.1" viewBox="0 0 774 731" width="774px" zoomAndPan="magnify"><defs><filter height="300%" id="f1nhsbef2ag013" width="300%" x="-1" y="-1"><feGaussianBlur result="blurOut" stdDeviation="2.0"/><feColorMatrix in="blurOut" result="blurOut2" type="matrix" values="0 0 0 0 0 0 0 0 0 0 0 0 0 0 0 0 0 0 .4 0"/><feOffset dx="4.0" dy="4.0" in="blurOut2" result="blurOut3"/><feBlend in="SourceGraphic" in2="blurOut3" mode="normal"/></filter></defs><g><rect fill="#FEFECE" filter="url(#f1nhsbef2ag013)" height="36.7999" rx="12.5" ry="12.5" style="stroke:#A80036;stroke-width:1.5;" width="82" x="10" y="346.5996"/><text fill="#000000" font-family="sans-serif" font-size="14" lengthAdjust="spacing" textLength="62" x="20" y="370.5995">PlantUML</text><rect fill="#FEFECE" filter="url(#f1nhsbef2ag013)" height="36.7999" rx="12.5" ry="12.5" style="stroke:#A80036;stroke-width:1.5;" width="112" x="142" y="261.3997"/><text fill="#000000" font-family="sans-serif" font-size="14" lengthAdjust="spacing" textLength="92" x="152" y="285.3996">UML diagrams</text><rect fill="#FEFECE" filter="url(#f1nhsbef2ag013)" height="36.7999" rx="12.5" ry="12.5" style="stroke:#A80036;stroke-width:1.5;" width="144" x="304" y="119.3999"/><text fill="#000000" font-family="sans-serif" font-size="14" lengthAdjust="spacing" textLength="124" x="314" y="143.3998">Behaviour diagrams</text><rect fill="#FEFECE" filter="url(#f1nhsbef2ag013)" height="36.7999" rx="12.5" ry="12.5" style="stroke:#A80036;stroke-width:1.5;" width="84" x="498" y="20"/><text fill="#000000" font-family="sans-serif" font-size="14" lengthAdjust="spacing" textLength="64" x="508" y="43.9999">Use cases</text><path d="M448,137.7998 L458,137.7998 C473,137.7998 473,38.4 488,38.4 L498,38.4 " fill="none" style="stroke:#A80036;stroke-width:1.0;"/><rect fill="#FEFECE" filter="url(#f1nhsbef2ag013)" height="36.7999" rx="12.5" ry="12.5" style="stroke:#A80036;stroke-width:1.5;" width="74" x="498" y="76.7999"/><text fill="#000000" font-family="sans-serif" font-size="14" lengthAdjust="spacing" textLength="54" x="508" y="100.7999">Activities</text><path d="M448,137.7998 L458,137.7998 C473,137.7998 473,95.1999 488,95.1999 L498,95.1999 " fill="none" style="stroke:#A80036;stroke-width:1.0;"/><rect fill="#FEFECE" filter="url(#f1nhsbef2ag013)" height="36.7999" rx="12.5" ry="12.5" style="stroke:#A80036;stroke-width:1.5;" width="59" x="498" y="133.5999"/><text fill="#000000" font-family="sans-serif" font-size="14" lengthAdjust="spacing" textLength="39" x="508" y="157.5998">States</text><path d="M448,137.7998 L458,137.7998 C473,137.7998 473,151.9998 488,151.9998 L498,151.9998 " fill="none" style="stroke:#A80036;stroke-width:1.0;"/><rect fill="#FEFECE" filter="url(#f1nhsbef2ag013)" height="36.7999" rx="12.5" ry="12.5" style="stroke:#A80036;stroke-width:1.5;" width="92" x="498" y="190.3998"/><text fill="#000000" font-family="sans-serif" font-size="14" lengthAdjust="spacing" textLength="72" x="508" y="214.3997">Interactions</text><rect fill="#FEFECE" filter="url(#f1nhsbef2ag013)" height="36.7999" rx="12.5" ry="12.5" style="stroke:#A80036;stroke-width:1.5;" width="88" x="640" y="161.9998"/><text fill="#000000" font-family="sans-serif" font-size="14" lengthAdjust="spacing" textLength="68" x="650" y="185.9998">Sequences</text><path d="M590,208.7997 L600,208.7997 C615,208.7997 615,180.3998 630,180.3998 L640,180.3998 " fill="none" style="stroke:#A80036;stroke-width:1.0;"/><rect fill="#FEFECE" filter="url(#f1nhsbef2ag013)" height="36.7999" rx="12.5" ry="12.5" style="stroke:#A80036;stroke-width:1.5;" width="115" x="640" y="218.7997"/><text fill="#000000" font-family="sans-serif" font-size="14" lengthAdjust="spacing" textLength="95" x="650" y="242.7997">Communication</text><path d="M590,208.7997 L600,208.7997 C615,208.7997 615,237.1997 630,237.1997 L640,237.1997 " fill="none" style="stroke:#A80036;stroke-width:1.0;"/><path d="M448,137.7998 L458,137.7998 C473,137.7998 473,208.7997 488,208.7997 L498,208.7997 " fill="none" style="stroke:#A80036;stroke-width:1.0;"/><path d="M254,279.7997 L264,279.7997 C279,279.7997 279,137.7998 294,137.7998 L304,137.7998 " fill="none" style="stroke:#A80036;stroke-width:1.0;"/><rect fill="#FEFECE" filter="url(#f1nhsbef2ag013)" height="36.7999" rx="12.5" ry="12.5" style="stroke:#A80036;stroke-width:1.5;" width="139" x="304" y="389.1995"/><text fill="#000000" font-family="sans-serif" font-size="14" lengthAdjust="spacing" textLength="119" x="314" y="413.1995">Structure diagrams</text><rect fill="#FEFECE" filter="url(#f1nhsbef2ag013)" height="36.7999" rx="12.5" ry="12.5" style="stroke:#A80036;stroke-width:1.5;" width="69" x="493" y="275.5997"/><text fill="#000000" font-family="sans-serif" font-size="14" lengthAdjust="spacing" textLength="49" x="503" y="299.5996">Classes</text><path d="M443,407.5995 L453,407.5995 C468,407.5995 468,293.9996 483,293.9996 L493,293.9996 " fill="none" style="stroke:#A80036;stroke-width:1.0;"/><rect fill="#FEFECE" filter="url(#f1nhsbef2ag013)" height="36.7999" rx="12.5" ry="12.5" style="stroke:#A80036;stroke-width:1.5;" width="67" x="493" y="332.3996"/><text fill="#000000" font-family="sans-serif" font-size="14" lengthAdjust="spacing" textLength="47" x="503" y="356.3995">Objects</text><path d="M443,407.5995 L453,407.5995 C468,407.5995 468,350.7996 483,350.7996 L493,350.7996 " fill="none" style="stroke:#A80036;stroke-width:1.0;"/><rect fill="#FEFECE" filter="url(#f1nhsbef2ag013)" height="36.7999" rx="12.5" ry="12.5" style="stroke:#A80036;stroke-width:1.5;" width="81" x="493" y="389.1995"/><text fill="#000000" font-family="sans-serif" font-size="14" lengthAdjust="spacing" textLength="61" x="503" y="413.1995">Packages</text><path d="M443,407.5995 L453,407.5995 C468,407.5995 468,407.5995 483,407.5995 L493,407.5995 " fill="none" style="stroke:#A80036;stroke-width:1.0;"/><rect fill="#FEFECE" filter="url(#f1nhsbef2ag013)" height="36.7999" rx="12.5" ry="12.5" style="stroke:#A80036;stroke-width:1.5;" width="97" x="493" y="445.9995"/><text fill="#000000" font-family="sans-serif" font-size="14" lengthAdjust="spacing" textLength="77" x="503" y="469.9994">Components</text><path d="M443,407.5995 L453,407.5995 C468,407.5995 468,464.3994 483,464.3994 L493,464.3994 " fill="none" style="stroke:#A80036;stroke-width:1.0;"/><rect fill="#FEFECE" filter="url(#f1nhsbef2ag013)" height="36.7999" rx="12.5" ry="12.5" style="stroke:#A80036;stroke-width:1.5;" width="92" x="493" y="502.7994"/><text fill="#000000" font-family="sans-serif" font-size="14" lengthAdjust="spacing" textLength="72" x="503" y="526.7993">Deployment</text><path d="M443,407.5995 L453,407.5995 C468,407.5995 468,521.1993 483,521.1993 L493,521.1993 " fill="none" style="stroke:#A80036;stroke-width:1.0;"/><path d="M254,279.7997 L264,279.7997 C279,279.7997 279,407.5995 294,407.5995 L304,407.5995 " fill="none" style="stroke:#A80036;stroke-width:1.0;"/><path d="M92,364.9995 L102,364.9995 C117,364.9995 117,279.7997 132,279.7997 L142,279.7997 " fill="none" style="stroke:#A80036;stroke-width:1.0;"/><rect fill="#FEFECE" filter="url(#f1nhsbef2ag013)" height="36.7999" rx="12.5" ry="12.5" style="stroke:#A80036;stroke-width:1.5;" width="117" x="142" y="616.3992"/><text fill="#000000" font-family="sans-serif" font-size="14" lengthAdjust="spacing" textLength="97" x="152" y="640.3992">Other diagrams</text><rect fill="#FEFECE" filter="url(#f1nhsbef2ag013)" height="36.7999" rx="12.5" ry="12.5" style="stroke:#A80036;stroke-width:1.5;" width="85" x="309" y="559.5993"/><text fill="#000000" font-family="sans-serif" font-size="14" lengthAdjust="spacing" textLength="65" x="319" y="583.5992">Mindmaps</text><path d="M259,634.7992 L269,634.7992 C284,634.7992 284,577.9993 299,577.9993 L309,577.9993 " fill="none" style="stroke:#A80036;stroke-width:1.0;"/><rect fill="#FEFECE" filter="url(#f1nhsbef2ag013)" height="36.7999" rx="12.5" ry="12.5" style="stroke:#A80036;stroke-width:1.5;" width="238" x="309" y="616.3992"/><text fill="#000000" font-family="sans-serif" font-size="14" lengthAdjust="spacing" textLength="218" x="319" y="640.3992">Work Breakdown Structures (WBS)</text><path d="M259,634.7992 L269,634.7992 C284,634.7992 284,634.7992 299,634.7992 L309,634.7992 " fill="none" style="stroke:#A80036;stroke-width:1.0;"/><rect fill="#FEFECE" filter="url(#f1nhsbef2ag013)" height="36.7999" rx="12.5" ry="12.5" style="stroke:#A80036;stroke-width:1.5;" width="85" x="309" y="673.1992"/><text fill="#000000" font-family="sans-serif" font-size="14" lengthAdjust="spacing" textLength="65" x="319" y="697.1991">C4 models</text><path d="M259,634.7992 L269,634.7992 C284,634.7992 284,691.5991 299,691.5991 L309,691.5991 " fill="none" style="stroke:#A80036;stroke-width:1.0;"/><path d="M92,364.9995 L102,364.9995 C117,364.9995 117,634.7992 132,634.7992 L142,634.7992 " fill="none" style="stroke:#A80036;stroke-width:1.0;"/><!--MD5=[e119c8a5aaa72ddf6930971bc708251e]
@startmindmap
* PlantUML
 * UML diagrams
  * Behaviour diagrams
   * Use cases
   * Activities
   * States
   * Interactions
    * Sequences
    * Communication
  * Structure diagrams
   * Classes
   * Objects
   * Packages
   * Components
   * Deployment
 * Other diagrams
  * Mindmaps
  * Work Breakdown Structures (WBS)
  * C4 models
@endmindmap

PlantUML version 1.2021.4(Sun Apr 04 08:49:39 GMT 2021)
(GPL source distribution)
Java Runtime: OpenJDK Runtime Environment
JVM: OpenJDK 64-Bit Server VM
Default Encoding: UTF-8
Language: en
Country: US
--></g></svg>