<?xml version="1.0" encoding="UTF-8" standalone="no"?><svg xmlns="http://www.w3.org/2000/svg" xmlns:xlink="http://www.w3.org/1999/xlink" contentStyleType="text/css" height="553px" preserveAspectRatio="none" style="width:868px;height:553px;" version="1.1" viewBox="0 0 868 553" width="868px" zoomAndPan="magnify"><defs/><g><rect fill="none" height="551.6633" style="stroke:#FFFFFF;stroke-width:1.0;" width="866.2529" x="0" y="0"/><!--entity user--><g id="elem_user"><ellipse cx="506" cy="22" fill="#08427B" rx="16" ry="16" style="stroke:#FFFFFF;stroke-width:1.5;"/><path d="M506,42 C510,42 513,42 517,38 C525,38 533,46 533,54 L533,58 C533,62 529,66 525,66 L487,66 C483,66 479,62 479,58 L479,54 C479,46 487,38 495,38 C499,42 502,42 506,42 " fill="#08427B" style="stroke:#FFFFFF;stroke-width:1.5;"/><text fill="#08427B" font-family="sans-serif" font-size="13" lengthAdjust="spacing" textLength="30" x="491" y="81.5669">User</text></g><!--entity developer--><g id="elem_developer"><ellipse cx="396" cy="165" fill="#08427B" rx="16" ry="16" style="stroke:#FFFFFF;stroke-width:1.5;"/><path d="M396,185 C400,185 403,185 407,181 C415,181 423,189 423,197 L423,201 C423,205 419,209 415,209 L377,209 C373,209 369,205 369,201 L369,197 C369,189 377,181 385,181 C389,185 392,185 396,185 " fill="#08427B" style="stroke:#FFFFFF;stroke-width:1.5;"/><text fill="#08427B" font-family="sans-serif" font-size="13" lengthAdjust="spacing" textLength="65" x="363.5" y="224.5669">Developer</text></g><!--entity appman--><g id="elem_appman"><ellipse cx="244" cy="165" fill="#08427B" rx="16" ry="16" style="stroke:#FFFFFF;stroke-width:1.5;"/><path d="M244,185 C248,185 251,185 255,181 C263,181 271,189 271,197 L271,201 C271,205 267,209 263,209 L225,209 C221,209 217,205 217,201 L217,197 C217,189 225,181 233,181 C237,185 240,185 244,185 " fill="#08427B" style="stroke:#FFFFFF;stroke-width:1.5;"/><text fill="#08427B" font-family="sans-serif" font-size="13" lengthAdjust="spacing" textLength="130" x="179" y="224.5669">Application Manager</text></g><!--entity dwb--><g id="elem_dwb"><ellipse cx="534" cy="165" fill="#08427B" rx="16" ry="16" style="stroke:#FFFFFF;stroke-width:1.5;"/><path d="M534,185 C538,185 541,185 545,181 C553,181 561,189 561,197 L561,201 C561,205 557,209 553,209 L515,209 C511,209 507,205 507,201 L507,197 C507,189 515,181 523,181 C527,185 530,185 534,185 " fill="#08427B" style="stroke:#FFFFFF;stroke-width:1.5;"/><text fill="#08427B" font-family="sans-serif" font-size="13" lengthAdjust="spacing" textLength="101" x="483.5" y="224.5669">DataWorkbench</text></g><g id="elem_hfeedback"><ellipse cx="124.8368" cy="520.6674" fill="#1168BD" rx="118.8368" ry="26.1674" style="stroke:#FFFFFF;stroke-width:0.5;"/><text fill="#FFFFFF" font-family="sans-serif" font-size="13" lengthAdjust="spacing" textLength="195" x="27.3368" y="523.1678">Get human-readable feedback</text></g><g id="elem_mfeedback"><ellipse cx="402.9083" cy="520.5817" fill="#1168BD" rx="123.4083" ry="27.0817" style="stroke:#FFFFFF;stroke-width:0.5;"/><text fill="#FFFFFF" font-family="sans-serif" font-size="13" lengthAdjust="spacing" textLength="205" x="300.4083" y="523.0821">Get machine-readable feedback</text></g><g id="elem_api"><ellipse cx="264.0222" cy="415.7044" fill="#1168BD" rx="74.0222" ry="17.2044" style="stroke:#FFFFFF;stroke-width:0.5;"/><text fill="#FFFFFF" font-family="sans-serif" font-size="13" lengthAdjust="spacing" textLength="89" x="219.5222" y="418.2049">Access an API</text></g><g id="elem_run"><ellipse cx="434.8052" cy="314.061" fill="#1168BD" rx="105.8052" ry="23.561" style="stroke:#FFFFFF;stroke-width:0.5;"/><text fill="#FFFFFF" font-family="sans-serif" font-size="13" lengthAdjust="spacing" textLength="166" x="351.8052" y="316.5615">Run the validator software</text></g><g id="elem_ws"><ellipse cx="769.8765" cy="188.3753" fill="#1168BD" rx="92.3765" ry="20.8753" style="stroke:#FFFFFF;stroke-width:0.5;"/><text fill="#FFFFFF" font-family="sans-serif" font-size="13" lengthAdjust="spacing" textLength="135" x="702.3765" y="190.8758">Access a web service</text></g><!--reverse link user to appman--><g id="link_user_appman"><path d="M437.02,83.62 C398.2,104.52 349.93,130.49 311.37,151.24 " fill="none" id="user-backto-appman" style="stroke:#E91E63;stroke-width:1.0;"/><polygon fill="none" points="433.53,77.55,454.46,74.24,440.17,89.88,433.53,77.55" style="stroke:#E91E63;stroke-width:1.0;"/></g><!--reverse link appman to developer--><g id="link_appman_developer"><path d="M332.87,188.5 C337.17,188.5 341.47,188.5 345.76,188.5 " fill="none" id="appman-backto-developer" style="stroke:#E91E63;stroke-width:1.0;"/><polygon fill="none" points="332.9,195.5,312.9,188.5,332.9,181.5,332.9,195.5" style="stroke:#E91E63;stroke-width:1.0;"/></g><!--reverse link developer to dwb--><g id="link_developer_dwb"><path d="M467.67,188.5 C472.22,188.5 476.76,188.5 481.3,188.5 " fill="none" id="developer-backto-dwb" style="stroke:#E91E63;stroke-width:1.0;"/><polygon fill="none" points="467.92,195.5,447.92,188.5,467.92,181.5,467.92,195.5" style="stroke:#E91E63;stroke-width:1.0;"/></g><!--reverse link api to mfeedback--><g id="link_api_mfeedback"><path d="M302.25,444.85 C323.04,460.25 348.55,479.15 368.69,494.08 " fill="none" id="api-backto-mfeedback" style="stroke:#E91E63;stroke-width:1.0;"/><polygon fill="none" points="298.23,450.58,286.33,433.04,306.56,439.33,298.23,450.58" style="stroke:#E91E63;stroke-width:1.0;"/></g><!--reverse link api to hfeedback--><g id="link_api_hfeedback"><path d="M225.75,444.84 C204.5,460.59 178.32,479.99 157.97,495.07 " fill="none" id="api-backto-hfeedback" style="stroke:#E91E63;stroke-width:1.0;"/><polygon fill="none" points="221.44,439.33,241.67,433.04,229.77,450.58,221.44,439.33" style="stroke:#E91E63;stroke-width:1.0;"/></g><!--reverse link run to api--><g id="link_run_api"><path d="M380.05,346.97 C349.99,364.46 314.13,385.33 290.31,399.19 " fill="none" id="run-backto-api" style="stroke:#E91E63;stroke-width:1.0;"/><polygon fill="none" points="376.2,341.11,397.01,337.11,383.24,353.22,376.2,341.11" style="stroke:#E91E63;stroke-width:1.0;"/></g><!--reverse link ws to run--><g id="link_ws_run"><path d="M702.56,214.36 C639.47,237.62 546.5,271.9 488.41,293.31 " fill="none" id="ws-backto-run" style="stroke:#E91E63;stroke-width:1.0;"/><polygon fill="none" points="700.11,207.81,721.29,207.46,704.95,220.94,700.11,207.81" style="stroke:#E91E63;stroke-width:1.0;"/></g><!--link user to ws--><g id="link_user_ws"><path d="M556.28,73.35 C606.45,100.15 682.59,140.82 729.16,165.69 " fill="none" id="user-to-ws" style="stroke:#E91E63;stroke-width:1.0;"/><polygon fill="#E91E63" points="733.35,167.92,727.3056,160.1441,728.9426,165.5589,723.5278,167.1959,733.35,167.92" style="stroke:#E91E63;stroke-width:1.0;"/></g><!--link appman to api--><g id="link_appman_api"><path d="M247.6,229.99 C251.81,277.35 258.63,354.09 261.99,391.93 " fill="none" id="appman-to-api" style="stroke:#E91E63;stroke-width:1.0;"/><polygon fill="#E91E63" points="262.41,396.59,265.598,387.2714,261.9676,391.6096,257.6294,387.9792,262.41,396.59" style="stroke:#E91E63;stroke-width:1.0;"/><text fill="#E91E63" font-family="sans-serif" font-size="13" lengthAdjust="spacing" textLength="44" x="261" y="318.5669">access</text></g><!--link developer to run--><g id="link_developer_run"><path d="M408.77,229.94 C414.34,247.58 420.74,267.86 425.83,283.96 " fill="none" id="developer-to-run" style="stroke:#E91E63;stroke-width:1.0;"/><polygon fill="#E91E63" points="427.33,288.7,428.4201,278.9117,425.8175,283.9342,420.7949,281.3316,427.33,288.7" style="stroke:#E91E63;stroke-width:1.0;"/></g><!--link dwb to ws--><g id="link_dwb_ws"><path d="M586.96,188.5 C611.73,188.5 642.05,188.5 670.83,188.5 " fill="none" id="dwb-to-ws" style="stroke:#E91E63;stroke-width:1.0;"/><polygon fill="#E91E63" points="675.82,188.5,666.82,184.5,670.82,188.5,666.82,192.5,675.82,188.5" style="stroke:#E91E63;stroke-width:1.0;"/><text fill="#E91E63" font-family="sans-serif" font-size="13" lengthAdjust="spacing" textLength="50" x="607" y="179.5669">operate</text></g><!--SRC=[lHbhKzj8yhj-nU1DbN6LIR1n2B0XMyIO95M4P36vhNnYnrBRdaNIw6P666vl__jrZoHxzEAncxga4jdJFVr-obqsDVUXY1TCWp7ur6mk5ViQyjXy-tpE0i4NYaVQwx8f05iQanozUfKGE8t2brgcoWUyiO2NCHXxDv1-6a5ik14ondjNaYqGn5aej65opXAfjPY5mFIDY1EEvDVC-qobyH4hwBCT_B18-GAG3fBs5N03I6ejtrmWdPKmI_P7YjH_NvC40qh_xk6zyPVpBvTJ_73yn3zqQG4nA1uoNuPIeKsKZ9XSnKoZjK0l0OotzI8tplMC-pSB9TCukBRux9XrZEAnHadG41qNLQe0r0Rjf_byxi8tW8DT-aimhfHSEH0u7C3-7a7GSJSEO6zqU73wlaFoH_m6xHH4CXRaXa8FVij5oCdsv2a8WHobaPBFKy9pYF7TqTwXtt5W9N0kjuWIgGmwmm45UyFvi09jkXjB0yxfSF06uCqQq7J3YCGv70tuVBHVd3VXhxYACQnSsmqE1eEH2wlVG_F5Ce3hGJzx3XcF0qP2CODcZRDe68ziC209Ap7XNqTSkDHs3qR3DxDE0HzMuOF1_i4iSE0ylHis-3EtIENsuU6XbJNLJPuc_qgpX9ANGxaGVfbEsKQ8Gu6SL71AqM6ZzLPG69UnrjxnlAr4IH-2L07BcTh4sNvnozNneESnzY8tdZtgivfepKTLf_MOjmLniEPMvfofud0UDN6kAjnyL4s2FdhWxEniV7RMwJqaGs6gn_IlcxJjq0tsX_NFe_8nrhNWxUUPW4zwF879y6bCXkrCDYYR97YCiNcQTgNKULGtR7HNtyydxEFa_ElaR_GDmv2liCqlQqnPVYGyn1u7HuZpWgJ19gT4nDKzjR2yp_IPkK-4pyFmdcrw2jr0cs0reiVm29Czw8REDLswPnjCd_4G6s2COjn2XPQCYPICaPA1EzD0W-Ipi3xJQP9azGD5nTjhtJHfCkWn1Oiqv8fj1p3dQMXwU3piiHWxCC9kiGb3mBQnvq38P6eqnZEXxFKAQ5cwKG_7XCNIb4zVztAzy767rAHCh8P4QR_7NhvyMGuDDmIEILlIgBysOsO1CkPnvoVVzpkPFV3B_lv-Xu9eIynPTlkuCxGdZBrVIpIs7hL4CuYLBJyb7lRqJCQcYZb5fu14IqCTkWMX1eVlNXlVDOSItpMFVyXtrCvr-2njg_gy_e5s_0WSCHq8khI1vNuRompz1t0i06rEgaZqvbd6VS2bLKqFVhIcBOGitt_gnaAcngXynAw5674Wvbv6TIh-0somLo_a7oONaykJSpQTN5rzklZml5g-zM8cW_lhEJAudlD8O5t4gKlZLB-ZGGcS4xiCkByivYlcyzYMVs6qNHL8j0iiW_sraFadQbW_qpn9bHneibnvtcONggdSjcOuTqupb9BbcrOEvyf7DBkY1I97t-mIQBeD6iwLqb_Ym8l3hqh18Q2NF90hMXtdd8B28Otpyae9R7Tn3VOLTQOxGvV99IdbIuKx5tjjMt2s3-Ac5ubOH6c4hJIWNeesjgkDXd-d4FjGBAZONvKHlaXmsT0C6yGDIgwekU2cY17XI80Kno7N-ZTBSR2xwnh_DEjYx4-l5B6uqsQHa1c8hPtBQb5I12Lv6Lsh8XxYqHLsqnFiR74MAlWVAEylb_C9RNcMRv4vcxMlB8mBA96ue1M5A9HdenvXTTctwOIDJwQJPsM18vzla7bEtPahXrHukkopNJW99pT_AF00vuZno6CiimPVWSP0AWlzJOFFDJYKXwxSRkJuDtoH8xgZVQxVoVZgqxy-NNt_-_hXj6tk6mMnAc24vHweJSm8dwppjGdwdXTfMTrgAb6GIu49ZPaNPCAu6rJDA1ZsTjPiDii6SxeI4UP2Rh_oMjA2UYLCs8Y_dvjyEldrs-HY_BoGwjf8Ei8K1d8-6vFtYpJcCtaBDGMpl6u8FXe0roLbj5jMuprL5Pgmw_VsAXgFCRkK39-0EObDEKZAY5qMSCDdf98zpjw8GHBAUvlvnVkqlbKV6nQz43DBeUsRBBnE-9ojfBhXjjJRWsgrqsx5AlZLHHhKj0n3yEtqtcZB4lAlAQJmEDeq5-rSp05RI5CUlscvSWeXlsyAhs7RXGphAH6St_X0-L1FejSjw9Smnuc435tBfWCgSrb_lLeA_oO6hTcWcSnxN59g14QbMCLnnKRBazFcEHc6oAUJh-TVld-UN5mzSu6j9AVl92VraFoe5I4lqirmjZqNTx-G7OhKpF2cbV2cbxPPGhR2ipHi1TlWRO6ITVASQSROYEaapCEeRWLVGAbKjNKpt7sBglrGVfrW-PjZNtsSubX6YOoVnFnCX4zek6EkWiUnfXWlwxRy8BbGfa5ZNfHbevVtZtQp2sJKEWduI_1lilS8zCfWyoR1bHfFssJkCcmwOAsEnTSo-CMLK8RhAlI0Y1_XZYyA5p_GmZ_HB8ZCe8vPRJvVPdz0IoXWRJanHebPQg1bLkowGqe5u4uthVFb9JBdyIA45friVGYoeG_7xm1tnQEcws_VplByV_UkJcg_5c3SmFzPvwxjm3jP2puYZNX35-zZvuPDmxVllB2Jey-DJBB6ZcF0VJIJ8LAqHAgTl8_h8jsPGOZJlp0_PuZqyr5WvpeU5ZypTFfiHVKqfiqn49eMf5Je9TurAy1L2xbHxKDhv8WCPocbi4jcWkG_zDbV1k9D2QFzcwMQG8GMmyf5ZRX1cjjO_29DiWOIjDrToK3PT5FeZt9lR9HlfEmUJCzxQpts3bserwqy0_zfT_t0dM4gBmkQfcd6_lBetzjNEM7FRXxqKmXEJvfrC0vL9pyCu1QDc-IGq-9R0UP94g6f27QI9A7mirUtdtcCLMr3P3NBhgEalw7cCrHYsV4yo_7jVtTsSZfUJWwF5DMVdGrxRoE80rtDB17R9fTpW83AbMNr0GnRfaXiHm4FiX_jSdXdVIMgNOculyGvxA5BF16PlhvFKmoAU_BrqmQiqimSbwcDANRBGu4UeZbKpisAAzZWhdI94WRU37siReMFIDusSkfbvjbUIzeh7I-TOsHS71E6jxtInNS2vTRUsNd72E8LjgRlX7_4EjpAWPmtjju9v2ecb8m4EJ8dWFY4WTMbypy0]--></g></svg>