<svg aria-roledescription="gitGraph" role="graphics-document document" viewBox="-130.80813598632812 -35.20000076293945 888.80810546875 279.9161376953125" height="279.9161376953125" xmlns="http://www.w3.org/2000/svg" width="888.80810546875" id="container"><style>#container{font-family:"trebuchet ms",verdana,arial,sans-serif;font-size:16px;fill:#333;}#container .error-icon{fill:#552222;}#container .error-text{fill:#552222;stroke:#552222;}#container .edge-thickness-normal{stroke-width:2px;}#container .edge-thickness-thick{stroke-width:3.5px;}#container .edge-pattern-solid{stroke-dasharray:0;}#container .edge-pattern-dashed{stroke-dasharray:3;}#container .edge-pattern-dotted{stroke-dasharray:2;}#container .marker{fill:#333333;stroke:#333333;}#container .marker.cross{stroke:#333333;}#container svg{font-family:"trebuchet ms",verdana,arial,sans-serif;font-size:16px;}#container .commit-id,#container .commit-msg,#container .branch-label{fill:lightgrey;color:lightgrey;font-family:'trebuchet ms',verdana,arial,sans-serif;font-family:var(--mermaid-font-family);}#container .branch-label0{fill:#ffffff;}#container .commit0{stroke:hsl(240, 100%, 46.2745098039%);fill:hsl(240, 100%, 46.2745098039%);}#container .commit-highlight0{stroke:hsl(60, 100%, 3.7254901961%);fill:hsl(60, 100%, 3.7254901961%);}#container .label0{fill:hsl(240, 100%, 46.2745098039%);}#container .arrow0{stroke:hsl(240, 100%, 46.2745098039%);}#container .branch-label1{fill:black;}#container .commit1{stroke:hsl(60, 100%, 43.5294117647%);fill:hsl(60, 100%, 43.5294117647%);}#container .commit-highlight1{stroke:rgb(0, 0, 160.5);fill:rgb(0, 0, 160.5);}#container .label1{fill:hsl(60, 100%, 43.5294117647%);}#container .arrow1{stroke:hsl(60, 100%, 43.5294117647%);}#container .branch-label2{fill:black;}#container .commit2{stroke:hsl(80, 100%, 46.2745098039%);fill:hsl(80, 100%, 46.2745098039%);}#container .commit-highlight2{stroke:rgb(48.8333333334, 0, 146.5000000001);fill:rgb(48.8333333334, 0, 146.5000000001);}#container .label2{fill:hsl(80, 100%, 46.2745098039%);}#container .arrow2{stroke:hsl(80, 100%, 46.2745098039%);}#container .branch-label3{fill:#ffffff;}#container .commit3{stroke:hsl(210, 100%, 46.2745098039%);fill:hsl(210, 100%, 46.2745098039%);}#container .commit-highlight3{stroke:rgb(146.5000000001, 73.2500000001, 0);fill:rgb(146.5000000001, 73.2500000001, 0);}#container .label3{fill:hsl(210, 100%, 46.2745098039%);}#container .arrow3{stroke:hsl(210, 100%, 46.2745098039%);}#container .branch-label4{fill:black;}#container .commit4{stroke:hsl(180, 100%, 46.2745098039%);fill:hsl(180, 100%, 46.2745098039%);}#container .commit-highlight4{stroke:rgb(146.5000000001, 0, 0);fill:rgb(146.5000000001, 0, 0);}#container .label4{fill:hsl(180, 100%, 46.2745098039%);}#container .arrow4{stroke:hsl(180, 100%, 46.2745098039%);}#container .branch-label5{fill:black;}#container .commit5{stroke:hsl(150, 100%, 46.2745098039%);fill:hsl(150, 100%, 46.2745098039%);}#container .commit-highlight5{stroke:rgb(146.5000000001, 0, 73.2500000001);fill:rgb(146.5000000001, 0, 73.2500000001);}#container .label5{fill:hsl(150, 100%, 46.2745098039%);}#container .arrow5{stroke:hsl(150, 100%, 46.2745098039%);}#container .branch-label6{fill:black;}#container .commit6{stroke:hsl(300, 100%, 46.2745098039%);fill:hsl(300, 100%, 46.2745098039%);}#container .commit-highlight6{stroke:rgb(0, 146.5000000001, 0);fill:rgb(0, 146.5000000001, 0);}#container .label6{fill:hsl(300, 100%, 46.2745098039%);}#container .arrow6{stroke:hsl(300, 100%, 46.2745098039%);}#container .branch-label7{fill:black;}#container .commit7{stroke:hsl(0, 100%, 46.2745098039%);fill:hsl(0, 100%, 46.2745098039%);}#container .commit-highlight7{stroke:rgb(0, 146.5000000001, 146.5000000001);fill:rgb(0, 146.5000000001, 146.5000000001);}#container .label7{fill:hsl(0, 100%, 46.2745098039%);}#container .arrow7{stroke:hsl(0, 100%, 46.2745098039%);}#container .branch{stroke-width:1;stroke:#333333;stroke-dasharray:2;}#container .commit-label{font-size:10px;fill:#000021;}#container .commit-label-bkg{font-size:10px;fill:#ffffde;opacity:0.5;}#container .tag-label{font-size:10px;fill:#131300;}#container .tag-label-bkg{fill:#ECECFF;stroke:hsl(240, 60%, 86.2745098039%);}#container .tag-hole{fill:#333;}#container .commit-merge{stroke:#ECECFF;fill:#ECECFF;}#container .commit-reverse{stroke:#ECECFF;fill:#ECECFF;stroke-width:3;}#container .commit-highlight-inner{stroke:#ECECFF;fill:#ECECFF;}#container .arrow{stroke-width:8;stroke-linecap:round;fill:none;}#container .gitTitleText{text-anchor:middle;font-size:18px;fill:#333;}:root{--mermaid-font-family:"trebuchet ms",verdana,arial,sans-serif;}</style><g></g><g class="commit-bullets"></g><g class="commit-labels"></g><g><line class="branch branch0" y2="0" x2="750" y1="0" x1="0"></line><rect transform="translate(-19, -9.5)" height="23" width="54.3125" y="-1.5" x="-70.3125" ry="4" rx="4" class="branchLabelBkg label0"></rect><g class="branchLabel"><g transform="translate(-80.3125, -10.5)" class="label branch-label0"><text><tspan class="row" x="0" dy="1em" xml:space="preserve">main</tspan></text></g></g><line class="branch branch1" y2="90" x2="750" y1="90" x1="0"></line><rect transform="translate(-19, 80.5)" height="23" width="76.21875" y="-1.5" x="-92.21875" ry="4" rx="4" class="branchLabelBkg label1"></rect><g class="branchLabel"><g transform="translate(-102.21875, 79.5)" class="label branch-label1"><text><tspan class="row" x="0" dy="1em" xml:space="preserve">develop</tspan></text></g></g><line class="branch branch2" y2="180" x2="750" y1="180" x1="0"></line><rect transform="translate(-19, 170.5)" height="23" width="87.80813598632812" y="-1.5" x="-103.80813598632812" ry="4" rx="4" class="branchLabelBkg label2"></rect><g class="branchLabel"><g transform="translate(-113.80813598632812, 169.5)" class="label branch-label2"><text><tspan class="row" x="0" dy="1em" xml:space="preserve">feature/A</tspan></text></g></g></g><g class="commit-arrows"><path class="arrow arrow0" d="M 10 0 L 10 0  10 0 L 60 0"></path><path class="arrow arrow1" d="M 60 0 L 60 70 A 20 20, 0, 0, 0, 80 90 L 110 90"></path><path class="arrow arrow2" d="M 110 90 L 110 160 A 20 20, 0, 0, 0, 130 180 L 160 180"></path><path class="arrow arrow2" d="M 160 180 L 160 180  160 180 L 210 180"></path><path class="arrow arrow0" d="M 60 0 L 60 0  60 0 L 260 0"></path><path class="arrow arrow2" d="M 210 180 L 210 180  210 180 L 310 180"></path><path class="arrow arrow1" d="M 110 90 L 110 90  110 90 L 360 90"></path><path class="arrow arrow1" d="M 260 0 L 260 70 A 20 20, 0, 0, 0, 280 90 L 360 90"></path><path class="arrow arrow1" d="M 360 90 L 360 90  360 90 L 410 90"></path><path class="arrow arrow1" d="M 310 180 L 310 145 A 10 10, 0, 0, 1, 320 135 L 400 135 A 10 10, 0, 0, 0, 410 125 L 410 90"></path><path class="arrow arrow1" d="M 410 90 L 410 90  410 90 L 460 90"></path><path class="arrow arrow0" d="M 260 0 L 260 0  260 0 L 510 0"></path><path class="arrow arrow1" d="M 460 90 L 490 90 A 20 20, 0, 0, 0, 510 70 L 510 0"></path><path class="arrow arrow0" d="M 510 0 L 510 0  510 0 L 560 0"></path><path class="arrow arrow0" d="M 560 0 L 560 0  560 0 L 610 0"></path><path class="arrow arrow1" d="M 460 90 L 460 90  460 90 L 660 90"></path><path class="arrow arrow1" d="M 660 90 L 660 90  660 90 L 710 90"></path></g><g class="commit-bullets"><circle class="commit 0-b35a04a commit0" r="10" cy="0" cx="10"></circle><circle class="commit Normal commit0" r="10" cy="0" cx="60"></circle><circle class="commit 2-93956d9 commit1" r="10" cy="90" cx="110"></circle><circle class="commit 3-1a1a5df commit2" r="10" cy="180" cx="160"></circle><circle class="commit 4-ae35a1b commit2" r="10" cy="180" cx="210"></circle><circle class="commit 5-25b0fe2 commit0" r="10" cy="0" cx="260"></circle><circle class="commit 6-1d958a9 commit2" r="10" cy="180" cx="310"></circle><circle class="commit 7-02f82f9 commit1" r="9" cy="90" cx="360"></circle><circle class="commit commit-merge 7-02f82f9 commit1" r="6" cy="90" cx="360"></circle><circle class="commit 8-d3cf171 commit1" r="9" cy="90" cx="410"></circle><circle class="commit commit-merge 8-d3cf171 commit1" r="6" cy="90" cx="410"></circle><circle class="commit 9-f97704f commit1" r="10" cy="90" cx="460"></circle><circle class="commit 10-2af43ae commit0" r="9" cy="0" cx="510"></circle><circle class="commit commit-merge 10-2af43ae commit0" r="6" cy="0" cx="510"></circle><circle class="commit 11-8e5ae1a commit0" r="10" cy="0" cx="560"></circle><circle class="commit 12-4debd47 commit0" r="10" cy="0" cx="610"></circle><circle class="commit 13-e65859a commit1" r="10" cy="90" cx="660"></circle><circle class="commit 14-36a1ed2 commit1" r="10" cy="90" cx="710"></circle></g><g class="commit-labels"><g transform="translate(-29.2134375, 26.0278125) rotate(-45, 0, 0)"><rect height="16" width="51.140625" y="13.5" x="-15.5703125" class="commit-label-bkg"></rect><text class="commit-label" y="25" x="-13.5703125">0-b35a04a</text></g><g transform="translate(-24.007189331054686, 21.369590454101562) rotate(-45, 50, 0)"><rect height="16" width="37.439971923828125" y="13.5" x="41.28001403808594" class="commit-label-bkg"></rect><text class="commit-label" y="25" x="43.28001403808594">Normal</text></g><polygon points="35.30500030517578,-17.2
          35.30500030517578,-21.2
          43.30500030517578,-27.2
          76.69499969482422,-27.2
          76.69499969482422,-11.2
          43.30500030517578,-11.2" class="tag-label-bkg"></polygon><circle class="tag-hole" r="1.5" cy="-19.2" cx="39.30500030517578"></circle><text x="47.30500030517578" class="tag-label" y="-16">v1.0.0</text><g transform="translate(-28.6375, 25.5125) rotate(-45, 100, 90)"><rect height="16" width="49.625" y="103.5" x="85.1875" class="commit-label-bkg"></rect><text class="commit-label" y="115" x="87.1875">2-93956d9</text></g><g transform="translate(-27.392996520996093, 24.398996887207034) rotate(-45, 150, 180)"><rect height="16" width="46.34999084472656" y="193.5" x="136.82500457763672" class="commit-label-bkg"></rect><text class="commit-label" y="205" x="138.82500457763672">3-1a1a5df</text></g><g transform="translate(-28.460795593261718, 25.354396057128906) rotate(-45, 200, 180)"><rect height="16" width="49.15998840332031" y="193.5" x="185.42000579833984" class="commit-label-bkg"></rect><text class="commit-label" y="205" x="187.42000579833984">4-ae35a1b</text></g><g transform="translate(-27.795789794921877, 24.759390869140624) rotate(-45, 250, 0)"><rect height="16" width="47.40997314453125" y="13.5" x="236.29501342773438" class="commit-label-bkg"></rect><text class="commit-label" y="25" x="238.29501342773438">5-25b0fe2</text></g><g transform="translate(-28.566249999999997, 25.448749999999997) rotate(-45, 300, 180)"><rect height="16" width="49.4375" y="193.5" x="285.28125" class="commit-label-bkg"></rect><text class="commit-label" y="205" x="287.28125">6-1d958a9</text></g><g transform="translate(-27.02820556640625, 24.07260498046875) rotate(-45, 450, 90)"><rect height="16" width="45.3900146484375" y="103.5" x="437.30499267578125" class="commit-label-bkg"></rect><text class="commit-label" y="115" x="439.30499267578125">9-f97704f</text></g><g transform="translate(-29.765625, 26.521875) rotate(-45, 550, 0)"><rect height="16" width="52.59375" y="13.5" x="533.703125" class="commit-label-bkg"></rect><text class="commit-label" y="25" x="535.703125">11-8e5ae1a</text></g><g transform="translate(-31.04478515625, 27.66638671875) rotate(-45, 600, 0)"><rect height="16" width="55.9599609375" y="13.5" x="582.02001953125" class="commit-label-bkg"></rect><text class="commit-label" y="25" x="584.02001953125">12-4debd47</text></g><g transform="translate(-30.323749999999997, 27.02125) rotate(-45, 650, 90)"><rect height="16" width="54.0625" y="103.5" x="632.96875" class="commit-label-bkg"></rect><text class="commit-label" y="115" x="634.96875">13-e65859a</text></g><g transform="translate(-29.957990722656252, 26.69399169921875) rotate(-45, 700, 90)"><rect height="16" width="53.0999755859375" y="103.5" x="683.4500122070312" class="commit-label-bkg"></rect><text class="commit-label" y="115" x="685.4500122070312">14-36a1ed2</text></g></g></svg>