<?xml version="1.0" encoding="us-ascii" standalone="no"?><svg xmlns="http://www.w3.org/2000/svg" xmlns:xlink="http://www.w3.org/1999/xlink" contentStyleType="text/css" height="584px" preserveAspectRatio="none" style="width:830px;height:584px;" version="1.1" viewBox="0 0 830 584" width="830px" zoomAndPan="magnify"><defs/><g><rect fill="none" height="582.4681" style="stroke:#FFFFFF;stroke-width:1.0;" width="828" x="0" y="0"/><!--cluster boundary1--><g id="cluster_boundary1"><rect fill="none" height="164.69" rx="2.5" ry="2.5" style="stroke:#444444;stroke-width:1.0;stroke-dasharray:7.0,7.0;" width="775" x="43" y="7"/><text fill="#444444" font-family="sans-serif" font-size="15" font-weight="bold" lengthAdjust="spacing" textLength="149" x="356" y="24.9233">System_Boundary</text><text fill="#444444" font-family="sans-serif" font-size="12" font-weight="bold" lengthAdjust="spacing" textLength="62" x="399.5" y="39.5996">[System]</text></g><!--cluster boundary2--><g id="cluster_boundary2"><rect fill="none" height="164.7" rx="2.5" ry="2.5" style="stroke:#444444;stroke-width:1.0;stroke-dasharray:7.0,7.0;" width="817" x="7" y="222.69"/><text fill="#444444" font-family="sans-serif" font-size="15" font-weight="bold" lengthAdjust="spacing" textLength="149" x="341" y="240.6133">System_Boundary</text><text fill="#444444" font-family="sans-serif" font-size="12" font-weight="bold" lengthAdjust="spacing" textLength="62" x="384.5" y="255.2896">[System]</text></g><!--entity container1--><g id="elem_container1"><rect fill="#438DD5" height="85.6953" rx="2.5" ry="2.5" style="stroke:#3C7FC0;stroke-width:0.5;" width="153" x="317.5" y="65.5"/><text fill="#FFFFFF" font-family="sans-serif" font-size="15" font-weight="bold" lengthAdjust="spacing" textLength="79" x="354.5" y="91.4233">Container</text><text fill="#FFFFFF" font-family="sans-serif" font-size="12" font-style="italic" lengthAdjust="spacing" textLength="81" x="353.5" y="106.0996">[Technology]</text><text fill="#FFFFFF" font-family="sans-serif" font-size="13" lengthAdjust="spacing" textLength="4" x="392" y="120.9966">&#160;</text><text fill="#FFFFFF" font-family="sans-serif" font-size="13" lengthAdjust="spacing" textLength="53" x="329.5" y="136.1294">Optional</text><text fill="#FFFFFF" font-family="sans-serif" font-size="13" lengthAdjust="spacing" textLength="4" x="382.5" y="136.1294">&#160;</text><text fill="#FFFFFF" font-family="sans-serif" font-size="13" lengthAdjust="spacing" textLength="72" x="386.5" y="136.1294">Description</text></g><!--entity cqueue--><g id="elem_cqueue"><path d="M64,85.63 L210,85.63 C215,85.63 215,108.3448 215,108.3448 C215,108.3448 215,131.0597 210,131.0597 L64,131.0597 C59,131.0597 59,108.3448 59,108.3448 C59,108.3448 59,85.63 64,85.63 " fill="#438DD5" style="stroke:#3C7FC0;stroke-width:0.5;"/><path d="M210,85.63 C205,85.63 205,108.3448 205,108.3448 C205,131.0597 210,131.0597 210,131.0597 " fill="none" style="stroke:#3C7FC0;stroke-width:0.5;"/><text fill="#FFFFFF" font-family="sans-serif" font-size="15" font-weight="bold" lengthAdjust="spacing" textLength="132" x="66" y="106.5533">ContainerQueue</text><text fill="#FFFFFF" font-family="sans-serif" font-size="12" font-style="italic" lengthAdjust="spacing" textLength="81" x="91.5" y="121.2296">[Technology]</text></g><!--entity cdb--><g id="elem_cdb"><path d="M648.5,71 C648.5,61 725,61 725,61 C725,61 801.5,61 801.5,71 L801.5,145.6953 C801.5,155.6953 725,155.6953 725,155.6953 C725,155.6953 648.5,155.6953 648.5,145.6953 L648.5,71 " fill="#438DD5" style="stroke:#3C7FC0;stroke-width:0.5;"/><path d="M648.5,71 C648.5,81 725,81 725,81 C725,81 801.5,81 801.5,71 " fill="none" style="stroke:#3C7FC0;stroke-width:0.5;"/><text fill="#FFFFFF" font-family="sans-serif" font-size="15" font-weight="bold" lengthAdjust="spacing" textLength="101" x="674.5" y="100.9233">ContainerDb</text><text fill="#FFFFFF" font-family="sans-serif" font-size="12" font-style="italic" lengthAdjust="spacing" textLength="81" x="684.5" y="115.5996">[Technology]</text><text fill="#FFFFFF" font-family="sans-serif" font-size="13" lengthAdjust="spacing" textLength="4" x="723" y="130.4966">&#160;</text><text fill="#FFFFFF" font-family="sans-serif" font-size="13" lengthAdjust="spacing" textLength="53" x="660.5" y="145.6294">Optional</text><text fill="#FFFFFF" font-family="sans-serif" font-size="13" lengthAdjust="spacing" textLength="4" x="713.5" y="145.6294">&#160;</text><text fill="#FFFFFF" font-family="sans-serif" font-size="13" lengthAdjust="spacing" textLength="72" x="717.5" y="145.6294">Description</text></g><!--entity container2--><g id="elem_container2"><rect fill="#B3B3B3" height="85.6953" rx="2.5" ry="2.5" style="stroke:#A6A6A6;stroke-width:0.5;" width="153" x="317.5" y="281.19"/><text fill="#FFFFFF" font-family="sans-serif" font-size="15" font-weight="bold" lengthAdjust="spacing" textLength="115" x="336.5" y="307.1133">Container_Ext</text><text fill="#FFFFFF" font-family="sans-serif" font-size="12" font-style="italic" lengthAdjust="spacing" textLength="81" x="353.5" y="321.7896">[Technology]</text><text fill="#FFFFFF" font-family="sans-serif" font-size="13" lengthAdjust="spacing" textLength="4" x="392" y="336.6866">&#160;</text><text fill="#FFFFFF" font-family="sans-serif" font-size="13" lengthAdjust="spacing" textLength="53" x="329.5" y="351.8194">Optional</text><text fill="#FFFFFF" font-family="sans-serif" font-size="13" lengthAdjust="spacing" textLength="4" x="382.5" y="351.8194">&#160;</text><text fill="#FFFFFF" font-family="sans-serif" font-size="13" lengthAdjust="spacing" textLength="72" x="386.5" y="351.8194">Description</text></g><!--entity cqueue2--><g id="elem_cqueue2"><path d="M28,301.33 L210,301.33 C215,301.33 215,324.0448 215,324.0448 C215,324.0448 215,346.7597 210,346.7597 L28,346.7597 C23,346.7597 23,324.0448 23,324.0448 C23,324.0448 23,301.33 28,301.33 " fill="#B3B3B3" style="stroke:#A6A6A6;stroke-width:0.5;"/><path d="M210,301.33 C205,301.33 205,324.0448 205,324.0448 C205,346.7597 210,346.7597 210,346.7597 " fill="none" style="stroke:#A6A6A6;stroke-width:0.5;"/><text fill="#FFFFFF" font-family="sans-serif" font-size="15" font-weight="bold" lengthAdjust="spacing" textLength="168" x="30" y="322.2533">ContainerQueue_Ext</text><text fill="#FFFFFF" font-family="sans-serif" font-size="12" font-style="italic" lengthAdjust="spacing" textLength="81" x="73.5" y="336.9296">[Technology]</text></g><!--entity cdb2--><g id="elem_cdb2"><path d="M647.5,286.69 C647.5,276.69 728,276.69 728,276.69 C728,276.69 808.5,276.69 808.5,286.69 L808.5,361.3853 C808.5,371.3853 728,371.3853 728,371.3853 C728,371.3853 647.5,371.3853 647.5,361.3853 L647.5,286.69 " fill="#B3B3B3" style="stroke:#A6A6A6;stroke-width:0.5;"/><path d="M647.5,286.69 C647.5,296.69 728,296.69 728,296.69 C728,296.69 808.5,296.69 808.5,286.69 " fill="none" style="stroke:#A6A6A6;stroke-width:0.5;"/><text fill="#FFFFFF" font-family="sans-serif" font-size="15" font-weight="bold" lengthAdjust="spacing" textLength="137" x="659.5" y="316.6133">ContainerDb_Ext</text><text fill="#FFFFFF" font-family="sans-serif" font-size="12" font-style="italic" lengthAdjust="spacing" textLength="81" x="687.5" y="331.2896">[Technology]</text><text fill="#FFFFFF" font-family="sans-serif" font-size="13" lengthAdjust="spacing" textLength="4" x="726" y="346.1866">&#160;</text><text fill="#FFFFFF" font-family="sans-serif" font-size="13" lengthAdjust="spacing" textLength="53" x="663.5" y="361.3194">Optional</text><text fill="#FFFFFF" font-family="sans-serif" font-size="13" lengthAdjust="spacing" textLength="4" x="716.5" y="361.3194">&#160;</text><text fill="#FFFFFF" font-family="sans-serif" font-size="13" lengthAdjust="spacing" textLength="72" x="720.5" y="361.3194">Description</text></g><!--link container1 to cdb--><g id="link_container1_cdb"><path d="M470.77,108.35 C521.14,108.35 587.08,108.35 639.18,108.35 " fill="none" id="container1-to-cdb" style="stroke:#666666;stroke-width:1.0;"/><polygon fill="#666666" points="647.07,108.35,639.07,105.35,639.07,111.35,647.07,108.35" style="stroke:#666666;stroke-width:1.0;"/><text fill="#666666" font-family="sans-serif" font-size="12" font-weight="bold" lengthAdjust="spacing" textLength="37" x="541" y="86.4887">Rel_R</text><text fill="#666666" font-family="sans-serif" font-size="12" font-style="italic" lengthAdjust="spacing" textLength="57" x="491" y="100.4574">[Optional</text><text fill="#666666" font-family="sans-serif" font-size="12" font-style="italic" lengthAdjust="spacing" textLength="4" x="548" y="100.4574">&#160;</text><text fill="#666666" font-family="sans-serif" font-size="12" font-style="italic" lengthAdjust="spacing" textLength="76" x="552" y="100.4574">Technology]</text></g><!--link cqueue to container1--><g id="link_cqueue_container1"><path d="M223.99,108.35 C251.23,108.35 281.25,108.35 308.4,108.35 " fill="none" id="cqueue-container1" style="stroke:#666666;stroke-width:1.0;"/><polygon fill="#666666" points="216.16,108.35,224.16,111.35,224.16,105.35,216.16,108.35" style="stroke:#666666;stroke-width:1.0;"/><polygon fill="#666666" points="316.1,108.35,308.1,105.35,308.1,111.35,316.1,108.35" style="stroke:#666666;stroke-width:1.0;"/><text fill="#666666" font-family="sans-serif" font-size="12" font-weight="bold" lengthAdjust="spacing" textLength="35" x="248.75" y="86.4887">BiRel</text><text fill="#666666" font-family="sans-serif" font-size="12" font-style="italic" lengthAdjust="spacing" textLength="62" x="235.25" y="100.4574">[Optional]</text></g><!--link container2 to cdb2--><g id="link_container2_cdb2"><path d="M470.63,324.04 C520.51,324.04 585.79,324.04 638.12,324.04 " fill="none" id="container2-to-cdb2" style="stroke:#666666;stroke-width:1.0;"/><polygon fill="#666666" points="646.07,324.04,638.07,321.04,638.07,327.04,646.07,324.04" style="stroke:#666666;stroke-width:1.0;"/><text fill="#666666" font-family="sans-serif" font-size="12" font-weight="bold" lengthAdjust="spacing" textLength="37" x="540.5" y="302.1787">Rel_R</text><text fill="#666666" font-family="sans-serif" font-size="12" font-style="italic" lengthAdjust="spacing" textLength="57" x="490.5" y="316.1474">[Optional</text><text fill="#666666" font-family="sans-serif" font-size="12" font-style="italic" lengthAdjust="spacing" textLength="4" x="547.5" y="316.1474">&#160;</text><text fill="#666666" font-family="sans-serif" font-size="12" font-style="italic" lengthAdjust="spacing" textLength="76" x="551.5" y="316.1474">Technology]</text></g><!--link cqueue2 to container2--><g id="link_cqueue2_container2"><path d="M223.88,324.04 C251.81,324.04 281.64,324.04 308.4,324.04 " fill="none" id="cqueue2-container2" style="stroke:#666666;stroke-width:1.0;"/><polygon fill="#666666" points="216.18,324.04,224.18,327.04,224.18,321.04,216.18,324.04" style="stroke:#666666;stroke-width:1.0;"/><polygon fill="#666666" points="316.35,324.04,308.35,321.04,308.35,327.04,316.35,324.04" style="stroke:#666666;stroke-width:1.0;"/><text fill="#666666" font-family="sans-serif" font-size="12" font-weight="bold" lengthAdjust="spacing" textLength="35" x="248.75" y="302.1787">BiRel</text><text fill="#666666" font-family="sans-serif" font-size="12" font-style="italic" lengthAdjust="spacing" textLength="62" x="235.25" y="316.1474">[Optional]</text></g><!--link container1 to container2--><g id="link_container1_container2"><path d="M394,151.57 C394,186.25 394,235.49 394,272.31 " fill="none" id="container1-to-container2" style="stroke:#666666;stroke-width:1.0;"/><polygon fill="#666666" points="394,279.91,397,271.91,391,271.91,394,279.91" style="stroke:#666666;stroke-width:1.0;"/><text fill="#666666" font-family="sans-serif" font-size="12" font-weight="bold" lengthAdjust="spacing" textLength="22" x="397" y="201.8287">Rel</text></g><text fill="#000000" font-family="sans-serif" font-size="14" font-weight="bold" lengthAdjust="spacing" textLength="59" x="663" y="428.3851">Legend</text><text fill="#FFFFFF" font-family="sans-serif" font-size="14" lengthAdjust="spacing" textLength="4" x="722" y="428.3851">&#160;</text><rect fill="#08427B" height="20.2969" style="stroke:none;stroke-width:1.0;" width="136" x="661" y="433.6869"/><text fill="#FFFFFF" font-family="sans-serif" font-size="14" lengthAdjust="spacing" textLength="49" x="667" y="448.682">person</text><rect fill="#1168BD" height="20.2969" style="stroke:none;stroke-width:1.0;" width="136" x="661" y="453.9838"/><text fill="#FFFFFF" font-family="sans-serif" font-size="14" lengthAdjust="spacing" textLength="50" x="667" y="468.9789">system</text><rect fill="#438DD5" height="20.2969" style="stroke:none;stroke-width:1.0;" width="136" x="661" y="474.2806"/><text fill="#FFFFFF" font-family="sans-serif" font-size="14" lengthAdjust="spacing" textLength="65" x="667" y="489.2757">container</text><rect fill="#686868" height="20.2969" style="stroke:none;stroke-width:1.0;" width="136" x="661" y="494.5775"/><text fill="#FFFFFF" font-family="sans-serif" font-size="14" lengthAdjust="spacing" textLength="108" x="667" y="509.5726">external person</text><rect fill="#999999" height="20.2969" style="stroke:none;stroke-width:1.0;" width="136" x="661" y="514.8744"/><text fill="#FFFFFF" font-family="sans-serif" font-size="14" lengthAdjust="spacing" textLength="109" x="667" y="529.8695">external system</text><rect fill="#B3B3B3" height="20.2969" style="stroke:none;stroke-width:1.0;" width="136" x="661" y="535.1713"/><text fill="#FFFFFF" font-family="sans-serif" font-size="14" lengthAdjust="spacing" textLength="124" x="667" y="550.1664">external container</text><line style="stroke:#FFFFFF;stroke-width:1.0;" x1="661" x2="797" y1="413.39" y2="413.39"/><line style="stroke:#FFFFFF;stroke-width:1.0;" x1="661" x2="797" y1="433.6869" y2="433.6869"/><line style="stroke:#FFFFFF;stroke-width:1.0;" x1="661" x2="797" y1="453.9838" y2="453.9838"/><line style="stroke:#FFFFFF;stroke-width:1.0;" x1="661" x2="797" y1="474.2806" y2="474.2806"/><line style="stroke:#FFFFFF;stroke-width:1.0;" x1="661" x2="797" y1="494.5775" y2="494.5775"/><line style="stroke:#FFFFFF;stroke-width:1.0;" x1="661" x2="797" y1="514.8744" y2="514.8744"/><line style="stroke:#FFFFFF;stroke-width:1.0;" x1="661" x2="797" y1="535.1713" y2="535.1713"/><line style="stroke:#FFFFFF;stroke-width:1.0;" x1="661" x2="797" y1="555.4681" y2="555.4681"/><line style="stroke:#FFFFFF;stroke-width:1.0;" x1="661" x2="661" y1="413.39" y2="555.4681"/><line style="stroke:#FFFFFF;stroke-width:1.0;" x1="797" x2="797" y1="413.39" y2="555.4681"/><!--SRC=[lHbfKnl7yhj-nQ1G9LGbOxJ860Wu1KBOhiBW83afVr96korfmcf7sPb5wANotr_txA7PYokkuC8hfkzhkdlLOaEzzaKmOmgqngTYKncohpuFzBSlLymJV1RoXMgqs120pRLU7hzzkoHmjF1tbOn25v1Y1hi1Q4FhIJTQGA2v5Z90kf5aCmHnvWkbcPoofLHAJ7nWwau4IuxiC-4T5aR1CKlvipVuOHRn6I0VPEs6m3KWgqo_gK0-Aw7dxCy8kV-HiGGDeVgZWNJzcwkRso5-E7tc3n7D882G-yoLlWpH9w5SCBaAc49lWPe3wCRMTkASyOIxTxDGHe4tDlZib3Lro0E5cg0ZcZQg33q8DsW_JQTJ6xu17ExHFuBnC9Gh2m97NJZO9mW6xiu2xFUE3Y_EcwJ_Wj-Xdxo530I58RM3ttFXS_8zHGfye40fvEJoYF0iPdoljt_aDYrO3fpeBHPB6MeCXWNozfsfKu1MqGPIWtNgTDy3lCy0LHHQBAt3NfTFUmVfUHN-YeS1ffNjk-vXjzkpOMKwT5yWFHXtE_7JOJpm62d5DBerYBEXtpF9W2oCneG_Nd1XSzixx3dl9yqKxXJXtUx1uSIpu3nwS2hYcNYaG7rqT6HqZLHLf2c-KiyX5sLVpeIRvvFt4U9G8YyBEBdiCDbwBoYDyrXPT1gDhMKeNV2Y45WYr1JEplOz3q-xxGPZsudpp567bLIhFYe6hSqQMn1ucRIyvDWKItAlIdBHuEgZOX5qC0ANbvVzoyjc-p4TKbSzPN_PfNM7Th8_Rd-IbK-9BYLl9wa4VDBZ6KASvmbnweLiK3P5y9HW_JphSgNpf6tOw4RVhmRiq-3gw-0LVKCpb2jCyuiRKrmVI-vZZuDZnDacRR39XMB1mpMriAJFT9XUBuNBVN_DDZs5AD0dU1lHmpd6OlTQlaMcSdIcmNGOzx411gZ6FHHuoO1OoG0vQNZG5Jn8FmFhC1Kjb_7zWQeYTMQR8akwRHR2BF9vo7OycFB8rsqyTjeim0wCi7jimk2n7Umvu3CPQONvJ2ZxxHIQrwxNnZ5XDjVvqtVjn2vyF20tAPV6Gk9qq6QxkxlvrB1Ju9Ii9OiwcHjZ3v0pJvi_kQxRZFs1VnmS73GfYRR4bCNKfqt7d31sdcdKDn4rJ6E8qIqv9Hdcz586keWvnA20H4z36Re5lW9BxdwTt4n2Jcucur_AxTLBTLvaRT6UTp_GZv-08wO5mP1MY3oe4ncZ_m29AQ0kI0MDth_8kO-4j6ZfuO-sj8QHaVjlmvZgL9cLJ_WrLIFmnBGHSnsA_m7hxfSlye-3wy7jsHKR3aQZpzSVNtQNRsrFfBSUJr70UCeN0kz5dBeKJlLl58G2vyGM0-xEq_cAkJmmrx_GogmAfDerNeETJCda4pMidscUf9iSQB9SDHgRNQXaSjsQOT5Sn2WvprUj71R99tHxI0j4WhxP9T1r6pISAwKxnu4NXzym0ek1cdDFhcXrd79A2eirpikhK62x2qgmhsWpqJYsa5ioofKXxbpidMd1yJw8czv2168HBR2LUjHBqSTcjL7mLmI12-c2YlqrrC8LIrms5CC6SOUQXzHSS5F4ZB0qG8vzdolrk-7OtTkpdNyHTp7sToENiRZJnfaGEuXbmMMbB4cJagACeGqNtCUZ4NRJC-niGPmg-1-4ZNzioMUqvHcvQULirhwyCZOWn-AQLXJYa9-DseJLOj-60zO_6mvUL0MMVgv6uGbtQwvqwE9fiIzcuIISnFs-m0ES8_gz1cEnD_WA52PINkbl2bokmEBis7hRcUFUyLc2Q8_sYNrd_T7dtpwFlh_UFfoszRfI4MC2PbWIWTB4ZF11LgzLq7EUbcLngobaGQ855ZHMdXShOszG9QTWsfjPizej6ypXIYom5XB_vTUI6jIHq7ub_a7Yyk7Wrs-3w_xBKgfbCkaOInWe-AnFqK_Bc4_aFPGCZEkw8lbe0CokbDvUtenpkbLemYxJxHSixcDrXT9_1kOWqFaaoIEscCSrdv19vZX-8mPBNwvDvQVlqph6V6nOz49CpuKoRxAGdF0vMydmZfkhtXmKRpjbtrYflB9AtPALlW-kcTuhVPb3_ZM229v66oQgNOafO0kfgkFtDIGNuFDrLNevTGGnrdCoEA7uIFLGBg9tDUYtCCM9X1nTggP3kkRY_ZgQ2_Sk0ALOjvhDEIuf9GQzNAxYk6AovTbbyv8AG-IBmTUhc-zV1jUZ5owmXU9qhUAa7f8SrI8abtGrdErCnSClv8UqD6EyOI6zwQLjN92ryBWCQy4cUMkWv9saPgenDcfQ1VCugds3po1tLTLrCznzqrlxiVewm-jlYdtrQOvzkLZAu5d2BuN_Z8RRvw7tDDOGyoLhou-oysNaLTP5NZTwUVzaDxj6GRMJW3i7zov-Zq2l33Pl4cojyRHEvnR3fWF6wtZv6W6_s1fAFxk57b7n4ppmMHhYHrhuPve5KHYKCOlDvsRo9zIa0jujPrg7OX9fg9aLM_QGKW3OqqtjV7cBmdamyw769dC_UF7GX-EtXxlYSHNvoSaagVyF7ygi3ae9nZNynpQtJ0T-4xVWOxA8LtJn3dPks3HyyyuBEpd6NCjbtDXn35Wl9j97ZeP9iPDtS5qacWduEFqB_NECI5yVUMQkutxwDKEpmrPqdmQqENf2qO8K2JL7Mhq2NBLG6jrzw8q4aU4i5ORO9MD5aY_wp3S3mUOAe_sRHOf0X1R0oaPTS8qyT_3oMoZIrPEWpEvA3egdczH-r7lZesGZPMlGxSQ9YTW73A7AMdaC_jli-fuzmnHU5bHDqupzqw3VaxS9uoqHk7w4XfxqUs_xlJ6r3oI0y4EZSNNs_URRQFpxvz6dyTNWu-3wWWRwuLffM8pJHhIJPcItmve56BqhpcP9ybQpdUnfYP0TD_r4rDanqOt0dGUezSnmkLac8Rq0vOR2_6LUt6Gqfd7jk7_Hm-PbpWiCSuGNantNczWa5vDdAu2CRi4Vt-OCYTcPynnfGODpGIXNUT9KVmEqgPkckEkSxxp2-UF1Wzu8TsmF4EZLGOZv6aESKYGgE1UY4PDx4oSVaXUfL0wBOyBYl2ekJXeNfpumU9WFfErNecZ_7m00]--></g></svg>