<?xml version="1.0" encoding="UTF-8" standalone="no"?><svg xmlns="http://www.w3.org/2000/svg" xmlns:xlink="http://www.w3.org/1999/xlink" contentScriptType="application/ecmascript" contentStyleType="text/css" height="552px" preserveAspectRatio="none" style="width:788px;height:552px;" version="1.1" viewBox="0 0 788 552" width="788px" zoomAndPan="magnify"><defs><filter height="300%" id="fnl24stsgu4fn" width="300%" x="-1" y="-1"><feGaussianBlur result="blurOut" stdDeviation="2.0"/><feColorMatrix in="blurOut" result="blurOut2" type="matrix" values="0 0 0 0 0 0 0 0 0 0 0 0 0 0 0 0 0 0 .4 0"/><feOffset dx="4.0" dy="4.0" in="blurOut2" result="blurOut3"/><feBlend in="SourceGraphic" in2="blurOut3" mode="normal"/></filter></defs><g><!--MD5=[8fc3522a43f8c7199df5e09e5bb0188e]
entity user--><ellipse cx="458.5" cy="14" fill="#FEFECE" filter="url(#fnl24stsgu4fn)" rx="8" ry="8" style="stroke:#A80036;stroke-width:1.5;"/><path d="M458.5,22 L458.5,49 M445.5,30 L471.5,30 M458.5,49 L445.5,64 M458.5,49 L471.5,64 " fill="none" filter="url(#fnl24stsgu4fn)" style="stroke:#A80036;stroke-width:1.5;"/><text fill="#000000" font-family="sans-serif" font-size="14" lengthAdjust="spacing" textLength="29" x="444" y="83.4999">User</text><!--MD5=[23e4898078453906b079a6bea7d1245c]
entity developer--><ellipse cx="358.5" cy="157" fill="#FEFECE" filter="url(#fnl24stsgu4fn)" rx="8" ry="8" style="stroke:#A80036;stroke-width:1.5;"/><path d="M358.5,165 L358.5,192 M345.5,173 L371.5,173 M358.5,192 L345.5,207 M358.5,192 L371.5,207 " fill="none" filter="url(#fnl24stsgu4fn)" style="stroke:#A80036;stroke-width:1.5;"/><text fill="#000000" font-family="sans-serif" font-size="14" lengthAdjust="spacing" textLength="61" x="328" y="226.4999">Developer</text><!--MD5=[57d60d068ec368f775d9ec3781c86353]
entity appman--><ellipse cx="228.5" cy="157" fill="#FEFECE" filter="url(#fnl24stsgu4fn)" rx="8" ry="8" style="stroke:#A80036;stroke-width:1.5;"/><path d="M228.5,165 L228.5,192 M215.5,173 L241.5,173 M228.5,192 L215.5,207 M228.5,192 L241.5,207 " fill="none" filter="url(#fnl24stsgu4fn)" style="stroke:#A80036;stroke-width:1.5;"/><text fill="#000000" font-family="sans-serif" font-size="14" lengthAdjust="spacing" textLength="128" x="164.5" y="226.4999">Application Manager</text><!--MD5=[708561a92445cac008d53ad3432ea70a]
entity dwb--><ellipse cx="474.5" cy="157" fill="#FEFECE" filter="url(#fnl24stsgu4fn)" rx="8" ry="8" style="stroke:#A80036;stroke-width:1.5;"/><path d="M474.5,165 L474.5,192 M461.5,173 L487.5,173 M474.5,192 L461.5,207 M474.5,192 L487.5,207 " fill="none" filter="url(#fnl24stsgu4fn)" style="stroke:#A80036;stroke-width:1.5;"/><text fill="#000000" font-family="sans-serif" font-size="14" lengthAdjust="spacing" textLength="100" x="424.5" y="226.4999">DataWorkbench</text><ellipse cx="117.4619" cy="515.1924" fill="#FEFECE" filter="url(#fnl24stsgu4fn)" rx="111.4619" ry="24.6924" style="stroke:#A80036;stroke-width:1.5;"/><text fill="#000000" font-family="sans-serif" font-size="14" lengthAdjust="spacing" textLength="188" x="23.4619" y="518.7924">Get human-readable feedback</text><ellipse cx="379.6243" cy="515.0249" fill="#FEFECE" filter="url(#fnl24stsgu4fn)" rx="115.6243" ry="25.5249" style="stroke:#A80036;stroke-width:1.5;"/><text fill="#000000" font-family="sans-serif" font-size="14" lengthAdjust="spacing" textLength="197" x="281.1243" y="518.6248">Get machine-readable feedback</text><ellipse cx="248.5717" cy="412.7143" fill="#FEFECE" filter="url(#fnl24stsgu4fn)" rx="69.0717" ry="16.2143" style="stroke:#A80036;stroke-width:1.5;"/><text fill="#000000" font-family="sans-serif" font-size="14" lengthAdjust="spacing" textLength="90" x="203.1311" y="416.4213">Access an API</text><ellipse cx="405.6074" cy="312.8215" fill="#FEFECE" filter="url(#fnl24stsgu4fn)" rx="99.6074" ry="22.3215" style="stroke:#A80036;stroke-width:1.5;"/><text fill="#000000" font-family="sans-serif" font-size="14" lengthAdjust="spacing" textLength="162" x="324.6074" y="316.4215">Run the validator software</text><ellipse cx="690.3546" cy="188.6709" fill="#FEFECE" filter="url(#fnl24stsgu4fn)" rx="86.3546" ry="19.6709" style="stroke:#A80036;stroke-width:1.5;"/><text fill="#000000" font-family="sans-serif" font-size="14" lengthAdjust="spacing" textLength="132" x="624.3546" y="192.2709">Access a web service</text><!--MD5=[9625d823528e4fe28c4fc5bbaf4f6d7d]
reverse link user to appman--><path d="M426.6,66.06 C392.11,87.2 336.22,121.47 292.58,148.22 " fill="none" id="user-backto-appman" style="stroke:#A80036;stroke-width:1.0;"/><polygon fill="none" points="423.05,60.02,443.76,55.53,430.37,71.96,423.05,60.02" style="stroke:#A80036;stroke-width:1.0;"/><!--MD5=[c4a7da53dfe501c30bc5e84d041801ec]
reverse link appman to developer--><path d="M312.81,188.5 C317.85,188.5 322.89,188.5 327.93,188.5 " fill="none" id="appman-backto-developer" style="stroke:#A80036;stroke-width:1.0;"/><polygon fill="none" points="312.74,195.5,292.74,188.5,312.74,181.5,312.74,195.5" style="stroke:#A80036;stroke-width:1.0;"/><!--MD5=[6dd3f60d2b422b813452422c7c42b27c]
reverse link developer to dwb--><path d="M409.51,188.5 C414.43,188.5 419.34,188.5 424.25,188.5 " fill="none" id="developer-backto-dwb" style="stroke:#A80036;stroke-width:1.0;"/><polygon fill="none" points="409.31,195.5,389.31,188.5,409.31,181.5,409.31,195.5" style="stroke:#A80036;stroke-width:1.0;"/><!--MD5=[99efe4743270fafc39491ef3b210befe]
reverse link api to mfeedback--><path d="M283.22,440.14 C303.55,455.73 329,475.26 348.63,490.31 " fill="none" id="api-backto-mfeedback" style="stroke:#A80036;stroke-width:1.0;"/><polygon fill="none" points="278.88,445.63,267.27,427.9,287.4,434.52,278.88,445.63" style="stroke:#A80036;stroke-width:1.0;"/><!--MD5=[646212344b07f906d725e33bc745a4e9]
reverse link api to hfeedback--><path d="M213.86,440.08 C193.17,455.95 167.15,475.91 147.37,491.08 " fill="none" id="api-backto-hfeedback" style="stroke:#A80036;stroke-width:1.0;"/><polygon fill="none" points="209.6,434.52,229.73,427.9,218.12,445.63,209.6,434.52" style="stroke:#A80036;stroke-width:1.0;"/><!--MD5=[d58f75f142ebd6ac53a551aad8ba2a42]
reverse link run to api--><path d="M355.44,345.09 C327.15,362.65 293.17,383.76 271.22,397.39 " fill="none" id="run-backto-api" style="stroke:#A80036;stroke-width:1.0;"/><polygon fill="none" points="351.9,339.04,372.59,334.44,359.29,350.94,351.9,339.04" style="stroke:#A80036;stroke-width:1.0;"/><!--MD5=[20088fe0fa442857d03a494f7704391e]
reverse link ws to run--><path d="M633.49,214.01 C579.6,237.17 499.84,271.45 450.35,292.72 " fill="none" id="ws-backto-run" style="stroke:#A80036;stroke-width:1.0;"/><polygon fill="none" points="630.92,207.49,652.06,206.02,636.45,220.35,630.92,207.49" style="stroke:#A80036;stroke-width:1.0;"/><!--MD5=[8f376f3f3ebfa6979503ebcd5f19bf6b]
link user to ws--><path d="M473.01,55.32 C509.51,77.5 605.85,136.05 657.19,167.25 " fill="none" id="user-to-ws" style="stroke:#A80036;stroke-width:1.0;"/><polygon fill="#A80036" points="661.71,170,656.0822,161.9174,657.4327,167.4107,651.9394,168.7611,661.71,170" style="stroke:#A80036;stroke-width:1.0;"/><!--MD5=[77026867c21809e07268ca963f9303c1]
link appman to api--><path d="M232.12,229.7 C236.41,277.34 243.39,354.83 246.68,391.31 " fill="none" id="appman-to-api" style="stroke:#A80036;stroke-width:1.0;"/><polygon fill="#A80036" points="247.14,396.38,250.3257,387.0606,246.6964,391.3997,242.3572,387.7704,247.14,396.38" style="stroke:#A80036;stroke-width:1.0;"/><text fill="#000000" font-family="sans-serif" font-size="13" lengthAdjust="spacing" textLength="40" x="243.5" y="318.5">access</text><!--MD5=[6ac1ac8daa35d2561828483c99888509]
link developer to run--><path d="M373.89,229.61 C380.93,247.95 389.07,269.17 395.33,285.48 " fill="none" id="developer-to-run" style="stroke:#A80036;stroke-width:1.0;"/><polygon fill="#A80036" points="397.2,290.38,397.6965,280.5437,395.4022,285.7144,390.2315,283.4201,397.2,290.38" style="stroke:#A80036;stroke-width:1.0;"/><!--MD5=[4f2c84fc7b7b6621b910b18925f741d8]
link dwb to ws--><path d="M524.6,188.5 C546.68,188.5 573.35,188.5 598.78,188.5 " fill="none" id="dwb-to-ws" style="stroke:#A80036;stroke-width:1.0;"/><polygon fill="#A80036" points="603.85,188.5,594.85,184.5,598.85,188.5,594.85,192.5,603.85,188.5" style="stroke:#A80036;stroke-width:1.0;"/><text fill="#000000" font-family="sans-serif" font-size="13" lengthAdjust="spacing" textLength="43" x="542.75" y="182.5">operate</text><!--MD5=[66d48aefbd1aaaf7f19554ff641d12a5]
@startuml
actor user as "User"
actor developer as "Developer"
actor appman as "Application Manager"
actor dwb as "DataWorkbench"

user <|- - appman
appman <|-right- developer
developer <|-right- dwb

usecase hfeedback as "Get human-readable feedback"
usecase mfeedback as "Get machine-readable feedback"
usecase api as "Access an API"
usecase run as "Run the validator software"
usecase ws as "Access a web service"

(api) <|- - (mfeedback)
(api) <|- - (hfeedback)
(run) <|- - (api)
(ws) <|- - (run)

user - -> (ws)

appman -> (api): "access"

developer -down-> (run)

dwb -> (ws): "operate"
@enduml

PlantUML version 1.2021.4(Sun Apr 04 08:49:39 GMT 2021)
(GPL source distribution)
Java Runtime: OpenJDK Runtime Environment
JVM: OpenJDK 64-Bit Server VM
Default Encoding: UTF-8
Language: en
Country: US
--></g></svg>