<?xml version="1.0" encoding="us-ascii" standalone="no"?><svg xmlns="http://www.w3.org/2000/svg" xmlns:xlink="http://www.w3.org/1999/xlink" contentStyleType="text/css" height="625px" preserveAspectRatio="none" style="width:862px;height:625px;" version="1.1" viewBox="0 0 862 625" width="862px" zoomAndPan="magnify"><defs/><g><rect fill="none" height="623.0619" style="stroke:#FFFFFF;stroke-width:1.0;" width="860" x="0" y="0"/><!--cluster boundary1--><g id="cluster_boundary1"><rect fill="none" height="164.69" rx="2.5" ry="2.5" style="stroke:#444444;stroke-width:1.0;stroke-dasharray:7.0,7.0;" width="791" x="43" y="7"/><text fill="#444444" font-family="sans-serif" font-size="15" font-weight="bold" lengthAdjust="spacing" textLength="165" x="356" y="24.9233">Container_Boundary</text><text fill="#444444" font-family="sans-serif" font-size="12" font-weight="bold" lengthAdjust="spacing" textLength="80" x="398.5" y="39.5996">[Container]</text></g><!--cluster boundary2--><g id="cluster_boundary2"><rect fill="none" height="164.7" rx="2.5" ry="2.5" style="stroke:#444444;stroke-width:1.0;stroke-dasharray:7.0,7.0;" width="849" x="7" y="222.69"/><text fill="#444444" font-family="sans-serif" font-size="15" font-weight="bold" lengthAdjust="spacing" textLength="78" x="392.5" y="240.6133">Boundary</text><text fill="#444444" font-family="sans-serif" font-size="12" font-weight="bold" lengthAdjust="spacing" textLength="80" x="391.5" y="255.2896">[Container]</text></g><!--entity component1--><g id="elem_component1"><rect fill="#85BBF0" height="85.6953" rx="2.5" ry="2.5" style="stroke:#78A8D8;stroke-width:0.5;" width="153" x="333.5" y="65.5"/><text fill="#000000" font-family="sans-serif" font-size="15" font-weight="bold" lengthAdjust="spacing" textLength="94" x="363" y="91.4233">Component</text><text fill="#000000" font-family="sans-serif" font-size="12" font-style="italic" lengthAdjust="spacing" textLength="81" x="369.5" y="106.0996">[Technology]</text><text fill="#000000" font-family="sans-serif" font-size="13" lengthAdjust="spacing" textLength="4" x="408" y="120.9966">&#160;</text><text fill="#000000" font-family="sans-serif" font-size="13" lengthAdjust="spacing" textLength="53" x="345.5" y="136.1294">Optional</text><text fill="#000000" font-family="sans-serif" font-size="13" lengthAdjust="spacing" textLength="4" x="398.5" y="136.1294">&#160;</text><text fill="#000000" font-family="sans-serif" font-size="13" lengthAdjust="spacing" textLength="72" x="402.5" y="136.1294">Description</text></g><!--entity cqueue--><g id="elem_cqueue"><path d="M64.5,85.63 L225.5,85.63 C230.5,85.63 230.5,108.3448 230.5,108.3448 C230.5,108.3448 230.5,131.0597 225.5,131.0597 L64.5,131.0597 C59.5,131.0597 59.5,108.3448 59.5,108.3448 C59.5,108.3448 59.5,85.63 64.5,85.63 " fill="#85BBF0" style="stroke:#78A8D8;stroke-width:0.5;"/><path d="M225.5,85.63 C220.5,85.63 220.5,108.3448 220.5,108.3448 C220.5,131.0597 225.5,131.0597 225.5,131.0597 " fill="none" style="stroke:#78A8D8;stroke-width:0.5;"/><text fill="#000000" font-family="sans-serif" font-size="15" font-weight="bold" lengthAdjust="spacing" textLength="147" x="66.5" y="106.5533">ComponentQueue</text><text fill="#000000" font-family="sans-serif" font-size="12" font-style="italic" lengthAdjust="spacing" textLength="81" x="99.5" y="121.2296">[Technology]</text></g><!--entity cdb--><g id="elem_cdb"><path d="M664.5,71 C664.5,61 741,61 741,61 C741,61 817.5,61 817.5,71 L817.5,145.6953 C817.5,155.6953 741,155.6953 741,155.6953 C741,155.6953 664.5,155.6953 664.5,145.6953 L664.5,71 " fill="#85BBF0" style="stroke:#78A8D8;stroke-width:0.5;"/><path d="M664.5,71 C664.5,81 741,81 741,81 C741,81 817.5,81 817.5,71 " fill="none" style="stroke:#78A8D8;stroke-width:0.5;"/><text fill="#000000" font-family="sans-serif" font-size="15" font-weight="bold" lengthAdjust="spacing" textLength="116" x="683" y="100.9233">ComponentDb</text><text fill="#000000" font-family="sans-serif" font-size="12" font-style="italic" lengthAdjust="spacing" textLength="81" x="700.5" y="115.5996">[Technology]</text><text fill="#000000" font-family="sans-serif" font-size="13" lengthAdjust="spacing" textLength="4" x="739" y="130.4966">&#160;</text><text fill="#000000" font-family="sans-serif" font-size="13" lengthAdjust="spacing" textLength="53" x="676.5" y="145.6294">Optional</text><text fill="#000000" font-family="sans-serif" font-size="13" lengthAdjust="spacing" textLength="4" x="729.5" y="145.6294">&#160;</text><text fill="#000000" font-family="sans-serif" font-size="13" lengthAdjust="spacing" textLength="72" x="733.5" y="145.6294">Description</text></g><!--entity component2--><g id="elem_component2"><rect fill="#CCCCCC" height="85.6953" rx="2.5" ry="2.5" style="stroke:#BFBFBF;stroke-width:0.5;" width="154" x="333" y="281.19"/><text fill="#000000" font-family="sans-serif" font-size="15" font-weight="bold" lengthAdjust="spacing" textLength="130" x="345" y="307.1133">Component_Ext</text><text fill="#000000" font-family="sans-serif" font-size="12" font-style="italic" lengthAdjust="spacing" textLength="81" x="369.5" y="321.7896">[Technology]</text><text fill="#000000" font-family="sans-serif" font-size="13" lengthAdjust="spacing" textLength="4" x="408" y="336.6866">&#160;</text><text fill="#000000" font-family="sans-serif" font-size="13" lengthAdjust="spacing" textLength="53" x="345.5" y="351.8194">Optional</text><text fill="#000000" font-family="sans-serif" font-size="13" lengthAdjust="spacing" textLength="4" x="398.5" y="351.8194">&#160;</text><text fill="#000000" font-family="sans-serif" font-size="13" lengthAdjust="spacing" textLength="72" x="402.5" y="351.8194">Description</text></g><!--entity cqueue2--><g id="elem_cqueue2"><path d="M28.5,301.33 L225.5,301.33 C230.5,301.33 230.5,324.0448 230.5,324.0448 C230.5,324.0448 230.5,346.7597 225.5,346.7597 L28.5,346.7597 C23.5,346.7597 23.5,324.0448 23.5,324.0448 C23.5,324.0448 23.5,301.33 28.5,301.33 " fill="#CCCCCC" style="stroke:#BFBFBF;stroke-width:0.5;"/><path d="M225.5,301.33 C220.5,301.33 220.5,324.0448 220.5,324.0448 C220.5,346.7597 225.5,346.7597 225.5,346.7597 " fill="none" style="stroke:#BFBFBF;stroke-width:0.5;"/><text fill="#000000" font-family="sans-serif" font-size="15" font-weight="bold" lengthAdjust="spacing" textLength="183" x="30.5" y="322.2533">ComponentQueue_Ext</text><text fill="#000000" font-family="sans-serif" font-size="12" font-style="italic" lengthAdjust="spacing" textLength="81" x="81.5" y="336.9296">[Technology]</text></g><!--entity cdb2--><g id="elem_cdb2"><path d="M664,286.69 C664,276.69 752,276.69 752,276.69 C752,276.69 840,276.69 840,286.69 L840,361.3853 C840,371.3853 752,371.3853 752,371.3853 C752,371.3853 664,371.3853 664,361.3853 L664,286.69 " fill="#CCCCCC" style="stroke:#BFBFBF;stroke-width:0.5;"/><path d="M664,286.69 C664,296.69 752,296.69 752,296.69 C752,296.69 840,296.69 840,286.69 " fill="none" style="stroke:#BFBFBF;stroke-width:0.5;"/><text fill="#000000" font-family="sans-serif" font-size="15" font-weight="bold" lengthAdjust="spacing" textLength="152" x="676" y="316.6133">ComponentDb_Ext</text><text fill="#000000" font-family="sans-serif" font-size="12" font-style="italic" lengthAdjust="spacing" textLength="81" x="711.5" y="331.2896">[Technology]</text><text fill="#000000" font-family="sans-serif" font-size="13" lengthAdjust="spacing" textLength="4" x="750" y="346.1866">&#160;</text><text fill="#000000" font-family="sans-serif" font-size="13" lengthAdjust="spacing" textLength="53" x="687.5" y="361.3194">Optional</text><text fill="#000000" font-family="sans-serif" font-size="13" lengthAdjust="spacing" textLength="4" x="740.5" y="361.3194">&#160;</text><text fill="#000000" font-family="sans-serif" font-size="13" lengthAdjust="spacing" textLength="72" x="744.5" y="361.3194">Description</text></g><!--link component1 to cdb--><g id="link_component1_cdb"><path d="M486.77,108.35 C540.05,108.35 602.76,108.35 656.07,108.35 " fill="none" id="component1-to-cdb" style="stroke:#666666;stroke-width:1.0;"/><polygon fill="#666666" points="664.07,108.35,656.07,105.35,656.07,111.35,664.07,108.35" style="stroke:#666666;stroke-width:1.0;"/><text fill="#666666" font-family="sans-serif" font-size="12" font-weight="bold" lengthAdjust="spacing" textLength="37" x="557" y="86.4887">Rel_R</text><text fill="#666666" font-family="sans-serif" font-size="12" font-style="italic" lengthAdjust="spacing" textLength="57" x="507" y="100.4574">[Optional</text><text fill="#666666" font-family="sans-serif" font-size="12" font-style="italic" lengthAdjust="spacing" textLength="4" x="564" y="100.4574">&#160;</text><text fill="#666666" font-family="sans-serif" font-size="12" font-style="italic" lengthAdjust="spacing" textLength="76" x="568" y="100.4574">Technology]</text></g><!--link cqueue to component1--><g id="link_cqueue_component1"><path d="M238.67,108.35 C271.64,108.35 293.04,108.35 325.13,108.35 " fill="none" id="cqueue-component1" style="stroke:#666666;stroke-width:1.0;"/><polygon fill="#666666" points="230.67,108.35,238.67,111.35,238.67,105.35,230.67,108.35" style="stroke:#666666;stroke-width:1.0;"/><polygon fill="#666666" points="333.13,108.35,325.13,105.35,325.13,111.35,333.13,108.35" style="stroke:#666666;stroke-width:1.0;"/><text fill="#666666" font-family="sans-serif" font-size="12" font-weight="bold" lengthAdjust="spacing" textLength="35" x="264.5" y="86.4887">BiRel</text><text fill="#666666" font-family="sans-serif" font-size="12" font-style="italic" lengthAdjust="spacing" textLength="62" x="251" y="100.4574">[Optional]</text></g><!--link component2 to cdb2--><g id="link_component2_cdb2"><path d="M487.18,324.04 C539.58,324.04 601.01,324.04 655.64,324.04 " fill="none" id="component2-to-cdb2" style="stroke:#666666;stroke-width:1.0;"/><polygon fill="#666666" points="663.64,324.04,655.64,321.04,655.64,327.04,663.64,324.04" style="stroke:#666666;stroke-width:1.0;"/><text fill="#666666" font-family="sans-serif" font-size="12" font-weight="bold" lengthAdjust="spacing" textLength="37" x="557" y="302.1787">Rel_R</text><text fill="#666666" font-family="sans-serif" font-size="12" font-style="italic" lengthAdjust="spacing" textLength="57" x="507" y="316.1474">[Optional</text><text fill="#666666" font-family="sans-serif" font-size="12" font-style="italic" lengthAdjust="spacing" textLength="4" x="564" y="316.1474">&#160;</text><text fill="#666666" font-family="sans-serif" font-size="12" font-style="italic" lengthAdjust="spacing" textLength="76" x="568" y="316.1474">Technology]</text></g><!--link cqueue2 to component2--><g id="link_cqueue2_component2"><path d="M238.77,324.04 C272.53,324.04 293.38,324.04 324.84,324.04 " fill="none" id="cqueue2-component2" style="stroke:#666666;stroke-width:1.0;"/><polygon fill="#666666" points="230.77,324.04,238.77,327.04,238.77,321.04,230.77,324.04" style="stroke:#666666;stroke-width:1.0;"/><polygon fill="#666666" points="332.84,324.04,324.84,321.04,324.84,327.04,332.84,324.04" style="stroke:#666666;stroke-width:1.0;"/><text fill="#666666" font-family="sans-serif" font-size="12" font-weight="bold" lengthAdjust="spacing" textLength="35" x="264.25" y="302.1787">BiRel</text><text fill="#666666" font-family="sans-serif" font-size="12" font-style="italic" lengthAdjust="spacing" textLength="62" x="250.75" y="316.1474">[Optional]</text></g><!--link component1 to component2--><g id="link_component1_component2"><path d="M410,151.57 C410,189.03 410,235.47 410,272.91 " fill="none" id="component1-to-component2" style="stroke:#666666;stroke-width:1.0;"/><polygon fill="#666666" points="410,280.91,413,272.91,407,272.91,410,280.91" style="stroke:#666666;stroke-width:1.0;"/><text fill="#666666" font-family="sans-serif" font-size="12" font-weight="bold" lengthAdjust="spacing" textLength="22" x="413" y="201.8287">Rel</text></g><text fill="#000000" font-family="sans-serif" font-size="14" font-weight="bold" lengthAdjust="spacing" textLength="59" x="680" y="428.3851">Legend</text><text fill="#FFFFFF" font-family="sans-serif" font-size="14" lengthAdjust="spacing" textLength="4" x="739" y="428.3851">&#160;</text><rect fill="#08427B" height="20.2969" style="stroke:none;stroke-width:1.0;" width="151" x="678" y="433.6869"/><text fill="#FFFFFF" font-family="sans-serif" font-size="14" lengthAdjust="spacing" textLength="49" x="684" y="448.682">person</text><rect fill="#1168BD" height="20.2969" style="stroke:none;stroke-width:1.0;" width="151" x="678" y="453.9838"/><text fill="#FFFFFF" font-family="sans-serif" font-size="14" lengthAdjust="spacing" textLength="50" x="684" y="468.9789">system</text><rect fill="#438DD5" height="20.2969" style="stroke:none;stroke-width:1.0;" width="151" x="678" y="474.2806"/><text fill="#FFFFFF" font-family="sans-serif" font-size="14" lengthAdjust="spacing" textLength="65" x="684" y="489.2757">container</text><rect fill="#85BBF0" height="20.2969" style="stroke:none;stroke-width:1.0;" width="151" x="678" y="494.5775"/><text fill="#FFFFFF" font-family="sans-serif" font-size="14" lengthAdjust="spacing" textLength="80" x="684" y="509.5726">component</text><rect fill="#686868" height="20.2969" style="stroke:none;stroke-width:1.0;" width="151" x="678" y="514.8744"/><text fill="#FFFFFF" font-family="sans-serif" font-size="14" lengthAdjust="spacing" textLength="108" x="684" y="529.8695">external person</text><rect fill="#999999" height="20.2969" style="stroke:none;stroke-width:1.0;" width="151" x="678" y="535.1713"/><text fill="#FFFFFF" font-family="sans-serif" font-size="14" lengthAdjust="spacing" textLength="109" x="684" y="550.1664">external system</text><rect fill="#B3B3B3" height="20.2969" style="stroke:none;stroke-width:1.0;" width="151" x="678" y="555.4681"/><text fill="#FFFFFF" font-family="sans-serif" font-size="14" lengthAdjust="spacing" textLength="124" x="684" y="570.4632">external container</text><rect fill="#CCCCCC" height="20.2969" style="stroke:none;stroke-width:1.0;" width="151" x="678" y="575.765"/><text fill="#FFFFFF" font-family="sans-serif" font-size="14" lengthAdjust="spacing" textLength="139" x="684" y="590.7601">external component</text><line style="stroke:#FFFFFF;stroke-width:1.0;" x1="678" x2="829" y1="413.39" y2="413.39"/><line style="stroke:#FFFFFF;stroke-width:1.0;" x1="678" x2="829" y1="433.6869" y2="433.6869"/><line style="stroke:#FFFFFF;stroke-width:1.0;" x1="678" x2="829" y1="453.9838" y2="453.9838"/><line style="stroke:#FFFFFF;stroke-width:1.0;" x1="678" x2="829" y1="474.2806" y2="474.2806"/><line style="stroke:#FFFFFF;stroke-width:1.0;" x1="678" x2="829" y1="494.5775" y2="494.5775"/><line style="stroke:#FFFFFF;stroke-width:1.0;" x1="678" x2="829" y1="514.8744" y2="514.8744"/><line style="stroke:#FFFFFF;stroke-width:1.0;" x1="678" x2="829" y1="535.1713" y2="535.1713"/><line style="stroke:#FFFFFF;stroke-width:1.0;" x1="678" x2="829" y1="555.4681" y2="555.4681"/><line style="stroke:#FFFFFF;stroke-width:1.0;" x1="678" x2="829" y1="575.765" y2="575.765"/><line style="stroke:#FFFFFF;stroke-width:1.0;" x1="678" x2="829" y1="596.0619" y2="596.0619"/><line style="stroke:#FFFFFF;stroke-width:1.0;" x1="678" x2="678" y1="413.39" y2="596.0619"/><line style="stroke:#FFFFFF;stroke-width:1.0;" x1="829" x2="829" y1="413.39" y2="596.0619"/><!--SRC=[lHbfKnl7yhj-nQ2uIgXAncYHkG9EWH26AWmE4advapBQRKaJLZlApYo2byf_VzspXsOl3iSLk-oLfkzhkdlLOaFzv8jWnXHeZK_5fZ9aNtqUwBilLymJV1RoXMgqs120pRLU7dxui2HmjF2tb8n25v1Y1bi1Q4FhIJTQGA2v5Z90kf5aCmHnvWkbcPoofLHAJ7nWwbu4IuxiC-4T5aR18Klvi_VuOHRn6I0VPEs6m3KWgqo_gK0-Aw7dxCy8kV-HiGGDeVgZWNJzcwkRso5-E7xb7oAQGG0XzvahVHcYJqAvO78LC8NU0ZK7q8sDTubpnXFktiz26GNUsE2pOzRK8GyKQeAEQDgeClGWNAFzD9rERVWQiBzDVmd6mr2kB0WST65tXo0Ok7iBiDCxs3yxRPB-2twFVl8MCX0KXjGE_i25pydt52dmWGAba9FB8yApcF7jtiw1sxHWEN2YjrWiPQWn61R8st6cJW5QHHj83TQfqzq3sCi0LHHQBAt3NfTFUxlfUHN-YeS1ffNjk-v-jzkpOMKwT5yWFHXtE_7JOJpm62d5DBerYBEXtpF9W2oCneG_Nd1XSzlUxpbxasOATuhmRdTtV-9PS1uzEXNnJ3nIe3uuE32wHgegqXHVgUUGYx8lPyBDyydx274eaPS5d5nsc6nz49J6UQmiEet6nZAKBdXH22mHQWfdyzq33u-xxGPZxnBdcQCEAwbMVLGCMfirDY3mCcbvoR4fbkHUbUIYmTL7nIBeO0JEpy_xv-VDzdCwfAvwoVwoI-iExMH_tluaAryINKhUJb89-AJ7AuGuhnFYr0jPewoBu2N1-dNMvKhdHTkmqOs-NGtOnU3gw-0x-ePcA5UOvXStfhW-bjp77WU7YFEEjC4c5ue53v-eXILzfiFqqrAutFUVsBgd40Nw16yZUZY7MEnUoxV8L8xED9WEupusm03LU802BnaGAnaW9msFke87wMTW7QQYvJA-Fr1LfCviKsH9jyr2c4K-3zcc1rCU-RgDnqwR1TY14VQ0JHWyjeaz1tmc8wqmdmbbfvr2yzhrsZWcpEOwV_gndTY5ZqVa9kNIM4YSTjjiQsihdnfs2XoJjMHH9tDZx05ovd7p9zTrcx4_yClkxcwJacX3J5bCVTnqp0bZfvb6VHDHmpI66DsIKv9XJizbe8kOGmmAIFGqbA4Ru2kmvExKoSqavEHcClwbt5wzLETDrXRj-VW3_NW1734j28QqGkHkdSWO_GT8J05rGIfejFScvpuJqgAb-p_QqXf6Hkw_3MEgKsLMlk3NL8t04zD6p7Ke_WUikrE-o3yFhWUt9rTiE1YDBgy_l-qkttWtaTxJU8e2nbE-47WlujIbSAf_ho0KE2Us671tdivNpEM1kVw5LcPL8DMkyHhiP4ecdwXX_Kpp9DtaG9Fbgj5Oxq8ba-lM38lcB4R9URvgvR18Bj3j8IqG2Vfwbq3NhT5mhfJk70TU77x322m6QiuzkQBLSSefAIpME2-lGe7jBYZ1lgBDHEFOGcx9A5U6k7EnZwO5n_iWRdeB4OX5jC1Mwb4lHH-RrKR1Nn44BgGBAlRNK0jNB77PK0mRn3rg7b9pmKqHCyBI03dsVQxKxuPZTtlRTlvPtCNOturSnk9E6sT2x22M1PULiYHDIeeoXZPSS1-FHjXDJx2p1N6gu7yGDlwn9P_GbcVaffMpNlloojY078jhMb68GtusQXDMYzqD1wn_CXoygGei_LoDmXFkrbpfqCNJOb_CmaauYVjzWGSuH_Hx3SPYR_0LA4oalD9t2bokmEBis7hRcUFUyrc2Q8_sYNqd_T7bRvUZRzzl7qxR-gbI4MC2PbWIWTB4ZF11LgzLq5EUbcLngobaGQ855ZHMdXShOszG9QTWsfjPizejQypXIYom5XB_vTUI6jIHq7ub_cxYyk7Wrxl1TVzjATKocNI89GmKVDQdwATbp2Vo0Ke6ndLTaNmq06PNIcyxRyOftIeqOPVfTWeMzx6wGkc_0dCGw7oIv15RpEEQJyWaSno_4OEbBvzCvQVlqph6V6nOz49CpuKoRxAGdF0vMydmdfkhtXmKRpjbtrYflB9AtPALlW-kcTuhVPb3_ZM225v66oQgNOafO0kfgkEz6f8pyFbJLNevTGGnrcioEA7uJFLGBgAFDUYtCCM9X1nTggPzkkRY_ZgQ2_S-0ALOjvhDAIuf9GQzNAxYk6AovTLbyvOAG-IpmTUhcszV1jUZDowmXU9qhUAa7f8SrI8abtGrd6rEnUClv8UqD6EyOI6zwQLjN92ryBWCQy4cUMkWv9saPgenrcfQ1VCygds3po1tLTLrCznzqrlxkVewmUjlYdtrPOvzkLZAu5N2puN_YeRRvw7tCjOGyoLhoy-oysNaLTP5NZTwUVzYDxj6GRMJW3i7zpv-Zq2l3DPl4cojyRHEvnR3fWF6wtZv6W6_s1fAFxk5db7n0XxvB0tnCotyacP150Pbp6BpkPdy2JMfW7VBYTQXc4GQQcR5bZsa503sT5CxNzwYS1xCVAYnoTmFNZpquVZjuQvuM4L-T3H9wl_JfpAhtLA2SGt_iSqjqu7Vnotua2pY5LsyWvqRrWtVlFF2Jeunrt8PDtOS0vuM4-aZHyEasCaxk2uIpGHydFw5_Zb6f9-FF3FNSJ_zcQ7POIkwJmFQ73sXQ46AX9eZhLu1hbeeZUu-z4Q2o72M2aFiah4YoGzzvfU1O7s5qVxD8aKWGWjWPQCkk4QUctZvBHJfwabGPdSb1yNJJMe_whtsKRAHiYVGxSQHYTWd3A7AMdaC_jli-fuzmnHU5bHDqupzqw1_HnyInXiYSFq83JtgzpxqU-FiBlpKQ5oTVBkv6ur_lnnTZAy6dmVNPpJGKuD1bZX0fBreCqtAReSros1wOvnDbEIpPZlPrX9HcsxwAMQGV26w4RZp07MV6IutooImPw3SK9XlvlLDHcFQrwRx5priNkQym317U3RPTBs9JN8sURK2oEWM_F5jpf2OdJdFaHOqE1M4SfKdJVKtG9kwQKhycH0ubhDVTFnuy6Wvtx6j9z1t1o3cQunmIb6eu5o8H4pkJPnyEDwaKZaaZWc9yrqnSTAOEFL1mSDy46s_4aNx_m00]--></g></svg>