<?xml version="1.0" encoding="UTF-8" standalone="no"?><svg xmlns="http://www.w3.org/2000/svg" xmlns:xlink="http://www.w3.org/1999/xlink" contentScriptType="application/ecmascript" contentStyleType="text/css" height="956px" preserveAspectRatio="none" style="width:650px;height:956px;background:#FFFFFF;" version="1.1" viewBox="0 0 650 956" width="650px" zoomAndPan="magnify"><defs/><g><rect fill="none" height="954.1" style="stroke:#FFFFFF;stroke-width:1.0;" width="648.75" x="0" y="0"/><rect fill="#FFFFFF" height="19.6" style="stroke:#FFFFFF;stroke-width:1.0;" width="617.75" x="15" y="11"/><ellipse cx="301.75" cy="45.6" fill="#08427B" rx="10" ry="10" style="stroke:none;stroke-width:1.0;"/><polygon fill="#E18114" points="273.75,75.6,329.75,75.6,341.75,87.6,329.75,99.6,273.75,99.6,261.75,87.6,273.75,75.6" style="stroke:#E18114;stroke-width:1.5;"/><text fill="#FFFFFF" font-family="Roboto" font-size="13" lengthAdjust="spacing" textLength="52" x="275.75" y="92.8">condition</text><text fill="#E91E63" font-family="Roboto" font-size="11" lengthAdjust="spacing" textLength="18" x="241.75" y="83.4">one</text><text fill="#E91E63" font-family="Roboto" font-size="11" lengthAdjust="spacing" textLength="17" x="343.75" y="83.4">two</text><rect fill="#FFFCFF" height="240.3999" style="stroke:#A0439C;stroke-width:2.0;" width="282" x="21" y="119.6"/><path d="M83,119.6 L83,132.2 L73,142.2 L21,142.2 " fill="none" style="stroke:#A0439C;stroke-width:2.0;"/><text fill="#A0439C" font-family="Roboto" font-size="13" lengthAdjust="spacing" textLength="48" x="26" y="135.6">Partition</text><polygon fill="#E18114" points="51.5,179.2,83.5,179.2,95.5,191.2,83.5,203.2,51.5,203.2,39.5,191.2,51.5,179.2" style="stroke:#E18114;stroke-width:1.5;"/><text fill="#E91E63" font-family="Roboto" font-size="11" lengthAdjust="spacing" textLength="16" x="73.5" y="216.1999">yes</text><text fill="#FFFFFF" font-family="Roboto" font-size="13" lengthAdjust="spacing" textLength="28" x="53.5" y="196.4">first?</text><rect fill="#1168BD" height="39.6" rx="12.5" ry="12.5" style="stroke:#FFFFFF;stroke-width:1.5;" width="73" x="31" y="240.3999"/><text fill="#FFFFFF" font-family="Roboto" font-size="13" lengthAdjust="spacing" textLength="49" x="43" y="265.3999">Action A</text><polygon fill="#E18114" points="136,179.2,188,179.2,200,191.2,188,203.2,136,203.2,124,191.2,136,179.2" style="stroke:#E18114;stroke-width:1.5;"/><text fill="#E91E63" font-family="Roboto" font-size="11" lengthAdjust="spacing" textLength="16" x="168" y="216.1999">yes</text><text fill="#FFFFFF" font-family="Roboto" font-size="13" lengthAdjust="spacing" textLength="48" x="138" y="196.4">second?</text><text fill="#E91E63" font-family="Roboto" font-size="11" lengthAdjust="spacing" textLength="12" x="202" y="187">no</text><rect fill="#1168BD" height="39.6" rx="12.5" ry="12.5" style="stroke:#FFFFFF;stroke-width:1.5;" width="73" x="125.5" y="240.3999"/><text fill="#FFFFFF" font-family="Roboto" font-size="13" lengthAdjust="spacing" textLength="49" x="137.5" y="265.3999">Action B</text><rect fill="#1168BD" height="39.6" rx="12.5" ry="12.5" style="stroke:#FFFFFF;stroke-width:1.5;" width="73" x="220" y="234.8"/><text fill="#FFFFFF" font-family="Roboto" font-size="13" lengthAdjust="spacing" textLength="49" x="232" y="259.8">Action C</text><path d="M214.5,471.9999 L214.5,482.7999 L194.5,486.7999 L214.5,490.7999 L214.5,501.6 A0,0 0 0 0 214.5,501.6 L266.5,501.6 A0,0 0 0 0 266.5,501.6 L266.5,481.9999 L256.5,471.9999 L214.5,471.9999 A0,0 0 0 0 214.5,471.9999 " fill="#999999" style="stroke:#FFFFFF;stroke-width:1.0;"/><path d="M256.5,471.9999 L256.5,481.9999 L266.5,481.9999 L256.5,471.9999 " fill="#999999" style="stroke:#FFFFFF;stroke-width:1.0;"/><text fill="#FFFFFF" font-family="Roboto" font-size="13" lengthAdjust="spacing" textLength="27" x="222.5" y="492">Note</text><rect fill="#1168BD" height="39.6" rx="12.5" ry="12.5" style="stroke:#FFFFFF;stroke-width:1.5;" width="65" x="129.5" y="466.9999"/><text fill="#FFFFFF" font-family="Roboto" font-size="13" lengthAdjust="spacing" textLength="41" x="141.5" y="492">Repeat</text><polygon fill="#E18114" points="162,394.9999,174,406.9999,162,418.9999,150,406.9999,162,394.9999" style="stroke:#E18114;stroke-width:1.5;"/><polygon fill="#E18114" points="140,547.8001,184,547.8001,196,559.8001,184,571.8001,140,571.8001,128,559.8001,140,547.8001" style="stroke:#E18114;stroke-width:1.5;"/><text fill="#E91E63" font-family="Roboto" font-size="11" lengthAdjust="spacing" textLength="12" x="168" y="584.8">no</text><text fill="#FFFFFF" font-family="Roboto" font-size="13" lengthAdjust="spacing" textLength="40" x="142" y="565.0001">Again?</text><text fill="#E91E63" font-family="Roboto" font-size="11" lengthAdjust="spacing" textLength="16" x="198" y="555.6001">yes</text><rect fill="#E18114" height="6" rx="2.5" ry="2.5" style="stroke:#E18114;stroke-width:1.0;" width="214" x="55" y="606.8001"/><rect fill="#1168BD" height="39.6" rx="12.5" ry="12.5" style="stroke:#FFFFFF;stroke-width:1.5;" width="79" x="69" y="632.8001"/><text fill="#FFFFFF" font-family="Roboto" font-size="13" lengthAdjust="spacing" textLength="55" x="81" y="657.8001">Parallel X</text><rect fill="#1168BD" height="39.6" rx="12.5" ry="12.5" style="stroke:#FFFFFF;stroke-width:1.5;" width="79" x="176" y="632.8001"/><text fill="#FFFFFF" font-family="Roboto" font-size="13" lengthAdjust="spacing" textLength="55" x="188" y="657.8001">Parallel Y</text><polygon fill="#E18114" points="162,692.4001,174,704.4001,162,716.4001,150,704.4001,162,692.4001" style="stroke:#E18114;stroke-width:1.5;"/><polygon fill="#E18114" points="140.5,751.4001,183.5,751.4001,195.5,763.4001,183.5,775.4001,140.5,775.4001,128.5,763.4001,140.5,751.4001" style="stroke:#E18114;stroke-width:1.5;"/><text fill="#FFFFFF" font-family="Roboto" font-size="13" lengthAdjust="spacing" textLength="39" x="142.5" y="768.6001">Switch</text><rect fill="#1168BD" height="39.6" rx="12.5" ry="12.5" style="stroke:#FFFFFF;stroke-width:1.5;" width="67" x="35.5" y="818.5"/><text fill="#FFFFFF" font-family="Roboto" font-size="13" lengthAdjust="spacing" textLength="43" x="47.5" y="843.5">Action i</text><rect fill="#1168BD" height="39.6" rx="12.5" ry="12.5" style="stroke:#FFFFFF;stroke-width:1.5;" width="70" x="123" y="818.5"/><text fill="#FFFFFF" font-family="Roboto" font-size="13" lengthAdjust="spacing" textLength="46" x="135" y="843.5">Action ii</text><rect fill="#1168BD" height="39.6" rx="12.5" ry="12.5" style="stroke:#FFFFFF;stroke-width:1.5;" width="73" x="214" y="818.5"/><text fill="#FFFFFF" font-family="Roboto" font-size="13" lengthAdjust="spacing" textLength="49" x="226" y="843.5">Action iii</text><polygon fill="#E18114" points="162,878.1,162,878.1,174,890.1,162,902.1,162,902.1,150,890.1,162,878.1" style="stroke:#E18114;stroke-width:1.5;"/><ellipse cx="301.75" cy="933.1" fill="#FFFFFF" rx="11" ry="11" style="stroke:#08427B;stroke-width:1.0;"/><ellipse cx="301.75" cy="933.1" fill="#08427B" rx="6" ry="6" style="stroke:#83A0BD;stroke-width:1.0;"/><line style="stroke:#41AF46;stroke-width:2.0;" x1="15" x2="15" y1="11" y2="944.1"/><polygon fill="#1168BD" points="438.25,119.6,501.25,119.6,491.25,139.4,501.25,159.2,438.25,159.2" style="stroke:#FFFFFF;stroke-width:1.5;"/><text fill="#FFFFFF" font-family="Roboto" font-size="13" lengthAdjust="spacing" textLength="29" x="450.25" y="144.6">Input</text><path d="M526.25,189.2 L526.25,244.4001 L625.25,244.4001 L625.25,199.2 L615.25,189.2 L526.25,189.2 " fill="#999999" style="stroke:#FFFFFF;stroke-width:1.0;"/><path d="M615.25,189.2 L615.25,199.2 L625.25,199.2 L615.25,189.2 " fill="#999999" style="stroke:#FFFFFF;stroke-width:1.0;"/><text fill="#FFFFFF" font-family="Roboto" font-size="13" lengthAdjust="spacing" textLength="74" x="534.25" y="209.2">Floating note</text><line style="stroke:#FFFFFF;stroke-width:1.0;" x1="526.25" x2="625.25" y1="216.8" y2="216.8"/><text fill="#FFFFFF" font-family="Roboto" font-size="13" lengthAdjust="spacing" textLength="67" x="537.75" y="234.8001">Second line</text><polygon fill="#1168BD" points="433.25,197,496.25,197,506.25,216.8,496.25,236.6,433.25,236.6" style="stroke:#FFFFFF;stroke-width:1.5;"/><text fill="#FFFFFF" font-family="Roboto" font-size="13" lengthAdjust="spacing" textLength="39" x="445.25" y="222">Output</text><rect fill="#1168BD" height="39.6" style="stroke:#FFFFFF;stroke-width:1.5;" width="57" x="436.25" y="279.4001"/><line style="stroke:#FFFFFF;stroke-width:1.5;" x1="441.25" x2="441.25" y1="279.4001" y2="319.0001"/><line style="stroke:#FFFFFF;stroke-width:1.5;" x1="488.25" x2="488.25" y1="279.4001" y2="319.0001"/><text fill="#FFFFFF" font-family="Roboto" font-size="13" lengthAdjust="spacing" textLength="33" x="448.25" y="304.4001">Block</text><rect fill="#1168BD" height="39.6" style="stroke:#FFFFFF;stroke-width:1.5;" width="82" x="423.75" y="339.0001"/><text fill="#FFFFFF" font-family="Roboto" font-size="13" lengthAdjust="spacing" textLength="58" x="435.75" y="364.0001">Rectangle</text><polygon fill="#1168BD" points="436.25,413.6001,503.25,413.6001,493.25,453.2001,426.25,453.2001" style="stroke:#FFFFFF;stroke-width:1.5;"/><text fill="#FFFFFF" font-family="Roboto" font-size="13" lengthAdjust="spacing" textLength="53" x="438.25" y="438.6001">Parallel 1</text><polygon fill="#1168BD" points="426.25,488.2001,493.25,488.2001,503.25,527.8001,436.25,527.8001" style="stroke:#FFFFFF;stroke-width:1.5;"/><text fill="#FFFFFF" font-family="Roboto" font-size="13" lengthAdjust="spacing" textLength="53" x="438.25" y="513.2001">Parallel 2</text><path d="M432.25,556.0003 L427.25,575.8003 L432.25,595.6003 M497.25,556.0003 L502.25,575.8003 L497.25,595.6003 " fill="#1168BD" style="stroke:#FFFFFF;stroke-width:1.5;"/><text fill="#FFFFFF" font-family="Roboto" font-size="13" lengthAdjust="spacing" textLength="51" x="439.25" y="581.0003">Brackets</text><line style="stroke:#E91E63;stroke-width:1.5;" x1="392.75" x2="536.75" y1="630.6003" y2="630.6003"/><rect fill="#1168BD" height="39.6" rx="12.5" ry="12.5" style="stroke:#FFFFFF;stroke-width:1.5;" width="42" x="371.75" y="679.6003"/><text fill="#FFFFFF" font-family="Roboto" font-size="13" lengthAdjust="spacing" textLength="18" x="383.75" y="704.6003">Kill</text><rect fill="#1168BD" height="39.6" rx="12.5" ry="12.5" style="stroke:#FFFFFF;stroke-width:1.5;" width="46" x="430.25" y="652.1003"/><text fill="#FFFFFF" font-family="Roboto" font-size="13" lengthAdjust="spacing" textLength="22" x="442.25" y="677.1003">End</text><ellipse cx="453.25" cy="736.7003" fill="#FFFFFF" rx="10" ry="10" style="stroke:#08427B;stroke-width:1.5;"/><line style="stroke:#08427B;stroke-width:2.5;" x1="447.0628" x2="459.4372" y1="730.5131" y2="742.8875"/><line style="stroke:#08427B;stroke-width:2.5;" x1="459.4372" x2="447.0628" y1="730.5131" y2="742.8875"/><rect fill="#1168BD" height="39.6" rx="12.5" ry="12.5" style="stroke:#FFFFFF;stroke-width:1.5;" width="65" x="504.25" y="652.1003"/><text fill="#FFFFFF" font-family="Roboto" font-size="13" lengthAdjust="spacing" textLength="41" x="516.25" y="677.1003">Detach</text><ellipse cx="536.75" cy="736.7003" fill="#1168BD" rx="10" ry="10" style="stroke:#FFFFFF;stroke-width:1.5;"/><path d="M540.3281,732.2159 L540.3281,733.3097 L534.6563,740.6378 L540.3594,740.6378 L540.3594,741.7003 L533.1406,741.7003 L533.1406,740.6378 L538.8281,733.294 L533.5,733.294 L533.5,732.2159 L540.3281,732.2159 Z " fill="#FFFFFF"/><line style="stroke:#41AF46;stroke-width:2.0;" x1="365.75" x2="365.75" y1="11" y2="944.1"/><line style="stroke:#41AF46;stroke-width:2.0;" x1="630.25" x2="630.25" y1="11" y2="944.1"/><line style="stroke:#E91E63;stroke-width:1.5;" x1="67.5" x2="67.5" y1="203.2" y2="240.3999"/><polygon fill="#E91E63" points="63.5,230.3999,67.5,240.3999,71.5,230.3999,67.5,234.3999" style="stroke:#E91E63;stroke-width:1.0;"/><line style="stroke:#E91E63;stroke-width:1.5;" x1="67.5" x2="67.5" y1="279.9999" y2="339.9999"/><polygon fill="#E91E63" points="63.5,329.9999,67.5,339.9999,71.5,329.9999,67.5,333.9999" style="stroke:#E91E63;stroke-width:1.0;"/><line style="stroke:#E91E63;stroke-width:1.5;" x1="162" x2="162" y1="203.2" y2="240.3999"/><polygon fill="#E91E63" points="158,230.3999,162,240.3999,166,230.3999,162,234.3999" style="stroke:#E91E63;stroke-width:1.0;"/><line style="stroke:#E91E63;stroke-width:1.5;" x1="162" x2="162" y1="279.9999" y2="394.9999"/><polygon fill="#E91E63" points="158,384.9999,162,394.9999,166,384.9999,162,388.9999" style="stroke:#E91E63;stroke-width:1.0;"/><line style="stroke:#E91E63;stroke-width:1.5;" x1="95.5" x2="124" y1="191.2" y2="191.2"/><polygon fill="#E91E63" points="114,187.2,124,191.2,114,195.2,118,191.2" style="stroke:#E91E63;stroke-width:1.0;"/><line style="stroke:#E91E63;stroke-width:1.5;" x1="261.75" x2="67.5" y1="87.6" y2="87.6"/><line style="stroke:#E91E63;stroke-width:1.5;" x1="67.5" x2="67.5" y1="87.6" y2="179.2"/><polygon fill="#E91E63" points="63.5,169.2,67.5,179.2,71.5,169.2,67.5,173.2" style="stroke:#E91E63;stroke-width:1.0;"/><line style="stroke:#E91E63;stroke-width:1.5;" x1="200" x2="256.5" y1="191.2" y2="191.2"/><line style="stroke:#E91E63;stroke-width:1.5;" x1="256.5" x2="256.5" y1="191.2" y2="234.8"/><polygon fill="#E91E63" points="252.5,224.8,256.5,234.8,260.5,224.8,256.5,228.8" style="stroke:#E91E63;stroke-width:1.0;"/><line style="stroke:#E91E63;stroke-width:1.5;" x1="256.5" x2="256.5" y1="274.4" y2="339.9999"/><polygon fill="#E91E63" points="252.5,329.9999,256.5,339.9999,260.5,329.9999,256.5,333.9999" style="stroke:#E91E63;stroke-width:1.0;"/><line style="stroke:#E91E63;stroke-width:1.5;" x1="67.5" x2="256.5" y1="339.9999" y2="339.9999"/><line style="stroke:#E91E63;stroke-width:1.5;" x1="162" x2="162" y1="418.9999" y2="466.9999"/><polygon fill="#E91E63" points="158,456.9999,162,466.9999,166,456.9999,162,460.9999" style="stroke:#E91E63;stroke-width:1.0;"/><line style="stroke:#E91E63;stroke-width:1.5;" x1="196" x2="278.5" y1="559.8001" y2="559.8001"/><polygon fill="#E91E63" points="274.5,496.7999,278.5,486.7999,282.5,496.7999,278.5,492.7999" style="stroke:#E91E63;stroke-width:1.5;"/><line style="stroke:#E91E63;stroke-width:1.5;" x1="278.5" x2="278.5" y1="406.9999" y2="559.8001"/><line style="stroke:#E91E63;stroke-width:1.5;" x1="278.5" x2="174" y1="406.9999" y2="406.9999"/><polygon fill="#E91E63" points="184,402.9999,174,406.9999,184,410.9999,180,406.9999" style="stroke:#E91E63;stroke-width:1.0;"/><line style="stroke:#E91E63;stroke-width:1.5;" x1="162" x2="162" y1="506.6" y2="547.8001"/><polygon fill="#E91E63" points="158,537.8001,162,547.8001,166,537.8001,162,541.8001" style="stroke:#E91E63;stroke-width:1.0;"/><line style="stroke:#E91E63;stroke-width:1.5;" x1="108.5" x2="108.5" y1="612.8001" y2="632.8001"/><polygon fill="#E91E63" points="104.5,622.8001,108.5,632.8001,112.5,622.8001,108.5,626.8001" style="stroke:#E91E63;stroke-width:1.0;"/><line style="stroke:#E91E63;stroke-width:1.5;" x1="215.5" x2="215.5" y1="612.8001" y2="632.8001"/><polygon fill="#E91E63" points="211.5,622.8001,215.5,632.8001,219.5,622.8001,215.5,626.8001" style="stroke:#E91E63;stroke-width:1.0;"/><line style="stroke:#E91E63;stroke-width:1.5;" x1="108.5" x2="108.5" y1="672.4001" y2="704.4001"/><line style="stroke:#E91E63;stroke-width:1.5;" x1="108.5" x2="150" y1="704.4001" y2="704.4001"/><polygon fill="#E91E63" points="140,700.4001,150,704.4001,140,708.4001,144,704.4001" style="stroke:#E91E63;stroke-width:1.0;"/><line style="stroke:#E91E63;stroke-width:1.5;" x1="215.5" x2="215.5" y1="672.4001" y2="704.4001"/><line style="stroke:#E91E63;stroke-width:1.5;" x1="215.5" x2="174" y1="704.4001" y2="704.4001"/><polygon fill="#E91E63" points="184,700.4001,174,704.4001,184,708.4001,180,704.4001" style="stroke:#E91E63;stroke-width:1.0;"/><line style="stroke:#E91E63;stroke-width:1.5;" x1="162" x2="162" y1="571.8001" y2="606.8001"/><polygon fill="#E91E63" points="158,596.8001,162,606.8001,166,596.8001,162,600.8001" style="stroke:#E91E63;stroke-width:1.0;"/><line style="stroke:#E91E63;stroke-width:1.5;" x1="128.5" x2="69" y1="763.4001" y2="763.4001"/><line style="stroke:#E91E63;stroke-width:1.5;" x1="69" x2="69" y1="763.4001" y2="818.5"/><polygon fill="#E91E63" points="65,808.5,69,818.5,73,808.5,69,812.5" style="stroke:#E91E63;stroke-width:1.0;"/><text fill="#E91E63" font-family="Roboto" font-size="11" lengthAdjust="spacing" textLength="30" x="71" y="796">Case i</text><line style="stroke:#E91E63;stroke-width:1.5;" x1="195.5" x2="250.5" y1="763.4001" y2="763.4001"/><line style="stroke:#E91E63;stroke-width:1.5;" x1="250.5" x2="250.5" y1="763.4001" y2="818.5"/><polygon fill="#E91E63" points="246.5,808.5,250.5,818.5,254.5,808.5,250.5,812.5" style="stroke:#E91E63;stroke-width:1.0;"/><text fill="#E91E63" font-family="Roboto" font-size="11" lengthAdjust="spacing" textLength="34" x="252.5" y="796">Case iii</text><line style="stroke:#E91E63;stroke-width:1.5;" x1="162" x2="162" y1="775.4001" y2="790.2001"/><line style="stroke:#E91E63;stroke-width:1.5;" x1="162" x2="158" y1="790.2001" y2="790.2001"/><line style="stroke:#E91E63;stroke-width:1.5;" x1="158" x2="158" y1="790.2001" y2="818.5"/><polygon fill="#E91E63" points="154,808.5,158,818.5,162,808.5,158,812.5" style="stroke:#E91E63;stroke-width:1.0;"/><text fill="#E91E63" font-family="Roboto" font-size="11" lengthAdjust="spacing" textLength="32" x="160" y="797">Case ii</text><line style="stroke:#E91E63;stroke-width:1.5;" x1="69" x2="69" y1="858.1" y2="890.1"/><line style="stroke:#E91E63;stroke-width:1.5;" x1="69" x2="150" y1="890.1" y2="890.1"/><polygon fill="#E91E63" points="140,886.1,150,890.1,140,894.1,144,890.1" style="stroke:#E91E63;stroke-width:1.0;"/><line style="stroke:#E91E63;stroke-width:1.5;" x1="250.5" x2="250.5" y1="858.1" y2="890.1"/><line style="stroke:#E91E63;stroke-width:1.5;" x1="250.5" x2="174" y1="890.1" y2="890.1"/><polygon fill="#E91E63" points="184,886.1,174,890.1,184,894.1,180,890.1" style="stroke:#E91E63;stroke-width:1.0;"/><line style="stroke:#E91E63;stroke-width:1.5;" x1="158" x2="158" y1="858.1" y2="863.1"/><line style="stroke:#E91E63;stroke-width:1.5;" x1="158" x2="162" y1="863.1" y2="863.1"/><line style="stroke:#E91E63;stroke-width:1.5;" x1="162" x2="162" y1="863.1" y2="878.1"/><polygon fill="#E91E63" points="158,868.1,162,878.1,166,868.1,162,872.1" style="stroke:#E91E63;stroke-width:1.0;"/><line style="stroke:#E91E63;stroke-width:1.5;" x1="162" x2="162" y1="716.4001" y2="751.4001"/><polygon fill="#E91E63" points="158,741.4001,162,751.4001,166,741.4001,162,745.4001" style="stroke:#E91E63;stroke-width:1.0;"/><line style="stroke:#E91E63;stroke-width:1.5;" x1="162" x2="162" y1="902.1" y2="907.1"/><line style="stroke:#E91E63;stroke-width:1.5;" x1="162" x2="301.75" y1="907.1" y2="907.1"/><line style="stroke:#E91E63;stroke-width:1.5;" x1="301.75" x2="301.75" y1="907.1" y2="922.1"/><polygon fill="#E91E63" points="297.75,912.1,301.75,922.1,305.75,912.1,301.75,916.1" style="stroke:#E91E63;stroke-width:1.0;"/><line style="stroke:#E91E63;stroke-width:1.5;" x1="301.75" x2="301.75" y1="55.6" y2="75.6"/><polygon fill="#E91E63" points="297.75,65.6,301.75,75.6,305.75,65.6,301.75,69.6" style="stroke:#E91E63;stroke-width:1.0;"/><line style="stroke:#E91E63;stroke-width:1.5;" x1="464.75" x2="464.75" y1="159.2" y2="197"/><polygon fill="#E91E63" points="460.75,187,464.75,197,468.75,187,464.75,191" style="stroke:#E91E63;stroke-width:1.0;"/><line style="stroke:#E91E63;stroke-width:1.5;" x1="464.75" x2="464.75" y1="236.6" y2="279.4001"/><polygon fill="#E91E63" points="460.75,269.4001,464.75,279.4001,468.75,269.4001,464.75,273.4001" style="stroke:#E91E63;stroke-width:1.0;"/><line style="stroke:#E91E63;stroke-width:1.5;" x1="464.75" x2="464.75" y1="319.0001" y2="339.0001"/><polygon fill="#E91E63" points="460.75,329.0001,464.75,339.0001,468.75,329.0001,464.75,333.0001" style="stroke:#E91E63;stroke-width:1.0;"/><line style="stroke:#E91E63;stroke-width:1.5;" x1="464.75" x2="464.75" y1="378.6001" y2="413.6001"/><polygon fill="#E91E63" points="460.75,403.6001,464.75,413.6001,468.75,403.6001,464.75,407.6001" style="stroke:#E91E63;stroke-width:1.0;"/><line style="stroke:#E91E63;stroke-width:1.5;" x1="464.75" x2="464.75" y1="453.2001" y2="488.2001"/><polygon fill="#E91E63" points="460.75,478.2001,464.75,488.2001,468.75,478.2001,464.75,482.2001" style="stroke:#E91E63;stroke-width:1.0;"/><line style="stroke:#E91E63;stroke-width:1.5;" x1="464.75" x2="464.75" y1="527.8001" y2="556.0003"/><polygon fill="#E91E63" points="460.75,546.0003,464.75,556.0003,468.75,546.0003,464.75,550.0003" style="stroke:#E91E63;stroke-width:1.0;"/><line style="stroke:#E91E63;stroke-width:1.5;" x1="453.25" x2="453.25" y1="691.7003" y2="726.7003"/><polygon fill="#E91E63" points="449.25,716.7003,453.25,726.7003,457.25,716.7003,453.25,720.7003" style="stroke:#E91E63;stroke-width:1.0;"/><line style="stroke:#E91E63;stroke-width:1.5;" x1="536.75" x2="536.75" y1="691.7003" y2="726.7003"/><polygon fill="#E91E63" points="532.75,716.7003,536.75,726.7003,540.75,716.7003,536.75,720.7003" style="stroke:#E91E63;stroke-width:1.0;"/><line style="stroke:#E91E63;stroke-width:1.5;" x1="392.75" x2="392.75" y1="632.1003" y2="679.6003"/><polygon fill="#E91E63" points="388.75,669.6003,392.75,679.6003,396.75,669.6003,392.75,673.6003" style="stroke:#E91E63;stroke-width:1.0;"/><line style="stroke:#E91E63;stroke-width:1.5;" x1="453.25" x2="453.25" y1="632.1003" y2="652.1003"/><polygon fill="#E91E63" points="449.25,642.1003,453.25,652.1003,457.25,642.1003,453.25,646.1003" style="stroke:#E91E63;stroke-width:1.0;"/><line style="stroke:#E91E63;stroke-width:1.5;" x1="536.75" x2="536.75" y1="632.1003" y2="652.1003"/><polygon fill="#E91E63" points="532.75,642.1003,536.75,652.1003,540.75,642.1003,536.75,646.1003" style="stroke:#E91E63;stroke-width:1.0;"/><line style="stroke:#E91E63;stroke-width:1.5;" x1="464.75" x2="464.75" y1="595.6003" y2="630.6003"/><polygon fill="#E91E63" points="460.75,620.6003,464.75,630.6003,468.75,620.6003,464.75,624.6003" style="stroke:#E91E63;stroke-width:1.0;"/><line style="stroke:#E91E63;stroke-width:1.5;stroke-dasharray:1.0,3.0;" x1="341.75" x2="464.75" y1="87.6" y2="87.6"/><line style="stroke:#E91E63;stroke-width:1.5;stroke-dasharray:1.0,3.0;" x1="464.75" x2="464.75" y1="87.6" y2="119.6"/><polygon fill="#E91E63" points="460.75,109.6,464.75,119.6,468.75,109.6,464.75,113.6" style="stroke:#E91E63;stroke-width:1.0;"/><text fill="#41AF46" font-family="Roboto" font-size="13" lengthAdjust="spacing" textLength="66" x="157.375" y="26">Swimlane 1</text><text fill="#41AF46" font-family="Roboto" font-size="13" lengthAdjust="spacing" textLength="66" x="465" y="26">Swimlane 2</text><!--MD5=[bc43e50596bda3e101bd28541fe7ddd7]
@startuml
' Styling settings for PlantUML diagrams
' See http://plantuml.sourceforge.net for documentation
' To get a list of possible skinparam settings, run: plantuml -language

' COLORS
' ========================================

' general colors from own stylesheet
!$diagram_background_color = "#fff"
!$diagram_border_color = "#fff"
!$diagram_color = "#808080"
!$arrow_color = "#e91e63"
!$link_color = "#3498DB"

' make admonition colors available for elements
!$caution_color = "#a0439c"
!$caution_on_color = "#fff"
!$important_color = "#d32f2f"
!$important_on_color = "#fff"
!$note_color = "#217ee7"
!$note_on_color = "#fff"
!$tip_color = "#41af46"
!$tip_on_color = "#fff"
!$warning_color = "#e18114"
!$warning_on_color = "#fff"

' node_1, node_2 and note taken from C4 styling
!$node_1_main_color = "#08427b"
!$node_2_main_color = "#1168bd"
!$node_2_aux2_color = "#3498DB"
!$note_main_color = "#999"

' use admonition colors for other elements
!$logic_main_color = $warning_color
!$group_main_color = $caution_color
!$divider_main_color = $tip_color

!procedure $logic_style($var=1)
  $styling($var, $logic_main_color, $logic_main_color, $warning_on_color) 
!endprocedure

!procedure $group_style($var=4)
  $styling($var, $group_main_color, $group_main_color, $caution_on_color, "#FFFCFF") 
!endprocedure

!procedure $divider_style($var=1)
  $styling($var, $divider_main_color, $divider_main_color, $tip_on_color) 
!endprocedure

!procedure $node_1_style($var=1)
  $styling($var, $node_1_main_color, "#fff", "fff") 
!endprocedure

!procedure $node_2_style($var=1)
  $styling($var, $node_2_main_color, "#fff", "fff", $node_2_aux2_color) 
!endprocedure

!procedure $note_1_style($var=1)
  $styling($var, $note_main_color, "#fff", "fff") 
!endprocedure

' STYLE HELPERS
' ========================================

' get variation with color palette:
' $main: primary fill color, typically background
' $aux1, $aux2: add'l fill colors, typically border, alternative background
' $on1, $on2: text colors, typically main text, supplementary
' variations:
' 1) regular (default)
' 2) name reversed (label outside)
' 3) reverse background
' 4) light background
' 5) border box (loop, alt)
' 6) ...

!procedure $styling($var=1, $main, $aux1, $on1, $aux2="#ccc", $on2="#666")
  !if ($var=="2")
    BackgroundColor $main
    BorderColor $aux1
    FontColor $main
    StereotypeFontColor $main
  !elseif ($var=="3")
    BackgroundColor $aux1
    BorderColor $main
    FontColor $main
    StereotypeFontColor $main
  !elseif ($var==4)
    BackgroundColor $aux2
    BorderColor $aux1
    FontColor $main
  !elseif ($var=="5")
    BackgroundColor $main
    BorderColor $aux1
    FontColor $main
    HeaderFontColor $on1
  !elseif ($var=="6")
    BackgroundColor $on1
    BorderColor $aux1
    FontColor $main
    HeaderFontColor $on1
    HeaderBackgroundColor $aux1
  !elseif ($var==7)
    BackgroundColor $aux2
    BorderColor $main
    FontColor $main
  !else
    BackgroundColor $main
    BorderColor $aux1
    FontColor $on1
    StereotypeFontColor $on1
    HeaderBackgroundColor $on1
  !endif
  FontSize 13
!endprocedure

' GENERAL SETTINGS
' ========================================

!$body_font_family = "Roboto"
' each element can get its own FontName, FontSize, FontStyle; not added now

skinparam BackgroundColor $diagram_background_color
skinparam DiagramBorderColor $diagram_border_color
skinparam HyperlinkColor $link_color

'skinparam monochrome true
skinparam shadowing false
skinparam Handwritten false
skinparam Padding 2
'skinparam Roundcorner 5

' Setting a minimum width can make sequence diagram participants look more balanced
skinparam minClassWidth 100

skinparam Default {
  FontColor $doc_font_color
  FontName $body_font_family
  FontStyle normal
  TextAlignment center
}

skinparam Arrow {
  Color $arrow_color
  FontColor $arrow_color
}

skinparam Note {
  $note_1_style()
}

' USE CASE
' ========================================

skinparam Actor {
  $node_1_style(2)
  ' Make actors look like in C4
  Style awesome
}

skinparam Usecase {
  $node_2_style()
}

skinparam Package {
  $group_style()
}

' ACTIVITY
' ========================================

skinparam Activity {
  $node_2_style()

  StartColor $node_1_main_color
  EndColor $node_1_main_color
  BarColor $logic_main_color
}

skinparam ActivityDiamond {
  $logic_style()
}

skinparam Partition {
  $group_style()
}

skinparam Swimlane {
  $divider_style()
}

skinparam SwimlaneTitle {
  $divider_style(6)
}

' SEQUENCE
' ========================================

'Actor: see Use Case diagram above

skinparam Participant {
  $node_1_style()
'  Padding 40
}

skinparam Boundary {
  $node_1_style(3)
}

skinparam Control {
  $node_1_style(3)
}

skinparam Entity {
  $node_1_style(3)
}

skinparam Database {
  $node_1_style(2)
}

skinparam Collections {
  $node_1_style()
}

skinparam Queue {
  $node_1_style()
}

skinparam SequenceLifeline {
  $node_2_style(7)
}

skinparam SequenceDelay {
  $divider_style(2)
}

skinparam SequenceDivider {
  $divider_style()
}

skinparam SequenceGroup {
  $logic_style(5)
}

skinparam SequenceReference {
  $group_style(6)
  BorderThickness 1
}

skinparam SequenceBox {
  $group_style(4)
'  Padding 13
}

' ========================================
' ========================================


' DEPLOYMENT
' ========================================

' Actor: see Use case diagram
' Use case: see Use case diagram
' Package: see Use case diagram (fix?)
' Boundary: see Sequence diagram
' Control: see Sequence diagram
' Entity: see Sequence diagram
' Queue: see Sequence diagram

' Database: see Sequence diagram (fix?)
' Collections: see Sequence diagram (fix?)

skinparam Agent {
  $node_2_style()
}

skinparam Person {
  $node_1_style()
}

skinparam Artifact {
  $node_2_style()
}

skinparam Component {
  $node_2_style()
}

skinparam File {
  $node_2_style()
}

skinparam Card {
  $node_2_style()
}

skinparam Storage {
  $node_2_style()
}

skinparam Cloud {
  $group_style(4)
}

skinparam Frame {
  $group_style()
}

skinparam Node {
  $group_style()
}

' check lighter background
skinparam Stack {
  $node_2_style()
}

' artefact or group?
skinparam Folder {
  $group_style()
}

skinparam Hexagon {
  $logic_style()
}

skinparam Interface {
  $logic_style(3)
}

skinparam Object {
  $node_2_style()
'  AttributeFontColor $arrow_color
'  EndColor $arrow_color
'  StartColor $arrow_color
}

skinparam Rectangle {
  $logic_style()
}

' Used in C4 models:
skinparam Rectangle<<boundary>> {
  $logic_style(6)
}

skinparam State {
  $node_2_style()
'  AttributeFontColor $arrow_color
'  EndColor $arrow_color
'  StartColor $arrow_color
}
|Swimlane 1|
start

  if (condition) then (one)
  partition "Partition" {
    if (first?) then (yes)
      :Action A;
    elseif (second?) then (yes)
      :Action B;
    else (no)
      :Action C;
    endif
  }
  
  repeat
    :Repeat;
    note right: Note
  repeat while (Again?) is (yes) not (no)

  fork
    :Parallel X;
  fork again
    :Parallel Y;
  end merge
  
  switch (Switch)
  case (Case i)
    :Action i;
  case (Case ii)
    :Action ii;
  case (Case iii)
    :Action iii;
  endswitch

else (two)
  -[dotted]->

  |Swimlane 2|
  :Input<
  :Output>
  floating note right
    Floating note
    - - - -
    Second line
  end note
  
  :Block|
  :Rectangle]
  :Parallel 1/
  :Parallel 2\\
  :Brackets}

  split
    :Kill;
    kill
  split again
    :End;
    end;
  split again
    :Detach;
    (Z)
    detach
  end split
endif

|Swimlane 1|  

stop
@enduml

@startuml

















skinparam BackgroundColor #fff
skinparam DiagramBorderColor #fff
skinparam HyperlinkColor #3498DB

skinparam shadowing false
skinparam Handwritten false
skinparam Padding 2

skinparam minClassWidth 100

skinparam Default {
  FontColor $doc_font_color
  FontName Roboto
  FontStyle normal
  TextAlignment center
}

skinparam Arrow {
  Color #e91e63
  FontColor #e91e63
}

skinparam Note {
      BackgroundColor #999
    BorderColor #fff
    FontColor fff
    StereotypeFontColor fff
    HeaderBackgroundColor fff
  FontSize 13 
}


skinparam Actor {
      BackgroundColor #08427b
    BorderColor #fff
    FontColor #08427b
    StereotypeFontColor #08427b
  FontSize 13 
  Style awesome
}

skinparam Usecase {
      BackgroundColor #1168bd
    BorderColor #fff
    FontColor fff
    StereotypeFontColor fff
    HeaderBackgroundColor fff
  FontSize 13 
}

skinparam Package {
      BackgroundColor #FFFCFF
    BorderColor #a0439c
    FontColor #a0439c
  FontSize 13 
}


skinparam Activity {
      BackgroundColor #1168bd
    BorderColor #fff
    FontColor fff
    StereotypeFontColor fff
    HeaderBackgroundColor fff
  FontSize 13 

  StartColor #08427b
  EndColor #08427b
  BarColor #e18114
}

skinparam ActivityDiamond {
      BackgroundColor #e18114
    BorderColor #e18114
    FontColor #fff
    StereotypeFontColor #fff
    HeaderBackgroundColor #fff
  FontSize 13 
}

skinparam Partition {
      BackgroundColor #FFFCFF
    BorderColor #a0439c
    FontColor #a0439c
  FontSize 13 
}

skinparam Swimlane {
      BackgroundColor #41af46
    BorderColor #41af46
    FontColor #fff
    StereotypeFontColor #fff
    HeaderBackgroundColor #fff
  FontSize 13 
}

skinparam SwimlaneTitle {
      BackgroundColor #fff
    BorderColor #41af46
    FontColor #41af46
    HeaderFontColor #fff
    HeaderBackgroundColor #41af46
  FontSize 13 
}



skinparam Participant {
      BackgroundColor #08427b
    BorderColor #fff
    FontColor fff
    StereotypeFontColor fff
    HeaderBackgroundColor fff
  FontSize 13 
}

skinparam Boundary {
      BackgroundColor #fff
    BorderColor #08427b
    FontColor #08427b
    StereotypeFontColor #08427b
  FontSize 13 
}

skinparam Control {
      BackgroundColor #fff
    BorderColor #08427b
    FontColor #08427b
    StereotypeFontColor #08427b
  FontSize 13 
}

skinparam Entity {
      BackgroundColor #fff
    BorderColor #08427b
    FontColor #08427b
    StereotypeFontColor #08427b
  FontSize 13 
}

skinparam Database {
      BackgroundColor #08427b
    BorderColor #fff
    FontColor #08427b
    StereotypeFontColor #08427b
  FontSize 13 
}

skinparam Collections {
      BackgroundColor #08427b
    BorderColor #fff
    FontColor fff
    StereotypeFontColor fff
    HeaderBackgroundColor fff
  FontSize 13 
}

skinparam Queue {
      BackgroundColor #08427b
    BorderColor #fff
    FontColor fff
    StereotypeFontColor fff
    HeaderBackgroundColor fff
  FontSize 13 
}

skinparam SequenceLifeline {
      BackgroundColor #3498DB
    BorderColor #1168bd
    FontColor #1168bd
  FontSize 13 
}

skinparam SequenceDelay {
      BackgroundColor #41af46
    BorderColor #41af46
    FontColor #41af46
    StereotypeFontColor #41af46
  FontSize 13 
}

skinparam SequenceDivider {
      BackgroundColor #41af46
    BorderColor #41af46
    FontColor #fff
    StereotypeFontColor #fff
    HeaderBackgroundColor #fff
  FontSize 13 
}

skinparam SequenceGroup {
      BackgroundColor #e18114
    BorderColor #e18114
    FontColor #e18114
    HeaderFontColor #fff
  FontSize 13 
}

skinparam SequenceReference {
      BackgroundColor #fff
    BorderColor #a0439c
    FontColor #a0439c
    HeaderFontColor #fff
    HeaderBackgroundColor #a0439c
  FontSize 13 
  BorderThickness 1
}

skinparam SequenceBox {
      BackgroundColor #FFFCFF
    BorderColor #a0439c
    FontColor #a0439c
  FontSize 13 
}






skinparam Agent {
      BackgroundColor #1168bd
    BorderColor #fff
    FontColor fff
    StereotypeFontColor fff
    HeaderBackgroundColor fff
  FontSize 13 
}

skinparam Person {
      BackgroundColor #08427b
    BorderColor #fff
    FontColor fff
    StereotypeFontColor fff
    HeaderBackgroundColor fff
  FontSize 13 
}

skinparam Artifact {
      BackgroundColor #1168bd
    BorderColor #fff
    FontColor fff
    StereotypeFontColor fff
    HeaderBackgroundColor fff
  FontSize 13 
}

skinparam Component {
      BackgroundColor #1168bd
    BorderColor #fff
    FontColor fff
    StereotypeFontColor fff
    HeaderBackgroundColor fff
  FontSize 13 
}

skinparam File {
      BackgroundColor #1168bd
    BorderColor #fff
    FontColor fff
    StereotypeFontColor fff
    HeaderBackgroundColor fff
  FontSize 13 
}

skinparam Card {
      BackgroundColor #1168bd
    BorderColor #fff
    FontColor fff
    StereotypeFontColor fff
    HeaderBackgroundColor fff
  FontSize 13 
}

skinparam Storage {
      BackgroundColor #1168bd
    BorderColor #fff
    FontColor fff
    StereotypeFontColor fff
    HeaderBackgroundColor fff
  FontSize 13 
}

skinparam Cloud {
      BackgroundColor #FFFCFF
    BorderColor #a0439c
    FontColor #a0439c
  FontSize 13 
}

skinparam Frame {
      BackgroundColor #FFFCFF
    BorderColor #a0439c
    FontColor #a0439c
  FontSize 13 
}

skinparam Node {
      BackgroundColor #FFFCFF
    BorderColor #a0439c
    FontColor #a0439c
  FontSize 13 
}

skinparam Stack {
      BackgroundColor #1168bd
    BorderColor #fff
    FontColor fff
    StereotypeFontColor fff
    HeaderBackgroundColor fff
  FontSize 13 
}

skinparam Folder {
      BackgroundColor #FFFCFF
    BorderColor #a0439c
    FontColor #a0439c
  FontSize 13 
}

skinparam Hexagon {
      BackgroundColor #e18114
    BorderColor #e18114
    FontColor #fff
    StereotypeFontColor #fff
    HeaderBackgroundColor #fff
  FontSize 13 
}

skinparam Interface {
      BackgroundColor #e18114
    BorderColor #e18114
    FontColor #e18114
    StereotypeFontColor #e18114
  FontSize 13 
}

skinparam Object {
      BackgroundColor #1168bd
    BorderColor #fff
    FontColor fff
    StereotypeFontColor fff
    HeaderBackgroundColor fff
  FontSize 13 
}

skinparam Rectangle {
      BackgroundColor #e18114
    BorderColor #e18114
    FontColor #fff
    StereotypeFontColor #fff
    HeaderBackgroundColor #fff
  FontSize 13 
}

skinparam Rectangle<<boundary>> {
      BackgroundColor #fff
    BorderColor #e18114
    FontColor #e18114
    HeaderFontColor #fff
    HeaderBackgroundColor #e18114
  FontSize 13 
}

skinparam State {
      BackgroundColor #1168bd
    BorderColor #fff
    FontColor fff
    StereotypeFontColor fff
    HeaderBackgroundColor fff
  FontSize 13 
}
|Swimlane 1|
start

  if (condition) then (one)
  partition "Partition" {
    if (first?) then (yes)
      :Action A;
    elseif (second?) then (yes)
      :Action B;
    else (no)
      :Action C;
    endif
  }
  
  repeat
    :Repeat;
    note right: Note
  repeat while (Again?) is (yes) not (no)

  fork
    :Parallel X;
  fork again
    :Parallel Y;
  end merge
  
  switch (Switch)
  case (Case i)
    :Action i;
  case (Case ii)
    :Action ii;
  case (Case iii)
    :Action iii;
  endswitch

else (two)
  -[dotted]->

  |Swimlane 2|
  :Input<
  :Output>
  floating note right
    Floating note
    - - - -
    Second line
  end note
  
  :Block|
  :Rectangle]
  :Parallel 1/
  :Parallel 2\\
  :Brackets}

  split
    :Kill;
    kill
  split again
    :End;
    end;
  split again
    :Detach;
    (Z)
    detach
  end split
endif

|Swimlane 1|  

stop
@enduml

PlantUML version 1.2021.16(Wed Dec 08 17:25:22 GMT 2021)
(GPL source distribution)
Java Runtime: OpenJDK Runtime Environment
JVM: OpenJDK 64-Bit Server VM
Default Encoding: UTF-8
Language: en
Country: US
--></g></svg>