<?xml version="1.0" encoding="us-ascii" standalone="no"?><svg xmlns="http://www.w3.org/2000/svg" xmlns:xlink="http://www.w3.org/1999/xlink" contentStyleType="text/css" height="634px" preserveAspectRatio="none" style="width:895px;height:634px;" version="1.1" viewBox="0 0 895 634" width="895px" zoomAndPan="magnify"><defs/><g><rect fill="none" height="632.0419" style="stroke:none;stroke-width:1.0;" width="893" x="0" y="0"/><!--cluster boundary1--><g id="cluster_boundary1"><rect fill="none" height="169.18" rx="2.5" ry="2.5" style="stroke:#444444;stroke-width:1.0;stroke-dasharray:7.0,7.0;" width="825" x="43" y="7"/><text fill="#444444" font-family="sans-serif" font-size="16" font-weight="bold" lengthAdjust="spacing" textLength="178" x="366.5" y="25.8516">Container_Boundary</text><text fill="#444444" font-family="sans-serif" font-size="12" font-weight="bold" lengthAdjust="spacing" textLength="80" x="415.5" y="40.7637">[Container]</text></g><!--cluster boundary2--><g id="cluster_boundary2"><rect fill="none" height="169.19" rx="2.5" ry="2.5" style="stroke:#444444;stroke-width:1.0;stroke-dasharray:7.0,7.0;" width="882" x="7" y="227.18"/><text fill="#444444" font-family="sans-serif" font-size="16" font-weight="bold" lengthAdjust="spacing" textLength="84" x="406" y="246.0316">Boundary</text><text fill="#444444" font-family="sans-serif" font-size="12" font-weight="bold" lengthAdjust="spacing" textLength="80" x="408" y="260.9437">[Container]</text></g><!--entity component1--><g id="elem_component1"><rect fill="#85BBF0" height="89.1875" rx="2.5" ry="2.5" style="stroke:#78A8D8;stroke-width:0.5;" width="164" x="346" y="66.5"/><text fill="#000000" font-family="sans-serif" font-size="16" font-weight="bold" lengthAdjust="spacing" textLength="102" x="377" y="93.3516">Component</text><text fill="#000000" font-family="sans-serif" font-size="12" font-style="italic" lengthAdjust="spacing" textLength="81" x="387.5" y="108.2637">[Technology]</text><text fill="#000000" font-family="sans-serif" font-size="14" lengthAdjust="spacing" textLength="4" x="426" y="124.0889">&#160;</text><text fill="#000000" font-family="sans-serif" font-size="14" lengthAdjust="spacing" textLength="57" x="358" y="140.3857">Optional</text><text fill="#000000" font-family="sans-serif" font-size="14" lengthAdjust="spacing" textLength="4" x="415" y="140.3857">&#160;</text><text fill="#000000" font-family="sans-serif" font-size="14" lengthAdjust="spacing" textLength="79" x="419" y="140.3857">Description</text></g><!--entity cqueue--><g id="elem_cqueue"><path d="M64,87.79 L238,87.79 C243,87.79 243,111.0869 243,111.0869 C243,111.0869 243,134.3838 238,134.3838 L64,134.3838 C59,134.3838 59,111.0869 59,111.0869 C59,111.0869 59,87.79 64,87.79 " fill="#85BBF0" style="stroke:#78A8D8;stroke-width:0.5;"/><path d="M238,87.79 C233,87.79 233,111.0869 233,111.0869 C233,134.3838 238,134.3838 238,134.3838 " fill="none" style="stroke:#78A8D8;stroke-width:0.5;"/><text fill="#000000" font-family="sans-serif" font-size="16" font-weight="bold" lengthAdjust="spacing" textLength="160" x="66" y="109.6416">ComponentQueue</text><text fill="#000000" font-family="sans-serif" font-size="12" font-style="italic" lengthAdjust="spacing" textLength="81" x="105.5" y="124.5537">[Technology]</text></g><!--entity cdb--><g id="elem_cdb"><path d="M688,72 C688,62 770,62 770,62 C770,62 852,62 852,72 L852,150.1875 C852,160.1875 770,160.1875 770,160.1875 C770,160.1875 688,160.1875 688,150.1875 L688,72 " fill="#85BBF0" style="stroke:#78A8D8;stroke-width:0.5;"/><path d="M688,72 C688,82 770,82 770,82 C770,82 852,82 852,72 " fill="none" style="stroke:#78A8D8;stroke-width:0.5;"/><text fill="#000000" font-family="sans-serif" font-size="16" font-weight="bold" lengthAdjust="spacing" textLength="126" x="707" y="102.8516">ComponentDb</text><text fill="#000000" font-family="sans-serif" font-size="12" font-style="italic" lengthAdjust="spacing" textLength="81" x="729.5" y="117.7637">[Technology]</text><text fill="#000000" font-family="sans-serif" font-size="14" lengthAdjust="spacing" textLength="4" x="768" y="133.5889">&#160;</text><text fill="#000000" font-family="sans-serif" font-size="14" lengthAdjust="spacing" textLength="57" x="700" y="149.8857">Optional</text><text fill="#000000" font-family="sans-serif" font-size="14" lengthAdjust="spacing" textLength="4" x="757" y="149.8857">&#160;</text><text fill="#000000" font-family="sans-serif" font-size="14" lengthAdjust="spacing" textLength="79" x="761" y="149.8857">Description</text></g><!--entity component2--><g id="elem_component2"><rect fill="#CCCCCC" height="89.1875" rx="2.5" ry="2.5" style="stroke:#BFBFBF;stroke-width:0.5;" width="164" x="346" y="286.68"/><text fill="#000000" font-family="sans-serif" font-size="16" font-weight="bold" lengthAdjust="spacing" textLength="138" x="359" y="313.5316">Component_Ext</text><text fill="#000000" font-family="sans-serif" font-size="12" font-style="italic" lengthAdjust="spacing" textLength="81" x="387.5" y="328.4437">[Technology]</text><text fill="#000000" font-family="sans-serif" font-size="14" lengthAdjust="spacing" textLength="4" x="426" y="344.2689">&#160;</text><text fill="#000000" font-family="sans-serif" font-size="14" lengthAdjust="spacing" textLength="57" x="358" y="360.5657">Optional</text><text fill="#000000" font-family="sans-serif" font-size="14" lengthAdjust="spacing" textLength="4" x="415" y="360.5657">&#160;</text><text fill="#000000" font-family="sans-serif" font-size="14" lengthAdjust="spacing" textLength="79" x="419" y="360.5657">Description</text></g><!--entity cqueue2--><g id="elem_cqueue2"><path d="M28,307.98 L238,307.98 C243,307.98 243,331.2769 243,331.2769 C243,331.2769 243,354.5738 238,354.5738 L28,354.5738 C23,354.5738 23,331.2769 23,331.2769 C23,331.2769 23,307.98 28,307.98 " fill="#CCCCCC" style="stroke:#BFBFBF;stroke-width:0.5;"/><path d="M238,307.98 C233,307.98 233,331.2769 233,331.2769 C233,354.5738 238,354.5738 238,354.5738 " fill="none" style="stroke:#BFBFBF;stroke-width:0.5;"/><text fill="#000000" font-family="sans-serif" font-size="16" font-weight="bold" lengthAdjust="spacing" textLength="196" x="30" y="329.8316">ComponentQueue_Ext</text><text fill="#000000" font-family="sans-serif" font-size="12" font-style="italic" lengthAdjust="spacing" textLength="81" x="87.5" y="344.7437">[Technology]</text></g><!--entity cdb2--><g id="elem_cdb2"><path d="M687,292.18 C687,282.18 780,282.18 780,282.18 C780,282.18 873,282.18 873,292.18 L873,370.3675 C873,380.3675 780,380.3675 780,380.3675 C780,380.3675 687,380.3675 687,370.3675 L687,292.18 " fill="#CCCCCC" style="stroke:#BFBFBF;stroke-width:0.5;"/><path d="M687,292.18 C687,302.18 780,302.18 780,302.18 C780,302.18 873,302.18 873,292.18 " fill="none" style="stroke:#BFBFBF;stroke-width:0.5;"/><text fill="#000000" font-family="sans-serif" font-size="16" font-weight="bold" lengthAdjust="spacing" textLength="162" x="699" y="323.0316">ComponentDb_Ext</text><text fill="#000000" font-family="sans-serif" font-size="12" font-style="italic" lengthAdjust="spacing" textLength="81" x="739.5" y="337.9437">[Technology]</text><text fill="#000000" font-family="sans-serif" font-size="14" lengthAdjust="spacing" textLength="4" x="778" y="353.7689">&#160;</text><text fill="#000000" font-family="sans-serif" font-size="14" lengthAdjust="spacing" textLength="57" x="710" y="370.0657">Optional</text><text fill="#000000" font-family="sans-serif" font-size="14" lengthAdjust="spacing" textLength="4" x="767" y="370.0657">&#160;</text><text fill="#000000" font-family="sans-serif" font-size="14" lengthAdjust="spacing" textLength="79" x="771" y="370.0657">Description</text></g><!--link component1 to cdb--><g id="link_component1_cdb"><path d="M510.35,111.09 C564.11,111.09 626.03,111.09 679.77,111.09 " fill="none" id="component1-to-cdb" style="stroke:#666666;stroke-width:1.0;"/><polygon fill="#666666" points="687.77,111.09,679.77,108.09,679.77,114.09,687.77,111.09" style="stroke:#666666;stroke-width:1.0;"/><text fill="#666666" font-family="sans-serif" font-size="12" font-weight="bold" lengthAdjust="spacing" textLength="37" x="580.5" y="89.2287">Rel_R</text><text fill="#666666" font-family="sans-serif" font-size="12" font-style="italic" lengthAdjust="spacing" textLength="57" x="530.5" y="103.1974">[Optional</text><text fill="#666666" font-family="sans-serif" font-size="12" font-style="italic" lengthAdjust="spacing" textLength="4" x="587.5" y="103.1974">&#160;</text><text fill="#666666" font-family="sans-serif" font-size="12" font-style="italic" lengthAdjust="spacing" textLength="76" x="591.5" y="103.1974">Technology]</text></g><!--link cqueue to component1--><g id="link_cqueue_component1"><path d="M251.24,111.09 C284.44,111.09 305.66,111.09 337.94,111.09 " fill="none" id="cqueue-component1" style="stroke:#666666;stroke-width:1.0;"/><polygon fill="#666666" points="243.24,111.09,251.24,114.09,251.24,108.09,243.24,111.09" style="stroke:#666666;stroke-width:1.0;"/><polygon fill="#666666" points="345.94,111.09,337.94,108.09,337.94,114.09,345.94,111.09" style="stroke:#666666;stroke-width:1.0;"/><text fill="#666666" font-family="sans-serif" font-size="12" font-weight="bold" lengthAdjust="spacing" textLength="35" x="277" y="89.2287">BiRel</text><text fill="#666666" font-family="sans-serif" font-size="12" font-style="italic" lengthAdjust="spacing" textLength="62" x="263.5" y="103.1974">[Optional]</text></g><!--link component2 to cdb2--><g id="link_component2_cdb2"><path d="M510.08,331.28 C562.9,331.28 623.68,331.28 678.59,331.28 " fill="none" id="component2-to-cdb2" style="stroke:#666666;stroke-width:1.0;"/><polygon fill="#666666" points="686.59,331.28,678.59,328.28,678.59,334.28,686.59,331.28" style="stroke:#666666;stroke-width:1.0;"/><text fill="#666666" font-family="sans-serif" font-size="12" font-weight="bold" lengthAdjust="spacing" textLength="37" x="580" y="309.4187">Rel_R</text><text fill="#666666" font-family="sans-serif" font-size="12" font-style="italic" lengthAdjust="spacing" textLength="57" x="530" y="323.3874">[Optional</text><text fill="#666666" font-family="sans-serif" font-size="12" font-style="italic" lengthAdjust="spacing" textLength="4" x="587" y="323.3874">&#160;</text><text fill="#666666" font-family="sans-serif" font-size="12" font-style="italic" lengthAdjust="spacing" textLength="76" x="591" y="323.3874">Technology]</text></g><!--link cqueue2 to component2--><g id="link_cqueue2_component2"><path d="M251.27,331.28 C285.14,331.28 305.82,331.28 337.5,331.28 " fill="none" id="cqueue2-component2" style="stroke:#666666;stroke-width:1.0;"/><polygon fill="#666666" points="243.27,331.28,251.27,334.28,251.27,328.28,243.27,331.28" style="stroke:#666666;stroke-width:1.0;"/><polygon fill="#666666" points="345.5,331.28,337.5,328.28,337.5,334.28,345.5,331.28" style="stroke:#666666;stroke-width:1.0;"/><text fill="#666666" font-family="sans-serif" font-size="12" font-weight="bold" lengthAdjust="spacing" textLength="35" x="277" y="309.4187">BiRel</text><text fill="#666666" font-family="sans-serif" font-size="12" font-style="italic" lengthAdjust="spacing" textLength="62" x="263.5" y="323.3874">[Optional]</text></g><!--link component1 to component2--><g id="link_component1_component2"><path d="M428,155.98 C428,193.93 428,240.52 428,278.46 " fill="none" id="component1-to-component2" style="stroke:#666666;stroke-width:1.0;"/><polygon fill="#666666" points="428,286.46,431,278.46,425,278.46,428,286.46" style="stroke:#666666;stroke-width:1.0;"/><text fill="#666666" font-family="sans-serif" font-size="12" font-weight="bold" lengthAdjust="spacing" textLength="22" x="431" y="206.3187">Rel</text></g><text fill="#000000" font-family="sans-serif" font-size="14" font-weight="bold" lengthAdjust="spacing" textLength="59" x="713" y="437.3651">Legend</text><text fill="#FFFFFF" font-family="sans-serif" font-size="14" lengthAdjust="spacing" textLength="4" x="772" y="437.3651">&#160;</text><rect fill="#08427B" height="20.2969" style="stroke:none;stroke-width:1.0;" width="151" x="711" y="442.6669"/><text fill="#FFFFFF" font-family="sans-serif" font-size="14" lengthAdjust="spacing" textLength="49" x="717" y="457.662">person</text><rect fill="#1168BD" height="20.2969" style="stroke:none;stroke-width:1.0;" width="151" x="711" y="462.9638"/><text fill="#FFFFFF" font-family="sans-serif" font-size="14" lengthAdjust="spacing" textLength="50" x="717" y="477.9589">system</text><rect fill="#438DD5" height="20.2969" style="stroke:none;stroke-width:1.0;" width="151" x="711" y="483.2606"/><text fill="#FFFFFF" font-family="sans-serif" font-size="14" lengthAdjust="spacing" textLength="65" x="717" y="498.2557">container</text><rect fill="#85BBF0" height="20.2969" style="stroke:none;stroke-width:1.0;" width="151" x="711" y="503.5575"/><text fill="#FFFFFF" font-family="sans-serif" font-size="14" lengthAdjust="spacing" textLength="80" x="717" y="518.5526">component</text><rect fill="#686868" height="20.2969" style="stroke:none;stroke-width:1.0;" width="151" x="711" y="523.8544"/><text fill="#FFFFFF" font-family="sans-serif" font-size="14" lengthAdjust="spacing" textLength="108" x="717" y="538.8495">external person</text><rect fill="#999999" height="20.2969" style="stroke:none;stroke-width:1.0;" width="151" x="711" y="544.1513"/><text fill="#FFFFFF" font-family="sans-serif" font-size="14" lengthAdjust="spacing" textLength="109" x="717" y="559.1464">external system</text><rect fill="#B3B3B3" height="20.2969" style="stroke:none;stroke-width:1.0;" width="151" x="711" y="564.4481"/><text fill="#FFFFFF" font-family="sans-serif" font-size="14" lengthAdjust="spacing" textLength="124" x="717" y="579.4432">external container</text><rect fill="#CCCCCC" height="20.2969" style="stroke:none;stroke-width:1.0;" width="151" x="711" y="584.745"/><text fill="#FFFFFF" font-family="sans-serif" font-size="14" lengthAdjust="spacing" textLength="139" x="717" y="599.7401">external component</text><line style="stroke:#FFFFFF;stroke-width:1.0;" x1="711" x2="862" y1="422.37" y2="422.37"/><line style="stroke:#FFFFFF;stroke-width:1.0;" x1="711" x2="862" y1="442.6669" y2="442.6669"/><line style="stroke:#FFFFFF;stroke-width:1.0;" x1="711" x2="862" y1="462.9638" y2="462.9638"/><line style="stroke:#FFFFFF;stroke-width:1.0;" x1="711" x2="862" y1="483.2606" y2="483.2606"/><line style="stroke:#FFFFFF;stroke-width:1.0;" x1="711" x2="862" y1="503.5575" y2="503.5575"/><line style="stroke:#FFFFFF;stroke-width:1.0;" x1="711" x2="862" y1="523.8544" y2="523.8544"/><line style="stroke:#FFFFFF;stroke-width:1.0;" x1="711" x2="862" y1="544.1513" y2="544.1513"/><line style="stroke:#FFFFFF;stroke-width:1.0;" x1="711" x2="862" y1="564.4481" y2="564.4481"/><line style="stroke:#FFFFFF;stroke-width:1.0;" x1="711" x2="862" y1="584.745" y2="584.745"/><line style="stroke:#FFFFFF;stroke-width:1.0;" x1="711" x2="862" y1="605.0419" y2="605.0419"/><line style="stroke:#FFFFFF;stroke-width:1.0;" x1="711" x2="711" y1="422.37" y2="605.0419"/><line style="stroke:#FFFFFF;stroke-width:1.0;" x1="862" x2="862" y1="422.37" y2="605.0419"/><!--SRC=[rLfjKziu4FwUNw7cEWFCK20cRO6-p009q1aA7D3ftATKiJU93jjA9PcGk-b_lvKS1ycE7SBHahOpnF6kTfzzrShE2hbIuv35VI91AVoKfCS5kGXfhBvyFYK1etr18rbR8LS0PA3KS6zpSwZ9IHHkI9u87t157pPYK6PjmFqaWbXHnNYCwwuvwIE9af19HNYF3BcKh1i2aJSi7b8KFrM-JaGIxv5CFdc55_s4zW7be6XV05M0egRuUWpbZ9WQaByJbFvjAX8K2FcjLdl1OZzC0Y3lLJAaWTZUxF5OlQ8Za3o2pKGYsySQYZyyFps_lCAB3m_yfnVr8GP1G-Bpa0jqdU0HuQEOI7Ggo060ghruYGxfQAKTmqK-aFeVErlwVns9L0W-iYYmsu0tsvg2KRcn2DlDtPtMGLrhZUWDEY68UCoqZpFjz9Qoa6h7wZ1023eAKki8eevF4yrh2QHRpUrTlvwZEoozNY-ZisZ8XQAE5S6sr_DcS9J9YBa2Y-8rtWAyTOXbAnKRMeHcW_QQRsnQsReH5J7cbUtVnawZqSpJY-lHpJ4FeDDOJpyzGkE0Q914eVlZDDQ7JHDg5842KtvBqDPEqtlRhT-JPi5CfLlt6uqtEzt08bMieicTDoD7DDrnzUxkxlJkJ5kn3cPabCuZhWRWP5F8-yoVYYYwUSfYAPhfR6Ji2vuCNIudKQSiULdvTDLbncvP0CBbcoQEnP2NPIUGziLn-wnzkNzAhjhNrv_EZXVh2IzUTdamJkkzHoCMZhMV9OtbAsmr3BszGe3wWyoZnAUnwOzCITCwZd3b6VQlTNDrnVx9hdHBUQSp40CLWCx5KQrstq8Fg7-ZVHK7XyOu9L0dab27nTLA-_a15-Y9AiQJyH24Ra4fazMDq4NtR9Wnt1zWAM1PY0Gi0N900pxIEqkFXjAcd60bZGHJIbTHZdQ1jkardgtaKblbSu6zbhosc3-pc4L9z9K5sFyRMrksErhGeqceoByrOjmtCSFjnHEQTZSfn6r2D7v7Puk8XdZh6kxKViZwSHey_0EYziFM7B8UeBVW2Xshe3ycaeSiq8aLS90cW18W8egJ4HStv9PHyjvi61_96DIUBGittUy9n3uSwoemnf12fEsAJ1ciw1Q89q2HQBd4BLRaSQp905n23uI-A0FXrcaHXrNgXcWXo9DIYFCr_9ZfgbPQvcKudJPHX5aaszcJwo0535ya-5HcFhh2t02ki98i6RccdXUnxokUOayJRpAew1IR90cIDjBzfCn4UoCo7AUOZcMqFBI66yDo6ngs0HachnAJLu79gy3aFHIJbyDaSlkXPMCXofEgogK4ZoiYXMCoMBUtoXgQYMXk-Sn7v8f84GMB5ei5QT5IAO6L5vC2ytbaEcnfEcNpJJ6P78gJ8TRqKvL8be0Kp6HAA0FZ3XevhOK9mnPgviaAgUN654PcH-varAeIxSviCwGNnZLRmMJ-gbBW3d8p51HcE5l1z3HHfI9tA9cbf7WgoTIOazT4kfK_re6i8CyX6I7OhZ5zrNWvsjw4ZGfLrktRvPl40HNbhGldHXprWkTifGvVoOWmQvOXrfxwz9lb8tRA_NvbOtk6VN9VADQZ_dA1Ej00g1ZF2PmZ_AV7xe3VBJ00Bx9_Fshy9UIGYc2fmdOOyYJuoJvA5V4m15_l8FBd3y8JZRYPnCjMl8T85ZnSgZ9fKKMxzmUX-O6PSmef0ix7fWKXpLh5lE5onHp2zU5RpqXuvZORtAyRX0s8TgpcpGs_Ecf7-c7wCgNs4GyhOl8y3VT8lrnOBaZEmo4UZ9zqF5jqDZE8Jk2EzikF1yizBdxIp_Hm789g-6LHVXgFFXBxwUJXumA7ol92DXBFyDvofVjPnQ7vAPuB62NdtRzXoGRY2qH1-_0hPgiBF48odmtfd5ddwMOhex7gaSBpvDe525cEwTUV7I-uKBzXM_epWGIAprfcF8FuNuEYqNM9TKlZVWY_sUvZM5VqAuI0i5Y_MexGm53k6S96rpqEFop-bSPLvi13NXGjaWOwE9C0NIdaNghEYeZKqsoPJuc9Yufk_pn-6h4efF6CIdxG4SYHvRugUpRxyjr3JjyYcXVb4tZ5DyrfiMATqkcIxCTIwqGDy4js10vf5qB29C4FFY9ChPlZ9x_5amrJxuoat7cvUhCmECsVYCL1H8SkrgeV0cXwV3_GFSJlrPwVwtlq7RspVFTwwzu6GhhyBWGfIytsPlMFKLUw5l_U5htVdBpNlV-fsc5pyx3PcJvk-bYhdUx_TVxbklFrq_L9vxHzt3vhhQxLQlhH3qLRH2TxMBgQRHEDTL8lakjuT_fSLHT4VSqWdQfQzREhLC3aYrvt3VuWHknz8-Lyg8Sr6f8MI5ymyws-PeioU_wg_rr_sBBC_Pn0Ps6hk-e7NNj9g_jW06O023kNZY6fE7FVMPf3SC0qowcxDCDlYFPgNFAZCWIUvUovZk-qxopdUxRrclJe0AHoZH5U8Gep9ESYaIuFkfuRZeKW5KFYcP1uZug9byN4AmyAtdI3QFjLhrZx3m00]--></g></svg>