<?xml version="1.0" encoding="UTF-8" standalone="no"?><svg xmlns="http://www.w3.org/2000/svg" xmlns:xlink="http://www.w3.org/1999/xlink" contentScriptType="application/ecmascript" contentStyleType="text/css" height="419px" preserveAspectRatio="none" style="width:474px;height:419px;background:#FFFFFF;" version="1.1" viewBox="0 0 474 419" width="474px" zoomAndPan="magnify"><defs><filter height="300%" id="f1wwmsy5mxyng0" width="300%" x="-1" y="-1"><feGaussianBlur result="blurOut" stdDeviation="2.0"/><feColorMatrix in="blurOut" result="blurOut2" type="matrix" values="0 0 0 0 0 0 0 0 0 0 0 0 0 0 0 0 0 0 .4 0"/><feOffset dx="4.0" dy="4.0" in="blurOut2" result="blurOut3"/><feBlend in="SourceGraphic" in2="blurOut3" mode="normal"/></filter></defs><g><rect fill="#1168BD" filter="url(#f1wwmsy5mxyng0)" height="36.7999" rx="12.5" ry="12.5" style="stroke:#1168BD;stroke-width:1.5;" width="85" x="10" y="190.3998"/><text fill="#FFFFFF" font-family="sans-serif" font-size="14" lengthAdjust="spacing" textLength="65" x="20" y="214.3997">C4 models</text><rect fill="#1168BD" filter="url(#f1wwmsy5mxyng0)" height="36.7999" rx="12.5" ry="12.5" style="stroke:#1168BD;stroke-width:1.5;" width="95" x="145" y="105.1999"/><text fill="#FFFFFF" font-family="sans-serif" font-size="14" lengthAdjust="spacing" textLength="75" x="155" y="129.1998">Root models</text><rect fill="#1168BD" filter="url(#f1wwmsy5mxyng0)" height="36.7999" rx="12.5" ry="12.5" style="stroke:#1168BD;stroke-width:1.5;" width="165" x="290" y="20"/><text fill="#FFFFFF" font-family="sans-serif" font-size="14" lengthAdjust="spacing" textLength="145" x="300" y="43.9999">Level 1, System context</text><path d="M240,123.5999 L250,123.5999 C265,123.5999 265,38.4 280,38.4 L290,38.4 " fill="none" style="stroke:#E91E63;stroke-width:1.0;"/><rect fill="#1168BD" filter="url(#f1wwmsy5mxyng0)" height="36.7999" rx="12.5" ry="12.5" style="stroke:#1168BD;stroke-width:1.5;" width="139" x="290" y="76.7999"/><text fill="#FFFFFF" font-family="sans-serif" font-size="14" lengthAdjust="spacing" textLength="119" x="300" y="100.7999">Level 2, Containers</text><path d="M240,123.5999 L250,123.5999 C265,123.5999 265,95.1999 280,95.1999 L290,95.1999 " fill="none" style="stroke:#E91E63;stroke-width:1.0;"/><rect fill="#1168BD" filter="url(#f1wwmsy5mxyng0)" height="36.7999" rx="12.5" ry="12.5" style="stroke:#1168BD;stroke-width:1.5;" width="149" x="290" y="133.5999"/><text fill="#FFFFFF" font-family="sans-serif" font-size="14" lengthAdjust="spacing" textLength="129" x="300" y="157.5998">Level 3, Components</text><path d="M240,123.5999 L250,123.5999 C265,123.5999 265,151.9998 280,151.9998 L290,151.9998 " fill="none" style="stroke:#E91E63;stroke-width:1.0;"/><rect fill="#1168BD" filter="url(#f1wwmsy5mxyng0)" height="36.7999" rx="12.5" ry="12.5" style="stroke:#1168BD;stroke-width:1.5;" width="104" x="290" y="190.3998"/><text fill="#FFFFFF" font-family="sans-serif" font-size="14" lengthAdjust="spacing" textLength="84" x="300" y="214.3997">Level 4, Code</text><path d="M240,123.5999 L250,123.5999 C265,123.5999 265,208.7997 280,208.7997 L290,208.7997 " fill="none" style="stroke:#E91E63;stroke-width:1.0;"/><path d="M95,208.7997 L105,208.7997 C120,208.7997 120,123.5999 135,123.5999 L145,123.5999 " fill="none" style="stroke:#E91E63;stroke-width:1.0;"/><rect fill="#1168BD" filter="url(#f1wwmsy5mxyng0)" height="53.5999" rx="12.5" ry="12.5" style="stroke:#1168BD;stroke-width:1.5;" width="117" x="145" y="295.5997"/><text fill="#FFFFFF" font-family="sans-serif" font-size="14" lengthAdjust="spacing" textLength="93" x="155" y="319.5996">Supplementary</text><text fill="#FFFFFF" font-family="sans-serif" font-size="14" lengthAdjust="spacing" textLength="58" x="155" y="336.3995">diagrams</text><rect fill="#1168BD" filter="url(#f1wwmsy5mxyng0)" height="36.7999" rx="12.5" ry="12.5" style="stroke:#1168BD;stroke-width:1.5;" width="133" x="312" y="247.1997"/><text fill="#FFFFFF" font-family="sans-serif" font-size="14" lengthAdjust="spacing" textLength="113" x="322" y="271.1996">System landscape</text><path d="M262,322.3996 L272,322.3996 C287,322.3996 287,265.5997 302,265.5997 L312,265.5997 " fill="none" style="stroke:#E91E63;stroke-width:1.0;"/><rect fill="#1168BD" filter="url(#f1wwmsy5mxyng0)" height="36.7999" rx="12.5" ry="12.5" style="stroke:#1168BD;stroke-width:1.5;" width="81" x="312" y="303.9996"/><text fill="#FFFFFF" font-family="sans-serif" font-size="14" lengthAdjust="spacing" textLength="61" x="322" y="327.9996">Dynamics</text><path d="M262,322.3996 L272,322.3996 C287,322.3996 287,322.3996 302,322.3996 L312,322.3996 " fill="none" style="stroke:#E91E63;stroke-width:1.0;"/><rect fill="#1168BD" filter="url(#f1wwmsy5mxyng0)" height="36.7999" rx="12.5" ry="12.5" style="stroke:#1168BD;stroke-width:1.5;" width="92" x="312" y="360.7996"/><text fill="#FFFFFF" font-family="sans-serif" font-size="14" lengthAdjust="spacing" textLength="72" x="322" y="384.7995">Deployment</text><path d="M262,322.3996 L272,322.3996 C287,322.3996 287,379.1995 302,379.1995 L312,379.1995 " fill="none" style="stroke:#E91E63;stroke-width:1.0;"/><path d="M95,208.7997 L105,208.7997 C120,208.7997 120,322.3996 135,322.3996 L145,322.3996 " fill="none" style="stroke:#E91E63;stroke-width:1.0;"/><!--MD5=[5d15f59105f5a4fabcf73c78a5bb01da]
@startmindmap
<style>
mindmapDiagram {
  node {
    BackgroundColor #1168bd
    LineColor #1168bd
    FontColor #fff
    MaximumWidth 150
  }
  boxless {
    FontColor #1168bd
  }
  arrow {
    LineColor #e91e63
  }
}
wbsDiagram {
  node {
    BackgroundColor #1168bd
    LineColor #1168bd
    FontColor #fff
    MaximumWidth 100
  }
  boxless {
    FontColor #1168bd
  }
  arrow {
    LineColor #e91e63
  }
}
</style>
* C4 models
 * Root models
  * Level 1, System context
  * Level 2, Containers
  * Level 3, Components
  * Level 4, Code
 * Supplementary diagrams
  * System landscape
  * Dynamics
  * Deployment
@endmindmap

PlantUML version 1.2021.16(Wed Dec 08 17:25:22 GMT 2021)
(GPL source distribution)
Java Runtime: OpenJDK Runtime Environment
JVM: OpenJDK 64-Bit Server VM
Default Encoding: UTF-8
Language: en
Country: US
--></g></svg>