<?xml version="1.0" encoding="UTF-8" standalone="no"?><svg xmlns="http://www.w3.org/2000/svg" xmlns:xlink="http://www.w3.org/1999/xlink" contentStyleType="text/css" height="585px" preserveAspectRatio="none" style="width:835px;height:585px;" version="1.1" viewBox="0 0 835 585" width="835px" zoomAndPan="magnify"><defs/><g><rect fill="none" height="583.0781" style="stroke:#FFFFFF;stroke-width:1.0;" width="833" x="0" y="0"/><!--cluster boundary1--><g id="cluster_boundary1"><rect fill="none" height="165" rx="2.5" ry="2.5" style="stroke:#444444;stroke-width:1.0;stroke-dasharray:7.0,7.0;" width="782" x="43" y="7"/><text fill="#444444" font-family="sans-serif" font-size="15" font-weight="bold" lengthAdjust="spacing" textLength="149" x="359.5" y="24.9233">System_Boundary</text><text fill="#444444" font-family="sans-serif" font-size="12" font-weight="bold" lengthAdjust="spacing" textLength="62" x="403" y="39.5996">[System]</text></g><!--cluster boundary2--><g id="cluster_boundary2"><rect fill="none" height="165" rx="2.5" ry="2.5" style="stroke:#444444;stroke-width:1.0;stroke-dasharray:7.0,7.0;" width="822" x="7" y="223"/><text fill="#444444" font-family="sans-serif" font-size="15" font-weight="bold" lengthAdjust="spacing" textLength="149" x="343.5" y="240.9233">System_Boundary</text><text fill="#444444" font-family="sans-serif" font-size="12" font-weight="bold" lengthAdjust="spacing" textLength="62" x="387" y="255.5996">[System]</text></g><!--entity container1--><g id="elem_container1"><rect fill="#438DD5" height="85.6953" rx="2.5" ry="2.5" style="stroke:#3C7FC0;stroke-width:0.5;" width="157" x="316.5" y="65.5"/><text fill="#FFFFFF" font-family="sans-serif" font-size="15" font-weight="bold" lengthAdjust="spacing" textLength="79" x="355.5" y="91.4233">Container</text><text fill="#FFFFFF" font-family="sans-serif" font-size="12" font-style="italic" lengthAdjust="spacing" textLength="82" x="354" y="106.0996">[Technology]</text><text fill="#FFFFFF" font-family="sans-serif" font-size="13" lengthAdjust="spacing" textLength="4" x="393" y="120.9966"> </text><text fill="#FFFFFF" font-family="sans-serif" font-size="13" lengthAdjust="spacing" textLength="4" x="328.5" y="136.1294"> </text><text fill="#FFFFFF" font-family="sans-serif" font-size="13" lengthAdjust="spacing" textLength="53" x="332.5" y="136.1294">Optional</text><text fill="#FFFFFF" font-family="sans-serif" font-size="13" lengthAdjust="spacing" textLength="4" x="385.5" y="136.1294"> </text><text fill="#FFFFFF" font-family="sans-serif" font-size="13" lengthAdjust="spacing" textLength="72" x="389.5" y="136.1294">Description</text></g><!--entity cqueue--><g id="elem_cqueue"><path d="M64,86 L210,86 C215,86 215,108.7148 215,108.7148 C215,108.7148 215,131.4297 210,131.4297 L64,131.4297 C59,131.4297 59,108.7148 59,108.7148 C59,108.7148 59,86 64,86 " fill="#438DD5" style="stroke:#3C7FC0;stroke-width:0.5;"/><path d="M210,86 C205,86 205,108.7148 205,108.7148 C205,131.4297 210,131.4297 210,131.4297 " fill="none" style="stroke:#3C7FC0;stroke-width:0.5;"/><text fill="#FFFFFF" font-family="sans-serif" font-size="15" font-weight="bold" lengthAdjust="spacing" textLength="132" x="66" y="106.9233">ContainerQueue</text><text fill="#FFFFFF" font-family="sans-serif" font-size="12" font-style="italic" lengthAdjust="spacing" textLength="82" x="91" y="121.5996">[Technology]</text></g><!--entity cdb--><g id="elem_cdb"><path d="M651.5,71 C651.5,61 730,61 730,61 C730,61 808.5,61 808.5,71 L808.5,145.6953 C808.5,155.6953 730,155.6953 730,155.6953 C730,155.6953 651.5,155.6953 651.5,145.6953 L651.5,71 " fill="#438DD5" style="stroke:#3C7FC0;stroke-width:0.5;"/><path d="M651.5,71 C651.5,81 730,81 730,81 C730,81 808.5,81 808.5,71 " fill="none" style="stroke:#3C7FC0;stroke-width:0.5;"/><text fill="#FFFFFF" font-family="sans-serif" font-size="15" font-weight="bold" lengthAdjust="spacing" textLength="101" x="679.5" y="100.9233">ContainerDb</text><text fill="#FFFFFF" font-family="sans-serif" font-size="12" font-style="italic" lengthAdjust="spacing" textLength="82" x="689" y="115.5996">[Technology]</text><text fill="#FFFFFF" font-family="sans-serif" font-size="13" lengthAdjust="spacing" textLength="4" x="728" y="130.4966"> </text><text fill="#FFFFFF" font-family="sans-serif" font-size="13" lengthAdjust="spacing" textLength="4" x="663.5" y="145.6294"> </text><text fill="#FFFFFF" font-family="sans-serif" font-size="13" lengthAdjust="spacing" textLength="53" x="667.5" y="145.6294">Optional</text><text fill="#FFFFFF" font-family="sans-serif" font-size="13" lengthAdjust="spacing" textLength="4" x="720.5" y="145.6294"> </text><text fill="#FFFFFF" font-family="sans-serif" font-size="13" lengthAdjust="spacing" textLength="72" x="724.5" y="145.6294">Description</text></g><!--entity container2--><g id="elem_container2"><rect fill="#B3B3B3" height="85.6953" rx="2.5" ry="2.5" style="stroke:#A6A6A6;stroke-width:0.5;" width="157" x="316.5" y="281.5"/><text fill="#FFFFFF" font-family="sans-serif" font-size="15" font-weight="bold" lengthAdjust="spacing" textLength="115" x="337.5" y="307.4233">Container_Ext</text><text fill="#FFFFFF" font-family="sans-serif" font-size="12" font-style="italic" lengthAdjust="spacing" textLength="82" x="354" y="322.0996">[Technology]</text><text fill="#FFFFFF" font-family="sans-serif" font-size="13" lengthAdjust="spacing" textLength="4" x="393" y="336.9966"> </text><text fill="#FFFFFF" font-family="sans-serif" font-size="13" lengthAdjust="spacing" textLength="4" x="328.5" y="352.1294"> </text><text fill="#FFFFFF" font-family="sans-serif" font-size="13" lengthAdjust="spacing" textLength="53" x="332.5" y="352.1294">Optional</text><text fill="#FFFFFF" font-family="sans-serif" font-size="13" lengthAdjust="spacing" textLength="4" x="385.5" y="352.1294"> </text><text fill="#FFFFFF" font-family="sans-serif" font-size="13" lengthAdjust="spacing" textLength="72" x="389.5" y="352.1294">Description</text></g><!--entity cqueue2--><g id="elem_cqueue2"><path d="M28,302 L210,302 C215,302 215,324.7148 215,324.7148 C215,324.7148 215,347.4297 210,347.4297 L28,347.4297 C23,347.4297 23,324.7148 23,324.7148 C23,324.7148 23,302 28,302 " fill="#B3B3B3" style="stroke:#A6A6A6;stroke-width:0.5;"/><path d="M210,302 C205,302 205,324.7148 205,324.7148 C205,347.4297 210,347.4297 210,347.4297 " fill="none" style="stroke:#A6A6A6;stroke-width:0.5;"/><text fill="#FFFFFF" font-family="sans-serif" font-size="15" font-weight="bold" lengthAdjust="spacing" textLength="168" x="30" y="322.9233">ContainerQueue_Ext</text><text fill="#FFFFFF" font-family="sans-serif" font-size="12" font-style="italic" lengthAdjust="spacing" textLength="82" x="73" y="337.5996">[Technology]</text></g><!--entity cdb2--><g id="elem_cdb2"><path d="M651.5,287 C651.5,277 732,277 732,277 C732,277 812.5,277 812.5,287 L812.5,361.6953 C812.5,371.6953 732,371.6953 732,371.6953 C732,371.6953 651.5,371.6953 651.5,361.6953 L651.5,287 " fill="#B3B3B3" style="stroke:#A6A6A6;stroke-width:0.5;"/><path d="M651.5,287 C651.5,297 732,297 732,297 C732,297 812.5,297 812.5,287 " fill="none" style="stroke:#A6A6A6;stroke-width:0.5;"/><text fill="#FFFFFF" font-family="sans-serif" font-size="15" font-weight="bold" lengthAdjust="spacing" textLength="137" x="663.5" y="316.9233">ContainerDb_Ext</text><text fill="#FFFFFF" font-family="sans-serif" font-size="12" font-style="italic" lengthAdjust="spacing" textLength="82" x="691" y="331.5996">[Technology]</text><text fill="#FFFFFF" font-family="sans-serif" font-size="13" lengthAdjust="spacing" textLength="4" x="730" y="346.4966"> </text><text fill="#FFFFFF" font-family="sans-serif" font-size="13" lengthAdjust="spacing" textLength="4" x="665.5" y="361.6294"> </text><text fill="#FFFFFF" font-family="sans-serif" font-size="13" lengthAdjust="spacing" textLength="53" x="669.5" y="361.6294">Optional</text><text fill="#FFFFFF" font-family="sans-serif" font-size="13" lengthAdjust="spacing" textLength="4" x="722.5" y="361.6294"> </text><text fill="#FFFFFF" font-family="sans-serif" font-size="13" lengthAdjust="spacing" textLength="72" x="726.5" y="361.6294">Description</text></g><!--link container1 to cdb--><g id="link_container1_cdb"><path d="M473.97,108.5 C524.42,108.5 589.92,108.5 642.04,108.5 " fill="none" id="container1-to-cdb" style="stroke:#666666;stroke-width:1.0;"/><polygon fill="#666666" points="649.76,108.5,641.76,105.5,641.76,111.5,649.76,108.5" style="stroke:#666666;stroke-width:1.0;"/><text fill="#666666" font-family="sans-serif" font-size="12" font-weight="bold" lengthAdjust="spacing" textLength="37" x="544" y="86.6387">Rel_R</text><text fill="#666666" font-family="sans-serif" font-size="12" font-style="italic" lengthAdjust="spacing" textLength="56" x="494" y="100.6074">[Optional</text><text fill="#666666" font-family="sans-serif" font-size="12" font-style="italic" lengthAdjust="spacing" textLength="4" x="550" y="100.6074"> </text><text fill="#666666" font-family="sans-serif" font-size="12" font-style="italic" lengthAdjust="spacing" textLength="77" x="554" y="100.6074">Technology]</text></g><!--link cqueue to container1--><g id="link_cqueue_container1"><path d="M224.93,108.5 C251.35,108.5 280.34,108.5 306.79,108.5 " fill="none" id="cqueue-container1" style="stroke:#666666;stroke-width:1.0;"/><polygon fill="#666666" points="216.97,108.5,224.97,111.5,224.97,105.5,216.97,108.5" style="stroke:#666666;stroke-width:1.0;"/><polygon fill="#666666" points="314.51,108.5,306.51,105.5,306.51,111.5,314.51,108.5" style="stroke:#666666;stroke-width:1.0;"/><text fill="#666666" font-family="sans-serif" font-size="12" font-weight="bold" lengthAdjust="spacing" textLength="35" x="248.25" y="86.6387">BiRel</text><text fill="#666666" font-family="sans-serif" font-size="12" font-style="italic" lengthAdjust="spacing" textLength="61" x="235.25" y="100.6074">[Optional]</text></g><!--link container2 to cdb2--><g id="link_container2_cdb2"><path d="M473.59,324.5 C523.95,324.5 589.47,324.5 641.94,324.5 " fill="none" id="container2-to-cdb2" style="stroke:#666666;stroke-width:1.0;"/><polygon fill="#666666" points="649.72,324.5,641.72,321.5,641.72,327.5,649.72,324.5" style="stroke:#666666;stroke-width:1.0;"/><text fill="#666666" font-family="sans-serif" font-size="12" font-weight="bold" lengthAdjust="spacing" textLength="37" x="544" y="302.6387">Rel_R</text><text fill="#666666" font-family="sans-serif" font-size="12" font-style="italic" lengthAdjust="spacing" textLength="56" x="494" y="316.6074">[Optional</text><text fill="#666666" font-family="sans-serif" font-size="12" font-style="italic" lengthAdjust="spacing" textLength="4" x="550" y="316.6074"> </text><text fill="#666666" font-family="sans-serif" font-size="12" font-style="italic" lengthAdjust="spacing" textLength="77" x="554" y="316.6074">Technology]</text></g><!--link cqueue2 to container2--><g id="link_cqueue2_container2"><path d="M224.51,324.5 C251.6,324.5 280.46,324.5 306.59,324.5 " fill="none" id="cqueue2-container2" style="stroke:#666666;stroke-width:1.0;"/><polygon fill="#666666" points="216.66,324.5,224.66,327.5,224.66,321.5,216.66,324.5" style="stroke:#666666;stroke-width:1.0;"/><polygon fill="#666666" points="314.57,324.5,306.57,321.5,306.57,327.5,314.57,324.5" style="stroke:#666666;stroke-width:1.0;"/><text fill="#666666" font-family="sans-serif" font-size="12" font-weight="bold" lengthAdjust="spacing" textLength="35" x="248.25" y="302.6387">BiRel</text><text fill="#666666" font-family="sans-serif" font-size="12" font-style="italic" lengthAdjust="spacing" textLength="61" x="235.25" y="316.6074">[Optional]</text></g><!--link container1 to container2--><g id="link_container1_container2"><path d="M395,151.78 C395,186.37 395,235.4 395,272.23 " fill="none" id="container1-to-container2" style="stroke:#666666;stroke-width:1.0;"/><polygon fill="#666666" points="395,279.79,398,271.79,392,271.79,395,279.79" style="stroke:#666666;stroke-width:1.0;"/><text fill="#666666" font-family="sans-serif" font-size="12" font-weight="bold" lengthAdjust="spacing" textLength="22" x="398" y="202.1387">Rel</text></g><text fill="#000000" font-family="sans-serif" font-size="14" font-weight="bold" lengthAdjust="spacing" textLength="59" x="668" y="428.9951">Legend</text><text fill="#FFFFFF" font-family="sans-serif" font-size="14" lengthAdjust="spacing" textLength="4" x="727" y="428.9951"> </text><rect fill="#08427B" height="20.2969" style="stroke:none;stroke-width:1.0;" width="136" x="666" y="434.2969"/><text fill="#FFFFFF" font-family="sans-serif" font-size="14" lengthAdjust="spacing" textLength="49" x="672" y="449.292">person</text><rect fill="#1168BD" height="20.2969" style="stroke:none;stroke-width:1.0;" width="136" x="666" y="454.5938"/><text fill="#FFFFFF" font-family="sans-serif" font-size="14" lengthAdjust="spacing" textLength="50" x="672" y="469.5889">system</text><rect fill="#438DD5" height="20.2969" style="stroke:none;stroke-width:1.0;" width="136" x="666" y="474.8906"/><text fill="#FFFFFF" font-family="sans-serif" font-size="14" lengthAdjust="spacing" textLength="65" x="672" y="489.8857">container</text><rect fill="#686868" height="20.2969" style="stroke:none;stroke-width:1.0;" width="136" x="666" y="495.1875"/><text fill="#FFFFFF" font-family="sans-serif" font-size="14" lengthAdjust="spacing" textLength="108" x="672" y="510.1826">external person</text><rect fill="#999999" height="20.2969" style="stroke:none;stroke-width:1.0;" width="136" x="666" y="515.4844"/><text fill="#FFFFFF" font-family="sans-serif" font-size="14" lengthAdjust="spacing" textLength="109" x="672" y="530.4795">external system</text><rect fill="#B3B3B3" height="20.2969" style="stroke:none;stroke-width:1.0;" width="136" x="666" y="535.7813"/><text fill="#FFFFFF" font-family="sans-serif" font-size="14" lengthAdjust="spacing" textLength="124" x="672" y="550.7764">external container</text><line style="stroke:#FFFFFF;stroke-width:1.0;" x1="666" x2="802" y1="414" y2="414"/><line style="stroke:#FFFFFF;stroke-width:1.0;" x1="666" x2="802" y1="434.2969" y2="434.2969"/><line style="stroke:#FFFFFF;stroke-width:1.0;" x1="666" x2="802" y1="454.5938" y2="454.5938"/><line style="stroke:#FFFFFF;stroke-width:1.0;" x1="666" x2="802" y1="474.8906" y2="474.8906"/><line style="stroke:#FFFFFF;stroke-width:1.0;" x1="666" x2="802" y1="495.1875" y2="495.1875"/><line style="stroke:#FFFFFF;stroke-width:1.0;" x1="666" x2="802" y1="515.4844" y2="515.4844"/><line style="stroke:#FFFFFF;stroke-width:1.0;" x1="666" x2="802" y1="535.7813" y2="535.7813"/><line style="stroke:#FFFFFF;stroke-width:1.0;" x1="666" x2="802" y1="556.0781" y2="556.0781"/><line style="stroke:#FFFFFF;stroke-width:1.0;" x1="666" x2="666" y1="414" y2="556.0781"/><line style="stroke:#FFFFFF;stroke-width:1.0;" x1="802" x2="802" y1="414" y2="556.0781"/><!--SRC=[lHbfKnl7yhj-nQ1G9LGbOxJ860Wu1KBOhiBW83afVr96korfmcf7sPb5wANotr_txA7PYokkuC8hfkzhkdlLOaEzzaKmOmgqngTYKncohpuFzBSlLymJV1RoXMgqs120pRLU7hzzkoHmjF1tbOn25v1Y1hi1Q4FhIJTQGA2v5Z90kf5aCmHnvWkbcPoofLHAJ7nWwau4IuxiC-4T5aR1CKlvipVuOHRn6I0VPEs6m3KWgqo_gK0-Aw7dxCy8kV-HiGGDeVgZWNJzcwkRso5-E7tc3n7D882G-yoLlWpH9w5SCBaAc49lWPe3wCRMTkASyOIxTxDGHe4tDlZib3Lro0E5cg0ZcZQg33q8DsW_JQTJ6xu17ExHFuBnC9Gh2m97NJZO9mW6xiu2xFUE3Y_EcwJ_Wj-Xdxo530I58RM3ttFXS_8zHGfye40fvEJoYF0iPdoljt_aDYrO3fpeBHPB6MeCXWNozfsfKu1MqGPIWtNgTDy3lCy0LHHQBAt3NfTFUmVfUHN-YeS1ffNjk-vXjzkpOMKwT5yWFHXtE_7JOJpm62d5DBerYBEXtpF9W2oCneG_Nd1XSzixx3dl9yqKxXJXtUx1uSIpu3nwS2hYcNYaG7rqT6HqZLHLf2c-KiyX5sLVpeIRvvFt4U9G8YyBEBdiCDbwBoYDyrXPT1gDhMKeNV2Y45WYr1JEplOz3q-xxGPZsudpp567bLIhFYe6hSqQMn1ucRIyvDWKItAlIdBHuEgZOX5qC0ANbvVzoyjc-p4TKbSzPN_PfNM7Th8_Rd-IbK-9BYLl9wa4VDBZ6KASvmbnweLiK3P5y9HW_JphSgNpf6tOw4RVhmRiq-3gw-0LVKCpb2jCyuiRKrmVI-vZZuDZnDacRR39XMB1mpMriAJFT9XUBuNBVN_DDZs5AD0dU1lHmpd6OlTQlaMcSdIcmNGOzx411gZ6FHHuoO1OoG0vQNZG5Jn8FmFhC1Kjb_7zWQeYTMQR8akwRHR2BF9vo7OycFB8rsqyTjeim0wCi7jimk2n7Umvu3CPQONvJ2ZxxHIQrwxNnZ5XDjVvqtVjn2vyF20tAPV6Gk9qq6QxkxlvrB1Ju9Ii9OiwcHjZ3v0pJvi_kQxRZFs1VnmS73GfYRR4bCNKfqt7d31sdcdKDn4rJ6E8qIqv9Hdcz586keWvnA20H4z36Re5lW9BxdwTt4n2Jcucur_AxTLBTLvaRT6UTp_GZv-08wO5mP1MY3oe4ncZ_m29AQ0kI0MDth_8kO-4j6ZfuO-sj8QHaVjlmvZgL9cLJ_WrLIFmnBGHSnsA_m7hxfSlye-3wy7jsHKR3aQZpzSVNtQNRsrFfBSUJr70UCeN0kz5dBeKJlLl58G2vyGM0-xEq_cAkJmmrx_GogmAfDerNeETJCda4pMidscUf9iSQB9SDHgRNQXaSjsQOT5Sn2WvprUj71R99tHxI0j4WhxP9T1r6pISAwKxnu4NXzym0ek1cdDFhcXrd79A2eirpikhK62x2qgmhsWpqJYsa5ioofKXxbpidMd1yJw8czv2168HBR2LUjHBqSTcjL7mLmI12-c2YlqrrC8LIrms5CC6SOUQXzHSS5F4ZB0qG8vzdolrk-7OtTkpdNyHTp7sToENiRZJnfaGEuXbmMMbB4cJagACeGqNtCUZ4NRJC-niGPmg-1-4ZNzioMUqvHcvQULirhwyCZOWn-AQLXJYa9-DseJLOj-60zO_6mvUL0MMVgv6uGbtQwvqwE9fiIzcuIISnFs-m0ES8_gz1cEnD_WA52PINkbl2bokmEBis7hRcUFUyLc2Q8_sYNrd_T7dtpwFlh_UFfoszRfI4MC2PbWIWTB4ZF11LgzLq7EUbcLngobaGQ855ZHMdXShOszG9QTWsfjPizej6ypXIYom5XB_vTUI6jIHq7ub_a7Yyk7Wrs-3w_xBKgfbCkaOInWe-AnFqK_Bc4_aFPGCZEkw8lbe0CokbDvUtenpkbLemYxJxHSixcDrXT9_1kOWqFaaoIEscCSrdv19vZX-8mPBNwvDvQVlqph6V6nOz49CpuKoRxAGdF0vMydmZfkhtXmKRpjbtrYflB9AtPALlW-kcTuhVPb3_ZM229v66oQgNOafO0kfgkFtDIGNuFDrLNevTGGnrdCoEA7uIFLGBg9tDUYtCCM9X1nTggP3kkRY_ZgQ2_Sk0ALOjvhDEIuf9GQzNAxYk6AovTbbyv8AG-IBmTUhc-zV1jUZ5owmXU9qhUAa7f8SrI8abtGrdErCnSClv8UqD6EyOI6zwQLjN92ryBWCQy4cUMkWv9saPgenDcfQ1VCugds3po1tLTLrCznzqrlxiVewm-jlYdtrQOvzkLZAu5d2BuN_Z8RRvw7tDDOGyoLhou-oysNaLTP5NZTwUVzaDxj6GRMJW3i7zov-Zq2l33Pl4cojyRHEvnR3fWF6wtZv6W6_s1fAFxk57b7n4ppmMHhYHrhuPve5KHYKCOlDvsRo9zIa0jujPrg7OX9fg9aLM_QGKW3OqqtjV7cBmdamyw769dC_UF7GX-EtXxlYSHNvoSaagVyF7ygi3ae9nZNynpQtJ0T-4xVWOxA8LtJn3dPks3HyyyuBEpd6NCjbtDXn35Wl9j97ZeP9iPDtS5qacWduEFqB_NECI5yVUMQkutxwDKEpmrPqdmQqENf2qO8K2JL7Mhq2NBLG6jrzw8q4aU4i5ORO9MD5aY_wp3S3mUOAe_sRHOf0X1R0oaPTS8qyT_3oMoZIrPEWpEvA3egdczH-r7lZesGZPMlGxSQ9YTW73A7AMdaC_jli-fuzmnHU5bHDqupzqw3VaxS9uoqHk7w4XfxqUs_xlJ6r3oI0y4EZSNNs_URRQFpxvz6dyTNWu-3wWWRwuLffM8pJHhIJPcItmve56BqhpcP9ybQpdUnfYP0TD_r4rDanqOt0dGUezSnmkLac8Rq0vOR2_6LUt6Gqfd7jk7_Hm-PbpWiCSuGNantNczWa5vDdAu2CRi4Vt-OCYTcPynnfGODpGIXNUT9KVmEqgPkckEkSxxp2-UF1Wzu8TsmF4EZLGOZv6aESKYGgE1UY4PDx4oSVaXUfL0wBOyBYl2ekJXeNfpumU9WFfErNecZ_7m00]--></g></svg>